<svg xmlns="http://www.w3.org/2000/svg" viewBox="0 0 285.23 285.17"><defs><style>.cls-1{fill:#fff;}.cls-2{fill:#1b1b1b;}</style></defs><g id="レイヤー_2" data-name="レイヤー 2"><g id="creator-hover"><circle class="cls-1" cx="142.71" cy="142.52" r="138.87"/><path class="cls-2" d="M226.14,27l-4,5.56a21.9,21.9,0,0,1,2.09,2c.35.34.74.64,1.11.94.75.46,1.17,0,2,.22l1.15-.39c.25-.46,1.68-1.21,1.25-1.79s.82-1.66.06-1.93c-.68-.47-1.05-2.35-1.75-2.85A18.21,18.21,0,0,1,226.14,27Z"/><path class="cls-2" d="M176.67,11.24,178.4,4.6a3.68,3.68,0,0,1,1.24.61,2.42,2.42,0,0,0,.75.28c.26.07.55.06.81.11a7.57,7.57,0,0,1,1.31.39,6.54,6.54,0,0,0,2.9.64,4,4,0,0,1,2.32.58,16,16,0,0,0,2.47,1.12,3.75,3.75,0,0,1,.66.4s0,0,0,0a3.75,3.75,0,0,0,.73.3c1.4.43,2.67,1.16,4.06,1.57a9.65,9.65,0,0,1,2.58,1.07c1.82.73,3.56,1.65,5.42,2.2a9.13,9.13,0,0,1,2.8,1.22A21.9,21.9,0,0,0,209,16.46,13.9,13.9,0,0,1,212,18.27a3.1,3.1,0,0,0,.89.5,19.2,19.2,0,0,1,3.64,1.79,15.55,15.55,0,0,1,3.24,2.08,2.63,2.63,0,0,0,.61.44c2,1.19,3.8,2.67,5.72,4l-4,5.56a12.17,12.17,0,0,1-2.54-1.86,3.54,3.54,0,0,0-.81-.47,2.08,2.08,0,0,1-1.09-1,.62.62,0,0,0-.37-.32,4.87,4.87,0,0,1-1.92-1,6.79,6.79,0,0,0-1.09-.52,4,4,0,0,1-.9-.37A60.73,60.73,0,0,1,208,23.77a5.87,5.87,0,0,0-1.06-.6c-1.38-.67-2.72-1.43-4.16-2a13.32,13.32,0,0,0-2.4-1.17c-.82-.34-1.66-.66-2.46-1a2.46,2.46,0,0,0-.92-.24,2.35,2.35,0,0,1-1.92-.92,1.24,1.24,0,0,0-.81-.48c-.16,0-.33,0-.48-.09-.4-.12-.79-.22-1.17-.35a5.63,5.63,0,0,0-1.13-.43,1.62,1.62,0,0,1-.62-.33,5.73,5.73,0,0,0-1.38-.84c-.16-.08-.34-.13-.52-.2s-.41-.11-.57-.18l-.36-.11L185,13.86c-.83-.23-1.61-.67-2.44-.85s-1.49-.46-2.25-.63S177.51,11.42,176.67,11.24Z"/><path class="cls-2" d="M126.59,7.84,125.76,1a3.5,3.5,0,0,1,1.39.15,2.68,2.68,0,0,0,.8,0c.27,0,.53-.13.8-.18a7.71,7.71,0,0,1,1.36-.08A6.51,6.51,0,0,0,133,.38a3.56,3.56,0,0,1,2.37-.3,15.77,15.77,0,0,0,2.71.21,3.88,3.88,0,0,1,.76.12l0,0a3.54,3.54,0,0,0,.8,0c1.46-.14,2.9,0,4.34,0a13.17,13.17,0,0,1,2.8.09c2,0,3.92.11,5.85.06a12,12,0,0,1,3.06.11,22,22,0,0,0,2.79.28,13.33,13.33,0,0,1,3.52.65,2.86,2.86,0,0,0,1,.13,17.18,17.18,0,0,1,4,.27,20.33,20.33,0,0,1,3.77.84,3.1,3.1,0,0,0,.73.17,34.26,34.26,0,0,1,3.4.71c1.11.33,2.23.67,3.36.91l-1.73,6.64a9.83,9.83,0,0,1-3-.88,3.06,3.06,0,0,0-.93-.15,2,2,0,0,1-1.37-.46.57.57,0,0,0-.45-.15,5,5,0,0,1-2.17-.17,8.13,8.13,0,0,0-1.19-.12,3.82,3.82,0,0,1-1-.05c-2.06-.47-4.19-.47-6.23-1.13a6.9,6.9,0,0,0-1.19-.21L158,7.77l-1.14-.08a22.39,22.39,0,0,0-2.32-.08,21.56,21.56,0,0,0-2.66-.25c-.89-.05-1.78-.08-2.66-.08a2.81,2.81,0,0,0-.94.13,2.35,2.35,0,0,1-2.13-.09,1.36,1.36,0,0,0-.93-.17,4,4,0,0,1-.48.07c-.41,0-.81.06-1.21.07a5.4,5.4,0,0,0-1.21,0,1.35,1.35,0,0,1-.69,0A5.12,5.12,0,0,0,140,7a5.32,5.32,0,0,0-.56,0c-.18,0-.41.06-.59.06l-.38,0c-1.09.09-2.17.12-3.26.18a20.28,20.28,0,0,0-2.58.14l-2.31.29C129.49,7.8,127.44,7.71,126.59,7.84Z"/><path class="cls-2" d="M78.68,22.92l-3.24-6.05a3.5,3.5,0,0,1,1.34-.36,2.54,2.54,0,0,0,.75-.29c.24-.12.45-.31.68-.45a8.22,8.22,0,0,1,1.24-.58A6.67,6.67,0,0,0,82,13.61a4,4,0,0,1,2.12-1.1,15.34,15.34,0,0,0,2.59-.82,3.06,3.06,0,0,1,.74-.17h0a3.39,3.39,0,0,0,.73-.3c1.32-.65,2.75-.93,4.05-1.57a13.13,13.13,0,0,1,2.63-1c1.82-.72,3.73-1.19,5.48-2a9.31,9.31,0,0,1,2.89-1,22,22,0,0,0,2.71-.7,13,13,0,0,1,3.5-.75,2.71,2.71,0,0,0,1-.24,19.58,19.58,0,0,1,3.89-1.14,16.31,16.31,0,0,1,3.79-.68,3.22,3.22,0,0,0,.75-.1c2.24-.46,4.61-.55,6.87-1l.83,6.81a9.86,9.86,0,0,1-3.13.39,3.67,3.67,0,0,0-.91.2,2.13,2.13,0,0,1-1.45,0,.54.54,0,0,0-.48,0,5.11,5.11,0,0,1-2.09.58,8.58,8.58,0,0,0-1.15.37,4.27,4.27,0,0,1-.9.34,56.94,56.94,0,0,1-6.23,1.16,5.94,5.94,0,0,0-1.18.27c-1.47.44-3,.78-4.43,1.34a48.36,48.36,0,0,0-5.06,1.68,2.49,2.49,0,0,0-.84.44,2.56,2.56,0,0,1-2,.66,1.32,1.32,0,0,0-.92.2,3.5,3.5,0,0,1-.42.24c-.37.19-.73.37-1.09.53a6.33,6.33,0,0,0-1.14.43,1.3,1.3,0,0,1-.68.17,5.11,5.11,0,0,0-1.59.32,5.23,5.23,0,0,0-.51.22c-.16.08-.36.21-.53.28l-.34.17c-1,.5-2,.93-3,1.39-.76.39-1.65.55-2.38,1l-2,1.12C81.36,21.82,79.42,22.49,78.68,22.92Z"/><path class="cls-2" d="M39.6,54.45,34.38,50a3.72,3.72,0,0,1,1.1-.85,2.7,2.7,0,0,0,.58-.54c.18-.21.3-.47.46-.69a7.87,7.87,0,0,1,.92-1,7,7,0,0,0,1.84-2.35,4.07,4.07,0,0,1,1.53-1.84A23.82,23.82,0,0,0,42.92,41a3.54,3.54,0,0,1,.64-.42h0a3.41,3.41,0,0,0,.59-.53c1-1.08,2.19-1.91,3.15-3a12.41,12.41,0,0,1,2.13-1.82c1.45-1.33,3-2.57,4.35-3.92a11.49,11.49,0,0,1,2.32-2c.8-.51,1.51-1.12,2.25-1.67a14.23,14.23,0,0,1,3-1.93,3,3,0,0,0,.83-.61,14.45,14.45,0,0,1,3.19-2.5,20.37,20.37,0,0,1,3.3-2,2.81,2.81,0,0,0,.64-.39c1.93-1.23,4.12-2.17,6.07-3.39l3.24,6.05A9.64,9.64,0,0,1,75.9,24.4a3.86,3.86,0,0,0-.79.52,2.11,2.11,0,0,1-1.34.55.6.6,0,0,0-.45.18A5.39,5.39,0,0,1,71.63,27a8,8,0,0,0-.95.74,3.93,3.93,0,0,1-.73.63c-.91.55-1.79,1.13-2.66,1.72a19.43,19.43,0,0,1-2.69,1.66,5.94,5.94,0,0,0-1,.66c-.61.47-1.26.89-1.86,1.36s-1.19,1-1.76,1.52a39.16,39.16,0,0,0-4.12,3.38,2.71,2.71,0,0,0-.6.73,2.36,2.36,0,0,1-1.64,1.36,1.36,1.36,0,0,0-.8.5,3.79,3.79,0,0,1-.31.37c-.29.3-.56.59-.83.89s-.65.47-.88.83a1.32,1.32,0,0,1-.56.42,5.58,5.58,0,0,0-1.35.9,4.67,4.67,0,0,0-.4.38c-.13.12-.27.32-.4.44l-.26.28c-.77.78-1.49,1.58-2.24,2.38-.56.64-1.29,1.15-1.83,1.83s-1.06,1.13-1.52,1.76S40.13,53.77,39.6,54.45Z"/><path class="cls-2" d="M14.62,98,8.14,95.75a3.4,3.4,0,0,1,.71-1.19,2.55,2.55,0,0,0,.33-.73c.09-.25.1-.54.17-.8a9.82,9.82,0,0,1,.54-1.25,6.57,6.57,0,0,0,.85-2.86,4.09,4.09,0,0,1,.73-2.27,17.14,17.14,0,0,0,1.39-2.34,3.39,3.39,0,0,1,.44-.63s0,0,0,0a3.89,3.89,0,0,0,.35-.71c.51-1.38,1.3-2.6,1.87-3.92a13.05,13.05,0,0,1,1.3-2.48c.8-1.8,1.89-3.43,2.63-5.22A12.29,12.29,0,0,1,20.9,68.6a24.81,24.81,0,0,0,1.54-2.34,13.56,13.56,0,0,1,2.07-2.92,4,4,0,0,0,.55-.87A19.22,19.22,0,0,1,27.14,59a14.77,14.77,0,0,1,2.35-3,3.29,3.29,0,0,0,.48-.58c1.33-1.86,2.94-3.6,4.41-5.37l5.22,4.45a12.21,12.21,0,0,1-2.09,2.36,3.42,3.42,0,0,0-.53.77,2.09,2.09,0,0,1-1,1,.55.55,0,0,0-.34.34,4.92,4.92,0,0,1-1.13,1.85,5.37,5.37,0,0,0-.61,1,4.1,4.1,0,0,1-.44.86c-.64.84-1.22,1.72-1.83,2.58-.3.44-.61.86-.94,1.27a14.94,14.94,0,0,1-1,1.24,5.57,5.57,0,0,0-.69,1,38.51,38.51,0,0,0-2.35,4c-1,1.47-1.73,3.12-2.61,4.65a2.28,2.28,0,0,0-.3.9,2.34,2.34,0,0,1-1,1.87,1.35,1.35,0,0,0-.55.77c-.06.15-.08.32-.15.46-.16.39-.3.76-.47,1.12A5.77,5.77,0,0,0,21,83.6a1.48,1.48,0,0,1-.36.6,5.54,5.54,0,0,0-.92,1.33c-.09.15-.14.32-.23.51s-.13.39-.21.56-.09.24-.14.35c-.38,1-.87,2-1.25,3-.28.81-.77,1.56-1,2.38l-.79,2.19C15.73,95.34,14.87,97.19,14.62,98Z"/><path class="cls-2" d="M7.16,147.65l-6.86.27a3.32,3.32,0,0,1,.25-1.37,2.59,2.59,0,0,0,.07-.79c0-.28-.09-.55-.11-.82a7.73,7.73,0,0,1,0-1.36,6.72,6.72,0,0,0-.32-3,4,4,0,0,1-.07-2.39,15.64,15.64,0,0,0,.4-2.68,3.38,3.38,0,0,1,.17-.75s0,0,0,0A3.57,3.57,0,0,0,.79,134c0-1.47.36-2.88.36-4.33a12.48,12.48,0,0,1,.27-2.78c.15-2,.56-3.89.56-5.83a9.64,9.64,0,0,1,.36-3,20.32,20.32,0,0,0,.56-2.75,12,12,0,0,1,.87-3.47,2.75,2.75,0,0,0,.22-1,19.61,19.61,0,0,1,.64-4,16,16,0,0,1,1.12-3.69,4.32,4.32,0,0,0,.23-.72A31.49,31.49,0,0,1,7,99c.41-1.09.83-2.18,1.16-3.28L14.62,98A9.72,9.72,0,0,1,13.51,101a3.12,3.12,0,0,0-.23.91,2,2,0,0,1-.57,1.32.57.57,0,0,0-.19.45,4.93,4.93,0,0,1-.36,2.14A8.23,8.23,0,0,0,12,107a4.36,4.36,0,0,1-.14,1A45.22,45.22,0,0,1,10.16,114a5.32,5.32,0,0,0-.27,1.18c-.24,1.52-.59,3-.72,4.57a46.54,46.54,0,0,0-.72,5.28,2.93,2.93,0,0,0,0,.94,2.49,2.49,0,0,1-.29,2.11A1.38,1.38,0,0,0,8,129a4,4,0,0,1,0,.49c0,.42,0,.82,0,1.21a6.89,6.89,0,0,0-.11,1.21,1.3,1.3,0,0,1-.14.69,4.79,4.79,0,0,0-.4,1.56,3.41,3.41,0,0,0,0,.56c0,.18,0,.42,0,.6v.38c0,1.1,0,2.17,0,3.26a24.93,24.93,0,0,0-.11,2.59l.11,2.33C7.34,144.76,7.07,146.8,7.16,147.65Z"/><path class="cls-2" d="M18.35,196.61l-6.29,2.73a3.59,3.59,0,0,1-.29-1.35,2.61,2.61,0,0,0-.25-.76c-.1-.25-.3-.46-.41-.71a7,7,0,0,1-.44-1.29,6.69,6.69,0,0,0-1.32-2.67,4,4,0,0,1-1-2.17,17.17,17.17,0,0,0-.57-2.66,3.86,3.86,0,0,1-.1-.76s0,0,0-.05a3.54,3.54,0,0,0-.23-.76c-.52-1.37-.82-2.78-1.28-4.15a12.93,12.93,0,0,1-.71-2.7c-.29-.94-.54-1.89-.81-2.83s-.47-1.89-.81-2.8a12.37,12.37,0,0,1-.78-3c-.12-.94-.33-1.85-.5-2.76a14.13,14.13,0,0,1-.42-3.55,3,3,0,0,0-.19-1,14.73,14.73,0,0,1-.85-4,21.51,21.51,0,0,1-.35-3.84,2.72,2.72,0,0,0-.06-.75c-.28-2.27-.15-4.65-.4-6.94l6.86-.27a9.76,9.76,0,0,1,.11,3.15,3.48,3.48,0,0,0,.12.93,2.13,2.13,0,0,1-.09,1.45.57.57,0,0,0,0,.48,5.51,5.51,0,0,1,.48,2.12A6.58,6.58,0,0,0,8,157a3.94,3.94,0,0,1,.24.94c.1,1.05.24,2.09.38,3.14a18.28,18.28,0,0,1,.32,3.15,6.07,6.07,0,0,0,.16,1.2l.39,2.27c.17.75.36,1.5.6,2.24a51.61,51.61,0,0,0,1.22,5.2,2.84,2.84,0,0,0,.4.86,2.37,2.37,0,0,1,.52,2.06,1.38,1.38,0,0,0,.1.94,4.28,4.28,0,0,1,.2.44c.15.39.29.77.42,1.15a4.15,4.15,0,0,0,.34,1.16,1.3,1.3,0,0,1,.14.68,5.72,5.72,0,0,0,.22,1.6,4.15,4.15,0,0,0,.18.53c.05.17.16.39.22.56l.13.35c.42,1,.69,2.06,1.12,3.07.35.78.49,1.66.87,2.43l.91,2.15C17.37,193.89,18,195.84,18.35,196.61Z"/><path class="cls-2" d="M46.52,238.17,41.66,243a3.64,3.64,0,0,1-.74-1.18,2.44,2.44,0,0,0-.49-.63,7.91,7.91,0,0,0-.63-.52,7.3,7.3,0,0,1-.9-1,7.08,7.08,0,0,0-2.24-2A4.07,4.07,0,0,1,35,236a16.07,16.07,0,0,0-1.53-2.24,2.7,2.7,0,0,1-.38-.66s0,0,0,0a4.31,4.31,0,0,0-.49-.62c-1-1.09-1.69-2.37-2.67-3.43a11.29,11.29,0,0,1-1.69-2.23C27,225.2,26,223.53,24.65,222.1a10,10,0,0,1-1.77-2.49,23.18,23.18,0,0,0-1.47-2.39c-.34-.49-.68-1-1-1.49a10.67,10.67,0,0,1-.72-1.66,2.84,2.84,0,0,0-.52-.88,20.41,20.41,0,0,1-2.27-3.36,20.2,20.2,0,0,1-1.66-3.48,3.26,3.26,0,0,0-.32-.68c-1.17-2-1.86-4.26-2.88-6.33l6.29-2.73a9.67,9.67,0,0,1,1.2,2.92,3.42,3.42,0,0,0,.43.83,2.1,2.1,0,0,1,.48,1.36.57.57,0,0,0,.16.46,5,5,0,0,1,1.2,1.8,8,8,0,0,0,.64,1,3.86,3.86,0,0,1,.55.79,54.25,54.25,0,0,1,2.93,5.61,5.54,5.54,0,0,0,.58,1.07c.85,1.27,1.62,2.6,2.59,3.82a36.41,36.41,0,0,0,3,4.38,3,3,0,0,0,.67.67A2.32,2.32,0,0,1,34,223.1a1.33,1.33,0,0,0,.47.82,2.73,2.73,0,0,1,.35.33c.29.3.57.59.83.89a6.65,6.65,0,0,0,.74,1,1.29,1.29,0,0,1,.37.59,5.6,5.6,0,0,0,.76,1.43,3.55,3.55,0,0,0,.35.44c.11.14.3.29.42.43l.26.27c.76.79,1.46,1.6,2.19,2.42.6.62,1,1.42,1.66,2l1.66,1.63C44.69,235.92,45.9,237.57,46.52,238.17Z"/><path class="cls-2" d="M87.94,266.58l-2.78,6.27A3.8,3.8,0,0,1,84,272a2.36,2.36,0,0,0-.69-.4,6.46,6.46,0,0,0-.78-.25,6.91,6.91,0,0,1-1.22-.6,7.37,7.37,0,0,0-2.78-1.08,4,4,0,0,1-2.19-.95,20.19,20.19,0,0,0-2.25-1.52,3,3,0,0,1-.58-.5s0,0,0,0a3.42,3.42,0,0,0-.68-.41c-1.31-.64-2.45-1.55-3.76-2.17a11.74,11.74,0,0,1-2.35-1.51c-.85-.5-1.67-1-2.49-1.56-.42-.26-.83-.51-1.26-.75s-.82-.5-1.25-.73a11.66,11.66,0,0,1-2.57-1.66c-.72-.62-1.5-1.14-2.25-1.67a14.38,14.38,0,0,1-2.71-2.34,3,3,0,0,0-.82-.62,9.24,9.24,0,0,1-1.73-1c-.54-.42-1-.86-1.58-1.29a20.65,20.65,0,0,1-2.86-2.59,3.33,3.33,0,0,0-.55-.51c-1.74-1.49-3.27-3.31-5-4.83l4.86-4.84a9.79,9.79,0,0,1,2.22,2.23,3.7,3.7,0,0,0,.72.61,2.05,2.05,0,0,1,.91,1.12.65.65,0,0,0,.31.38,5.49,5.49,0,0,1,1.78,1.24,9.15,9.15,0,0,0,1,.69,3.81,3.81,0,0,1,.82.52c.78.71,1.58,1.39,2.4,2A17.53,17.53,0,0,1,59,249.12a7,7,0,0,0,.93.78,30.44,30.44,0,0,0,3.79,2.63,36.88,36.88,0,0,0,4.43,3,2.43,2.43,0,0,0,.87.37,2.38,2.38,0,0,1,1.77,1.19,1.31,1.31,0,0,0,.71.62c.14.07.31.11.44.19.37.2.74.35,1.09.54a6.35,6.35,0,0,0,1,.6,1.46,1.46,0,0,1,.57.42,5.4,5.4,0,0,0,1.24,1,4.33,4.33,0,0,0,.48.28c.15.09.38.17.54.26l.33.17,2.93,1.45c.78.36,1.47.92,2.27,1.24s1.4.68,2.13.95S87.14,266.26,87.94,266.58Z"/><path class="cls-2" d="M136.82,278l-.3,6.85a3.43,3.43,0,0,1-1.34-.33,2.6,2.6,0,0,0-.79-.11c-.27,0-.55.06-.82.06a7.64,7.64,0,0,1-1.35-.15,6.52,6.52,0,0,0-3,0,4.09,4.09,0,0,1-2.4-.05,18.2,18.2,0,0,0-2.64-.66,2.77,2.77,0,0,1-.72-.24l0,0a3.18,3.18,0,0,0-.79-.13c-1.46-.11-2.86-.49-4.29-.67a13.16,13.16,0,0,1-2.74-.54c-1-.15-1.94-.32-2.9-.52a25.32,25.32,0,0,0-2.87-.5,12.45,12.45,0,0,1-3-.58c-.9-.28-1.79-.59-2.69-.79a14.61,14.61,0,0,1-3.39-1.16,3.15,3.15,0,0,0-1-.27,18.23,18.23,0,0,1-3.92-1,15.54,15.54,0,0,1-3.6-1.37,3.52,3.52,0,0,0-.69-.3c-1.08-.36-2.15-.83-3.22-1.3l-1.6-.69c-.52-.25-1-.49-1.59-.7l2.78-6.27a12.91,12.91,0,0,1,2.86,1.31,3.19,3.19,0,0,0,.89.29,2.12,2.12,0,0,1,1.27.7.59.59,0,0,0,.42.24,4.89,4.89,0,0,1,2.09.55,6.4,6.4,0,0,0,1.17.28,4.2,4.2,0,0,1,1,.18c2,.73,4,1.28,6,2.15a6,6,0,0,0,1.15.38,33.81,33.81,0,0,0,4.49,1.1c1.69.55,3.48.77,5.2,1.19a2.77,2.77,0,0,0,1,0,2.34,2.34,0,0,1,2.08.43,1.34,1.34,0,0,0,.89.31,3.81,3.81,0,0,1,.48,0c.42,0,.82.07,1.21.13a4.71,4.71,0,0,0,1.19.21,1.46,1.46,0,0,1,.68.17,5.18,5.18,0,0,0,1.53.5c.18,0,.36,0,.56.08s.42,0,.59,0l.38,0c1.1.07,2.15.27,3.25.33.85,0,1.71.29,2.57.29l2.32.13C133.94,277.72,136,278,136.82,278Z"/><path class="cls-2" d="M186.52,270.86l2.21,6.49a3.72,3.72,0,0,1-1.38.16,2.66,2.66,0,0,0-.78.17c-.26.08-.49.24-.75.34a7.22,7.22,0,0,1-1.3.39,7.7,7.7,0,0,0-2.77,1.1,4,4,0,0,1-2.26.77,15.6,15.6,0,0,0-2.68.42,2.73,2.73,0,0,1-.76.05l-.05,0a3.85,3.85,0,0,0-.78.15c-1.4.41-2.86.5-4.24.92a10.08,10.08,0,0,1-2.75.53c-1.92.39-3.87.59-5.73,1.16a10.51,10.51,0,0,1-3,.51,21.43,21.43,0,0,0-2.79.27c-.59.09-1.18.18-1.77.23a9.87,9.87,0,0,1-1.8-.08,2.74,2.74,0,0,0-1,.09,19.28,19.28,0,0,1-4,.56,18.45,18.45,0,0,1-3.86,0,3.76,3.76,0,0,0-.75,0,26.8,26.8,0,0,1-3.47,0c-1.16-.08-2.32-.16-3.48-.16l.3-6.85a9.84,9.84,0,0,1,3.14.2,2.93,2.93,0,0,0,.94,0,2.07,2.07,0,0,1,1.43.16.58.58,0,0,0,.48.06,4.93,4.93,0,0,1,2.15-.29,6.57,6.57,0,0,0,1.19-.13,4,4,0,0,1,.95-.15,53.42,53.42,0,0,1,6.33-.19,5,5,0,0,0,1.22,0c1.51-.21,3-.33,4.57-.66a36.33,36.33,0,0,0,5.27-.83,2.68,2.68,0,0,0,.89-.31,2.37,2.37,0,0,1,2.11-.3,1.23,1.23,0,0,0,.94,0,2.82,2.82,0,0,1,.45-.18c.4-.13.78-.25,1.17-.36a6.38,6.38,0,0,0,1.18-.25,1.38,1.38,0,0,1,.7-.07,5.86,5.86,0,0,0,1.62-.06c.18,0,.35-.08.54-.12s.4-.13.58-.17l.36-.12c1-.34,2.08-.62,3.13-.92.82-.26,1.71-.32,2.52-.62s1.47-.49,2.2-.76S185.72,271.16,186.52,270.86Z"/><path class="cls-2" d="M230.21,246.15l4.43,5.23a3.63,3.63,0,0,1-1.2.68,2.58,2.58,0,0,0-.66.45c-.21.17-.38.4-.58.58a7.9,7.9,0,0,1-1.09.81,6.41,6.41,0,0,0-2.17,2,3.72,3.72,0,0,1-1.81,1.57,16.54,16.54,0,0,0-2.38,1.32,3.73,3.73,0,0,1-.7.32h0a3.61,3.61,0,0,0-.66.44,19.8,19.8,0,0,1-1.79,1.25,16.61,16.61,0,0,0-1.83,1.16,12.76,12.76,0,0,1-2.37,1.48c-1.6,1.16-3.4,2-4.94,3.15a11.93,11.93,0,0,1-2.59,1.62,22.62,22.62,0,0,0-2.52,1.23,14.77,14.77,0,0,1-3.27,1.46,3.45,3.45,0,0,0-.92.46,19.64,19.64,0,0,1-3.56,1.92,15.54,15.54,0,0,1-3.58,1.42,4.37,4.37,0,0,0-.72.25c-1,.47-2.14.85-3.24,1.23l-3.29,1.13-2.21-6.49a6.68,6.68,0,0,1,1.46-.56c.44-.14.9-.24,1.54-.41a4.15,4.15,0,0,0,.85-.39,2.09,2.09,0,0,1,1.41-.35.57.57,0,0,0,.47-.11,4.89,4.89,0,0,1,1.91-1,5.63,5.63,0,0,0,1.05-.58,3.73,3.73,0,0,1,.82-.51c1-.4,1.93-.86,2.89-1.29s1.94-.83,3-1.17a6.08,6.08,0,0,0,1.1-.5,45.49,45.49,0,0,0,4.05-2.22c1.61-.75,3.07-1.81,4.61-2.68a2.42,2.42,0,0,0,.73-.6,2.32,2.32,0,0,1,1.82-1.1A1.42,1.42,0,0,0,215,257c.12-.1.23-.23.36-.32.33-.26.65-.5,1-.73a5.5,5.5,0,0,0,1-.65A1.62,1.62,0,0,1,218,255a5.28,5.28,0,0,0,1.46-.69,3.86,3.86,0,0,0,.46-.32c.14-.1.31-.27.46-.37l.3-.24c.86-.68,1.74-1.29,2.62-1.94.65-.55,1.45-.95,2.08-1.54l1.78-1.5c.34-.28,1-.67,1.56-1.08S229.9,246.44,230.21,246.15Z"/><path class="cls-2" d="M261.92,207.2l6,3.28c-.15.44-.58.7-.91,1.05a2.52,2.52,0,0,0-.47.64c-.13.24-.2.51-.32.76a7.67,7.67,0,0,1-.71,1.16,6.67,6.67,0,0,0-1.25,2.71,4,4,0,0,1-1.16,2.09,16.11,16.11,0,0,0-1.71,2.11,3.36,3.36,0,0,1-.52.55s0,0,0,0a3.44,3.44,0,0,0-.45.65c-.76,1.25-1.78,2.3-2.51,3.54a12,12,0,0,1-1.66,2.26c-1.15,1.59-2.45,3.06-3.44,4.73a10.16,10.16,0,0,1-1.87,2.42,22.91,22.91,0,0,0-1.87,2.09c-.37.47-.74.94-1.15,1.37a10.33,10.33,0,0,1-1.38,1.16,3,3,0,0,0-.69.76,19.64,19.64,0,0,1-2.56,3.14,21.85,21.85,0,0,1-2.85,2.59,3,3,0,0,0-.56.51c-1.55,1.7-3.56,3-5.23,4.58l-4.43-5.23a9.93,9.93,0,0,1,2.44-2,3.46,3.46,0,0,0,.67-.65,2.24,2.24,0,0,1,1.18-.84.6.6,0,0,0,.39-.29,4.85,4.85,0,0,1,1.38-1.67,8.18,8.18,0,0,0,.78-.91,4.1,4.1,0,0,1,.6-.76,59.1,59.1,0,0,1,4.53-4.42,5.38,5.38,0,0,0,.86-.86c1-1.19,2-2.31,2.92-3.58a37,37,0,0,0,3.31-4.18,2.6,2.6,0,0,0,.45-.83,2.39,2.39,0,0,1,1.34-1.65,1.41,1.41,0,0,0,.66-.68,3.55,3.55,0,0,1,.21-.44c.21-.36.41-.71.62-1a6.51,6.51,0,0,0,.7-1,1.46,1.46,0,0,1,.47-.52,5.45,5.45,0,0,0,1.16-1.14,4.1,4.1,0,0,0,.31-.46c.09-.15.19-.38.29-.53l.18-.33c.55-.95,1.13-1.86,1.7-2.79a23.63,23.63,0,0,0,1.42-2.16l1.1-2.06C260.29,209.6,261.55,208,261.92,207.2Z"/><path class="cls-2" d="M277.3,159.4l6.8.86a3.67,3.67,0,0,1-.46,1.31,2.8,2.8,0,0,0-.19.77c0,.27,0,.55,0,.82a6.71,6.71,0,0,1-.23,1.34,7.61,7.61,0,0,0-.23,3,4.1,4.1,0,0,1-.28,2.38,18.39,18.39,0,0,0-.81,2.59,3.33,3.33,0,0,1-.31.7l0,0a3.64,3.64,0,0,0-.2.77c-.25,1.44-.8,2.79-1,4.22a10.29,10.29,0,0,1-.76,2.69c-.5,1.9-1.09,3.77-1.48,5.67a12.21,12.21,0,0,1-.86,2.93,23.17,23.17,0,0,0-1,2.64,14.44,14.44,0,0,1-1.47,3.26,2.77,2.77,0,0,0-.36,1,11,11,0,0,1-.5,2c-.23.64-.53,1.25-.79,1.88a20.51,20.51,0,0,1-1.67,3.47,3.29,3.29,0,0,0-.33.68c-.9,2.1-2.24,4.07-3.2,6.17l-6-3.28a10.07,10.07,0,0,1,1.51-2.76,3.1,3.1,0,0,0,.38-.86,2.14,2.14,0,0,1,.82-1.2.55.55,0,0,0,.27-.39,5.2,5.2,0,0,1,.67-2.07,8.08,8.08,0,0,0,.39-1.14,3.69,3.69,0,0,1,.27-.93c1-1.88,1.52-3.92,2.62-5.76a5.73,5.73,0,0,0,.48-1.11,33.14,33.14,0,0,0,1.44-4.39,36.16,36.16,0,0,0,1.59-5.09,2.84,2.84,0,0,0,.11-.94,2.34,2.34,0,0,1,.63-2,1.41,1.41,0,0,0,.4-.86,2.52,2.52,0,0,1,.06-.48c.06-.42.11-.81.18-1.2a5.8,5.8,0,0,0,.28-1.18,1.55,1.55,0,0,1,.24-.66,5.56,5.56,0,0,0,.65-1.48c.06-.17.08-.35.13-.55s.06-.41.1-.59l.07-.37.54-3.22c.12-.85.46-1.67.54-2.53s.24-1.53.29-2.31S277.22,160.26,277.3,159.4Z"/><path class="cls-2" d="M274.2,109.28l6.65-1.68a3.41,3.41,0,0,1,.06,1.39,3,3,0,0,0,.09.79c.06.27.2.52.27.78a7.43,7.43,0,0,1,.25,1.33,6.7,6.7,0,0,0,.9,2.85,3.62,3.62,0,0,1,.61,2.31,17.26,17.26,0,0,0,.14,2.71,2.84,2.84,0,0,1,0,.77s0,0,0,0a4.07,4.07,0,0,0,.11.79,15.76,15.76,0,0,1,.34,2.15,17.26,17.26,0,0,0,.25,2.15,13.52,13.52,0,0,1,.29,2.78c.34,1.94.29,3.91.68,5.82a12.09,12.09,0,0,1,.32,3,26.15,26.15,0,0,0,0,2.8,13.86,13.86,0,0,1-.12,3.58,3.26,3.26,0,0,0,0,1,18.76,18.76,0,0,1,.16,4,16,16,0,0,1-.27,3.85,2.66,2.66,0,0,0-.09.75c0,1.14-.18,2.29-.32,3.45l-.42,3.46-6.8-.86a13,13,0,0,1,.43-3.12,3.73,3.73,0,0,0,0-.94,2,2,0,0,1,.3-1.41.56.56,0,0,0,.1-.47,4.92,4.92,0,0,1-.07-2.16,7,7,0,0,0-.06-1.21,3.93,3.93,0,0,1-.11-1c.07-1,.07-2.1.11-3.16,0-.52.05-1.05.09-1.57s.07-1.06.14-1.59a5.43,5.43,0,0,0,0-1.21,37.56,37.56,0,0,0-.23-4.61c0-1.78-.28-3.55-.39-5.32a2.27,2.27,0,0,0-.23-.92,2.33,2.33,0,0,1-.19-2.11,1.41,1.41,0,0,0,0-.95,3.47,3.47,0,0,1-.13-.46c-.09-.41-.17-.8-.24-1.2a5.51,5.51,0,0,0-.13-1.2,1.38,1.38,0,0,1,0-.7,5.79,5.79,0,0,0,0-1.61c0-.18-.06-.36-.09-.55s-.11-.41-.14-.59-.06-.25-.08-.37c-.24-1.07-.41-2.13-.61-3.2-.17-.84-.21-1.73-.46-2.55l-.57-2.26C274.64,112.15,274.48,110.1,274.2,109.28Z"/><path class="cls-2" d="M275,104.54c-.44.4-.94.75-.88,1.44l-.14.78c-.25.88.18,1.65.21,2.53l6.65-1.68c-.17-.84.27.26-.15-1.17-.25-.78-.32-.57-.89-1.15-.43-.38-.47-.22-1-.54s-.13-.5-.83-.48c-.49-.25-.26-.25-.83-.11-.31.09-.45,0-1.05.11C275.23,104.62,275.46,104.34,275,104.54Z"/><path class="cls-2" d="M264.65,73.6a8.33,8.33,0,0,0-1.89,1.72,4.8,4.8,0,0,1-1.18,1.2,3.37,3.37,0,0,0-.85,1c-.24.43-.47.84-.76,1.27a5.17,5.17,0,0,0-.86,2.94,4.69,4.69,0,0,1-.11,1.45c0,.12-.07.27-.09.39A5.11,5.11,0,0,0,259,86a2.91,2.91,0,0,0,.84,1.58,5.09,5.09,0,0,1,.56.58,4,4,0,0,0,1.45,1.4,2.12,2.12,0,0,1,.61.54,5.09,5.09,0,0,0,2.11,1.28,4.41,4.41,0,0,0,1.83.45,1.49,1.49,0,0,1,1.15.39,3,3,0,0,0,.53.34.57.57,0,0,0,.4.09l1.46-.23a2,2,0,0,1,.63-.07,1.65,1.65,0,0,0,1.38-.39,1.92,1.92,0,0,1,.91-.51,3.16,3.16,0,0,0,1.29-.72,9,9,0,0,1,.78-.74,1.6,1.6,0,0,0,.51-.67,4.74,4.74,0,0,1,1-1.42A2.53,2.53,0,0,0,277,87c.21-.38.42-.77.6-1.17a3.41,3.41,0,0,0,.19-.62,9.75,9.75,0,0,1,.3-1.54,1.78,1.78,0,0,0,0-.69,12.79,12.79,0,0,0-.83-3.11,17.1,17.1,0,0,0-.81-2,5.4,5.4,0,0,0-1.47-1.9,1.65,1.65,0,0,0-.54-.36,17.58,17.58,0,0,1-2.85-1.34,24.37,24.37,0,0,0-2.84-1.08c-.72-.11-1.42-.23-2.13-.31a.8.8,0,0,0-.23,0A5.24,5.24,0,0,0,264.65,73.6Z"/><path d="M71.65,79.46c.17.06.25.14.25.26a.29.29,0,0,1-.07.22,1.15,1.15,0,0,0-.19.5c0,.26-.07.47-.11.7a27.44,27.44,0,0,0,3.64-.58c.17,0,.21,0,.24.14a4.27,4.27,0,0,1,.14,1c0,.18-.14.25-.3.28a29.07,29.07,0,0,1-4,.59c0,.59-.08.92-.09,1.41a8.68,8.68,0,0,1,2.14-.31,3.73,3.73,0,0,0,.24-1,5.8,5.8,0,0,1,1.24.52c.17.11.26.22.26.31a.26.26,0,0,1-.09.17,1.13,1.13,0,0,0-.18.28,3.41,3.41,0,0,1,2.87,3.41c0,2-1.67,3.35-3.89,3.95-.31.09-.46.05-.62-.26a3.56,3.56,0,0,0-.83-.87,8.2,8.2,0,0,0,2.61-1A2.42,2.42,0,0,0,76.05,87a2.1,2.1,0,0,0-1.74-2,14.74,14.74,0,0,1-2.64,3.67,4.06,4.06,0,0,0,.25.64c.08.18,0,.25-.11.34a4.56,4.56,0,0,1-.84.49c-.14.08-.2.08-.28-.06a2.77,2.77,0,0,1-.24-.55,4.42,4.42,0,0,1-2.44,1,1.53,1.53,0,0,1-1.55-1.74c0-1.79,1.55-3.5,3.27-4.36,0-.6,0-1.21.07-1.75-.82,0-1.2,0-1.44,0a5.22,5.22,0,0,1-.8,0c-.15,0-.24-.08-.25-.32s0-.68-.07-1.07A21.77,21.77,0,0,0,70,81.3c.05-.51.11-1.14.11-1.53a2.79,2.79,0,0,0-.06-.63A8.15,8.15,0,0,1,71.65,79.46Zm-3.72,9a.48.48,0,0,0,.46.53A3,3,0,0,0,70,88.18a18.56,18.56,0,0,1-.28-2.41A3.72,3.72,0,0,0,67.93,88.46Zm5-3.65a6.76,6.76,0,0,0-1.79.33,14.73,14.73,0,0,0,.16,2.1A12.44,12.44,0,0,0,72.9,84.81Z"/><path d="M84.36,82a.19.19,0,0,1,.17.05,2,2,0,0,1,.39.37.28.28,0,0,1,.09.18.35.35,0,0,1-.11.22,9.21,9.21,0,0,0-.72,1.08c0,.13,0,.25,0,.35a12,12,0,0,1,1.37-1.27,4.65,4.65,0,0,1,3-1.42c1.72,0,2.66,1.35,2.66,4A14.51,14.51,0,0,1,91,88a12,12,0,0,1,1.39,1.16c.09.1.11.17.05.25a6.77,6.77,0,0,1-.74,1.08s-.07.07-.11.07-.07,0-.13-.09a6.87,6.87,0,0,0-1-1A2.51,2.51,0,0,1,88,90.74a2,2,0,0,1-2.2-1.85,2,2,0,0,1,2.18-2,4.45,4.45,0,0,1,1.56.28,11,11,0,0,0,.07-1.35c0-2-.46-3-1.23-3a3.31,3.31,0,0,0-1.89.87,15.24,15.24,0,0,0-2.32,2.26c0,2.08.05,3.47.08,4.87,0,.13-.06.17-.24.18a6.11,6.11,0,0,1-1.09.07c-.13,0-.2-.08-.2-.23,0-.91,0-2.22.07-3.79-.42.73-1,1.61-1.37,2.33-.06.1-.1.14-.15.14a.35.35,0,0,1-.16-.07,6.55,6.55,0,0,1-.91-.77s-.07-.07-.07-.11a.29.29,0,0,1,.09-.16c.95-1.41,1.73-2.55,2.6-3.82,0-.34,0-.66,0-1a13,13,0,0,0-1.35.42,1.14,1.14,0,0,0-.31.16.46.46,0,0,1-.23.12.31.31,0,0,1-.25-.19,12.83,12.83,0,0,1-.57-1.37,5.55,5.55,0,0,0,.82-.07c.47-.1,1.15-.24,1.94-.43,0-.66,0-1.07,0-1.87a5.6,5.6,0,0,0-.14-1.42,9.54,9.54,0,0,1,1.61.32c.17,0,.27.15.27.28a.63.63,0,0,1-.07.21,1.37,1.37,0,0,0-.17.54c0,.35,0,.84-.07,1.56ZM88,88.18c-.56,0-1,.25-1,.6s.35.67.94.67a1.16,1.16,0,0,0,1.18-.9A1.69,1.69,0,0,0,88,88.18Z"/><path d="M97.35,86.23c.13.07.14.14.08.25a2.22,2.22,0,0,0-.37,1.07c0,.88.91,1.31,3.32,1.31a18,18,0,0,0,3.8-.4c.19,0,.26,0,.29.12a10.24,10.24,0,0,1,.22,1.38c0,.12-.07.18-.23.21a21.92,21.92,0,0,1-4.18.33c-3.14,0-4.75-1-4.75-2.83a3.67,3.67,0,0,1,.75-2C96.64,85.85,97,86,97.35,86.23Zm3.17-5.49c1,0,2.07-.07,3-.13.14,0,.2,0,.21.16a9.52,9.52,0,0,1,.07,1.19c0,.19-.07.28-.24.29a8.17,8.17,0,0,0-3.43,1.39.62.62,0,0,1-.35.12.51.51,0,0,1-.29-.08,3.42,3.42,0,0,0-1-.45c.72-.47,1.34-.87,1.83-1.16a10.12,10.12,0,0,1-1.15,0,17.48,17.48,0,0,1-2.45-.24c-.13,0-.18-.08-.18-.25,0-.34,0-.74,0-1.25A17.23,17.23,0,0,0,100.52,80.74Z"/><path d="M74.43,99.92a2.36,2.36,0,0,0,1.08-.12.35.35,0,0,1,.18-.06.32.32,0,0,1,.22.1,6.27,6.27,0,0,1,.94,1,.63.63,0,0,1,.1.29.32.32,0,0,1-.17.27,3.83,3.83,0,0,0-.62.5,47.79,47.79,0,0,1-3.5,3.48,12.93,12.93,0,0,1,1.14,1.3.27.27,0,0,1,.09.19.29.29,0,0,1-.11.21,8.94,8.94,0,0,1-.85.77.29.29,0,0,1-.17.06c-.05,0-.1,0-.15-.11a19.53,19.53,0,0,0-4.18-4l.94-.87a.24.24,0,0,1,.14-.06c.06,0,.11,0,.19.09a19.07,19.07,0,0,1,1.84,1.46,29,29,0,0,0,3-3.07l-5.47,0c-.75,0-1.71,0-2.42.09-.17,0-.2-.07-.23-.23a12.57,12.57,0,0,1-.16-1.39c.89.09,1.94.09,2.84.09Z"/><path d="M81.82,104.13a10.22,10.22,0,0,0-1.91.16.29.29,0,0,1-.3-.27,15.15,15.15,0,0,1-.19-1.58,16.58,16.58,0,0,0,2.81.16h4.18c1,0,2,0,3,0,.2,0,.24,0,.24.18,0,.39,0,.83,0,1.22,0,.16,0,.21-.24.2-1,0-1.93,0-2.9,0Z"/><path d="M99.92,99.79a1.09,1.09,0,0,0,.65-.16.26.26,0,0,1,.17,0,.4.4,0,0,1,.21.08,6.94,6.94,0,0,1,.88.7.43.43,0,0,1,.17.3.36.36,0,0,1-.15.27,1.5,1.5,0,0,0-.43.56,18.3,18.3,0,0,1-2.58,4,16.64,16.64,0,0,1-4,3.24.36.36,0,0,1-.21.06.48.48,0,0,1-.3-.14,3.37,3.37,0,0,0-1.23-.6,15.2,15.2,0,0,0,4.33-3.31,13.44,13.44,0,0,0,2.4-3.7l-3.14.1a18.39,18.39,0,0,1-2.46,2.66A.4.4,0,0,1,94,104a.32.32,0,0,1-.2-.07,3.4,3.4,0,0,0-1.25-.56,15.47,15.47,0,0,0,3.5-3.87,5.65,5.65,0,0,0,.77-1.75,6.39,6.39,0,0,1,1.52.69.26.26,0,0,1,.13.22.25.25,0,0,1-.15.22,1.35,1.35,0,0,0-.32.35c-.14.22-.27.42-.43.65Z"/><path d="M108.24,100.18c-.74,0-1.53,0-2.3.1-.16,0-.21-.07-.23-.19a10.36,10.36,0,0,1-.24-1.41c.89.07,1.6.1,2.64.1h5.58a2.74,2.74,0,0,0,.89-.08,1,1,0,0,1,.25-.09.41.41,0,0,1,.3.18,6.74,6.74,0,0,1,.78.82.31.31,0,0,1-.08.51,1.76,1.76,0,0,0-.35.37,10.94,10.94,0,0,1-2.29,2.51.36.36,0,0,1-.27.12.5.5,0,0,1-.31-.13,3,3,0,0,0-1.08-.53,9.38,9.38,0,0,0,2.33-2.28Zm.73,5.07a6.06,6.06,0,0,0,.64-3.07,4.86,4.86,0,0,0-.13-1.22,15.7,15.7,0,0,1,1.67.25c.17,0,.22.13.22.24a.53.53,0,0,1-.06.24,1.15,1.15,0,0,0-.12.53,8,8,0,0,1-.77,3.58,6.71,6.71,0,0,1-2.36,2.58.66.66,0,0,1-.37.13.4.4,0,0,1-.26-.11,3.58,3.58,0,0,0-1.18-.67A5.75,5.75,0,0,0,109,105.25Z"/><path d="M120.46,101.51a.23.23,0,0,1,.34.09,7.11,7.11,0,0,1,1.12,1.92,1.15,1.15,0,0,1,0,.2c0,.07,0,.11-.16.18a5.7,5.7,0,0,1-.83.4c-.18.07-.26,0-.32-.18a7.72,7.72,0,0,0-1.23-2.09C119.88,101.78,120.19,101.64,120.46,101.51Zm7.14.16c.1.08.17.15.17.23s0,.14-.15.23a2,2,0,0,0-.39.66,15.36,15.36,0,0,1-2,3.46,10.44,10.44,0,0,1-2.68,2.51.54.54,0,0,1-.31.14.3.3,0,0,1-.21-.09,2.83,2.83,0,0,0-1.1-.54,11.26,11.26,0,0,0,3.12-2.71,13.16,13.16,0,0,0,1.75-3.13,4.6,4.6,0,0,0,.3-1.38A6.33,6.33,0,0,1,127.6,101.67Zm-4.51-.79a.22.22,0,0,1,.33.11,7.24,7.24,0,0,1,1,1.89c.06.2,0,.26-.13.36a6,6,0,0,1-.9.4c-.14,0-.2,0-.26-.2a9.19,9.19,0,0,0-1.09-2.08C122.57,101.12,122.87,101,123.09,100.88Z"/><path d="M134,100.75c-.85,0-1.59,0-2.15.07-.16,0-.22-.08-.24-.26s-.09-.94-.12-1.32a21.07,21.07,0,0,0,2.5.1h4.64a1.25,1.25,0,0,0,.71-.13.37.37,0,0,1,.22-.08.31.31,0,0,1,.23.09,4.67,4.67,0,0,1,.88.9.44.44,0,0,1,.1.26.36.36,0,0,1-.13.24,1.84,1.84,0,0,0-.3.51,15.2,15.2,0,0,1-2.52,4.22,14.54,14.54,0,0,1-3.69,3.1.62.62,0,0,1-.35.12.45.45,0,0,1-.33-.15,3.79,3.79,0,0,0-1.21-.71,12.61,12.61,0,0,0,4.26-3.25,11,11,0,0,0,2.19-3.71Zm9-2.49a1.41,1.41,0,1,1-1.4-1.39A1.38,1.38,0,0,1,143,98.26Zm-2.17,0a.77.77,0,1,0,.77-.77A.74.74,0,0,0,140.83,98.26Z"/><path d="M150.24,105.52h1.86c.87,0,1.75,0,2.63,0,.14,0,.21,0,.21.21,0,.34,0,.7,0,1,0,.17,0,.23-.2.23-.62,0-1.78,0-2.62,0h-5.23c-.53,0-1.38,0-2.39,0-.21,0-.24,0-.28-.26a7.72,7.72,0,0,1-.09-1.22c.94,0,1.93.07,2.76.07h1.77v-4.45h-1c-.93,0-1.48,0-2,0-.16,0-.18-.08-.22-.27a7.37,7.37,0,0,1-.11-1.21,20.81,20.81,0,0,0,2.25,0h3.68c.79,0,1.51,0,2.28,0,.13,0,.17.07.17.21,0,.33,0,.69,0,1,0,.16,0,.24-.19.24-.87,0-1.5,0-2.23,0h-1Z"/><path d="M158.71,99a.22.22,0,0,1,.18-.11.38.38,0,0,1,.17.07,13.6,13.6,0,0,1,2.48,1.84c.08.08.12.13.12.19a.27.27,0,0,1-.08.16c-.2.26-.62.78-.81,1s-.1.1-.15.1a.28.28,0,0,1-.17-.1,13.71,13.71,0,0,0-2.65-2.12C158.08,99.7,158.46,99.3,158.71,99Zm1.13,6.85a19.53,19.53,0,0,0,3.74-2.42,19.25,19.25,0,0,0,3.56-3.54,5.72,5.72,0,0,0,.37,1.52.65.65,0,0,1,.06.25c0,.12-.06.22-.2.39a20.82,20.82,0,0,1-3,2.76,28.5,28.5,0,0,1-3.92,2.55,4.47,4.47,0,0,0-.87.59.36.36,0,0,1-.24.13.35.35,0,0,1-.22-.14,9.26,9.26,0,0,1-1-1.44A7.71,7.71,0,0,0,159.84,105.89Z"/><path d="M171,101.52c.07-.09.13-.16.25-.13a9,9,0,0,1,2.49,1.27c.09.07.15.12.15.2a.33.33,0,0,1-.06.14,5.1,5.1,0,0,1-.57,1c-.06.08-.11.13-.17.13s-.09,0-.15-.08a11.53,11.53,0,0,0-2.63-1.42C170.67,102.1,170.87,101.73,171,101.52Zm2.11,4.82a21.81,21.81,0,0,0,3.56-2.25,23.57,23.57,0,0,0,3.74-3.62,6.34,6.34,0,0,0,.38,1.45.63.63,0,0,1,.07.25.41.41,0,0,1-.15.3,24.61,24.61,0,0,1-3.3,3,30.27,30.27,0,0,1-3.89,2.45,3.79,3.79,0,0,0-.75.44.27.27,0,0,1-.21.1.34.34,0,0,1-.26-.15,8.75,8.75,0,0,1-1-1.33A6,6,0,0,0,173.14,106.34Zm-.54-7.81c.09-.16.17-.18.33-.11a8.7,8.7,0,0,1,2.44,1.45.21.21,0,0,1,.11.17.35.35,0,0,1-.06.17,5.49,5.49,0,0,1-.66,1,.14.14,0,0,1-.13.08.33.33,0,0,1-.19-.09,12.61,12.61,0,0,0-2.53-1.6Zm6-.4c.06-.06.12,0,.19,0A5.91,5.91,0,0,1,180,99.54a.13.13,0,0,1,0,.21l-.55.4c-.09.07-.15.06-.22,0a6.23,6.23,0,0,0-1.31-1.51Zm1.16-.85c.07,0,.11,0,.19,0a5.17,5.17,0,0,1,1.23,1.34.14.14,0,0,1,0,.23l-.52.4c-.11.08-.17,0-.22,0a6.16,6.16,0,0,0-1.31-1.49Z"/><path d="M185.9,106.85c-.84,0-1.7,0-2.34.06-.13,0-.17-.07-.19-.24s-.08-.74-.12-1.43c.94.06,1.87.08,2.69.08h4.73c1.45,0,2.33,0,2.93-.07.17,0,.21.07.21.23a10.84,10.84,0,0,1,0,1.14c0,.19,0,.27-.2.27-.62,0-2,0-2.85,0Zm1.2-5.53c-.82,0-1.39,0-2,.06-.13,0-.17-.08-.18-.28a8.08,8.08,0,0,1-.08-1.37c.82.06,1.43.07,2.21.07h2.57c1,0,1.78,0,2.34-.06.11,0,.15.06.15.22a11.22,11.22,0,0,1,0,1.16c0,.18,0,.24-.17.24-.61,0-1.45,0-2.28,0Z"/><path d="M199.24,100.18c-.74,0-1.53,0-2.3.1-.16,0-.21-.07-.23-.19a10.36,10.36,0,0,1-.24-1.41c.89.07,1.6.1,2.64.1h5.58a2.74,2.74,0,0,0,.89-.08,1,1,0,0,1,.25-.09.41.41,0,0,1,.3.18,6.74,6.74,0,0,1,.78.82.31.31,0,0,1-.08.51,1.76,1.76,0,0,0-.35.37,10.94,10.94,0,0,1-2.29,2.51.36.36,0,0,1-.27.12.5.5,0,0,1-.31-.13,3,3,0,0,0-1.08-.53,9.38,9.38,0,0,0,2.33-2.28Zm.73,5.07a6.06,6.06,0,0,0,.64-3.07,4.86,4.86,0,0,0-.13-1.22,15.7,15.7,0,0,1,1.67.25c.17,0,.22.13.22.24a.53.53,0,0,1-.06.24,1.15,1.15,0,0,0-.12.53,8,8,0,0,1-.77,3.58,6.71,6.71,0,0,1-2.36,2.58.66.66,0,0,1-.37.13.4.4,0,0,1-.26-.11,3.58,3.58,0,0,0-1.18-.67A5.75,5.75,0,0,0,200,105.25Z"/><path d="M76.14,123a.63.63,0,0,0,.23,0,.31.31,0,0,1,.16-.06c.06,0,.16.07.45.33s.31.32.31.44a.33.33,0,0,1-.09.22c-.08.09-.11.24-.17.59a11.25,11.25,0,0,1-.89,2.7,6,6,0,0,0,1.52,1.44,5.08,5.08,0,0,0-.45.78c-.09.21-.14.3-.22.3s-.13-.06-.26-.17a8.22,8.22,0,0,1-1.17-1.28,9.22,9.22,0,0,1-1,1.25c-.12.11-.18.16-.25.16s-.13-.09-.23-.26a3.42,3.42,0,0,0-.45-.58c0,.65,0,1,0,1.05s0,.15-.14.15h-.87c-.13,0-.15,0-.15-.15s0-.49,0-1.32c-.68.23-1.33.44-2,.62a1.76,1.76,0,0,0-.43.17.36.36,0,0,1-.2.09c-.06,0-.11-.08-.15-.18a5.26,5.26,0,0,1-.26-1c.35,0,.65-.11,1-.17v-6.21h-.7v.84c0,.12,0,.13-.15.13s-.31,0-1,0v1.34h0c.93,0,1.23,0,1.31,0s.16,0,.16.14v.94c0,.12,0,.13-.16.13l-1.13,0v1.29h1c.13,0,.14,0,.14.13v.87c0,.14,0,.15-.14.15s-.25,0-.64,0h-.35v2.1a8.29,8.29,0,0,0,3.76.62,48.8,48.8,0,0,0,5.11-.3,3.7,3.7,0,0,0-.38,1c-.08.41-.08.41-.48.44-1.39.09-2.73.14-4.21.14a8.18,8.18,0,0,1-4-.71,4.71,4.71,0,0,1-1.58-1.41,10.12,10.12,0,0,1-.52,2c-.07.17-.12.24-.17.24s-.13-.06-.25-.16a3,3,0,0,0-.74-.55,11.34,11.34,0,0,0,.82-4.39,7.24,7.24,0,0,0,0-.76,10.15,10.15,0,0,1,1.06.18c.14,0,.19.08.19.16a.66.66,0,0,1-.06.22,1,1,0,0,0-.07.47c0,.43,0,.84-.08,1.27a4,4,0,0,0,.56.76v-3.66h-.66c-.94,0-1.25,0-1.33,0s-.13,0-.13-.13v-.94c0-.13,0-.14.13-.14s.39,0,1.33,0h.36v-1.34h-.21c-.83,0-1.09,0-1.17,0s-.15,0-.15-.13v-.92c0-.13,0-.14.15-.14s.34,0,1.17,0h.21v-.15a7.91,7.91,0,0,0-.09-1.47,10.52,10.52,0,0,1,1.21.09c.13,0,.21,0,.21.13a.73.73,0,0,1-.07.25,3,3,0,0,0-.07,1v.18c.71,0,1,0,1,0h.09v-.79c0-.13,0-.15.15-.15s.5,0,1.76,0h3.87c1.24,0,1.67,0,1.75,0s.14,0,.14.15v.86c0,.13,0,.14-.14.14s-.51,0-1.75,0H73.64V123Zm-4.51-1.19v1.24h.9v-1.24Zm.9,3.47v-1.23h-.9v1.23Zm0,1h-.9v1.47c.29-.08.59-.17.9-.28Zm1.11,2.38a6.36,6.36,0,0,0,1.29-1.45,10.45,10.45,0,0,1-1-3.17h-.28Zm1.27-4.62a8.46,8.46,0,0,0,.6,2,9.64,9.64,0,0,0,.53-2Z"/><path d="M82.59,125.53c0,2.37,0,2.82,0,2.9s0,.14-.16.14h-.93c-.13,0-.15,0-.15-.14v-.68H80.29V129c0,.13,0,.14-.13.14h-1c-.12,0-.13,0-.13-.14s0-.57,0-3.17v-2c0-1.85,0-2.36,0-2.43s0-.15.13-.15.33,0,1.13,0h1c.81,0,1,0,1.13,0s.16,0,.16.15,0,.56,0,2Zm-2.3-3v4h1.09v-4Zm4.59,3.77c-1.24,0-1.66,0-1.74,0s-.13,0-.13-.15v-1c0-.13,0-.14.13-.14s.5,0,1.74,0h.87v-1.64H85.1c-1.16,0-1.56,0-1.64,0s-.14,0-.14-.15v-1c0-.13,0-.15.14-.15s.48,0,1.64,0h.65v-.3a12.89,12.89,0,0,0-.09-1.9c.48,0,.9,0,1.34.09.13,0,.22.07.22.13a.66.66,0,0,1-.09.29,4.59,4.59,0,0,0-.08,1.37v.32h1c1.16,0,1.55,0,1.63,0s.14,0,.14.15v1c0,.14,0,.15-.14.15s-.47,0-1.63,0h-1v1.64h1.42c1.23,0,1.66,0,1.74,0s.14,0,.14.14v1c0,.14,0,.15-.14.15s-.51,0-1.74,0h-1a9.88,9.88,0,0,0,3.33,3.22,4.43,4.43,0,0,0-.54,1c-.09.21-.14.3-.22.3s-.14-.06-.27-.17A11.36,11.36,0,0,1,87,127.34c0,2.1.09,4.16.09,4.43,0,.12,0,.13-.16.13H85.85c-.13,0-.14,0-.14-.13s.05-2.24.08-4.25a11.18,11.18,0,0,1-3.21,3.33c-.16.1-.24.15-.31.15s-.16-.07-.29-.28a2.75,2.75,0,0,0-.65-.74,9.9,9.9,0,0,0,4-3.68Z"/><path d="M98.66,123.23a1.1,1.1,0,0,1-1.12,1.12,1.08,1.08,0,0,1-1.1-1.12,1.09,1.09,0,0,1,1.1-1.11A1.12,1.12,0,0,1,98.66,123.23Zm0,5.5a1.1,1.1,0,0,1-1.12,1.12,1.08,1.08,0,0,1-1.1-1.12,1.09,1.09,0,0,1,1.1-1.11A1.12,1.12,0,0,1,98.66,128.73Z"/><path d="M109.24,125.05c-.12.14-.19.22-.26.22s-.1-.08-.19-.23a3.08,3.08,0,0,0-.51-.69,6.5,6.5,0,0,0,.47-.54h0l-1.08,0v2c.42-.15.84-.3,1.25-.48a7.53,7.53,0,0,0,0,.89c0,.42,0,.42-.37.56l-.83.34v.64c0,.91,0,2,0,2.62s-.08,1-.41,1.25a2.47,2.47,0,0,1-1.52.27c-.41,0-.41,0-.5-.4a3.87,3.87,0,0,0-.35-1,9.47,9.47,0,0,0,1.12.06c.26,0,.34-.07.34-.39v-2.6l-.71.2a2.06,2.06,0,0,0-.42.2.42.42,0,0,1-.21.09.16.16,0,0,1-.17-.16c-.09-.35-.17-.78-.25-1.28.42-.07.74-.13,1.2-.25.17,0,.35-.09.56-.16v-2.4h-.24c-.92,0-1.21,0-1.28,0s-.15,0-.15-.14v-1c0-.13,0-.14.15-.14s.36,0,1.28,0h.24v-.64a11,11,0,0,0-.11-1.85c.5,0,.94,0,1.37.09.13,0,.21.08.21.15a.65.65,0,0,1-.08.27,3.9,3.9,0,0,0-.08,1.31v.67c.74,0,1,0,1.08,0s.14,0,.14.14v1a8.47,8.47,0,0,0,1.35-2.55,5.7,5.7,0,0,0,.26-1.14c.46.07,1,.18,1.24.25.14.06.23.08.23.19s-.05.14-.15.23a2.62,2.62,0,0,0-.3.66c-.15.34-.29.67-.46,1h1.68c.18-.39.35-.83.51-1.28a4.88,4.88,0,0,0,.23-1,8.74,8.74,0,0,1,1.22.27c.13,0,.22.12.22.21s0,.15-.14.23a1.27,1.27,0,0,0-.29.51,10.89,10.89,0,0,1-.44,1h.61c1.07,0,1.43,0,1.51,0s.14,0,.14.14v.92c0,.13,0,.14-.14.14s-.44,0-1.51,0h-.81v1.36h.44c1.08,0,1.43,0,1.51,0s.15,0,.15.15v.88c0,.14,0,.15-.15.15s-.43,0-1.51,0h-.44v1.39h.45c1.07,0,1.43,0,1.51,0s.14,0,.14.14v.9c0,.13,0,.14-.14.14s-.44,0-1.51,0h-.45V130h.91c1.11,0,1.49,0,1.57,0s.13,0,.13.15v.92c0,.13,0,.14-.13.14s-.46,0-1.57,0h-3.94v.63c0,.13,0,.15-.15.15h-1c-.13,0-.15,0-.15-.15s0-.41,0-1.49v-5.59Zm3.33-.2v-1.36h-1.79v1.36Zm0,2.53V126h-1.79v1.39Zm0,2.65v-1.52h-1.79V130Z"/><path d="M122.15,120.88c.22.05.31.11.31.24a1.26,1.26,0,0,1-.13.43,8.87,8.87,0,0,0-.18,1.59c-.13,2-.19,3.33-.19,5,0,1.31.15,1.61,1.19,1.61a6.83,6.83,0,0,0,4.55-2.39,4.42,4.42,0,0,0,.3,1.23.79.79,0,0,1,.1.32c0,.11,0,.22-.25.4a7.43,7.43,0,0,1-4.93,1.95c-1.67,0-2.45-.66-2.45-2.65,0-2.19.12-4.06.19-5.62a9.09,9.09,0,0,0-.13-2.38A13.18,13.18,0,0,1,122.15,120.88Z"/><path d="M132.42,128.22c-1.13,0-1.52,0-1.6,0s-.13,0-.13-.15v-.78c0-.13,0-.14.13-.14s.47,0,1.6,0h3.48v-.61h-2.14c-1.26,0-1.69,0-1.77,0s-.14,0-.14-.13v-.71c0-.13,0-.15.14-.15s.51,0,1.77,0h2.14v-.57h-1.67c-1.28,0-1.73,0-1.81,0s-.16,0-.16-.15,0-.25,0-.68v-.7c0-.43,0-.6,0-.68s0-.15.16-.15.53,0,1.81,0h1.67v-.57h-3.27c-1.17,0-1.57,0-1.65,0s-.15,0-.15-.14v-.82c0-.13,0-.15.15-.15s.48,0,1.65,0h3.27a5.92,5.92,0,0,0-.09-1.2c.48,0,.9,0,1.36.08.11,0,.2.07.2.14a.61.61,0,0,1-.07.25,1.83,1.83,0,0,0-.08.73h3.3c1.17,0,1.57,0,1.65,0s.14,0,.14.15v.82c0,.12,0,.14-.14.14s-.48,0-1.65,0h-3.3v.57H139c1.27,0,1.73,0,1.82,0s.14,0,.14.15,0,.25,0,.68v.7c0,.43,0,.6,0,.68s0,.15-.14.15-.55,0-1.82,0h-1.73v.57h2.1c1.28,0,1.73,0,1.8,0s.14,0,.14.15,0,.39,0,1.13v.3c.77,0,1.07,0,1.14,0s.13,0,.13.14v.78c0,.13,0,.15-.13.15s-.37,0-1.14,0v.66c0,.78,0,1.12,0,1.2s0,.14-.14.14h-1c-.13,0-.15,0-.15-.14v-.29h-2.74c0,.24,0,.46,0,.65,0,.6-.11.95-.46,1.16a4.38,4.38,0,0,1-1.84.29c-.39,0-.39,0-.52-.38a4,4,0,0,0-.5-1,8.2,8.2,0,0,0,1.31,0c.56,0,.67-.1.67-.48v-.3h-2.13c-1.27,0-1.7,0-1.78,0s-.14,0-.14-.16V129c0-.14,0-.15.14-.15s.51,0,1.78,0h2.13v-.61Zm3.48-4v-.65h-2.35v.65Zm3.72-.65h-2.4v.65h2.4Zm-2.4,3v.61H140v-.61Zm2.75,2.23v-.61h-2.75v.61Z"/><path d="M144.72,132.15h-.82l5.29-12.37H150Z"/><path d="M157.94,124.66a8.77,8.77,0,0,1-1.05,4,7.59,7.59,0,0,1-2.58,2.78.47.47,0,0,1-.27.1.3.3,0,0,1-.22-.09,5,5,0,0,0-1.34-.57,6.9,6.9,0,0,0,3.83-6.2h-2.67a12.88,12.88,0,0,1-1.81,2.24.34.34,0,0,1-.22.1.29.29,0,0,1-.18-.07,3.94,3.94,0,0,0-1.21-.46,14,14,0,0,0,3.07-4.24,5.64,5.64,0,0,0,.52-1.8,10.55,10.55,0,0,1,1.56.6.23.23,0,0,1,.15.22.3.3,0,0,1-.14.25,1.33,1.33,0,0,0-.39.53c-.2.46-.43.93-.6,1.25h4.17c.81,0,1.68,0,2.5-.06.16,0,.21.06.21.23q0,.52,0,1c0,.13-.05.21-.18.21-.54,0-1.59,0-2.38,0Zm1.44-4c.07,0,.12,0,.2,0a6.31,6.31,0,0,1,1.23,1.39.12.12,0,0,1,0,.21l-.54.41a.14.14,0,0,1-.22,0,6.26,6.26,0,0,0-1.32-1.51Zm1.16-.85c.08,0,.12,0,.19,0a5.21,5.21,0,0,1,1.24,1.34.15.15,0,0,1,0,.23l-.52.4a.13.13,0,0,1-.22,0,6.16,6.16,0,0,0-1.3-1.5Z"/><path d="M166.32,126.88a10.22,10.22,0,0,0-1.91.16.29.29,0,0,1-.3-.27,15.15,15.15,0,0,1-.19-1.58,16.58,16.58,0,0,0,2.81.16h4.18c1,0,2,0,3,0,.2,0,.24,0,.24.18,0,.39,0,.83,0,1.22,0,.16,0,.21-.24.2-1,0-1.93,0-2.9,0Z"/><path d="M182.78,121.36c.09.06.16.13.16.21a.47.47,0,0,1-.13.26,3.82,3.82,0,0,0-.53,1.07c-.73,2-1.42,3.9-2.24,5.85,2-.16,3.09-.27,4.55-.49a12.9,12.9,0,0,0-1.44-2.08c.39-.21.76-.43,1.13-.62.14-.08.22,0,.31.07a18.59,18.59,0,0,1,2.63,4.26.27.27,0,0,1,.05.16.28.28,0,0,1-.17.23,7.77,7.77,0,0,1-1,.53.42.42,0,0,1-.16,0c-.07,0-.14-.07-.18-.18-.15-.37-.3-.71-.45-1-2.08.31-4.06.53-6.18.75a4.48,4.48,0,0,0-1.52.31c-.17.08-.31.05-.38-.13a12.52,12.52,0,0,1-.45-1.68c.52,0,1.07,0,1.59,0,.92-2.33,1.59-4.25,2.27-6.44a6.84,6.84,0,0,0,.38-1.78A7.23,7.23,0,0,1,182.78,121.36Z"/><path d="M69.47,161.66c-.13.15-.21.23-.28.23s-.11-.08-.21-.25a3.23,3.23,0,0,0-.55-.74,7.31,7.31,0,0,0,.51-.57h0c-.08,0-.36,0-1.16,0v2.14a13.89,13.89,0,0,0,1.35-.52,8.67,8.67,0,0,0-.06,1c0,.45,0,.45-.39.6l-.9.37v.68c0,1,0,2.15,0,2.83s-.08,1.08-.44,1.35a2.71,2.71,0,0,1-1.64.29c-.44,0-.44,0-.53-.43a4.07,4.07,0,0,0-.38-1.07,10.93,10.93,0,0,0,1.2.06c.28,0,.37-.07.37-.42v-2.8l-.76.22a2.34,2.34,0,0,0-.46.21.39.39,0,0,1-.23.1c-.08,0-.15,0-.18-.17a13,13,0,0,1-.26-1.39c.44-.07.79-.14,1.28-.26.19,0,.38-.1.61-.17V160.3h-.26c-1,0-1.3,0-1.38,0s-.16,0-.16-.16v-1.06c0-.14,0-.16.16-.16s.39,0,1.38,0h.26v-.68a11.39,11.39,0,0,0-.12-2c.54,0,1,0,1.47.09.14,0,.23.09.23.16a.62.62,0,0,1-.09.29,4.53,4.53,0,0,0-.08,1.42V159c.8,0,1.08,0,1.16,0s.16,0,.16.16v1.09a9,9,0,0,0,1.45-2.75,5.77,5.77,0,0,0,.28-1.23c.49.09,1,.2,1.34.28.15.06.25.09.25.2s-.06.15-.17.25a2.71,2.71,0,0,0-.32.71c-.16.37-.31.72-.49,1.07h1.8a13.88,13.88,0,0,0,.55-1.39,4.61,4.61,0,0,0,.25-1,12.78,12.78,0,0,1,1.32.29c.14.06.24.13.24.23s-.06.17-.16.25a1.32,1.32,0,0,0-.31.55c-.16.4-.3.75-.47,1.09h.66c1.15,0,1.54,0,1.62,0s.16,0,.16.16v1c0,.14,0,.15-.16.15s-.47,0-1.62,0h-.89v1.47h.48c1.16,0,1.54,0,1.63,0s.16,0,.16.17v.94c0,.15,0,.16-.16.16s-.47,0-1.63,0h-.48v1.49h.49c1.15,0,1.55,0,1.63,0s.15,0,.15.15v1c0,.14,0,.15-.15.15s-.48,0-1.63,0h-.49V167h1c1.2,0,1.61,0,1.69,0s.14,0,.14.16v1c0,.14,0,.16-.14.16s-.49,0-1.69,0H71.12V169c0,.14,0,.16-.15.16H69.86c-.14,0-.15,0-.15-.16s0-.44,0-1.61v-6Zm3.58-.21V160H71.12v1.47Zm0,2.71v-1.49H71.12v1.49Zm0,2.86v-1.64H71.12V167Z"/><path d="M83.37,157.16c.24.06.34.13.34.27a1.53,1.53,0,0,1-.14.46,8.29,8.29,0,0,0-.2,1.71c-.14,2.16-.21,3.58-.21,5.42,0,1.41.17,1.74,1.29,1.74a7.39,7.39,0,0,0,4.9-2.58,5.08,5.08,0,0,0,.32,1.33.89.89,0,0,1,.11.33c0,.13,0,.24-.27.44a8,8,0,0,1-5.31,2.1c-1.8,0-2.64-.71-2.64-2.86,0-2.35.13-4.37.2-6.05a9.21,9.21,0,0,0-.14-2.56A14.93,14.93,0,0,1,83.37,157.16Z"/><path d="M99.78,159.37a17.46,17.46,0,0,1-1.75,6A2.66,2.66,0,0,1,95.65,167c-1.24,0-2.48-1.31-2.48-3.6a5.16,5.16,0,0,1,1.58-3.64A6.12,6.12,0,0,1,99.3,158c3.36,0,5.34,2.07,5.34,4.86,0,2.6-1.47,4.24-4.31,5.1-.3.08-.42,0-.61-.26a3,3,0,0,0-1-.88c2.37-.56,4.23-1.54,4.23-4.19a3.19,3.19,0,0,0-3.14-3.25Zm-4,1.36a4.06,4.06,0,0,0-1.09,2.59c0,1.29.51,2,1,2s.67-.19,1-.86a15.66,15.66,0,0,0,1.48-5A4.2,4.2,0,0,0,95.76,160.73Z"/><path d="M111.38,159.08a16,16,0,0,1-3.36,2.58.65.65,0,0,1-.32.14c-.1,0-.17-.1-.29-.33a3,3,0,0,0-.72-.78,12.81,12.81,0,0,0,4.57-3.68,3.83,3.83,0,0,0,.47-.83,10.31,10.31,0,0,1,1.45.35c.14,0,.19.1.19.2a.29.29,0,0,1-.18.25,1.68,1.68,0,0,0-.42.45l-.28.37h3.05a1.86,1.86,0,0,0,.41,0,.61.61,0,0,1,.25-.07c.13,0,.28.08.59.36s.43.48.43.59,0,.2-.19.28a1.73,1.73,0,0,0-.46.45,18.36,18.36,0,0,1-4,3.84h3.6c1.21,0,1.82,0,1.91,0s.15,0,.15.14,0,.5,0,1.8v1.29c0,2,0,2.36,0,2.44s0,.15-.15.15h-1.19c-.16,0-.17,0-.17-.15v-.63h-4.93v.7c0,.14,0,.15-.14.15h-1.21c-.14,0-.15,0-.15-.15s0-.52,0-2.48v-1.83a28.57,28.57,0,0,1-2.59,1.24,1.12,1.12,0,0,1-.33.12c-.11,0-.15-.12-.28-.37a3.3,3.3,0,0,0-.67-.9,19.83,19.83,0,0,0,4.9-2.34,11.76,11.76,0,0,0-1.45-1.3c-.06,0-.1-.08-.1-.11s0-.08.11-.14l.74-.6a.31.31,0,0,1,.17-.09.34.34,0,0,1,.17.07,11.87,11.87,0,0,1,1.54,1.28,17.35,17.35,0,0,0,2.37-2.41Zm.44,5.42V167h4.93V164.5Z"/><path d="M124,157.8c.24.13.33.21.33.34s0,.14-.21.42a3.39,3.39,0,0,0-.34,1,22.83,22.83,0,0,0-.59,4.52,12.6,12.6,0,0,0,.09,1.64c.29-.65.54-1.11,1-2.09a3.3,3.3,0,0,0,.49.88.65.65,0,0,1,.1.21.42.42,0,0,1-.07.23,14.1,14.1,0,0,0-.8,2.11,1.59,1.59,0,0,0,0,.44c0,.17,0,.28,0,.39s-.06.15-.19.18a7.55,7.55,0,0,1-1.15.23c-.09,0-.15-.06-.18-.16a13.19,13.19,0,0,1-.64-4.17,27,27,0,0,1,.47-4.6,10.66,10.66,0,0,0,.26-2.08A6.14,6.14,0,0,1,124,157.8Zm3,6.6c.11,0,.14.06.14.21.09,1,.76,1.32,2.29,1.32a20.38,20.38,0,0,0,2.67-.18c.14,0,.17,0,.2.18a10.81,10.81,0,0,1,.08,1.2c0,.17,0,.19-.24.21a17.37,17.37,0,0,1-2.28.16c-2.07,0-3-.34-3.64-1.16a3.12,3.12,0,0,1-.49-1.83Zm-.78-5.24c0-.16,0-.21.19-.24a23.13,23.13,0,0,1,3-.25,20.27,20.27,0,0,1,2.08.09c.29,0,.32,0,.32.18,0,.42,0,.8,0,1.19,0,.13-.05.18-.18.17-.84-.06-1.57-.09-2.28-.09a17,17,0,0,0-3.18.33C126.14,159.75,126.14,159.4,126.17,159.16Z"/><path d="M138.15,166.43c-.88.33-1.75.61-2.58.84a1.24,1.24,0,0,0-.44.19.55.55,0,0,1-.24.09c-.09,0-.14-.08-.17-.21a11.81,11.81,0,0,1-.28-1.33,9.78,9.78,0,0,0,1-.15v-7.77h-.72c-.14,0-.15,0-.15-.17v-1c0-.15,0-.16.15-.16s.45,0,1.59,0h2.25c1.14,0,1.51,0,1.6,0s.14,0,.14.16v1c0,.16,0,.17-.14.17h-.74v9.34c0,.95,0,1.4,0,1.48s0,.14-.15.14h-1c-.15,0-.17,0-.17-.14s0-.53,0-1.48Zm0-6.82v-1.54h-1.43v1.54Zm0,2.75v-1.52h-1.43v1.52Zm0,1.23h-1.43v2c.46-.13.93-.27,1.43-.45Zm3.38-2c.15.05.18.07.17.22a15.78,15.78,0,0,1-.85,4.44c0,.16-.09.17-.26.07l-.87-.49c-.2-.11-.21-.12-.15-.25a12.41,12.41,0,0,0,.84-4.1c0-.16.05-.2.26-.14Zm1-5c.12-.14.12-.17.28-.1a13.45,13.45,0,0,1,3.06,1.77c.06,0,.09.07.09.11s0,.08-.09.17l-.61.88c-.07.1-.12.16-.17.16s-.07,0-.13-.09a13.11,13.11,0,0,0-3-1.88c-.07,0-.12-.07-.12-.09s0-.09.09-.16Zm-.37,4.86c0-.78,0-1.24-.07-1.73.53,0,1,.07,1.39.12.17,0,.25.09.25.18s0,.14-.1.27a2.9,2.9,0,0,0-.07,1v5.57c0,.3,0,.41.13.48a.81.81,0,0,0,.52.13c.39,0,.64,0,.78-.21a4.24,4.24,0,0,0,.22-1.67,3,3,0,0,0,1,.43c.37.09.37.09.34.44a2.81,2.81,0,0,1-.62,1.89c-.29.32-.81.47-1.85.47a2.84,2.84,0,0,1-1.42-.23c-.3-.17-.51-.51-.51-1.35Zm3.76-.26c.16-.09.21-.06.26.08a15.87,15.87,0,0,1,1.26,3.7c0,.14,0,.15-.17.25l-.89.46c-.2.1-.24.07-.28-.1a17.46,17.46,0,0,0-1.11-3.75c-.06-.13,0-.15.15-.25Z"/><path d="M153.31,157.16c.24.06.34.13.34.27a1.29,1.29,0,0,1-.14.46,8.29,8.29,0,0,0-.2,1.71c-.15,2.44-.21,3.72-.21,5.38s.17,1.78,1.29,1.78a7.37,7.37,0,0,0,4.9-2.58,5.05,5.05,0,0,0,.33,1.33.89.89,0,0,1,.11.33c0,.13-.06.24-.28.44a8,8,0,0,1-5.31,2.1c-1.79,0-2.63-.71-2.63-2.86,0-2.35.12-4.37.19-6.05a9.21,9.21,0,0,0-.14-2.56A14.63,14.63,0,0,1,153.31,157.16Zm4.25.93c.07-.06.12-.05.21,0a6.63,6.63,0,0,1,1.33,1.5.16.16,0,0,1,0,.23l-.59.43a.15.15,0,0,1-.24,0,7,7,0,0,0-1.41-1.63Zm1.24-.92c.09,0,.13,0,.21,0a5.85,5.85,0,0,1,1.34,1.44.17.17,0,0,1,0,.26l-.56.43a.14.14,0,0,1-.23,0,6.51,6.51,0,0,0-1.41-1.61Z"/><path d="M173,163.32a2.45,2.45,0,0,0-2.54-2.7,2.63,2.63,0,0,0-.64.06,20.85,20.85,0,0,1-1.89,4.76,8.32,8.32,0,0,0,.61.74,6.73,6.73,0,0,1-.78,1,.23.23,0,0,1-.14.07.22.22,0,0,1-.13-.06,3.79,3.79,0,0,1-.46-.54,2.9,2.9,0,0,1-2.11,1.19c-1,0-1.71-.73-1.71-2.05a5.87,5.87,0,0,1,1.68-3.94c-.13-.56-.28-1.37-.39-2.12a8.38,8.38,0,0,0-.3-1.24,8.49,8.49,0,0,1,1.56.28c.14,0,.25.16.21.31a1.19,1.19,0,0,0,0,.35,7.48,7.48,0,0,0,.17,1.49,8,8,0,0,1,2.41-1.21,10.26,10.26,0,0,0,.18-1.55,3.77,3.77,0,0,0-.09-1,8.38,8.38,0,0,1,1.69.38.27.27,0,0,1,.21.25.38.38,0,0,1-.06.19,3.09,3.09,0,0,0-.18.51c-.09.31-.13.59-.21,1a2.06,2.06,0,0,1,.39,0,4,4,0,0,1,2.91,1,4.1,4.1,0,0,1,1.17,3.05,7.1,7.1,0,0,1-.34,2.14,9.93,9.93,0,0,1,1.13,1.05c.06.06.09.1.09.14s0,.07-.06.13a5.67,5.67,0,0,1-.75.92.21.21,0,0,1-.14.07.15.15,0,0,1-.14-.08,9.56,9.56,0,0,0-.9-.9,2.74,2.74,0,0,1-2.31,1.08c-1.26,0-2.13-.7-2.13-1.76a2,2,0,0,1,2.07-1.95,4,4,0,0,1,1.81.43A5.53,5.53,0,0,0,173,163.32Zm-8.49,2.3c0,.56.24.74.48.74a1.66,1.66,0,0,0,1.21-.89,13.58,13.58,0,0,1-.85-2.12A4.23,4.23,0,0,0,164.47,165.62Zm1.85-3.4a9.58,9.58,0,0,0,.71,2,18.86,18.86,0,0,0,1.22-3.26A6.43,6.43,0,0,0,166.32,162.22Zm4.71,3.33c-.55,0-.84.31-.84.65s.3.6.84.6a1.42,1.42,0,0,0,1.27-.79A2,2,0,0,0,171,165.55Z"/><path d="M186.61,159.37a.12.12,0,0,1,.17.09,9.8,9.8,0,0,1,.33,1.19c0,.15,0,.18-.11.21a21.06,21.06,0,0,1-3.54.63c0,1.13.1,1.9.24,3.23a16.54,16.54,0,0,1,4.06,1.81c.1.06.11.13.05.24a6.63,6.63,0,0,1-.74,1.18c-.08.08-.13.12-.24,0a12.9,12.9,0,0,0-3.11-1.77c0,.09,0,.21,0,.33-.06,1.2-1,2.1-2.83,2.1-1.72,0-3-.77-3-2.06s1.33-2.15,3.06-2.15a8.27,8.27,0,0,1,1.18.05c-.17-1.84-.21-3.17-.24-4.5,0-.5,0-1.22,0-1.93a4,4,0,0,0-.2-1.28,13.44,13.44,0,0,1,1.8.25c.15.05.22.13.22.24a.44.44,0,0,1-.07.21,1.82,1.82,0,0,0-.17.76c0,.42,0,1,0,1.76A12.79,12.79,0,0,0,186.61,159.37Zm-4.44,6.47a7.2,7.2,0,0,0-1.29-.13c-1,0-1.61.32-1.61.82s.56.72,1.44.72c1,0,1.51-.62,1.47-1.21Z"/><path d="M194.28,160.58a10.05,10.05,0,0,1,3.2-.7c1.88,0,3,1.27,3,3.33a5.52,5.52,0,0,1-1.13,3.35,7.91,7.91,0,0,1-2.71,2.23.69.69,0,0,1-.24.07.44.44,0,0,1-.33-.19,3.56,3.56,0,0,0-1.16-.74,7.61,7.61,0,0,0,3.08-2.34,4.12,4.12,0,0,0,.77-2.48c0-1.16-.49-1.76-1.31-1.76a4.67,4.67,0,0,0-2.19.6,6.9,6.9,0,0,0-1.19.67.5.5,0,0,1-.31.14c-.19,0-.31-.18-.4-.3a9.89,9.89,0,0,1-.71-1.48A7,7,0,0,0,194.28,160.58Zm5.11-3.22a.2.2,0,0,1,.18.25,9.62,9.62,0,0,1-.31,1.23c0,.14-.08.21-.19.2A18.29,18.29,0,0,1,195,158c-.07,0-.14-.1-.1-.28a6.6,6.6,0,0,1,.42-1.32A17.48,17.48,0,0,0,199.39,157.36Z"/><path d="M205.28,165.52a.29.29,0,0,1,.21-.11.26.26,0,0,1,.18.08,10.54,10.54,0,0,1,2.79,2.57c.08.11.1.15.1.21s0,.12-.14.22l-.86.73c-.1.08-.15.13-.19.13s-.13,0-.2-.14a10.4,10.4,0,0,0-2.65-2.68c-.08-.05-.12-.1-.12-.14s0-.08.09-.17Z"/><path d="M66.34,193.47c-.14,0-.15,0-.15-.16s0-.82,0-4.56v-2.59c0-2.61,0-3.38,0-3.48s0-.15.15-.15.59,0,2,0h.91a9.06,9.06,0,0,0,.52-1.32,3.09,3.09,0,0,0,.15-.66c.48,0,1.1.14,1.5.21.13,0,.2.11.2.18s-.06.14-.11.2a.88.88,0,0,0-.21.34c-.14.33-.27.63-.49,1.05h2.73c1.36,0,1.85,0,1.94,0s.16,0,.16.15,0,.87,0,3.1v2.95c0,3.74,0,4.49,0,4.56s0,.15-.16.15H74.19c-.14,0-.16,0-.16-.15v-.63H67.72v.65c0,.14,0,.16-.16.16Zm1.38-8H74V183.9H67.72ZM74,188.31v-1.56H67.72v1.56Zm0,3v-1.68H67.72v1.68Z"/><path d="M86.73,181c.18-.08.21-.07.27.07a11.2,11.2,0,0,0,4.54,5.17,4.46,4.46,0,0,0-.82,1c-.12.21-.18.31-.26.31s-.16-.07-.3-.18a12.11,12.11,0,0,1-1.33-1.14c0,.41,0,.9,0,1.39a27.59,27.59,0,0,1-.35,3.92,1.81,1.81,0,0,1-2.09,1.72c-.35,0-.61,0-.95,0s-.42,0-.52-.49a2.94,2.94,0,0,0-.43-1.12,11.49,11.49,0,0,0,1.6.12c.58,0,.82-.22.93-.87a23.23,23.23,0,0,0,.27-3.47H84.76a6.79,6.79,0,0,1-4.26,5.94.92.92,0,0,1-.34.11c-.11,0-.15-.1-.29-.34a2.69,2.69,0,0,0-.72-.84c2.55-.92,3.79-2.41,4-4.87H83c-1.31,0-1.76,0-1.85,0s-.15,0-.15-.16v-1a13.65,13.65,0,0,1-1.36,1.16c-.15.12-.24.19-.31.19s-.15-.1-.29-.31a3.18,3.18,0,0,0-.79-.86,10.9,10.9,0,0,0,4-4.62,3.8,3.8,0,0,0,.28-.9,11.3,11.3,0,0,1,1.46.49c.15.07.2.14.2.24s0,.14-.12.21a1.13,1.13,0,0,0-.32.45,12.64,12.64,0,0,1-2.56,3.71c.19,0,.68,0,1.76,0H86.8c1.22,0,1.68,0,1.82,0a14.67,14.67,0,0,1-3-4.44c0-.15,0-.17.13-.24Z"/><path d="M96,182.3c.24.13.33.21.33.34s0,.14-.21.42a3.39,3.39,0,0,0-.34,1,22.83,22.83,0,0,0-.59,4.52,12.6,12.6,0,0,0,.09,1.64c.29-.65.54-1.11,1-2.09a3.3,3.3,0,0,0,.49.88.65.65,0,0,1,.1.21.42.42,0,0,1-.07.23,14.1,14.1,0,0,0-.8,2.11,1.59,1.59,0,0,0,0,.44c0,.17,0,.28,0,.39s-.06.15-.19.18a7.55,7.55,0,0,1-1.15.23c-.09,0-.15-.06-.18-.16a13.19,13.19,0,0,1-.64-4.17,27,27,0,0,1,.47-4.6,10.66,10.66,0,0,0,.26-2.08A6.14,6.14,0,0,1,96,182.3Zm3,6.6c.11,0,.14.06.14.21.09,1,.76,1.32,2.29,1.32a20.38,20.38,0,0,0,2.67-.18c.14,0,.17,0,.2.18a10.81,10.81,0,0,1,.08,1.2c0,.17,0,.19-.24.21a17.37,17.37,0,0,1-2.28.16c-2.07,0-3-.34-3.64-1.16a3.12,3.12,0,0,1-.49-1.83Zm-.78-5.24c0-.16,0-.21.19-.24a23.13,23.13,0,0,1,3-.25,20.27,20.27,0,0,1,2.08.09c.29,0,.32,0,.32.18,0,.42,0,.8,0,1.19,0,.13,0,.18-.18.17-.84-.06-1.57-.09-2.28-.09a17,17,0,0,0-3.18.33C98.14,184.25,98.14,183.9,98.17,183.66Z"/><path d="M113.74,184.06c-1.71.32-3.21.61-4.71.92-.53.13-.67.15-.88.22a.74.74,0,0,1-.31.12.35.35,0,0,1-.27-.21,9.85,9.85,0,0,1-.51-1.52,18.12,18.12,0,0,0,2.22-.23c1.73-.26,4.81-.72,8.42-1.2.21,0,.28.06.3.16a7.52,7.52,0,0,1,.15,1.23c0,.17-.08.21-.27.21a6.08,6.08,0,0,0-1.71.31c-2.38.81-3.57,2.45-3.57,4.13s1.29,2.79,3.73,2.94c.22,0,.31.06.31.21a4.9,4.9,0,0,1-.16,1.21c0,.21-.1.29-.26.29-2.47,0-5.17-1.41-5.17-4.33a5.07,5.07,0,0,1,2.69-4.44Zm2.77,1.51c.07-.06.13,0,.21,0a6.35,6.35,0,0,1,1.33,1.49.14.14,0,0,1,0,.23l-.59.43a.15.15,0,0,1-.24,0,7.18,7.18,0,0,0-1.41-1.62Zm1.25-.91c.08-.06.12,0,.21,0a5.8,5.8,0,0,1,1.33,1.44.16.16,0,0,1,0,.25l-.56.43c-.12.09-.19.05-.24,0a6.87,6.87,0,0,0-1.4-1.61Z"/><path d="M125.44,182.25a3.64,3.64,0,0,0-.49-.9,9.65,9.65,0,0,1,1.69-.15c.2,0,.31.11.31.25s0,.18,0,.27a2.49,2.49,0,0,0,.06.42c.1.36.14.49.22.73a23.39,23.39,0,0,0,2.86-.75c.13-.05.2,0,.24.07.08.27.18.66.24.94a.21.21,0,0,1-.17.25c-.94.3-1.79.51-2.75.72.13.35.31.78.5,1.17a15.84,15.84,0,0,0,2.54-.72c.14-.07.21-.05.26.08a6,6,0,0,1,.25.92c0,.13,0,.2-.11.26a18.68,18.68,0,0,1-2.37.68,10.56,10.56,0,0,0,1.83,2.43c.14.12.14.18.07.33a4.21,4.21,0,0,1-.57.87c-.08.1-.14.14-.22.14a.4.4,0,0,1-.2-.08,3.09,3.09,0,0,0-.83-.45,6.77,6.77,0,0,0-2.63-.45c-1.32,0-2.09.41-2.09,1.06,0,.92,1.19,1.21,3.34,1.21.52,0,1-.06,1.54-.08.14,0,.18.07.17.18a10.82,10.82,0,0,1-.28,1.27c0,.14-.1.2-.3.21s-.66,0-1,0c-3.22,0-4.93-.91-4.93-2.63,0-1.5,1.29-2.44,3.48-2.44a6.67,6.67,0,0,1,2.41.35,14.71,14.71,0,0,1-1.17-1.65,32.05,32.05,0,0,1-3.84.42.22.22,0,0,1-.25-.19,7.37,7.37,0,0,1-.25-1.15,24.77,24.77,0,0,0,3.77-.35l-.53-1.17a23.24,23.24,0,0,1-3.41.34c-.17,0-.25-.06-.28-.2s-.14-.67-.22-1.12a23.46,23.46,0,0,0,3.49-.22C125.66,182.84,125.58,182.6,125.44,182.25Z"/><path d="M140,186.59a4.23,4.23,0,0,1,2.23-.63,3.25,3.25,0,0,1,3.48,3.36c0,2.34-1.9,3.84-4.89,3.84-1.77,0-2.83-.76-2.83-2.06a1.86,1.86,0,0,1,2-1.71,2.55,2.55,0,0,1,2.64,2.05,2.11,2.11,0,0,0,1.42-2.13,2,2,0,0,0-2.2-2.12,5.67,5.67,0,0,0-3.58,1.49c-.41.36-.8.77-1.22,1.19-.1.1-.17.15-.24.15a.38.38,0,0,1-.21-.12,7,7,0,0,1-.82-.91c-.09-.12,0-.21.07-.33a34.34,34.34,0,0,0,3.32-3.09c.86-.9,1.52-1.6,2.17-2.4-.84.16-1.84.35-2.71.54a4.31,4.31,0,0,0-.58.16,1.11,1.11,0,0,1-.29.07.31.31,0,0,1-.3-.23,6.51,6.51,0,0,1-.49-1.52,6.28,6.28,0,0,0,1.3,0c.85-.08,2.09-.27,3.18-.48a3.71,3.71,0,0,0,.77-.21.77.77,0,0,1,.27-.11.5.5,0,0,1,.32.11,5.88,5.88,0,0,1,.94.9.49.49,0,0,1,.15.34.36.36,0,0,1-.24.33,2.07,2.07,0,0,0-.61.45c-1,1-2,2-3,3Zm0,4c-.41,0-.67.24-.67.54s.37.72,1.21.72a3.24,3.24,0,0,0,.65-.05C141,191,140.62,190.58,140,190.58Z"/><path d="M153.43,193.59c-.14,0-.16,0-.16-.15s0-.52,0-1.39c-1.12.24-2.51.49-3.64.66a1.72,1.72,0,0,0-.51.14.49.49,0,0,1-.22.09c-.08,0-.15-.09-.2-.23-.12-.38-.19-.71-.28-1.12a10.74,10.74,0,0,0,1.32-.1l.25,0v-4.4l-1.38,0c-.15,0-.16,0-.16-.15v-.88c0-.14,0-.16.16-.16s.49,0,1.7,0h9c1.22,0,1.62,0,1.71,0s.14,0,.14.16v.88c0,.14,0,.15-.14.15s-.49,0-1.71,0h-4.75v4.69c0,1.08,0,1.6,0,1.68s0,.15-.16.15Zm3.95-12.32c1.38,0,1.87,0,2,0s.15,0,.15.17,0,.39,0,1.15V184c0,.75,0,1.06,0,1.15s0,.16-.15.16-.58,0-2,0h-5.1c-1.39,0-1.87,0-2,0s-.16,0-.16-.16,0-.4,0-1.15v-1.47c0-.76,0-1.07,0-1.15s0-.17.16-.17.57,0,2,0Zm-4.08,6.54v-.74h-2v.74Zm0,1.62v-.72h-2v.72Zm0,.9h-2v1c.66-.1,1.35-.2,2-.31Zm-1.72-7.44h6.5v-.59h-6.5Zm6.5.84h-6.5v.61h6.5Zm.95,4.16a.7.7,0,0,0,.25,0,.56.56,0,0,1,.21-.06c.1,0,.17,0,.49.32s.38.42.38.52a.28.28,0,0,1-.14.25,1.51,1.51,0,0,0-.38.59,7.51,7.51,0,0,1-1.13,1.7,7.64,7.64,0,0,0,2.48,1,3.91,3.91,0,0,0-.49.9c-.14.37-.17.37-.54.26a7.76,7.76,0,0,1-2.39-1.2,9.91,9.91,0,0,1-2.12,1.23.94.94,0,0,1-.28.1c-.1,0-.15-.1-.25-.32a2.46,2.46,0,0,0-.52-.8,7.89,7.89,0,0,0,2.26-1.05,8,8,0,0,1-1.38-2.24h-.36c-.14,0-.15,0-.15-.17V188c0-.14,0-.15.15-.15s.44,0,1.54,0ZM156.76,189a5.1,5.1,0,0,0,1,1.46,5.47,5.47,0,0,0,1-1.46Z"/><path d="M164.68,185.85c-1.26,0-1.69,0-1.78,0s-.15,0-.15-.17v-1.15c0-.14,0-.15.15-.15s.52,0,1.78,0h3.21c0-.57.05-1.2.07-1.89a12.51,12.51,0,0,0-.07-1.62,15,15,0,0,1,1.61.11c.14,0,.25.1.25.2a.63.63,0,0,1-.08.29,2.51,2.51,0,0,0-.13,1c0,.69,0,1.33-.08,1.93h3.61c1.26,0,1.7,0,1.78,0s.15,0,.15.15v1.15c0,.15,0,.17-.15.17s-.52,0-1.78,0h-3.35a9.37,9.37,0,0,0,5.61,6.11,4.49,4.49,0,0,0-.82,1c-.12.23-.18.35-.29.35a.94.94,0,0,1-.32-.14,10.74,10.74,0,0,1-5-5.66,8.31,8.31,0,0,1-.53,1.34,9.24,9.24,0,0,1-4.48,4.37,1.12,1.12,0,0,1-.34.11c-.11,0-.17-.08-.32-.32a4.75,4.75,0,0,0-.8-.88,8.16,8.16,0,0,0,4.54-3.85,8.41,8.41,0,0,0,.75-2.48Z"/><path d="M180.54,181.28a.61.61,0,0,0,.28,0,.32.32,0,0,1,.16,0c.12,0,.24.07.54.42s.37.43.37.54a.38.38,0,0,1-.14.26,1.09,1.09,0,0,0-.27.45,29.1,29.1,0,0,1-1.17,2.75,4.42,4.42,0,0,1,1.2,3.06,1.89,1.89,0,0,1-1.92,2.17c-.45,0-.46,0-.5-.41a2,2,0,0,0-.31-.94c.87.05,1.37-.15,1.37-1,0-.65-.2-1.24-1.3-2.76a17.34,17.34,0,0,0,1.27-3.17h-1.57v7.87c0,1.89,0,2.89,0,3s0,.16-.15.16h-1.14c-.14,0-.15,0-.15-.16s0-1,0-3v-6c0-1.94,0-2.9,0-3s0-.17.15-.17.47,0,1.19,0Zm3,10.13c.76-.2,1.48-.42,2.13-.66a5.7,5.7,0,0,0-.06.88c0,.47,0,.47-.42.58-1.08.33-2.23.64-3.56.95a1.23,1.23,0,0,0-.44.17.4.4,0,0,1-.23.1.16.16,0,0,1-.17-.14,11.66,11.66,0,0,1-.3-1.33,8.61,8.61,0,0,0,1.17-.16l.46-.08v-7.79c0-1.57,0-2.37,0-2.47s0-.15.15-.15.66,0,1.81,0h2.48c1.05,0,1.54,0,1.61,0s.15,0,.15.15,0,.56,0,1.55v2.59c0,1,0,1.47,0,1.55s0,.15-.15.15-.56,0-1.61,0h-.69a9,9,0,0,0,.55,1.82c.39-.31.75-.65,1.16-1a3.68,3.68,0,0,0,.45-.59,11.65,11.65,0,0,1,1,.82c.09.09.12.14.12.22s-.05.15-.17.2a1.41,1.41,0,0,0-.6.42c-.38.33-.8.71-1.29,1.06a6.14,6.14,0,0,0,2.42,2,4.14,4.14,0,0,0-.63,1c-.11.23-.17.34-.25.34a.74.74,0,0,1-.31-.16,8.33,8.33,0,0,1-3.73-6.1h-1Zm0-8.84v1.15h3.32v-1.15Zm3.32,2.27h-3.32v1.25h3.32Z"/><path d="M197.78,183.87a17.46,17.46,0,0,1-1.75,6,2.66,2.66,0,0,1-2.38,1.61c-1.24,0-2.48-1.31-2.48-3.6a5.16,5.16,0,0,1,1.58-3.64,6.12,6.12,0,0,1,4.55-1.79c3.36,0,5.34,2.07,5.34,4.86,0,2.6-1.47,4.24-4.31,5.1-.3.08-.42,0-.61-.26a3,3,0,0,0-1-.88c2.37-.56,4.23-1.54,4.23-4.19a3.19,3.19,0,0,0-3.14-3.25Zm-4,1.36a4.06,4.06,0,0,0-1.09,2.59c0,1.29.51,2,1,2s.67-.19,1-.86a15.66,15.66,0,0,0,1.48-5A4.2,4.2,0,0,0,193.76,185.23Z"/><path d="M211,185.27a12.52,12.52,0,0,1-.7,3.38,8.51,8.51,0,0,1-4.23,4.58,1.39,1.39,0,0,1-.33.13c-.12,0-.19-.09-.34-.3a3.26,3.26,0,0,0-.88-.81,7.26,7.26,0,0,0,4.35-4.16,10.56,10.56,0,0,0,.59-2.82H207.3c-1.35,0-1.81,0-1.88,0s-.17,0-.17-.15V184c0-.14,0-.15.17-.15s.53,0,1.88,0h2.25c0-.4,0-.81,0-1.22a11.24,11.24,0,0,0-.13-1.86,13.58,13.58,0,0,1,1.65.16c.21,0,.28.09.28.19a.57.57,0,0,1-.12.35,3.91,3.91,0,0,0-.12,1.19c0,.38,0,.79,0,1.19h2.94c1.36,0,1.82,0,1.92,0s.17,0,.17.16c0,.42,0,.9,0,1.26a40.89,40.89,0,0,1-.43,6.15,2,2,0,0,1-2.34,1.85,9.48,9.48,0,0,1-1.35-.05c-.43-.05-.43-.06-.52-.51a3.29,3.29,0,0,0-.4-1.1,11.28,11.28,0,0,0,2.1.18c.52,0,.88-.2,1-.94a33.66,33.66,0,0,0,.37-5.58Z"/><path d="M72.4,214.94c0,.16-.09.23-.27.26a9.83,9.83,0,0,1-1,.06c-.12,0-.18-.08-.18-.22,0-.5,0-1.2,0-1.71-1.25.65-1.7,1.19-1.7,1.87s.48,1,2,1a23.17,23.17,0,0,0,3.49-.28c.12,0,.18,0,.19.16a6.22,6.22,0,0,1,.13,1.14c0,.17,0,.27-.16.27a25.46,25.46,0,0,1-3.47.18c-2.3,0-3.51-.68-3.51-2.31,0-1.34.84-2.32,3-3.42,0-.71-.21-1-.84-1a3.26,3.26,0,0,0-1.93,1,15.58,15.58,0,0,0-1.4,1.52c-.07.09-.12.13-.17.13a.29.29,0,0,1-.16-.1,7.4,7.4,0,0,1-.79-.92.2.2,0,0,1-.06-.13c0-.06,0-.1.1-.15a14.58,14.58,0,0,0,2.93-3.48c-.66,0-1.42,0-2.25,0-.12,0-.16-.07-.19-.22s-.1-.74-.14-1.16a31.44,31.44,0,0,0,3.22,0,10.94,10.94,0,0,0,.42-1.2,3.27,3.27,0,0,0,.1-.86,8.9,8.9,0,0,1,1.59.4.24.24,0,0,1,.17.23.26.26,0,0,1-.1.21,1.18,1.18,0,0,0-.23.34c-.09.2-.16.38-.33.76a21.91,21.91,0,0,0,2.55-.44c.16,0,.2,0,.23.14a5.12,5.12,0,0,1,.14,1c0,.14,0,.2-.24.23-1,.15-2.26.3-3.28.42a15.14,15.14,0,0,1-1.05,1.55l0,0a2.71,2.71,0,0,1,1.4-.44,1.55,1.55,0,0,1,1.71,1.52c.54-.26,1.34-.62,2-1a4.29,4.29,0,0,0,1.07-.76,8.6,8.6,0,0,1,1,1.23.61.61,0,0,1,.11.31c0,.11-.07.17-.21.2a4.22,4.22,0,0,0-.85.21c-.91.32-1.82.63-3,1.12Z"/><path d="M83.57,214.45c0,1.29.56,1.8,1.86,1.8,1.64,0,2.55-.63,2.55-1.9a3.41,3.41,0,0,0-1.26-2.55,4.31,4.31,0,0,0,1.43-.08.31.31,0,0,1,.29.06,3.65,3.65,0,0,1,1.19,2.63c0,2-1.62,3.28-4,3.28s-3.53-1.12-3.53-3.17c0-.29,0-.68.09-1.31a12.12,12.12,0,0,1-1.9-.42c-.1,0-.14-.1-.15-.27a7.06,7.06,0,0,1,0-1.3,8.49,8.49,0,0,0,2.27.54c.07-.51.18-1.43.24-2a10.11,10.11,0,0,1-2-.39c-.17,0-.23-.11-.23-.24,0-.34,0-.8,0-1.3a12,12,0,0,0,2.54.53c.11-.81.15-1.19.18-1.61a6.64,6.64,0,0,0,0-1.18,9.39,9.39,0,0,1,1.68.39c.19.07.3.2.3.33a.4.4,0,0,1-.11.26,1.32,1.32,0,0,0-.25.6c-.07.33-.15.8-.22,1.32a8.36,8.36,0,0,0,1.72-.08c.1,0,.14.07.14.17a7.37,7.37,0,0,1,0,1.05c0,.15,0,.19-.22.21a14.62,14.62,0,0,1-1.87.07c-.08.49-.22,1.44-.3,2,.74,0,1.31,0,2,0,.19,0,.23,0,.23.15a9.91,9.91,0,0,1-.07,1.05c0,.17-.06.23-.2.23-.7.05-1.43.05-2.14,0A8.35,8.35,0,0,0,83.57,214.45Z"/><path d="M96.22,211a13.85,13.85,0,0,1,4.09-.85,3,3,0,0,1,3.2,3,3.36,3.36,0,0,1-2,3.14,7.8,7.8,0,0,1-2.9.92c-.25,0-.36,0-.46-.2a3,3,0,0,0-.85-.92,10,10,0,0,0,3.37-1,2.19,2.19,0,0,0,1.26-2.08c0-1-.61-1.54-1.73-1.54a12.45,12.45,0,0,0-4,1.09,4.19,4.19,0,0,0-.78.43.45.45,0,0,1-.28.14c-.13,0-.23-.08-.37-.25a7.22,7.22,0,0,1-.75-1.36A13.92,13.92,0,0,0,96.22,211Z"/><path d="M113.88,208.49c-1.71.32-3.21.61-4.71.92-.53.13-.67.15-.88.22a.74.74,0,0,1-.31.12.35.35,0,0,1-.27-.21,9.85,9.85,0,0,1-.51-1.52,18.12,18.12,0,0,0,2.22-.23c1.73-.26,4.81-.72,8.42-1.2.21,0,.28.06.3.16a7.52,7.52,0,0,1,.15,1.23c0,.17-.08.21-.27.21a6.15,6.15,0,0,0-1.71.31c-2.38.81-3.57,2.45-3.57,4.13s1.29,2.79,3.73,2.94c.22,0,.31.06.31.21a4.9,4.9,0,0,1-.16,1.21c0,.21-.1.29-.26.29-2.47,0-5.17-1.41-5.17-4.33a5.06,5.06,0,0,1,2.69-4.44Z"/><path d="M123.13,210.32c0,4.06-.46,5.18-1.57,6.64-.13.17-.21.25-.28.25s-.15-.1-.31-.26a3.87,3.87,0,0,0-.74-.65c1.16-1.3,1.54-2.14,1.55-6-.74,0-1,0-1.09,0s-.14,0-.14-.16V209.1c0-.14,0-.15.14-.15s.46,0,1.6,0h2.23c1.13,0,1.49,0,1.58,0s.15,0,.15.15v1.09c0,.14,0,.16-.15.16l-.86,0v3.82a9.39,9.39,0,0,0,1.15-.57c0,.22,0,.53,0,.81,0,.48,0,.48-.35.67a13.48,13.48,0,0,1-1.88.87,1,1,0,0,0-.35.23.37.37,0,0,1-.23.12c-.07,0-.11,0-.15-.16a8.91,8.91,0,0,1-.34-1.22c.3-.07.55-.14.86-.24v-4.33Zm-.53-3c-1,0-1.32,0-1.4,0s-.16,0-.16-.16v-1.06c0-.14,0-.16.16-.16s.43,0,1.4,0h1.65c1,0,1.32,0,1.4,0s.15,0,.15.16v1.06c0,.14,0,.16-.15.16s-.41,0-1.4,0Zm6.3,8.63a.27.27,0,0,1,.14.22c0,.08-.07.13-.15.17a1.72,1.72,0,0,0-.38.26,9.31,9.31,0,0,1-2.26,1.4,1.1,1.1,0,0,1-.32.13c-.11,0-.17-.1-.32-.35a3.06,3.06,0,0,0-.59-.7,7.61,7.61,0,0,0,2.45-1.25,3.43,3.43,0,0,0,.46-.47A5.32,5.32,0,0,1,128.9,216Zm-.6-8.91c-1.25,0-1.67,0-1.75,0s-.16,0-.16-.16v-1c0-.14,0-.15.16-.15s.5,0,1.75,0h3c1.26,0,1.68,0,1.77,0s.14,0,.14.15v1c0,.14,0,.16-.14.16s-.51,0-1.77,0h-1.06c-.14.37-.3.71-.45,1h.94c1.12,0,1.51,0,1.61,0s.15,0,.15.16,0,.56,0,1.63v3.72c0,1.06,0,1.54,0,1.62s0,.17-.15.17l-1.39,0,.1.07a8.49,8.49,0,0,0,2.47,1.49,3.1,3.1,0,0,0-.58.78c-.12.24-.18.34-.28.34a1.11,1.11,0,0,1-.35-.14,9,9,0,0,1-2.21-1.66c-.11-.11-.07-.14.07-.26l.59-.53a.39.39,0,0,1,.11-.09h-2.33c-1.13,0-1.52,0-1.61,0s-.17,0-.17-.17,0-.56,0-1.62v-3.67c0-1.12,0-1.59,0-1.68s0-.16.17-.16.45,0,1.49,0c.15-.35.26-.66.39-1Zm-.14,3.06h3v-.88h-3Zm3,2v-.91h-3v.91Zm0,1.05h-3v1h3Z"/><path d="M137.76,211.72c.66,0,.84,0,.92,0s.19,0,.17.17c0,.34,0,.7-.07,1a12.63,12.63,0,0,1-.6,4.11c-.25.63-.74.94-1.77.94h-.67c-.29,0-.29,0-.38-.48a4.91,4.91,0,0,0-.3-1,9.22,9.22,0,0,0,1.23.1.81.81,0,0,0,.66-.28c.22-.37.36-1.1.49-3.28h-1.32c0,.18-.07.35-.11.53s-.07.18-.69.08-.7-.14-.66-.33a23.65,23.65,0,0,0,.52-3.21,8.1,8.1,0,0,0,.06-1c0-.14,0-.19.18-.19s.41,0,1,0h1.28v-1.76h-1.39c-.88,0-1.15,0-1.25,0s-.14,0-.14-.14v-1c0-.15,0-.17.14-.17s.37,0,1.25,0h1.54c.67,0,.94,0,1,0s.16,0,.16.17,0,.45,0,1.26v1.45c0,.81,0,1.17,0,1.26s0,.15-.16.15-.35,0-1,0h-1.27c-.06.59-.13,1.12-.2,1.64Zm3.77-3.89h2.56c1.26,0,1.69,0,1.78,0s.14,0,.14.15v.83c0,.14,0,.15-.14.15s-.52,0-1.78,0h-2.56v.72h2.56c1.25,0,1.68,0,1.77,0s.14,0,.14.15v.81c0,.16,0,.17-.14.17s-.52,0-1.77,0h-2.56v.73h3.75c1.35,0,1.81,0,1.89,0s.17,0,.17.16v1c0,.14,0,.15-.17.15s-.54,0-1.89,0h-1.61a6.68,6.68,0,0,0,.78,1.61,8.7,8.7,0,0,0,1-1,3.06,3.06,0,0,0,.38-.54,9.77,9.77,0,0,1,1,.71c.09.07.13.11.13.18s0,.14-.16.18a1.07,1.07,0,0,0-.4.27,9.19,9.19,0,0,1-1.22,1,6.8,6.8,0,0,0,2.44,1.45,2.56,2.56,0,0,0-.59.93c-.1.25-.16.35-.25.35a.86.86,0,0,1-.34-.13,7.8,7.8,0,0,1-2.75-2.31,5.38,5.38,0,0,0-.07.84c0,.45,0,.45-.43.58-1.18.35-2.16.6-3.08.79a3.1,3.1,0,0,0-.52.17.35.35,0,0,1-.22.09c-.09,0-.17-.06-.21-.19-.12-.4-.21-.91-.3-1.3.39,0,.81-.08,1.25-.14v-3.57h-.86c-.15,0-.16,0-.16-.15v-1c0-.14,0-.16.16-.16s.33,0,.94,0v-3.88c0-1,0-1.5,0-1.58s0-.16.16-.16.5,0,1.69,0h2.66c1.22,0,1.62,0,1.7,0s.15,0,.15.16v1c0,.13,0,.14-.15.14s-.48,0-1.7,0h-3.13Zm-.09,8.22c.7-.15,1.46-.35,2.24-.6a9.08,9.08,0,0,1-1.3-2.73h-.94Z"/><path d="M153.27,206.19c.18.07.27.15.27.28a.32.32,0,0,1-.1.22,1.54,1.54,0,0,0-.25.66c-.2,1-.31,2-.39,2.68,0,.5-.07,1-.05,1.54.31-.55.61-1.08,1-1.8a2.85,2.85,0,0,0,.44.91.34.34,0,0,1,.08.23.63.63,0,0,1-.14.35,11,11,0,0,0-.82,1.79,1.32,1.32,0,0,0-.07.42.21.21,0,0,1-.19.23c-.16,0-.77.12-1.12.16-.1,0-.17-.08-.19-.18a8.77,8.77,0,0,1-.42-2.84,29.86,29.86,0,0,1,.33-3.49,12.31,12.31,0,0,0,.11-1.6A7.21,7.21,0,0,1,153.27,206.19Zm4.55-.24c.28.07.31.14.28.38s0,.45,0,.64c.09,1.33.19,2.61.19,3.62a9.22,9.22,0,0,1-1.06,4.86,7.75,7.75,0,0,1-2.31,2.25.5.5,0,0,1-.28.1.41.41,0,0,1-.3-.15,3.26,3.26,0,0,0-1.19-.65,6.89,6.89,0,0,0,2.38-1.87,6.72,6.72,0,0,0,1.18-4.47c0-1-.07-2.45-.17-3.35a7,7,0,0,0-.29-1.53A8.31,8.31,0,0,1,157.82,206Z"/><path d="M168.24,212.21a25.34,25.34,0,0,1-2.89-.05c-.15,0-.21-.06-.22-.24a7.85,7.85,0,0,1-.09-1.19,20.83,20.83,0,0,0,3.16.11c0-.53,0-1.08,0-1.61a23.64,23.64,0,0,1-3.35-.07.21.21,0,0,1-.24-.2c0-.35-.07-.68-.1-1.26a32.08,32.08,0,0,0,3.67.14c0-.52,0-.88,0-1.36a4.36,4.36,0,0,0-.17-.94,8.27,8.27,0,0,1,1.76.26.29.29,0,0,1,.16.42,1.65,1.65,0,0,0-.21.67c0,.28,0,.48,0,.9a25.69,25.69,0,0,0,3.07-.42c.16-.05.22,0,.23.16a6.9,6.9,0,0,1,.07,1c0,.18,0,.21-.15.22a27.27,27.27,0,0,1-3.24.36c0,.56,0,1.08,0,1.59a26.22,26.22,0,0,0,2.74-.37c.17,0,.21,0,.23.11,0,.27,0,.73,0,1.15,0,.14-.06.18-.21.2-.92.15-1.57.25-2.74.34,0,.64.05,1.33.09,2a12.36,12.36,0,0,1,3.72,1.7c.14.12.14.16.09.33a4,4,0,0,1-.61,1,.23.23,0,0,1-.19.11.2.2,0,0,1-.15-.07,11.21,11.21,0,0,0-2.79-1.6c0,1.52-.92,2.13-2.84,2.13s-2.86-.8-2.86-2,1.11-2,2.8-2a12.8,12.8,0,0,1,1.35.06C168.28,213.26,168.25,212.69,168.24,212.21ZM167,215c-1,0-1.51.3-1.51.74s.42.63,1.39.63a1.68,1.68,0,0,0,1.27-.42,1.33,1.33,0,0,0,.16-.78A6,6,0,0,0,167,215Z"/><path d="M182.81,206.62a4.18,4.18,0,0,0-.17-1,13.53,13.53,0,0,1,1.64.2c.24,0,.4.14.4.26a.64.64,0,0,1-.13.32,1.79,1.79,0,0,0-.11.41c0,.18,0,.36,0,.9,1.51-.06,3-.07,4.3-.07.17,0,.2,0,.21.21,0,.35,0,.71,0,1.06,0,.16-.07.2-.24.18-1.46,0-2.81,0-4.27,0,0,.85,0,1.75,0,2.6a4.4,4.4,0,0,1,.21,1.39,5.23,5.23,0,0,1-2.49,4.52,1.28,1.28,0,0,1-.55.27.83.83,0,0,1-.42-.21,3,3,0,0,0-1.06-.56A4.68,4.68,0,0,0,183,214a1.63,1.63,0,0,1-1.32.56,1.94,1.94,0,0,1-1.94-2.15,2,2,0,0,1,2.11-2.1,1.79,1.79,0,0,1,1.07.28c0-.49,0-1,0-1.43-1.76.1-3.74.27-4.84.42-.31.05-.54.17-.66.17s-.2,0-.24-.19a9.72,9.72,0,0,1-.35-1.42,9.35,9.35,0,0,0,1.71-.05c.85-.07,2.66-.19,4.34-.28C182.83,207.35,182.83,207,182.81,206.62ZM181,212.3a.87.87,0,0,0,.9.95.9.9,0,0,0,1-1,.85.85,0,0,0-.93-.9A.9.9,0,0,0,181,212.3Z"/><path d="M197.58,214.2h-1.41l-.39-8.33H198Zm.27,1.36v1.89h-2v-1.89Z"/></g></g></svg>