<svg xmlns="http://www.w3.org/2000/svg" viewBox="0 0 37.31 30.32"><g id="レイヤー_2" data-name="レイヤー 2"><g id="レイヤー_1-2" data-name="レイヤー 1"><g id="Logo"><path id="white_background" data-name="white background" d="M33.49,7.55c0,.33,0,.65,0,1,0,10.11-7.7,21.78-21.78,21.78h0A21.67,21.67,0,0,1,0,26.88,15.74,15.74,0,0,0,1.82,27a15.38,15.38,0,0,0,9.51-3.28,7.67,7.67,0,0,1-7.15-5.32,7.59,7.59,0,0,0,3.45-.13,7.65,7.65,0,0,1-6.14-7.5v-.1a7.73,7.73,0,0,0,3.48,1A7.66,7.66,0,0,1,2.6,1.4a21.68,21.68,0,0,0,15.77,8,7.67,7.67,0,0,1,13.05-7A15.54,15.54,0,0,0,36.28.55a7.67,7.67,0,0,1-3.37,4.24,15.31,15.31,0,0,0,4.4-1.21A15.67,15.67,0,0,1,33.49,7.55Z"/></g></g></g></svg>