<svg xmlns="http://www.w3.org/2000/svg" viewBox="0 0 550.21 551"><defs><style>.cls-1{fill:#1b1b1b;}</style></defs><g id="レイヤー_2" data-name="レイヤー 2"><g id="レイヤー_1-2" data-name="レイヤー 1"><path class="cls-1" d="M467.4,114.1l18.39-15.44a6.28,6.28,0,0,1,1.41,2c.33.78.6,1.6,1,2.39a9.71,9.71,0,0,0,1.55,2.43c.6.77,1.43,1.36,2.09,2.09a28.18,28.18,0,0,1,2.92,4,24.46,24.46,0,0,0,7,8.18,13.93,13.93,0,0,1,5.23,6.9c.63,1.57,1.3,3.08,2,4.53l1.11,2.16c.36.73.73,1.44,1.12,2.16a11.83,11.83,0,0,1,.94,2.6c0,.1,0,.1,0,.17a13.46,13.46,0,0,0,1.37,2.52c.74,1.1,1.41,2.23,2,3.38s1.16,2.35,1.73,3.53a67.12,67.12,0,0,0,3.59,6.95c.44.71.88,1.42,1.28,2.16s.75,1.5,1.1,2.27a39.58,39.58,0,0,1,1.82,4.76c.8,1.59,1.55,3.19,2.29,4.8l2,4.92c.67,1.63,1.35,3.25,2.08,4.85.36.8.74,1.6,1.13,2.38s.75,1.59,1.13,2.38a45.28,45.28,0,0,1,4,10.31,88.91,88.91,0,0,0,2.65,9.81c.35,1,.69,2,1,3.09s.52,2.09.75,3.15a40.88,40.88,0,0,1,.8,6.46,10.71,10.71,0,0,0,.9,3.59c2,4.46,2.7,9.36,3.69,14.2.65,4.57,1.68,9.21,1.47,13.88a11.86,11.86,0,0,0,.14,2.73c.26,2,.44,4.13.58,6.22,0,1,.11,2.09.17,3.14l.08,1.58v1.58c0,4.22-.05,8.43.22,12.6h-24c-.81-4.43-.37-6.35,0-10.95a9.78,9.78,0,0,0-.36-3.24,7.13,7.13,0,0,1,.25-5,2,2,0,0,0,.08-1.68c-1.23-2.26-1.29-4.89-1.6-7.36a26.67,26.67,0,0,0-.94-4.06,13.6,13.6,0,0,1-.9-3.22c-.09-.91-.19-1.82-.31-2.73l-.51-2.69-1-5.38-.46-2.7q-.2-1.35-.45-2.7a49.53,49.53,0,0,1-.68-5.47,21.51,21.51,0,0,0-.81-4.14c-.31-1.29-.71-2.56-1.08-3.84s-.75-2.55-1.12-3.83-.78-2.56-1.2-3.83c-.22-.63-.42-1.27-.67-1.9s-.53-1.24-.81-1.85a82.68,82.68,0,0,0-2.89-8.78c-1.16-2.86-2.52-5.65-3.62-8.51a9.5,9.5,0,0,0-1.7-2.79,8.14,8.14,0,0,1-2.88-6.77,4.72,4.72,0,0,0-.89-3.16,11.61,11.61,0,0,1-.93-1.39c-.75-1.24-1.53-2.39-2.21-3.59s-.95-2.61-1.91-3.73a4.71,4.71,0,0,1-.85-2.28,15.53,15.53,0,0,0-1.82-5.29c-.25-.57-.62-1.08-1-1.68s-.85-1.19-1.16-1.73c-.21-.36-.51-.74-.71-1.1-.51-.8-1-1.6-1.52-2.4L488,143.37l-3.12-4.72c-.88-1.2-1.54-2.56-2.32-3.84a27,27,0,0,0-2.56-3.69c-1.7-2.1-3.19-4.34-4.95-6.38-1-1.17-2.35-3.28-3.75-5.38-.7-1-1.4-2.1-2-3A20.84,20.84,0,0,0,467.4,114.1Z"/><path class="cls-1" d="M318.67,28.22l4.15-23.65c1.68.09,3.11,1.13,4.66,1.83a9.73,9.73,0,0,0,2.77.79c.95.22,2,.16,2.94.31a29.12,29.12,0,0,1,4.75,1.24,32.23,32.23,0,0,0,5.22,1.33,21.68,21.68,0,0,0,5.43.38,15.1,15.1,0,0,1,8.47,1.83A59.74,59.74,0,0,0,366,16.41a12.13,12.13,0,0,1,2.41,1.33c0,.09,0,.09.12.12a19.43,19.43,0,0,0,2.65,1.08,73.83,73.83,0,0,1,7.32,2.91l3.59,1.55c1.19.55,2.38,1.05,3.61,1.49a43.61,43.61,0,0,1,9.16,4.29c3.22,1.48,6.36,3.13,9.52,4.7,1.6.76,3.11,1.66,4.69,2.43s3.15,1.54,4.77,2.21c.87.35,1.74.7,2.6,1.08a21.3,21.3,0,0,1,2.48,1.25,36.56,36.56,0,0,1,4.59,3c2.72,2.07,5.6,3.87,8.36,5.74,1.82,1.17,3.62,2.36,5.35,3.66.85.66,1.71,1.32,2.51,2.05s1.54,1.54,2.26,2.37A10.85,10.85,0,0,0,444.94,60a34.08,34.08,0,0,1,6.25,3.8c1.92,1.51,3.79,3.12,5.7,4.68A58,58,0,0,1,467,78.12a11.69,11.69,0,0,0,1.92,1.93,120.4,120.4,0,0,1,8.67,9.08c1.44,1.54,2.71,3.23,4.08,4.82s2.74,3.19,4.17,4.71L467.4,114.1c-3.45-2.87-4.28-4.69-7-8.41a12.07,12.07,0,0,0-2.4-2.21,7.28,7.28,0,0,1-3-4,2,2,0,0,0-1-1.35,18.58,18.58,0,0,1-6-4.55A26.25,26.25,0,0,0,444.72,91c-.49-.28-1-.58-1.44-.88a11.8,11.8,0,0,1-1.34-1c-2.71-2.46-5.53-4.79-8.34-7.11a64.45,64.45,0,0,1-8.21-7.32,18.86,18.86,0,0,0-3.34-2.56c-2.21-1.49-4.37-3-6.56-4.56s-4.57-2.79-7-4c-1.23-.93-2.49-1.82-3.81-2.63s-2.69-1.5-4.06-2.22l-4.1-2.15-2-1.08-2.06-1a9.42,9.42,0,0,0-3.14-1A8.19,8.19,0,0,1,382.8,50a4.73,4.73,0,0,0-2.74-1.77,13,13,0,0,1-1.63-.43c-1.37-.47-2.68-.9-4-1.41s-2.37-1.47-3.86-1.65a4.67,4.67,0,0,1-2.13-1.14,18.68,18.68,0,0,0-4.78-2.93,17.55,17.55,0,0,0-1.79-.72c-.58-.24-1.42-.35-2-.55-.39-.14-.87-.23-1.26-.36-1.84-.51-3.63-1.06-5.43-1.63s-3.56-1.2-5.41-1.64c-2.89-.68-5.64-2.11-8.57-2.66-1.3-.33-2.62-.58-3.94-.84s-2.64-.54-4-.77c-1.49-.3-3.88-1.11-6.3-1.82S320.15,28.42,318.67,28.22Z"/><path class="cls-1" d="M149.53,58l-12-20.78c1.34-1,3.1-1.14,4.74-1.6a10.93,10.93,0,0,0,2.63-1.16c.88-.45,1.62-1.14,2.46-1.65a28.6,28.6,0,0,1,4.43-2.12,33.84,33.84,0,0,0,4.85-2.33,20.39,20.39,0,0,0,4.41-3.2,14.53,14.53,0,0,1,7.67-4,60.58,60.58,0,0,0,9.48-2.61,11.63,11.63,0,0,1,2.71-.54c.09,0,.09,0,.16,0a12.72,12.72,0,0,0,2.74-.86c4.91-2,10-3,15-4.78,1.56-.58,3.15-1.13,4.78-1.59a26.26,26.26,0,0,1,5-1c3.42-.94,6.89-1.7,10.32-2.54s6.89-1.43,10.23-2.51c.89-.3,1.78-.59,2.68-.85a21.73,21.73,0,0,1,2.71-.64,36.32,36.32,0,0,1,5.47-.6c3.42-.12,6.79-.67,10.1-1,2.14-.27,4.29-.5,6.45-.6a28.28,28.28,0,0,1,6.49.28,11,11,0,0,0,3.7-.16A39.87,39.87,0,0,1,273.88.09c2.45-.18,4.91,0,7.38-.07,2.31,0,4.65,0,7,0a34,34,0,0,1,6.94.93,11.76,11.76,0,0,0,2.71.27c2.07.08,4.16.15,6.23.42s4.16.61,6.25.94,4.16.67,6.24,1,4.14.75,6.21,1l-4.15,23.65a23.31,23.31,0,0,1-5.37-.65c-1.58-.3-3.15-.74-5.39-1.27a12.1,12.1,0,0,0-3.25-.2,7.81,7.81,0,0,1-4.89-1.21,2,2,0,0,0-1.64-.33c-2.44.87-5.05.6-7.53.34a18,18,0,0,0-4.16.18,14.18,14.18,0,0,1-3.33.41c-1.83-.1-3.66-.14-5.48-.16l-2.74,0-2.74.1a76.46,76.46,0,0,1-11-.36,21.18,21.18,0,0,0-4.21.19L249,26c-2.64.37-5.29.8-7.92,1.41-1.54.08-3.08.2-4.61.43s-3,.58-4.54.91l-4.52,1c-1.51.32-3,.61-4.5,1a9.55,9.55,0,0,0-3,1.28,8,8,0,0,1-7.21,1.52,4.65,4.65,0,0,0-3.24.41,14.87,14.87,0,0,1-1.51.72c-1.35.53-2.64,1-3.94,1.48s-2.77.37-4,1.19a4.75,4.75,0,0,1-2.37.5,18.83,18.83,0,0,0-5.54.84c-.61.14-1.18.4-1.83.62s-1.34.58-1.91.82c-.38.16-.81.4-1.19.55-3.45,1.61-6.94,2.91-10.41,4.45-2.64,1.36-5.67,2-8.26,3.51l-1.8.9c-.6.31-1.18.65-1.78,1-1.18.64-2.36,1.29-3.53,2-1.33.73-3.67,1.67-6,2.66A63.7,63.7,0,0,0,149.53,58Z"/><path class="cls-1" d="M39,189.58l-22.56-8.21c.37-1.65,1.7-2.85,2.69-4.24a9.91,9.91,0,0,0,1.32-2.57c.36-.91.46-1.93.75-2.87a21.18,21.18,0,0,1,2-4.48A24.57,24.57,0,0,0,26.78,157a14.59,14.59,0,0,1,3.4-8c1-1.34,2-2.67,2.89-4s1.84-2.67,2.66-4.07a12.28,12.28,0,0,1,1.79-2.11c.09,0,.09,0,.13-.1a13.16,13.16,0,0,0,1.49-2.45,36.17,36.17,0,0,1,1.92-3.45c.72-1.1,1.47-2.17,2.22-3.25a69.9,69.9,0,0,0,4.2-6.59,44.12,44.12,0,0,1,5.88-8.22c1.88-3,4.15-5.75,6.29-8.55,1.07-1.4,2.13-2.81,3.14-4.25s2.08-2.81,3-4.29,2.06-3.12,3.19-4.58a25.63,25.63,0,0,1,3.75-4,83.59,83.59,0,0,0,7.1-7.25,49.56,49.56,0,0,1,9.71-8.56,13.4,13.4,0,0,0,2.71-2.52,39.94,39.94,0,0,1,4.87-5.45c.89-.85,1.79-1.68,2.72-2.49l2.85-2.35c3.61-2.89,7-6.24,11.28-8.23a11.92,11.92,0,0,0,2.26-1.52c1.63-1.28,3.31-2.52,5-3.7s3.58-2.2,5.39-3.28,3.63-2.16,5.41-3.27,3.65-2.09,5.41-3.21l12,20.78A23.5,23.5,0,0,1,145,61c-1.4.79-2.9,1.46-4.95,2.48a12.33,12.33,0,0,0-2.63,1.93,7.89,7.89,0,0,1-4.51,2.24,2,2,0,0,0-1.47.79c-1.32,2.23-3.5,3.69-5.57,5.08a18.73,18.73,0,0,0-3,2.85,13.69,13.69,0,0,1-2.31,2.43c-1.47,1.09-2.9,2.22-4.32,3.37s-2.73,2.43-4.1,3.63c-2.75,2.41-5.62,4.67-8.62,6.82a21,21,0,0,0-3.15,2.8l-2.85,2.81-2.73,2.91c-1.82,2-3.61,4-5.25,6.1a79.15,79.15,0,0,0-6.11,6.94L81.94,116c-.47.61-.91,1.25-1.36,1.87-.91,1.25-1.83,2.49-2.77,3.69a9.41,9.41,0,0,0-1.56,2.89,10.72,10.72,0,0,1-1.58,3.47,8,8,0,0,1-2.88,2.39,4.7,4.7,0,0,0-2.28,2.35,13.14,13.14,0,0,1-.73,1.51c-.35.63-.72,1.23-1,1.85s-.66,1.23-1,1.83c-.68,1.2-1.77,2.13-2.26,3.53a4.79,4.79,0,0,1-1.54,1.88,17.26,17.26,0,0,0-2.07,1.93,16.57,16.57,0,0,0-1.64,2.27,18.41,18.41,0,0,0-1,1.67c-.31.54-.6,1.33-.91,1.87-.21.36-.39.81-.59,1.17-.44.85-.88,1.68-1.31,2.52s-.9,1.66-1.29,2.51c-.83,1.69-1.67,3.38-2.5,5.08a39.81,39.81,0,0,1-2.19,3.92,22.1,22.1,0,0,0-1.93,4c-1,2.51-2.09,5-3.07,7.47C43.4,180.53,40,186.75,39,189.58Z"/><path class="cls-1" d="M39,361.39l-22.56,8.22c-.74-1.51-.52-3.28-.66-5a9.71,9.71,0,0,0-.65-2.81c-.32-.93-.9-1.77-1.28-2.68s-.58-1.54-.8-2.32a22.84,22.84,0,0,1-.51-2.41,24.56,24.56,0,0,0-3.88-10.07A15.13,15.13,0,0,1,6.2,336c-.07-1.7-.2-3.34-.39-5s-.3-3.23-.56-4.83a12.22,12.22,0,0,1,0-2.77c0-.09,0-.09,0-.16a13.49,13.49,0,0,0-.43-2.84,32.23,32.23,0,0,1-.75-3.87c-.16-1.31-.27-2.61-.39-3.92a65.2,65.2,0,0,0-1-7.75A34.48,34.48,0,0,1,2,300,41.15,41.15,0,0,1,2,294.88c-.2-1.77-.36-3.53-.51-5.3l-.18-5.29c-.06-1.76-.15-3.52-.29-5.27s-.36-3.5-.51-5.23a45.08,45.08,0,0,1-.21-11.06c.15-1.7.42-3.39.55-5.08s.23-3.36.29-5a55.62,55.62,0,0,1,.44-6.46A39.92,39.92,0,0,1,3,239.82a10.91,10.91,0,0,0,.4-3.68,29.81,29.81,0,0,1,.24-7.31c.31-2.43.74-4.85,1.11-7.3L5,219.81l.34-1.71c.23-1.14.45-2.29.71-3.43a40,40,0,0,1,2-6.7,17,17,0,0,0,.75-2.62c.93-4,2.18-8.06,3.49-12.07,1.48-4,3-7.91,4.14-11.91L39,189.58c-.76,4.43-1.83,6.08-3.77,10.26a10.37,10.37,0,0,0-.73,3.18,7.18,7.18,0,0,1-2,4.62,2,2,0,0,0-.66,1.55,11.64,11.64,0,0,1-.15,3.77,32.48,32.48,0,0,1-.82,3.7,28.09,28.09,0,0,0-.52,4.13,13.63,13.63,0,0,1-.27,3.33c-.84,3.55-1.27,7.19-1.92,10.78l-.49,2.7c-.13.9-.27,1.8-.43,2.7a50.93,50.93,0,0,1-1.26,5.37,21.1,21.1,0,0,0-.67,4.16c-.13,2.67-.35,5.32-.52,8-.08,1.33-.15,2.67-.2,4a39.09,39.09,0,0,0,.16,4,81.46,81.46,0,0,0-.32,9.25c.16,3.09.44,6.17.51,9.24a9.5,9.5,0,0,0,.64,3.21,8.24,8.24,0,0,1,.38,7.36,4.69,4.69,0,0,0-.24,3.26,13.82,13.82,0,0,1,.4,1.63c.21,1.43.59,2.77.81,4.13s0,2.78.53,4.17a4.72,4.72,0,0,1,0,2.42,16.73,16.73,0,0,0-.35,2.81,17.29,17.29,0,0,0,.2,2.79,17.93,17.93,0,0,0,.34,1.91c.11.61.39,1.4.5,2,.07.4.23.87.3,1.28.46,1.84.77,3.7,1.23,5.52s.9,3.65,1.36,5.49c.81,2.85.81,6,2,8.76.87,2.55,1.6,5.13,2.47,7.68.2.73.47,1.7.78,2.8l.9,3.53A64.86,64.86,0,0,0,39,361.39Z"/><path class="cls-1" d="M149.53,492.94l-12,20.78c-1.56-.65-2.55-2.11-3.77-3.3a12.55,12.55,0,0,0-2.29-1.74c-.83-.53-1.8-.82-2.66-1.29a28.79,28.79,0,0,1-4.06-2.77c-2.9-2.19-5.75-4.26-9.4-5.27a13.87,13.87,0,0,1-7.3-4.67,59.73,59.73,0,0,0-7-6.86,9.66,9.66,0,0,1-1.76-2.13c0-.1,0-.1-.07-.15a13.13,13.13,0,0,0-2.12-1.93,73.56,73.56,0,0,1-5.94-5.17,70.19,70.19,0,0,0-5.68-5.37c-1.3-1-2.58-2.14-3.8-3.3a36.2,36.2,0,0,1-3.32-3.87c-1.27-1.23-2.51-2.5-3.74-3.77s-2.47-2.54-3.62-3.88a91.92,91.92,0,0,0-7.36-7.54,42.38,42.38,0,0,1-7.23-8.36l-2.89-4.22q-1.45-2.08-3-4.06c-1.33-1.7-2.67-3.4-3.83-5.22A40.11,40.11,0,0,1,43.72,423a10.9,10.9,0,0,0-2-3.08,29.78,29.78,0,0,1-4.52-5.74c-1.32-2.06-2.55-4.2-3.84-6.31-2.27-4-4.73-8.08-6.17-12.53a15,15,0,0,0-1.09-2.5c-.94-1.84-1.82-3.73-2.67-5.65-.41-1-.83-1.93-1.24-2.9s-.82-1.94-1.16-2.94c-1.42-4-2.87-7.94-4.51-11.77L39,361.39c2.24,3.89,2.52,5.83,3.73,10.28a7.77,7.77,0,0,0,.61,1.56c.27.49.58.94.84,1.35a7.2,7.2,0,0,1,1.48,4.8,2,2,0,0,0,.49,1.61,10.8,10.8,0,0,1,2.31,3c.63,1.09,1.22,2.23,1.74,3.36a28,28,0,0,0,2.27,3.5,13.12,13.12,0,0,1,1.94,2.72l.6,1.23.67,1.19,1.39,2.36,2.79,4.72,1.36,2.37c.48.78,1,1.56,1.4,2.36a52.63,52.63,0,0,1,2.48,4.92,17.61,17.61,0,0,0,2.18,3.61c1.6,2.13,3.13,4.31,4.71,6.47.79,1.07,1.56,2.16,2.43,3.18s1.78,2,2.72,3c.85,1.28,1.77,2.52,2.72,3.74a42,42,0,0,0,3,3.53c2.11,2.26,4.26,4.47,6.27,6.79a8.15,8.15,0,0,0,2.61,2,8,8,0,0,1,5,5.43,4.43,4.43,0,0,0,1.92,2.66,13.53,13.53,0,0,1,1.39.94c1.15.9,2.24,1.74,3.29,2.64s1.75,2.16,3,2.9a5.63,5.63,0,0,1,1.6,1.82,18.31,18.31,0,0,0,3.53,4.35A17.06,17.06,0,0,0,113,467c.47.41,1.19.84,1.66,1.25.31.27.71.54,1,.8,3.12,2.18,6,4.49,9.07,6.78,2.47,1.65,4.6,3.88,7.18,5.39l3.38,2.21c1.15.7,2.3,1.39,3.47,2.06s3.3,2.32,5.31,3.85A47,47,0,0,0,149.53,492.94Z"/><path class="cls-1" d="M318.67,522.75l4.15,23.65c-1.61.5-3.31,0-5-.11a12.68,12.68,0,0,0-2.87.14c-1,.12-1.91.52-2.88.72a28.42,28.42,0,0,1-4.88.48,45,45,0,0,0-5.36.5,20.16,20.16,0,0,0-5.23,1.5,14.52,14.52,0,0,1-8.58,1.15,58.89,58.89,0,0,0-9.8-.81,11.73,11.73,0,0,1-2.72-.42c-.07-.07-.07-.07-.15-.07a14.67,14.67,0,0,0-2.86-.12,73.65,73.65,0,0,1-7.87-.23l-3.9-.21c-1.3-.11-2.6-.17-3.9-.17a47,47,0,0,1-10.07-.85c-3.53-.31-7.05-.79-10.55-1.19l-2.63-.29-2.61-.34c-1.74-.22-3.49-.38-5.24-.46s-3.74-.18-5.58-.41a32.36,32.36,0,0,1-5.35-1.3c-1.63-.52-3.28-1-4.92-1.37s-3.31-.7-4.92-1.12a50.38,50.38,0,0,1-12.29-4.12,11.06,11.06,0,0,0-3.53-1.12,40.15,40.15,0,0,1-7.17-1.45c-.59-.17-1.18-.33-1.76-.53l-1.73-.63L175,532.29c-2.17-.82-4.39-1.56-6.57-2.41a36.61,36.61,0,0,1-6.2-3.25,11.4,11.4,0,0,0-2.46-1.19,85.8,85.8,0,0,1-11.25-5.57c-1.83-1-3.71-2-5.52-3.08s-3.63-2.11-5.48-3.07l12-20.78c4.19,1.58,5.57,3.05,9.44,5.51a12.34,12.34,0,0,0,3,1.3,7.33,7.33,0,0,1,4.16,2.83,2,2,0,0,0,1.43.87c2.6,0,4.95,1.16,7.19,2.26a18.68,18.68,0,0,0,4,1.26,12.92,12.92,0,0,1,3.26.76c3.38,1.4,6.78,2.74,10.27,3.81,1.73.58,3.45,1.18,5.15,1.86s3.37,1.46,5.05,2.21a21.86,21.86,0,0,0,4,1.28c1.29.33,2.57.68,3.85,1l1.93.53,1.95.44c2.61.56,5.24,1.08,7.92,1.41.73.24,1.47.45,2.21.65s1.51.32,2.27.46c1.52.27,3,.5,4.57.72,3.06.43,6.12.85,9.17,1.17a9.65,9.65,0,0,0,3.29-.15,8.77,8.77,0,0,1,3.79-.35,9.52,9.52,0,0,1,3.5,1.35,4.72,4.72,0,0,0,3.19.73,13.48,13.48,0,0,1,1.67-.16c1.45,0,2.83-.06,4.21,0A14.5,14.5,0,0,1,262,525a6.12,6.12,0,0,0,2.13-.05,4.77,4.77,0,0,1,2.4.34,18.26,18.26,0,0,0,5.5,1.12,15.2,15.2,0,0,0,1.93,0,20.56,20.56,0,0,0,2.08-.14c.41,0,.9-.09,1.31-.1,3.8-.33,7.53-.36,11.31-.6,2.95-.37,6,0,9-.48q4-.42,8-1.14c1.5-.23,4-.33,6.55-.45A47.12,47.12,0,0,0,318.67,522.75Z"/><path class="cls-1" d="M467.4,436.87l18.39,15.44c-.94,1.4-2.56,2.1-4,3.08a9.73,9.73,0,0,0-2.08,2c-.65.74-1.08,1.67-1.67,2.46a28.52,28.52,0,0,1-3.49,3.46,32.63,32.63,0,0,0-3.8,3.82,21.65,21.65,0,0,0-1.58,2.18,22.11,22.11,0,0,0-1.41,2.37,15.2,15.2,0,0,1-5.87,6.37l-2.08,1.39c-.7.44-1.39.89-2.06,1.36-1.34.93-2.62,1.9-3.87,2.94a13,13,0,0,1-2.37,1.41c-.11,0-.11,0-.16,0a13.87,13.87,0,0,0-2.22,1.81,75.69,75.69,0,0,1-6.21,4.85q-3.17,2.3-6.21,4.75a47.85,47.85,0,0,1-8.27,5.79c-2.89,2.06-5.91,3.93-8.85,5.88l-2.2,1.46-2.22,1.42c-1.47,1-2.91,2-4.31,3s-3,2.27-4.53,3.27a37.12,37.12,0,0,1-4.94,2.44c-1.59.65-3.13,1.36-4.65,2.12-.76.38-1.51.77-2.25,1.16l-2.25,1.12c-1.92,1-3.86,1.94-5.85,2.77a29.46,29.46,0,0,1-6.2,2,11.14,11.14,0,0,0-3.42,1.42,39.62,39.62,0,0,1-6.42,3.53c-2.25,1-4.6,1.71-6.91,2.58s-4.36,1.65-6.57,2.39a40,40,0,0,1-6.85,1.48,11.6,11.6,0,0,0-2.65.68c-1,.33-2,.64-3,.94s-2,.5-3,.74c-2.05.46-4.12.87-6.19,1.28l-3.1.61-1.55.32-1.56.25c-2.08.35-4.14.73-6.17,1.18l-4.15-23.65c4.23-1.5,6.24-1.22,10.78-1.84a12.35,12.35,0,0,0,3.12-.93,7.2,7.2,0,0,1,5-.51,1.89,1.89,0,0,0,1.66-.23c2-1.66,4.53-2.31,6.95-2.92a22.58,22.58,0,0,0,3.86-1.56,14,14,0,0,1,3-1.53c1.75-.53,3.48-1.12,5.2-1.73l2.58-.92c.85-.32,1.69-.68,2.54-1,1.69-.68,3.4-1.33,5.13-1.9.87-.29,1.75-.56,2.63-.81s1.79-.47,2.67-.73a21.07,21.07,0,0,0,3.9-1.61c1.2-.58,2.4-1.14,3.61-1.69s2.44-1.08,3.61-1.73c2.35-1.25,4.7-2.55,7-4a51.1,51.1,0,0,0,8.12-4.42l3.92-2.47c1.33-.78,2.55-1.72,3.86-2.53a9.28,9.28,0,0,0,2.42-2.22,8.51,8.51,0,0,1,6.22-3.93,4.71,4.71,0,0,0,2.92-1.48,13.24,13.24,0,0,1,1.19-1.18c1.09-1,2.13-1.87,3.21-2.72a16.72,16.72,0,0,0,3.33-2.56,4.75,4.75,0,0,1,2.06-1.27,18.76,18.76,0,0,0,5-2.64,9.83,9.83,0,0,0,1.48-1.24c.47-.41,1-1.06,1.48-1.46.31-.28.63-.65,1-.92,2.72-2.66,5.6-5,8.25-7.75,2-2.16,4.71-3.77,6.61-6.07,1.76-2,3.62-4,5.37-6,.52-.56,1.24-1.26,2.08-2l2.6-2.56A63.36,63.36,0,0,0,467.4,436.87Z"/><path class="cls-1" d="M526.17,275.49h24c.17,1.66-.64,3.25-1.1,4.9a10,10,0,0,0-.35,2.86c0,1,.23,2,.28,2.95a21.13,21.13,0,0,1-.35,4.89,24.53,24.53,0,0,0,.17,10.78,12.16,12.16,0,0,1,.45,4.39,15.63,15.63,0,0,1-.9,4.25c-.52,1.62-1,3.2-1.35,4.78l-.53,2.37c-.19.79-.37,1.58-.53,2.38a12.38,12.38,0,0,1-1,2.6c-.08.06-.08.06-.09.13a13.27,13.27,0,0,0-.58,2.81c-.47,5.3-2.54,10.18-3.27,15.35a38,38,0,0,1-2.68,9.75c-.42,1.72-.88,3.43-1.35,5.14s-1.09,3.37-1.61,5.06c-1.11,3.35-2,6.74-2.84,10.15A45,45,0,0,1,529,381.5c-1.56,3-3,6.11-4.26,9.21a42.25,42.25,0,0,1-6.21,11.37,11.35,11.35,0,0,0-1.63,3.33,34.13,34.13,0,0,1-2.75,6.76c-1.12,2.18-2.34,4.33-3.53,6.48-2.45,3.93-4.59,8.17-7.81,11.58a12,12,0,0,0-1.64,2.18c-4.36,7.06-10.32,13.29-15.37,19.9L467.4,436.87a33.63,33.63,0,0,1,3.19-4.38c1.06-1.21,2.26-2.33,3.87-4a12.57,12.57,0,0,0,1.84-2.68,7.21,7.21,0,0,1,3.4-3.69,2,2,0,0,0,1.14-1.24,11.08,11.08,0,0,1,1.42-3.51c.32-.54.68-1.06,1-1.58s.7-1.06,1.05-1.57a28.22,28.22,0,0,0,1.88-3.72,13.38,13.38,0,0,1,1.37-3c.52-.76,1-1.52,1.51-2.29l1.35-2.39,2.67-4.78c1.88-3.14,3.55-6.37,5.76-9.35a21.51,21.51,0,0,0,2.05-3.69l3.24-7.3a50.47,50.47,0,0,0,2.81-7.54,80.75,80.75,0,0,0,3.46-8.57c.88-3,1.7-5.94,2.68-8.84a9,9,0,0,0,.5-3.24,8,8,0,0,1,2.14-7,4.8,4.8,0,0,0,1.36-3,15.48,15.48,0,0,1,.17-1.67c.19-1.44.36-2.81.6-4.17s1-2.6.94-4.09a4.82,4.82,0,0,1,.82-2.28c.25-.41.49-.82.71-1.24s.36-.86.52-1.3a21.13,21.13,0,0,0,.77-2.69c.17-.6.22-1.23.34-1.9s.11-1.46.22-2.07c.08-.41.09-.9.17-1.3.12-.94.25-1.88.38-2.81l.29-2.81c.21-1.87.42-3.74.63-5.63a40,40,0,0,1,.72-4.43,27,27,0,0,0,.39-4.47c.06-2.7.27-5.38.34-8.07C525.15,285.5,526.23,278.47,526.17,275.49Z"/></g></g></svg>