<svg xmlns="http://www.w3.org/2000/svg" viewBox="0 0 106.93 106.93"><defs><style>.cls-1{fill:#fff;}</style></defs><g id="レイヤー_2" data-name="レイヤー 2"><g id="plan-movie"><circle cx="53.47" cy="53.47" r="53.47"/><path class="cls-1" d="M19.57,56.92c0-.54,0-1.22,0-1.86-.27.37-.55.73-.85,1.09-.11.14-.2.21-.26.21s-.1-.07-.16-.25a5.42,5.42,0,0,0-.51-1.31A13.4,13.4,0,0,0,20.57,50a4.92,4.92,0,0,0,.24-1.06,10.07,10.07,0,0,1,1.46.45c.16.07.25.12.25.22s-.06.17-.18.27a1.26,1.26,0,0,0-.31.6c-.29.74-.6,1.44-1,2.13v4.53a10.9,10.9,0,0,0,3.84-4.24h-.61c-1.47,0-2,0-2.06,0s-.16,0-.16-.17V51.65c0-.15,0-.16.16-.16s.59,0,2.06,0h1.51v-1a7.94,7.94,0,0,0-.1-1.49c.58,0,1.08.06,1.57.11.15,0,.26.07.26.15a.91.91,0,0,1-.09.31,2.26,2.26,0,0,0-.1.86v1.08h2.09c1.47,0,2,0,2.07,0s.15,0,.15.16v1.11c0,.15,0,.17-.15.17s-.6,0-2.07,0H27.8a14.11,14.11,0,0,0,.63,2.91,14.9,14.9,0,0,0,1.45-1.32,3.1,3.1,0,0,0,.55-.71,13,13,0,0,1,1.06,1,.35.35,0,0,1,.12.24c0,.07-.08.15-.24.21a1.1,1.1,0,0,0-.49.33c-.6.52-1.23,1-1.91,1.54a10.71,10.71,0,0,0,3.12,3.81,5.45,5.45,0,0,0-.79,1c-.12.21-.2.32-.29.32s-.17-.06-.3-.2c-2.4-2.16-3.79-5-4.26-9a14.42,14.42,0,0,1-1.17,2v5c.8-.21,1.7-.47,2.6-.77a6,6,0,0,0-.08,1c0,.48,0,.47-.48.6-1.38.45-2.85.87-4.09,1.19a1.65,1.65,0,0,0-.51.19.25.25,0,0,1-.2.09q-.11,0-.18-.21c-.13-.43-.25-.94-.36-1.48.56,0,1-.14,1.59-.24l.2,0V57a15.19,15.19,0,0,1-1.46,1.28c-.16.12-.25.19-.33.19s-.15-.1-.27-.33a3.72,3.72,0,0,0-.63-.82v3c0,1.45,0,2.19,0,2.26s0,.17-.16.17H19.7c-.15,0-.16,0-.16-.17s0-.81,0-2.26Z"/><path class="cls-1" d="M46.07,50.87c-1,0-1.51,0-1.74,0v.89c0,.15,0,.16-.16.16s-.51,0-1.8,0h-.66v1.19h.46c1.16,0,1.55,0,1.64,0s.16,0,.16.16,0,.42,0,1.2v1.47c0,.78,0,1.11,0,1.2s0,.17-.16.17-.48,0-1.64,0H42a8.1,8.1,0,0,0,2.19,2.14,4.77,4.77,0,0,0-.6.72c-.14.2-.21.3-.29.3s-.15-.07-.3-.22a8.65,8.65,0,0,1-1.3-1.68c0,2,.1,3.79.1,4s0,.15-.16.15H40.46c-.16,0-.18,0-.18-.15s.08-2,.11-4a9.14,9.14,0,0,1-1.88,2.65c-.13.14-.22.21-.3.21s-.13-.09-.22-.3a3.21,3.21,0,0,0-.59-.87,9,9,0,0,0,2.6-3h-.06c-1.16,0-1.55,0-1.65,0s-.17,0-.17-.17,0-.42,0-1.2V54.44c0-.78,0-1.09,0-1.2s0-.16.17-.16.49,0,1.65,0h.42V51.92h-.74c-1.27,0-1.69,0-1.78,0s-.17,0-.17-.16v-1c0-.14,0-.15.17-.15s.51,0,1.78,0h.74A11.15,11.15,0,0,0,40.27,49c.54,0,.87.05,1.38.11.16,0,.25.09.25.15a.73.73,0,0,1-.09.3,2.64,2.64,0,0,0-.1,1v.09h.66c1,0,1.45,0,1.66,0v-1c0-.15,0-.16.17-.16s.54,0,1.87,0h3.18c1.35,0,1.8,0,1.89,0s.15,0,.15.16v1.1c0,.15,0,.16-.15.16s-.54,0-1.89,0h-1A11,11,0,0,1,47.81,52h.87c1.2,0,1.62,0,1.73,0s.16,0,.16.16,0,.6,0,1.74v4c0,1.14,0,1.65,0,1.74s0,.17-.16.17-.53,0-1.73,0h-2c-1.23,0-1.64,0-1.73,0s-.18,0-.18-.17,0-.6,0-1.74V53.93c0-1.2,0-1.71,0-1.8s0-.16.18-.16.44,0,1.42,0a6.42,6.42,0,0,0,.43-1.13Zm-5.71,5.22V54.28h-.9v1.81Zm2.28-1.81h-.93v1.81h.93Zm4.24,6.16c.14.09.17.17.17.24s-.08.14-.19.18a3.58,3.58,0,0,0-.38.27,9.11,9.11,0,0,1-2.27,1.49,1.31,1.31,0,0,1-.36.12c-.1,0-.16-.09-.33-.35a3.27,3.27,0,0,0-.63-.75,7.6,7.6,0,0,0,2.46-1.32,2.52,2.52,0,0,0,.51-.52A6.16,6.16,0,0,1,46.88,60.44Zm-.72-7.2v.95h3v-.95Zm3,3.06v-1h-3v1Zm0,1.13h-3v1.06h3Zm-.4,2.47c.07-.07.12-.1.17-.1a.25.25,0,0,1,.15.09,8.4,8.4,0,0,0,2.56,1.56,3.52,3.52,0,0,0-.62.84c-.13.25-.19.36-.29.36a1.06,1.06,0,0,1-.38-.15A9.44,9.44,0,0,1,48,60.77c-.13-.12-.08-.15.07-.28Z"/><path class="cls-1" d="M63.89,50.42a4.77,4.77,0,0,0-.18-1.09,13.27,13.27,0,0,1,1.76.21c.25,0,.41.15.41.28a.63.63,0,0,1-.13.35,1.78,1.78,0,0,0-.12.43c0,.2,0,.39,0,1,1.62-.06,3.16-.07,4.6-.07.18,0,.21,0,.23.22a10.84,10.84,0,0,1,0,1.14c0,.17-.07.21-.25.2-1.57,0-3,0-4.58,0,0,.91,0,1.87,0,2.79a4.38,4.38,0,0,1,.23,1.48,5.62,5.62,0,0,1-2.67,4.85,1.46,1.46,0,0,1-.58.28.82.82,0,0,1-.45-.22A3.3,3.3,0,0,0,61,61.6a5,5,0,0,0,3.07-3.3,1.74,1.74,0,0,1-1.41.6,2.08,2.08,0,0,1-2.08-2.3,2.19,2.19,0,0,1,2.26-2.25,1.84,1.84,0,0,1,1.14.3c0-.52,0-1,0-1.53-1.89.11-4,.29-5.19.45-.33,0-.57.18-.71.18s-.21-.06-.25-.21A10.47,10.47,0,0,1,57.44,52,9.87,9.87,0,0,0,59.27,52c.92-.08,2.85-.2,4.65-.3C63.91,51.2,63.91,50.83,63.89,50.42ZM62,56.5a.93.93,0,0,0,1,1,1,1,0,0,0,1-1,.9.9,0,0,0-1-1A1,1,0,0,0,62,56.5Z"/><path class="cls-1" d="M82.54,55.21a4.5,4.5,0,0,1,2.38-.68,3.48,3.48,0,0,1,3.72,3.6c0,2.51-2,4.11-5.23,4.11-1.89,0-3-.81-3-2.2a2,2,0,0,1,2.11-1.83,2.73,2.73,0,0,1,2.82,2.19,2.26,2.26,0,0,0,1.53-2.28,2.19,2.19,0,0,0-2.35-2.27,6.11,6.11,0,0,0-3.84,1.59c-.44.39-.86.83-1.31,1.28-.1.1-.18.16-.25.16a.36.36,0,0,1-.23-.13,6.78,6.78,0,0,1-.88-1c-.09-.12,0-.22.07-.34a36.84,36.84,0,0,0,3.56-3.32c.93-1,1.63-1.71,2.32-2.56-.9.16-2,.37-2.89.57a3.85,3.85,0,0,0-.63.18,1.18,1.18,0,0,1-.3.07.33.33,0,0,1-.33-.25,7.31,7.31,0,0,1-.53-1.62,7.28,7.28,0,0,0,1.4,0c.91-.09,2.23-.29,3.4-.51a3.89,3.89,0,0,0,.83-.23.85.85,0,0,1,.28-.12.59.59,0,0,1,.35.12,5.81,5.81,0,0,1,1,1,.54.54,0,0,1,.17.36.39.39,0,0,1-.26.36,2.71,2.71,0,0,0-.66.48c-1.09,1.07-2.1,2.12-3.24,3.21Zm0,4.27c-.43,0-.72.26-.72.57,0,.47.41.78,1.31.78a3,3,0,0,0,.69-.06C83.63,60,83.18,59.48,82.55,59.48Z"/></g></g></svg>