<svg xmlns="http://www.w3.org/2000/svg" viewBox="0 0 285.23 285.17"><defs><style>.cls-1{fill:#fff;}.cls-2{fill:#1b1b1b;}</style></defs><g id="レイヤー_2" data-name="レイヤー 2"><g id="creator-hover"><circle class="cls-1" cx="142.71" cy="142.52" r="138.87"/><path class="cls-2" d="M226.14,27l-4,5.56a21.9,21.9,0,0,1,2.09,2c.35.34.74.64,1.11.94.75.46,1.17,0,2,.22l1.15-.39c.25-.46,1.68-1.21,1.25-1.79s.82-1.66.06-1.93c-.68-.47-1.05-2.35-1.75-2.85A18.21,18.21,0,0,1,226.14,27Z"/><path class="cls-2" d="M176.67,11.24,178.4,4.6a3.68,3.68,0,0,1,1.24.61,2.42,2.42,0,0,0,.75.28c.26.07.55.06.81.11a7.57,7.57,0,0,1,1.31.39,6.54,6.54,0,0,0,2.9.64,4,4,0,0,1,2.32.58,16,16,0,0,0,2.47,1.12,3.75,3.75,0,0,1,.66.4s0,0,0,0a3.75,3.75,0,0,0,.73.3c1.4.43,2.67,1.16,4.06,1.57a9.65,9.65,0,0,1,2.58,1.07c1.82.73,3.56,1.65,5.42,2.2a9.13,9.13,0,0,1,2.8,1.22A21.9,21.9,0,0,0,209,16.46,13.9,13.9,0,0,1,212,18.27a3.1,3.1,0,0,0,.89.5,19.2,19.2,0,0,1,3.64,1.79,15.55,15.55,0,0,1,3.24,2.08,2.63,2.63,0,0,0,.61.44c2,1.19,3.8,2.67,5.72,4l-4,5.56a12.17,12.17,0,0,1-2.54-1.86,3.54,3.54,0,0,0-.81-.47,2.08,2.08,0,0,1-1.09-1,.62.62,0,0,0-.37-.32,4.87,4.87,0,0,1-1.92-1,6.79,6.79,0,0,0-1.09-.52,4,4,0,0,1-.9-.37A60.73,60.73,0,0,1,208,23.77a5.87,5.87,0,0,0-1.06-.6c-1.38-.67-2.72-1.43-4.16-2a13.32,13.32,0,0,0-2.4-1.17c-.82-.34-1.66-.66-2.46-1a2.46,2.46,0,0,0-.92-.24,2.34,2.34,0,0,1-1.92-.92,1.24,1.24,0,0,0-.81-.48c-.16,0-.33,0-.48-.09-.4-.12-.79-.22-1.17-.35a5.63,5.63,0,0,0-1.13-.43,1.62,1.62,0,0,1-.62-.33,5.73,5.73,0,0,0-1.38-.84c-.16-.08-.34-.13-.52-.2s-.41-.11-.57-.18l-.36-.11L185,13.86c-.83-.23-1.61-.67-2.44-.85s-1.49-.46-2.25-.63S177.52,11.42,176.67,11.24Z"/><path class="cls-2" d="M126.59,7.84,125.76,1a3.5,3.5,0,0,1,1.39.15,2.68,2.68,0,0,0,.8,0c.27,0,.53-.13.8-.18a7.71,7.71,0,0,1,1.36-.08A6.51,6.51,0,0,0,133,.38a3.56,3.56,0,0,1,2.37-.3,15.77,15.77,0,0,0,2.71.21,3.88,3.88,0,0,1,.76.12l0,0a3.54,3.54,0,0,0,.8,0c1.46-.14,2.9,0,4.34,0a13.17,13.17,0,0,1,2.8.09c2,0,3.92.11,5.85.06a12,12,0,0,1,3.06.11,22,22,0,0,0,2.79.28,13.33,13.33,0,0,1,3.52.65,2.86,2.86,0,0,0,1,.13,17.18,17.18,0,0,1,4,.27,20.33,20.33,0,0,1,3.77.84,3.1,3.1,0,0,0,.73.17,34.26,34.26,0,0,1,3.4.71c1.11.33,2.23.67,3.36.91l-1.73,6.64a9.83,9.83,0,0,1-3-.88,3.06,3.06,0,0,0-.93-.15,2,2,0,0,1-1.37-.46.57.57,0,0,0-.45-.15,5,5,0,0,1-2.17-.17,8.13,8.13,0,0,0-1.19-.12,3.82,3.82,0,0,1-1-.05c-2.06-.47-4.19-.47-6.23-1.13a6.9,6.9,0,0,0-1.19-.21L158,7.77l-1.14-.08a22.39,22.39,0,0,0-2.32-.08,21.56,21.56,0,0,0-2.66-.25c-.89-.05-1.78-.08-2.66-.08a2.81,2.81,0,0,0-.94.13,2.35,2.35,0,0,1-2.13-.09,1.36,1.36,0,0,0-.93-.17,4,4,0,0,1-.48.07c-.41,0-.81.06-1.21.07a5.4,5.4,0,0,0-1.21,0,1.35,1.35,0,0,1-.69,0A5.12,5.12,0,0,0,140,7a5.32,5.32,0,0,0-.56,0c-.18,0-.41.06-.59.06l-.38,0c-1.09.09-2.17.12-3.26.18a20.28,20.28,0,0,0-2.58.14l-2.31.29C129.49,7.8,127.44,7.71,126.59,7.84Z"/><path class="cls-2" d="M78.68,22.92l-3.24-6.05a3.5,3.5,0,0,1,1.34-.36,2.54,2.54,0,0,0,.75-.29c.24-.12.45-.31.68-.45a8.22,8.22,0,0,1,1.24-.58A6.67,6.67,0,0,0,82,13.61a4,4,0,0,1,2.12-1.1,15.34,15.34,0,0,0,2.59-.82,3.06,3.06,0,0,1,.74-.17h0a3.39,3.39,0,0,0,.73-.3c1.32-.65,2.75-.93,4.05-1.57a13.13,13.13,0,0,1,2.63-1c1.82-.72,3.73-1.19,5.48-2a9.31,9.31,0,0,1,2.89-1,22,22,0,0,0,2.71-.7,13,13,0,0,1,3.5-.75,2.71,2.71,0,0,0,1-.24,19.58,19.58,0,0,1,3.89-1.14,16.31,16.31,0,0,1,3.79-.68,3.22,3.22,0,0,0,.75-.1c2.24-.46,4.61-.55,6.87-1l.83,6.81a9.86,9.86,0,0,1-3.13.39,3.67,3.67,0,0,0-.91.2,2.13,2.13,0,0,1-1.45,0,.54.54,0,0,0-.48,0,5.11,5.11,0,0,1-2.09.58,8.58,8.58,0,0,0-1.15.37,4.27,4.27,0,0,1-.9.34,56.94,56.94,0,0,1-6.23,1.16,5.94,5.94,0,0,0-1.18.27c-1.47.44-3,.78-4.43,1.34a48.36,48.36,0,0,0-5.06,1.68,2.49,2.49,0,0,0-.84.44,2.56,2.56,0,0,1-2,.66,1.32,1.32,0,0,0-.92.2,3.5,3.5,0,0,1-.42.24c-.37.19-.73.37-1.09.53a6.33,6.33,0,0,0-1.14.43,1.3,1.3,0,0,1-.68.17,5.11,5.11,0,0,0-1.59.32,5.23,5.23,0,0,0-.51.22c-.16.08-.36.21-.53.28l-.33.17c-1,.5-2,.93-3,1.39-.76.39-1.65.55-2.38,1l-2,1.12C81.36,21.82,79.42,22.49,78.68,22.92Z"/><path class="cls-2" d="M39.6,54.45,34.38,50a3.72,3.72,0,0,1,1.1-.85,2.7,2.7,0,0,0,.58-.54c.18-.21.3-.47.46-.69a7.87,7.87,0,0,1,.92-1,7,7,0,0,0,1.84-2.35,4.07,4.07,0,0,1,1.53-1.84A23.82,23.82,0,0,0,42.92,41a3.54,3.54,0,0,1,.64-.42h0a3.41,3.41,0,0,0,.59-.53c1-1.08,2.19-1.91,3.15-3a12.41,12.41,0,0,1,2.13-1.82c1.45-1.33,3-2.57,4.35-3.92a11.49,11.49,0,0,1,2.32-2c.8-.51,1.51-1.12,2.25-1.67a14.23,14.23,0,0,1,3-1.93,3,3,0,0,0,.83-.61,14.45,14.45,0,0,1,3.19-2.5,20.37,20.37,0,0,1,3.3-2,2.81,2.81,0,0,0,.64-.39c1.93-1.23,4.12-2.17,6.07-3.39l3.24,6.05A9.64,9.64,0,0,1,75.9,24.4a3.86,3.86,0,0,0-.79.52,2.11,2.11,0,0,1-1.34.55.6.6,0,0,0-.45.18A5.39,5.39,0,0,1,71.63,27a8,8,0,0,0-.95.74,3.93,3.93,0,0,1-.73.63c-.91.55-1.79,1.13-2.66,1.72a19.43,19.43,0,0,1-2.69,1.66,5.94,5.94,0,0,0-1,.66c-.61.47-1.26.89-1.86,1.36s-1.19,1-1.76,1.52a39.16,39.16,0,0,0-4.12,3.38,2.71,2.71,0,0,0-.6.73,2.36,2.36,0,0,1-1.64,1.36,1.36,1.36,0,0,0-.8.5,3.79,3.79,0,0,1-.31.37c-.29.3-.56.59-.83.89s-.65.47-.88.83a1.32,1.32,0,0,1-.56.42,5.58,5.58,0,0,0-1.35.9,4.67,4.67,0,0,0-.4.38c-.13.12-.27.32-.4.44l-.26.28c-.77.78-1.49,1.58-2.24,2.38-.56.64-1.29,1.15-1.83,1.83s-1.06,1.13-1.52,1.76S40.13,53.77,39.6,54.45Z"/><path class="cls-2" d="M14.62,98,8.14,95.75a3.4,3.4,0,0,1,.71-1.19,2.55,2.55,0,0,0,.33-.73c.09-.25.1-.54.17-.8a9.82,9.82,0,0,1,.54-1.25,6.57,6.57,0,0,0,.85-2.86,4.09,4.09,0,0,1,.73-2.27,17.14,17.14,0,0,0,1.39-2.34,3.39,3.39,0,0,1,.44-.63s0,0,0,0a3.89,3.89,0,0,0,.35-.71c.51-1.38,1.3-2.6,1.87-3.92a13.05,13.05,0,0,1,1.3-2.48c.8-1.8,1.89-3.43,2.63-5.22A12.29,12.29,0,0,1,20.9,68.6a24.81,24.81,0,0,0,1.54-2.34,13.56,13.56,0,0,1,2.07-2.92,4,4,0,0,0,.55-.87A19.22,19.22,0,0,1,27.14,59a14.77,14.77,0,0,1,2.35-3,3.29,3.29,0,0,0,.48-.58c1.33-1.86,2.94-3.6,4.41-5.37l5.22,4.45a12.21,12.21,0,0,1-2.09,2.36,3.42,3.42,0,0,0-.53.77,2.09,2.09,0,0,1-1,1,.55.55,0,0,0-.34.34,4.92,4.92,0,0,1-1.13,1.85,5.37,5.37,0,0,0-.61,1,4.1,4.1,0,0,1-.44.86c-.64.84-1.22,1.72-1.83,2.58-.3.44-.61.86-.94,1.27a14.94,14.94,0,0,1-1,1.24,5.57,5.57,0,0,0-.69,1,38.51,38.51,0,0,0-2.35,4c-1,1.47-1.73,3.12-2.61,4.65a2.28,2.28,0,0,0-.3.9,2.34,2.34,0,0,1-1,1.87,1.42,1.42,0,0,0-.56.77,3.5,3.5,0,0,1-.14.46c-.16.39-.3.76-.47,1.12A5.77,5.77,0,0,0,21,83.6a1.48,1.48,0,0,1-.36.6,5.54,5.54,0,0,0-.92,1.33c-.09.15-.14.32-.23.51s-.13.39-.21.56-.09.24-.14.35c-.38,1-.87,2-1.25,3-.28.81-.77,1.56-1,2.38l-.79,2.19C15.73,95.34,14.87,97.19,14.62,98Z"/><path class="cls-2" d="M7.16,147.65l-6.86.27a3.32,3.32,0,0,1,.25-1.37,2.59,2.59,0,0,0,.07-.79c0-.28-.09-.55-.11-.82a7.73,7.73,0,0,1,0-1.36,6.72,6.72,0,0,0-.32-3,4,4,0,0,1-.07-2.39,15.64,15.64,0,0,0,.4-2.68,3.38,3.38,0,0,1,.17-.75s0,0,0,0A3.57,3.57,0,0,0,.79,134c0-1.47.36-2.88.36-4.33a12.48,12.48,0,0,1,.27-2.78c.15-2,.56-3.89.56-5.83a9.64,9.64,0,0,1,.36-3,20.32,20.32,0,0,0,.56-2.75,12,12,0,0,1,.87-3.47,2.75,2.75,0,0,0,.22-1,19.61,19.61,0,0,1,.64-4,16,16,0,0,1,1.12-3.69,4.32,4.32,0,0,0,.23-.72A31.49,31.49,0,0,1,7,99c.41-1.09.83-2.18,1.16-3.28L14.62,98A9.72,9.72,0,0,1,13.51,101a3.12,3.12,0,0,0-.23.91,2,2,0,0,1-.57,1.32.57.57,0,0,0-.19.45,4.93,4.93,0,0,1-.36,2.14A8.23,8.23,0,0,0,12,107a4.36,4.36,0,0,1-.14,1A45.22,45.22,0,0,1,10.16,114a5.32,5.32,0,0,0-.27,1.18c-.24,1.52-.59,3-.72,4.57a46.54,46.54,0,0,0-.72,5.28,2.93,2.93,0,0,0,0,.94,2.49,2.49,0,0,1-.29,2.11A1.38,1.38,0,0,0,8,129a4,4,0,0,1,0,.49c0,.42,0,.82,0,1.21a6.89,6.89,0,0,0-.11,1.21,1.4,1.4,0,0,1-.14.69,4.79,4.79,0,0,0-.4,1.56,3.41,3.41,0,0,0,0,.56c0,.18,0,.42,0,.6s0,.26,0,.38c0,1.1,0,2.17,0,3.26a22.44,22.44,0,0,0-.11,2.59l.11,2.33C7.34,144.76,7.07,146.8,7.16,147.65Z"/><path class="cls-2" d="M18.35,196.61l-6.29,2.73a3.59,3.59,0,0,1-.29-1.35,2.61,2.61,0,0,0-.25-.76c-.1-.25-.3-.46-.41-.71a7,7,0,0,1-.44-1.29,6.69,6.69,0,0,0-1.32-2.67,4,4,0,0,1-1-2.17,17.17,17.17,0,0,0-.57-2.66,3.86,3.86,0,0,1-.1-.76s0,0,0-.05a3.54,3.54,0,0,0-.23-.76c-.52-1.37-.82-2.78-1.28-4.15a12.93,12.93,0,0,1-.71-2.7c-.29-.94-.54-1.89-.81-2.83s-.47-1.89-.81-2.8a12.37,12.37,0,0,1-.78-3c-.11-.94-.33-1.85-.5-2.76a14.13,14.13,0,0,1-.42-3.55,3,3,0,0,0-.19-1,14.73,14.73,0,0,1-.85-4,21.51,21.51,0,0,1-.35-3.84,2.72,2.72,0,0,0-.06-.75c-.28-2.27-.15-4.65-.4-6.94l6.86-.27a9.76,9.76,0,0,1,.11,3.15,3.48,3.48,0,0,0,.12.93,2.13,2.13,0,0,1-.09,1.45.57.57,0,0,0,0,.48,5.51,5.51,0,0,1,.48,2.12A6.58,6.58,0,0,0,8,157a3.94,3.94,0,0,1,.24.94c.1,1.05.24,2.09.38,3.14a18.28,18.28,0,0,1,.32,3.15,6.07,6.07,0,0,0,.16,1.2l.39,2.27c.17.75.36,1.5.6,2.24a51.61,51.61,0,0,0,1.22,5.2,2.84,2.84,0,0,0,.4.86,2.37,2.37,0,0,1,.52,2.06,1.38,1.38,0,0,0,.1.94,4.28,4.28,0,0,1,.2.44c.15.39.29.77.42,1.15a4.15,4.15,0,0,0,.34,1.16,1.3,1.3,0,0,1,.14.68,5.72,5.72,0,0,0,.22,1.6,4.15,4.15,0,0,0,.18.53c.05.17.16.39.22.56l.13.35c.42,1,.69,2.06,1.12,3.07.35.78.49,1.66.87,2.43l.9,2.15C17.37,193.89,18,195.84,18.35,196.61Z"/><path class="cls-2" d="M46.52,238.17,41.66,243a3.64,3.64,0,0,1-.74-1.18,2.63,2.63,0,0,0-.48-.63c-.19-.2-.44-.34-.64-.52a7.3,7.3,0,0,1-.9-1,7.08,7.08,0,0,0-2.24-2A4.07,4.07,0,0,1,35,236a16.07,16.07,0,0,0-1.53-2.24,2.7,2.7,0,0,1-.38-.66s0,0,0,0a4.31,4.31,0,0,0-.49-.62c-1-1.09-1.69-2.37-2.67-3.43a11.29,11.29,0,0,1-1.69-2.23C27,225.2,26,223.53,24.65,222.1a10,10,0,0,1-1.77-2.49,23.18,23.18,0,0,0-1.47-2.39c-.34-.49-.68-1-1-1.49a10.67,10.67,0,0,1-.72-1.66,2.84,2.84,0,0,0-.52-.88,20.41,20.41,0,0,1-2.27-3.36,20.2,20.2,0,0,1-1.66-3.48,3.26,3.26,0,0,0-.32-.68c-1.17-2-1.86-4.26-2.88-6.33l6.29-2.73a9.67,9.67,0,0,1,1.2,2.92,3.42,3.42,0,0,0,.43.83,2.1,2.1,0,0,1,.48,1.36.57.57,0,0,0,.16.46,5,5,0,0,1,1.2,1.8,8,8,0,0,0,.64,1,3.86,3.86,0,0,1,.55.79,54.25,54.25,0,0,1,2.93,5.61,5.54,5.54,0,0,0,.58,1.07c.85,1.27,1.62,2.6,2.59,3.82a36.41,36.41,0,0,0,3,4.38,3,3,0,0,0,.67.67A2.32,2.32,0,0,1,34,223.1a1.33,1.33,0,0,0,.47.82,2.73,2.73,0,0,1,.35.33c.29.3.57.59.83.89a6.65,6.65,0,0,0,.74,1,1.29,1.29,0,0,1,.37.59,5.6,5.6,0,0,0,.76,1.43,3.55,3.55,0,0,0,.35.44c.12.14.3.29.42.43l.26.27c.76.79,1.46,1.6,2.19,2.42.6.62,1,1.42,1.66,2l1.66,1.63C44.69,235.92,45.9,237.57,46.52,238.17Z"/><path class="cls-2" d="M87.94,266.58l-2.78,6.27A3.8,3.8,0,0,1,84,272a2.36,2.36,0,0,0-.69-.4,6.46,6.46,0,0,0-.78-.25,6.91,6.91,0,0,1-1.22-.6,7.37,7.37,0,0,0-2.78-1.08,4,4,0,0,1-2.19-.95,20.19,20.19,0,0,0-2.25-1.52,3,3,0,0,1-.58-.5s0,0,0,0a3.42,3.42,0,0,0-.68-.41c-1.31-.64-2.45-1.55-3.76-2.17a11.74,11.74,0,0,1-2.35-1.51c-.85-.5-1.67-1-2.49-1.56-.42-.26-.83-.51-1.26-.75s-.83-.5-1.25-.73a11.66,11.66,0,0,1-2.57-1.66c-.72-.62-1.5-1.14-2.25-1.67a14.7,14.7,0,0,1-2.71-2.34,3,3,0,0,0-.82-.62,9.65,9.65,0,0,1-1.74-1c-.53-.42-1-.86-1.57-1.29a20.65,20.65,0,0,1-2.86-2.59,3.33,3.33,0,0,0-.55-.51c-1.74-1.49-3.27-3.31-5-4.83l4.86-4.84a9.79,9.79,0,0,1,2.22,2.23,3.7,3.7,0,0,0,.72.61,2.05,2.05,0,0,1,.91,1.12.65.65,0,0,0,.31.38,5.49,5.49,0,0,1,1.78,1.24,9.15,9.15,0,0,0,1,.69,3.81,3.81,0,0,1,.82.52c.78.71,1.58,1.39,2.4,2A17.53,17.53,0,0,1,59,249.12a7,7,0,0,0,.93.78,30.44,30.44,0,0,0,3.79,2.63,36.88,36.88,0,0,0,4.43,3,2.43,2.43,0,0,0,.87.37,2.38,2.38,0,0,1,1.77,1.19,1.31,1.31,0,0,0,.71.62c.14.07.31.11.44.19.37.2.74.35,1.09.54a6.35,6.35,0,0,0,1,.6,1.46,1.46,0,0,1,.57.42,5.4,5.4,0,0,0,1.24,1,4.33,4.33,0,0,0,.48.28c.15.09.38.17.54.26l.33.17,2.93,1.45c.78.36,1.47.92,2.27,1.24s1.4.68,2.13.95S87.14,266.26,87.94,266.58Z"/><path class="cls-2" d="M136.82,278l-.3,6.85a3.43,3.43,0,0,1-1.34-.33,2.6,2.6,0,0,0-.79-.11c-.27,0-.55.06-.82.06a7.64,7.64,0,0,1-1.35-.15,6.52,6.52,0,0,0-3,0,4.09,4.09,0,0,1-2.4-.05,18.2,18.2,0,0,0-2.64-.66,2.77,2.77,0,0,1-.72-.24l0,0a3.18,3.18,0,0,0-.79-.13c-1.46-.11-2.86-.49-4.29-.67a13.16,13.16,0,0,1-2.74-.54c-1-.15-1.94-.32-2.9-.52a25.32,25.32,0,0,0-2.87-.5,12.45,12.45,0,0,1-3-.58c-.9-.28-1.79-.59-2.69-.79a14.61,14.61,0,0,1-3.39-1.16,3.15,3.15,0,0,0-1-.27,18.23,18.23,0,0,1-3.92-1,15.54,15.54,0,0,1-3.6-1.37,3.52,3.52,0,0,0-.69-.3c-1.08-.36-2.15-.83-3.22-1.3l-1.6-.69c-.52-.25-1-.49-1.59-.7l2.78-6.27a12.91,12.91,0,0,1,2.86,1.31,3.19,3.19,0,0,0,.89.29,2.12,2.12,0,0,1,1.27.7.59.59,0,0,0,.42.24,4.89,4.89,0,0,1,2.09.55,6.4,6.4,0,0,0,1.17.28,4.2,4.2,0,0,1,1,.18c2,.73,4,1.28,6,2.15a6,6,0,0,0,1.15.38,33.81,33.81,0,0,0,4.49,1.1c1.69.55,3.48.77,5.2,1.19a2.77,2.77,0,0,0,1,0,2.34,2.34,0,0,1,2.08.43,1.34,1.34,0,0,0,.89.31,3.81,3.81,0,0,1,.48,0c.42,0,.82.07,1.21.13a4.64,4.64,0,0,0,1.19.21,1.49,1.49,0,0,1,.68.17,5.18,5.18,0,0,0,1.53.5c.18,0,.36,0,.56.08s.42,0,.59,0l.38,0c1.1.07,2.15.27,3.25.33.85,0,1.71.29,2.57.29l2.32.13C133.94,277.72,136,278,136.82,278Z"/><path class="cls-2" d="M186.52,270.86l2.21,6.49a3.72,3.72,0,0,1-1.38.16,2.66,2.66,0,0,0-.78.17c-.26.08-.49.24-.75.34a7.22,7.22,0,0,1-1.3.39,7.7,7.7,0,0,0-2.77,1.1,4,4,0,0,1-2.26.77,15.6,15.6,0,0,0-2.68.42,2.73,2.73,0,0,1-.76.05l-.05,0a4,4,0,0,0-.78.15c-1.4.41-2.86.5-4.24.92a10.08,10.08,0,0,1-2.75.53c-1.92.39-3.87.59-5.73,1.16a10.51,10.51,0,0,1-3,.51,21.43,21.43,0,0,0-2.79.27c-.59.09-1.18.18-1.77.23a9.87,9.87,0,0,1-1.8-.08,2.74,2.74,0,0,0-1,.09,19.28,19.28,0,0,1-4,.56,18.45,18.45,0,0,1-3.86,0,3.76,3.76,0,0,0-.75,0,26.8,26.8,0,0,1-3.47,0c-1.16-.08-2.32-.16-3.48-.16l.3-6.85a9.84,9.84,0,0,1,3.14.2,2.93,2.93,0,0,0,.94,0,2.07,2.07,0,0,1,1.43.16.58.58,0,0,0,.48.06,4.93,4.93,0,0,1,2.15-.29,6.57,6.57,0,0,0,1.19-.13,4,4,0,0,1,.95-.15,53.42,53.42,0,0,1,6.33-.19,5,5,0,0,0,1.22,0c1.51-.21,3-.33,4.57-.66a36.33,36.33,0,0,0,5.27-.83,2.68,2.68,0,0,0,.89-.31,2.37,2.37,0,0,1,2.11-.3,1.23,1.23,0,0,0,.94,0,2.82,2.82,0,0,1,.45-.18c.4-.13.78-.25,1.17-.36a6.38,6.38,0,0,0,1.18-.25,1.38,1.38,0,0,1,.7-.07,5.86,5.86,0,0,0,1.62-.06c.18,0,.35-.08.54-.12s.4-.13.58-.17l.36-.12c1-.34,2.08-.62,3.13-.92.82-.26,1.71-.32,2.52-.62s1.47-.49,2.2-.76S185.72,271.16,186.52,270.86Z"/><path class="cls-2" d="M230.22,246.15l4.42,5.23a3.63,3.63,0,0,1-1.2.68,2.58,2.58,0,0,0-.66.45c-.21.17-.38.4-.58.58a7.9,7.9,0,0,1-1.09.81,6.41,6.41,0,0,0-2.17,2,3.72,3.72,0,0,1-1.81,1.57,16.54,16.54,0,0,0-2.38,1.32,3.73,3.73,0,0,1-.7.32h0a3.61,3.61,0,0,0-.66.44,19.8,19.8,0,0,1-1.79,1.25,16.61,16.61,0,0,0-1.83,1.16,12.76,12.76,0,0,1-2.37,1.48c-1.6,1.16-3.4,2-4.94,3.15a11.93,11.93,0,0,1-2.59,1.62,22.62,22.62,0,0,0-2.52,1.23,14.77,14.77,0,0,1-3.27,1.46,3.45,3.45,0,0,0-.92.46,19.64,19.64,0,0,1-3.56,1.92,15.54,15.54,0,0,1-3.58,1.42,4.37,4.37,0,0,0-.72.25c-1,.47-2.14.85-3.24,1.23l-3.29,1.13-2.21-6.49a6.68,6.68,0,0,1,1.46-.56c.44-.14.9-.24,1.54-.41a4.15,4.15,0,0,0,.85-.39,2.09,2.09,0,0,1,1.41-.35.57.57,0,0,0,.47-.11,4.89,4.89,0,0,1,1.91-1,5.63,5.63,0,0,0,1.05-.58,3.73,3.73,0,0,1,.82-.51c1-.4,1.93-.86,2.89-1.29s1.94-.83,3-1.17a6.08,6.08,0,0,0,1.1-.5,45.49,45.49,0,0,0,4.05-2.22c1.61-.75,3.07-1.81,4.61-2.68a2.42,2.42,0,0,0,.73-.6,2.32,2.32,0,0,1,1.82-1.1A1.42,1.42,0,0,0,215,257c.12-.1.23-.23.36-.32.33-.26.65-.5,1-.73a5.5,5.5,0,0,0,1-.65A1.62,1.62,0,0,1,218,255a5.28,5.28,0,0,0,1.46-.69,3.86,3.86,0,0,0,.46-.32c.14-.1.31-.27.46-.37l.3-.24c.86-.68,1.74-1.29,2.62-1.94.66-.55,1.45-.95,2.08-1.54l1.78-1.5c.34-.28,1-.67,1.56-1.08S229.9,246.44,230.22,246.15Z"/><path class="cls-2" d="M261.92,207.2l6,3.28c-.15.44-.58.7-.91,1.05a2.52,2.52,0,0,0-.47.64c-.13.24-.2.51-.32.76a7.67,7.67,0,0,1-.71,1.16,6.67,6.67,0,0,0-1.25,2.71,4,4,0,0,1-1.16,2.09,16.11,16.11,0,0,0-1.71,2.11,3.36,3.36,0,0,1-.52.55s0,0,0,0a3.44,3.44,0,0,0-.45.65c-.76,1.25-1.78,2.3-2.51,3.54a12,12,0,0,1-1.66,2.26c-1.15,1.59-2.45,3.06-3.44,4.73a10.16,10.16,0,0,1-1.87,2.42,22.91,22.91,0,0,0-1.87,2.09c-.37.47-.74.94-1.15,1.37a10.33,10.33,0,0,1-1.38,1.16,3,3,0,0,0-.69.76,19.64,19.64,0,0,1-2.56,3.14,21.85,21.85,0,0,1-2.85,2.59,3,3,0,0,0-.56.51c-1.55,1.7-3.56,3-5.23,4.58l-4.42-5.23a9.69,9.69,0,0,1,2.43-2,3.46,3.46,0,0,0,.67-.65,2.24,2.24,0,0,1,1.18-.84.6.6,0,0,0,.39-.29,4.85,4.85,0,0,1,1.38-1.67,8.18,8.18,0,0,0,.78-.91,4.1,4.1,0,0,1,.6-.76,59.1,59.1,0,0,1,4.53-4.42,5.38,5.38,0,0,0,.86-.86c1-1.19,2-2.31,2.92-3.58a37,37,0,0,0,3.31-4.18,2.6,2.6,0,0,0,.45-.83,2.39,2.39,0,0,1,1.34-1.65,1.41,1.41,0,0,0,.66-.68,3.55,3.55,0,0,1,.21-.44c.21-.36.41-.71.62-1a6.51,6.51,0,0,0,.7-1,1.46,1.46,0,0,1,.47-.52,5.45,5.45,0,0,0,1.16-1.14,4.1,4.1,0,0,0,.31-.46c.09-.15.19-.38.29-.53l.18-.33c.55-.95,1.13-1.86,1.7-2.79a23.63,23.63,0,0,0,1.42-2.16l1.1-2.06C260.29,209.6,261.55,208,261.92,207.2Z"/><path class="cls-2" d="M277.3,159.4l6.8.86a3.67,3.67,0,0,1-.46,1.31,2.8,2.8,0,0,0-.19.77c0,.27,0,.55,0,.82a6.71,6.71,0,0,1-.23,1.34,7.61,7.61,0,0,0-.23,3,4.1,4.1,0,0,1-.28,2.38,18.39,18.39,0,0,0-.81,2.59,3.33,3.33,0,0,1-.31.7l0,0a3.64,3.64,0,0,0-.2.77c-.25,1.44-.8,2.79-1,4.22a10.29,10.29,0,0,1-.76,2.69c-.5,1.9-1.09,3.77-1.48,5.67a12.21,12.21,0,0,1-.86,2.93,23.17,23.17,0,0,0-1,2.64,14.44,14.44,0,0,1-1.47,3.26,2.77,2.77,0,0,0-.36,1,11,11,0,0,1-.5,2c-.23.64-.53,1.25-.79,1.88a20.51,20.51,0,0,1-1.67,3.47,3.29,3.29,0,0,0-.33.68c-.9,2.1-2.24,4.07-3.2,6.17l-6-3.28a10.07,10.07,0,0,1,1.51-2.76,3.1,3.1,0,0,0,.38-.86,2.14,2.14,0,0,1,.82-1.2.55.55,0,0,0,.27-.39,5.2,5.2,0,0,1,.67-2.07,8.08,8.08,0,0,0,.39-1.14,3.69,3.69,0,0,1,.27-.93c1-1.88,1.52-3.92,2.62-5.76a5.73,5.73,0,0,0,.48-1.11,33.14,33.14,0,0,0,1.44-4.39,36.16,36.16,0,0,0,1.59-5.09,2.84,2.84,0,0,0,.11-.94,2.34,2.34,0,0,1,.63-2,1.41,1.41,0,0,0,.4-.86,2.52,2.52,0,0,1,.06-.48c.06-.42.11-.81.18-1.2a5.8,5.8,0,0,0,.28-1.18,1.55,1.55,0,0,1,.24-.66,5.56,5.56,0,0,0,.65-1.48c.06-.17.08-.35.13-.55s.06-.41.1-.59l.07-.37.54-3.22c.12-.85.46-1.67.54-2.53s.24-1.53.29-2.31S277.22,160.26,277.3,159.4Z"/><path class="cls-2" d="M274.2,109.28l6.65-1.68a3.41,3.41,0,0,1,.06,1.39,3,3,0,0,0,.09.79c.06.27.2.52.27.78a7.43,7.43,0,0,1,.25,1.33,6.7,6.7,0,0,0,.9,2.85,3.62,3.62,0,0,1,.61,2.31,17.26,17.26,0,0,0,.14,2.71,2.84,2.84,0,0,1,0,.77s0,0,0,0a4.07,4.07,0,0,0,.11.79,15.76,15.76,0,0,1,.34,2.15,17.26,17.26,0,0,0,.25,2.15,13.52,13.52,0,0,1,.29,2.78c.34,1.94.29,3.91.68,5.82a12.09,12.09,0,0,1,.32,3,26.15,26.15,0,0,0,0,2.8,13.86,13.86,0,0,1-.12,3.58,3.26,3.26,0,0,0,0,1,18.76,18.76,0,0,1,.16,4,16,16,0,0,1-.27,3.85,2.66,2.66,0,0,0-.09.75c0,1.14-.18,2.29-.32,3.45l-.42,3.46-6.8-.86a13,13,0,0,1,.43-3.12,3.73,3.73,0,0,0,0-.94,2,2,0,0,1,.3-1.41.56.56,0,0,0,.1-.47,4.92,4.92,0,0,1-.07-2.16,7,7,0,0,0-.06-1.21,3.93,3.93,0,0,1-.11-1c.07-1,.07-2.1.11-3.16,0-.52.05-1.05.09-1.57s.07-1.06.14-1.59a6.1,6.1,0,0,0,0-1.21,37.56,37.56,0,0,0-.23-4.61c0-1.78-.28-3.55-.39-5.32a2.27,2.27,0,0,0-.23-.92,2.33,2.33,0,0,1-.19-2.11,1.41,1.41,0,0,0,0-.95,3.47,3.47,0,0,1-.13-.46c-.09-.41-.17-.8-.24-1.2a5.51,5.51,0,0,0-.13-1.2,1.38,1.38,0,0,1,0-.7,5.79,5.79,0,0,0,0-1.61c0-.18-.06-.36-.09-.55s-.11-.41-.14-.59-.06-.25-.08-.37c-.24-1.07-.41-2.13-.61-3.2-.17-.84-.21-1.73-.46-2.55l-.57-2.26C274.64,112.15,274.48,110.1,274.2,109.28Z"/><path class="cls-2" d="M275,104.54c-.44.4-.94.75-.88,1.44l-.14.78c-.25.88.18,1.65.21,2.53l6.65-1.68c-.17-.84.27.26-.15-1.17-.25-.78-.32-.57-.89-1.15-.43-.38-.47-.22-1-.54s-.13-.5-.83-.48c-.49-.25-.26-.25-.83-.11-.31.09-.45,0-1.05.11C275.23,104.62,275.46,104.34,275,104.54Z"/><path class="cls-2" d="M264.65,73.6a8.33,8.33,0,0,0-1.89,1.72,4.8,4.8,0,0,1-1.18,1.2,3.37,3.37,0,0,0-.85,1c-.24.43-.47.84-.76,1.27a5.17,5.17,0,0,0-.86,2.94,4.69,4.69,0,0,1-.11,1.45c0,.12-.07.27-.09.39A5.11,5.11,0,0,0,259,86a2.91,2.91,0,0,0,.84,1.58,5.09,5.09,0,0,1,.56.58,4,4,0,0,0,1.45,1.4,2.12,2.12,0,0,1,.61.54,5.09,5.09,0,0,0,2.11,1.28,4.41,4.41,0,0,0,1.83.45,1.49,1.49,0,0,1,1.15.39,2.66,2.66,0,0,0,.53.34.57.57,0,0,0,.4.09l1.46-.23a2,2,0,0,1,.63-.07,1.65,1.65,0,0,0,1.38-.39,1.92,1.92,0,0,1,.91-.51,3.16,3.16,0,0,0,1.29-.72,9,9,0,0,1,.78-.74,1.6,1.6,0,0,0,.51-.67,4.74,4.74,0,0,1,1-1.42A2.53,2.53,0,0,0,277,87c.21-.38.42-.77.6-1.17a3.41,3.41,0,0,0,.19-.62,9.75,9.75,0,0,1,.3-1.54,1.78,1.78,0,0,0,0-.69,12.79,12.79,0,0,0-.83-3.11,17.1,17.1,0,0,0-.81-2,5.4,5.4,0,0,0-1.47-1.9,1.65,1.65,0,0,0-.54-.36,17.58,17.58,0,0,1-2.85-1.34,24.37,24.37,0,0,0-2.84-1.08c-.72-.11-1.42-.23-2.13-.31a.83.83,0,0,0-.23,0A5.24,5.24,0,0,0,264.65,73.6Z"/><path d="M73.82,89c-.1.12-.15.19-.21.19s-.08,0-.13-.11c-.54-.63-1.09-1.22-1.67-1.78a11.31,11.31,0,0,1-4.2,4.15,1,1,0,0,1-.4.18c-.11,0-.19-.1-.36-.35a3.86,3.86,0,0,0-1-1A9.29,9.29,0,0,0,70.44,86,21.51,21.51,0,0,0,68,84.26c-.14-.1-.14-.14,0-.33l.75-.9c.1-.13.15-.13.29,0,.69.43,1.39.87,2.07,1.36a12.84,12.84,0,0,0,.46-2.75l-2.3,0c-1.56,0-2.16,0-2.33,0s-.18,0-.18-.21V80.08c0-.19,0-.21.18-.21s.77,0,2.33,0l2.37,0c0-.43,0-.87,0-1.34a16.5,16.5,0,0,0-.13-2.25c.66,0,1.39.09,1.95.14.26,0,.32.13.32.24a.83.83,0,0,1-.13.42,4.26,4.26,0,0,0-.15,1.46c0,.45,0,.87,0,1.31l2,0c1.67,0,2.28,0,2.38,0s.17,0,.17.18c0,.53,0,1.41,0,2l-.09,6.81c0,.5,0,.63.16.73a1.51,1.51,0,0,0,.85.14c.47,0,.66-.05.81-.26s.32-.73.34-2.61a4.23,4.23,0,0,0,1.09.52c.49.16.47.19.46.73-.09,1.59-.26,2.23-.73,2.72a3.18,3.18,0,0,1-2.25.62,3.56,3.56,0,0,1-2-.36c-.39-.26-.61-.65-.59-1.58l.13-7.94-2.8,0a15.22,15.22,0,0,1-.75,4,24.7,24.7,0,0,1,2.11,2c.06.07.1.1.1.15a.43.43,0,0,1-.12.22Z"/><path d="M83.46,80.84c.12-.17.19-.15.32-.07A11.06,11.06,0,0,1,86,82.44c.07.07.11.1.11.15a.48.48,0,0,1-.11.22l-.71,1c-.08.11-.14.17-.19.17a.24.24,0,0,1-.15-.09,12.22,12.22,0,0,0-2.16-1.78c-.07-.06-.1-.09-.1-.14s0-.1.1-.2Zm5.25,11c-.19,0-.2,0-.2-.17,0-.33.08-2.21.12-4.64a13,13,0,0,1-2,3c-.15.17-.23.27-.32.27s-.17-.12-.31-.34a3.23,3.23,0,0,0-.68-.76c-.17.49-.35,1-.54,1.44a2.25,2.25,0,0,0-.22.66c0,.16-.07.26-.19.26a.62.62,0,0,1-.29-.1,10,10,0,0,1-1.25-.87,7.26,7.26,0,0,0,.71-1.36,24.63,24.63,0,0,0,1.27-3.91,5,5,0,0,0,.89.78c.47.33.47.33.34.84-.21.71-.41,1.41-.65,2.07a12.31,12.31,0,0,0,2.76-3.57l-1.31,0c-.19,0-.21,0-.21-.18s0-.46,0-1.36V82.3c0-.86,0-1.24,0-1.34s0-.19.21-.19.47,0,1.61,0h.14V79.57h-.27c-1.21,0-1.6,0-1.7,0s-.17,0-.17-.19v-.8l-.77,1c-.15.2-.19.22-.32.09a9.65,9.65,0,0,0-2.08-1.82.26.26,0,0,1-.1-.14s0-.1.1-.19l.74-.88c.13-.17.18-.19.34-.1a13.66,13.66,0,0,1,2.09,1.7v-.07c0-.15,0-.17.17-.17s.49,0,1.7,0h.27V78a9.31,9.31,0,0,0-.1-1.68c.52,0,1.05,0,1.49.1.17,0,.24.07.24.13a.61.61,0,0,1-.09.31A3.34,3.34,0,0,0,90,78v.15h.27c1.21,0,1.6,0,1.7,0a.21.21,0,0,1,.17.05v-1c0-.17,0-.18.19-.18s.53,0,1.78,0h2.26c1.28,0,1.7,0,1.81,0s.17,0,.17.18v1.16c0,.17,0,.19-.17.19s-.53,0-1.81,0h-.34a8.81,8.81,0,0,1-.51,1.3h.51c1.09,0,1.47,0,1.57,0s.19,0,.19.19,0,.68,0,2v4.42c0,1.29,0,1.89,0,2s0,.17-.19.17-.48,0-1.57,0H94.46c-1.11,0-1.45,0-1.57,0s-.18,0-.18-.17,0-.7,0-2V81.86c0-1.29,0-1.87,0-2s0-.19.18-.19.39,0,1.18,0a9.89,9.89,0,0,0,.42-1.3h-.36c-1.25,0-1.68,0-1.78,0s-.14,0-.17,0v1c0,.17,0,.19-.19.19s-.49,0-1.7,0H90v1.24h.15c1.16,0,1.52,0,1.62,0s.18,0,.18.19,0,.48,0,1.34V84c0,.9,0,1.26,0,1.36s0,.18-.18.18-.44,0-1.48,0a8.15,8.15,0,0,0,2,2.4,3.82,3.82,0,0,0-.65,1c-.1.23-.17.37-.25.37s-.17-.08-.31-.27A10.13,10.13,0,0,1,90,86.89c0,2.52.09,4.45.09,4.78,0,.15,0,.17-.19.17Zm-.1-7.6V82.08h-.72v2.16Zm2.09-2.16H90v2.16h.73Zm2.41,7.07a3.18,3.18,0,0,0,.38-.64,8,8,0,0,1,1.17.61c.15.08.19.15.19.22s0,.15-.14.24a2,2,0,0,0-.36.39,9,9,0,0,1-1.64,1.63c-.21.14-.33.22-.43.22s-.2-.1-.41-.32a3.73,3.73,0,0,0-.76-.66A7,7,0,0,0,93.11,89.15ZM94.22,81v1.16h2V81Zm2,3.57V83.44h-2v1.14Zm0,1.27h-2v1.23h2Zm0,2.78a.35.35,0,0,1,.21-.09s.08,0,.13.14a8.16,8.16,0,0,0,2.09,2,3.52,3.52,0,0,0-.8.76c-.17.22-.25.32-.35.32s-.23-.08-.43-.25a11.49,11.49,0,0,1-1.75-2.09c-.1-.15,0-.17.15-.31Z"/><path d="M122,82.78a11.6,11.6,0,0,0,2.38,2.92,5.36,5.36,0,0,0-.68,1.23c-.08.22-.13.32-.2.32s-.15-.1-.31-.29a9.85,9.85,0,0,1-1.54-2.5c0,4.13.08,6.94.08,7.24s0,.17-.17.17h-1.46c-.19,0-.2,0-.2-.17s.08-3,.12-6.83A14.89,14.89,0,0,1,117.8,89c-.14.17-.22.25-.31.25s-.13-.08-.2-.27a5.39,5.39,0,0,0-.66-1.36,15.15,15.15,0,0,0,3-4.79h-.46c-1.39,0-1.87,0-2,0s-.19,0-.19-.18V81.4c0-.17,0-.19.19-.19s.58,0,2,0h.8v-2c-.54.13-1.12.25-1.72.36s-.49.08-.69-.43a3.14,3.14,0,0,0-.55-.93,21.84,21.84,0,0,0,5-1.28,4.28,4.28,0,0,0,.87-.46,7.94,7.94,0,0,1,1.14,1,.45.45,0,0,1,.15.3c0,.12-.12.21-.28.23a2.36,2.36,0,0,0-.74.22c-.45.17-1,.34-1.51.49v2.5h.36c1.41,0,1.87,0,2,0s.2,0,.2.19v1.23c0,.17,0,.18-.2.18s-.56,0-2,0Zm3,8.46c-.15,0-.17,0-.17-.18s0-1,0-5.63V82.27c0-3.18,0-4.12,0-4.23s0-.19.17-.19.58,0,1.92,0h2.55c1.34,0,1.8,0,1.92,0s.19,0,.19.19,0,1,0,3.72v3.6c0,4.51,0,5.41,0,5.51s0,.19-.19.19H130c-.17,0-.19,0-.19-.19v-1h-3.21v1.19c0,.17,0,.18-.19.18Zm1.58-3h3.21V79.53h-3.21Z"/><path d="M73.08,108.33c0,.89,0,1.66,0,2.7,0,.17-.05.22-.2.22a9.4,9.4,0,0,1-1.3,0c-.14,0-.19,0-.18-.2,0-.94,0-1.79,0-2.67v-3a22.72,22.72,0,0,1-3.57,2.5.37.37,0,0,1-.2.05.36.36,0,0,1-.27-.13,4.94,4.94,0,0,0-1.12-.77,21.09,21.09,0,0,0,4.1-2.66,21.63,21.63,0,0,0,2.77-2.72,3.82,3.82,0,0,0,.82-1.34,13.52,13.52,0,0,1,1.44.91.22.22,0,0,1,.1.2.34.34,0,0,1-.18.28,4.14,4.14,0,0,0-.78.72A18.38,18.38,0,0,1,73.08,104Z"/><path d="M82.47,105.05c-.65,0-1.3,0-2,0-.12,0-.17-.07-.2-.24a9.91,9.91,0,0,1-.14-1.32,22.32,22.32,0,0,0,2.39.11H87a1.53,1.53,0,0,0,.69-.14.24.24,0,0,1,.17-.08.33.33,0,0,1,.19.09,6.93,6.93,0,0,1,.87.8.42.42,0,0,1,.13.28.31.31,0,0,1-.14.24,1.5,1.5,0,0,0-.44.61,11.37,11.37,0,0,1-5.31,5.75.63.63,0,0,1-.25.09.41.41,0,0,1-.29-.15,3.71,3.71,0,0,0-1.21-.68A10.17,10.17,0,0,0,86.9,105Zm.87-2.79c-.59,0-1.24,0-1.78,0-.13,0-.17-.08-.19-.29s-.06-.84-.06-1.25a17.3,17.3,0,0,0,2.13.1h2.34c.85,0,1.54,0,2-.07.12,0,.16.07.16.21a8.51,8.51,0,0,1,0,1c0,.22,0,.28-.23.26l-1.84,0Z"/><path d="M99.17,101.72a2,2,0,0,0,.9-.11.22.22,0,0,1,.14-.06c.08,0,.14.06.22.11a4.65,4.65,0,0,1,.85.91.32.32,0,0,1,.06.17.35.35,0,0,1-.17.26,2.53,2.53,0,0,0-.48.57A20.35,20.35,0,0,1,99,106a30.4,30.4,0,0,1,3.6,3.15.3.3,0,0,1,.1.18.27.27,0,0,1-.09.19,6.6,6.6,0,0,1-.87.89.22.22,0,0,1-.15.08c-.07,0-.12,0-.19-.11a23.58,23.58,0,0,0-3.38-3.22,18.85,18.85,0,0,1-4.36,3.43.88.88,0,0,1-.3.1.26.26,0,0,1-.22-.11,3.76,3.76,0,0,0-1.1-.85,16.07,16.07,0,0,0,7-6.58l-3.35,0c-.68,0-1.35,0-2,.07-.11,0-.15-.07-.17-.22a7,7,0,0,1-.12-1.35c.7,0,1.35,0,2.2,0Z"/><path d="M110.17,104.08a18.21,18.21,0,0,1,4.13,1.76c.15.08.21.17.15.34a7.93,7.93,0,0,1-.56,1.13c0,.09-.11.15-.17.15a.21.21,0,0,1-.14-.07,14.58,14.58,0,0,0-3.42-1.66v2.87c0,.85,0,1.61,0,2.55,0,.15,0,.19-.23.19a7.49,7.49,0,0,1-1.16,0c-.18,0-.25,0-.25-.19,0-1,.05-1.73.05-2.56v-6.4a10,10,0,0,0-.13-1.92,9.17,9.17,0,0,1,1.63.21c.18,0,.24.11.24.22a.65.65,0,0,1-.1.3,3.37,3.37,0,0,0-.09,1.22Z"/><path d="M121.51,108.48a21.58,21.58,0,0,0,3.31-1.63,16.37,16.37,0,0,0,3.45-2.66,6.07,6.07,0,0,0,.2,1.51.41.41,0,0,1-.13.52,20.75,20.75,0,0,1-3.25,2.24,29.43,29.43,0,0,1-3.18,1.61,2.65,2.65,0,0,0-.73.42.42.42,0,0,1-.23.1.34.34,0,0,1-.22-.1,4.3,4.3,0,0,1-.8-.89.32.32,0,0,1-.08-.21.55.55,0,0,1,.07-.22,2.63,2.63,0,0,0,0-.74l0-4.89a11.68,11.68,0,0,0-.15-2.26,12.71,12.71,0,0,1,1.69.29c.13,0,.21.11.21.24a.94.94,0,0,1-.06.28,5.29,5.29,0,0,0-.15,1.61Z"/><path d="M133.87,106.74a10.09,10.09,0,0,0-1.91.16c-.16,0-.26-.08-.3-.27a14.92,14.92,0,0,1-.2-1.58,16.72,16.72,0,0,0,2.81.16h4.19c1,0,2,0,3,0,.19,0,.23,0,.23.18a8.28,8.28,0,0,1,0,1.22c0,.16-.05.21-.23.2l-2.9,0Z"/><path d="M152,102.11a1.3,1.3,0,0,0,.72-.19.33.33,0,0,1,.22-.09.48.48,0,0,1,.23.1,4.39,4.39,0,0,1,.89.79.32.32,0,0,1,.1.24.36.36,0,0,1-.14.25,1.49,1.49,0,0,0-.39.49,21,21,0,0,1-1.91,3.15,11.16,11.16,0,0,1,1.4,1.31.23.23,0,0,1,0,.35,7,7,0,0,1-.81.82.24.24,0,0,1-.15.06.21.21,0,0,1-.14-.07,15.2,15.2,0,0,0-1.27-1.27,15.63,15.63,0,0,1-4.14,3.25.67.67,0,0,1-.33.12.37.37,0,0,1-.24-.12,3.92,3.92,0,0,0-1.24-.66,15.62,15.62,0,0,0,4.78-3.52,10.27,10.27,0,0,0-1.87-1.22c.29-.31.56-.65.86-.93a.24.24,0,0,1,.17-.09.43.43,0,0,1,.13.05,14.49,14.49,0,0,1,1.68,1,12.79,12.79,0,0,0,1.52-2.57l-3.23.07a15.55,15.55,0,0,1-2.78,2.92.44.44,0,0,1-.26.12.35.35,0,0,1-.21-.09,4.9,4.9,0,0,0-1.09-.6,14.44,14.44,0,0,0,3.68-4.08,4.68,4.68,0,0,0,.7-1.6,7.74,7.74,0,0,1,1.52.63.23.23,0,0,1,.15.21.35.35,0,0,1-.16.26.89.89,0,0,0-.27.28c-.11.18-.18.31-.41.65Z"/><path d="M159.87,106.74a10.09,10.09,0,0,0-1.91.16c-.16,0-.26-.08-.3-.27a14.92,14.92,0,0,1-.2-1.58,16.72,16.72,0,0,0,2.81.16h4.19c1,0,2,0,3,0,.19,0,.23,0,.23.18a8.28,8.28,0,0,1,0,1.22c0,.16-.05.21-.23.2l-2.9,0Z"/><path d="M169.46,112h-.82l5.3-12.37h.81Z"/><path d="M181.67,105.51a7.42,7.42,0,0,1-.77,3.31,6.43,6.43,0,0,1-2.29,2.46.77.77,0,0,1-.38.15.35.35,0,0,1-.28-.13,3.55,3.55,0,0,0-1.16-.68,5.72,5.72,0,0,0,2.59-2.32,5.51,5.51,0,0,0,.66-2.79h-2.47c-.65,0-1.28,0-1.95.08-.11,0-.15-.08-.16-.25a7.36,7.36,0,0,1-.11-1.25c.73.06,1.46.06,2.21.06h5.84c1,0,1.77,0,2.53-.07.13,0,.15.07.15.26s0,.83,0,1-.08.22-.2.22c-.67,0-1.57,0-2.47,0Zm-2.57-3c-.6,0-1.12,0-1.85.05-.17,0-.21-.06-.22-.22s-.05-.78-.09-1.25c.91.06,1.57.07,2.16.07h2.39c.73,0,1.55,0,2.2,0,.12,0,.15.07.15.24a5,5,0,0,1,0,1c0,.18,0,.25-.17.25-.7,0-1.47,0-2.18,0Zm5.59-2.26c.06,0,.11,0,.18,0a5.89,5.89,0,0,1,1.1,1.51.13.13,0,0,1-.06.2l-.59.36c-.09,0-.15,0-.2-.07a6.66,6.66,0,0,0-1.17-1.63Zm1.23-.73c.08,0,.12,0,.18,0a5.6,5.6,0,0,1,1.11,1.46c0,.07,0,.15-.07.23l-.54.35a.14.14,0,0,1-.22-.06,6.43,6.43,0,0,0-1.16-1.62Z"/><path d="M197.1,103.58c.64,0,1.37,0,2,0,.16,0,.17.07.19.21a8.85,8.85,0,0,1,0,1c0,.17,0,.22-.22.21l-1.88,0h-.53a7.76,7.76,0,0,1-1,4,6.11,6.11,0,0,1-3.07,2.42,1.19,1.19,0,0,1-.36.11.36.36,0,0,1-.25-.14,3.12,3.12,0,0,0-1.08-.78,5.64,5.64,0,0,0,3.51-2.3,6.24,6.24,0,0,0,.77-3.32h-2.77v.47c0,.77,0,1.47,0,2.16,0,.14-.08.17-.22.18a7,7,0,0,1-1.12,0c-.17,0-.25,0-.24-.18,0-.68.07-1.31.07-2.13V105h-.39c-.7,0-1.74,0-2.15.07-.1,0-.14-.08-.15-.25a10.73,10.73,0,0,1-.09-1.26c.54,0,1.39.07,2.39.07h.39v-.95a9,9,0,0,0-.16-1.91,13.52,13.52,0,0,1,1.59.2c.14,0,.19.09.19.19a.89.89,0,0,1-.07.27,3.27,3.27,0,0,0-.09,1.25v.95h2.79v-1.28a8.31,8.31,0,0,0-.11-1.78,12,12,0,0,1,1.52.22c.18,0,.23.11.23.21a.63.63,0,0,1-.05.23,3.69,3.69,0,0,0-.1,1.15v1.23Zm.65-3.14a.13.13,0,0,1,.18,0,6.06,6.06,0,0,1,1,1.57c0,.09,0,.14-.07.2l-.54.27a.14.14,0,0,1-.22-.08,6.17,6.17,0,0,0-1-1.69Zm1.22-.56c.08,0,.12,0,.19.05a5.7,5.7,0,0,1,1,1.52.14.14,0,0,1-.08.22l-.52.26c-.12,0-.17,0-.21-.06a6.36,6.36,0,0,0-1-1.69Z"/><path d="M208.28,108.33c0,.89,0,1.66,0,2.7,0,.17,0,.22-.2.22a9.26,9.26,0,0,1-1.29,0c-.15,0-.2,0-.19-.2,0-.94.05-1.79.05-2.67v-3a22.72,22.72,0,0,1-3.57,2.5.35.35,0,0,1-.2.05.36.36,0,0,1-.27-.13,4.94,4.94,0,0,0-1.12-.77,21.09,21.09,0,0,0,4.1-2.66,21.63,21.63,0,0,0,2.77-2.72,3.82,3.82,0,0,0,.82-1.34,13.52,13.52,0,0,1,1.44.91.22.22,0,0,1,.1.2.34.34,0,0,1-.18.28,4.14,4.14,0,0,0-.78.72,18.38,18.38,0,0,1-1.52,1.63Z"/><path d="M222.58,103.7c.73,0,1.59,0,2.26,0,.19,0,.24,0,.25.24a5.68,5.68,0,0,1,0,1c0,.21-.05.25-.25.25-.46,0-1.45,0-2.18,0h-1.85a6.84,6.84,0,0,1-.88,3.55,7.29,7.29,0,0,1-2.77,2.56.58.58,0,0,1-.3.09.42.42,0,0,1-.29-.13,3.57,3.57,0,0,0-1.09-.72,6.54,6.54,0,0,0,3-2.35,5.58,5.58,0,0,0,.8-3h-2.51c-.64,0-1.38,0-1.87.06-.17,0-.21-.05-.24-.25s-.06-.8-.09-1.28c.85.06,1.57.06,2.21.06h2.56c0-.65,0-1.35,0-1.92a5.42,5.42,0,0,0-.16-1.31,8.75,8.75,0,0,1,1.73.18c.15,0,.2.09.2.18a.85.85,0,0,1-.09.29,2.12,2.12,0,0,0-.11.79c0,.61,0,1,0,1.78Z"/><path d="M230.07,106.74a10.09,10.09,0,0,0-1.91.16c-.16,0-.26-.08-.3-.27a14.92,14.92,0,0,1-.2-1.58,16.72,16.72,0,0,0,2.81.16h4.19c1,0,2,0,3,0,.19,0,.23,0,.23.18a8.28,8.28,0,0,1,0,1.22c0,.16,0,.21-.23.2l-2.9,0Z"/><path d="M76.19,125.6a.61.61,0,0,0,.22,0,.32.32,0,0,1,.17-.06s.15.07.44.33.31.32.31.44a.29.29,0,0,1-.09.22c-.08.09-.1.24-.17.59a11.68,11.68,0,0,1-.88,2.7,5.84,5.84,0,0,0,1.52,1.44,5.14,5.14,0,0,0-.46.78c-.09.21-.14.3-.22.3s-.13-.06-.26-.17a8.74,8.74,0,0,1-1.17-1.28,7.38,7.38,0,0,1-1,1.24c-.11.12-.18.17-.24.17s-.13-.09-.24-.26a3,3,0,0,0-.45-.58c0,.65,0,1,0,1s0,.15-.15.15h-.87c-.13,0-.14,0-.14-.15s0-.49,0-1.32c-.67.23-1.32.44-2,.62a1.76,1.76,0,0,0-.43.17A.33.33,0,0,1,70,132c-.07,0-.12-.08-.16-.18a6.06,6.06,0,0,1-.26-1c.35,0,.65-.11,1-.17v-6.22c-.39,0-.57,0-.61,0h-.09v.84c0,.12,0,.13-.14.13s-.32,0-1,0v1.34h0c.94,0,1.24,0,1.31,0s.16,0,.16.14v.94c0,.12,0,.13-.16.13l-1.13,0v1.29h1c.13,0,.14,0,.14.13v.87c0,.14,0,.15-.14.15s-.25,0-.64,0h-.35v2.1a8.37,8.37,0,0,0,3.76.61,48.62,48.62,0,0,0,5.11-.29,3.7,3.7,0,0,0-.38,1c-.07.41-.07.41-.48.44-1.39.09-2.73.14-4.21.14a8.25,8.25,0,0,1-4-.71,4.65,4.65,0,0,1-1.59-1.41,10.12,10.12,0,0,1-.52,2c-.06.17-.12.24-.17.24s-.13-.06-.25-.17a3,3,0,0,0-.74-.54,11.16,11.16,0,0,0,.82-4.39c0-.21,0-.46,0-.76a7.9,7.9,0,0,1,1,.18c.14,0,.19.08.19.16a.49.49,0,0,1-.06.22,1.19,1.19,0,0,0-.07.47c0,.43,0,.84-.07,1.27a4,4,0,0,0,.56.76v-3.66h-.67c-.93,0-1.25,0-1.32,0s-.13,0-.13-.13v-.94c0-.13,0-.14.13-.14s.39,0,1.32,0h.37V125.4h-.21c-.83,0-1.09,0-1.17,0s-.16,0-.16-.13v-.92c0-.13,0-.14.16-.14s.34,0,1.17,0h.21v-.15a8.88,8.88,0,0,0-.09-1.47,10.33,10.33,0,0,1,1.2.09c.13,0,.21,0,.21.13a.69.69,0,0,1-.06.25,2.81,2.81,0,0,0-.08,1v.18c.71,0,1,0,1,0h.09v-.79c0-.13,0-.15.14-.15s.51,0,1.77,0h3.86c1.25,0,1.68,0,1.76,0s.14,0,.14.15v.85c0,.13,0,.15-.14.15s-.51,0-1.76,0H73.68v1.18Zm-4.51-1.18v1.24h.89v-1.24Zm.89,3.47v-1.23h-.89v1.23Zm0,1h-.89v1.47c.28-.08.58-.17.89-.28Zm1.11,2.38a6.18,6.18,0,0,0,1.3-1.45,10.18,10.18,0,0,1-1-3.17h-.28ZM75,126.67a8.93,8.93,0,0,0,.6,2,8.7,8.7,0,0,0,.53-2Z"/><path d="M82.64,128.14c0,2.37,0,2.82,0,2.9s0,.14-.15.14h-.94c-.13,0-.14,0-.14-.14v-.68h-1.1v1.25c0,.13,0,.14-.13.14h-1c-.12,0-.13,0-.13-.14s0-.57,0-3.17v-2c0-1.85,0-2.36,0-2.43s0-.15.13-.15.34,0,1.13,0h1c.81,0,1.06,0,1.14,0s.15,0,.15.15,0,.55,0,2Zm-2.31-3v4h1.1v-4Zm4.59,3.77c-1.23,0-1.66,0-1.74,0s-.13,0-.13-.15v-1c0-.13,0-.14.13-.14s.51,0,1.74,0h.87v-1.63h-.65c-1.15,0-1.56,0-1.63,0s-.15,0-.15-.15v-1c0-.13,0-.15.15-.15s.48,0,1.63,0h.65v-.3a12.73,12.73,0,0,0-.09-1.9c.49,0,.9,0,1.34.09.13,0,.22.07.22.13a.66.66,0,0,1-.09.29,5.3,5.3,0,0,0-.07,1.37v.32h1c1.15,0,1.54,0,1.62,0s.14,0,.14.15v1c0,.14,0,.15-.14.15s-.47,0-1.62,0h-1v1.63h1.41c1.24,0,1.67,0,1.74,0s.15,0,.15.14v1c0,.14,0,.15-.15.15s-.5,0-1.74,0h-1a9.88,9.88,0,0,0,3.33,3.22,4,4,0,0,0-.53,1c-.09.21-.14.3-.22.3s-.14-.06-.27-.17A11.37,11.37,0,0,1,87,130c0,2.1.09,4.16.09,4.43s0,.13-.15.13H85.9c-.13,0-.14,0-.14-.13s0-2.24.07-4.25a11.18,11.18,0,0,1-3.21,3.33c-.15.1-.23.15-.31.15s-.16-.07-.29-.28a2.75,2.75,0,0,0-.65-.74,9.84,9.84,0,0,0,4-3.68Z"/><path d="M98.7,125.84A1.1,1.1,0,0,1,97.59,127a1.09,1.09,0,0,1-1.11-1.12,1.1,1.1,0,0,1,1.11-1.11A1.11,1.11,0,0,1,98.7,125.84Zm0,5.5a1.1,1.1,0,0,1-1.11,1.12,1.12,1.12,0,0,1,0-2.23A1.11,1.11,0,0,1,98.7,131.34Z"/><path d="M105.2,126.18c.09-.12.15-.13.26-.07a11.52,11.52,0,0,1,1.88,1.33c.07.09.07.13,0,.26l-.6.78c-.07.09-.11.13-.15.13s-.06,0-.11-.07a9.5,9.5,0,0,0-1.84-1.43c-.06,0-.09-.06-.09-.1s0-.08.08-.14Zm0,6.5a16.83,16.83,0,0,0,1.12-3.16,5.09,5.09,0,0,0,.71.61c.31.21.33.23.23.62a22.48,22.48,0,0,1-1,3,1.46,1.46,0,0,0-.17.52c0,.09,0,.21-.13.21a.53.53,0,0,1-.28-.11,8.39,8.39,0,0,1-1-.67A7.46,7.46,0,0,0,105.18,132.68Zm.58-9.75c.11-.13.15-.13.26-.07a10.37,10.37,0,0,1,1.78,1.34c.09.08.11.12,0,.27l-.57.77c-.11.13-.13.14-.25.05a8.89,8.89,0,0,0-1.79-1.47c-.12-.06-.12-.09,0-.23Zm1.63,5.9c0-.13,0-.14.14-.14s.4,0,1.26,0c.08-.54.13-1.09.18-1.64a8,8,0,0,0,0-.87,8.1,8.1,0,0,1-.61.78c-.12.15-.19.21-.26.21s-.14-.08-.26-.22a2.85,2.85,0,0,0-.67-.61,7.91,7.91,0,0,0,1.91-2.84,3.39,3.39,0,0,0,.23-1,12.14,12.14,0,0,1,1.24.22c.16,0,.23.1.23.19a.29.29,0,0,1-.12.22,1.06,1.06,0,0,0-.3.45,2.83,2.83,0,0,1-.17.4h6c.13,0,.15,0,.15.13v.93c0,.14,0,.16-.15.16s-.51,0-1.7,0h-4.84c-.15.27-.32.53-.5.79.09,0,.48,0,1.63,0h2.85c1.16,0,1.56,0,1.64,0s.16,0,.16.16c0,.36-.06.77-.07,1.11l-.06,1.45c.75,0,1,0,1.1,0s.16,0,.16.14v.91c0,.13,0,.14-.16.14l-1.18,0c0,.57-.09,1.13-.15,1.67.61,0,.88,0,.94,0s.16,0,.16.14v.87c0,.13,0,.14-.16.14l-1,0,0,.28c-.14,1.07-.61,1.58-1.71,1.58a5.59,5.59,0,0,1-.69,0c-.21,0-.21,0-.32-.41a2.84,2.84,0,0,0-.39-.85c.38,0,.91.05,1.23.05s.59-.1.65-.63h-4.36c0,.24-.1.48-.17.73s0,.2-.19.2a3.13,3.13,0,0,1-.51-.07c-.68-.12-.69-.12-.61-.34a6.78,6.78,0,0,0,.31-1c.17-.73.33-1.49.46-2.27l-1.11,0c-.13,0-.14,0-.14-.14Zm3.64,2.7c.09-.56.15-1.11.22-1.67h-1.39c-.08.54-.17,1.1-.28,1.67Zm-.87-4.4c0,.53-.09,1.05-.16,1.58h1.37c0-.52.07-1.05.1-1.58Zm2.31,2.73c-.06.56-.13,1.11-.21,1.67h1.59c.06-.53.1-1.09.14-1.67Zm.22-2.73-.12,1.58h1.5c0-.54.05-1.09.07-1.58Z"/><path d="M120.5,127.63c.06-.06.08-.09.12-.09s.08,0,.13.08a12.06,12.06,0,0,1,1.15,1.12,12.77,12.77,0,0,0,.89-2.82H121a12.85,12.85,0,0,1-2.21,3.26c-.12.13-.2.2-.26.2s-.13-.08-.22-.27a2.78,2.78,0,0,0-.65-.79,10.36,10.36,0,0,0,2.73-4.6,4,4,0,0,0,.16-1,9.86,9.86,0,0,1,1.33.29c.13,0,.2.1.2.18a.3.3,0,0,1-.09.22,1.78,1.78,0,0,0-.27.66c-.07.24-.14.46-.22.67h1.34a.71.71,0,0,0,.39-.08.33.33,0,0,1,.18,0c.1,0,.24,0,.58.35s.37.38.37.45,0,.13-.13.22l-.07.13a9.27,9.27,0,0,0,1.3,1.67v-2.76a11.83,11.83,0,0,0-.11-2,13,13,0,0,1,1.43.1c.12,0,.2,0,.2.13a.77.77,0,0,1-.07.26,5.38,5.38,0,0,0-.09,1.44v3.94a14.39,14.39,0,0,0,3.06,1.56,4.15,4.15,0,0,0-.58,1c-.09.23-.13.33-.23.33a.85.85,0,0,1-.3-.11,15.7,15.7,0,0,1-2-1.09v1.87c0,1.46,0,2.2,0,2.26s0,.15-.15.15h-1.13c-.13,0-.14,0-.14-.15s0-.8,0-2.26v-2.95a10.59,10.59,0,0,1-1.63-1.92,11.57,11.57,0,0,1-4.72,6.83c-.15.12-.25.19-.31.19s-.14-.1-.29-.26a2.75,2.75,0,0,0-.75-.69,10.27,10.27,0,0,0,3.55-3.41,16.57,16.57,0,0,0-1.29-1.33c0-.05-.08-.07-.08-.11a.33.33,0,0,1,.08-.16Z"/><path d="M135.88,126.83a18.49,18.49,0,0,1,4.14,1.76c.14.08.21.17.14.34a7.93,7.93,0,0,1-.56,1.13c0,.09-.1.15-.17.15a.21.21,0,0,1-.14-.07,14.58,14.58,0,0,0-3.42-1.66v2.87c0,.85,0,1.61,0,2.55,0,.15,0,.19-.23.19a7.49,7.49,0,0,1-1.16,0c-.18,0-.25,0-.25-.19,0-1,.06-1.73.06-2.56v-6.4a10,10,0,0,0-.13-1.92,9.17,9.17,0,0,1,1.62.21c.18,0,.25.11.25.22a.8.8,0,0,1-.1.3,3,3,0,0,0-.1,1.22Zm3-3.2c.07,0,.12,0,.2,0a6.15,6.15,0,0,1,1.23,1.4.13.13,0,0,1,0,.2l-.54.41a.14.14,0,0,1-.22,0,6.46,6.46,0,0,0-1.32-1.51Zm1.16-.85c.08,0,.12,0,.2,0a5.35,5.35,0,0,1,1.23,1.34.15.15,0,0,1,0,.23l-.52.41a.14.14,0,0,1-.22,0,6.16,6.16,0,0,0-1.3-1.5Z"/><path d="M147.47,127.8c-.65,0-1.3,0-1.95,0-.12,0-.17-.07-.2-.24a9.91,9.91,0,0,1-.14-1.32,22.32,22.32,0,0,0,2.39.11H152a1.53,1.53,0,0,0,.69-.14.24.24,0,0,1,.17-.08.33.33,0,0,1,.19.09,6.93,6.93,0,0,1,.87.8.42.42,0,0,1,.13.28.31.31,0,0,1-.14.24,1.5,1.5,0,0,0-.44.61,11.37,11.37,0,0,1-5.31,5.75.63.63,0,0,1-.25.09.41.41,0,0,1-.29-.15,3.71,3.71,0,0,0-1.21-.68,10.17,10.17,0,0,0,5.46-5.42Zm.87-2.79c-.59,0-1.24,0-1.78,0-.13,0-.17-.08-.19-.29s-.06-.84-.06-1.25a17.3,17.3,0,0,0,2.13.1h2.34c.85,0,1.54,0,2-.07.12,0,.16.07.16.21a8.51,8.51,0,0,1,0,1c0,.22,0,.28-.23.26l-1.84,0Z"/><path d="M165.47,125.28a2.33,2.33,0,0,0,1.08-.12.38.38,0,0,1,.18-.06.32.32,0,0,1,.22.1,5.85,5.85,0,0,1,.94,1,.53.53,0,0,1,.1.29.33.33,0,0,1-.16.27,3.55,3.55,0,0,0-.63.5,47.79,47.79,0,0,1-3.5,3.48,13.17,13.17,0,0,1,1.15,1.3.32.32,0,0,1,.09.19.31.31,0,0,1-.12.21,10.37,10.37,0,0,1-.84.77.35.35,0,0,1-.17.06.22.22,0,0,1-.16-.11,19.49,19.49,0,0,0-4.17-4l.93-.87a.29.29,0,0,1,.15-.06c.05,0,.1,0,.18.09a20.91,20.91,0,0,1,1.85,1.45,28.93,28.93,0,0,0,3-3.06l-5.47,0c-.76,0-1.72,0-2.42.09-.17,0-.21-.07-.24-.23a12.57,12.57,0,0,1-.15-1.39c.88.09,1.93.09,2.83.09Z"/><path d="M170.4,131.25c.09-.09.15-.11.19-.11a.3.3,0,0,1,.17.08,9.82,9.82,0,0,1,2.59,2.38c.08.1.09.14.09.2s0,.11-.13.2l-.79.68q-.14.12-.18.12c-.07,0-.12,0-.19-.13a9.85,9.85,0,0,0-2.45-2.49c-.08-.05-.12-.09-.12-.13s0-.08.09-.15Z"/><path d="M183.5,128.66c-1.93.51-3.17,1-4.27,1.36a1.66,1.66,0,0,1-.38.15.36.36,0,0,1-.26-.26,11.14,11.14,0,0,1-.43-1.07l.68-.21a6.14,6.14,0,0,0,1.24-.76,42.33,42.33,0,0,0,3.71-3.41c-.79.22-1.5.35-2.32.51l-.49.1a1.43,1.43,0,0,1-.36.13c-.12,0-.22-.11-.32-.28a8.87,8.87,0,0,1-.46-1.29,7.82,7.82,0,0,0,1.28,0c.87-.06,1.82-.22,3-.39a1.64,1.64,0,0,0,.69-.22A.45.45,0,0,1,185,123c.12,0,.2.07.35.2a3.59,3.59,0,0,1,.64.65.55.55,0,0,1,.16.36c0,.13-.08.22-.24.3a3.28,3.28,0,0,0-.53.39c-1.35,1.2-2.46,2.16-3.94,3.28l0,0a49.39,49.39,0,0,1,6.26-1.43c.17,0,.23.06.25.2a5.54,5.54,0,0,1,.14,1.06c0,.13-.06.17-.2.18a9.26,9.26,0,0,0-2.42.41c-1.51.52-2.23,1.45-2.23,2.38,0,1.25,1.37,1.63,3.25,1.63.13,0,.21.06.2.23,0,.33-.13.86-.17,1.09s-.1.29-.29.29a7.28,7.28,0,0,1-.85-.08c-2.45-.24-3.51-1.36-3.51-2.94a3,3,0,0,1,1.58-2.5Z"/><path d="M194,126.66a9.16,9.16,0,0,1,3-.65c1.74,0,2.74,1.18,2.74,3.09a5.07,5.07,0,0,1-1,3.11,7.38,7.38,0,0,1-2.51,2.07.82.82,0,0,1-.22.06.4.4,0,0,1-.31-.17,3.34,3.34,0,0,0-1.08-.69,7,7,0,0,0,2.86-2.17,3.85,3.85,0,0,0,.71-2.3c0-1.08-.45-1.64-1.21-1.64a4.39,4.39,0,0,0-2,.56,5.5,5.5,0,0,0-1.1.63.57.57,0,0,1-.29.13c-.17,0-.29-.17-.36-.29a8.35,8.35,0,0,1-.67-1.37A6.57,6.57,0,0,0,194,126.66Zm4.75-3a.18.18,0,0,1,.16.23,10.72,10.72,0,0,1-.28,1.15c0,.13-.08.19-.18.18a17.47,17.47,0,0,1-3.77-1c-.07,0-.13-.09-.09-.26a5.92,5.92,0,0,1,.39-1.23A16,16,0,0,0,198.73,123.67Z"/><path d="M207.94,123.49c.22.05.31.11.31.24a1.08,1.08,0,0,1-.13.43,8.87,8.87,0,0,0-.18,1.59c-.14,2.26-.19,3.46-.19,5s.15,1.65,1.19,1.65a6.83,6.83,0,0,0,4.55-2.39,4.81,4.81,0,0,0,.3,1.23.85.85,0,0,1,.11.32c0,.11-.06.22-.26.4a7.43,7.43,0,0,1-4.93,2c-1.66,0-2.44-.66-2.44-2.65,0-2.19.11-4.06.18-5.62a9.09,9.09,0,0,0-.13-2.38A12.89,12.89,0,0,1,207.94,123.49Zm3.94.85c.07,0,.12,0,.2,0a5.88,5.88,0,0,1,1.23,1.39.14.14,0,0,1,0,.21l-.54.4a.13.13,0,0,1-.22,0,6.46,6.46,0,0,0-1.32-1.51Zm1.16-.84c.08,0,.12,0,.19,0a5.77,5.77,0,0,1,1.24,1.34.16.16,0,0,1,0,.24l-.52.4a.13.13,0,0,1-.22,0,6.12,6.12,0,0,0-1.3-1.49Z"/><path d="M70.11,160.76a19.59,19.59,0,0,1,4.46,1.91.26.26,0,0,1,.15.36,8.68,8.68,0,0,1-.6,1.22c-.06.1-.11.15-.18.15a.21.21,0,0,1-.16-.07,15.83,15.83,0,0,0-3.68-1.79v3.09c0,.92,0,1.74.05,2.75,0,.17-.05.21-.25.21a8.69,8.69,0,0,1-1.25,0c-.19,0-.26,0-.26-.21,0-1,0-1.86,0-2.76v-6.89a10.5,10.5,0,0,0-.14-2.07,10.49,10.49,0,0,1,1.76.22c.19,0,.26.13.26.24a.76.76,0,0,1-.11.32,3.58,3.58,0,0,0-.1,1.32Zm3.27-3.45c.07-.05.12,0,.21,0a6.88,6.88,0,0,1,1.33,1.5.15.15,0,0,1,0,.23l-.58.43a.15.15,0,0,1-.24,0,6.83,6.83,0,0,0-1.42-1.63Zm1.24-.91c.09-.05.13,0,.21,0a5.67,5.67,0,0,1,1.33,1.45.16.16,0,0,1,0,.25l-.56.43a.15.15,0,0,1-.24,0,6.47,6.47,0,0,0-1.4-1.61Z"/><path d="M82.58,161.81c-.7,0-1.4,0-2.1.06-.12,0-.18-.09-.21-.27a11.1,11.1,0,0,1-.15-1.41c.8.08,1.65.11,2.58.11h4.8a1.48,1.48,0,0,0,.74-.16.27.27,0,0,1,.4,0,7.19,7.19,0,0,1,.93.87.38.38,0,0,1,.14.29.36.36,0,0,1-.15.27,1.64,1.64,0,0,0-.48.66,12.27,12.27,0,0,1-5.71,6.19.75.75,0,0,1-.28.09.45.45,0,0,1-.31-.16,4.07,4.07,0,0,0-1.3-.73,11,11,0,0,0,5.88-5.84Zm.94-3c-.63,0-1.33,0-1.92.06-.14,0-.18-.09-.19-.31a12.84,12.84,0,0,1-.07-1.35,18,18,0,0,0,2.3.1h2.52c.91,0,1.65,0,2.2-.07.12,0,.16.07.16.22a6.73,6.73,0,0,1,0,1.1c0,.24,0,.29-.25.28-.46,0-1.12,0-2,0Z"/><path d="M100.48,165.34c0,1,0,1.79,0,2.91,0,.19-.06.24-.21.24a10.9,10.9,0,0,1-1.4,0c-.15,0-.21-.05-.2-.22,0-1,.06-1.92.06-2.87v-3.27a24,24,0,0,1-3.85,2.69.42.42,0,0,1-.21.06.4.4,0,0,1-.3-.14,5.44,5.44,0,0,0-1.2-.83A22.59,22.59,0,0,0,97.62,161a21.77,21.77,0,0,0,3-2.93,4.12,4.12,0,0,0,.89-1.44,12.75,12.75,0,0,1,1.55,1,.24.24,0,0,1,.11.21.4.4,0,0,1-.19.31,4.33,4.33,0,0,0-.84.77,23.3,23.3,0,0,1-1.64,1.76Z"/><path d="M110.39,159.37c-.8,0-1.65.06-2.48.12-.17,0-.22-.09-.25-.21a12.68,12.68,0,0,1-.25-1.52c1,.07,1.72.1,2.84.1h6a3.14,3.14,0,0,0,1-.08,1,1,0,0,1,.27-.1.46.46,0,0,1,.32.2,5.85,5.85,0,0,1,.84.88.39.39,0,0,1,.12.25.35.35,0,0,1-.2.29,1.84,1.84,0,0,0-.38.41,12.16,12.16,0,0,1-2.46,2.7.41.41,0,0,1-.3.13.54.54,0,0,1-.33-.14,3.29,3.29,0,0,0-1.17-.58,9.94,9.94,0,0,0,2.51-2.45Zm.78,5.47a6.42,6.42,0,0,0,.69-3.31,5.19,5.19,0,0,0-.14-1.32,15.21,15.21,0,0,1,1.81.27.25.25,0,0,1,.23.27.5.5,0,0,1-.07.25,1.29,1.29,0,0,0-.12.57,8.43,8.43,0,0,1-.83,3.85,7.11,7.11,0,0,1-2.55,2.79.64.64,0,0,1-.39.14.39.39,0,0,1-.28-.12,4,4,0,0,0-1.27-.72A6.21,6.21,0,0,0,111.17,164.84Z"/><path d="M128.48,165.34c0,1,0,1.79,0,2.91,0,.19-.06.24-.21.24a10.9,10.9,0,0,1-1.4,0c-.15,0-.21-.05-.2-.22,0-1,.06-1.92.06-2.87v-3.27a24,24,0,0,1-3.85,2.69.42.42,0,0,1-.21.06.4.4,0,0,1-.3-.14,5.44,5.44,0,0,0-1.2-.83,22.59,22.59,0,0,0,4.41-2.87,21.77,21.77,0,0,0,3-2.93,4.12,4.12,0,0,0,.89-1.44,12.75,12.75,0,0,1,1.55,1,.24.24,0,0,1,.11.21.4.4,0,0,1-.19.31,4.33,4.33,0,0,0-.84.77,23.3,23.3,0,0,1-1.64,1.76Z"/><path d="M140,157c.17,0,.25.11.25.22s-.1.4-.1.59,0,.62.07.94a21,21,0,0,0,.45,2.41l2-1.06a3.56,3.56,0,0,0,1-.76,7.26,7.26,0,0,1,1,1.32.59.59,0,0,1,.1.29c0,.14-.09.25-.28.28a6.94,6.94,0,0,0-1.35.42,19.79,19.79,0,0,0-3.29,1.64c-1.22.8-1.65,1.46-1.65,2.11,0,.83.61,1.18,2.22,1.18a24.18,24.18,0,0,0,4.28-.32c.15,0,.22,0,.25.17a12.94,12.94,0,0,1,.14,1.3c0,.15-.09.22-.25.24a29.77,29.77,0,0,1-4.18.21c-2.65,0-4-.87-4-2.69,0-1.56,1-2.58,2.67-3.62a20.54,20.54,0,0,1-.73-3.41,6.18,6.18,0,0,0-.37-1.63A7.89,7.89,0,0,1,140,157Z"/><path d="M151.35,161.74a16.94,16.94,0,0,1-.35,3.52,9.19,9.19,0,0,1-1.36,3.18c-.12.16-.18.26-.25.26s-.12-.08-.27-.25a3.48,3.48,0,0,0-.88-.78,7.15,7.15,0,0,0,1.42-3.09,20.6,20.6,0,0,0,.28-3.86c0-1.3,0-1.86,0-1.95s0-.15.15-.15.59,0,1.95,0h6.07c1.35,0,1.83,0,1.92,0s.16,0,.16.15,0,.3,0,.9v1.05c0,.6,0,.81,0,.89s0,.16-.16.16-.57,0-1.92,0Zm-.43-3.82c-1.28,0-1.72,0-1.81,0s-.15,0-.15-.15v-1c0-.15,0-.16.15-.16s.53,0,1.81,0h8.22c1.27,0,1.71,0,1.78,0s.17,0,.17.16v1c0,.14,0,.15-.17.15s-.51,0-1.78,0Zm7.8,1.86h-7.37v.84h7.37Zm1.18,6.11c0,.66,0,1.3,0,1.65a1.44,1.44,0,0,1-.37,1.08c-.23.22-.65.33-1.86.35-.43,0-.45,0-.56-.44a2.55,2.55,0,0,0-.32-.82c.52,0,.84,0,1.25,0s.46-.1.46-.45V167h-4.93v.42c0,1,0,1.46,0,1.54s0,.16-.16.16h-1.11c-.14,0-.15,0-.15-.16s0-.52,0-1.52v-3.24c0-1,0-1.46,0-1.56s0-.15.15-.15.57,0,1.87,0h3.67c1.31,0,1.78,0,1.86,0s.15,0,.15.15,0,.62,0,1.69Zm-6.29-2.34v.7h4.93v-.7Zm4.93,2.41v-.7h-4.93v.7Z"/><path d="M166.18,163.66c.12.07.14.14.07.25a2.33,2.33,0,0,0-.37,1.07c0,.88.91,1.31,3.32,1.31a18,18,0,0,0,3.8-.4c.2,0,.27,0,.29.12a12.39,12.39,0,0,1,.23,1.38c0,.12-.07.18-.24.21a21.73,21.73,0,0,1-4.17.33c-3.14,0-4.75-1-4.75-2.83a3.72,3.72,0,0,1,.74-2Zm3.16-5.49c1,0,2.08-.07,3-.13.14,0,.2.05.21.16a7.92,7.92,0,0,1,.07,1.19c0,.19-.07.28-.23.29a8.26,8.26,0,0,0-3.44,1.39.59.59,0,0,1-.35.12.55.55,0,0,1-.29-.08,3.3,3.3,0,0,0-1-.45c.73-.47,1.34-.87,1.83-1.16a9.94,9.94,0,0,1-1.14,0,17.61,17.61,0,0,1-2.46-.24c-.12,0-.18-.08-.18-.25,0-.34,0-.74.06-1.25A17.14,17.14,0,0,0,169.34,158.17Z"/><path d="M181.27,157.19c.18.07.27.15.27.28a.32.32,0,0,1-.1.22,1.54,1.54,0,0,0-.25.66c-.2,1-.31,2-.4,2.68,0,.5-.06,1,0,1.54.31-.55.61-1.08,1-1.8a2.85,2.85,0,0,0,.44.91.34.34,0,0,1,.08.23.63.63,0,0,1-.14.35,11,11,0,0,0-.82,1.79,1.32,1.32,0,0,0-.07.42.21.21,0,0,1-.19.23c-.16,0-.77.12-1.12.16-.1,0-.17-.08-.19-.18a8.77,8.77,0,0,1-.42-2.84,29.86,29.86,0,0,1,.33-3.49,12.31,12.31,0,0,0,.11-1.6A7.39,7.39,0,0,1,181.27,157.19Zm4.55-.24c.28.07.31.14.28.38s0,.45,0,.64c.09,1.33.19,2.61.19,3.62a9.22,9.22,0,0,1-1.06,4.86,7.75,7.75,0,0,1-2.31,2.25.5.5,0,0,1-.28.1.41.41,0,0,1-.3-.15,3.26,3.26,0,0,0-1.19-.65,6.89,6.89,0,0,0,2.38-1.87,6.72,6.72,0,0,0,1.18-4.47c0-1-.07-2.45-.17-3.35a7,7,0,0,0-.29-1.53A8.31,8.31,0,0,1,185.82,157Z"/><path d="M196,157c.17,0,.25.11.25.22s-.1.4-.1.59,0,.62.07.94a21,21,0,0,0,.45,2.41l2-1.06a3.56,3.56,0,0,0,1-.76,7.26,7.26,0,0,1,1,1.32.59.59,0,0,1,.1.29c0,.14-.09.25-.28.28a6.94,6.94,0,0,0-1.35.42,19.79,19.79,0,0,0-3.29,1.64c-1.22.8-1.65,1.46-1.65,2.11,0,.83.61,1.18,2.22,1.18a24.18,24.18,0,0,0,4.28-.32c.15,0,.22,0,.25.17a12.94,12.94,0,0,1,.14,1.3c0,.15-.09.22-.25.24a29.77,29.77,0,0,1-4.18.21c-2.65,0-4-.87-4-2.69,0-1.56,1-2.58,2.67-3.62a20.54,20.54,0,0,1-.73-3.41,6.18,6.18,0,0,0-.37-1.63A7.89,7.89,0,0,1,196,157Z"/><path d="M208.77,156.57h1.44c.13,0,.14,0,.14.14s0,.45,0,1.22v1.38c0,.77,0,1.14,0,1.22s0,.16-.14.16-.52,0-1.44,0H206.4v5.22c0,2,0,3,0,3.06s0,.14-.16.14H205.1c-.14,0-.16,0-.16-.14s0-1.07,0-3.06v-6.09c0-2,0-3,0-3.08s0-.14.16-.14h3.67Zm-2.37,1v.64H209v-.64Zm2.55,1.53H206.4v.61H209Zm2.06,8.11c0,.37,0,.37-.41.47-.92.23-2,.44-2.91.59a1.33,1.33,0,0,0-.42.11.34.34,0,0,1-.18.07c-.07,0-.12,0-.16-.18a5.18,5.18,0,0,1-.22-1c.39,0,.71-.05,1.13-.09s.73-.08,1.11-.14a8.86,8.86,0,0,0,.36-1.06,2.27,2.27,0,0,0,.12-.62c.33.07.81.18,1.07.27a.15.15,0,0,1,.12.14.21.21,0,0,1-.09.17,1,1,0,0,0-.17.26c-.07.18-.14.38-.25.62.32-.07.63-.16.95-.25C211,166.69,211,166.92,211,167.18Zm-1.51-5.93c.88,0,1.14,0,1.23,0s.15,0,.15.16v.74c0,.13,0,.14-.15.14s-.35,0-1.23,0h-1.25c-.88,0-1.15,0-1.23,0s-.16,0-.16-.14v-.74c0-.14,0-.16.16-.16s.35,0,1.23,0Zm-.12,1.53c.77,0,1,0,1.07,0s.17,0,.17.15,0,.27,0,.76v.62c0,.51,0,.67,0,.75s0,.16-.17.16-.3,0-1.07,0h-1c-.77,0-1,0-1.08,0s-.16,0-.16-.16,0-.24,0-.75v-.62c0-.49,0-.66,0-.76s0-.15.16-.15.31,0,1.08,0Zm-1.31,2.67c.18,0,.19,0,.26.1a5,5,0,0,1,.38.91c0,.14,0,.17-.15.24l-.63.24c-.21.08-.2.05-.26-.11a4.71,4.71,0,0,0-.39-1c-.07-.14-.05-.15.13-.21Zm1.47-1.86h-1.32v.76h1.32Zm2.1.43c.18-.09.19-.07.28.06a6.76,6.76,0,0,1,.74,1.5c.06.14.06.15-.12.26l-.57.34c-.15.08-.19.08-.23-.07a6.32,6.32,0,0,0-.72-1.55c-.08-.14-.07-.16.11-.26Zm5.17.44c0,1,0,2.1,0,2.79a1.59,1.59,0,0,1-.39,1.28c-.27.26-.7.38-1.94.38-.42,0-.42,0-.51-.43,0-.2-.09-.38-.14-.55a2.93,2.93,0,0,1-1.53.27c-.39,0-.39,0-.46-.37a2.47,2.47,0,0,0-.27-.78,7.32,7.32,0,0,0,1,0c.38,0,.43-.1.43-.45v-3.15h-.57c-.91,0-1.19,0-1.28,0s-.15-.06-.15-.2v-.78c0-.15,0-.16.15-.16s.37,0,1.28,0H213a10.15,10.15,0,0,0-.08-1.4c.39,0,.84.05,1.22.11q.21,0,.21.15a.67.67,0,0,1-.09.26,1.64,1.64,0,0,0-.07.7v.18c.48,0,.66,0,.73,0s.15,0,.15.16v.84c0,.14,0,.14-.15.14l-.73,0v.81c0,1.42,0,2,0,2.41a3.1,3.1,0,0,1-.07.82h.65c.47,0,.58-.11.58-.55v-6.34H213c-1.11,0-1.48,0-1.56,0s-.15,0-.15-.16,0-.38,0-1.13v-1.56c0-.75,0-1.05,0-1.13s0-.14.15-.14h5.21c.14,0,.16,0,.16.14s0,.66,0,1.89Zm-4.11-6.92v.64h2.68v-.64Zm2.68,2.14v-.61H212.7v.61Z"/><path d="M68.28,185.08a10.05,10.05,0,0,1,3.2-.7c1.88,0,3,1.27,3,3.33a5.52,5.52,0,0,1-1.13,3.35,7.91,7.91,0,0,1-2.71,2.23.69.69,0,0,1-.24.07.44.44,0,0,1-.33-.19,3.56,3.56,0,0,0-1.16-.74A7.61,7.61,0,0,0,72,190.09a4.12,4.12,0,0,0,.77-2.48c0-1.16-.49-1.76-1.31-1.76a4.67,4.67,0,0,0-2.19.6,7.79,7.79,0,0,0-1.2.67.46.46,0,0,1-.3.14c-.19,0-.31-.18-.4-.3a9.89,9.89,0,0,1-.71-1.48A7,7,0,0,0,68.28,185.08Zm5.11-3.22a.2.2,0,0,1,.18.25,9.62,9.62,0,0,1-.31,1.23c0,.14-.08.21-.19.2A18.29,18.29,0,0,1,69,182.46c-.07,0-.14-.1-.1-.28a6.6,6.6,0,0,1,.42-1.32A17.48,17.48,0,0,0,73.39,181.86Z"/><path d="M82.92,185.23c.17-.07.18,0,.25.09a13.57,13.57,0,0,1,.84,2.27c0-.05,0-.06.14-.06s.52,0,1.8,0H89.2c1.27,0,1.71,0,1.8,0s.16,0,.16.17v1c0,.14,0,.16-.16.16s-.53,0-1.8,0h-2a27.66,27.66,0,0,1-.94,2.65c.9-.1,1.77-.21,2.61-.35-.23-.38-.46-.73-.69-1.07-.08-.14,0-.18.11-.25l.73-.36c.18-.09.23-.06.31.05a20.44,20.44,0,0,1,1.85,3.08c.06.14,0,.21-.13.28l-.85.42c-.18.07-.24.09-.3-.05-.12-.31-.26-.63-.42-.95-1.62.29-3.1.5-4.76.68a1,1,0,0,0-.54.16.4.4,0,0,1-.21.07c-.07,0-.13-.05-.17-.23-.1-.38-.2-.89-.27-1.3.44,0,.87,0,1.22,0a22.48,22.48,0,0,0,1-2.79c-1.05,0-1.44,0-1.53,0s-.15,0-.15-.16v-.65l-.1,0-.7.23c-.17,0-.21,0-.24-.11a4.92,4.92,0,0,0-.14-.58l-.91.09v3.82c0,1.29,0,1.76,0,1.83s0,.16-.15.16H80.72c-.14,0-.15,0-.15-.16s0-.54,0-1.83v-3.71l-1.07.07A1.22,1.22,0,0,0,79,188a.48.48,0,0,1-.21.07c-.08,0-.12-.1-.15-.24-.07-.33-.14-.73-.2-1.18a7.9,7.9,0,0,0,1.07,0c.28-.35.56-.73.82-1.1a15.79,15.79,0,0,0-1.8-2c-.09-.07-.09-.14,0-.29l.46-.73c.06-.09.1-.13.14-.13s.07,0,.13.09l.36.36a8.87,8.87,0,0,0,.76-1.43,4.34,4.34,0,0,0,.32-.87,12.08,12.08,0,0,1,1.22.52c.13.07.18.14.18.23s-.05.12-.12.18a.77.77,0,0,0-.27.33,22.12,22.12,0,0,1-1.23,2l.59.66c.32-.5.63-1,.92-1.54a7.08,7.08,0,0,0,.42-.95,9.21,9.21,0,0,1,1.18.6c.12.07.17.12.17.21s0,.15-.16.21a1.66,1.66,0,0,0-.46.57c-.73,1.14-1.49,2.23-2.14,3.07l1.5-.1c-.1-.28-.22-.56-.34-.84s0-.17.15-.25ZM79,189.45a6.7,6.7,0,0,0,0-.79l1.09.17c.15,0,.2.09.2.17a.51.51,0,0,1-.09.22,2.17,2.17,0,0,0,0,.44,14.32,14.32,0,0,1-.48,2.7c-.07.21-.13.31-.22.31a.75.75,0,0,1-.31-.15,3.51,3.51,0,0,0-.69-.38A10.83,10.83,0,0,0,79,189.45Zm4.09-.88c.17-.06.2,0,.24.12a16.39,16.39,0,0,1,.57,2.48c0,.16,0,.18-.18.25l-.7.26c-.2.07-.23,0-.24-.09a17.12,17.12,0,0,0-.5-2.58c0-.15,0-.16.16-.22Zm3.57-2.25c-.94,0-1.2,0-1.29,0s-.17,0-.17-.15v-1a8.81,8.81,0,0,1-.71.66c-.14.11-.22.18-.29.18s-.14-.1-.26-.31a2.51,2.51,0,0,0-.6-.75,9.8,9.8,0,0,0,3-3.46,3.76,3.76,0,0,0,.32-.86l1.39.14c.13,0,.18.1.18.17a.26.26,0,0,1-.12.21l-.12.1a9.16,9.16,0,0,0,3.58,3.4,3,3,0,0,0-.56,1c-.1.22-.16.33-.24.33s-.16-.05-.3-.17a11.14,11.14,0,0,1-3.12-3.37A14.15,14.15,0,0,1,85.4,185a11.36,11.36,0,0,0,1.26,0H88c.93,0,1.21,0,1.29,0s.16,0,.16.16v1c0,.14,0,.15-.16.15s-.36,0-1.29,0Z"/><path d="M95.6,186.87c.34-.14.68-.28,1-.45,0,.27,0,.59,0,.9,0,.46,0,.45-.42.64l-.58.26V189c0,1.33.05,2.09.05,2.79s-.13,1.14-.44,1.4a2.68,2.68,0,0,1-1.57.29c-.43,0-.43,0-.54-.41a4.11,4.11,0,0,0-.35-1,8.21,8.21,0,0,0,1,.05c.34,0,.49-.14.49-.53v-2.79l-.64.21a1.84,1.84,0,0,0-.49.26.53.53,0,0,1-.23.08c-.08,0-.15-.06-.18-.17-.08-.36-.18-.87-.24-1.34a9.4,9.4,0,0,0,1.31-.28l.47-.14V184.7H94c-.92,0-1.2,0-1.29,0s-.14,0-.14-.17v-1c0-.14,0-.15.14-.15s.37,0,1.29,0h.28v-.68a13.7,13.7,0,0,0-.11-2c.52,0,1,.05,1.43.1.14,0,.24.07.24.14a.71.71,0,0,1-.1.3,4,4,0,0,0-.09,1.41v.71c.72,0,1,0,1.05,0s.13,0,.14.08v-.7c0-.14,0-.15.16-.15s.52,0,1.69,0V182a6.39,6.39,0,0,0-.08-1.23c.46,0,1,0,1.34.09.13,0,.2.05.2.14a.49.49,0,0,1-.07.19,2.77,2.77,0,0,0-.07.87v.57h1.77V182a8.39,8.39,0,0,0-.07-1.21c.44,0,1,0,1.35.07.12,0,.19.05.19.14s0,.12-.07.19a2.5,2.5,0,0,0-.07.87v.57h.14c1.34,0,1.8,0,1.89,0s.15,0,.15.15v1c0,.16,0,.17-.15.17s-.55,0-1.89,0h-.14c0,.86,0,1.22,0,1.3s0,.17-.15.17h-1.08c-.14,0-.15,0-.15-.17s0-.44,0-1.3H100c0,.84,0,1.22,0,1.3s0,.16-.17.16h-1c-.14,0-.15,0-.15-.16s0-.46,0-1.3c-1.17,0-1.61,0-1.69,0s-.13,0-.16-.07v.7c0,.15,0,.17-.14.17s-.33,0-1.05,0Zm1.7,6.6c-.14,0-.16,0-.16-.14s0-.56,0-3.14v-1.78c0-1.78,0-2.25,0-2.35s0-.16.16-.16.55,0,1.85,0h3.43c1.29,0,1.75,0,1.85,0s.15,0,.15.16,0,.57,0,2.1v2c0,2.56,0,3,0,3.12s0,.14-.15.14h-1.07c-.14,0-.15,0-.15-.14v-.53H98.5v.59c0,.12,0,.14-.16.14Zm1.2-4.78h1.64v-1.57H98.5Zm1.64,2.86v-1.7H98.5v1.7Zm1.32-4.43v1.57h1.75v-1.57Zm1.75,4.43v-1.7h-1.75v1.7Z"/><path d="M111.44,182.25a3.64,3.64,0,0,0-.49-.9,9.65,9.65,0,0,1,1.69-.15c.2,0,.31.11.31.25s0,.18,0,.27a2.49,2.49,0,0,0,.06.42c.1.36.14.49.22.73a23.39,23.39,0,0,0,2.86-.75c.13-.05.2,0,.24.07.08.27.18.66.24.94a.21.21,0,0,1-.17.25c-.94.3-1.79.51-2.75.72.13.35.31.78.49,1.17a15.7,15.7,0,0,0,2.55-.72c.14-.07.21-.05.26.08a6,6,0,0,1,.25.92c0,.13,0,.2-.11.26a18.68,18.68,0,0,1-2.37.68,10.56,10.56,0,0,0,1.83,2.43c.14.12.14.18.07.33a4.21,4.21,0,0,1-.57.87c-.08.1-.14.14-.22.14a.4.4,0,0,1-.2-.08,3.09,3.09,0,0,0-.83-.45,6.77,6.77,0,0,0-2.63-.45c-1.32,0-2.09.41-2.09,1.06,0,.92,1.19,1.21,3.34,1.21.51,0,1-.06,1.54-.08.14,0,.18.07.17.18a10.82,10.82,0,0,1-.28,1.27c0,.14-.1.2-.3.21s-.66,0-1,0c-3.22,0-4.93-.91-4.93-2.63,0-1.5,1.29-2.44,3.48-2.44a6.61,6.61,0,0,1,2.4.35,16.2,16.2,0,0,1-1.16-1.65,32.05,32.05,0,0,1-3.84.42.22.22,0,0,1-.25-.19,7.37,7.37,0,0,1-.25-1.15,24.77,24.77,0,0,0,3.77-.35l-.53-1.17a23.24,23.24,0,0,1-3.41.34c-.17,0-.25-.06-.28-.2s-.14-.67-.22-1.12a23.46,23.46,0,0,0,3.49-.22C111.66,182.84,111.58,182.6,111.44,182.25Z"/><path d="M129.21,183.2a7,7,0,0,0-.57-1.75,14,14,0,0,1,1.83,0c.18,0,.28.07.28.21a3,3,0,0,0,0,1l.21,1.17,1.15-.19c.8-.14,1.78-.31,2.51-.51.07,0,.13.06.15.16a7.9,7.9,0,0,1,.28,1.2c0,.1-.07.14-.21.16-.64.11-1.63.26-2.34.39l-1.23.22.35,1.8,2-.36a20.89,20.89,0,0,0,2.2-.46c.18,0,.23,0,.24.16a8.13,8.13,0,0,1,.24,1.12.23.23,0,0,1-.21.24c-.42.05-1.26.19-2.26.36l-1.93.34.32,1.55c.2.94.44,1.84.62,2.54,0,.07-.06.11-.18.15a8.64,8.64,0,0,1-1.28.29c-.18,0-.26-.05-.28-.16-.1-.52-.25-1.5-.45-2.4l-.35-1.65-1.9.33c-.95.17-1.74.34-2.27.48a.22.22,0,0,1-.32-.15c-.14-.41-.28-.94-.4-1.39.86-.1,1.6-.21,2.61-.38l2-.32-.35-1.81-1.32.21c-.77.13-1.7.33-2.08.42-.14,0-.21,0-.27-.14a12.28,12.28,0,0,1-.39-1.4,24.77,24.77,0,0,0,2.49-.31l1.28-.19Z"/><path d="M142.6,188.23a11.52,11.52,0,0,0-1.54.55.8.8,0,0,1-.25.07c-.1,0-.17-.06-.24-.2a8,8,0,0,1-.49-1.23,19.07,19.07,0,0,0,2.13-.46l.84-.23-.31-1.18a5.45,5.45,0,0,0-.57-1.41c.57-.07,1.27-.15,1.64-.15.22,0,.32.08.29.28a2.25,2.25,0,0,0,.09,1l.26,1,3-.77a1.56,1.56,0,0,0,.7-.3.24.24,0,0,1,.17-.09.48.48,0,0,1,.24.13,7.44,7.44,0,0,1,.82.7.33.33,0,0,1,.12.21.41.41,0,0,1-.16.28.91.91,0,0,0-.22.29,16.61,16.61,0,0,1-1.58,2.64.27.27,0,0,1-.21.12.34.34,0,0,1-.21-.07A3.83,3.83,0,0,0,146,189a9.78,9.78,0,0,0,1.49-2.14l-2.7.71.64,2.54.64,2.35a.27.27,0,0,1-.18.38,4.48,4.48,0,0,1-.92.28c-.18,0-.3,0-.35-.21-.17-.78-.37-1.55-.56-2.34l-.66-2.59Z"/><path d="M156.57,186.31c-.7,0-1.4,0-2.1.06-.12,0-.18-.09-.21-.27a11.1,11.1,0,0,1-.15-1.41c.8.08,1.65.11,2.58.11h4.8a1.48,1.48,0,0,0,.74-.16.27.27,0,0,1,.4,0,7.19,7.19,0,0,1,.93.87.38.38,0,0,1,.14.29.36.36,0,0,1-.15.27,1.64,1.64,0,0,0-.48.66,12.27,12.27,0,0,1-5.71,6.19.75.75,0,0,1-.28.09.45.45,0,0,1-.31-.16,4.07,4.07,0,0,0-1.3-.73,11,11,0,0,0,5.88-5.84Zm.94-3c-.63,0-1.33,0-1.92.06-.14,0-.18-.09-.19-.31a12.84,12.84,0,0,1-.07-1.35,18,18,0,0,0,2.3.1h2.52c.91,0,1.65,0,2.2-.07.12,0,.16.07.16.22a6.73,6.73,0,0,1,0,1.1c0,.24,0,.29-.25.28-.46,0-1.12,0-2,0Z"/><path d="M173.81,186.8a7.87,7.87,0,0,1-.83,3.57,7,7,0,0,1-2.46,2.65.88.88,0,0,1-.42.17.42.42,0,0,1-.3-.14,3.61,3.61,0,0,0-1.24-.74,6.28,6.28,0,0,0,2.79-2.5,6.06,6.06,0,0,0,.71-3H169.4c-.7,0-1.39,0-2.1.08-.13,0-.17-.08-.19-.26a8.48,8.48,0,0,1-.11-1.35c.79.07,1.57.07,2.38.07h6.29c1.1,0,1.91,0,2.73-.08.14,0,.16.08.16.28s0,.9,0,1.08-.08.24-.21.24c-.73,0-1.7-.06-2.66-.06ZM171,183.55c-.65,0-1.21,0-2,.06-.18,0-.23-.07-.24-.24,0-.34-.06-.84-.1-1.35,1,.06,1.7.07,2.33.07h2.57c.79,0,1.67,0,2.37-.05.14,0,.17.08.17.26a5.91,5.91,0,0,1,0,1c0,.19,0,.26-.18.26-.76,0-1.59,0-2.36,0Zm6-2.44c.07,0,.13,0,.2,0a6.67,6.67,0,0,1,1.19,1.62c0,.09,0,.15-.07.23l-.63.37c-.1.06-.17,0-.23-.07a6.7,6.7,0,0,0-1.26-1.75Zm1.33-.78c.09-.06.13,0,.2,0a6.45,6.45,0,0,1,1.19,1.57.17.17,0,0,1-.07.25l-.59.38c-.13.07-.2,0-.24-.07a6.66,6.66,0,0,0-1.25-1.74Z"/><path d="M190.43,184.73c.69,0,1.47,0,2.11,0,.17,0,.19.07.2.22a6.86,6.86,0,0,1,0,1.11c0,.18,0,.24-.24.22h-2.59a8.24,8.24,0,0,1-1.08,4.31,6.65,6.65,0,0,1-3.3,2.61,1.27,1.27,0,0,1-.39.12c-.09,0-.16,0-.27-.15a3.2,3.2,0,0,0-1.16-.84c2-.62,3.06-1.33,3.78-2.48a6.78,6.78,0,0,0,.82-3.57h-3v.5c0,.83,0,1.58,0,2.33,0,.15-.08.18-.23.19a8.14,8.14,0,0,1-1.21,0c-.18,0-.27,0-.25-.19,0-.73.07-1.42.07-2.3v-.53h-.42c-.76,0-1.88,0-2.31.07-.12,0-.16-.09-.17-.27a11.82,11.82,0,0,1-.1-1.36c.59,0,1.5.07,2.58.07h.42v-1a9.71,9.71,0,0,0-.17-2.06,14.47,14.47,0,0,1,1.71.22c.15,0,.21.1.21.2a.89.89,0,0,1-.09.3,3.78,3.78,0,0,0-.09,1.34v1h3v-1.37a9.55,9.55,0,0,0-.12-1.92,13.57,13.57,0,0,1,1.64.24c.19,0,.25.11.25.22a.79.79,0,0,1-.06.25,3.89,3.89,0,0,0-.11,1.24v1.33Zm.7-3.39a.15.15,0,0,1,.2,0,6.71,6.71,0,0,1,1.07,1.7c0,.1,0,.15-.08.21l-.57.29c-.12.06-.19,0-.24-.08a6.6,6.6,0,0,0-1.14-1.82Zm1.32-.6c.08-.05.12,0,.19,0a5.89,5.89,0,0,1,1.08,1.64.16.16,0,0,1-.08.24l-.56.28c-.13.06-.19,0-.23-.07a6.66,6.66,0,0,0-1.13-1.82Z"/><path d="M195.27,190a.29.29,0,0,1,.21-.11.26.26,0,0,1,.18.08,10.54,10.54,0,0,1,2.79,2.57c.08.11.1.15.1.21s0,.12-.14.22l-.86.73c-.1.08-.15.13-.19.13s-.13,0-.2-.14a10.56,10.56,0,0,0-2.65-2.68c-.08-.05-.12-.1-.12-.14s0-.08.09-.17Z"/><path d="M212.11,181.86a7.37,7.37,0,0,0-.08-1.1c.43,0,1,.05,1.38.09.12,0,.19.05.19.12a.52.52,0,0,1-.07.21,1.91,1.91,0,0,0-.07.68h2.7a6,6,0,0,0-.07-1.08c.42,0,1,0,1.36.08.13,0,.2.06.2.13s-.05.12-.09.19a2,2,0,0,0-.05.68h1.72c1.23,0,1.66,0,1.75,0s.15,0,.15.15v1c0,.14,0,.16-.15.16s-.52,0-1.75,0h-1.72c0,.41,0,.6,0,.66s0,.15-.16.15H216.3c-.15,0-.17,0-.17-.15s0-.25,0-.66h-2.7c0,.42,0,.63,0,.69s0,.15-.16.15h-1.09c-.14,0-.16,0-.16-.15s0-.27,0-.69h-1.57c-1.23,0-1.66,0-1.75,0s-.15,0-.15-.16v-1c0-.14,0-.15.15-.15s.52,0,1.75,0ZM209.45,192c-.14,0-.15,0-.15-.16s0-.56,0-3.12V187c0-1.77,0-2.26,0-2.34s0-.16.15-.16.39,0,1.35,0h1.47c.95,0,1.24,0,1.34,0s.16,0,.16.16,0,.54,0,1.93v1.84c0,2.41,0,2.87,0,2.95s0,.16-.16.16h-1c-.14,0-.15,0-.15-.16V191h-1.75v.92c0,.14,0,.16-.15.16Zm1.22-6.35v1.44h1.75v-1.44Zm1.75,4.13v-1.54h-1.75v1.54Zm8,0c0,.83,0,1.56,0,2.12a1.32,1.32,0,0,1-.41,1.14c-.28.24-.78.35-1.86.35-.45,0-.45,0-.55-.42a3.22,3.22,0,0,0-.39-1c.48,0,1,.05,1.32.05.43,0,.52-.07.52-.49v-1.34h-2.86a5.3,5.3,0,0,1-1.85,3.07c-.15.14-.22.21-.31.21s-.15-.09-.32-.26a3.77,3.77,0,0,0-.9-.63c1.77-1.16,2.29-2.38,2.29-5.77v-1.19c0-.81,0-1.2,0-1.3s0-.15.15-.15.45,0,1.54,0h2c1.06,0,1.43,0,1.52,0s.16,0,.16.15,0,.49,0,1.3Zm-1.34-.73v-1.24h-2.61c0,.46,0,.86-.07,1.24Zm-2.6-3.63v1.19h2.6v-1.19Z"/><path d="M69.14,209.52c1.08-.17,1.87-.32,2.44-.45a2,2,0,0,0,.56-.22.57.57,0,0,1,.31-.1c.09,0,.13,0,.24.1a3.43,3.43,0,0,1,.83.74.58.58,0,0,1,.15.32.38.38,0,0,1-.25.33,1.66,1.66,0,0,0-.45.32c-1,1-1.61,1.57-2.55,2.58a1.58,1.58,0,0,1,.5-.07,1.6,1.6,0,0,1,1.53,1.41c.28,1.15.51,1.37,1.54,1.37a9,9,0,0,0,2.17-.25c.16,0,.23.06.25.21a6.93,6.93,0,0,1,.1,1.23c0,.14-.07.2-.25.23a12.53,12.53,0,0,1-2.06.18c-2.06,0-2.73-.55-3-1.93-.23-1-.4-1.35-.89-1.35a2,2,0,0,0-1.31.7c-.63.65-1.66,1.88-2.13,2.47a.26.26,0,0,1-.2.1.26.26,0,0,1-.15-.06,7.13,7.13,0,0,1-1-.85.26.26,0,0,1-.07-.14.35.35,0,0,1,.11-.23l2.65-2.69c.54-.56,1.27-1.37,2.77-3-1,.28-2,.5-2.91.74a7.08,7.08,0,0,0-.76.25.6.6,0,0,1-.29.09c-.1,0-.17-.07-.24-.24a10.14,10.14,0,0,1-.56-1.57A15.7,15.7,0,0,0,69.14,209.52Zm3.91-3c.14,0,.2.12.16.31a8.61,8.61,0,0,1-.38,1.15.2.2,0,0,1-.24.15A21,21,0,0,1,68.68,207a.19.19,0,0,1-.12-.25A11,11,0,0,1,69,205.4,24.8,24.8,0,0,0,73.05,206.52Z"/><path d="M82.92,209.73c.17-.07.18,0,.25.09a13.57,13.57,0,0,1,.84,2.27c0-.05,0-.06.14-.06s.52,0,1.8,0H89.2c1.27,0,1.71,0,1.8,0s.16,0,.16.17v1c0,.14,0,.16-.16.16s-.53,0-1.8,0h-2a27.66,27.66,0,0,1-.94,2.65c.9-.1,1.77-.21,2.61-.35-.23-.38-.46-.73-.69-1.07-.08-.14,0-.18.11-.25L89,214c.18-.09.23-.06.31.05a20.44,20.44,0,0,1,1.85,3.08c.06.14,0,.21-.13.28l-.85.42c-.18.07-.24.09-.3-.05-.12-.31-.26-.63-.42-.95-1.62.29-3.1.5-4.76.68a1,1,0,0,0-.54.16.4.4,0,0,1-.21.07c-.07,0-.13-.05-.17-.23-.1-.38-.2-.89-.27-1.3.44,0,.87,0,1.22,0a22.48,22.48,0,0,0,1-2.79c-1.05,0-1.44,0-1.53,0s-.15,0-.15-.16v-.65l-.1,0-.7.23c-.17,0-.21,0-.24-.11a4.92,4.92,0,0,0-.14-.58l-.91.09v3.82c0,1.29,0,1.76,0,1.83s0,.16-.15.16H80.72c-.14,0-.15,0-.15-.16s0-.54,0-1.83v-3.71l-1.07.07a1.22,1.22,0,0,0-.52.11.48.48,0,0,1-.21.07c-.08,0-.12-.1-.15-.24-.07-.33-.14-.73-.2-1.18a7.9,7.9,0,0,0,1.07,0c.28-.35.56-.73.82-1.1a15.79,15.79,0,0,0-1.8-2c-.09-.07-.09-.14,0-.29l.46-.73c.06-.09.1-.13.14-.13s.07,0,.13.09l.36.36A8.87,8.87,0,0,0,80.4,206a4.34,4.34,0,0,0,.32-.87,12.08,12.08,0,0,1,1.22.52c.13.07.18.14.18.23s-.05.12-.12.18a.77.77,0,0,0-.27.33,22.12,22.12,0,0,1-1.23,2l.59.66c.32-.5.63-1,.92-1.54a7.08,7.08,0,0,0,.42-.95,9.21,9.21,0,0,1,1.18.6c.12.07.17.12.17.21s0,.15-.16.21a1.66,1.66,0,0,0-.46.57c-.73,1.14-1.49,2.23-2.14,3.07l1.5-.1c-.1-.28-.22-.56-.34-.84s0-.17.15-.25ZM79,214a6.7,6.7,0,0,0,0-.79l1.09.17c.15,0,.2.09.2.17a.51.51,0,0,1-.09.22,2.17,2.17,0,0,0,0,.44,14.32,14.32,0,0,1-.48,2.7c-.07.21-.13.31-.22.31a.75.75,0,0,1-.31-.15,3.51,3.51,0,0,0-.69-.38A10.83,10.83,0,0,0,79,214Zm4.09-.88c.17-.06.2,0,.24.12a16.39,16.39,0,0,1,.57,2.48c0,.16,0,.18-.18.25l-.7.26c-.2.07-.23,0-.24-.09a17.12,17.12,0,0,0-.5-2.58c0-.15,0-.16.16-.22Zm3.57-2.25c-.94,0-1.2,0-1.29,0s-.17,0-.17-.15v-1a8.81,8.81,0,0,1-.71.66c-.14.11-.22.18-.29.18s-.14-.1-.26-.31a2.51,2.51,0,0,0-.6-.75,9.8,9.8,0,0,0,3-3.46,3.76,3.76,0,0,0,.32-.86l1.39.14c.13,0,.18.1.18.17a.26.26,0,0,1-.12.21l-.12.1a9.16,9.16,0,0,0,3.58,3.4,3,3,0,0,0-.56,1c-.1.22-.16.33-.24.33s-.16-.05-.3-.17A11.14,11.14,0,0,1,87.32,207a14.15,14.15,0,0,1-1.92,2.56,11.36,11.36,0,0,0,1.26,0H88c.93,0,1.21,0,1.29,0s.16,0,.16.16v1c0,.14,0,.15-.16.15s-.36,0-1.29,0Z"/><path d="M97.57,214.45c0,1.29.56,1.8,1.86,1.8,1.64,0,2.55-.63,2.55-1.9a3.41,3.41,0,0,0-1.26-2.55,4.31,4.31,0,0,0,1.43-.08.31.31,0,0,1,.29.06,3.65,3.65,0,0,1,1.19,2.63c0,2-1.62,3.28-4,3.28s-3.53-1.12-3.53-3.17c0-.29,0-.68.09-1.31a12.12,12.12,0,0,1-1.9-.42c-.1,0-.14-.1-.15-.27a7.06,7.06,0,0,1,0-1.3,8.49,8.49,0,0,0,2.27.54c.07-.51.18-1.43.23-2a10.13,10.13,0,0,1-2-.39c-.17,0-.23-.11-.23-.24,0-.34,0-.8,0-1.3a12,12,0,0,0,2.54.53c.11-.81.15-1.19.18-1.61a6.64,6.64,0,0,0,0-1.18,9.39,9.39,0,0,1,1.68.39c.19.07.3.2.3.33a.4.4,0,0,1-.11.26,1.32,1.32,0,0,0-.25.6c-.07.33-.15.8-.22,1.32a8.36,8.36,0,0,0,1.72-.08c.1,0,.14.07.14.17a7.37,7.37,0,0,1,0,1.05c0,.15,0,.19-.22.21a14.62,14.62,0,0,1-1.87.07c-.08.49-.22,1.44-.3,2,.74,0,1.31,0,2,0,.19,0,.23,0,.23.15a9.91,9.91,0,0,1-.07,1.05c0,.17-.06.23-.2.23-.7.05-1.43.05-2.14,0A8.35,8.35,0,0,0,97.57,214.45Z"/><path d="M113.74,208.56c-1.71.32-3.21.61-4.71.92-.53.13-.67.15-.88.22a.74.74,0,0,1-.31.12.35.35,0,0,1-.27-.21,9.85,9.85,0,0,1-.51-1.52,18.12,18.12,0,0,0,2.22-.23c1.73-.26,4.81-.72,8.42-1.2.21,0,.28.06.3.16a8.81,8.81,0,0,1,.15,1.23c0,.17-.09.21-.27.21a6.08,6.08,0,0,0-1.71.31c-2.38.81-3.57,2.45-3.57,4.13s1.29,2.79,3.73,2.94c.22,0,.31.06.31.21a4.9,4.9,0,0,1-.16,1.21c0,.21-.1.29-.26.29-2.47,0-5.17-1.41-5.17-4.33a5.07,5.07,0,0,1,2.69-4.44Zm2.77,1.51c.07-.06.13,0,.21,0a6.35,6.35,0,0,1,1.33,1.49.14.14,0,0,1,0,.23l-.59.43a.15.15,0,0,1-.24,0,7.18,7.18,0,0,0-1.41-1.62Zm1.25-.91c.08-.06.12,0,.21,0a5.8,5.8,0,0,1,1.33,1.44.16.16,0,0,1,0,.25l-.56.43c-.12.09-.19.05-.24,0a6.87,6.87,0,0,0-1.4-1.61Z"/><path d="M125.44,206.75a3.64,3.64,0,0,0-.49-.9,9.65,9.65,0,0,1,1.69-.15c.2,0,.31.11.31.25s0,.18,0,.27a2.49,2.49,0,0,0,.06.42c.1.36.14.49.22.73a23.39,23.39,0,0,0,2.86-.75c.13-.05.2,0,.24.07.08.27.18.66.24.94a.21.21,0,0,1-.17.25c-.94.3-1.79.51-2.75.72.13.35.31.78.49,1.17a15.7,15.7,0,0,0,2.55-.72c.14-.07.21-.05.26.08a6,6,0,0,1,.25.92c0,.13,0,.2-.11.26a18.68,18.68,0,0,1-2.37.68,10.56,10.56,0,0,0,1.83,2.43c.14.12.14.18.07.33a4.21,4.21,0,0,1-.57.87c-.08.1-.14.14-.22.14a.4.4,0,0,1-.2-.08,3.09,3.09,0,0,0-.83-.45,6.77,6.77,0,0,0-2.63-.45c-1.32,0-2.09.41-2.09,1.06,0,.92,1.19,1.21,3.34,1.21.51,0,1-.06,1.54-.08.14,0,.18.07.17.18a10.82,10.82,0,0,1-.28,1.27c0,.14-.1.2-.3.21s-.66,0-1,0c-3.22,0-4.93-.91-4.93-2.63,0-1.5,1.29-2.44,3.48-2.44a6.61,6.61,0,0,1,2.4.35,16.2,16.2,0,0,1-1.16-1.65,32.05,32.05,0,0,1-3.84.42.22.22,0,0,1-.25-.19,7.37,7.37,0,0,1-.25-1.15,24.77,24.77,0,0,0,3.77-.35l-.53-1.17a23.24,23.24,0,0,1-3.41.34c-.17,0-.25-.06-.28-.2s-.14-.67-.22-1.12a23.46,23.46,0,0,0,3.49-.22C125.66,207.34,125.58,207.1,125.44,206.75Z"/><path d="M140.24,212.21a25.34,25.34,0,0,1-2.89-.05c-.15,0-.21-.06-.22-.24a7.85,7.85,0,0,1-.09-1.19,20.78,20.78,0,0,0,3.16.11c0-.53,0-1.08,0-1.61a23.64,23.64,0,0,1-3.35-.07.21.21,0,0,1-.24-.2c0-.35-.07-.68-.1-1.26a32.08,32.08,0,0,0,3.67.14c0-.52,0-.88,0-1.36a4.36,4.36,0,0,0-.17-.94,8.27,8.27,0,0,1,1.76.26.29.29,0,0,1,.16.42,1.65,1.65,0,0,0-.21.67c0,.28,0,.48,0,.9a25.69,25.69,0,0,0,3.07-.42c.16-.05.22,0,.23.16a6.9,6.9,0,0,1,.07,1c0,.18,0,.21-.15.22a27.27,27.27,0,0,1-3.24.36c0,.56,0,1.08,0,1.59a26.22,26.22,0,0,0,2.74-.37c.17,0,.21,0,.23.11,0,.27,0,.73,0,1.15,0,.14-.06.18-.21.2-.92.15-1.57.25-2.75.34,0,.64.06,1.33.1,2a12.2,12.2,0,0,1,3.71,1.7c.14.12.14.16.1.33a4.28,4.28,0,0,1-.61,1,.23.23,0,0,1-.19.11.2.2,0,0,1-.15-.07,11.21,11.21,0,0,0-2.79-1.6c0,1.52-.92,2.13-2.84,2.13s-2.86-.8-2.86-2,1.11-2,2.8-2a12.8,12.8,0,0,1,1.35.06C140.28,213.26,140.25,212.69,140.24,212.21ZM139,215c-1,0-1.51.3-1.51.74s.42.63,1.39.63a1.68,1.68,0,0,0,1.27-.42,1.33,1.33,0,0,0,.16-.78A6,6,0,0,0,139,215Z"/><path d="M154.81,206.62a4.18,4.18,0,0,0-.17-1,13.53,13.53,0,0,1,1.64.2c.24,0,.4.14.4.26a.64.64,0,0,1-.13.32,1.39,1.39,0,0,0-.11.41c0,.18,0,.36,0,.9,1.51-.06,3-.07,4.3-.07.17,0,.2,0,.21.21,0,.35,0,.71,0,1.06,0,.16-.07.2-.24.18-1.46,0-2.81,0-4.27,0,0,.85,0,1.75,0,2.6a4.4,4.4,0,0,1,.21,1.39,5.23,5.23,0,0,1-2.49,4.52,1.28,1.28,0,0,1-.55.27.83.83,0,0,1-.42-.21,3,3,0,0,0-1.06-.56A4.68,4.68,0,0,0,155,214a1.63,1.63,0,0,1-1.32.56,1.94,1.94,0,0,1-1.94-2.15,2,2,0,0,1,2.11-2.1,1.79,1.79,0,0,1,1.07.28c0-.49,0-1,0-1.43-1.76.1-3.74.27-4.84.42-.31.05-.54.17-.66.17s-.2,0-.24-.19a9.72,9.72,0,0,1-.35-1.42,9.35,9.35,0,0,0,1.71-.05c.85-.07,2.66-.19,4.34-.28C154.83,207.35,154.83,207,154.81,206.62ZM153,212.3a.87.87,0,0,0,.9.95.9.9,0,0,0,1-1,.85.85,0,0,0-.93-.9A.9.9,0,0,0,153,212.3Z"/><path d="M166.5,216.33a2,2,0,1,1-2-2A2,2,0,0,1,166.5,216.33Zm-3.19,0a1.16,1.16,0,1,0,1.16-1.16A1.14,1.14,0,0,0,163.31,216.33Z"/></g></g></svg>