<svg xmlns="http://www.w3.org/2000/svg" viewBox="0 0 783.1 203.66"><defs><style>.cls-1{fill:#fff;}</style></defs><g id="レイヤー_2" data-name="レイヤー 2"><g id="レイヤー_1-2" data-name="レイヤー 1"><path d="M125.31,111.82l.09-33.68,7-15.39q-.84-.16-1.71-.3A37.58,37.58,0,0,0,125,62a22.7,22.7,0,0,0-3.92.32,20,20,0,0,0-6.8,2.36,15.37,15.37,0,0,0-4.56,4,27.66,27.66,0,0,0-3,5l-15,32.92-29.06-4.5.1-33.68,7-15.4-1.52-.25a33.37,33.37,0,0,0-5-.28h-.23a27.42,27.42,0,0,0-6.82.91,20.93,20.93,0,0,0-6.64,3.09,14.7,14.7,0,0,0-4.92,6.15L29.06,96.92,0,92.43.1,58.74,26.88,0,54.39,4.25v5.81a62,62,0,0,1,11.9-3,57.22,57.22,0,0,1,8.36-.6,70.54,70.54,0,0,1,10.56.84,58.55,58.55,0,0,1,16.62,4.9c.52.26,1,.52,1.51.8a15.35,15.35,0,0,1,7.13,8,61.55,61.55,0,0,1,14.35-4.42,51.77,51.77,0,0,1,9.85-.91,64.76,64.76,0,0,1,9.91.79A84,84,0,0,1,158.92,20a38.11,38.11,0,0,1,6.53,2.92,24.41,24.41,0,0,1,3.77,2.65,14.46,14.46,0,0,1,4.93,8.16,12.36,12.36,0,0,1,.25,2.61l-.09,32.6a19.57,19.57,0,0,1-2,8l-18,39.41Z"/><path d="M237.28,129.48a107.2,107.2,0,0,1-16.45-1.33,85.25,85.25,0,0,1-20.52-5.54,52.93,52.93,0,0,1-5.59-2.78,34.64,34.64,0,0,1-8-6.15,22.4,22.4,0,0,1-6-11.71,20.71,20.71,0,0,1-.27-3.34L180.55,66a24.63,24.63,0,0,1,2.39-10.1A32.88,32.88,0,0,1,192.4,44a51.16,51.16,0,0,1,15.16-8.23,79,79,0,0,1,19.33-4c2.36-.2,4.8-.3,7.23-.3A96.92,96.92,0,0,1,249,32.69c8.56,1.32,15.71,3.47,21.25,6.4.57.29,1.12.6,1.65.91a32,32,0,0,1,10.78,9.49,22.1,22.1,0,0,1,4,12.63L286.55,95a28,28,0,0,1-4.07,13.65l-.35.6-4.5-.7,0,6.94-.33.3a50.94,50.94,0,0,1-25.07,12.37A81.48,81.48,0,0,1,237.28,129.48Z"/><path d="M411.51,156.1l.09-33.68,7-15.39c-.56-.11-1.13-.2-1.71-.29a38,38,0,0,0-5.74-.49,22.38,22.38,0,0,0-3.9.32,20.19,20.19,0,0,0-6.8,2.37,15.24,15.24,0,0,0-4.56,4,27.76,27.76,0,0,0-3,5l-15,32.92-29.06-4.49.1-33.69,7-15.39-1.52-.26a36.26,36.26,0,0,0-5.07-.28h-.13a28,28,0,0,0-6.81.92,20.82,20.82,0,0,0-6.64,3.08,14.75,14.75,0,0,0-4.92,6.15l-15.63,34.27-29.06-4.5.1-33.68,26.79-58.75,27.51,4.26,0,5.81a62.14,62.14,0,0,1,11.91-3,58.7,58.7,0,0,1,8.37-.59,68.89,68.89,0,0,1,10.54.84A58.83,58.83,0,0,1,388,56.52c.52.25,1,.52,1.49.79a15.47,15.47,0,0,1,7.15,8A61.08,61.08,0,0,1,411,60.94a52,52,0,0,1,9.87-.92,65.56,65.56,0,0,1,9.88.79,83.6,83.6,0,0,1,14.36,3.44,38.23,38.23,0,0,1,6.54,2.92,25.27,25.27,0,0,1,3.76,2.64A14.49,14.49,0,0,1,460.35,78a13,13,0,0,1,.25,2.6l-.09,32.6a19.77,19.77,0,0,1-2,8l-18,39.42Z"/><path d="M530.25,175.23a65.2,65.2,0,0,1-10.07-.76,78.17,78.17,0,0,1-19-5.14,30.19,30.19,0,0,1-3.17-1.57,17.69,17.69,0,0,1-6.48-6L488.29,168l-27.66-4.28.09-33.68,36.83-80.79,29.07,4.49-.07,24.87c1-.13,1.85-.22,2.72-.29,2.18-.17,4.38-.25,6.54-.25a81.83,81.83,0,0,1,12.53,1,56,56,0,0,1,14.32,4.17A39.47,39.47,0,0,1,566.22,85a31.7,31.7,0,0,1,7.52,6,22,22,0,0,1,5.51,11.45,19.67,19.67,0,0,1,.24,3.13h0l-.09,32.61a28.73,28.73,0,0,1-2.9,11.72,37.53,37.53,0,0,1-10.19,13.5,48.75,48.75,0,0,1-14.19,8.14,60.05,60.05,0,0,1-16,3.49C534.14,175.15,532.17,175.23,530.25,175.23Zm-15.68-49c.63.13,1.28.25,1.94.35a40.21,40.21,0,0,0,6.11.5,29.55,29.55,0,0,0,4.8-.38,30.34,30.34,0,0,0,7.52-2.23c-.63-.13-1.28-.25-1.94-.35a39.09,39.09,0,0,0-6-.48,31.78,31.78,0,0,0-4.85.37A30.53,30.53,0,0,0,514.57,126.21Z"/><path d="M641.64,192.05a107.65,107.65,0,0,1-16.47-1.33,85.29,85.29,0,0,1-20.51-5.54,54.93,54.93,0,0,1-5.59-2.78,34.64,34.64,0,0,1-8-6.15,22.34,22.34,0,0,1-6-11.72,18.81,18.81,0,0,1-.27-3.36l.09-32.6a24.57,24.57,0,0,1,2.38-10.09,32.92,32.92,0,0,1,9.47-11.88,50.77,50.77,0,0,1,15.15-8.23,78.69,78.69,0,0,1,19.33-4c2.37-.2,4.82-.3,7.26-.3a98,98,0,0,1,14.84,1.17c8.58,1.33,15.73,3.49,21.25,6.4.56.3,1.11.61,1.65.92A32.18,32.18,0,0,1,687,112.06a22.1,22.1,0,0,1,4,12.71l-.09,32.79a28,28,0,0,1-4.07,13.66l-.34.59-4.52-.7,0,6.95-.33.3a50.86,50.86,0,0,1-25.06,12.37A81.37,81.37,0,0,1,641.64,192.05Z"/><path d="M689.77,199.16l.1-33.68,26.79-58.75,27.7,4.29,0,7.28q.82-.39,1.62-.72a50.17,50.17,0,0,1,9.52-2.81,66.6,66.6,0,0,1,10.4-1.13l1.63,0a59.23,59.23,0,0,1,9,.69,33.57,33.57,0,0,1,5.91,1.54l.67.23L783,149.62l-7.18,15.75-.83-.24c-1.26-.36-2.75-.72-4.4-1.09s-3.4-.71-5.08-1a57.27,57.27,0,0,0-8.87-.75,39.31,39.31,0,0,0-4.3.23,31.84,31.84,0,0,0-9.91,2.58,21.69,21.69,0,0,0-6.91,5,26.11,26.11,0,0,0-4.5,6.8l-12.2,26.77Z"/><path class="cls-1" d="M52.38,9.74V10.8l-.59.23Z"/><path class="cls-1" d="M44.86,29.86a14.59,14.59,0,0,1,4.83-5.95,21.13,21.13,0,0,1,6.65-3.1,27.75,27.75,0,0,1,6.81-.91h.24a33.56,33.56,0,0,1,5,.28c4,.61,6.85,1.44,8.63,2.47l.34.21a5.84,5.84,0,0,1,2.85,3.52,6.91,6.91,0,0,1,.12.92v.24a8.5,8.5,0,0,1-.56,3.19c-.64,1.71-1.35,3.41-2.1,5.06l-7,15.38c-.65-.13-1.35-.25-2.06-.36a36,36,0,0,0-5.27-.3h-.24a29.8,29.8,0,0,0-7.3,1,22.75,22.75,0,0,0-7.29,3.39,15.31,15.31,0,0,0-3.68,3.64Z"/><path class="cls-1" d="M106.9,40.9a27.26,27.26,0,0,1,2.91-4.84,15.21,15.21,0,0,1,4.55-4,20.23,20.23,0,0,1,6.81-2.36,22.67,22.67,0,0,1,3.91-.32,36.54,36.54,0,0,1,5.73.49,25.41,25.41,0,0,1,8.37,2.44,7.09,7.09,0,0,1,3.27,3.29,5.92,5.92,0,0,1,.27.9,5.44,5.44,0,0,1,.11,1v.11a7.91,7.91,0,0,1-.33,2.18,43.45,43.45,0,0,1-2.06,5.41l-7.18,15.73c-.73-.15-1.48-.29-2.25-.4a39.13,39.13,0,0,0-6-.51,24.65,24.65,0,0,0-4.26.35,22.3,22.3,0,0,0-7.48,2.6,17.33,17.33,0,0,0-5.14,4.55c-.46.61-.89,1.24-1.29,1.87Z"/><path class="cls-1" d="M173.34,37.55c0,.28-.06.56-.11.85,0,.11,0,.23,0,.34-.06.32-.13.65-.21,1l0,.16q-.15.59-.33,1.17a3,3,0,0,1-.11.32c-.1.31-.21.61-.32.92l-.14.35c-.16.41-.33.82-.52,1.24l-.09,32.61a18.52,18.52,0,0,0,1.88-7.59l.1-32.61c0,.33,0,.66,0,1A2.45,2.45,0,0,1,173.34,37.55Z"/><path class="cls-1" d="M215.88,53.57l.27-.34v.38Z"/><path class="cls-1" d="M338.58,54v1.07l-.59.23Z"/><path class="cls-1" d="M218.15,53.92V51.14a17.9,17.9,0,0,1,4.91-3,29.85,29.85,0,0,1,8.14-2A30.87,30.87,0,0,1,235,45.9a49.52,49.52,0,0,1,7.41.62,31,31,0,0,1,10.44,3.16,10.46,10.46,0,0,1,2.52,2,8.92,8.92,0,0,1,.67.85c.05.06.19.28.19.28a6.65,6.65,0,0,1,.39.63l.18.33q.17.33.3.66l.14.34a7.49,7.49,0,0,1,.27.84l.05.13c.11.43.18.8.24,1.18l0,.32c0,.29.06.57.08.87,0,.14,0,.29,0,.44,0,.52,0,1,0,1.56Z"/><polygon class="cls-1" points="2 90.71 2.09 60.13 27.55 64.07 27.46 94.65 2 90.71"/><polygon class="cls-1" points="29.55 63.43 42.85 34.27 42.77 62.02 29.47 91.19 29.55 63.43"/><path class="cls-1" d="M209,66c-.12.43-.23.84-.31,1.25l0,.14c-.07.37-.13.73-.17,1.09a2.6,2.6,0,0,0,0,.26,11,11,0,0,0-.07,1.13,9,9,0,0,0,1.12,4.57l0-10.06q-.26.68-.45,1.32Z"/><path class="cls-1" d="M365.06,68.38a4.68,4.68,0,0,1,1.31,2.29,6.84,6.84,0,0,1,.11.92v.24a8.15,8.15,0,0,1-.56,3.19c-.28.75-.58,1.51-.89,2.28Z"/><polygon class="cls-1" points="92.2 73.13 104.89 45.31 104.81 73.06 92.13 100.88 92.2 73.13"/><polygon class="cls-1" points="64.66 100.41 64.74 69.82 90.2 73.76 90.11 104.35 64.66 100.41"/><path class="cls-1" d="M331.06,74.14a14.56,14.56,0,0,1,4.83-6,21,21,0,0,1,6.65-3.09,27.39,27.39,0,0,1,6.8-.91h.13a36.54,36.54,0,0,1,5.07.27,27.82,27.82,0,0,1,8.53,2.43l0,15-6.21,13.61c-.66-.12-1.35-.24-2.07-.35a35.63,35.63,0,0,0-5.37-.31h-.13a29.89,29.89,0,0,0-7.3,1,23,23,0,0,0-7.29,3.38,15.13,15.13,0,0,0-3.68,3.64Z"/><path class="cls-1" d="M277.63,106.52l.07-24.94-25.51-4-.35.35c-1.58,1.51-4.67,2.75-9.18,3.69a37.32,37.32,0,0,1-7.73.77,48.16,48.16,0,0,1-7.33-.58c-5.53-.86-9.88-2.18-12.93-3.94a14.52,14.52,0,0,1-2.74-2,8.34,8.34,0,0,1-1.38-1.72l0-8.63L280.7,76.4,280.61,107Z"/><path class="cls-1" d="M282.7,75.81a31.88,31.88,0,0,0,1.91-3.9L284.55,95a24.15,24.15,0,0,1-1.93,8.9Z"/><path class="cls-1" d="M127.86,77.57,142.27,46a47.1,47.1,0,0,0,2.16-5.67,9.44,9.44,0,0,0,.41-2.77v-.11a7.64,7.64,0,0,0-.13-1.26l0-.11a8.05,8.05,0,0,0-.36-1.21,9.06,9.06,0,0,0-4.14-4.29,26.85,26.85,0,0,0-9.06-2.68,39.13,39.13,0,0,0-6-.51,24.65,24.65,0,0,0-4.26.35,22.24,22.24,0,0,0-7.47,2.61,17.25,17.25,0,0,0-5.15,4.55A29.82,29.82,0,0,0,105,40.26L90.61,71.8,65.2,67.87,79.46,36.62c.77-1.69,1.49-3.43,2.15-5.19a10.3,10.3,0,0,0,.69-3.95c0-.1,0-.21,0-.31A7.87,7.87,0,0,0,82.13,26a7.69,7.69,0,0,0-3.72-4.8c-.14-.09-.28-.18-.43-.26-2-1.17-5.07-2.06-9.33-2.72a36,36,0,0,0-5.26-.3h-.25a29.82,29.82,0,0,0-7.3,1,22.79,22.79,0,0,0-7.28,3.38,16.76,16.76,0,0,0-5.61,7L28,62.11,2.55,58.18l25.52-56L51.93,5.9l-4.12,9,2.41-1.06c1.11-.49,2.26-1,3.51-1.43A60,60,0,0,1,66.56,9.08a56.29,56.29,0,0,1,8.08-.58,68,68,0,0,1,10.26.82,56.62,56.62,0,0,1,16,4.72c.48.23,1,.48,1.39.73a13.15,13.15,0,0,1,6.56,8l.32,1.18,1.09-.55a57.7,57.7,0,0,1,14.89-4.76,50.23,50.23,0,0,1,9.47-.87,63.16,63.16,0,0,1,9.6.77,81.92,81.92,0,0,1,14,3.34,37.07,37.07,0,0,1,6.18,2.76,22.08,22.08,0,0,1,3.46,2.44,12.42,12.42,0,0,1,4.28,7,11.34,11.34,0,0,1,.18,3.11l0,.25c0,.27-.06.53-.1.8l-.05.32c-.05.3-.11.61-.19.92l0,.11c-.1.41-.21.78-.32,1.15l-.11.31c-.09.29-.2.58-.31.88l-.13.34c-.15.39-.32.78-.5,1.19l-17.34,38Z"/><polygon class="cls-1" points="127.31 110.11 127.4 79.52 152.86 83.46 152.78 114.04 127.31 110.11"/><polygon class="cls-1" points="154.87 82.82 170.5 48.52 170.43 76.27 154.79 110.58 154.87 82.82"/><path class="cls-1" d="M524.6,59.21l-.05,19.67a47.76,47.76,0,0,0-10.21,2.83Z"/><path class="cls-1" d="M393.11,85.18A27.18,27.18,0,0,1,396,80.35a15.4,15.4,0,0,1,4.56-4A20.39,20.39,0,0,1,407.37,74a22.39,22.39,0,0,1,3.89-.31,37.93,37.93,0,0,1,5.74.48,25,25,0,0,1,8.4,2.46,7.15,7.15,0,0,1,3.26,3.28,6.28,6.28,0,0,1,.26.89,5.45,5.45,0,0,1,.11,1v.1A7.18,7.18,0,0,1,428.7,84a42.26,42.26,0,0,1-2.06,5.41l-7.17,15.73c-.74-.15-1.49-.28-2.26-.4a39.36,39.36,0,0,0-6-.51,24.33,24.33,0,0,0-4.24.35,22.16,22.16,0,0,0-7.48,2.61,17.36,17.36,0,0,0-5.14,4.55c-.46.61-.89,1.23-1.28,1.86Z"/><path class="cls-1" d="M459.53,81.84c0,.28-.06.56-.1.85l-.06.33c-.05.33-.12.66-.2,1l0,.16c-.1.38-.21.77-.33,1.16,0,.11-.08.22-.11.33-.1.3-.21.6-.32.91l-.14.36c-.16.4-.33.82-.52,1.23l-.1,32.61a18.39,18.39,0,0,0,1.89-7.59l.09-32.61c0,.33,0,.66,0,1Z"/><path class="cls-1" d="M237.37,94.88a105.71,105.71,0,0,1-16.14-1.31,83.59,83.59,0,0,1-20-5.4,55,55,0,0,1-5.38-2.68,32.58,32.58,0,0,1-7.5-5.78A20.38,20.38,0,0,1,182.8,69c-.08-.49-.15-1-.19-1.48a1.93,1.93,0,0,0,0-.24v-.37c0-.29,0-.59,0-.89a22.65,22.65,0,0,1,2.21-9.3,30.88,30.88,0,0,1,8.9-11.16,49,49,0,0,1,14.56-7.9,76.92,76.92,0,0,1,18.84-3.89c2.31-.19,4.68-.29,7.06-.29a95.32,95.32,0,0,1,14.56,1.16C257,36,264,38,269.31,40.85c.54.29,1.07.58,1.58.88A30.22,30.22,0,0,1,281,50.61a20.17,20.17,0,0,1,3.62,11.75,25.69,25.69,0,0,1-3.47,12.09L208.93,63.27l-.29.76c-.18.47-.33.93-.47,1.38l-.09.31c-.13.45-.24.9-.33,1.33l0,.11c-.09.43-.15.82-.2,1.2l0,.28c0,.42-.07.82-.07,1.22a10.13,10.13,0,0,0,1.24,5.07,10.65,10.65,0,0,0,1.88,2.42,16.27,16.27,0,0,0,3.12,2.3c3.26,1.88,7.85,3.29,13.62,4.18a49.8,49.8,0,0,0,7.64.61,39.75,39.75,0,0,0,8.13-.81c4.65-1,7.85-2.23,9.79-3.87l21.56,3.34a49,49,0,0,1-22.47,10.49,80.27,80.27,0,0,1-14.57,1.29ZM235,43.9a33,33,0,0,0-4.08.24,32.07,32.07,0,0,0-8.69,2.18,19.33,19.33,0,0,0-5.8,3.66,17.91,17.91,0,0,0-3.17,3.83l-.73,1.27,47.12,7.29.13-1a18.8,18.8,0,0,0,.16-2.9c0-.19,0-.34,0-.5,0-.34,0-.67-.1-1,0,0,0-.29,0-.37a13.19,13.19,0,0,0-.27-1.31,1.21,1.21,0,0,0-.05-.18c-.12-.41-.22-.74-.35-1.07l-.12-.31c-.16-.36-.28-.63-.41-.88s-.14-.28-.22-.41a8.65,8.65,0,0,0-.47-.76l-.05-.09-.17-.25a11.16,11.16,0,0,0-.81-1,12.29,12.29,0,0,0-3-2.37,32.78,32.78,0,0,0-11.14-3.41A52,52,0,0,0,235,43.9Z"/><path class="cls-1" d="M237.28,127.48a107.17,107.17,0,0,1-16.15-1.3,83.14,83.14,0,0,1-20-5.41,52.87,52.87,0,0,1-5.38-2.67,32.61,32.61,0,0,1-7.5-5.79,20.32,20.32,0,0,1-5.51-10.67,17.81,17.81,0,0,1-.25-3l.07-23.82a24.14,24.14,0,0,0,4.32,6.26,34.31,34.31,0,0,0,8,6.15A52.93,52.93,0,0,0,200.4,90a85.69,85.69,0,0,0,20.52,5.55,108.47,108.47,0,0,0,16.45,1.33,81.65,81.65,0,0,0,14.94-1.33A50.76,50.76,0,0,0,275.7,84.63l-.09,30a48.92,48.92,0,0,1-23.76,11.59A79.39,79.39,0,0,1,237.28,127.48Z"/><polygon class="cls-1" points="315.75 107.72 329.05 78.56 328.97 106.31 315.67 135.47 315.75 107.72"/><polygon class="cls-1" points="288.2 135 288.28 104.41 313.74 108.36 313.66 138.94 288.2 135"/><path class="cls-1" d="M511.63,125.47a21.5,21.5,0,0,1-4.53-1.91,13.75,13.75,0,0,1-5.12-4.85,10.93,10.93,0,0,1-1.42-6,18.8,18.8,0,0,1,1.72-6.78,25.48,25.48,0,0,1,4.4-6.59,24.35,24.35,0,0,1,6.68-5.05,29.12,29.12,0,0,1,8.91-2.85,30.55,30.55,0,0,1,4.85-.38,39.14,39.14,0,0,1,6,.49,27.3,27.3,0,0,1,9.33,2.91l.17.1a13.62,13.62,0,0,1,5,4.84,10.49,10.49,0,0,1,.6,1.21l0,.1a10.26,10.26,0,0,1,.41,1.22l.05.18a9.73,9.73,0,0,1,.23,1.22l0,.21a11.05,11.05,0,0,1,.07,1.27c0,.21,0,.42,0,.64a18.74,18.74,0,0,1-1.77,6.89,25.14,25.14,0,0,1-4.34,6.47,23.54,23.54,0,0,1-5.31,4.26,42.17,42.17,0,0,0-10.58-1.4,32.23,32.23,0,0,0-5.17.4,31.14,31.14,0,0,0-9.51,3Z"/><path class="cls-1" d="M620.24,116.13l.26-.32v.36Z"/><polygon class="cls-1" points="350.86 144.69 350.95 114.11 376.41 118.05 376.32 148.63 350.86 144.69"/><polygon class="cls-1" points="378.41 117.41 391.09 89.59 391.01 117.35 378.33 145.17 378.41 117.41"/><path class="cls-1" d="M622.5,116.48v-2.77a18.47,18.47,0,0,1,4.92-3,30.22,30.22,0,0,1,8.14-2,30.87,30.87,0,0,1,3.83-.22,48.13,48.13,0,0,1,7.41.62,30.78,30.78,0,0,1,10.45,3.16,10.46,10.46,0,0,1,2.52,2c.24.27.46.56.67.85l.19.27c.14.21.27.42.39.64s.12.22.17.33.21.43.3.65l.15.35c.1.26.18.54.26.82l.05.15a9.89,9.89,0,0,1,.24,1.18l0,.31c0,.29.07.58.09.89,0,.12,0,.24,0,.36,0,.57,0,1.1,0,1.62Z"/><path class="cls-1" d="M742.34,116.51v2.79c-.59.32-1.16.64-1.7,1Z"/><path class="cls-1" d="M414.06,121.85l14.4-31.59a43.72,43.72,0,0,0,2.16-5.67,9.44,9.44,0,0,0,.41-2.77V81.7a9.22,9.22,0,0,0-.13-1.26l0-.09a6.42,6.42,0,0,0-.36-1.22,9,9,0,0,0-4.11-4.27,27,27,0,0,0-9.1-2.71,40.46,40.46,0,0,0-6-.5A24.37,24.37,0,0,0,407,72a22.46,22.46,0,0,0-7.48,2.62,17.09,17.09,0,0,0-5.14,4.55,28.75,28.75,0,0,0-3.2,5.39l-14.39,31.54-25.4-3.93L365.65,80.9c.79-1.73,1.52-3.47,2.16-5.19a10.48,10.48,0,0,0,.68-3.95v-.3a7.47,7.47,0,0,0-.16-1.19,7.65,7.65,0,0,0-3.71-4.8c-2.37-1.39-5.37-2.3-9.76-3a36,36,0,0,0-5.38-.3h-.13a29.45,29.45,0,0,0-7.3,1,23.17,23.17,0,0,0-7.29,3.38,16.7,16.7,0,0,0-5.6,7l-15,32.88-25.4-3.93,25.52-56,23.86,3.7-4.12,9,2.41-1.06c1.12-.5,2.27-1,3.5-1.44a61.39,61.39,0,0,1,12.84-3.35,56.34,56.34,0,0,1,8.09-.57,66.36,66.36,0,0,1,10.24.82,56.57,56.57,0,0,1,16.05,4.71c.48.23.93.47,1.37.73,3.53,2,5.68,4.64,6.58,8l.32,1.19,1.1-.56a57.76,57.76,0,0,1,14.88-4.75,50.44,50.44,0,0,1,9.49-.88,62.78,62.78,0,0,1,9.57.77,81.53,81.53,0,0,1,14,3.35,36,36,0,0,1,6.19,2.77,22.39,22.39,0,0,1,3.45,2.42,12.52,12.52,0,0,1,4.28,7,11,11,0,0,1,.17,3.11v.16c0,.35-.07.62-.11.89l-.05.31c-.06.31-.12.62-.19.93l0,.11c-.09.4-.2.77-.32,1.14l-.1.31c-.1.29-.2.58-.31.88l-.13.33c-.16.4-.32.8-.5,1.2l-17.35,38Z"/><polygon class="cls-1" points="413.51 154.39 413.6 123.8 439.06 127.74 438.97 158.33 413.51 154.39"/><polygon class="cls-1" points="441.06 127.11 456.7 92.8 456.63 120.55 440.98 154.86 441.06 127.11"/><path class="cls-1" d="M566.76,130.45a37.55,37.55,0,0,0,9.84-13.19c.28-.62.53-1.22.77-1.82l.09-.26-.06,22.95a26.8,26.8,0,0,1-2.72,10.9,35.92,35.92,0,0,1-8,11.34Z"/><polygon class="cls-1" points="776.37 131.78 781.09 121.42 781.01 149.18 776.29 159.54 776.37 131.78"/><path class="cls-1" d="M613.39,128.57c-.12.42-.23.84-.31,1.24l0,.14c-.07.37-.13.73-.17,1.09l0,.26c0,.39-.06.76-.07,1.13a9.18,9.18,0,0,0,1.11,4.57l0-10c-.17.45-.31.89-.44,1.32Z"/><polygon class="cls-1" points="488.82 134.52 490.56 131.12 490.48 159.31 488.74 162.71 488.82 134.52"/><polygon class="cls-1" points="462.63 161.99 462.72 131.4 486.82 135.13 486.73 165.72 462.63 161.99"/><path class="cls-1" d="M682,169.09l.07-24.94-25.51-4-.36.34c-1.57,1.52-4.66,2.76-9.18,3.7a38,38,0,0,1-7.73.77,48,48,0,0,1-7.32-.58c-5.54-.86-9.89-2.19-12.92-3.94a14.31,14.31,0,0,1-2.74-2,8.56,8.56,0,0,1-1.4-1.74l0-8.61L685.06,139,685,169.55Z"/><path class="cls-1" d="M687.06,138.38a32.39,32.39,0,0,0,1.9-3.89l-.06,23a24.13,24.13,0,0,1-1.92,8.9Z"/><path class="cls-1" d="M530.25,173.23a63.68,63.68,0,0,1-9.76-.73,76.76,76.76,0,0,1-18.57-5,29.16,29.16,0,0,1-3-1.48,14.7,14.7,0,0,1-6.48-6.66l.08-28.78a19.11,19.11,0,0,0,5.49,4.57,31.21,31.21,0,0,0,3.17,1.58,79.34,79.34,0,0,0,19,5.14,66.47,66.47,0,0,0,10.07.76c1.92,0,3.89-.08,5.87-.24a60.84,60.84,0,0,0,16-3.49,48.48,48.48,0,0,0,12.55-6.85l-.09,30.06a46.36,46.36,0,0,1-13.24,7.52A58.51,58.51,0,0,1,536,173C534,173.15,532.11,173.23,530.25,173.23Z"/><path class="cls-1" d="M530.34,140.63a63.68,63.68,0,0,1-9.76-.74,76.76,76.76,0,0,1-18.57-5,29.15,29.15,0,0,1-3-1.47,14.58,14.58,0,0,1-6.55-6.85l-.82-2-4.42,8.62-24.08-3.73,35.57-78,25.41,3.92L510.3,85.75l2.47-1.17a45.66,45.66,0,0,1,12.92-3.85c1.34-.2,2.56-.34,3.74-.43,2.13-.17,4.27-.25,6.38-.25A79.06,79.06,0,0,1,548,81a53.58,53.58,0,0,1,13.81,4,33.38,33.38,0,0,1,3.38,1.72,29.26,29.26,0,0,1,7,5.57,19.93,19.93,0,0,1,5,10.43,16.62,16.62,0,0,1,.22,3l0,.42c0,.35,0,.71-.06,1.07,0,.17,0,.33,0,.5-.05.38-.1.76-.17,1.15l-.06.39c-.1.52-.21,1-.34,1.57l-.1.34c-.11.43-.23.86-.37,1.3l-.18.54c-.14.4-.28.8-.43,1.21l-.2.52c-.23.57-.47,1.14-.73,1.73a35.52,35.52,0,0,1-9.65,12.78,46.62,46.62,0,0,1-13.6,7.81,58.67,58.67,0,0,1-15.48,3.37C534.12,140.55,532.2,140.63,530.34,140.63ZM527.12,89a33.3,33.3,0,0,0-5.16.4,31.47,31.47,0,0,0-9.52,3A25.78,25.78,0,0,0,505.21,98a27.41,27.41,0,0,0-4.75,7.1,20.6,20.6,0,0,0-1.9,7.51,12.94,12.94,0,0,0,1.69,7.14,15.69,15.69,0,0,0,5.84,5.59,24.07,24.07,0,0,0,5.4,2.22,37.12,37.12,0,0,0,4.71,1,41.6,41.6,0,0,0,6.42.52,32.21,32.21,0,0,0,14.54-3.47c.27-.14.53-.29.79-.44l.31-.19a25.9,25.9,0,0,0,6.14-4.85,26.91,26.91,0,0,0,4.68-7A20.74,20.74,0,0,0,551,105.5c0-.25,0-.5,0-.75,0-.48,0-1-.08-1.49l0-.24a13.1,13.1,0,0,0-.28-1.44l0-.15a13,13,0,0,0-.49-1.49l0-.11a13.48,13.48,0,0,0-.72-1.47,15.7,15.7,0,0,0-5.74-5.57l-.18-.11a29.19,29.19,0,0,0-10-3.16A40.74,40.74,0,0,0,527.12,89Z"/><path class="cls-1" d="M731.21,144.09a26.41,26.41,0,0,1,4.41-6.61,21.78,21.78,0,0,1,6.91-4.94,31.63,31.63,0,0,1,9.92-2.59,39.19,39.19,0,0,1,4.29-.22,58.45,58.45,0,0,1,8.87.74c1.68.26,3.39.58,5.08,1,1.35.3,2.58.6,3.68.89l-.09,30.54c-1-.25-2.08-.51-3.25-.77-1.73-.39-3.48-.73-5.2-1a60.1,60.1,0,0,0-9.18-.77,40.86,40.86,0,0,0-4.52.24,33.87,33.87,0,0,0-10.54,2.76,23.84,23.84,0,0,0-7.54,5.41,28.39,28.39,0,0,0-2.92,3.8Z"/><path class="cls-1" d="M641.64,190.05a107.4,107.4,0,0,1-16.16-1.3,83.14,83.14,0,0,1-20-5.41,49,49,0,0,1-5.38-2.68,32.31,32.31,0,0,1-7.5-5.78,20.39,20.39,0,0,1-5.51-10.67,18.12,18.12,0,0,1-.24-3l.06-23.8a24.23,24.23,0,0,0,4.32,6.26,34.31,34.31,0,0,0,8,6.15,52.93,52.93,0,0,0,5.59,2.78,85.23,85.23,0,0,0,20.52,5.55,108.83,108.83,0,0,0,16.47,1.33,81.32,81.32,0,0,0,14.91-1.33A50.77,50.77,0,0,0,680,147.2l-.08,30a48.91,48.91,0,0,1-23.77,11.59A79.09,79.09,0,0,1,641.64,190.05Z"/><path class="cls-1" d="M641.74,157.45a106.29,106.29,0,0,1-16.17-1.31,83.4,83.4,0,0,1-20-5.41,50.88,50.88,0,0,1-5.38-2.67,32.34,32.34,0,0,1-7.5-5.79,20.37,20.37,0,0,1-5.5-10.67c-.09-.5-.15-1-.19-1.49,0-.08,0-.61,0-.61,0-.3,0-.59,0-.89a22.47,22.47,0,0,1,2.2-9.3,30.91,30.91,0,0,1,8.9-11.15,48.72,48.72,0,0,1,14.57-7.9,76.12,76.12,0,0,1,18.83-3.88c2.32-.2,4.7-.3,7.09-.3A95.1,95.1,0,0,1,653,97.23c8.37,1.3,15.31,3.38,20.62,6.19.55.29,1.07.58,1.59.88a30.08,30.08,0,0,1,10.12,8.88A20.09,20.09,0,0,1,689,124.93,25.67,25.67,0,0,1,685.53,137l-72.26-11.18-.29.76c-.17.47-.32.93-.46,1.38l-.09.32c-.13.44-.24.88-.33,1.31l0,.1c-.09.44-.15.83-.19,1.21l0,.28c0,.42-.06.82-.07,1.22a10,10,0,0,0,3.12,7.49,16.07,16.07,0,0,0,3.13,2.31c3.25,1.88,7.83,3.29,13.62,4.18a49.35,49.35,0,0,0,7.62.61,39.85,39.85,0,0,0,8.14-.81c4.64-1,7.85-2.24,9.78-3.87l21.57,3.33a48.78,48.78,0,0,1-22.47,10.5,80,80,0,0,1-14.55,1.29Zm-2.35-51a34.89,34.89,0,0,0-4.07.23,32.5,32.5,0,0,0-8.69,2.19,19.59,19.59,0,0,0-5.82,3.66,18.65,18.65,0,0,0-3.16,3.83l-.73,1.26,47.13,7.3.13-1a17.27,17.27,0,0,0,.15-2.88c0-.21,0-.36,0-.5,0-.35,0-.68-.1-1l0-.36a11.07,11.07,0,0,0-.26-1.3l-.06-.19c-.12-.42-.22-.75-.34-1.06a2.52,2.52,0,0,0-.14-.33c-.14-.35-.26-.61-.39-.87s-.14-.28-.22-.41-.3-.51-.47-.76l-.22-.34a11.74,11.74,0,0,0-.82-1,12.21,12.21,0,0,0-3-2.36,32.78,32.78,0,0,0-11.14-3.41A50.87,50.87,0,0,0,639.39,106.47Z"/><polygon class="cls-1" points="719.33 170.17 729.2 148.5 729.12 176.26 719.25 197.92 719.33 170.17"/><polygon class="cls-1" points="691.78 197.45 691.87 166.86 717.33 170.81 717.24 201.39 691.78 197.45"/><path class="cls-1" d="M692.33,164.91l25.52-56,24,3.72L737,123.41l2.1.32.34-.25a30.72,30.72,0,0,1,4.35-2.68c1.06-.55,2-1,2.93-1.37a47.74,47.74,0,0,1,9.13-2.69,62.7,62.7,0,0,1,10.08-1.1l1.58,0a57.63,57.63,0,0,1,8.7.67,30.2,30.2,0,0,1,4.52,1.1l-5.92,13c-1.11-.29-2.34-.59-3.69-.89-1.73-.39-3.48-.72-5.2-1a61.21,61.21,0,0,0-9.18-.76,43.18,43.18,0,0,0-4.51.23,34.07,34.07,0,0,0-10.54,2.76,23.73,23.73,0,0,0-7.54,5.41,28.3,28.3,0,0,0-4.84,7.32l-11.58,25.39Z"/></g></g></svg>