<svg xmlns="http://www.w3.org/2000/svg" viewBox="0 0 158.72 158.64"><defs><style>.cls-1{fill:#fff;}.cls-2{fill:#1b1b1b;}.cls-3{font-size:25px;font-family:YuGo-Bold, YuGo Bold-83pv-RKSJ-H;font-weight:700;letter-spacing:0.12em;}</style></defs><g id="レイヤー_2" data-name="レイヤー 2"><g id="レイヤー_1-2" data-name="レイヤー 1"><circle class="cls-1" cx="79.36" cy="79.32" r="73.91"/><path class="cls-2" d="M113.88,19.52,119,10.61a5.26,5.26,0,0,1,1.62,1.44,4.17,4.17,0,0,0,1,.77c.35.23.78.35,1.15.56a9,9,0,0,1,1.72,1.24A13.85,13.85,0,0,0,126.36,16a9.64,9.64,0,0,0,2.11,1,6.24,6.24,0,0,1,1.71.86,7,7,0,0,1,1.32,1.34c.93,1.13,1.82,2.19,2.81,3.19a4.83,4.83,0,0,1,.7,1s0,0,0,.06a5.75,5.75,0,0,0,.84.92c1.71,1.52,2.93,3.44,4.51,5A17.28,17.28,0,0,1,143,32.89c.94,1.22,1.83,2.46,2.64,3.75L147,38.53c.41.63.84,1.25,1.3,1.86a15.79,15.79,0,0,1,2.43,4.12c.53,1.38,1.12,2.73,1.77,4a18.45,18.45,0,0,1,1.74,5.32,4.81,4.81,0,0,0,.54,1.51,22.4,22.4,0,0,1,2.12,6,24.51,24.51,0,0,1,1,6,5.2,5.2,0,0,0,.12,1.18c.72,3.52.48,7.26.7,10.85H148.42a15.89,15.89,0,0,1,0-4.52,4.7,4.7,0,0,0-.19-1.33,3.22,3.22,0,0,1,.07-2.08.79.79,0,0,0,0-.69,7.74,7.74,0,0,1-.83-3,10.86,10.86,0,0,0-.48-1.65,7.2,7.2,0,0,1-.48-1.29,41.21,41.21,0,0,0-1.13-4.37A42,42,0,0,1,144.25,56a6.79,6.79,0,0,0-.57-1.64c-.43-1-.81-2-1.29-3a20,20,0,0,0-1.58-2.91c-.24-.59-.51-1.16-.8-1.73s-.64-1.1-1-1.64c-.65-1.09-1.4-2.12-2.09-3.18a3.47,3.47,0,0,0-.92-1,3.17,3.17,0,0,1-1.71-2.51,1.84,1.84,0,0,0-.65-1.17,4.62,4.62,0,0,1-.52-.46c-.41-.43-.8-.85-1.2-1.26s-.62-1-1.13-1.3a1.94,1.94,0,0,1-.56-.83A6.94,6.94,0,0,0,129,31.42c-.16-.2-.36-.37-.55-.58s-.46-.39-.65-.56l-.41-.35c-.6-.51-1.18-1-1.75-1.55l-1.78-1.5A34,34,0,0,0,121,24.49c-.9-.64-1.83-1.25-2.76-1.86S115,20,113.88,19.52Z"/><path class="cls-2" d="M44.84,19.52l-5.15-8.91a5.87,5.87,0,0,1,2-.69,4.13,4.13,0,0,0,1.16-.46c.38-.2.7-.5,1.07-.72a8.84,8.84,0,0,1,1.93-.87A12.47,12.47,0,0,0,50,5.64,6,6,0,0,1,53.4,4.11c1.46-.22,2.8-.51,4.17-.84a5.23,5.23,0,0,1,1.19-.12s0,0,.07,0A7.26,7.26,0,0,0,60,2.87a32.4,32.4,0,0,1,3.32-.75,30.79,30.79,0,0,0,3.32-.61A17.85,17.85,0,0,1,71,1c1.51-.2,3-.3,4.56-.41s3-.18,4.53-.34a15.64,15.64,0,0,1,4.78,0c1.46.22,2.93.33,4.36.48a18.18,18.18,0,0,1,5.49,1.11,6.16,6.16,0,0,0,1.57.31,16,16,0,0,1,3.15.33c1,.23,2.06.52,3.09.79s1.94.57,2.9.87A12.72,12.72,0,0,1,108.2,5.3a5,5,0,0,0,1.09.46A72.43,72.43,0,0,1,119,10.61l-5.15,8.91A17.34,17.34,0,0,1,110,17.27a3.64,3.64,0,0,0-1.24-.5A2.9,2.9,0,0,1,107,15.68a.81.81,0,0,0-.59-.37,6.73,6.73,0,0,1-3-.77,9.86,9.86,0,0,0-1.67-.39,5.53,5.53,0,0,1-1.36-.23c-2.85-1-5.82-1.43-8.69-2.43a8.28,8.28,0,0,0-1.71-.37l-3.27-.38a30.42,30.42,0,0,0-3.31-.09,26.92,26.92,0,0,0-3.81-.15c-1.28.07-2.55.18-3.81.22a3.61,3.61,0,0,0-1.31.34,3.43,3.43,0,0,1-3,.22,1.85,1.85,0,0,0-1.35,0,5.53,5.53,0,0,1-.66.2c-.59.12-1.13.31-1.68.43a8.55,8.55,0,0,0-1.7.3,2.19,2.19,0,0,1-1,.09,7.45,7.45,0,0,0-2.31.1,4,4,0,0,0-.78.19c-.24.07-.56.22-.8.29L60.6,13c-1.49.48-2.94,1-4.41,1.52-1.13.45-2.38.7-3.48,1.25l-3,1.47C48.63,17.83,45.86,18.81,44.84,19.52Z"/><path class="cls-2" d="M10.3,79.32H0A6,6,0,0,1,.48,77.2,4.19,4.19,0,0,0,.63,76c0-.42-.09-.85-.09-1.28a13.48,13.48,0,0,1,.22-2.1,12.37,12.37,0,0,0,.11-4.66,6.24,6.24,0,0,1,.38-3.73,36.67,36.67,0,0,0,1.35-4,3.81,3.81,0,0,1,.49-1.09s0,0,.05-.06a6,6,0,0,0,.37-1.18,19.1,19.1,0,0,1,1-3.25c.42-1.05.76-2.12,1.11-3.19a16.43,16.43,0,0,1,1.69-4c.29-.71.6-1.41.91-2.11l1-2.05c.65-1.38,1.38-2.71,2-4.11A16.53,16.53,0,0,1,13.56,35c1-1.13,1.79-2.35,2.62-3.52.54-.77,1.09-1.52,1.69-2.24a14.36,14.36,0,0,1,2-1.94,4.7,4.7,0,0,0,1-1.22,17.93,17.93,0,0,1,1.88-2.54c.69-.8,1.49-1.52,2.24-2.28s1.43-1.41,2.19-2.08a12.73,12.73,0,0,1,2.45-1.79,5.34,5.34,0,0,0,.94-.7A38,38,0,0,1,35,13.45l4.66-2.84,5.15,8.91a17.1,17.1,0,0,1-3.9,2.27,4,4,0,0,0-1,.84,2.9,2.9,0,0,1-1.84,1,.75.75,0,0,0-.6.35,7.11,7.11,0,0,1-2.18,2.22,11.66,11.66,0,0,0-1.18,1.26,5,5,0,0,1-.89,1.05c-2.26,2-4.15,4.33-6.46,6.32a6.17,6.17,0,0,0-1.15,1.3,37.25,37.25,0,0,0-3.72,5.46,20.29,20.29,0,0,0-2,3.22L19,46.47c-.28.57-.54,1.15-.83,1.71a3.91,3.91,0,0,0-.4,1.29,3.19,3.19,0,0,1-1.3,2.73,1.72,1.72,0,0,0-.71,1.15,3.91,3.91,0,0,1-.14.68c-.16.57-.31,1.12-.49,1.66a7.83,7.83,0,0,0-.56,1.63,1.84,1.84,0,0,1-.43.9A6.26,6.26,0,0,0,13,60.27a7.12,7.12,0,0,0-.21.77c-.07.24-.11.59-.18.83a5.12,5.12,0,0,0-.1.54c-.26,1.54-.65,3-.86,4.58a12.7,12.7,0,0,1-.39,1.81,10.2,10.2,0,0,0-.25,1.83l-.16,1.66L10.83,74C10.71,75.19,10.27,78.08,10.3,79.32Z"/><path class="cls-2" d="M44.84,139.12,39.69,148a5.4,5.4,0,0,1-1.62-1.44,4.12,4.12,0,0,0-1-.77c-.36-.23-.78-.36-1.15-.56A8.74,8.74,0,0,1,34.22,144a13,13,0,0,0-1.86-1.39,9.24,9.24,0,0,0-2.11-1,6,6,0,0,1-1.71-.86,6.7,6.7,0,0,1-1.32-1.34c-.93-1.13-1.82-2.18-2.81-3.18a5.19,5.19,0,0,1-.71-1c0-.05,0-.05,0-.07a6.71,6.71,0,0,0-.84-.91c-1.71-1.53-2.94-3.44-4.51-5a17.07,17.07,0,0,1-2.64-3.48c-.94-1.21-1.83-2.45-2.64-3.74l-1.28-1.89c-.42-.64-.85-1.26-1.3-1.86A16,16,0,0,1,8,114.12c-.54-1.38-1.12-2.73-1.77-4a18.26,18.26,0,0,1-1.74-5.32A5.17,5.17,0,0,0,4,103.27a22.46,22.46,0,0,1-2.12-6,24.11,24.11,0,0,1-1-6,5.05,5.05,0,0,0-.12-1.17C0,86.64.23,82.91,0,79.32H10.3a15.47,15.47,0,0,1,0,4.51,5.22,5.22,0,0,0,.2,1.34,3.19,3.19,0,0,1-.08,2.07.85.85,0,0,0,0,.7,7.86,7.86,0,0,1,.83,3,11.57,11.57,0,0,0,.48,1.65,7.72,7.72,0,0,1,.48,1.29,41,41,0,0,0,1.13,4.36,42.64,42.64,0,0,1,1.09,4.39,6.84,6.84,0,0,0,.56,1.65c.43,1,.81,2,1.3,3a19.62,19.62,0,0,0,1.58,2.92c.24.58.51,1.16.8,1.73s.64,1.09,1,1.63c.66,1.1,1.41,2.13,2.1,3.18a3.38,3.38,0,0,0,.92,1,3.17,3.17,0,0,1,1.71,2.5,1.87,1.87,0,0,0,.65,1.18,4.62,4.62,0,0,1,.52.46l1.19,1.25a9.22,9.22,0,0,0,1.13,1.31,1.8,1.8,0,0,1,.56.83,7.06,7.06,0,0,0,1.26,1.93,4.94,4.94,0,0,0,.55.58c.17.19.46.39.65.56l.41.36c.6.5,1.17,1,1.74,1.55l1.79,1.5c.94.77,1.8,1.71,2.82,2.39s1.84,1.25,2.77,1.85S43.72,138.59,44.84,139.12Z"/><path class="cls-2" d="M113.88,139.12,119,148a6.06,6.06,0,0,1-2,.69,4.19,4.19,0,0,0-1.15.46c-.38.19-.7.49-1.07.71a8.87,8.87,0,0,1-1.93.88,12.27,12.27,0,0,0-4.09,2.22,5.94,5.94,0,0,1-3.43,1.53c-1.45.22-2.8.51-4.16.84a5.23,5.23,0,0,1-1.19.12s0,0-.07,0a8.57,8.57,0,0,0-1.21.29,31.64,31.64,0,0,1-3.31.75,33.48,33.48,0,0,0-3.32.62,18.35,18.35,0,0,1-4.33.55c-1.52.2-3,.3-4.56.41s-3,.19-4.54.35a15.58,15.58,0,0,1-4.77,0c-1.47-.23-2.93-.34-4.37-.49A17.82,17.82,0,0,1,64,156.86a6.15,6.15,0,0,0-1.57-.3,15.89,15.89,0,0,1-3.15-.33c-1-.24-2.06-.53-3.1-.79s-1.93-.57-2.89-.88a12.06,12.06,0,0,1-2.77-1.23,5.74,5.74,0,0,0-1.09-.46A72.36,72.36,0,0,1,39.69,148l5.15-8.91a17,17,0,0,1,3.91,2.24,3.77,3.77,0,0,0,1.25.5,2.92,2.92,0,0,1,1.77,1.1.75.75,0,0,0,.59.36,6.79,6.79,0,0,1,3,.77,8.34,8.34,0,0,0,1.68.39,5.1,5.1,0,0,1,1.36.24c2.85,1,5.82,1.43,8.69,2.43a8.3,8.3,0,0,0,1.7.36l3.28.38a30.35,30.35,0,0,0,3.31.09,26.92,26.92,0,0,0,3.81.16c1.28-.07,2.55-.18,3.81-.22a4.07,4.07,0,0,0,1.31-.34,3.36,3.36,0,0,1,3-.22,1.9,1.9,0,0,0,1.35,0,5.06,5.06,0,0,1,.66-.21c.58-.11,1.13-.3,1.68-.42a8.58,8.58,0,0,0,1.7-.31,2.33,2.33,0,0,1,1-.08,7.46,7.46,0,0,0,2.31-.1,5.76,5.76,0,0,0,.77-.19c.25-.07.56-.22.81-.29l.51-.18c1.49-.48,2.94-1,4.41-1.52,1.13-.46,2.38-.7,3.48-1.25l3-1.47C110.09,140.8,112.86,139.83,113.88,139.12Z"/><path class="cls-2" d="M148.42,79.32h10.29a6.13,6.13,0,0,1-.47,2.11,4.58,4.58,0,0,0-.16,1.24c0,.42.1.85.09,1.27a11.53,11.53,0,0,1-.22,2.11,12.57,12.57,0,0,0-.1,4.66,6.24,6.24,0,0,1-.38,3.73,35.31,35.31,0,0,0-1.35,4,3.93,3.93,0,0,1-.49,1.09s0,0,0,0a6,6,0,0,0-.37,1.19,19.27,19.27,0,0,1-1,3.24c-.42,1-.76,2.12-1.11,3.19a16.82,16.82,0,0,1-1.69,4c-.29.71-.6,1.42-.91,2.12l-1,2c-.65,1.37-1.38,2.7-2,4.1a16.53,16.53,0,0,1-2.36,4.16c-1,1.13-1.79,2.35-2.62,3.53-.54.76-1.09,1.51-1.69,2.23a13.89,13.89,0,0,1-2,1.94,5.39,5.39,0,0,0-1,1.23,17.66,17.66,0,0,1-1.87,2.54c-.7.8-1.49,1.51-2.24,2.28s-1.44,1.41-2.2,2.07a12.55,12.55,0,0,1-2.44,1.79,5.47,5.47,0,0,0-.95.71,38.2,38.2,0,0,1-4.39,3.19L119,148l-5.15-8.91a16.68,16.68,0,0,1,3.9-2.27,4.41,4.41,0,0,0,1-.84,2.89,2.89,0,0,1,1.84-1,.73.73,0,0,0,.6-.34,6.8,6.8,0,0,1,2.18-2.22,11.5,11.5,0,0,0,1.17-1.26,5.37,5.37,0,0,1,.9-1.05c2.25-2,4.15-4.33,6.46-6.32a6,6,0,0,0,1.15-1.31,37.16,37.16,0,0,0,3.72-5.45,21,21,0,0,0,2-3.22l.88-1.7c.28-.57.54-1.14.83-1.7a3.65,3.65,0,0,0,.39-1.3,3.21,3.21,0,0,1,1.31-2.72,1.74,1.74,0,0,0,.71-1.15,4.81,4.81,0,0,1,.13-.68c.17-.58.32-1.12.5-1.66a7.81,7.81,0,0,0,.55-1.63,1.9,1.9,0,0,1,.44-.9,6,6,0,0,0,1-2,7.78,7.78,0,0,0,.22-.77c.07-.25.11-.59.18-.84s.06-.36.1-.53c.25-1.55.65-3,.85-4.58a14.28,14.28,0,0,1,.4-1.81,11.5,11.5,0,0,0,.25-1.83l.15-1.66.07-1.66C148,83.45,148.45,80.55,148.42,79.32Z"/><text class="cls-3" transform="translate(51.36 87.49)">映像</text></g></g></svg>