<svg xmlns="http://www.w3.org/2000/svg" viewBox="0 0 400.56 155.82"><defs><style>.cls-1{fill:#fff;}</style></defs><g id="レイヤー_2" data-name="レイヤー 2"><g id="レイヤー_1-2" data-name="レイヤー 1"><path d="M282.81,42.84l.1-33.67L311,5.91l2.66,7.57a25.1,25.1,0,0,1,10.83-8.32A59.16,59.16,0,0,1,341.25.76a106,106,0,0,1,12-.76,59.54,59.54,0,0,1,7.21.4,40,40,0,0,1,13.32,3.68c.46.23.91.47,1.35.73a24.55,24.55,0,0,1,7.44,6.5,36.43,36.43,0,0,1,5.3,10l12.73,36.28-.1,33.67L371,94.7l-11.9-33.93c-1.62-4.6-4.07-7.92-7.3-9.87a19,19,0,0,0-9.66-2.13,43.07,43.07,0,0,0-4.88.3,38.81,38.81,0,0,0-8.93,2l5,14.37-.09,33.67-29.51,3.42Z"/><path d="M212.25,114c-1.2,0-2.4,0-3.56-.08A52.18,52.18,0,0,1,196.35,112a31.22,31.22,0,0,1-6.69-2.82,24.88,24.88,0,0,1-2.9-2,17.29,17.29,0,0,1-5.72-8,14.72,14.72,0,0,1-.9-4.84l.06-19.93-4.49.52-.21-.86a16,16,0,0,1-.48-3.79l.1-32.6h0a12.08,12.08,0,0,1,2.22-7,25.38,25.38,0,0,1,9.22-7.6,63.09,63.09,0,0,1,14.09-5.06,138.76,138.76,0,0,1,16.54-2.93c5-.58,10.35-1,15.78-1.17,1.12,0,2.23-.06,3.32-.06a82.35,82.35,0,0,1,12,.85A40.19,40.19,0,0,1,261,18.69l.66.36a15.16,15.16,0,0,1,6.94,8.29L279.31,57.9a42.9,42.9,0,0,0,3.37,7.35A13.23,13.23,0,0,0,287,70l.48.3-.1,34.05-29.58,3.43-.34-.34a23,23,0,0,1-2.37-2.76,20.26,20.26,0,0,1-1.18-1.83,38.31,38.31,0,0,1-13.14,6.76,98.66,98.66,0,0,1-18.05,3.77A90.37,90.37,0,0,1,212.25,114Z"/><polygon points="112.69 39.26 112.78 5.6 142.29 2.18 171.06 84.2 170.96 117.87 141.45 121.29 112.69 39.26"/><path d="M0,75.61.09,41.94l28.14-3.26,2.3,6.54a27.1,27.1,0,0,1,10.15-7.34,59.39,59.39,0,0,1,16.77-4.24A92.66,92.66,0,0,1,68.09,33a66.64,66.64,0,0,1,11.14.88,59.55,59.55,0,0,1,17,5.36c.77.4,1.52.8,2.23,1.22a39.62,39.62,0,0,1,10,8.09,36.52,36.52,0,0,1,7.13,12,26,26,0,0,1,1.53,8.76h0l-.09,32.6a25.4,25.4,0,0,1-.25,3.39,21.81,21.81,0,0,1-5.17,11.12A34.33,34.33,0,0,1,99.76,125a62.6,62.6,0,0,1-18.92,4.84,75.83,75.83,0,0,1-8.57.5,67.66,67.66,0,0,1-9.82-.71c-1.61-.24-3.2-.55-4.74-.92l-.07,23.68-29.51,3.42Zm51.09,6.27a29.86,29.86,0,0,0,6.32,1.94,32.27,32.27,0,0,0,6.32.58,47.28,47.28,0,0,0,5.3-.32c1.56-.18,3-.42,4.37-.71a30.44,30.44,0,0,0-12.53-2.58,45.87,45.87,0,0,0-5.1.3A44.2,44.2,0,0,0,51.09,81.88Z"/><path class="cls-1" d="M322.48,34.45a20.85,20.85,0,0,1-1.38-7.35v-.23a10.42,10.42,0,0,1,.15-1.28l0-.2a10.6,10.6,0,0,1,.31-1.15l.06-.16a7.48,7.48,0,0,1,.48-1.06l.07-.1a6.73,6.73,0,0,1,.67-1c2.3-2.79,7.16-4.63,14.44-5.47a43.05,43.05,0,0,1,4.88-.31A19.73,19.73,0,0,1,351.37,18l-.09,30.4a22.48,22.48,0,0,0-9.18-1.66,45,45,0,0,0-5.11.32,40.6,40.6,0,0,0-9.36,2Z"/><path class="cls-1" d="M359,55.81a17.74,17.74,0,0,0-5.73-6.31l.09-30.14A19,19,0,0,1,359.09,28Z"/><path class="cls-1" d="M240.86,34.33a3.93,3.93,0,0,0-.06-.48,1.55,1.55,0,0,0,0-.21,4.08,4.08,0,0,0-.23-.7v2.82A2.63,2.63,0,0,0,240.86,34.33Z"/><path class="cls-1" d="M205.4,38l0-.09a8.82,8.82,0,0,1-.13-1.84c0-.11,0-.21,0-.31s0-.4.09-.6l0-.13a5.84,5.84,0,0,1,.25-.82l.07-.14c.09-.19.18-.38.28-.55l.11-.16a5,5,0,0,1,.37-.5c.06-.07.12-.15.19-.22a5.44,5.44,0,0,1,.42-.41l.21-.19a7.31,7.31,0,0,1,.75-.56c2.5-1.63,6.47-2.77,11.79-3.39,2.42-.28,4.76-.45,7-.52h.87a24.93,24.93,0,0,1,5,.47,12.63,12.63,0,0,1,3.75,1.38c.22.13.44.26.64.4a6.59,6.59,0,0,1,2.49,3.32v2.36a3.12,3.12,0,0,1-.78.75,20.87,20.87,0,0,1-6.44,2.71c-3,.81-6.44,1.57-10.32,2.25s-7.95,1.47-12.07,2.35c-1.47.31-3,.66-4.53,1Z"/><path class="cls-1" d="M209.4,59.37a3.26,3.26,0,0,1,.33-.87A3.26,3.26,0,0,0,209.4,59.37Z"/><path class="cls-1" d="M209.29,60.32a4.48,4.48,0,0,1,.07-.64A4.48,4.48,0,0,0,209.29,60.32Z"/><path class="cls-1" d="M176.31,40c0-.1,0-.19,0-.29-.06-.4-.11-.8-.13-1.2v-.14c0-.22,0-.44,0-.66L176,70.36a14.94,14.94,0,0,0,.45,3.54l.09-32.6C176.46,40.87,176.38,40.45,176.31,40Z"/><path class="cls-1" d="M181.44,63.94c0,.25.11.51.17.78C181.55,64.45,181.48,64.19,181.44,63.94Z"/><path class="cls-1" d="M181.7,65.1c.11.4.23.8.37,1.21C181.93,65.9,181.81,65.5,181.7,65.1Z"/><path class="cls-1" d="M181.28,62.82c0,.22.06.45.09.68C181.34,63.27,181.3,63,181.28,62.82Z"/><path class="cls-1" d="M177.56,42.19l25.84-3,0,5.86c-1.92.48-3.71,1-5.44,1.47a42.88,42.88,0,0,0-10.2,4.27,16.8,16.8,0,0,0-6.4,6.47,9.62,9.62,0,0,0-1.09,4.55h0l0,10.65-2.74.32Z"/><path class="cls-1" d="M246,51.59l.13.38,0,7.52h0c0,.09-.08.18-.13.27Z"/><path class="cls-1" d="M247.93,55.49a19.52,19.52,0,0,0-.78-3.69l0,7.91A7.37,7.37,0,0,0,247.93,55.49Z"/><path class="cls-1" d="M222.53,67.34a25.45,25.45,0,0,1-5.46-.54,12.25,12.25,0,0,1-3.5-1.3,8.09,8.09,0,0,1-.69-.44,5.89,5.89,0,0,1-2.27-3,5.09,5.09,0,0,1-.32-1.75,2.71,2.71,0,0,1,0-.41,2.6,2.6,0,0,0,0-.28,2.84,2.84,0,0,1,.24-.68A6.67,6.67,0,0,1,213,56.48a19.57,19.57,0,0,1,4.51-2c1.88-.61,3.82-1.14,5.78-1.6s4.2-.91,6.42-1.34,4.28-.85,6.22-1.31,3.81-1,5.47-1.53A17.4,17.4,0,0,0,244,47.58l0,14.48A17.92,17.92,0,0,1,241.06,64c-2.51,1.34-6.48,2.33-11.83,3a62.9,62.9,0,0,1-6.47.4Z"/><polygon class="cls-1" points="372.73 61.9 398.55 58.9 398.47 89.5 372.64 92.49 372.73 61.9"/><polygon class="cls-1" points="361 60.27 361.07 33.66 370.73 61.17 370.66 87.79 361 60.27"/><polygon class="cls-1" points="284.81 42.5 284.89 15.89 303.5 68.96 303.43 95.58 284.81 42.5"/><path class="cls-1" d="M285.26,10.91l24.42-2.83,2.87,8.19,1.87-.23.26-.41C316.89,12,320.47,9.11,325.33,7a56.58,56.58,0,0,1,16.15-4.25A102.05,102.05,0,0,1,353.21,2a60.09,60.09,0,0,1,7,.38,38.4,38.4,0,0,1,12.65,3.48c.42.22.84.44,1.25.68a22.68,22.68,0,0,1,6.85,6,34.67,34.67,0,0,1,5,9.48L398.2,56.93l-25.79,3L361,27.51c-1.78-5.06-4.52-8.73-8.15-10.92a20.89,20.89,0,0,0-10.69-2.43,44.74,44.74,0,0,0-5.11.32c-7.92.92-13.07,2.94-15.75,6.18a8.59,8.59,0,0,0-.87,1.27l-.08.13a9,9,0,0,0-.6,1.32l-.08.2a11,11,0,0,0-.38,1.43l0,.24a10.55,10.55,0,0,0-.17,1.52V27a22.56,22.56,0,0,0,1.48,8.08L331,64.72l-25.8,3Z"/><polygon class="cls-1" points="305.5 69.69 331.33 66.7 331.25 97.29 305.42 100.28 305.5 69.69"/><path class="cls-1" d="M76.33,82.59a31.47,31.47,0,0,0-8.62-3.13,32.72,32.72,0,0,0-6.84-.67,45,45,0,0,0-5.32.32,41.18,41.18,0,0,0-7.09,1.4,20.6,20.6,0,0,1-5.66-5.07,24.22,24.22,0,0,1-3.55-6.51A21.14,21.14,0,0,1,38,62.07c0-.1,0-.2,0-.3s0-.45,0-.53,0-.2,0-.3l0-.48.08-.42.06-.34c0-.1.11-.42.11-.42l.08-.33c0-.1.06-.19.1-.29l.15-.44c0-.1.09-.21.13-.32l.17-.38c0-.13.12-.25.18-.37l.17-.33c.13-.23.27-.46.41-.68a15.12,15.12,0,0,1,5.59-4.79,29.75,29.75,0,0,1,10.53-2.86A43.37,43.37,0,0,1,61,48.18a30.89,30.89,0,0,1,6.43.63,29.11,29.11,0,0,1,8.43,3.13l.33.2a21.07,21.07,0,0,1,6.06,5.33A24.24,24.24,0,0,1,85.77,64,20.79,20.79,0,0,1,87,70.72a10.21,10.21,0,0,1-1.76,5.87,15.12,15.12,0,0,1-5.63,4.68A19.94,19.94,0,0,1,76.33,82.59Z"/><path class="cls-1" d="M257.17,104.15l-.46-.61a17.44,17.44,0,0,1-1.5-2.46l.08-28.83a24.27,24.27,0,0,0,2,2.31Z"/><polygon class="cls-1" points="259.25 75.05 285.47 72.01 285.38 102.6 259.17 105.64 259.25 75.05"/><path class="cls-1" d="M212.25,112c-1.17,0-2.34,0-3.47-.08a49.67,49.67,0,0,1-11.86-1.87,28.94,28.94,0,0,1-6.26-2.63,23.29,23.29,0,0,1-2.66-1.79,15.27,15.27,0,0,1-5.08-7.08,12.84,12.84,0,0,1-.78-4.17l.07-25.3a17.28,17.28,0,0,0,4.65,5.51,23.93,23.93,0,0,0,2.89,2,30.72,30.72,0,0,0,6.69,2.82,51.67,51.67,0,0,0,12.34,1.95c1.17.05,2.36.08,3.56.08a90.67,90.67,0,0,0,10.48-.63A98.84,98.84,0,0,0,240.87,77a39.36,39.36,0,0,0,12.42-6.2l-.08,30a35.84,35.84,0,0,1-13,6.87,95.75,95.75,0,0,1-17.69,3.69A88.64,88.64,0,0,1,212.25,112Z"/><path class="cls-1" d="M212.34,79.43c-1.17,0-2.33,0-3.47-.08A50.19,50.19,0,0,1,197,77.49a29,29,0,0,1-6.26-2.64,22.06,22.06,0,0,1-2.66-1.79A15.18,15.18,0,0,1,183,66c-.14-.39-.25-.76-.35-1.14l-.11-.47c-.05-.2-.1-.41-.14-.61l-.07-.51a5,5,0,0,1-.07-.52,2.26,2.26,0,0,1,0-.26v-.16a7.9,7.9,0,0,1,.85-4.12,15,15,0,0,1,5.66-5.69,40.84,40.84,0,0,1,9.72-4.06c1.94-.56,3.94-1.1,6.13-1.64,1.95-.48,3.87-.93,5.71-1.32,4.09-.87,8.13-1.65,12-2.33s7.48-1.46,10.51-2.29a22.59,22.59,0,0,0,7.07-3,4.78,4.78,0,0,0,1.49-1.6,3.61,3.61,0,0,0,.47-2,4.53,4.53,0,0,0-.07-.62c0-.12,0-.19-.06-.27a5.77,5.77,0,0,0-.28-.86,8.6,8.6,0,0,0-3.28-4.4c-.25-.17-.51-.33-.77-.48a14.73,14.73,0,0,0-4.34-1.61,26.82,26.82,0,0,0-5.39-.51l-.92,0c-2.27.06-4.68.24-7.15.53-5.71.66-9.85,1.87-12.65,3.69a11.42,11.42,0,0,0-.94.7l-.21.19c-.25.23-.44.41-.61.6a3.58,3.58,0,0,0-.26.29c-.16.2-.31.39-.44.59a3.34,3.34,0,0,0-.21.32,4.94,4.94,0,0,0-.39.76l-.1.19a8.42,8.42,0,0,0-.33,1,1.7,1.7,0,0,0,0,.22,8.62,8.62,0,0,0-.14.87c0,.14,0,.27,0,.41a8.42,8.42,0,0,0,0,1.23l-25.93,3c0-.11-.09-.59-.09-.59a10.93,10.93,0,0,1-.12-1.12v-.13A10,10,0,0,1,179,31.88a23.24,23.24,0,0,1,8.5-7A60.26,60.26,0,0,1,201.12,20a136.75,136.75,0,0,1,16.3-2.89c5-.58,10.24-1,15.62-1.17,1.09,0,2.18,0,3.25,0a79.87,79.87,0,0,1,11.73.83,38.28,38.28,0,0,1,12,3.73l.59.32A13.2,13.2,0,0,1,266.7,28l10.72,30.56A44.66,44.66,0,0,0,281,66.25a17.79,17.79,0,0,0,3,3.92L258.63,73.1a20.24,20.24,0,0,1-1.83-2.17,18.22,18.22,0,0,1-1.6-2.66l-.58-1.2-1,.89a35.47,35.47,0,0,1-13.36,7.17,97.42,97.42,0,0,1-17.69,3.69A91,91,0,0,1,212.34,79.43ZM244.43,45a12.2,12.2,0,0,1-3.62,1.78c-1.58.52-3.36,1-5.3,1.49s-3.95.88-6.13,1.29-4.43.88-6.5,1.35-4,1-5.94,1.65a21.8,21.8,0,0,0-5,2.25A8.73,8.73,0,0,0,208.84,58a4.86,4.86,0,0,0-.41,1.1,1.88,1.88,0,0,0-.05.33l0,.14a4.07,4.07,0,0,0-.07.71,7.2,7.2,0,0,0,.43,2.42,7.94,7.94,0,0,0,3,4c.27.19.54.36.83.53a13.93,13.93,0,0,0,4.07,1.52,27.52,27.52,0,0,0,5.89.59h.24a64.58,64.58,0,0,0,6.69-.42c5.68-.66,9.78-1.7,12.54-3.18a18.8,18.8,0,0,0,3.66-2.47,10,10,0,0,0,2.07-2.5c.08-.15.15-.3.22-.45l.08-.18a8.4,8.4,0,0,0,.89-4.78,21,21,0,0,0-.82-3.89l-2.58-7.32Z"/><polygon class="cls-1" points="143.22 88.49 169.06 85.5 168.97 116.09 143.13 119.08 143.22 88.49"/><polygon class="cls-1" points="115.14 7.34 140.93 4.35 168.7 83.52 142.9 86.51 115.14 7.34"/><polygon class="cls-1" points="114.69 38.92 114.76 12.31 141.22 87.77 141.15 114.38 114.69 38.92"/><path class="cls-1" d="M72.27,128.35a65.08,65.08,0,0,1-9.53-.69c-1.7-.25-3.39-.59-5-1l0-7.92L49.1,93.06a46.89,46.89,0,0,0,13.44,4,66.32,66.32,0,0,0,9.83.72,73.56,73.56,0,0,0,8.56-.51A62.31,62.31,0,0,0,99.85,92.4a34.33,34.33,0,0,0,11.91-8.58,23.48,23.48,0,0,0,3.39-5.21l-.06,23.3a22.88,22.88,0,0,1-.23,3.11,19.86,19.86,0,0,1-4.71,10.11,32.41,32.41,0,0,1-11.23,8.07,60.52,60.52,0,0,1-18.31,4.66A72,72,0,0,1,72.27,128.35Z"/><polygon class="cls-1" points="2 75.27 2.08 48.66 27.9 122.3 27.83 148.91 2 75.27"/><polygon class="cls-1" points="29.9 123.02 55.73 120.02 55.64 150.61 29.81 153.61 29.9 123.02"/><path class="cls-1" d="M2.45,43.68l24.43-2.83,3,8.53L31,47.86a24.8,24.8,0,0,1,10.49-8.15,57.57,57.57,0,0,1,16.2-4.08A91,91,0,0,1,68.09,35a64.92,64.92,0,0,1,10.81.85A57.58,57.58,0,0,1,95.35,41c.73.37,1.45.76,2.14,1.16A37.4,37.4,0,0,1,107,49.87a34.56,34.56,0,0,1,6.76,11.34,24.23,24.23,0,0,1,1.41,8.25c0,.34,0,.67,0,1v.22c0,.08,0,.17,0,.26,0,.5-.09,1-.16,1.48a19.9,19.9,0,0,1-4.71,10.11A32.42,32.42,0,0,1,99,90.59,60.8,60.8,0,0,1,80.7,95.26a74.07,74.07,0,0,1-8.33.49,66.64,66.64,0,0,1-9.54-.69,43.61,43.61,0,0,1-15-4.91l-2.27-1.28,9.81,29.18-25.81,3ZM61,46.18a47.21,47.21,0,0,0-5.32.32,32,32,0,0,0-11.25,3.09A17.09,17.09,0,0,0,38.08,55c-.18.27-.34.54-.49.81l-.15.29c-.12.23-.2.38-.27.53S37,57,37,57c-.1.22-.16.35-.21.49s-.17.5-.17.5-.09.25-.13.38-.13.51-.13.51-.07.25-.09.37l-.08.41,0,.13c0,.12-.05.24-.07.37l-.05.53c0,.13,0,.26,0,.4s0,.57,0,.57,0,.27,0,.41a23.13,23.13,0,0,0,1.36,7.5,25.91,25.91,0,0,0,3.85,7.06,22.75,22.75,0,0,0,6.49,5.74l.26.15A29.66,29.66,0,0,0,57,85.78a34.7,34.7,0,0,0,6.71.62,48.84,48.84,0,0,0,5.53-.33,42.44,42.44,0,0,0,7.25-1.44,22.37,22.37,0,0,0,4-1.59,17.2,17.2,0,0,0,6.37-5.34,12.3,12.3,0,0,0,2.09-7,22.59,22.59,0,0,0-1.31-7.39,26.44,26.44,0,0,0-3.85-7.06,23.35,23.35,0,0,0-6.63-5.84l-.37-.21a30.69,30.69,0,0,0-9-3.35A32.8,32.8,0,0,0,61,46.18Z"/></g></g></svg>