<svg xmlns="http://www.w3.org/2000/svg" viewBox="0 0 285.23 285.17"><defs><style>.cls-1{fill:#fff;}.cls-2{fill:#1b1b1b;}</style></defs><g id="レイヤー_2" data-name="レイヤー 2"><g id="creator-hover"><circle class="cls-1" cx="142.71" cy="142.52" r="138.87"/><path class="cls-2" d="M226.14,27l-4,5.56a21.9,21.9,0,0,1,2.09,2c.35.34.74.64,1.11.94.75.46,1.17,0,2,.22l1.15-.39c.25-.46,1.68-1.21,1.25-1.79s.82-1.66.06-1.93c-.68-.47-1.05-2.35-1.75-2.85A18.21,18.21,0,0,1,226.14,27Z"/><path class="cls-2" d="M176.67,11.24,178.4,4.6a3.68,3.68,0,0,1,1.24.61,2.42,2.42,0,0,0,.75.28c.26.07.55.06.81.11a7.57,7.57,0,0,1,1.31.39,6.54,6.54,0,0,0,2.9.64,4,4,0,0,1,2.32.58,16,16,0,0,0,2.47,1.12,3.75,3.75,0,0,1,.66.4s0,0,0,0a3.75,3.75,0,0,0,.73.3c1.4.43,2.67,1.16,4.06,1.57a9.65,9.65,0,0,1,2.58,1.07c1.82.73,3.56,1.65,5.42,2.2a9.13,9.13,0,0,1,2.8,1.22A21.9,21.9,0,0,0,209,16.46,13.68,13.68,0,0,1,212,18.27a3.1,3.1,0,0,0,.89.5,19.2,19.2,0,0,1,3.64,1.79,15.55,15.55,0,0,1,3.24,2.08,2.63,2.63,0,0,0,.61.44c2,1.19,3.8,2.67,5.72,4l-4,5.56a12.17,12.17,0,0,1-2.54-1.86,3.54,3.54,0,0,0-.81-.47,2.08,2.08,0,0,1-1.09-1,.62.62,0,0,0-.37-.32,4.87,4.87,0,0,1-1.92-1,6.79,6.79,0,0,0-1.09-.52,4,4,0,0,1-.9-.37A60.73,60.73,0,0,1,208,23.77a5.87,5.87,0,0,0-1.06-.6c-1.38-.67-2.72-1.43-4.16-2a13.32,13.32,0,0,0-2.4-1.17c-.82-.34-1.66-.66-2.46-1a2.46,2.46,0,0,0-.92-.24,2.35,2.35,0,0,1-1.92-.92,1.24,1.24,0,0,0-.81-.48c-.16,0-.33,0-.48-.09-.4-.12-.79-.22-1.17-.35a5.63,5.63,0,0,0-1.13-.43,1.62,1.62,0,0,1-.62-.33,5.73,5.73,0,0,0-1.38-.84c-.16-.08-.34-.13-.52-.2s-.41-.11-.57-.18l-.36-.11L185,13.86c-.83-.23-1.61-.67-2.44-.85s-1.49-.46-2.25-.63S177.52,11.42,176.67,11.24Z"/><path class="cls-2" d="M126.59,7.84,125.76,1a3.5,3.5,0,0,1,1.39.15,2.68,2.68,0,0,0,.8,0c.27,0,.53-.13.8-.18a7.71,7.71,0,0,1,1.36-.08A6.51,6.51,0,0,0,133,.38a3.56,3.56,0,0,1,2.37-.3,15.77,15.77,0,0,0,2.71.21,3.88,3.88,0,0,1,.76.12l0,0a3.54,3.54,0,0,0,.8,0c1.46-.14,2.9,0,4.34,0a13.17,13.17,0,0,1,2.8.09c2,0,3.92.11,5.85.06a12,12,0,0,1,3.06.11,22,22,0,0,0,2.79.28,13.33,13.33,0,0,1,3.52.65,2.86,2.86,0,0,0,1,.13,17.18,17.18,0,0,1,4,.27,20.33,20.33,0,0,1,3.77.84,3.1,3.1,0,0,0,.73.17,34.26,34.26,0,0,1,3.4.71c1.11.33,2.23.67,3.36.91l-1.73,6.64a9.83,9.83,0,0,1-3-.88,3.11,3.11,0,0,0-.93-.15,2,2,0,0,1-1.37-.46.57.57,0,0,0-.45-.15,5,5,0,0,1-2.17-.17,8.13,8.13,0,0,0-1.19-.12,3.82,3.82,0,0,1-1-.05c-2.06-.47-4.19-.47-6.23-1.13a6.9,6.9,0,0,0-1.19-.21L158,7.77l-1.14-.08a22.39,22.39,0,0,0-2.32-.08,21.56,21.56,0,0,0-2.66-.25c-.89-.05-1.78-.08-2.66-.08a2.81,2.81,0,0,0-.94.13,2.35,2.35,0,0,1-2.13-.09,1.36,1.36,0,0,0-.93-.17,4,4,0,0,1-.48.07c-.41,0-.81.06-1.21.07a5.4,5.4,0,0,0-1.21,0,1.35,1.35,0,0,1-.69,0A5.12,5.12,0,0,0,140,7a5.32,5.32,0,0,0-.56,0c-.18,0-.41.06-.59.06l-.38,0c-1.09.09-2.17.12-3.26.18a20.28,20.28,0,0,0-2.58.14l-2.31.29C129.49,7.8,127.44,7.71,126.59,7.84Z"/><path class="cls-2" d="M78.68,22.92l-3.24-6.05a3.5,3.5,0,0,1,1.34-.36,2.54,2.54,0,0,0,.75-.29c.24-.12.45-.31.68-.45a8.22,8.22,0,0,1,1.24-.58A6.67,6.67,0,0,0,82,13.61a4,4,0,0,1,2.12-1.1,15.34,15.34,0,0,0,2.59-.82,3.06,3.06,0,0,1,.74-.17h0a3.39,3.39,0,0,0,.73-.3c1.32-.65,2.75-.93,4.05-1.57a13.13,13.13,0,0,1,2.63-1c1.82-.72,3.73-1.19,5.48-2a9.31,9.31,0,0,1,2.89-1,22,22,0,0,0,2.71-.7,13,13,0,0,1,3.5-.75,2.71,2.71,0,0,0,1-.24,19.58,19.58,0,0,1,3.89-1.14,16.31,16.31,0,0,1,3.79-.68,3.22,3.22,0,0,0,.75-.1c2.24-.46,4.61-.55,6.87-1l.83,6.81a9.86,9.86,0,0,1-3.13.39,3.67,3.67,0,0,0-.91.2,2.13,2.13,0,0,1-1.45,0,.54.54,0,0,0-.48,0,5.11,5.11,0,0,1-2.09.58,8.58,8.58,0,0,0-1.15.37,4.27,4.27,0,0,1-.9.34,56.94,56.94,0,0,1-6.23,1.16,5.94,5.94,0,0,0-1.18.27c-1.47.44-3,.78-4.43,1.34a48.36,48.36,0,0,0-5.06,1.68,2.49,2.49,0,0,0-.84.44,2.56,2.56,0,0,1-2,.66,1.32,1.32,0,0,0-.92.2,3.5,3.5,0,0,1-.42.24c-.37.19-.73.37-1.09.53a6.33,6.33,0,0,0-1.14.43,1.3,1.3,0,0,1-.68.17,5.11,5.11,0,0,0-1.59.32,5.23,5.23,0,0,0-.51.22c-.16.08-.36.21-.53.28l-.34.17c-1,.5-2,.93-3,1.39-.76.39-1.65.55-2.38,1l-2,1.12C81.36,21.82,79.42,22.49,78.68,22.92Z"/><path class="cls-2" d="M39.6,54.45,34.38,50a3.72,3.72,0,0,1,1.1-.85,2.7,2.7,0,0,0,.58-.54c.18-.21.3-.47.46-.69a7.87,7.87,0,0,1,.92-1,7,7,0,0,0,1.84-2.35,4.07,4.07,0,0,1,1.53-1.84A23.82,23.82,0,0,0,42.92,41a3.54,3.54,0,0,1,.64-.42h0a3.41,3.41,0,0,0,.59-.53c1-1.08,2.19-1.91,3.15-3a12.41,12.41,0,0,1,2.13-1.82c1.45-1.33,3-2.57,4.35-3.92a11.49,11.49,0,0,1,2.32-2c.8-.51,1.51-1.12,2.25-1.67a14.23,14.23,0,0,1,3-1.93,3,3,0,0,0,.83-.61,14.45,14.45,0,0,1,3.19-2.5,20.37,20.37,0,0,1,3.3-2,2.81,2.81,0,0,0,.64-.39c1.93-1.23,4.12-2.17,6.07-3.39l3.24,6.05A9.64,9.64,0,0,1,75.9,24.4a3.86,3.86,0,0,0-.79.52,2.11,2.11,0,0,1-1.34.55.6.6,0,0,0-.45.18A5.39,5.39,0,0,1,71.63,27a8,8,0,0,0-.95.74,3.93,3.93,0,0,1-.73.63c-.91.55-1.79,1.13-2.66,1.72a19.43,19.43,0,0,1-2.69,1.66,5.94,5.94,0,0,0-1,.66c-.61.47-1.26.89-1.86,1.36s-1.19,1-1.76,1.52a39.16,39.16,0,0,0-4.12,3.38,2.71,2.71,0,0,0-.6.73,2.36,2.36,0,0,1-1.64,1.36,1.36,1.36,0,0,0-.8.5,3.79,3.79,0,0,1-.31.37c-.29.3-.56.59-.83.89s-.65.47-.88.83a1.38,1.38,0,0,1-.56.42,5.58,5.58,0,0,0-1.35.9,4.67,4.67,0,0,0-.4.38c-.13.12-.27.32-.4.44l-.26.28c-.77.78-1.49,1.58-2.24,2.38-.56.64-1.29,1.15-1.83,1.83s-1.06,1.13-1.52,1.76S40.13,53.77,39.6,54.45Z"/><path class="cls-2" d="M14.62,98,8.14,95.75a3.4,3.4,0,0,1,.71-1.19,2.55,2.55,0,0,0,.33-.73c.09-.25.1-.54.17-.8a9.82,9.82,0,0,1,.54-1.25,6.57,6.57,0,0,0,.85-2.86,4.09,4.09,0,0,1,.73-2.27,17.14,17.14,0,0,0,1.39-2.34,3.39,3.39,0,0,1,.44-.63s0,0,0,0a3.89,3.89,0,0,0,.35-.71c.51-1.38,1.29-2.6,1.87-3.92a13.05,13.05,0,0,1,1.3-2.48c.8-1.8,1.89-3.43,2.63-5.22A12.29,12.29,0,0,1,20.9,68.6a24.81,24.81,0,0,0,1.54-2.34,13.56,13.56,0,0,1,2.07-2.92,4,4,0,0,0,.55-.87A19.22,19.22,0,0,1,27.14,59a14.77,14.77,0,0,1,2.35-3,3.29,3.29,0,0,0,.48-.58c1.33-1.86,2.94-3.6,4.41-5.37l5.22,4.45a12.55,12.55,0,0,1-2.09,2.36,3.42,3.42,0,0,0-.53.77,2.09,2.09,0,0,1-1,1,.55.55,0,0,0-.34.34,4.92,4.92,0,0,1-1.13,1.85,5.37,5.37,0,0,0-.61,1,4.1,4.1,0,0,1-.44.86c-.64.84-1.22,1.72-1.83,2.58-.3.44-.61.86-.94,1.27a14.94,14.94,0,0,1-1,1.24,5.57,5.57,0,0,0-.69,1,38.51,38.51,0,0,0-2.35,4c-1,1.47-1.73,3.12-2.61,4.65a2.28,2.28,0,0,0-.3.9,2.34,2.34,0,0,1-1,1.87,1.42,1.42,0,0,0-.56.77,3.5,3.5,0,0,1-.14.46c-.16.39-.3.76-.47,1.12A5.77,5.77,0,0,0,21,83.6a1.48,1.48,0,0,1-.36.6,5.54,5.54,0,0,0-.92,1.33c-.09.15-.14.32-.23.51s-.13.39-.21.56-.09.24-.14.35c-.38,1-.87,2-1.25,3-.28.81-.77,1.56-1,2.38l-.79,2.19C15.73,95.34,14.87,97.19,14.62,98Z"/><path class="cls-2" d="M7.16,147.65l-6.86.27a3.32,3.32,0,0,1,.25-1.37,2.59,2.59,0,0,0,.07-.79c0-.28-.09-.55-.11-.82a7.73,7.73,0,0,1,0-1.36,6.72,6.72,0,0,0-.32-3,4,4,0,0,1-.07-2.39,15.64,15.64,0,0,0,.4-2.68,3.38,3.38,0,0,1,.17-.75s0,0,0,0A3.57,3.57,0,0,0,.79,134c0-1.47.36-2.88.36-4.33a12.48,12.48,0,0,1,.27-2.78c.15-2,.56-3.89.56-5.83a9.64,9.64,0,0,1,.36-3,20.32,20.32,0,0,0,.56-2.75,11.73,11.73,0,0,1,.88-3.47,3,3,0,0,0,.21-1,19.61,19.61,0,0,1,.64-4,16,16,0,0,1,1.12-3.69,4.32,4.32,0,0,0,.23-.72A31.49,31.49,0,0,1,7,99c.41-1.09.83-2.18,1.16-3.28L14.62,98A9.72,9.72,0,0,1,13.51,101a3.12,3.12,0,0,0-.23.91,2,2,0,0,1-.57,1.32.57.57,0,0,0-.19.45,4.93,4.93,0,0,1-.36,2.14A8.23,8.23,0,0,0,12,107a4.36,4.36,0,0,1-.14,1A45.22,45.22,0,0,1,10.16,114a5.32,5.32,0,0,0-.27,1.18c-.24,1.52-.59,3-.72,4.57a46.54,46.54,0,0,0-.72,5.28,2.93,2.93,0,0,0,0,.94,2.49,2.49,0,0,1-.29,2.11A1.38,1.38,0,0,0,8,129a4,4,0,0,1,0,.49c0,.42,0,.82,0,1.21a6.89,6.89,0,0,0-.11,1.21,1.3,1.3,0,0,1-.14.69,4.79,4.79,0,0,0-.4,1.56,3.41,3.41,0,0,0,0,.56c0,.18,0,.42,0,.6v.38c0,1.1,0,2.17,0,3.26a24.93,24.93,0,0,0-.11,2.59l.11,2.33C7.34,144.76,7.07,146.8,7.16,147.65Z"/><path class="cls-2" d="M18.35,196.61l-6.29,2.73a3.59,3.59,0,0,1-.29-1.35,2.61,2.61,0,0,0-.25-.76c-.1-.25-.3-.46-.41-.71a7,7,0,0,1-.44-1.29,6.69,6.69,0,0,0-1.32-2.67,4,4,0,0,1-1-2.17,17.17,17.17,0,0,0-.57-2.66,3.86,3.86,0,0,1-.1-.76s0,0,0-.05a3.54,3.54,0,0,0-.23-.76c-.52-1.37-.82-2.78-1.28-4.15a12.93,12.93,0,0,1-.71-2.7c-.29-.94-.54-1.89-.81-2.83s-.47-1.89-.81-2.8a12.37,12.37,0,0,1-.78-3c-.12-.94-.33-1.85-.5-2.76a14.13,14.13,0,0,1-.42-3.55,3,3,0,0,0-.19-1,14.73,14.73,0,0,1-.85-4,21.51,21.51,0,0,1-.35-3.84,2.72,2.72,0,0,0-.06-.75c-.28-2.27-.15-4.65-.4-6.94l6.86-.27a9.76,9.76,0,0,1,.11,3.15,3.48,3.48,0,0,0,.12.93,2.13,2.13,0,0,1-.09,1.45.57.57,0,0,0,0,.48,5.51,5.51,0,0,1,.48,2.12A6.58,6.58,0,0,0,8,157a3.94,3.94,0,0,1,.24.94c.1,1.05.24,2.09.38,3.14a18.28,18.28,0,0,1,.32,3.15,6.07,6.07,0,0,0,.16,1.2l.39,2.27c.17.75.36,1.5.6,2.24a51.61,51.61,0,0,0,1.22,5.2,2.84,2.84,0,0,0,.4.86,2.37,2.37,0,0,1,.52,2.06,1.38,1.38,0,0,0,.1.94,4.28,4.28,0,0,1,.2.44c.15.39.29.77.42,1.15a4.15,4.15,0,0,0,.34,1.16,1.3,1.3,0,0,1,.14.68,5.72,5.72,0,0,0,.22,1.6,4.15,4.15,0,0,0,.18.53c.05.17.16.39.22.56l.13.35c.42,1,.69,2.06,1.12,3.07.35.78.49,1.66.87,2.43l.9,2.15C17.37,193.89,18,195.84,18.35,196.61Z"/><path class="cls-2" d="M46.52,238.17,41.66,243a3.64,3.64,0,0,1-.74-1.18,2.44,2.44,0,0,0-.49-.63,7.91,7.91,0,0,0-.63-.52,7.3,7.3,0,0,1-.9-1,7.08,7.08,0,0,0-2.24-2A4.07,4.07,0,0,1,35,236a16.07,16.07,0,0,0-1.53-2.24,2.7,2.7,0,0,1-.38-.66s0,0,0,0a4.31,4.31,0,0,0-.49-.62c-1-1.09-1.69-2.37-2.67-3.43a11.29,11.29,0,0,1-1.69-2.23C27,225.2,26,223.53,24.65,222.1a10,10,0,0,1-1.77-2.49,23.18,23.18,0,0,0-1.47-2.39c-.34-.49-.68-1-1-1.49a10.67,10.67,0,0,1-.72-1.66,2.84,2.84,0,0,0-.52-.88,20.41,20.41,0,0,1-2.27-3.36,20.2,20.2,0,0,1-1.66-3.48,3.26,3.26,0,0,0-.32-.68c-1.17-2-1.86-4.26-2.88-6.33l6.29-2.73a9.67,9.67,0,0,1,1.2,2.92,3.42,3.42,0,0,0,.43.83,2.1,2.1,0,0,1,.48,1.36.57.57,0,0,0,.16.46,5,5,0,0,1,1.2,1.8,8,8,0,0,0,.64,1,3.86,3.86,0,0,1,.55.79,54.25,54.25,0,0,1,2.93,5.61,5.54,5.54,0,0,0,.58,1.07c.85,1.27,1.62,2.6,2.59,3.82a36.41,36.41,0,0,0,3,4.38,3,3,0,0,0,.67.67A2.32,2.32,0,0,1,34,223.1a1.33,1.33,0,0,0,.47.82,2.73,2.73,0,0,1,.35.33c.29.3.57.59.83.89a6.65,6.65,0,0,0,.74,1,1.29,1.29,0,0,1,.37.59,5.6,5.6,0,0,0,.76,1.43,3.55,3.55,0,0,0,.35.44c.11.14.3.29.42.43l.26.27c.76.79,1.46,1.6,2.19,2.42.6.62,1,1.42,1.66,2l1.66,1.63C44.69,235.92,45.9,237.57,46.52,238.17Z"/><path class="cls-2" d="M87.94,266.58l-2.78,6.27A3.8,3.8,0,0,1,84,272a2.36,2.36,0,0,0-.69-.4,6.46,6.46,0,0,0-.78-.25,6.91,6.91,0,0,1-1.22-.6,7.37,7.37,0,0,0-2.78-1.08,4,4,0,0,1-2.19-.95,20.19,20.19,0,0,0-2.25-1.52,3,3,0,0,1-.58-.5s0,0,0,0a3.42,3.42,0,0,0-.68-.41c-1.31-.64-2.45-1.55-3.76-2.17a11.74,11.74,0,0,1-2.35-1.51c-.85-.5-1.67-1-2.49-1.56-.42-.26-.83-.51-1.26-.75s-.83-.5-1.25-.73a11.66,11.66,0,0,1-2.57-1.66c-.72-.62-1.5-1.14-2.25-1.67a14.38,14.38,0,0,1-2.71-2.34,3,3,0,0,0-.82-.62,9.65,9.65,0,0,1-1.74-1c-.53-.42-1-.86-1.57-1.29a20.65,20.65,0,0,1-2.86-2.59,3.33,3.33,0,0,0-.55-.51c-1.74-1.49-3.27-3.31-5-4.83l4.86-4.84a9.79,9.79,0,0,1,2.22,2.23,3.7,3.7,0,0,0,.72.61,2.05,2.05,0,0,1,.91,1.12.65.65,0,0,0,.31.38,5.49,5.49,0,0,1,1.78,1.24,9.15,9.15,0,0,0,1,.69,3.81,3.81,0,0,1,.82.52c.78.71,1.58,1.39,2.4,2A17.53,17.53,0,0,1,59,249.12a7,7,0,0,0,.93.78,30.44,30.44,0,0,0,3.79,2.63,36.88,36.88,0,0,0,4.43,3,2.43,2.43,0,0,0,.87.37,2.38,2.38,0,0,1,1.77,1.19,1.31,1.31,0,0,0,.71.62c.14.07.31.11.44.19.37.2.74.35,1.09.54a6.35,6.35,0,0,0,1,.6,1.46,1.46,0,0,1,.57.42,5.4,5.4,0,0,0,1.24,1,4.33,4.33,0,0,0,.48.28c.15.09.38.17.54.26l.33.17,2.93,1.45c.78.36,1.47.92,2.27,1.24s1.4.68,2.13.95S87.14,266.26,87.94,266.58Z"/><path class="cls-2" d="M136.82,278l-.3,6.85a3.43,3.43,0,0,1-1.34-.33,2.6,2.6,0,0,0-.79-.11c-.27,0-.55.06-.82.06a7.64,7.64,0,0,1-1.35-.15,6.52,6.52,0,0,0-3,0,4.09,4.09,0,0,1-2.4-.05,18.2,18.2,0,0,0-2.64-.66,2.77,2.77,0,0,1-.72-.24l0,0a3.18,3.18,0,0,0-.79-.13c-1.46-.11-2.86-.49-4.29-.67a13.16,13.16,0,0,1-2.74-.54c-1-.15-1.94-.32-2.9-.52a25.32,25.32,0,0,0-2.87-.5,12.45,12.45,0,0,1-3-.58c-.9-.28-1.79-.59-2.69-.79a14.61,14.61,0,0,1-3.39-1.16,3.15,3.15,0,0,0-1-.27,18.23,18.23,0,0,1-3.92-1,15.54,15.54,0,0,1-3.6-1.37,3.52,3.52,0,0,0-.69-.3c-1.08-.36-2.15-.83-3.22-1.3l-1.6-.69c-.52-.25-1-.49-1.59-.7l2.78-6.27a12.91,12.91,0,0,1,2.86,1.31,3.19,3.19,0,0,0,.89.29,2.12,2.12,0,0,1,1.27.7.59.59,0,0,0,.42.24,4.89,4.89,0,0,1,2.09.55,6.4,6.4,0,0,0,1.17.28,4.2,4.2,0,0,1,1,.18c2,.73,4,1.28,6,2.15a6,6,0,0,0,1.15.38,33.81,33.81,0,0,0,4.49,1.1c1.69.55,3.48.77,5.2,1.19a2.77,2.77,0,0,0,1,0,2.34,2.34,0,0,1,2.08.43,1.34,1.34,0,0,0,.89.31,3.81,3.81,0,0,1,.48,0c.42,0,.82.07,1.21.13a4.71,4.71,0,0,0,1.19.21,1.46,1.46,0,0,1,.68.17,5.18,5.18,0,0,0,1.53.5c.18,0,.36,0,.56.08s.42,0,.59,0l.38,0c1.1.07,2.15.27,3.25.33.85,0,1.71.29,2.57.29l2.32.13C133.94,277.72,136,278,136.82,278Z"/><path class="cls-2" d="M186.52,270.86l2.21,6.49a3.72,3.72,0,0,1-1.38.16,2.66,2.66,0,0,0-.78.17c-.26.08-.49.24-.75.34a7.22,7.22,0,0,1-1.3.39,7.7,7.7,0,0,0-2.77,1.1,4,4,0,0,1-2.26.77,15.6,15.6,0,0,0-2.68.42,2.73,2.73,0,0,1-.76.05l-.05,0a3.85,3.85,0,0,0-.78.15c-1.4.41-2.86.5-4.24.92a10.08,10.08,0,0,1-2.75.53c-1.92.39-3.87.59-5.73,1.16a10.51,10.51,0,0,1-3,.51,21.43,21.43,0,0,0-2.79.27c-.59.09-1.18.18-1.77.23a9.87,9.87,0,0,1-1.8-.08,2.74,2.74,0,0,0-1,.09,19.28,19.28,0,0,1-4,.56,18.45,18.45,0,0,1-3.86,0,3.76,3.76,0,0,0-.75,0,26.8,26.8,0,0,1-3.47,0c-1.16-.08-2.32-.16-3.48-.16l.3-6.85a9.84,9.84,0,0,1,3.14.2,2.93,2.93,0,0,0,.94,0,2.07,2.07,0,0,1,1.43.16.58.58,0,0,0,.48.06,4.93,4.93,0,0,1,2.15-.29,6.57,6.57,0,0,0,1.19-.13,4,4,0,0,1,.95-.15,53.42,53.42,0,0,1,6.33-.19,5,5,0,0,0,1.22,0c1.51-.21,3-.33,4.57-.66a36.33,36.33,0,0,0,5.27-.83,2.68,2.68,0,0,0,.89-.31,2.37,2.37,0,0,1,2.11-.3,1.23,1.23,0,0,0,.94,0,2.82,2.82,0,0,1,.45-.18c.4-.13.78-.25,1.17-.36a6.38,6.38,0,0,0,1.18-.25,1.38,1.38,0,0,1,.7-.07,5.86,5.86,0,0,0,1.62-.06c.18,0,.35-.08.54-.12s.4-.13.58-.17l.36-.12c1-.34,2.08-.62,3.13-.92.82-.26,1.71-.32,2.52-.62s1.47-.49,2.2-.76S185.72,271.16,186.52,270.86Z"/><path class="cls-2" d="M230.21,246.15l4.43,5.23a3.63,3.63,0,0,1-1.2.68,2.58,2.58,0,0,0-.66.45c-.21.17-.38.4-.58.58a7.9,7.9,0,0,1-1.09.81,6.41,6.41,0,0,0-2.17,2,3.72,3.72,0,0,1-1.81,1.57,16.54,16.54,0,0,0-2.38,1.32,3.73,3.73,0,0,1-.7.32h0a3.61,3.61,0,0,0-.66.44,19.8,19.8,0,0,1-1.79,1.25,16.61,16.61,0,0,0-1.83,1.16,12.76,12.76,0,0,1-2.37,1.48c-1.6,1.16-3.4,2-4.94,3.15a11.93,11.93,0,0,1-2.59,1.62,22.62,22.62,0,0,0-2.52,1.23,14.77,14.77,0,0,1-3.27,1.46,3.45,3.45,0,0,0-.92.46,19.64,19.64,0,0,1-3.56,1.92,15.54,15.54,0,0,1-3.58,1.42,4.37,4.37,0,0,0-.72.25c-1,.47-2.14.85-3.24,1.23l-3.29,1.13-2.21-6.49a6.68,6.68,0,0,1,1.46-.56c.44-.14.9-.24,1.54-.41a4.15,4.15,0,0,0,.85-.39,2.09,2.09,0,0,1,1.41-.35.57.57,0,0,0,.47-.11,4.89,4.89,0,0,1,1.91-1,5.63,5.63,0,0,0,1.05-.58,3.73,3.73,0,0,1,.82-.51c1-.4,1.93-.86,2.89-1.29s1.94-.83,3-1.17a6.08,6.08,0,0,0,1.1-.5,45.49,45.49,0,0,0,4.05-2.22c1.61-.75,3.07-1.81,4.61-2.68a2.42,2.42,0,0,0,.73-.6,2.32,2.32,0,0,1,1.82-1.1A1.42,1.42,0,0,0,215,257c.12-.1.23-.23.36-.32.33-.26.65-.5,1-.73a5.5,5.5,0,0,0,1-.65A1.62,1.62,0,0,1,218,255a5.28,5.28,0,0,0,1.46-.69,3.86,3.86,0,0,0,.46-.32c.14-.1.31-.27.46-.37l.3-.24c.86-.68,1.74-1.29,2.62-1.94.65-.55,1.45-.95,2.08-1.54l1.78-1.5c.34-.28,1-.67,1.56-1.08S229.9,246.44,230.21,246.15Z"/><path class="cls-2" d="M261.92,207.2l6,3.28c-.15.44-.58.7-.91,1.05a2.52,2.52,0,0,0-.47.64c-.13.24-.2.51-.32.76a7.67,7.67,0,0,1-.71,1.16,6.55,6.55,0,0,0-1.25,2.71,4,4,0,0,1-1.16,2.09,16.11,16.11,0,0,0-1.71,2.11,3.36,3.36,0,0,1-.52.55s0,0,0,0a3.44,3.44,0,0,0-.45.65c-.76,1.25-1.78,2.3-2.51,3.54a12,12,0,0,1-1.66,2.26c-1.15,1.59-2.45,3.06-3.44,4.73a10.16,10.16,0,0,1-1.87,2.42,22.91,22.91,0,0,0-1.87,2.09c-.37.47-.74.94-1.15,1.37a10.33,10.33,0,0,1-1.38,1.16,3,3,0,0,0-.69.76,19.64,19.64,0,0,1-2.56,3.14,21.85,21.85,0,0,1-2.85,2.59,3,3,0,0,0-.56.51c-1.55,1.7-3.56,3-5.23,4.58l-4.43-5.23a9.93,9.93,0,0,1,2.44-2,3.46,3.46,0,0,0,.67-.65,2.24,2.24,0,0,1,1.18-.84.6.6,0,0,0,.39-.29,4.85,4.85,0,0,1,1.38-1.67,8.18,8.18,0,0,0,.78-.91,4.1,4.1,0,0,1,.6-.76,59.1,59.1,0,0,1,4.53-4.42,5.38,5.38,0,0,0,.86-.86c1-1.19,2-2.31,2.92-3.58a37,37,0,0,0,3.31-4.18,2.6,2.6,0,0,0,.45-.83,2.39,2.39,0,0,1,1.34-1.65,1.41,1.41,0,0,0,.66-.68,3.55,3.55,0,0,1,.21-.44c.21-.36.41-.71.62-1a6.51,6.51,0,0,0,.7-1,1.46,1.46,0,0,1,.47-.52,5.45,5.45,0,0,0,1.16-1.14,4.1,4.1,0,0,0,.31-.46c.09-.15.19-.38.29-.53l.18-.33c.54-.95,1.13-1.86,1.7-2.79a23.63,23.63,0,0,0,1.42-2.16l1.1-2.06C260.29,209.6,261.55,208,261.92,207.2Z"/><path class="cls-2" d="M277.3,159.4l6.8.86a3.67,3.67,0,0,1-.46,1.31,2.8,2.8,0,0,0-.19.77c0,.27,0,.55,0,.82a6.71,6.71,0,0,1-.23,1.34,7.61,7.61,0,0,0-.23,3,4.1,4.1,0,0,1-.28,2.38,18.39,18.39,0,0,0-.81,2.59,3.33,3.33,0,0,1-.31.7l0,0a3.64,3.64,0,0,0-.2.77c-.25,1.44-.8,2.79-1,4.22a10.29,10.29,0,0,1-.76,2.69c-.5,1.9-1.09,3.77-1.48,5.67a12.21,12.21,0,0,1-.86,2.93,23.17,23.17,0,0,0-1,2.64,14.44,14.44,0,0,1-1.47,3.26,2.77,2.77,0,0,0-.36,1,11,11,0,0,1-.5,2c-.23.64-.53,1.25-.79,1.88a20.51,20.51,0,0,1-1.67,3.47,3.29,3.29,0,0,0-.33.68c-.9,2.1-2.24,4.07-3.2,6.17l-6-3.28a10.07,10.07,0,0,1,1.51-2.76,3.1,3.1,0,0,0,.38-.86,2.14,2.14,0,0,1,.82-1.2.55.55,0,0,0,.27-.39,5.2,5.2,0,0,1,.67-2.07,8.08,8.08,0,0,0,.39-1.14,3.69,3.69,0,0,1,.27-.93c1-1.88,1.52-3.92,2.62-5.76a5.73,5.73,0,0,0,.48-1.11,33.14,33.14,0,0,0,1.44-4.39,36.16,36.16,0,0,0,1.59-5.09,2.84,2.84,0,0,0,.11-.94,2.34,2.34,0,0,1,.63-2,1.41,1.41,0,0,0,.4-.86,2.52,2.52,0,0,1,.06-.48c.06-.42.11-.81.18-1.2a5.8,5.8,0,0,0,.28-1.18,1.55,1.55,0,0,1,.24-.66,5.56,5.56,0,0,0,.65-1.48c.06-.17.08-.35.13-.55s.06-.41.1-.59l.07-.37.54-3.22c.12-.85.46-1.67.54-2.53s.24-1.53.29-2.31S277.22,160.26,277.3,159.4Z"/><path class="cls-2" d="M274.2,109.28l6.65-1.68a3.41,3.41,0,0,1,.06,1.39,3,3,0,0,0,.09.79c.06.27.2.52.27.78a7.43,7.43,0,0,1,.25,1.33,6.7,6.7,0,0,0,.9,2.85,3.62,3.62,0,0,1,.61,2.31,17.26,17.26,0,0,0,.14,2.71,2.84,2.84,0,0,1,0,.77s0,0,0,0a4.07,4.07,0,0,0,.11.79,15.76,15.76,0,0,1,.34,2.15,17.26,17.26,0,0,0,.25,2.15,13.52,13.52,0,0,1,.29,2.78c.34,1.94.29,3.91.68,5.82a12.09,12.09,0,0,1,.32,3,26.15,26.15,0,0,0,0,2.8,13.86,13.86,0,0,1-.12,3.58,3.26,3.26,0,0,0,0,1,18.76,18.76,0,0,1,.16,4,15.55,15.55,0,0,1-.28,3.85,3.08,3.08,0,0,0-.08.75c0,1.14-.18,2.29-.32,3.45l-.42,3.46-6.8-.86a13,13,0,0,1,.43-3.12,3.73,3.73,0,0,0,0-.94,2,2,0,0,1,.3-1.41.56.56,0,0,0,.1-.47,4.92,4.92,0,0,1-.07-2.16,7,7,0,0,0-.06-1.21,3.93,3.93,0,0,1-.11-1c.07-1,.07-2.1.11-3.16,0-.52.05-1.05.09-1.57s.07-1.06.14-1.59a5.43,5.43,0,0,0,0-1.21,37.56,37.56,0,0,0-.23-4.61c0-1.78-.28-3.55-.39-5.32a2.27,2.27,0,0,0-.23-.92,2.33,2.33,0,0,1-.19-2.11,1.41,1.41,0,0,0,0-.95,3.47,3.47,0,0,1-.13-.46c-.09-.41-.17-.8-.24-1.2a5.51,5.51,0,0,0-.13-1.2,1.38,1.38,0,0,1,0-.7,5.79,5.79,0,0,0,0-1.61c0-.18-.06-.36-.09-.55s-.11-.41-.14-.59-.06-.25-.08-.37c-.24-1.07-.41-2.13-.61-3.2-.17-.84-.21-1.73-.46-2.55l-.57-2.26C274.64,112.15,274.48,110.1,274.2,109.28Z"/><path class="cls-2" d="M275,104.54c-.44.4-.94.75-.88,1.44l-.14.78c-.25.88.18,1.65.21,2.53l6.65-1.68c-.17-.84.27.26-.15-1.17-.25-.78-.32-.57-.89-1.15-.43-.38-.47-.22-1-.54s-.13-.5-.83-.48c-.49-.25-.26-.25-.83-.11-.31.09-.45,0-1.05.11C275.22,104.62,275.46,104.34,275,104.54Z"/><path class="cls-2" d="M264.65,73.6a8.12,8.12,0,0,0-1.89,1.72,4.8,4.8,0,0,1-1.18,1.2,3.37,3.37,0,0,0-.85,1c-.24.43-.47.84-.76,1.27a5.17,5.17,0,0,0-.86,2.94,4.69,4.69,0,0,1-.11,1.45c0,.12-.07.27-.09.39A5.11,5.11,0,0,0,259,86a2.91,2.91,0,0,0,.84,1.58,5.09,5.09,0,0,1,.56.58,4,4,0,0,0,1.45,1.4,2.12,2.12,0,0,1,.61.54,5.09,5.09,0,0,0,2.11,1.28,4.41,4.41,0,0,0,1.83.45,1.49,1.49,0,0,1,1.15.39,3,3,0,0,0,.53.34.57.57,0,0,0,.4.09l1.46-.23a2,2,0,0,1,.63-.07,1.65,1.65,0,0,0,1.38-.39,1.92,1.92,0,0,1,.91-.51,3.16,3.16,0,0,0,1.29-.72,9,9,0,0,1,.78-.74,1.6,1.6,0,0,0,.51-.67,4.74,4.74,0,0,1,1-1.42A2.53,2.53,0,0,0,277,87c.21-.38.42-.77.6-1.17a3.41,3.41,0,0,0,.19-.62,9.75,9.75,0,0,1,.3-1.54,1.78,1.78,0,0,0,0-.69,12.79,12.79,0,0,0-.83-3.11,17.1,17.1,0,0,0-.81-2,5.4,5.4,0,0,0-1.47-1.9,1.65,1.65,0,0,0-.54-.36,17.58,17.58,0,0,1-2.85-1.34,24.37,24.37,0,0,0-2.84-1.08c-.72-.11-1.42-.23-2.13-.31a.8.8,0,0,0-.23,0A5.24,5.24,0,0,0,264.65,73.6Z"/><path d="M62.39,79.93c-.38-1.6-1.25-2.41-2.62-2.41-1.56,0-2.45.74-2.45,1.91s.57,1.89,2.7,2.47l.78.23c3.36.91,4.31,2.19,4.31,4.35,0,2.59-1.79,4.37-5.32,4.37-2.87,0-4.86-1.25-5.57-3.82l2.45-.77a3.05,3.05,0,0,0,3.06,2.65c1.94,0,2.81-.83,2.81-2.1s-.45-1.87-2.86-2.55L58.92,84c-3.14-.93-4.15-2.16-4.15-4.42s1.75-4,4.93-4a5,5,0,0,1,5.18,3.67Z"/><path d="M67.28,82.76c.53-1.88,2-2.87,4.31-2.87,2.7,0,4,1.14,4,3.46v4.14a26.59,26.59,0,0,0,.17,3.08H73.6c-.07-.46-.11-.76-.17-1.37a3.91,3.91,0,0,1-3.28,1.61,3,3,0,0,1-3.22-3.09c0-1.83,1.14-3,3.41-3.44a19,19,0,0,1,3-.3v-.59c0-1.31-.55-1.85-1.81-1.85a2,2,0,0,0-2,1.83Zm6,2.7a11.14,11.14,0,0,0-2.4.3c-1.12.27-1.71.84-1.71,1.77a1.47,1.47,0,0,0,1.68,1.57,2.85,2.85,0,0,0,2.43-1.71Z"/><path d="M84,82.15c-1.26,0-2.3.82-3,2.64v5.78H78.64V80.14h2.24V82.7c.74-2,1.82-2.79,3.23-2.79Z"/><path d="M85.78,82.76c.53-1.88,2-2.87,4.32-2.87,2.69,0,4,1.14,4,3.46v4.14a29,29,0,0,0,.17,3.08h-2.2a13.1,13.1,0,0,1-.17-1.37,3.92,3.92,0,0,1-3.29,1.61,3,3,0,0,1-3.21-3.09c0-1.83,1.14-3,3.4-3.44a19.13,19.13,0,0,1,3-.3v-.59c0-1.31-.55-1.85-1.8-1.85a2,2,0,0,0-2,1.83Zm6,2.7a11.12,11.12,0,0,0-2.39.3c-1.12.27-1.71.84-1.71,1.77a1.47,1.47,0,0,0,1.67,1.57,2.83,2.83,0,0,0,2.43-1.71Z"/><path d="M58.08,112c.71-.08,1.45-.19,2.21-.32a4.79,4.79,0,0,0-.11.6l0,.24a7.45,7.45,0,0,0,1.48-2.92,17.5,17.5,0,0,0,.43-3.31l-1.12,0c-.14,0-.15,0-.15-.14v-1c0-.13,0-.14.15-.14s.37,0,1.17,0c0-.34,0-.68,0-1a12.71,12.71,0,0,0-.09-1.84c.47,0,.85,0,1.3.09.13,0,.2.07.2.15a1,1,0,0,1-.08.31,5.61,5.61,0,0,0-.08,1.32c0,.36,0,.68,0,1h.74c1,0,1.34,0,1.42,0s.15,0,.15.16c0,.44,0,.82,0,1.23a40.39,40.39,0,0,1-.38,6,1.48,1.48,0,0,1-1.65,1.42l-.72,0c-.29,0-.29,0-.33-.46a3.27,3.27,0,0,0-.26-.87,6.47,6.47,0,0,0,1.08.11c.39,0,.61-.21.7-.82a36.44,36.44,0,0,0,.32-5.5H63.31a23,23,0,0,1-.48,3.73,8.28,8.28,0,0,1-1.92,3.7c-.13.13-.21.2-.28.2s-.13-.07-.24-.18a2.41,2.41,0,0,0-.84-.63,5.33,5.33,0,0,0,.42-.4.79.79,0,0,1-.25,0c-1.38.28-3.07.52-4.54.68a2.42,2.42,0,0,0-.48.09.45.45,0,0,1-.22.08c-.07,0-.14-.08-.18-.22-.08-.34-.16-.76-.22-1.15a10.4,10.4,0,0,0,1.37,0c.45,0,.94-.05,1.46-.1v-.76h-.76c-1.13,0-1.51,0-1.59,0s-.14,0-.14-.13v-.78c0-.13,0-.14.14-.14s.46,0,1.59,0h.76v-.56h-.52c-1.1,0-1.48,0-1.56,0s-.15,0-.15-.15,0-.38,0-1.07v-1.4c0-.7,0-1,0-1.06s0-.14.15-.14.46,0,1.56,0h.52v-.57H56c-1.17,0-1.57,0-1.65,0s-.14,0-.14-.15v-.76c0-.13,0-.15.14-.15s.48,0,1.65,0h1v-.59c-.56.06-1.11.11-1.67.13-.37,0-.38,0-.48-.28a2.49,2.49,0,0,0-.41-.7,25.37,25.37,0,0,0,4.61-.5,4.29,4.29,0,0,0,.71-.22,5.69,5.69,0,0,1,.74.72.31.31,0,0,1,.11.23c0,.08-.11.13-.28.13a3.77,3.77,0,0,0-.58.09c-.52.1-1,.2-1.58.26v.73h.76c1.16,0,1.56,0,1.64,0s.13,0,.13.15v.76c0,.13,0,.15-.11.15s-.5,0-1.66,0h-.76V106h.56c1.1,0,1.47,0,1.56,0s.15,0,.15.14,0,.36,0,1.06v1.4c0,.69,0,1,0,1.07s0,.15-.15.15-.46,0-1.56,0h-.56v.56h.49c1.11,0,1.5,0,1.58,0s.14,0,.14.14v.78c0,.12,0,.13-.14.13s-.47,0-1.58,0h-.49Zm-1.17-4.46v-.68H55.84v.68Zm0,1.44v-.69H55.84v.69Zm1.17-2.12v.68h1.14v-.68Zm1.14,1.43H58.08v.69h1.14Z"/><path d="M69.12,103.86c-1.17,0-1.57,0-1.65,0s-.14,0-.14-.13v-1c0-.15,0-.16.14-.16s.48,0,1.65,0h7.8c1.18,0,1.57,0,1.65,0s.15,0,.15.16v1c0,.11,0,.13-.15.13s-.47,0-1.65,0H73.59v1.27h.8c1.17,0,1.56,0,1.63,0s.16,0,.16.15,0,.49,0,1.41v3c0,.91,0,1.33,0,1.4s0,.15-.16.15-.46,0-1.63,0H71.66c-1.16,0-1.55,0-1.64,0s-.14,0-.14-.15,0-.49,0-1.4v-3c0-.92,0-1.33,0-1.41s0-.15.14-.15.48,0,1.64,0h.72v-1.27Zm8.06,3.24a16.06,16.06,0,0,0-.08-1.9c.5,0,.9,0,1.32.1.15,0,.24.08.24.2a.45.45,0,0,1-.07.25,3.73,3.73,0,0,0-.11,1.36v4.15c0,1.65,0,2.51,0,2.58s0,.15-.15.15h-1c-.13,0-.14,0-.14-.15v-.52H68.89v.52c0,.13,0,.15-.15.15h-1c-.13,0-.15,0-.15-.15s0-.92,0-2.56V107a14,14,0,0,0-.08-1.83c.51,0,.89,0,1.3.1.16,0,.25.09.25.2a.58.58,0,0,1-.09.27,4.32,4.32,0,0,0-.09,1.35v5h8.29Zm-4.78.48V106.2H71.07v1.38Zm0,2.49v-1.49H71.07v1.49Zm1.18-3.87v1.38H75V106.2ZM75,108.58H73.58v1.49H75Z"/><path d="M80.44,110.33a6.7,6.7,0,0,0,0-.8,8,8,0,0,1,.93.17c.15,0,.2.09.2.15a.4.4,0,0,1-.07.2,1.46,1.46,0,0,0-.06.45,11.07,11.07,0,0,1-.44,2.42c-.07.21-.11.31-.19.31s-.14,0-.28-.17a2.88,2.88,0,0,0-.61-.33A8.32,8.32,0,0,0,80.44,110.33Zm3.46-3.94c.16-.06.18,0,.24.1a12.57,12.57,0,0,1,.71,2.26c0,.13,0,.15-.14.21l-.63.18c-.16,0-.2,0-.23-.13s-.06-.3-.09-.46l-.7.09v3.57c0,1.19,0,1.63,0,1.7s0,.14-.15.14H82c-.13,0-.15,0-.15-.14s0-.51,0-1.7v-3.46l-.82.06a1.26,1.26,0,0,0-.49.11.37.37,0,0,1-.21.06c-.07,0-.13-.08-.16-.22-.08-.36-.13-.69-.18-1.09h.94c.25-.34.5-.67.74-1a17.29,17.29,0,0,0-1.62-1.82c-.1-.08-.09-.12,0-.26l.52-.64c.1-.12.12-.12.21,0a3,3,0,0,0,.25.25,12.43,12.43,0,0,0,.71-1.38,4.11,4.11,0,0,0,.26-.74c.35.15.69.28,1,.43.13.07.17.13.17.21a.2.2,0,0,1-.11.17.75.75,0,0,0-.24.31,18,18,0,0,1-1,1.81c.18.21.36.4.54.62.28-.45.54-.91.79-1.34a5.63,5.63,0,0,0,.36-.8,6.16,6.16,0,0,1,1,.48c.13.06.17.1.17.18a.23.23,0,0,1-.16.21c-.13.08-.19.18-.39.49-.63,1-1.3,2-1.91,2.82.44,0,.86,0,1.26-.08-.08-.24-.17-.5-.27-.74s0-.16.14-.23Zm7.87,4.88c0,.61,0,1.22,0,1.6a1,1,0,0,1-.3.82,1.2,1.2,0,0,1-.69.21c-.38,0-.39,0-.44-.38a2.16,2.16,0,0,0-.21-.69h.31c.18,0,.25-.1.25-.37v-1.11H90.1v.79c0,.86,0,1.25,0,1.34s0,.15-.14.15H89.3c-.13,0-.15,0-.15-.15s0-.48,0-1.34v-.79h-.61v.79c0,.86,0,1.25,0,1.34s0,.15-.15.15h-.67c-.13,0-.15,0-.15-.15s0-.48,0-1.34v-.79H87v1.13c0,.89,0,1.3,0,1.38s0,.14-.14.14h-.77c-.14,0-.15,0-.15-.14s0-.45,0-1.38V109.2a14.59,14.59,0,0,1-.23,1.5,13.35,13.35,0,0,1-.87,2.64c-.08.17-.13.26-.21.26s-.14-.07-.28-.18a3.22,3.22,0,0,0-.67-.49,8.3,8.3,0,0,0,.73-1.61.34.34,0,0,1-.16.08l-.48.13c-.21,0-.23,0-.25-.1a11.19,11.19,0,0,0-.27-1.75c0-.14,0-.15.16-.19l.5-.13c.16,0,.19,0,.21.1a7.3,7.3,0,0,1,.31,1.78,8.87,8.87,0,0,0,.29-1.13,20.27,20.27,0,0,0,.27-3.57c0-1.3,0-1.89,0-2s0-.16.15-.16.48,0,1.65,0h2.8c1.16,0,1.58,0,1.66,0s.15,0,.15.16,0,.26,0,.83v1c0,.57,0,.77,0,.86s0,.14-.15.14-.5,0-1.66,0H86.27l0,.71c.17,0,.6,0,1.48,0H90.1c1.1,0,1.49,0,1.56,0s.13,0,.13.14,0,.56,0,1.52Zm-5.33-7.53c-1.24,0-1.67,0-1.74,0s-.16,0-.16-.14v-.89c0-.13,0-.14.16-.14s.5,0,1.74,0H90c1.24,0,1.67,0,1.73,0s.14,0,.14.14v.89c0,.13,0,.14-.14.14s-.49,0-1.73,0Zm-.15,1.71v.88h3.9v-.88Zm1.37,4.94v-1.32H87v1.32Zm1.52,0v-1.32h-.61v1.32Zm.92-1.32v1.32h.63v-1.32Z"/><path d="M95.16,110.93c-1.17,0-1.57,0-1.65,0s-.14,0-.14-.14V110c0-.11,0-.13.14-.13s.48,0,1.65,0h3.16v-.07c0-.2,0-.44,0-.66H96.69c-1.27,0-1.74,0-1.82,0s-.14,0-.14-.16,0-.51,0-1.47v-2.07c-.25.25-.51.5-.77.73s-.21.17-.27.17-.13-.09-.22-.27a3,3,0,0,0-.54-.76,7.81,7.81,0,0,0,2.38-2.53,3.08,3.08,0,0,0,.35-.81,11,11,0,0,1,1.23.3.2.2,0,0,1,0,.38,2.11,2.11,0,0,0-.35.42l-.23.32h2.4a6.42,6.42,0,0,0,.35-.69,4.75,4.75,0,0,0,.21-.67,9.77,9.77,0,0,1,1.23.27.2.2,0,0,1,.16.18c0,.08-.07.14-.13.2a1.15,1.15,0,0,0-.25.32c-.08.14-.14.27-.22.39h2c1.26,0,1.67,0,1.76,0s.15,0,.15.13v.77c0,.14,0,.16-.15.16s-.5,0-1.76,0H99.87v.65h1.63c1.25,0,1.68,0,1.76,0s.16,0,.16.14v.65c0,.13,0,.14-.16.14s-.51,0-1.76,0H99.87v.65h1.63c1.25,0,1.68,0,1.76,0s.16,0,.16.14v.64c0,.13,0,.14-.16.14s-.51,0-1.76,0H99.87v.69h2.36c1.28,0,1.72,0,1.8,0s.14,0,.14.14V109c0,.14,0,.16-.14.16s-.52,0-1.8,0H99.72l0,.08a2.21,2.21,0,0,0,0,.57v.08h3.28c1.17,0,1.58,0,1.66,0s.14,0,.14.13v.84c0,.13,0,.14-.14.14s-.49,0-1.66,0h-2.44a11.45,11.45,0,0,0,4.5,1.64,2.66,2.66,0,0,0-.51.87c-.1.26-.14.35-.26.35a1.19,1.19,0,0,1-.3-.06,10.87,10.87,0,0,1-4.3-2.3c0,1.44,0,2.19,0,2.47,0,.13,0,.14-.13.14H98.42c-.11,0-.13,0-.13-.14,0-.28,0-1,.06-2.44a10,10,0,0,1-4.22,2.24,1.41,1.41,0,0,1-.31.08c-.12,0-.17-.09-.26-.34a2.37,2.37,0,0,0-.47-.79,11.64,11.64,0,0,0,4.32-1.72Zm3.5-5.85v-.65H96v.65Zm0,1.54V106H96v.65Zm0,1.56v-.69H96v.69Z"/><path d="M107.18,114.25h-.81l5.29-12.37h.82Z"/><path d="M120.69,107.75a7.56,7.56,0,0,1-.76,3.31,6.5,6.5,0,0,1-2.29,2.46.84.84,0,0,1-.39.15.39.39,0,0,1-.28-.12,3.45,3.45,0,0,0-1.15-.69,5.75,5.75,0,0,0,2.58-2.32,5.41,5.41,0,0,0,.67-2.79H116.6c-.65,0-1.29,0-1.95.08-.12,0-.16-.08-.17-.25a7.36,7.36,0,0,1-.11-1.25c.73.06,1.46.06,2.21.06h5.84c1,0,1.77,0,2.54-.07.13,0,.14.07.14.26s0,.83,0,1-.08.22-.2.22c-.67,0-1.57,0-2.47,0Zm-2.57-3c-.6,0-1.12,0-1.85,0-.17,0-.21-.06-.22-.22,0-.31,0-.78-.09-1.25.91.06,1.57.07,2.16.07h2.39c.73,0,1.55,0,2.2,0,.13,0,.15.07.15.24a5,5,0,0,1,0,1c0,.19,0,.25-.17.25-.7,0-1.47,0-2.18,0Zm5.59-2.26c.06,0,.12,0,.18,0A6.16,6.16,0,0,1,125,104a.14.14,0,0,1-.07.2l-.58.36a.14.14,0,0,1-.21-.07,6.66,6.66,0,0,0-1.17-1.63Zm1.23-.73c.08,0,.12,0,.19,0a6,6,0,0,1,1.1,1.46.16.16,0,0,1-.06.23l-.55.35a.14.14,0,0,1-.22-.06,6.19,6.19,0,0,0-1.16-1.62Z"/><path d="M136.12,105.82c.64,0,1.37,0,2,0,.15,0,.17.07.18.21a8.85,8.85,0,0,1,0,1c0,.17,0,.22-.22.21l-1.87,0h-.54a7.74,7.74,0,0,1-1,4,6.11,6.11,0,0,1-3.07,2.42,1.19,1.19,0,0,1-.36.11c-.08,0-.14,0-.25-.14a3,3,0,0,0-1.08-.78,5.64,5.64,0,0,0,3.51-2.3,6.24,6.24,0,0,0,.77-3.32h-2.77v.47c0,.77,0,1.47,0,2.16,0,.14-.08.17-.22.18a7,7,0,0,1-1.12,0c-.17,0-.25,0-.23-.18,0-.68.06-1.31.06-2.13v-.5h-.39c-.7,0-1.74,0-2.14.07-.11,0-.15-.08-.16-.25s-.06-.73-.09-1.26c.55,0,1.39.07,2.39.07h.39v-1a9,9,0,0,0-.15-1.91,13.58,13.58,0,0,1,1.58.2c.15,0,.2.09.2.19a1,1,0,0,1-.08.27,3.27,3.27,0,0,0-.09,1.25v1h2.79l0-1.28a8.91,8.91,0,0,0-.12-1.78,12,12,0,0,1,1.52.22c.18,0,.23.11.23.21a.63.63,0,0,1,0,.23,3.69,3.69,0,0,0-.1,1.15v1.23Zm.65-3.14a.14.14,0,0,1,.19,0,6.33,6.33,0,0,1,1,1.57c0,.09,0,.14-.08.2l-.53.27c-.11,0-.17,0-.23-.08a6.17,6.17,0,0,0-1.05-1.69Zm1.23-.56c.07,0,.11,0,.18,0a5.7,5.7,0,0,1,1,1.52.14.14,0,0,1-.08.22l-.52.26c-.12,0-.17,0-.21-.06a6.36,6.36,0,0,0-1.05-1.69Z"/><path d="M147.3,110.57c0,.89,0,1.66,0,2.7,0,.17-.05.22-.19.22a9.4,9.4,0,0,1-1.3,0c-.15,0-.2,0-.18-.2,0-.94.05-1.79.05-2.67v-3a23.24,23.24,0,0,1-3.58,2.5.34.34,0,0,1-.19,0,.38.38,0,0,1-.28-.13,4.67,4.67,0,0,0-1.11-.77,21,21,0,0,0,4.09-2.66,21.63,21.63,0,0,0,2.77-2.72,3.82,3.82,0,0,0,.82-1.34,12.55,12.55,0,0,1,1.44.91.23.23,0,0,1,.11.2.36.36,0,0,1-.19.28,4.47,4.47,0,0,0-.78.72,17,17,0,0,1-1.52,1.63Z"/><path d="M161.6,105.94c.73,0,1.59,0,2.27,0,.18,0,.23,0,.24.24a5.68,5.68,0,0,1,0,1c0,.21-.05.25-.24.25-.47,0-1.46,0-2.19,0h-1.84a6.82,6.82,0,0,1-.89,3.55,7.29,7.29,0,0,1-2.77,2.56.55.55,0,0,1-.3.09.38.38,0,0,1-.28-.13,3.83,3.83,0,0,0-1.09-.72,6.66,6.66,0,0,0,3-2.35,5.68,5.68,0,0,0,.79-3h-2.51c-.64,0-1.38,0-1.87.06-.17,0-.21,0-.24-.25s-.06-.8-.09-1.28c.85.06,1.58.06,2.21.06h2.56c0-.65,0-1.35,0-1.92a5.42,5.42,0,0,0-.16-1.31,8.67,8.67,0,0,1,1.73.18c.15,0,.2.09.2.18a.85.85,0,0,1-.09.29,2.41,2.41,0,0,0-.11.79c0,.61,0,1,0,1.78Z"/><path d="M169.09,109a10.09,10.09,0,0,0-1.91.16c-.16,0-.26-.08-.3-.27a15.15,15.15,0,0,1-.19-1.58,16.52,16.52,0,0,0,2.8.16h4.19c1,0,2,0,3,0,.2,0,.23,0,.23.18a8.28,8.28,0,0,1,0,1.22c0,.16-.05.21-.23.2l-2.9,0Z"/><path d="M64.61,127.84a.61.61,0,0,0,.22,0,.35.35,0,0,1,.17-.06s.16.07.44.33.31.32.31.44a.29.29,0,0,1-.09.22,1.6,1.6,0,0,0-.17.59,11.22,11.22,0,0,1-.88,2.7,6,6,0,0,0,1.52,1.44,5.08,5.08,0,0,0-.45.78c-.09.21-.15.3-.22.3s-.13-.06-.26-.17A7.75,7.75,0,0,1,64,133.1a8.55,8.55,0,0,1-1,1.24c-.12.12-.18.17-.25.17s-.13-.09-.23-.26a3.46,3.46,0,0,0-.46-.58c0,.65,0,1,0,1.05s0,.15-.15.15h-.87c-.13,0-.14,0-.14-.15s0-.49,0-1.32c-.68.23-1.33.44-2,.62a2.25,2.25,0,0,0-.43.17.33.33,0,0,1-.19.09c-.07,0-.12-.08-.16-.18a7.16,7.16,0,0,1-.26-1c.35,0,.65-.11,1-.17v-6.22c-.39,0-.57,0-.61,0h-.09v.84c0,.12,0,.13-.14.13s-.31,0-1,0V129h.05c.94,0,1.24,0,1.32,0s.15,0,.15.14V130c0,.12,0,.13-.15.13l-1.13,0v1.29h1c.13,0,.15,0,.15.13v.87c0,.14,0,.15-.15.15s-.24,0-.63,0h-.35v2.1a8.27,8.27,0,0,0,3.75.62,48.48,48.48,0,0,0,5.11-.3,3.68,3.68,0,0,0-.37,1c-.08.41-.08.41-.49.44-1.39.09-2.73.14-4.21.14a8.14,8.14,0,0,1-4-.71,4.74,4.74,0,0,1-1.59-1.41,8.87,8.87,0,0,1-.52,2c-.06.17-.11.24-.17.24s-.13-.06-.24-.17a3.24,3.24,0,0,0-.74-.54,11.34,11.34,0,0,0,.82-4.39,7.24,7.24,0,0,0,0-.76,10,10,0,0,1,1,.18c.15,0,.2.08.2.16a.51.51,0,0,1-.07.22,1.22,1.22,0,0,0-.06.47c0,.43,0,.84-.08,1.27a4,4,0,0,0,.56.76v-3.66h-.66c-.94,0-1.25,0-1.33,0s-.13,0-.13-.13v-.94c0-.13,0-.14.13-.14s.39,0,1.33,0h.36v-1.34h-.21c-.83,0-1.09,0-1.17,0s-.15,0-.15-.13v-.92c0-.13,0-.14.15-.14s.34,0,1.17,0h.21v-.15a7.91,7.91,0,0,0-.09-1.47,10.52,10.52,0,0,1,1.21.09c.13,0,.21.05.21.13a.73.73,0,0,1-.07.25,2.81,2.81,0,0,0-.08,1v.18c.72,0,1,0,1,0h.09v-.79c0-.13,0-.15.14-.15s.51,0,1.77,0H64c1.25,0,1.68,0,1.76,0s.14,0,.14.15v.86c0,.12,0,.14-.14.14s-.51,0-1.76,0H62.1v1.18Zm-4.51-1.18v1.24H61v-1.24Zm.9,3.47V128.9h-.9v1.23Zm0,1h-.9v1.47c.29-.08.58-.17.9-.28Zm1.1,2.38a6.18,6.18,0,0,0,1.3-1.45,10.45,10.45,0,0,1-1-3.17H62.1Zm1.28-4.62a8.92,8.92,0,0,0,.59,2,9.06,9.06,0,0,0,.54-2Z"/><path d="M71.06,130.38c0,2.37,0,2.82,0,2.9s0,.14-.15.14H70c-.13,0-.14,0-.14-.14v-.68H68.76v1.25c0,.13,0,.14-.13.14h-1c-.11,0-.13,0-.13-.14s0-.57,0-3.17v-2c0-1.85,0-2.36,0-2.43s0-.15.13-.15.34,0,1.13,0h1c.8,0,1,0,1.13,0s.15,0,.15.15,0,.55,0,2Zm-2.3-3v4h1.09v-4Zm4.59,3.77c-1.24,0-1.67,0-1.75,0s-.13,0-.13-.15v-1c0-.13,0-.14.13-.14s.51,0,1.75,0h.87v-1.63h-.65c-1.16,0-1.56,0-1.64,0s-.14,0-.14-.15v-1c0-.13,0-.15.14-.15s.48,0,1.64,0h.65v-.3a14.34,14.34,0,0,0-.09-1.9c.48,0,.89,0,1.34.09.13,0,.22.07.22.13a.82.82,0,0,1-.09.29,4.59,4.59,0,0,0-.08,1.37v.32h1c1.16,0,1.55,0,1.62,0s.15,0,.15.15v1c0,.14,0,.15-.15.15s-.46,0-1.62,0h-1v1.63h1.41c1.24,0,1.67,0,1.75,0s.14,0,.14.14v1c0,.14,0,.15-.14.15s-.51,0-1.75,0H76a9.94,9.94,0,0,0,3.32,3.22,4.41,4.41,0,0,0-.53,1c-.09.21-.14.3-.22.3s-.14-.06-.27-.17a11.18,11.18,0,0,1-2.78-3.27c0,2.1.09,4.16.09,4.43,0,.12,0,.13-.16.13H74.32c-.13,0-.14,0-.14-.13s0-2.24.08-4.25a11.3,11.3,0,0,1-3.21,3.33c-.16.1-.24.15-.32.15s-.15-.07-.28-.28a2.93,2.93,0,0,0-.65-.74,9.81,9.81,0,0,0,4-3.68Z"/><path d="M87.13,128.08A1.11,1.11,0,0,1,86,129.2a1.09,1.09,0,0,1-1.11-1.12A1.1,1.1,0,0,1,86,127,1.12,1.12,0,0,1,87.13,128.08Zm0,5.5A1.11,1.11,0,0,1,86,134.7a1.12,1.12,0,0,1,0-2.23A1.12,1.12,0,0,1,87.13,133.58Z"/><path d="M97.05,131c0,3.29,0,3.86,0,3.94s0,.15-.14.15H96c-.14,0-.16,0-.16-.15v-.41H94.74v1c0,.13,0,.14-.14.14h-.93c-.12,0-.13,0-.13-.14s0-.78,0-4.28v-2.43c0-2.43,0-3.16,0-3.24s0-.15.13-.15.32,0,1.1,0h1.07c.76,0,1,0,1.09,0s.14,0,.14.15,0,.75,0,2.76Zm-2.31-4.35v2.7h1.12v-2.7Zm1.12,6.71v-2.84H94.74v2.84Zm5.89-1.37a6.78,6.78,0,0,0,3.51,3.41,4.79,4.79,0,0,0-.51,1c-.07.23-.11.32-.2.32a.63.63,0,0,1-.3-.13,8.52,8.52,0,0,1-3.16-3.53,7.44,7.44,0,0,1-3.52,3.57,1.11,1.11,0,0,1-.3.1c-.09,0-.15-.08-.28-.29a3.09,3.09,0,0,0-.66-.76,5.79,5.79,0,0,0,3.71-3.34l.1-.33H99.06c-1.27,0-1.53,0-1.6,0s-.14,0-.14-.15V131c0-.13,0-.15.14-.15s.14,0,.48,0v-2.48c0-.8,0-1.2,0-1.28s0-.14.14-.14.52,0,1.68,0h.62v-.47a12.89,12.89,0,0,0-.09-1.67c.47,0,.92,0,1.33.09.14,0,.2.08.2.16a.56.56,0,0,1-.07.25,3.2,3.2,0,0,0-.08,1.14v.5h.8c1.17,0,1.58,0,1.65,0s.16,0,.16.14,0,.48,0,1.28v2.48l.72,0c.14,0,.16,0,.16.15v.89c0,.13,0,.15-.16.15s-.52,0-1.78,0Zm-1.38-3.86H99.16v2.73h1.16c.05-.62.05-1.38.05-2.34Zm2.6,2.73v-2.73h-1.32v.4c0,.78,0,1.59-.09,2.33Z"/><path d="M108.12,126.61c-1.17,0-1.57,0-1.65,0s-.14,0-.14-.13v-1c0-.15,0-.16.14-.16s.48,0,1.65,0h7.8c1.18,0,1.57,0,1.65,0s.15,0,.15.16v1c0,.11,0,.13-.15.13s-.47,0-1.65,0h-3.33v1.27h.8c1.17,0,1.56,0,1.63,0s.16,0,.16.15,0,.49,0,1.41v3c0,.91,0,1.33,0,1.4s0,.15-.16.15-.46,0-1.63,0h-2.73c-1.16,0-1.55,0-1.64,0s-.14,0-.14-.15,0-.49,0-1.4v-3c0-.92,0-1.33,0-1.41s0-.15.14-.15.48,0,1.64,0h.72v-1.27Zm8.06,3.24a16.06,16.06,0,0,0-.08-1.9c.5,0,.9,0,1.32.1.15,0,.24.08.24.2a.45.45,0,0,1-.07.25,3.73,3.73,0,0,0-.11,1.36V134c0,1.65,0,2.51,0,2.58s0,.15-.15.15h-1c-.13,0-.14,0-.14-.15v-.52h-8.29v.52c0,.13,0,.15-.15.15h-1c-.13,0-.15,0-.15-.15s0-.92,0-2.56v-4.25a14,14,0,0,0-.08-1.83c.51,0,.89,0,1.3.1.16,0,.25.09.25.2a.58.58,0,0,1-.09.27,4.32,4.32,0,0,0-.09,1.35v5h8.29Zm-4.78.48V129h-1.33v1.38Zm0,2.49v-1.49h-1.33v1.49Zm1.18-3.87v1.38H114V129Zm1.39,2.38h-1.39v1.49H114Z"/><path d="M125.84,124.85a7.53,7.53,0,0,0,0,11.91l-.34.41c-2.49-1.82-3.52-3.8-3.52-6.36s1-4.54,3.52-6.36Z"/><path d="M130.39,131.13c.12.08.2.16.2.25s0,.13-.15.21a1.12,1.12,0,0,0-.32.44,9.79,9.79,0,0,1-1.45,2.17c-.09.11-.16.16-.26.16a.41.41,0,0,1-.19-.08,4,4,0,0,0-1.11-.55,8.52,8.52,0,0,0,1.58-2.14,3.1,3.1,0,0,0,.35-1.05A6.69,6.69,0,0,1,130.39,131.13Zm1.73-3.57a10.54,10.54,0,0,0-.14-2c.61,0,1.28.13,1.61.19.15,0,.23.09.23.2a.42.42,0,0,1-.08.23,3.14,3.14,0,0,0-.13,1.3v.69h1.6c1.13,0,2,0,2.66-.08.11,0,.16.07.16.21a6.8,6.8,0,0,1,0,1c0,.17-.05.26-.18.25-.81,0-1.79-.06-2.68-.06h-1.53v2.62c0,.69,0,1.25,0,2.26a1.36,1.36,0,0,1-.77,1.34,3.93,3.93,0,0,1-1.67.43c-.15,0-.23-.08-.31-.27a2.9,2.9,0,0,0-.87-1.17,6.17,6.17,0,0,0,1.77-.16c.21-.09.3-.23.3-.57V129.5h-2c-.74,0-1.64,0-2.25.09-.12,0-.17-.11-.17-.26s0-.82,0-1.25c1,.08,1.78.09,2.44.09h2.07Zm3.82,3.11a.24.24,0,0,1,.17-.07c.08,0,.13,0,.2.12a9.83,9.83,0,0,1,1.85,2.38.28.28,0,0,1,.07.19.26.26,0,0,1-.13.21,6.35,6.35,0,0,1-.87.65c-.07,0-.12.08-.16.08s-.09,0-.14-.13a12.35,12.35,0,0,0-2-2.73C135.3,131.11,135.64,130.89,135.94,130.67Z"/><path d="M143.69,130c-.65,0-1.3,0-1.95.05-.12,0-.17-.07-.2-.24a11.92,11.92,0,0,1-.14-1.32,22.32,22.32,0,0,0,2.39.11h4.46a1.53,1.53,0,0,0,.69-.14.26.26,0,0,1,.17-.08.36.36,0,0,1,.2.09,8.77,8.77,0,0,1,.87.8.42.42,0,0,1,.13.28.29.29,0,0,1-.15.24,1.6,1.6,0,0,0-.44.61,11.35,11.35,0,0,1-5.3,5.75.73.73,0,0,1-.26.09.43.43,0,0,1-.29-.15,3.71,3.71,0,0,0-1.21-.68,10.1,10.1,0,0,0,5.46-5.42Zm.87-2.79c-.59,0-1.23,0-1.78,0-.13,0-.17-.08-.18-.29a10.87,10.87,0,0,1-.07-1.25,17.5,17.5,0,0,0,2.13.1H147c.85,0,1.54,0,2.05-.07.11,0,.15.07.15.21a5.68,5.68,0,0,1,0,1c0,.22,0,.28-.23.26l-1.84,0Z"/><path d="M156.09,131.73a10.09,10.09,0,0,0-1.91.16c-.16,0-.26-.08-.3-.27a15.15,15.15,0,0,1-.19-1.58,16.52,16.52,0,0,0,2.8.16h4.19c1,0,2,0,3,0,.2,0,.23,0,.23.18a8.28,8.28,0,0,1,0,1.22c0,.16-.05.21-.23.2l-2.9,0Z"/><path d="M166.14,124.45c2.5,1.82,3.52,3.8,3.52,6.36s-1,4.54-3.52,6.36l-.34-.41a7.52,7.52,0,0,0,0-11.91Z"/><path d="M172.84,137H172l5.29-12.37h.82Z"/><path d="M181.91,126.69a13.54,13.54,0,0,0-.1-1.84c.48,0,.87,0,1.31.1.13,0,.21.07.21.13a.61.61,0,0,1-.08.27,3.75,3.75,0,0,0-.09,1.31v2.45h.1c1,0,1.33,0,1.41,0s.14,0,.14.14v.93c0,.11,0,.13-.14.13s-.39,0-1.33,0a11.87,11.87,0,0,0,1.75,2.25,4.46,4.46,0,0,0-.52.86c-.07.15-.13.23-.18.23s-.11-.06-.21-.19a11.62,11.62,0,0,1-1.05-1.86c0,2.57.09,4.9.09,5.09s0,.15-.15.15H182c-.13,0-.14,0-.14-.15s.06-2.34.09-4.77a12.24,12.24,0,0,1-1.57,3c-.11.13-.17.2-.24.2s-.1-.06-.15-.22a3.65,3.65,0,0,0-.47-.95,10.85,10.85,0,0,0,2.09-3.61h-.23c-1,0-1.34,0-1.42,0s-.14,0-.14-.13v-.93c0-.13,0-.14.14-.14s.4,0,1.42,0h.53Zm-1.25-.89c.16-.06.17,0,.24.08a11.12,11.12,0,0,1,.7,2.19c0,.13,0,.16-.17.23l-.56.21c-.2.08-.21.06-.23-.08a10.15,10.15,0,0,0-.67-2.17c-.05-.14,0-.17.15-.24Zm3.34.43a3.57,3.57,0,0,0,.08-.56,9.62,9.62,0,0,1,1,.37c.1,0,.14.09.14.15s0,.11-.08.13a.56.56,0,0,0-.15.29,16.92,16.92,0,0,1-.6,1.65c-.08.2-.12.27-.2.27a.59.59,0,0,1-.26-.11,2.26,2.26,0,0,0-.52-.22A11.06,11.06,0,0,0,184,126.23Zm4.72,5.89v-5.2a12.41,12.41,0,0,0-.1-2A12.3,12.3,0,0,1,190,125c.11,0,.19.06.19.14a.7.7,0,0,1-.08.26,5.54,5.54,0,0,0-.08,1.44v5c.76-.15,1.06-.24,1.17-.27s.12,0,.15.13l.15,1c0,.12,0,.13-.13.16s-.44.08-1.34.26v1.21c0,1.44,0,2.18,0,2.25s0,.14-.14.14h-1.08c-.13,0-.14,0-.14-.14s0-.8,0-2.24v-1l-1.78.35-1.68.34c-.13,0-.15,0-.17-.11l-.16-1c0-.15,0-.15.11-.17s.56-.07,1.69-.29Zm-2.86-3.31c.07-.07.09-.09.12-.09s.06,0,.13.07a9.31,9.31,0,0,1,1.79,1.67c.09.12.09.14,0,.27l-.63.64c-.15.13-.17.13-.26,0a11.51,11.51,0,0,0-1.72-1.76c-.05-.06-.09-.08-.09-.11s0-.08.1-.14Zm.35-3c.12-.1.13-.13.25,0a9.21,9.21,0,0,1,1.83,1.65c.08.09.08.15,0,.25l-.62.61c-.14.14-.17.16-.25,0a8.78,8.78,0,0,0-1.77-1.7c-.09-.07-.1-.13,0-.25Z"/><path d="M195.4,132.69c.46-.2.9-.41,1.36-.66a6,6,0,0,0,0,.85c0,.42,0,.42-.33.62a25,25,0,0,1-2.81,1.25,2.17,2.17,0,0,0-.4.19.28.28,0,0,1-.21.09c-.06,0-.12,0-.17-.16a10.29,10.29,0,0,1-.32-1.23,8.75,8.75,0,0,0,1.22-.31l.38-.13v-2.82c-.82,0-1.07,0-1.15,0s-.14,0-.14-.15v-.93c0-.15,0-.16.14-.16s.33,0,1.15,0v-2.29H194c-.87,0-1.15,0-1.22,0s-.13,0-.13-.14v-1c0-.14,0-.15.13-.15s.35,0,1.22,0h1.35c.88,0,1.16,0,1.22,0s.15,0,.15.15v1c0,.13,0,.14-.15.14s-.34,0-1.21,0v2.29c.72,0,1,0,1,0s.13,0,.13.16v.93c0,.13,0,.15-.13.15s-.32,0-1,0Zm2.38,3.49c-1.28,0-1.73,0-1.8,0s-.15,0-.15-.14v-.92c0-.13,0-.14.15-.14s.52,0,1.8,0h2v-1.27H199c-1.19,0-1.6,0-1.67,0s-.15,0-.15-.14v-.9c0-.13,0-.14.15-.14s.48,0,1.67,0h.81V131.5h-.85c-1.18,0-1.61,0-1.69,0s-.15,0-.15-.13,0-.49,0-1.44v-2.89c0-.92,0-1.32,0-1.41s0-.14.15-.14.51,0,1.69,0H202c1.19,0,1.61,0,1.7,0s.14,0,.14.14,0,.49,0,1.41V130c0,1,0,1.37,0,1.44s0,.13-.14.13-.51,0-1.7,0h-.95v1.12h1c1.18,0,1.6,0,1.67,0s.15,0,.15.14v.9c0,.13,0,.14-.15.14s-.49,0-1.67,0h-1V135h1.49c1.28,0,1.73,0,1.8,0s.14,0,.14.14v.92c0,.13,0,.14-.14.14s-.52,0-1.8,0Zm2-8.23v-1.31h-1.44V128Zm0,2.46V129h-1.44v1.4Zm1.3-3.77V128h1.53v-1.31Zm1.53,2.37h-1.53v1.4h1.53Z"/><path d="M206.64,137h-.82l5.29-12.37h.82Z"/><path d="M221.16,129.51a8.77,8.77,0,0,1-1.06,4,7.48,7.48,0,0,1-2.57,2.78.47.47,0,0,1-.27.1.29.29,0,0,1-.22-.09,5.1,5.1,0,0,0-1.34-.57,7,7,0,0,0,3.83-6.2h-2.68a12.85,12.85,0,0,1-1.8,2.24.36.36,0,0,1-.22.1.34.34,0,0,1-.19-.07,3.84,3.84,0,0,0-1.21-.46,13.68,13.68,0,0,0,3.07-4.24,5.4,5.4,0,0,0,.52-1.8,9.76,9.76,0,0,1,1.56.6.23.23,0,0,1,.16.22.3.3,0,0,1-.14.25,1.17,1.17,0,0,0-.39.53c-.2.46-.43.93-.6,1.25h4.17c.81,0,1.68,0,2.5-.06.15,0,.2.06.2.23a9.2,9.2,0,0,1,0,1c0,.13,0,.21-.18.21-.53,0-1.58-.05-2.38-.05Zm1.44-3.95c.06,0,.12,0,.19,0A5.89,5.89,0,0,1,224,127a.13.13,0,0,1,0,.21l-.55.41a.14.14,0,0,1-.22,0,6.23,6.23,0,0,0-1.31-1.51Zm1.16-.85c.07,0,.11,0,.19,0a5.39,5.39,0,0,1,1.24,1.34.15.15,0,0,1,0,.23l-.52.4c-.11.08-.17,0-.22,0a6.31,6.31,0,0,0-1.3-1.49Z"/><path d="M229.54,131.73a10.09,10.09,0,0,0-1.91.16c-.16,0-.26-.08-.3-.27a15.15,15.15,0,0,1-.19-1.58,16.52,16.52,0,0,0,2.8.16h4.19c1,0,2,0,3,0,.2,0,.23,0,.23.18a8.28,8.28,0,0,1,0,1.22c0,.16,0,.21-.23.2l-2.9,0Z"/><path d="M246,126.21c.09.06.16.13.16.21a.43.43,0,0,1-.13.25,4.37,4.37,0,0,0-.54,1.08c-.73,2-1.41,3.9-2.23,5.85,2-.17,3.09-.27,4.55-.49a13.17,13.17,0,0,0-1.45-2.08l1.13-.62a.22.22,0,0,1,.32.07,18.22,18.22,0,0,1,2.62,4.26.27.27,0,0,1,0,.16.29.29,0,0,1-.16.23,8.51,8.51,0,0,1-1,.53.47.47,0,0,1-.16,0c-.08,0-.14-.07-.18-.19-.16-.36-.3-.7-.46-1-2.08.32-4.05.54-6.17.76a4.24,4.24,0,0,0-1.52.31c-.17.08-.31.05-.38-.13a12.52,12.52,0,0,1-.45-1.68c.52,0,1.06,0,1.58,0,.93-2.33,1.6-4.25,2.28-6.44a6.43,6.43,0,0,0,.37-1.78A6.78,6.78,0,0,1,246,126.21Z"/><path d="M58.14,163.62c0-.45,0-1,0-1.56-.24.32-.49.65-.76.95-.11.13-.19.19-.25.19S57,163.13,57,163a4.31,4.31,0,0,0-.53-1.18,12.35,12.35,0,0,0,2.66-4.57,4.31,4.31,0,0,0,.23-1,12.94,12.94,0,0,1,1.37.44c.15.06.22.11.22.21s0,.15-.15.23-.15.21-.28.58a21.27,21.27,0,0,1-.91,2.07v7c0,1.38,0,2.06,0,2.13s0,.16-.16.16h-1.2c-.13,0-.14,0-.14-.16s0-.75,0-2.13Zm4.34-2.85c-1.37,0-1.84,0-1.92,0s-.15,0-.15-.15v-1.1c0-.14,0-.15.15-.15s.55,0,1.92,0h1.41v-1.09a11.88,11.88,0,0,0-.11-2c.52,0,1,0,1.49.08.14,0,.22.09.22.16a.66.66,0,0,1-.08.29,4.08,4.08,0,0,0-.09,1.42v1.12h2c1.36,0,1.83,0,1.93,0s.14,0,.14.15v1.1c0,.14,0,.15-.14.15s-.57,0-1.93,0H65.76a12.83,12.83,0,0,0,3.95,4.93,3.91,3.91,0,0,0-.7,1c-.12.21-.17.3-.26.3s-.14-.07-.28-.2a13.6,13.6,0,0,1-3.19-4.56c0,3.54.1,6.38.1,6.66s0,.17-.16.17H64c-.14,0-.16,0-.16-.17s.06-3.11.07-6.51a12.06,12.06,0,0,1-3,4.48c-.13.13-.21.21-.28.21s-.13-.1-.22-.29a3.27,3.27,0,0,0-.69-.94,12.45,12.45,0,0,0,3.71-5.06Z"/><path d="M72.74,168.84c-.14,0-.15,0-.15-.15s0-.93,0-5V161c0-2.72,0-3.57,0-3.66s0-.17.15-.17.57,0,1.93,0h4.81c1.36,0,1.85,0,1.93,0s.15,0,.15.17,0,.94,0,3.24v3.11c0,4,0,4.84,0,4.93s0,.15-.15.15H80.16c-.14,0-.15,0-.15-.15v-.69H74.14v.76c0,.14,0,.15-.15.15Zm1.4-7.06H80v-3.19H74.14ZM80,166.54v-3.39H74.14v3.39Z"/><path d="M88.18,157.52c.16.09.21.17.21.28a.66.66,0,0,1-.1.31,3.41,3.41,0,0,0-.25.77,28.1,28.1,0,0,0-.7,5.1c0,.56,0,1.21,0,1.79.28-.64.58-1.24.87-1.94a3.93,3.93,0,0,0,.49.88.3.3,0,0,1,.09.2.37.37,0,0,1-.09.22,8,8,0,0,0-.71,2.13,2.71,2.71,0,0,0,0,.74c0,.1,0,.14-.16.18a5.44,5.44,0,0,1-1,.24c-.16,0-.21,0-.28-.17a12.79,12.79,0,0,1-.61-4.27,29.93,29.93,0,0,1,.58-5.31,7.36,7.36,0,0,0,.1-1.65A11.3,11.3,0,0,1,88.18,157.52ZM93,161.26a27.87,27.87,0,0,1-2.89,0c-.18,0-.23,0-.25-.18a9.63,9.63,0,0,1-.09-1.28,21.22,21.22,0,0,0,3.19.05c0-.51,0-1,0-1.48a5.43,5.43,0,0,0-.18-1.37,7.93,7.93,0,0,1,1.7.27c.15,0,.25.11.25.24a.62.62,0,0,1-.08.23,1.68,1.68,0,0,0-.12.49c0,.48,0,.84,0,1.49.66-.06,1.39-.16,2-.25.17-.05.2,0,.23.16a6.43,6.43,0,0,1,.08,1q0,.19-.15.21a14.53,14.53,0,0,1-2.16.29c0,1.57,0,2.55.1,3.76a9,9,0,0,1,2.32,1.34c.13.09.14.13.07.28a6.83,6.83,0,0,1-.64,1.08c0,.06-.08.09-.13.09a.17.17,0,0,1-.12-.08,9.4,9.4,0,0,0-1.51-1.12c-.12,1.18-.92,1.83-2.57,1.83s-2.51-.76-2.51-2,1-2,2.46-2a5.91,5.91,0,0,1,1.12.11C93,163.39,93,162.37,93,161.26Zm-1.13,4.36c-.66,0-1.06.24-1.06.67s.31.7,1.14.7,1.15-.4,1.15-.91a1.37,1.37,0,0,0,0-.28A3.82,3.82,0,0,0,91.87,165.62Z"/><path d="M108.23,160.84a13.48,13.48,0,0,1,.2,2.15,6.37,6.37,0,0,1-1.26,4,4,4,0,0,1-3.4,1.46c-2.19,0-3.65-1.55-3.65-3.94a7.83,7.83,0,0,1,1.29-4.18,6.21,6.21,0,0,1,.84-1c-.46.07-1,.12-1.57.23-.24,0-.45.14-.56.14s-.19-.1-.24-.21a9.82,9.82,0,0,1-.37-1.43,6.92,6.92,0,0,0,1.44,0,18.05,18.05,0,0,0,1.83-.24,2.64,2.64,0,0,0,1-.29.44.44,0,0,1,.22-.12c.07,0,.12.05.19.12a3.15,3.15,0,0,1,.59.74.64.64,0,0,1,.13.32c0,.11-.07.2-.22.28a5.19,5.19,0,0,0-1.34,1.22,6.57,6.57,0,0,0-1.72,4.2c0,1.79.9,2.61,2.1,2.61a2.74,2.74,0,0,0,2.51-1.28,7.09,7.09,0,0,0,.87-3.81,17.78,17.78,0,0,0-.09-2.1c0-.29-.07-.56-.09-.73s-.09-.35-.16-.57-.07-.31.14-.38a9,9,0,0,1,1-.27.18.18,0,0,1,.21.16,19.29,19.29,0,0,0,.94,2.1,14.19,14.19,0,0,0,2.3,3.18.29.29,0,0,1,.08.18.45.45,0,0,1-.09.22,6.37,6.37,0,0,1-.78.89.23.23,0,0,1-.15.07.26.26,0,0,1-.22-.17,15.55,15.55,0,0,1-1.94-3.61Z"/><path d="M120.2,158.73c.16,0,.21,0,.23.14,0,.31.08.71.09,1s0,.22-.21.26a19.59,19.59,0,0,1-2.43.53c-1,3.12-1.67,5.26-2.57,7.58-.07.2-.15.19-.3.14s-.83-.35-1.13-.51a.24.24,0,0,1-.11-.29A52.14,52.14,0,0,0,116.2,161c-.82.08-1.8.15-2.46.15-.21,0-.26,0-.29-.23s-.13-.76-.2-1.27a6.91,6.91,0,0,0,1,0,18.52,18.52,0,0,0,2.27-.14c.14-.56.25-1.17.35-1.75a9,9,0,0,0,.08-1.29,8.09,8.09,0,0,1,1.77.4.23.23,0,0,1,.15.22.32.32,0,0,1-.07.22,3,3,0,0,0-.29.56c-.14.51-.24,1-.34,1.33C118.76,159.11,119.52,158.92,120.2,158.73Zm-.54,6.69c.14,0,.19.06.21.2.11,1,.79,1.32,2.14,1.32a20.89,20.89,0,0,0,2.35-.2c.11,0,.16,0,.17.13a8.14,8.14,0,0,1,.11,1.22c0,.16,0,.21-.22.22a16.79,16.79,0,0,1-1.91.15c-1.83,0-2.78-.25-3.41-.91a2.68,2.68,0,0,1-.63-1.92A7.14,7.14,0,0,1,119.66,165.42Zm-.16-3.71c0-.19,0-.24.25-.28a14.88,14.88,0,0,1,2.73-.32,10.66,10.66,0,0,1,1.64.14c.2,0,.24,0,.24.21a10.32,10.32,0,0,1,0,1.12c0,.24-.07.29-.27.25a9.16,9.16,0,0,0-1.74-.17,14.81,14.81,0,0,0-2.81.33C119.53,162.5,119.5,162,119.5,161.71Z"/><path d="M133,157.62a4.63,4.63,0,0,0-.17-1,12,12,0,0,1,1.64.2c.24,0,.39.13.39.26a.56.56,0,0,1-.13.32,1.79,1.79,0,0,0-.11.41c0,.18,0,.36,0,.9,1.52-.06,3-.07,4.3-.07.17,0,.2,0,.21.21a9.37,9.37,0,0,1,0,1.06c0,.16-.07.2-.23.18-1.46,0-2.82,0-4.28,0,0,.85,0,1.75,0,2.6a4.36,4.36,0,0,1,.21,1.39,5.22,5.22,0,0,1-2.5,4.52,1.26,1.26,0,0,1-.54.27.79.79,0,0,1-.42-.21,3,3,0,0,0-1.07-.56,4.73,4.73,0,0,0,2.88-3.08,1.64,1.64,0,0,1-1.32.56,1.94,1.94,0,0,1-1.95-2.15,2,2,0,0,1,2.12-2.1,1.73,1.73,0,0,1,1.06.28c0-.49,0-1,0-1.43-1.77.1-3.74.27-4.85.42-.31.05-.53.17-.66.17s-.19-.06-.24-.19a11.7,11.7,0,0,1-.35-1.42,8.63,8.63,0,0,0,1.71-.06c.86-.07,2.66-.18,4.35-.28C133,158.35,133,158,133,157.62Zm-1.8,5.68a.87.87,0,0,0,.9.95.9.9,0,0,0,1-1,.84.84,0,0,0-.92-.9A.9.9,0,0,0,131.2,163.3Z"/><path d="M144.69,160.1c.15.07.22.16.22.27a.44.44,0,0,1-.07.21,2.52,2.52,0,0,0-.28.74,24.2,24.2,0,0,0-.34,2.55,6.84,6.84,0,0,1,4.68-2.21c2,0,3.27,1.19,3.27,3a3.43,3.43,0,0,1-2.12,3.14,12.23,12.23,0,0,1-3.58,1c-.31,0-.44,0-.57-.18a3.47,3.47,0,0,0-1-1.2,11.37,11.37,0,0,0,3.85-.78,2.3,2.3,0,0,0,1.66-2.11c0-.76-.48-1.45-1.68-1.45a6.24,6.24,0,0,0-4,2.13,3.91,3.91,0,0,0-.6.77c-.08.14-.14.14-.32.1a10.09,10.09,0,0,1-1-.38c-.14,0-.19-.08-.19-.28.08-1.62.26-3.28.43-4.52a8.26,8.26,0,0,0,.13-1.26A7.91,7.91,0,0,1,144.69,160.1Zm.35-3.54a.21.21,0,0,1,.26-.07,9.19,9.19,0,0,1,2.75,1.66c.07.06.1.1.1.16a.43.43,0,0,1-.07.17,10.67,10.67,0,0,1-.72,1,.23.23,0,0,1-.15.11c-.06,0-.1,0-.17-.1a10.93,10.93,0,0,0-2.83-1.82A7.44,7.44,0,0,1,145,156.56Z"/><path d="M162,159.37a17.52,17.52,0,0,1-1.75,6,2.66,2.66,0,0,1-2.38,1.61c-1.23,0-2.48-1.32-2.48-3.6a5.2,5.2,0,0,1,1.58-3.64,6.14,6.14,0,0,1,4.56-1.79c3.36,0,5.33,2.07,5.33,4.86,0,2.6-1.47,4.24-4.31,5.1-.29.08-.42,0-.6-.26a3.13,3.13,0,0,0-1-.88c2.36-.56,4.23-1.54,4.23-4.19a3.19,3.19,0,0,0-3.14-3.25Zm-4,1.36a4.06,4.06,0,0,0-1.09,2.59c0,1.29.52,2,1,2s.68-.19,1-.86a15.91,15.91,0,0,0,1.49-5A4.23,4.23,0,0,0,157.94,160.73Z"/><path d="M168.93,163.06c1.14-1.31,2.15-1.94,3.31-1.94a5.75,5.75,0,0,1,2.84.89,6.48,6.48,0,0,0,3,1.06,3.26,3.26,0,0,0,2.6-1.34l.56.58a4.23,4.23,0,0,1-3.33,2,5.63,5.63,0,0,1-2.84-.91,6.2,6.2,0,0,0-3-1.06,3.34,3.34,0,0,0-2.56,1.3Z"/><path d="M186.83,163.24a2.8,2.8,0,0,1,1.71-.72c1.51,0,1.89,1.31,2,2.65.11,1,.28,1.49.81,1.49a1.79,1.79,0,0,0,1.32-.68,6.85,6.85,0,0,0,1.41-2.28,3.26,3.26,0,0,0,.82,1.16.4.4,0,0,1,.15.3.45.45,0,0,1-.06.24,7.67,7.67,0,0,1-1.2,1.73,3.49,3.49,0,0,1-2.58,1.18c-1.41,0-2-.74-2.2-2.72-.12-1.4-.43-1.8-.92-1.8a2.43,2.43,0,0,0-1.77,1.19,16.62,16.62,0,0,0-1.64,3.11c-.08.19-.15.22-.33.16a4.39,4.39,0,0,1-1.08-.6.28.28,0,0,1-.13-.18.44.44,0,0,1,.07-.2c2.05-4,3.34-6.68,4.11-8.43a8.08,8.08,0,0,0,.7-2,7.61,7.61,0,0,1,1.57.78.36.36,0,0,1,.19.29.39.39,0,0,1-.15.28,3.55,3.55,0,0,0-.43.61c-.9,1.72-1.66,3.19-2.43,4.45Z"/><path d="M206.08,161.07a13.12,13.12,0,0,1,.19,2.14,6.4,6.4,0,0,1-1.26,4,4,4,0,0,1-3.4,1.46c-2.18,0-3.64-1.56-3.64-4a7.86,7.86,0,0,1,1.29-4.15,5.63,5.63,0,0,1,.84-1c-.46.07-1,.11-1.57.22-.24.05-.45.14-.56.14a.27.27,0,0,1-.24-.21,9.28,9.28,0,0,1-.38-1.43,7,7,0,0,0,1.45,0,15.88,15.88,0,0,0,1.83-.24,2.33,2.33,0,0,0,1-.29.48.48,0,0,1,.22-.11.29.29,0,0,1,.2.11,3.62,3.62,0,0,1,.59.74.76.76,0,0,1,.13.32c0,.12-.07.2-.23.28a5.33,5.33,0,0,0-1.33,1.22,6.59,6.59,0,0,0-1.72,4.2c0,1.8.89,2.61,2.1,2.61a2.77,2.77,0,0,0,2.51-1.27,7.12,7.12,0,0,0,.86-3.81,18.6,18.6,0,0,0-.08-2.11c0-.29-.07-.56-.1-.72s-.08-.35-.15-.58-.07-.31.14-.38a8.48,8.48,0,0,1,1.05-.26c.11,0,.18.05.21.15a15.51,15.51,0,0,0,.94,2.1,14.23,14.23,0,0,0,2.29,3.18.28.28,0,0,1,.09.18.42.42,0,0,1-.1.23,6.14,6.14,0,0,1-.77.88.2.2,0,0,1-.15.07.26.26,0,0,1-.23-.17,15.93,15.93,0,0,1-1.93-3.61Zm.83-4.18c.07,0,.12,0,.21,0a6.88,6.88,0,0,1,1.33,1.5.14.14,0,0,1,0,.22l-.58.44a.15.15,0,0,1-.24,0,6.83,6.83,0,0,0-1.42-1.63Zm1.24-.91c.09,0,.13,0,.21,0a5.62,5.62,0,0,1,1.33,1.44.17.17,0,0,1,0,.26l-.56.43a.15.15,0,0,1-.24,0,6.47,6.47,0,0,0-1.4-1.61Z"/><path d="M215.46,157.19c.18.07.26.15.26.28a.32.32,0,0,1-.1.22,1.86,1.86,0,0,0-.25.66c-.19,1-.31,2-.39,2.68a13.14,13.14,0,0,0,0,1.54c.31-.55.6-1.08,1-1.8a2.86,2.86,0,0,0,.43.91.36.36,0,0,1,.09.23.71.71,0,0,1-.14.35,11.56,11.56,0,0,0-.83,1.79,1.67,1.67,0,0,0-.07.42.21.21,0,0,1-.18.23c-.17,0-.77.12-1.12.16-.1,0-.17-.08-.2-.18a9.06,9.06,0,0,1-.42-2.84,30.17,30.17,0,0,1,.34-3.49,14.37,14.37,0,0,0,.11-1.6A7.58,7.58,0,0,1,215.46,157.19ZM220,157c.28.07.31.14.28.38a4.57,4.57,0,0,0,0,.64c.1,1.33.2,2.61.2,3.62a9.15,9.15,0,0,1-1.07,4.86,7.75,7.75,0,0,1-2.31,2.25.48.48,0,0,1-.28.1.39.39,0,0,1-.29-.15,3.26,3.26,0,0,0-1.19-.65,6.88,6.88,0,0,0,2.38-1.88,6.73,6.73,0,0,0,1.17-4.46c0-1-.07-2.46-.16-3.35a6.37,6.37,0,0,0-.3-1.53A8.43,8.43,0,0,1,220,157Z"/><path d="M229.55,157.16c.24.05.34.13.34.27a1.29,1.29,0,0,1-.14.46,8.17,8.17,0,0,0-.2,1.71c-.14,2.15-.21,3.58-.21,5.42,0,1.41.17,1.73,1.29,1.73a7.38,7.38,0,0,0,4.91-2.57,4.71,4.71,0,0,0,.32,1.33.89.89,0,0,1,.11.33c0,.13-.06.24-.28.44a8,8,0,0,1-5.31,2.1c-1.79,0-2.63-.71-2.63-2.86,0-2.35.12-4.37.19-6.05a9.21,9.21,0,0,0-.14-2.56A14.63,14.63,0,0,1,229.55,157.16Z"/><path d="M64.2,183.23c.16,0,.21,0,.23.14,0,.31.08.71.09,1s0,.22-.21.26a19.59,19.59,0,0,1-2.43.53c-1,3.12-1.67,5.26-2.57,7.58-.07.2-.15.19-.3.14s-.83-.35-1.13-.51a.24.24,0,0,1-.11-.29,52.14,52.14,0,0,0,2.43-6.63c-.82.08-1.8.15-2.46.15-.21,0-.26,0-.29-.23s-.13-.76-.2-1.27a6.91,6.91,0,0,0,1,0,18.52,18.52,0,0,0,2.27-.14c.14-.56.25-1.17.35-1.75A9,9,0,0,0,61,181a8.09,8.09,0,0,1,1.77.4.23.23,0,0,1,.15.22.32.32,0,0,1-.07.22,3,3,0,0,0-.29.56c-.14.51-.24,1-.34,1.33C62.76,183.61,63.52,183.42,64.2,183.23Zm-.54,6.69c.14,0,.19.06.21.2.11,1,.79,1.32,2.14,1.32a20.89,20.89,0,0,0,2.35-.2c.11,0,.16,0,.17.13a8.14,8.14,0,0,1,.11,1.22c0,.16,0,.21-.22.22a16.79,16.79,0,0,1-1.91.15c-1.83,0-2.78-.25-3.41-.91a2.68,2.68,0,0,1-.63-1.92A7.14,7.14,0,0,1,63.66,189.92Zm-.16-3.71c0-.19,0-.24.25-.28a14.88,14.88,0,0,1,2.73-.32,10.66,10.66,0,0,1,1.64.14c.2,0,.24,0,.24.21a10.32,10.32,0,0,1,0,1.12c0,.24-.07.29-.27.25a9.16,9.16,0,0,0-1.74-.17,14.81,14.81,0,0,0-2.81.33C63.53,187,63.5,186.49,63.5,186.21Z"/><path d="M73.48,183.19c.13.05.23.15.23.25a1.33,1.33,0,0,1-.12.39,6.85,6.85,0,0,0-.12,1.37,18,18,0,0,0,.25,3.2c.2,1.1.56,2.06,1.15,2.06s.8-.49,1.34-2a5.56,5.56,0,0,0,.9,1.08.43.43,0,0,1,.1.52c-.53,1.42-1.4,2.18-2.38,2.18s-2.24-1.29-2.62-3.66a24.66,24.66,0,0,1-.34-4.07,7.58,7.58,0,0,0-.17-1.84A6.27,6.27,0,0,1,73.48,183.19Zm6.5.88a.4.4,0,0,1,.16-.06s.09,0,.15.09A9.26,9.26,0,0,1,83,188.89c0,.18,0,.24-.15.31a5.12,5.12,0,0,1-1.09.56c-.17.05-.27,0-.3-.16a9.41,9.41,0,0,0-2.62-4.89C79.41,184.38,79.76,184.18,80,184.07Z"/><path d="M90,189.69v1.75h1.83v-.63a3.52,3.52,0,0,0-.07-.79c.51,0,1,.06,1.4.11.13,0,.2.07.2.16a.75.75,0,0,1-.08.24,1.06,1.06,0,0,0-.07.5v.84c0,.24,0,.42,0,.51s0,.16-.15.16c-.38,0-1,0-2,0H86.72V193c0,.14,0,.16-.15.16H85.49c-.15,0-.17,0-.17-.16s0-.26,0-.73v-1.14a5.61,5.61,0,0,0-.07-1.11,12.13,12.13,0,0,1,1.4.1c.14,0,.2.08.2.15a.44.44,0,0,1-.07.21,1,1,0,0,0-.07.35v.58h1.83v-1.75c-1.13,0-1.76,0-1.83,0s-.15,0-.15-.15,0-.6,0-1.74v-4c0-1.12,0-1.63,0-1.7s0-.15.15-.15.57,0,1.9,0h.65c.11-.23.19-.44.26-.63a3.33,3.33,0,0,0,.2-.77c.48,0,.94.1,1.49.19.11,0,.18.09.18.17s-.06.14-.13.21a.74.74,0,0,0-.22.28c-.09.18-.16.37-.23.55h2.08c1.34,0,1.82,0,1.89,0s.17,0,.17.15,0,.38,0,1.18V185c0,.8,0,1.06,0,1.14s0,.2-.17.2-.55,0-1.89,0H88v.66H95.2c1.37,0,1.85,0,1.93,0s.17,0,.17.16v.77c0,.15,0,.17-.17.17s-.56,0-1.93,0H88v.67h6.78c1.38,0,1.86,0,1.94,0s.19,0,.17.17c0,.31,0,.67-.08,1a6.86,6.86,0,0,1-.74,3.15,1.64,1.64,0,0,1-1.36.54H94c-.31,0-.32,0-.36-.34a3.76,3.76,0,0,0-.32-1,7.63,7.63,0,0,0,1.13.1.6.6,0,0,0,.6-.28,7.28,7.28,0,0,0,.37-2.18ZM88,183v.69h5.49V183Zm5.49,1.58H88v.7h5.49Z"/><path d="M110.66,193c-.12.24-.16.34-.26.34s-.15-.06-.32-.17a11.16,11.16,0,0,1-4.94-6.69,10.5,10.5,0,0,1-5.07,6.71,1.06,1.06,0,0,1-.33.14c-.09,0-.15-.1-.28-.34a3.58,3.58,0,0,0-.81-.94,9.52,9.52,0,0,0,5.45-9.13c0-.62,0-1.21-.1-1.82.55,0,1.22.1,1.73.16.18,0,.26.12.26.23a.61.61,0,0,1-.14.35,2.38,2.38,0,0,0-.11.92c0,.17,0,.34,0,.51.6,4.1,2.36,6.82,5.71,8.64A3.82,3.82,0,0,0,110.66,193Z"/><path d="M119.92,184.05c-1.71.33-3.21.62-4.7.93-.54.13-.68.15-.89.22a.69.69,0,0,1-.31.12.33.33,0,0,1-.26-.21,9.72,9.72,0,0,1-.52-1.52,18.83,18.83,0,0,0,2.23-.24c1.72-.25,4.8-.71,8.42-1.19.21,0,.28.06.29.16a7.52,7.52,0,0,1,.15,1.23c0,.17-.08.21-.26.21a6,6,0,0,0-1.71.31c-2.38.81-3.57,2.45-3.57,4.13s1.29,2.79,3.72,2.94c.23,0,.31.06.31.21a4.89,4.89,0,0,1-.15,1.21c0,.21-.1.29-.27.29-2.46,0-5.17-1.41-5.17-4.33a5.08,5.08,0,0,1,2.69-4.44Zm2.78,1.52c.07-.06.12,0,.21,0a6.58,6.58,0,0,1,1.33,1.49.15.15,0,0,1,0,.23l-.58.43a.15.15,0,0,1-.24,0,6.78,6.78,0,0,0-1.42-1.62Zm1.24-.91c.09-.06.13,0,.21,0a6,6,0,0,1,1.33,1.45.16.16,0,0,1,0,.25l-.56.43c-.11.09-.18.05-.24,0a6.65,6.65,0,0,0-1.4-1.61Z"/><path d="M133,182.12a4.63,4.63,0,0,0-.17-1,12,12,0,0,1,1.64.2c.24,0,.39.13.39.26a.56.56,0,0,1-.13.32,1.79,1.79,0,0,0-.11.41c0,.18,0,.36,0,.9,1.52-.06,3-.07,4.3-.07.17,0,.2,0,.21.21a9.37,9.37,0,0,1,0,1.06c0,.16-.07.2-.23.18-1.46,0-2.82,0-4.28,0,0,.85,0,1.75,0,2.6a4.36,4.36,0,0,1,.21,1.39,5.22,5.22,0,0,1-2.5,4.52,1.26,1.26,0,0,1-.54.27.79.79,0,0,1-.42-.21,3,3,0,0,0-1.07-.56,4.73,4.73,0,0,0,2.88-3.08,1.64,1.64,0,0,1-1.32.56,1.94,1.94,0,0,1-1.95-2.15,2,2,0,0,1,2.12-2.1,1.73,1.73,0,0,1,1.06.28c0-.49,0-1,0-1.43-1.77.1-3.74.27-4.85.42-.31.05-.53.17-.66.17s-.19-.06-.24-.19a11.7,11.7,0,0,1-.35-1.42,8.63,8.63,0,0,0,1.71-.06c.86-.07,2.66-.18,4.35-.28C133,182.85,133,182.5,133,182.12Zm-1.8,5.68a.87.87,0,0,0,.9.95.9.9,0,0,0,1-1,.84.84,0,0,0-.92-.9A.9.9,0,0,0,131.2,187.8Z"/><path d="M144.69,191.83a2,2,0,1,1-2-2A2,2,0,0,1,144.69,191.83Zm-3.2,0a1.17,1.17,0,1,0,1.16-1.16A1.14,1.14,0,0,0,141.49,191.83Z"/><path d="M64,211.3a8,8,0,0,1-.83,3.57,7,7,0,0,1-2.47,2.65.81.81,0,0,1-.42.17.41.41,0,0,1-.29-.14,3.84,3.84,0,0,0-1.25-.75,6.15,6.15,0,0,0,2.79-2.49,6,6,0,0,0,.72-3H59.59c-.7,0-1.38,0-2.1.08-.12,0-.17-.08-.18-.26a8.48,8.48,0,0,1-.11-1.35c.78.07,1.57.07,2.38.07h6.29c1.09,0,1.9,0,2.73-.08.14,0,.15.08.15.28a9.73,9.73,0,0,1,0,1.08c0,.18-.08.24-.21.24-.72,0-1.69-.06-2.66-.06Zm-2.78-3.25c-.64,0-1.2,0-2,.06-.18,0-.22-.07-.23-.24,0-.34-.06-.84-.1-1.35,1,.06,1.69.07,2.32.07h2.58c.78,0,1.67,0,2.37-.05.14,0,.17.08.17.26a8.85,8.85,0,0,1,0,1c0,.19,0,.26-.19.26-.75,0-1.58,0-2.35,0Zm6-2.44c.07,0,.12,0,.19,0a6.19,6.19,0,0,1,1.19,1.62c0,.08,0,.15-.07.22l-.63.38c-.1.06-.17,0-.22-.07a7.19,7.19,0,0,0-1.26-1.75Zm1.33-.78c.08-.06.12,0,.19,0A6,6,0,0,1,70,206.44c0,.08.06.17-.07.25l-.59.38a.15.15,0,0,1-.23-.07,7.16,7.16,0,0,0-1.25-1.74Z"/><path d="M80.63,209.23c.68,0,1.47,0,2.11,0,.17,0,.18.08.2.23a10.28,10.28,0,0,1,0,1.11c0,.18,0,.23-.24.22H80.11A8.33,8.33,0,0,1,79,215a6.67,6.67,0,0,1-3.31,2.61,1.2,1.2,0,0,1-.39.12c-.08,0-.15,0-.27-.15a3.12,3.12,0,0,0-1.16-.84c2-.62,3.07-1.33,3.78-2.48a6.8,6.8,0,0,0,.83-3.57h-3v.5c0,.83,0,1.58,0,2.32,0,.16-.09.19-.24.2a8,8,0,0,1-1.2,0c-.19,0-.27,0-.26-.2,0-.72.07-1.41.07-2.29v-.53h-.42c-.75,0-1.87,0-2.31.07-.11,0-.15-.09-.17-.27a12.31,12.31,0,0,1-.09-1.36c.58,0,1.49.07,2.57.07h.42v-1a9.73,9.73,0,0,0-.16-2.06,14.54,14.54,0,0,1,1.7.22c.16,0,.21.1.21.2a1,1,0,0,1-.08.29,3.51,3.51,0,0,0-.1,1.35v1h3l0-1.37a9.4,9.4,0,0,0-.13-1.92,13.27,13.27,0,0,1,1.64.24c.2,0,.25.11.25.22a.72.72,0,0,1,0,.25,3.85,3.85,0,0,0-.11,1.24v1.33Zm.7-3.39a.14.14,0,0,1,.19,0,6.45,6.45,0,0,1,1.08,1.7c0,.1,0,.15-.08.21l-.58.29c-.11.06-.18,0-.24-.08a6.35,6.35,0,0,0-1.13-1.82Zm1.31-.61c.09,0,.13,0,.2.06a6.12,6.12,0,0,1,1.08,1.64.16.16,0,0,1-.09.24l-.56.28c-.12.05-.18,0-.22-.07a6.7,6.7,0,0,0-1.14-1.82Z"/><path d="M92.66,214.34c0,1,0,1.79,0,2.91,0,.19-.06.24-.21.24a10.9,10.9,0,0,1-1.4,0c-.16,0-.21-.05-.2-.22,0-1,.06-1.92.06-2.87v-3.27a24.53,24.53,0,0,1-3.86,2.69.42.42,0,0,1-.21.06.38.38,0,0,1-.29-.14,5.19,5.19,0,0,0-1.21-.83A22.39,22.39,0,0,0,89.81,210a23,23,0,0,0,3-2.93,4,4,0,0,0,.88-1.44,13,13,0,0,1,1.56,1,.26.26,0,0,1,.11.21.39.39,0,0,1-.2.31,4.64,4.64,0,0,0-.84.77,19.81,19.81,0,0,1-1.64,1.76Z"/><path d="M100.92,207.14a.27.27,0,0,1,.2-.11.41.41,0,0,1,.18.07,14.38,14.38,0,0,1,2.67,2c.09.08.13.14.13.19a.31.31,0,0,1-.08.18c-.21.29-.68.85-.87,1.06s-.11.11-.17.11-.11,0-.18-.11a14.9,14.9,0,0,0-2.86-2.29C100.25,207.85,100.65,207.42,100.92,207.14Zm1.22,7.38a20.63,20.63,0,0,0,4-2.6,21.33,21.33,0,0,0,3.84-3.81,6.7,6.7,0,0,0,.39,1.64.54.54,0,0,1,.07.26c0,.13-.07.24-.22.42a22.88,22.88,0,0,1-3.22,3,30,30,0,0,1-4.23,2.75,5,5,0,0,0-.94.64.36.36,0,0,1-.25.14.34.34,0,0,1-.24-.15,10.32,10.32,0,0,1-1.12-1.56A8.09,8.09,0,0,0,102.14,214.52Z"/><path d="M117.75,214.45c0,1.29.56,1.79,1.86,1.79,1.64,0,2.55-.63,2.55-1.89a3.36,3.36,0,0,0-1.26-2.55,4.59,4.59,0,0,0,1.43-.08.33.33,0,0,1,.3.06,3.65,3.65,0,0,1,1.19,2.63c0,2-1.63,3.28-4,3.28s-3.53-1.12-3.53-3.17c0-.29,0-.68.1-1.31a12.56,12.56,0,0,1-1.91-.42c-.09,0-.13-.1-.15-.27a8.09,8.09,0,0,1,0-1.3,8.89,8.89,0,0,0,2.27.54c.07-.52.18-1.43.24-2a10.42,10.42,0,0,1-2-.39c-.16,0-.22-.11-.22-.24,0-.34,0-.8,0-1.3a11.9,11.9,0,0,0,2.53.53c.11-.81.16-1.19.18-1.61a6.64,6.64,0,0,0,0-1.18,9.39,9.39,0,0,1,1.68.39c.2.07.31.2.31.33a.4.4,0,0,1-.11.26,1.42,1.42,0,0,0-.26.6c-.06.33-.15.8-.22,1.32a8.33,8.33,0,0,0,1.72-.08c.1,0,.14.07.14.16a6.24,6.24,0,0,1,0,1.06c0,.15-.06.19-.23.21a14.39,14.39,0,0,1-1.86.06c-.08.5-.23,1.45-.31,2,.74,0,1.32,0,2,0,.18,0,.22,0,.22.15a7.82,7.82,0,0,1-.07,1.05c0,.17,0,.23-.19.23-.7.05-1.43.05-2.15,0A10.46,10.46,0,0,0,117.75,214.45Z"/><path d="M134.61,215.47a6.78,6.78,0,0,1-2,2.27.53.53,0,0,1-.33.14.43.43,0,0,1-.28-.12,3.62,3.62,0,0,0-1.1-.58,5.59,5.59,0,0,0,2.11-2,3.58,3.58,0,0,1-1.22-.68,3.15,3.15,0,0,1-.72-1,.45.45,0,0,1-.05-.18.41.41,0,0,1,.09-.22,4.41,4.41,0,0,0,.48-1.11,3.36,3.36,0,0,0,.88,1.29,2.8,2.8,0,0,0,1.11.57,13.15,13.15,0,0,0,.25-2.59c0-.7,0-1.19-.08-1.89a5,5,0,0,0-2.5,1.44,7.89,7.89,0,0,0-1.61,2.41,3.94,3.94,0,0,0-.23,1.71c0,.16-.09.21-.27.25s-.7.14-1,.19a.23.23,0,0,1-.25-.23,12.27,12.27,0,0,1-.33-2.79,35.45,35.45,0,0,1,.24-3.55c0-.49.09-1,.09-1.35a1.88,1.88,0,0,0-.05-.57,7.63,7.63,0,0,1,1.62.46.26.26,0,0,1,.19.27,1.23,1.23,0,0,1-.05.25,1.52,1.52,0,0,0-.21.54,20.33,20.33,0,0,0-.34,2.11c0,.47-.07.82-.1,1.61a7.4,7.4,0,0,1,1.77-2.62,6.28,6.28,0,0,1,2.91-1.46c-.06-.49-.13-.91-.2-1.27a2.59,2.59,0,0,0-.36-1,5.5,5.5,0,0,1,1.62,0c.26,0,.33.13.33.27a2.43,2.43,0,0,0,0,.38c.07.46.14,1,.18,1.45h.22a3.46,3.46,0,0,1,3.44,3.53,3.75,3.75,0,0,1-1.45,3.08,4.38,4.38,0,0,1-2.56.84Zm1.76-1.87a2.41,2.41,0,0,0,1-2.12,2,2,0,0,0-2-2.11c0,1,.06,1.54.06,2a15.58,15.58,0,0,1-.25,2.65A2.19,2.19,0,0,0,136.37,213.6Z"/><path d="M146.21,206c.17,0,.26.11.26.22s-.1.4-.1.59,0,.62.07.94a17.4,17.4,0,0,0,.45,2.41l2-1.06a3.41,3.41,0,0,0,1-.76,7.13,7.13,0,0,1,1,1.31.57.57,0,0,1,.1.3c0,.14-.08.25-.28.28a6.65,6.65,0,0,0-1.34.42,19,19,0,0,0-3.29,1.64c-1.22.8-1.66,1.46-1.66,2.11,0,.83.62,1.18,2.23,1.18a25.14,25.14,0,0,0,4.27-.32c.16,0,.23,0,.25.17a10.35,10.35,0,0,1,.14,1.3c0,.15-.08.22-.25.24a29.53,29.53,0,0,1-4.17.21c-2.65,0-4.05-.87-4.05-2.69,0-1.56,1-2.58,2.66-3.62a20.76,20.76,0,0,1-.73-3.41,6.25,6.25,0,0,0-.36-1.63A7.86,7.86,0,0,1,146.21,206Z"/><path d="M159.46,206.19c.18.07.26.15.26.28a.32.32,0,0,1-.1.22,1.86,1.86,0,0,0-.25.66c-.19,1-.31,2-.39,2.68a13.14,13.14,0,0,0,0,1.54c.31-.55.6-1.08,1-1.8a2.86,2.86,0,0,0,.43.91.36.36,0,0,1,.09.23.71.71,0,0,1-.14.35,11.56,11.56,0,0,0-.83,1.79,1.67,1.67,0,0,0-.07.42.21.21,0,0,1-.18.23c-.17,0-.77.12-1.12.16-.1,0-.17-.08-.2-.18a9.06,9.06,0,0,1-.42-2.84,30.17,30.17,0,0,1,.34-3.49,14.37,14.37,0,0,0,.11-1.6A7.58,7.58,0,0,1,159.46,206.19ZM164,206c.28.07.31.14.28.38a4.57,4.57,0,0,0,0,.64c.1,1.33.2,2.61.2,3.62a9.15,9.15,0,0,1-1.07,4.86,7.75,7.75,0,0,1-2.31,2.25.48.48,0,0,1-.28.1.39.39,0,0,1-.29-.15,3.26,3.26,0,0,0-1.19-.65,6.88,6.88,0,0,0,2.38-1.88,6.73,6.73,0,0,0,1.17-4.46c0-1-.07-2.46-.16-3.35a6.37,6.37,0,0,0-.3-1.53A8.43,8.43,0,0,1,164,206Z"/><path d="M176.58,214.94c0,.16-.08.23-.27.25a7.17,7.17,0,0,1-1,.07c-.13,0-.18-.08-.18-.22,0-.5,0-1.2,0-1.71-1.25.65-1.69,1.19-1.69,1.86s.47,1,1.94,1a24.56,24.56,0,0,0,3.49-.28c.13,0,.18,0,.2.15a6.41,6.41,0,0,1,.12,1.15c0,.17,0,.27-.15.27a25.63,25.63,0,0,1-3.47.18c-2.3,0-3.52-.68-3.52-2.31,0-1.34.84-2.32,3-3.42-.05-.71-.22-1-.85-1a3.35,3.35,0,0,0-1.93,1,20.39,20.39,0,0,0-1.4,1.53c-.07.08-.11.13-.17.13s-.09,0-.15-.1a6.25,6.25,0,0,1-.8-.93.22.22,0,0,1-.06-.12c0-.06,0-.1.1-.15a14.35,14.35,0,0,0,2.93-3.48c-.66,0-1.41,0-2.24,0-.13,0-.17-.07-.2-.22s-.1-.74-.14-1.16a31.42,31.42,0,0,0,3.22,0,11.61,11.61,0,0,0,.43-1.2,3.84,3.84,0,0,0,.09-.86,8.81,8.81,0,0,1,1.6.4.24.24,0,0,1,.17.23.26.26,0,0,1-.1.21,1.19,1.19,0,0,0-.24.34c-.08.2-.15.38-.32.76a22.28,22.28,0,0,0,2.55-.44c.15,0,.2,0,.22.14a4.46,4.46,0,0,1,.14,1c0,.14,0,.2-.24.22-1,.16-2.25.31-3.27.42a14.22,14.22,0,0,1-1.05,1.56v0a2.74,2.74,0,0,1,1.4-.44,1.55,1.55,0,0,1,1.71,1.52c.55-.26,1.34-.62,2.06-1a4.26,4.26,0,0,0,1.06-.76,7.93,7.93,0,0,1,1,1.23.55.55,0,0,1,.12.31c0,.11-.07.17-.21.2a4.16,4.16,0,0,0-.86.21c-.91.32-1.82.63-3,1.12Z"/><path d="M184.86,210.35c-1.26,0-1.69,0-1.77,0s-.16,0-.16-.17v-1.15c0-.14,0-.16.16-.16s.51,0,1.77,0h3.21c0-.57.06-1.2.07-1.89a9.72,9.72,0,0,0-.07-1.62,14.85,14.85,0,0,1,1.61.11c.14,0,.26.1.26.19a.55.55,0,0,1-.09.3,2.4,2.4,0,0,0-.12,1c0,.69,0,1.33-.09,1.93h3.62c1.26,0,1.69,0,1.77,0s.16,0,.16.16v1.15c0,.15,0,.17-.16.17s-.51,0-1.77,0h-3.35a9.38,9.38,0,0,0,5.6,6.11,4.51,4.51,0,0,0-.81,1c-.13.23-.18.35-.3.35a1,1,0,0,1-.32-.14,10.76,10.76,0,0,1-5-5.66,8.34,8.34,0,0,1-.54,1.34,9.16,9.16,0,0,1-4.48,4.37,1.12,1.12,0,0,1-.34.11c-.11,0-.16-.08-.32-.32a4.43,4.43,0,0,0-.8-.88,8.09,8.09,0,0,0,4.54-3.85,8.41,8.41,0,0,0,.76-2.48Z"/><path d="M199.58,213.13c0,.29,0,.4.13.47a.94.94,0,0,0,.5.1.84.84,0,0,0,.6-.17c.23-.2.28-.49.31-1.88a4.89,4.89,0,0,0,.94.48c.36.12.36.14.33.5-.08,1.35-.33,1.78-.78,2.07a2.77,2.77,0,0,1-1.58.35,3.07,3.07,0,0,1-1.38-.21c-.34-.18-.51-.46-.51-1.2v-3.21l-1.36.28c-.14,0-.16,0-.17-.12l-.14-1.15c0-.16,0-.16.13-.18l1.54-.29v-1.56a11,11,0,0,0-.09-1.85,12.7,12.7,0,0,1,1.45.1c.18,0,.26.08.26.16a.66.66,0,0,1-.08.3,3.59,3.59,0,0,0-.1,1.29v1.3l1-.2c1.09-.21,1.45-.32,1.58-.33s.14,0,.15.12l.12,1.12c0,.14,0,.16-.16.19s-.5.08-1.61.29l-1.12.24Zm5.88-5.47a18.57,18.57,0,0,1-.74,6,7.23,7.23,0,0,1-3.66,4.06,1.16,1.16,0,0,1-.37.17c-.09,0-.16-.09-.31-.26a4.2,4.2,0,0,0-.94-.78,6.33,6.33,0,0,0,3.89-3.64,15.82,15.82,0,0,0,.66-5.59h-.22c-1.29,0-1.71,0-1.8,0s-.15,0-.15-.16v-1.09c0-.14,0-.15.15-.15s.51,0,1.8,0h3.32c1.29,0,1.72,0,1.8,0s.16,0,.16.16c0,.47,0,.87,0,1.25a51.49,51.49,0,0,1-.5,8.05c-.26,1.45-.9,2-2.26,2-.27,0-.53,0-.9,0s-.37,0-.42-.41a3.34,3.34,0,0,0-.3-1.15,8.45,8.45,0,0,0,1.45.14c.56,0,.84-.27,1-1.13a53.7,53.7,0,0,0,.46-7.51Z"/><path d="M214.14,206.8c.24.13.32.21.32.34s0,.14-.21.42a3.18,3.18,0,0,0-.33,1,22.18,22.18,0,0,0-.59,4.53,15,15,0,0,0,.08,1.64c.3-.65.55-1.11,1-2.09a4,4,0,0,0,.49.88.49.49,0,0,1,.1.21.42.42,0,0,1-.07.23,14.1,14.1,0,0,0-.8,2.11,2.11,2.11,0,0,0,0,.44c0,.17,0,.28,0,.39s-.06.15-.18.18a7.8,7.8,0,0,1-1.15.23c-.1,0-.15-.06-.18-.16a12.9,12.9,0,0,1-.65-4.17,27.11,27.11,0,0,1,.48-4.6,11.4,11.4,0,0,0,.25-2.08A6.23,6.23,0,0,1,214.14,206.8Zm3,6.6c.11,0,.14.06.14.21.08,1,.75,1.32,2.28,1.32a20.54,20.54,0,0,0,2.68-.18c.14,0,.16,0,.19.18a10.69,10.69,0,0,1,.09,1.2c0,.17,0,.18-.24.21a17.51,17.51,0,0,1-2.29.16c-2.07,0-3-.34-3.64-1.17a3.06,3.06,0,0,1-.49-1.82Zm-.79-5.24c0-.17.06-.21.2-.24a23,23,0,0,1,3-.25,20.06,20.06,0,0,1,2.07.09c.3,0,.32,0,.32.18,0,.42,0,.8,0,1.19,0,.13-.06.18-.19.17-.84-.06-1.56-.09-2.28-.09a17,17,0,0,0-3.18.33C216.32,208.75,216.32,208.4,216.35,208.16Z"/><path d="M224.93,212.06c1.14-1.31,2.15-1.94,3.31-1.94a5.75,5.75,0,0,1,2.84.89,6.48,6.48,0,0,0,3,1.06,3.26,3.26,0,0,0,2.6-1.34l.56.58a4.23,4.23,0,0,1-3.33,2,5.63,5.63,0,0,1-2.84-.91,6.2,6.2,0,0,0-3-1.06,3.34,3.34,0,0,0-2.56,1.3Z"/></g></g></svg>