<svg xmlns="http://www.w3.org/2000/svg" viewBox="0 0 9.71 174.07"><defs><style>.cls-1{fill:#1b1b1b;}</style></defs><g id="レイヤー_2" data-name="レイヤー 2"><g id="レイヤー_1-2" data-name="レイヤー 1"><path class="cls-1" d="M3,3.45H6.47A11.48,11.48,0,0,1,6.63,2c0-.24,0-.49,0-.73,0-.44-.36-.46-.51-.85L5.66.09c-.26.05-1-.27-1.09.07s-.91.19-.79.56-.62,1.09-.61,1.5A8.56,8.56,0,0,1,3,3.45Z" transform="translate(0 0)"/><path class="cls-1" d="M6.47,28.85H3a1.69,1.69,0,0,1,.14-.65,1.23,1.23,0,0,0,0-.39c0-.13,0-.26-.05-.39a3.53,3.53,0,0,1,0-.65,3,3,0,0,0-.14-1.42A1.86,1.86,0,0,1,3,24.21a7.2,7.2,0,0,0,.15-1.3,1.53,1.53,0,0,1,.07-.36v0a1.63,1.63,0,0,0,0-.38c0-.7.06-1.39,0-2.08a6,6,0,0,1,0-1.34c0-.95,0-1.89-.11-2.81A5.53,5.53,0,0,1,3,14.46a10,10,0,0,0,0-1.34,6.6,6.6,0,0,1,.08-1.72,1.35,1.35,0,0,0,0-.49A8.88,8.88,0,0,1,3,9,9.54,9.54,0,0,1,3,7.13a1.45,1.45,0,0,0,0-.36C3,5.68,3.09,4.55,3,3.45H6.47A5,5,0,0,1,6.43,5a1.8,1.8,0,0,0,0,.47,1.05,1.05,0,0,1-.09.72.29.29,0,0,0,0,.24,2.48,2.48,0,0,1,.13,1.08,4.2,4.2,0,0,0,.06.61,2,2,0,0,1,.07.48,24.13,24.13,0,0,1-.09,3.18,3.11,3.11,0,0,0,0,.61c0,.78,0,1.55.07,2.33s0,1.79,0,2.68a1.4,1.4,0,0,0,.08.47,1.21,1.21,0,0,1,0,1.08.69.69,0,0,0-.07.47,2,2,0,0,1,0,.24c0,.21,0,.41,0,.61a3.11,3.11,0,0,0,0,.61.7.7,0,0,1,0,.35,2.75,2.75,0,0,0-.14.8,2.61,2.61,0,0,0,0,.28c0,.09,0,.21,0,.3s0,.13,0,.19c0,.56,0,1.1,0,1.65s-.07.87,0,1.3,0,.78,0,1.17S6.45,28.42,6.47,28.85Z" transform="translate(0 0)"/><path class="cls-1" d="M6.47,54.25H3a1.69,1.69,0,0,1,.14-.65,1.2,1.2,0,0,0,0-.38c0-.13,0-.26-.05-.39a3.61,3.61,0,0,1,0-.66,3,3,0,0,0-.14-1.42A1.86,1.86,0,0,1,3,49.61a7.19,7.19,0,0,0,.15-1.29A1.53,1.53,0,0,1,3.19,48s0,0,0,0a1.71,1.71,0,0,0,0-.39c0-.7.06-1.39,0-2.08a6,6,0,0,1,0-1.34c0-.94,0-1.89-.11-2.81A5.53,5.53,0,0,1,3,39.86a10,10,0,0,0,0-1.34,6.62,6.62,0,0,1,.08-1.72,1.35,1.35,0,0,0,0-.49A8.88,8.88,0,0,1,3,34.38a9.55,9.55,0,0,1,0-1.85,1.45,1.45,0,0,0,0-.36C3,31.08,3.09,30,3,28.85H6.47a5,5,0,0,1,0,1.58,1.8,1.8,0,0,0,0,.47,1.05,1.05,0,0,1-.09.72.29.29,0,0,0,0,.24A2.5,2.5,0,0,1,6.47,33a3.93,3.93,0,0,0,.06.6A2,2,0,0,1,6.6,34a24.13,24.13,0,0,1-.09,3.18,3.19,3.19,0,0,0,0,.62c0,.77,0,1.54.07,2.32s0,1.79,0,2.69a1.4,1.4,0,0,0,.08.47,1.19,1.19,0,0,1,0,1.07.69.69,0,0,0-.07.47,2,2,0,0,1,0,.24c0,.21,0,.41,0,.61a3.11,3.11,0,0,0,0,.61.7.7,0,0,1,0,.35,2.75,2.75,0,0,0-.14.8,2.8,2.8,0,0,0,0,.29c0,.09,0,.21,0,.3s0,.13,0,.19c0,.55,0,1.09,0,1.64s-.07.87,0,1.3,0,.78,0,1.17S6.45,53.82,6.47,54.25Z" transform="translate(0 0)"/><path class="cls-1" d="M6.47,79.65H3A1.69,1.69,0,0,1,3.18,79a1.2,1.2,0,0,0,0-.38c0-.13,0-.26-.05-.39a3.53,3.53,0,0,1,0-.65,3,3,0,0,0-.14-1.43A1.86,1.86,0,0,1,3,75a7.19,7.19,0,0,0,.15-1.29,1.53,1.53,0,0,1,.07-.36v0a1.63,1.63,0,0,0,0-.38c0-.71.06-1.4,0-2.09a6,6,0,0,1,0-1.34c0-.94,0-1.88-.11-2.81A5.53,5.53,0,0,1,3,65.26a10,10,0,0,0,0-1.34,6.64,6.64,0,0,1,.08-1.72,1.35,1.35,0,0,0,0-.49A8.88,8.88,0,0,1,3,59.78a9.43,9.43,0,0,1,0-1.84,1.51,1.51,0,0,0,0-.37c-.06-1.09.07-2.22,0-3.32H6.47a5,5,0,0,1,0,1.58,1.8,1.8,0,0,0,0,.47,1.05,1.05,0,0,1-.09.72.29.29,0,0,0,0,.24,2.52,2.52,0,0,1,.13,1.09,3.93,3.93,0,0,0,.06.6,2,2,0,0,1,.07.48,24.33,24.33,0,0,1-.09,3.19,3.11,3.11,0,0,0,0,.61c0,.77,0,1.54.07,2.32s0,1.79,0,2.69a1.4,1.4,0,0,0,.08.47,1.19,1.19,0,0,1,0,1.07.69.69,0,0,0-.07.47,2,2,0,0,1,0,.24c0,.21,0,.41,0,.61a3.11,3.11,0,0,0,0,.61.7.7,0,0,1,0,.35,2.81,2.81,0,0,0-.14.81,2.61,2.61,0,0,0,0,.28c0,.09,0,.21,0,.3s0,.13,0,.19c0,.55,0,1.09,0,1.64s-.07.87,0,1.3,0,.78,0,1.18S6.45,79.22,6.47,79.65Z" transform="translate(0 0)"/><path class="cls-1" d="M6.47,105.05H3a1.69,1.69,0,0,1,.14-.65,1.2,1.2,0,0,0,0-.38c0-.13,0-.26-.05-.39a3.53,3.53,0,0,1,0-.65,3,3,0,0,0-.14-1.43A1.86,1.86,0,0,1,3,100.41a7.19,7.19,0,0,0,.15-1.29,1.53,1.53,0,0,1,.07-.36s0,0,0,0a1.63,1.63,0,0,0,0-.38c0-.7.06-1.4,0-2.09a6,6,0,0,1,0-1.34c0-.94,0-1.88-.11-2.81A5.53,5.53,0,0,1,3,90.66a10,10,0,0,0,0-1.34,6.55,6.55,0,0,1,.08-1.71,1.41,1.41,0,0,0,0-.5A8.88,8.88,0,0,1,3,85.18a9.43,9.43,0,0,1,0-1.84A1.45,1.45,0,0,0,3,83c-.06-1.1.07-2.23,0-3.33H6.47a5,5,0,0,1,0,1.58,1.8,1.8,0,0,0,0,.47,1.09,1.09,0,0,1-.09.73.29.29,0,0,0,0,.24,2.48,2.48,0,0,1,.13,1.08,3.93,3.93,0,0,0,.06.6,2,2,0,0,1,.07.48A24.33,24.33,0,0,1,6.51,88a3.11,3.11,0,0,0,0,.61c0,.77,0,1.54.07,2.32s0,1.8,0,2.69a1.4,1.4,0,0,0,.08.47,1.19,1.19,0,0,1,0,1.07.69.69,0,0,0-.07.47,2,2,0,0,1,0,.24c0,.21,0,.41,0,.61a3.11,3.11,0,0,0,0,.61.73.73,0,0,1,0,.36,2.75,2.75,0,0,0-.14.8,2.61,2.61,0,0,0,0,.28c0,.09,0,.21,0,.3s0,.13,0,.19c0,.55,0,1.09,0,1.64s-.07.87,0,1.3,0,.79,0,1.18S6.45,104.62,6.47,105.05Z" transform="translate(0 0)"/><path class="cls-1" d="M6.47,130.45H3a1.69,1.69,0,0,1,.14-.65,1.2,1.2,0,0,0,0-.38c0-.13,0-.26-.05-.39a3.53,3.53,0,0,1,0-.65A3,3,0,0,0,3.05,127,1.86,1.86,0,0,1,3,125.81a7.19,7.19,0,0,0,.15-1.29,1.53,1.53,0,0,1,.07-.36s0,0,0,0a1.63,1.63,0,0,0,0-.38c0-.7.06-1.39,0-2.09a6,6,0,0,1,0-1.34c0-.94,0-1.88-.11-2.8A5.6,5.6,0,0,1,3,116.06a10,10,0,0,0,0-1.34A6.55,6.55,0,0,1,3.14,113a1.35,1.35,0,0,0,0-.49A9,9,0,0,1,3,110.58a9.43,9.43,0,0,1,0-1.84,1.45,1.45,0,0,0,0-.36c-.06-1.09.07-2.23,0-3.33H6.47a5,5,0,0,1,0,1.58,1.8,1.8,0,0,0,0,.47,1.07,1.07,0,0,1-.09.73.29.29,0,0,0,0,.24,2.48,2.48,0,0,1,.13,1.08,3.93,3.93,0,0,0,.06.6,2,2,0,0,1,.07.48,24.28,24.28,0,0,1-.09,3.19,3.11,3.11,0,0,0,0,.61c0,.77,0,1.54.07,2.32s0,1.8,0,2.69a1.4,1.4,0,0,0,.08.47,1.19,1.19,0,0,1,0,1.07.69.69,0,0,0-.07.47,2,2,0,0,1,0,.24c0,.21,0,.41,0,.61a3.21,3.21,0,0,0,0,.62.7.7,0,0,1,0,.35,2.75,2.75,0,0,0-.14.8,2.61,2.61,0,0,0,0,.28c0,.09,0,.21,0,.3s0,.13,0,.19c0,.55,0,1.09,0,1.64s-.07.87,0,1.31,0,.78,0,1.17S6.45,130,6.47,130.45Z" transform="translate(0 0)"/><path class="cls-1" d="M6.47,155.85H3a1.69,1.69,0,0,1,.14-.65,1.2,1.2,0,0,0,0-.38c0-.13,0-.26-.05-.39a3.53,3.53,0,0,1,0-.65,3,3,0,0,0-.14-1.42A1.89,1.89,0,0,1,3,151.21a7.19,7.19,0,0,0,.15-1.29,1.53,1.53,0,0,1,.07-.36s0,0,0,0a1.63,1.63,0,0,0,0-.38c0-.7.06-1.39,0-2.08a6.09,6.09,0,0,1,0-1.35c0-.94,0-1.88-.11-2.8A5.58,5.58,0,0,1,3,141.46a10,10,0,0,0,0-1.34,6.55,6.55,0,0,1,.08-1.71,1.35,1.35,0,0,0,0-.49A9,9,0,0,1,3,136a9.43,9.43,0,0,1,0-1.84,1.45,1.45,0,0,0,0-.36c-.06-1.09.07-2.23,0-3.33H6.47a5,5,0,0,1,0,1.59,1.8,1.8,0,0,0,0,.47,1.05,1.05,0,0,1-.09.72.29.29,0,0,0,0,.24,2.48,2.48,0,0,1,.13,1.08,3.93,3.93,0,0,0,.06.6,2,2,0,0,1,.07.48,24.28,24.28,0,0,1-.09,3.19,3.11,3.11,0,0,0,0,.61c0,.77,0,1.54.07,2.33s0,1.79,0,2.68a1.4,1.4,0,0,0,.08.47,1.19,1.19,0,0,1,0,1.07.69.69,0,0,0-.07.47,2,2,0,0,1,0,.24c0,.22,0,.42,0,.62a3.11,3.11,0,0,0,0,.61.7.7,0,0,1,0,.35,2.75,2.75,0,0,0-.14.8,2.61,2.61,0,0,0,0,.28c0,.09,0,.21,0,.3s0,.13,0,.19c0,.55,0,1.09,0,1.64s-.07.88,0,1.31,0,.78,0,1.17S6.45,155.42,6.47,155.85Z" transform="translate(0 0)"/><path class="cls-1" d="M5.47,158c.27-.13.56-.23.62-.57l.17-.36c.24-.4.13-.83.22-1.26H3.05c0,.41-.1-.15-.07.56,0,.4.08.3.28.65s.2.16.41.38,0,.25.34.33.09.15.38.16.22.06.52.09C5.37,158,5.22,158.07,5.47,158Z" transform="translate(0 0)"/><path class="cls-1" d="M4.27,174.06a4.13,4.13,0,0,0,1.24-.28,2.45,2.45,0,0,1,.81-.24,1.66,1.66,0,0,0,.6-.21c.21-.13.41-.26.64-.38a2.54,2.54,0,0,0,1.07-1.13,2.64,2.64,0,0,1,.38-.65l.13-.16a2.64,2.64,0,0,0,.51-1.16,1.51,1.51,0,0,0,0-.94,3.1,3.1,0,0,1-.13-.4,2,2,0,0,0-.37-1,1.13,1.13,0,0,1-.17-.39,2.64,2.64,0,0,0-.72-1,2.15,2.15,0,0,0-.76-.57.76.76,0,0,1-.46-.4,1.2,1.2,0,0,0-.18-.26.3.3,0,0,0-.17-.12l-.72-.16a1,1,0,0,1-.31-.08.84.84,0,0,0-.71-.07.93.93,0,0,1-.52.07,1.64,1.64,0,0,0-.73.1,4.29,4.29,0,0,1-.5.19.82.82,0,0,0-.36.21,2.36,2.36,0,0,1-.72.45,1.26,1.26,0,0,0-.45.26c-.17.13-.34.26-.5.4a1.51,1.51,0,0,0-.21.23,4,4,0,0,1-.44.61.86.86,0,0,0-.14.29,6,6,0,0,0-.26,1.46,9.6,9.6,0,0,0-.07,1,2.38,2.38,0,0,0,.24,1.08.76.76,0,0,0,.16.26,7.21,7.21,0,0,1,1,1.17,14.39,14.39,0,0,0,1,1.08l.86.62.1.05A2.77,2.77,0,0,0,4.27,174.06Z" transform="translate(0 0)"/></g></g></svg>