<svg xmlns="http://www.w3.org/2000/svg" viewBox="0 0 661.08 184.66"><defs><style>.cls-1{fill:#fff;}</style></defs><g id="レイヤー_2" data-name="レイヤー 2"><g id="レイヤー_1-2" data-name="レイヤー 1"><polygon points="388.75 149.81 388.85 116.13 398.24 95.53 344.04 142.89 312.28 137.98 304.34 74.01 304.43 40.18 335.18 44.93 338.18 86.81 376.46 51.32 405.05 55.74 404.98 80.75 415.63 57.38 419.29 57.95 419.32 49.32 425.69 35.33 454.74 39.83 454.65 73.51 448.28 87.5 444.62 86.93 444.6 95.56 417.81 154.31 388.75 149.81"/><path d="M60.27,99.06c-1.08,0-2.18,0-3.29-.06a149.57,149.57,0,0,1-17.27-1.64A132.43,132.43,0,0,1,23,93.69a56.76,56.76,0,0,1-12.45-5.12l-1.06-.64A22.19,22.19,0,0,1,1.35,79.7,11.51,11.51,0,0,1,0,74.2L.09,41.59h0a16,16,0,0,1,1.16-5.72l.29-.75,11,1.71.06-18.45h0a10.43,10.43,0,0,1,1-4.25,19.43,19.43,0,0,1,8.39-9A38.71,38.71,0,0,1,34.9.86,74.46,74.46,0,0,1,46.4,0c1.29,0,2.62,0,4,.09A151.06,151.06,0,0,1,66.7,1.71,129.19,129.19,0,0,1,82.18,5.07,53,53,0,0,1,94,9.89l.72.42a21.59,21.59,0,0,1,7.74,7.55,11.74,11.74,0,0,1,1.5,5.85h0l-.09,32.6a15.93,15.93,0,0,1-.73,4.58l-.25.83-6.14-.95,0,18.43a11.25,11.25,0,0,1-1.11,4.61,20.49,20.49,0,0,1-8.74,9.41A43.31,43.31,0,0,1,73.31,98,73.16,73.16,0,0,1,60.27,99.06Z"/><path d="M164.08,115.39a107.51,107.51,0,0,1-16.47-1.34,85.51,85.51,0,0,1-20.53-5.54,52.93,52.93,0,0,1-5.59-2.78,34.58,34.58,0,0,1-8-6.15,22.42,22.42,0,0,1-6-11.71,20.83,20.83,0,0,1-.27-3.35l.1-32.6a24.61,24.61,0,0,1,2.38-10.1,32.8,32.8,0,0,1,9.47-11.89,51,51,0,0,1,15.15-8.23,79.06,79.06,0,0,1,19.33-4c2.36-.2,4.8-.3,7.24-.3a97.09,97.09,0,0,1,14.86,1.18c8.58,1.33,15.73,3.48,21.25,6.4.56.3,1.11.6,1.65.91a32,32,0,0,1,10.77,9.49,22.11,22.11,0,0,1,4,12.79l-.09,32.71a28.18,28.18,0,0,1-4.07,13.66l-.35.59-4.51-.69,0,6.94-.33.3A50.86,50.86,0,0,1,179,114.06,81.32,81.32,0,0,1,164.08,115.39Z"/><path d="M212.2,122.49l.09-33.68,26.79-58.75,27.71,4.29,0,7.28c.55-.26,1.09-.5,1.61-.72a49.81,49.81,0,0,1,9.52-2.8A64.28,64.28,0,0,1,288.3,37c.53,0,1.06,0,1.6,0a59.37,59.37,0,0,1,9.05.7,33.53,33.53,0,0,1,5.91,1.53l.67.24L305.44,73,298.26,88.7l-.83-.23c-1.26-.36-2.74-.73-4.41-1.1s-3.36-.7-5.08-1a58.33,58.33,0,0,0-8.86-.74,39.38,39.38,0,0,0-4.3.22,31.78,31.78,0,0,0-9.91,2.59A21.54,21.54,0,0,0,258,93.42a25.86,25.86,0,0,0-4.5,6.8L241.26,127Z"/><path d="M611.73,184.66a107.38,107.38,0,0,1-16.46-1.34,85.25,85.25,0,0,1-20.52-5.54,54.93,54.93,0,0,1-5.59-2.78,34.86,34.86,0,0,1-8-6.15,22.39,22.39,0,0,1-6-11.71,19.75,19.75,0,0,1-.27-3.35l.09-32.61a24.58,24.58,0,0,1,2.38-10.1,32.9,32.9,0,0,1,9.47-11.88A51,51,0,0,1,582,91a78.69,78.69,0,0,1,19.33-4c2.37-.2,4.81-.3,7.25-.3a96.54,96.54,0,0,1,14.84,1.18c8.56,1.32,15.71,3.47,21.25,6.39.57.3,1.12.61,1.65.92a32,32,0,0,1,10.78,9.49,22,22,0,0,1,4,12.6L661,150.17a27.9,27.9,0,0,1-4.07,13.66l-.34.59-4.51-.7,0,6.94-.33.3a50.77,50.77,0,0,1-25.07,12.37A81.35,81.35,0,0,1,611.73,184.66Z"/><path d="M501.93,167.67a108.39,108.39,0,0,1-16.5-1.34,81.49,81.49,0,0,1-19.84-5.44,54.89,54.89,0,0,1-5.64-2.82,35.58,35.58,0,0,1-7.85-6,22.82,22.82,0,0,1-6.26-11.43,19.61,19.61,0,0,1-.36-3.75l.09-32.62h0A22.74,22.74,0,0,1,447.77,95a36.25,36.25,0,0,1,9.32-12.29,48.13,48.13,0,0,1,14.82-8.6,72.29,72.29,0,0,1,19.29-4.13c2.27-.19,4.62-.28,7-.28a104.82,104.82,0,0,1,16,1.29,97.3,97.3,0,0,1,16.67,4,56.5,56.5,0,0,1,9.78,4.37c1.16.67,2.28,1.39,3.32,2.13a23.08,23.08,0,0,1,7.75,8.85A13.27,13.27,0,0,1,552.93,96h0l-.09,32.6a17,17,0,0,1-1,5.46l-.28.79-6-.93,0,15.56-.19.26c-5.42,7.57-13.51,12.8-24,15.56A76.45,76.45,0,0,1,501.93,167.67Zm-12.1-48,1.22.2a46.6,46.6,0,0,0,7.09.59,27.5,27.5,0,0,0,9.06-1.39,25.09,25.09,0,0,0,2.91-1.22c-.65-.13-1.31-.24-2-.35a40.15,40.15,0,0,0-6-.49,27.9,27.9,0,0,0-5.46.51A32.31,32.31,0,0,0,489.83,119.65Z"/><path class="cls-1" d="M75.09,30.1c-1.46-.48-2.93-1-4.4-1.4-3.83-1.18-7.35-2.24-10.75-3.22s-6.58-2-9.2-3a26.44,26.44,0,0,1-3.85-1.79A12.68,12.68,0,0,1,45,19.35a2.38,2.38,0,0,1-1.08-1.89,2.48,2.48,0,0,1,0-.27l0-.12a2.08,2.08,0,0,1,.15-.44,4.07,4.07,0,0,1,2.32-2.1,14.67,14.67,0,0,1,4.22-1c.73-.06,1.49-.09,2.26-.09s1.86,0,2.82.13c1.8.16,3.5.36,5,.6a37.81,37.81,0,0,1,11.71,3.5,3.9,3.9,0,0,1,.35.19,6.42,6.42,0,0,1,.77.51l.15.12c.21.17.36.31.5.44l.16.16a4,4,0,0,1,.45.57,3.32,3.32,0,0,1,.31.59l.06.14a4.75,4.75,0,0,1,.15.52l0,.18a5.39,5.39,0,0,1-.26,2.52l0,.15Z"/><path class="cls-1" d="M66.42,46.5a.76.76,0,0,1,.06.2A.76.76,0,0,0,66.42,46.5Z"/><path class="cls-1" d="M66.14,45.88c0,.06,0,.11.08.16S66.17,45.94,66.14,45.88Z"/><path class="cls-1" d="M65.6,45.16l.12.13Z"/><path class="cls-1" d="M64.92,44.5l.22.19Z"/><path class="cls-1" d="M64.14,43.91l.24.17Z"/><path class="cls-1" d="M95.25,49.4a3.38,3.38,0,0,1-.11.34A3.38,3.38,0,0,0,95.25,49.4Z"/><path class="cls-1" d="M95.69,47.33c0,.13,0,.26,0,.4C95.67,47.59,95.68,47.46,95.69,47.33Z"/><path class="cls-1" d="M96.71,58.75l0-12.16h0A8.06,8.06,0,0,0,96,43.18a15.63,15.63,0,0,0-5.4-6.09c-.77-.54-1.6-1.07-2.47-1.58a47.09,47.09,0,0,0-6.55-3.07c-1.45-.56-3-1.12-4.5-1.65l0-5.67,24.11,3.73-.09,30.58Z"/><path class="cls-1" d="M95.54,48.33c0,.13-.05.26-.09.39C95.49,48.59,95.51,48.46,95.54,48.33Z"/><path class="cls-1" d="M102.89,24.32c0,.25,0,.51-.07.77s0,.29,0,.43-.09.56-.14.84c0,.13,0,.25-.08.38-.09.41-.2.83-.33,1.25l-.09,32.61a14.74,14.74,0,0,0,.69-4.29l.09-32.6a1.41,1.41,0,0,1,0,.2C102.9,24,102.89,24.18,102.89,24.32Z"/><path class="cls-1" d="M142.67,39.47l.26-.33v.37Z"/><path class="cls-1" d="M27.84,41.58a3.52,3.52,0,0,1,.13-.43A3.52,3.52,0,0,0,27.84,41.58Z"/><path class="cls-1" d="M28,40.94q.12-.33.27-.66Q28.15,40.61,28,40.94Z"/><path class="cls-1" d="M27.71,42.21c0-.12.05-.25.07-.38C27.76,42,27.73,42.09,27.71,42.21Z"/><path class="cls-1" d="M27.67,42.83c0-.12,0-.24,0-.35C27.68,42.59,27.67,42.71,27.67,42.83Z"/><path class="cls-1" d="M52.49,52.84c-.41,0-.83,0-1.26,0a47.72,47.72,0,0,1-6.14-.54,46.78,46.78,0,0,1-7.41-1.73,24.12,24.12,0,0,1-4.57-2c-.37-.22-.73-.44-1.06-.67A8.87,8.87,0,0,1,29.29,45v-5.6L14.58,37.14l0-13.39a17.4,17.4,0,0,0,4.33,4c.57.37,1.16.74,1.78,1.1A49.27,49.27,0,0,0,28,32.18c3.43,1.28,7.1,2.52,10.91,3.67,9.18,2.7,16.31,5.08,21.2,7.1a22.74,22.74,0,0,1,2.6,1.25c.3.18.57.36.83.53l.22.16.48.37.19.17a2.92,2.92,0,0,1,.39.4l.08.08a3.2,3.2,0,0,1,.35.48l.06.12a3.09,3.09,0,0,1,.14.32l0,.13a2.74,2.74,0,0,1,0,.28v.13a2,2,0,0,1-.2.89A5.59,5.59,0,0,1,62.52,51a17.8,17.8,0,0,1-5.09,1.48A33.82,33.82,0,0,1,52.49,52.84Z"/><path class="cls-1" d="M28,40.94l-.06.21a3.52,3.52,0,0,0-.13.43c0,.09,0,.17-.06.25s-.05.26-.07.38,0,.18,0,.27,0,.23,0,.35A4.7,4.7,0,0,0,28.12,45c.05.1.11.19.17.29v-5Q28.15,40.61,28,40.94Z"/><path class="cls-1" d="M144.93,39.82V37a18,18,0,0,1,4.9-3A30,30,0,0,1,158,32a31.15,31.15,0,0,1,3.84-.22,49.08,49.08,0,0,1,7.4.62,31,31,0,0,1,10.45,3.17,10.14,10.14,0,0,1,2.51,2,9,9,0,0,1,.68.85l.18.28a6.65,6.65,0,0,1,.39.63c.07.11.12.22.18.33s.21.44.3.66c0,0,.11.25.14.34a8,8,0,0,1,.27.83l0,.14c.11.43.18.8.24,1.18l0,.32c0,.29.06.57.08.87,0,.14,0,.29,0,.44,0,.52,0,1,0,1.55Z"/><path class="cls-1" d="M264.77,39.84v2.79c-.59.32-1.16.64-1.71,1Z"/><polygon class="cls-1" points="448.77 54 452.73 45.32 452.65 73.08 448.7 81.75 448.77 54"/><polygon class="cls-1" points="444.63 84.91 444.69 61.88 421.29 58.26 421.31 50.7 446.77 54.64 446.69 85.22 444.63 84.91"/><polygon class="cls-1" points="421.77 48.75 426.88 37.54 452.29 41.47 447.18 52.68 421.77 48.75"/><polygon class="cls-1" points="298.8 55.12 303.52 44.76 303.44 72.52 298.72 82.87 298.8 55.12"/><path class="cls-1" d="M135.82,51.9c-.12.43-.23.84-.31,1.25l0,.14c-.07.37-.13.73-.17,1.09l0,.26c0,.39-.06.76-.07,1.13a9.09,9.09,0,0,0,1.12,4.58l0-10.07q-.26.67-.45,1.32Z"/><path class="cls-1" d="M204.41,92.42l.07-24.94L179,63.54l-.36.34c-1.57,1.51-4.66,2.75-9.18,3.7a38,38,0,0,1-7.72.76,48.06,48.06,0,0,1-7.33-.58c-5.54-.86-9.89-2.19-12.93-3.94a14.31,14.31,0,0,1-2.74-2,8.34,8.34,0,0,1-1.38-1.72l0-8.63L207.48,62.3l-.08,30.59Z"/><path class="cls-1" d="M209.48,61.71a32.6,32.6,0,0,0,1.91-3.9l-.06,23.06a24.15,24.15,0,0,1-1.93,8.9Z"/><path class="cls-1" d="M60.27,97.06c-1.05,0-2.13,0-3.22-.06a145.83,145.83,0,0,1-17-1.62,128.72,128.72,0,0,1-16.43-3.61,54.91,54.91,0,0,1-12-4.94c-.34-.19-.68-.39-1-.6a20.11,20.11,0,0,1-7.44-7.47A9.53,9.53,0,0,1,2,74.2l.07-26A23.08,23.08,0,0,0,9.6,55.33l1.06.63a56.76,56.76,0,0,0,12.45,5.12A131.08,131.08,0,0,0,39.8,64.75,149.79,149.79,0,0,0,57.07,66.4c1.12,0,2.21.06,3.3.06a73.1,73.1,0,0,0,13-1.12,43.05,43.05,0,0,0,13.49-4.72A20.66,20.66,0,0,0,94.72,53l-.07,26.23A9.34,9.34,0,0,1,93.72,83a18.51,18.51,0,0,1-7.91,8.5A41,41,0,0,1,72.94,96,70.78,70.78,0,0,1,60.27,97.06Z"/><path class="cls-1" d="M60.37,64.46c-1.06,0-2.14,0-3.22-.06a148.19,148.19,0,0,1-17-1.62,130.83,130.83,0,0,1-16.43-3.62,54.84,54.84,0,0,1-12-4.93c-.34-.2-.68-.4-1-.61a20.18,20.18,0,0,1-7.44-7.47,9.31,9.31,0,0,1-.49-1.06c0-.05-.11-.37-.11-.37-.1-.29-.18-.51-.23-.72s0-.17,0-.25l-.06-.34a4.86,4.86,0,0,1-.1-.55c0-.1,0-.2,0-.3l0-.35a4.89,4.89,0,0,1,0-.54,13.33,13.33,0,0,1,.75-4.32l24.09,3.73c0,.09-.05.18-.07.26a2.25,2.25,0,0,0-.05.22c-.05.22-.08.37-.1.51s0,.17,0,.25,0,.35,0,.49a5.69,5.69,0,0,0,.55,2.6l.14.25a10.78,10.78,0,0,0,3.55,3.9q.57.39,1.2.75a25.92,25.92,0,0,0,5,2.14,48.36,48.36,0,0,0,7.73,1.81,53.35,53.35,0,0,0,6.38.56c.45,0,.89,0,1.32,0a36.51,36.51,0,0,0,5.23-.36,19.92,19.92,0,0,0,5.65-1.65,7.57,7.57,0,0,0,3.83-3.75,4,4,0,0,0,.38-1.78,1.5,1.5,0,0,0,0-.2,4.13,4.13,0,0,0-.11-.66,2.58,2.58,0,0,0-.08-.26,4.66,4.66,0,0,0-.26-.61l-.1-.19a6.07,6.07,0,0,0-.52-.73l-.12-.13a7.56,7.56,0,0,0-.56-.57l-.25-.21a7.09,7.09,0,0,0-.59-.46l-.27-.2c-.3-.2-.61-.41-1-.61a26.89,26.89,0,0,0-2.83-1.37c-5-2-12.16-4.45-21.39-7.16-3.77-1.14-7.4-2.37-10.79-3.64a45.74,45.74,0,0,1-7-3.23c-.58-.33-1.14-.68-1.67-1A13.48,13.48,0,0,1,15.24,21a6.06,6.06,0,0,1-.28-.65l-.06-.21c-.05-.16-.09-.3-.12-.44l0-.27a3.7,3.7,0,0,1-.06-.41c0-.06,0-.29,0-.29A8.21,8.21,0,0,1,15.47,15,17.39,17.39,0,0,1,23,6.83a36.73,36.73,0,0,1,12.2-4A72.86,72.86,0,0,1,46.4,2c1.26,0,2.56,0,3.86.09a146.79,146.79,0,0,1,16.13,1.6A123.36,123.36,0,0,1,81.63,7,50.58,50.58,0,0,1,93,11.62l.69.4a19.64,19.64,0,0,1,7,6.83,9.71,9.71,0,0,1,1.23,5c0,.11,0,.21,0,.31,0,.3,0,.54-.06.78s0,.27,0,.4-.08.52-.13.78l-.08.36a3.38,3.38,0,0,1-.08.34L77.35,23.13a6.78,6.78,0,0,0,0-2.33c0-.08,0-.15,0-.23a5.81,5.81,0,0,0-.23-.79A2,2,0,0,0,77,19.5a5.08,5.08,0,0,0-.45-.87,6.65,6.65,0,0,0-.67-.86l-.19-.19a8.48,8.48,0,0,0-.65-.58l-.25-.2a9.49,9.49,0,0,0-1-.64l-.41-.23a39.7,39.7,0,0,0-12.34-3.7c-1.59-.25-3.33-.46-5.17-.62-1-.1-2-.14-3-.14s-1.65,0-2.43.1a16.7,16.7,0,0,0-4.81,1.11,6.08,6.08,0,0,0-3.38,3.12,5,5,0,0,0-.27.77,1.55,1.55,0,0,0,0,.21,3.44,3.44,0,0,0-.08.59,4.3,4.3,0,0,0,1.79,3.51,15.58,15.58,0,0,0,2.2,1.52A30.61,30.61,0,0,0,50,24.32c2.67,1,5.82,2.05,9.35,3.08s6.9,2,10.73,3.21c1.89.58,3.79,1.19,5.65,1.83s3.47,1.23,5.11,1.86a44.74,44.74,0,0,1,6.27,3c.82.47,1.6,1,2.32,1.47A13.59,13.59,0,0,1,94.19,44a5.92,5.92,0,0,1,.54,2.72c0,.16,0,.33,0,.49s0,.26,0,.36-.06.35-.1.53l-.08.36c0,.2-.11.41-.18.62l-.1.3c-.11.32-.24.65-.39,1a18.5,18.5,0,0,1-7.91,8.5A41,41,0,0,1,73,63.37a70.92,70.92,0,0,1-12.67,1.09Z"/><path class="cls-1" d="M253.64,67.42a26.23,26.23,0,0,1,4.41-6.61A22,22,0,0,1,265,55.87a31.52,31.52,0,0,1,9.91-2.58,39.45,39.45,0,0,1,4.3-.23,58.35,58.35,0,0,1,8.87.74c1.71.27,3.41.59,5.07,1q2,.47,3.69.9l-.09,30.54c-1-.26-2.08-.52-3.26-.78-1.69-.38-3.44-.71-5.2-1a61.09,61.09,0,0,0-9.17-.76,43.52,43.52,0,0,0-4.52.23A33.47,33.47,0,0,0,264,86.67a23.67,23.67,0,0,0-7.53,5.39,28.92,28.92,0,0,0-2.93,3.8Z"/><path class="cls-1" d="M164.08,113.39a106,106,0,0,1-16.16-1.31,84,84,0,0,1-20-5.41,50.88,50.88,0,0,1-5.38-2.67,32.61,32.61,0,0,1-7.5-5.79,20.44,20.44,0,0,1-5.5-10.67,17.81,17.81,0,0,1-.25-3l.07-23.82A24.09,24.09,0,0,0,113.62,67a34.52,34.52,0,0,0,8,6.15,52.93,52.93,0,0,0,5.59,2.78,85.63,85.63,0,0,0,20.53,5.55,108.73,108.73,0,0,0,16.47,1.33,82.22,82.22,0,0,0,14.91-1.32,50.78,50.78,0,0,0,23.39-10.93l-.08,30a48.93,48.93,0,0,1-23.77,11.6A79.94,79.94,0,0,1,164.08,113.39Z"/><path class="cls-1" d="M164.17,80.78A106.06,106.06,0,0,1,148,79.47a83.52,83.52,0,0,1-20-5.4,52.88,52.88,0,0,1-5.38-2.68,32.55,32.55,0,0,1-7.5-5.79,20.44,20.44,0,0,1-5.5-10.67c-.08-.49-.14-1-.18-1.48a2.26,2.26,0,0,1,0-.26l0-.38c0-.28,0-.57,0-.86a22.47,22.47,0,0,1,2.2-9.3,30.88,30.88,0,0,1,8.9-11.16A49,49,0,0,1,135,23.59a76.2,76.2,0,0,1,18.84-3.88c2.3-.2,4.68-.3,7.07-.3a95.49,95.49,0,0,1,14.55,1.16c8.36,1.29,15.3,3.37,20.62,6.19.55.28,1.07.58,1.59.87a30.29,30.29,0,0,1,10.12,8.88,20.16,20.16,0,0,1,3.63,11.75A25.75,25.75,0,0,1,208,60.35L135.71,49.17l-.29.76c-.18.47-.33.93-.46,1.38l-.1.32q-.2.67-.33,1.32l0,.11a11.83,11.83,0,0,0-.19,1.2l0,.28c0,.42-.06.82-.07,1.22a10.2,10.2,0,0,0,1.25,5.08,10.67,10.67,0,0,0,1.86,2.4,16.07,16.07,0,0,0,3.13,2.31c3.25,1.88,7.84,3.29,13.63,4.18a49.38,49.38,0,0,0,7.63.61,39.89,39.89,0,0,0,8.13-.81c4.64-1,7.85-2.23,9.78-3.87L201.19,69a48.85,48.85,0,0,1-22.48,10.49,79.06,79.06,0,0,1-14.54,1.29Zm-2.34-51a33.21,33.21,0,0,0-4.09.24,32.16,32.16,0,0,0-8.69,2.18,19.22,19.22,0,0,0-5.81,3.67,17.8,17.8,0,0,0-3.16,3.82L139.35,41l47.13,7.29.13-1a19.92,19.92,0,0,0,.15-2.89c0-.16,0-.33,0-.49,0-.35-.05-.68-.1-1,0,0,0-.29,0-.37a12.11,12.11,0,0,0-.27-1.31,1.21,1.21,0,0,0-.05-.18c-.12-.41-.22-.74-.34-1.07-.05-.11-.09-.22-.14-.32a9.3,9.3,0,0,0-.4-.87c-.07-.14-.14-.28-.22-.41s-.3-.51-.46-.76l-.07-.1-.16-.24a11.16,11.16,0,0,0-.81-1,12.23,12.23,0,0,0-3-2.37,33,33,0,0,0-11.14-3.41A51.74,51.74,0,0,0,161.83,29.8Z"/><polygon class="cls-1" points="214.2 120.78 214.29 90.19 239.75 94.13 239.67 124.72 214.2 120.78"/><polygon class="cls-1" points="241.76 93.49 251.63 71.83 251.55 99.59 241.68 121.25 241.76 93.49"/><path class="cls-1" d="M214.75,88.24l25.52-56L264.33,36l-4.91,10.74,2.12.32.34-.25a29,29,0,0,1,4.34-2.68c1.06-.55,2-1,2.92-1.37a48.22,48.22,0,0,1,9.14-2.69A63.59,63.59,0,0,1,288.36,39l1.54,0a56.6,56.6,0,0,1,8.74.68,29.16,29.16,0,0,1,4.52,1.09l-5.92,13c-1.1-.3-2.34-.6-3.69-.9-1.7-.38-3.45-.71-5.21-1a61,61,0,0,0-9.17-.76,40.81,40.81,0,0,0-4.51.24,33.67,33.67,0,0,0-10.54,2.76,23.58,23.58,0,0,0-7.54,5.4,28.14,28.14,0,0,0-4.85,7.33L240.16,92.17Z"/><path class="cls-1" d="M486.77,119a21.21,21.21,0,0,1-4.82-2c-.2-.12-.39-.23-.58-.36a12.42,12.42,0,0,1-4.73-5,11.41,11.41,0,0,1-1-5.94,19.36,19.36,0,0,1,1.66-6.23,26.63,26.63,0,0,1,4-6.14,24,24,0,0,1,6.45-5.21,30,30,0,0,1,9-3.24,28,28,0,0,1,5.46-.52,40,40,0,0,1,6,.49,31.23,31.23,0,0,1,10.5,3.21c.4.24.8.5,1.21.8l.19.15.14.11c.24.19.47.38.68.58s.21.21.3.31.37.41.53.6L522,91c.14.2.26.41.38.62l.07.13.12.22a6.67,6.67,0,0,1,.31.78,1.34,1.34,0,0,0,.07.18,6.25,6.25,0,0,1,.25,1.18l0,.28a9.13,9.13,0,0,1-.11,2.44v.08l0,15.33-5.42-.84-.36.49a19,19,0,0,1-4.66,4.45c-1.31-.32-2.73-.6-4.22-.83a41.29,41.29,0,0,0-6.3-.51,30.27,30.27,0,0,0-5.85.55A32.2,32.2,0,0,0,486.77,119Z"/><polygon class="cls-1" points="545.56 131.91 545.6 115.71 525.08 112.54 525.12 98.16 550 102 549.91 132.59 545.56 131.91"/><path class="cls-1" d="M551.88,97.14c0,.26-.06.52-.09.78s0,.35-.08.52-.12.6-.19.9c0,.15-.06.29-.1.44-.12.45-.26.91-.42,1.37l-.09,32.6a15.86,15.86,0,0,0,.94-5.13L551.94,96c0,.19,0,.39,0,.58S551.9,97,551.88,97.14Z"/><polygon class="cls-1" points="306.34 73.89 306.38 57.14 312.27 104.56 312.23 121.31 306.34 73.89"/><path class="cls-1" d="M590.33,108.74l.26-.33v.37Z"/><polygon class="cls-1" points="344.82 109.68 403.04 58.81 402.96 85.17 400.25 91.11 344.74 139.63 344.82 109.68"/><polygon class="cls-1" points="314.17 103.63 306.58 42.53 333.3 46.67 336.36 89.43 338.01 89.69 377.11 53.45 401.77 57.26 343.51 108.17 314.17 103.63"/><polygon class="cls-1" points="314.18 136.25 314.27 105.67 342.82 110.08 342.73 140.67 314.18 136.25"/><path class="cls-1" d="M592.59,109.09v-2.78a18.24,18.24,0,0,1,4.91-3,30.22,30.22,0,0,1,8.14-2,31.15,31.15,0,0,1,3.84-.22,49.29,49.29,0,0,1,7.4.62,31,31,0,0,1,10.45,3.17,10,10,0,0,1,2.52,2,10.72,10.72,0,0,1,.67.84l.19.29c.14.2.27.41.39.62l.18.34c.11.21.2.43.3.65l.14.34c.1.27.19.55.27.83l0,.15a11.77,11.77,0,0,1,.25,1.17l0,.32q.06.44.09.87v.44c0,.53,0,1,0,1.56Z"/><polygon class="cls-1" points="418.31 120.81 442.68 67.37 442.6 95.12 418.23 148.57 418.31 120.81"/><polygon class="cls-1" points="390.76 148.1 390.84 117.51 416.3 121.45 416.22 152.04 390.76 148.1"/><polygon class="cls-1" points="391.31 115.56 416.83 59.59 442.23 63.52 416.71 119.49 391.31 115.56"/><path class="cls-1" d="M583.49,121.18c-.13.42-.23.84-.32,1.24a.68.68,0,0,0,0,.14c-.08.37-.14.74-.18,1.09l0,.26c0,.39-.06.76-.07,1.13a9.17,9.17,0,0,0,1.12,4.58l0-10.06c-.17.45-.31.88-.44,1.32C583.55,121,583.51,121.08,583.49,121.18Z"/><path class="cls-1" d="M652.07,161.7l.07-24.95-25.51-3.95-.35.34c-1.58,1.52-4.67,2.76-9.18,3.7a38.12,38.12,0,0,1-7.74.77,47.81,47.81,0,0,1-7.31-.58c-5.54-.86-9.89-2.18-12.94-3.94a14.63,14.63,0,0,1-2.74-2,8.69,8.69,0,0,1-1.38-1.72l0-8.63,70.13,10.86-.09,30.58Z"/><path class="cls-1" d="M657.15,131a33.14,33.14,0,0,0,1.9-3.89l-.06,23a24.18,24.18,0,0,1-1.92,8.91Z"/><path class="cls-1" d="M502,133.06a106.85,106.85,0,0,1-16.19-1.31,79.6,79.6,0,0,1-19.35-5.3,52,52,0,0,1-5.44-2.72,33.45,33.45,0,0,1-7.41-5.63,20.73,20.73,0,0,1-5.73-10.43,15.28,15.28,0,0,1-.23-1.56c0-.09,0-.51,0-.51,0-.35,0-.71-.05-1.06a20.56,20.56,0,0,1,2-8.75,34.16,34.16,0,0,1,8.82-11.61,45.88,45.88,0,0,1,14.2-8.24,69.89,69.89,0,0,1,18.76-4c2.21-.19,4.51-.28,6.83-.28a102,102,0,0,1,15.66,1.27,94.28,94.28,0,0,1,16.33,3.95,54.31,54.31,0,0,1,9.43,4.2,36.23,36.23,0,0,1,3.15,2,21.14,21.14,0,0,1,7.11,8.06,11.37,11.37,0,0,1,1,5.37v.18c0,.11,0,.22,0,.33s-.06.49-.09.73c0,0,0,.4-.07.49-.05.26-.11.53-.17.8,0,0-.09.39-.11.46s-.09.33-.14.5l-25.07-3.88a10.58,10.58,0,0,0,0-2c0-.18,0-.26,0-.35a9.27,9.27,0,0,0-.29-1.41c0-.1-.06-.18-.09-.26-.15-.42-.28-.76-.43-1.08l-.19-.35-.06-.11c-.15-.27-.31-.53-.49-.79s-.22-.31-.34-.46-.4-.48-.62-.71l-.4-.41c-.25-.24-.53-.47-.81-.69l-.11-.09-.29-.23a15.72,15.72,0,0,0-1.39-.91,32.8,32.8,0,0,0-11.19-3.45,41.58,41.58,0,0,0-6.31-.52,30.34,30.34,0,0,0-5.85.55,32.41,32.41,0,0,0-9.6,3.47,26,26,0,0,0-7,5.65,28.54,28.54,0,0,0-4.3,6.6,21.44,21.44,0,0,0-1.83,6.88,13.38,13.38,0,0,0,1.18,7,14.41,14.41,0,0,0,5.45,5.82l.67.4a23.69,23.69,0,0,0,5.72,2.26,38.85,38.85,0,0,0,4.07.84,49.47,49.47,0,0,0,7.4.61,29.3,29.3,0,0,0,9.72-1.5,25.69,25.69,0,0,0,5.52-2.69,21.31,21.31,0,0,0,5.16-4.7l24.26,3.75c-5.13,6.47-12.5,11-21.93,13.48A74.85,74.85,0,0,1,502,133.06Z"/><path class="cls-1" d="M501.93,165.67a105.63,105.63,0,0,1-16.19-1.32,79.49,79.49,0,0,1-19.36-5.3,52.83,52.83,0,0,1-5.43-2.71,33.83,33.83,0,0,1-7.42-5.63,20.86,20.86,0,0,1-5.73-10.44,17.67,17.67,0,0,1-.32-3.34l.07-24a24.31,24.31,0,0,0,4.64,6.58,36.08,36.08,0,0,0,7.85,6,55.92,55.92,0,0,0,5.64,2.81,81.49,81.49,0,0,0,19.84,5.44,108.49,108.49,0,0,0,16.5,1.34,76.45,76.45,0,0,0,19.35-2.35c9.41-2.46,16.87-6.91,22.22-13.22l-.08,29.36c-5.15,7-12.79,11.93-22.74,14.54A74.71,74.71,0,0,1,501.93,165.67Z"/><path class="cls-1" d="M611.73,182.66a106,106,0,0,1-16.16-1.31,83.4,83.4,0,0,1-20-5.41,49,49,0,0,1-5.38-2.68,32.31,32.31,0,0,1-7.5-5.78,20.32,20.32,0,0,1-5.51-10.67,17.84,17.84,0,0,1-.24-3L557,130a24.38,24.38,0,0,0,4.32,6.26,34.52,34.52,0,0,0,8,6.15,54.93,54.93,0,0,0,5.59,2.78,85.36,85.36,0,0,0,20.52,5.55,108.7,108.7,0,0,0,16.46,1.33,81.54,81.54,0,0,0,14.93-1.33,50.67,50.67,0,0,0,23.39-10.92l-.09,30a48.75,48.75,0,0,1-23.76,11.59A79.34,79.34,0,0,1,611.73,182.66Z"/><path class="cls-1" d="M611.82,150.05a105.84,105.84,0,0,1-16.15-1.31,83.84,83.84,0,0,1-20-5.4,55,55,0,0,1-5.38-2.68,32.55,32.55,0,0,1-7.5-5.79,20.39,20.39,0,0,1-5.51-10.67c-.08-.49-.14-1-.18-1.48a2.35,2.35,0,0,1,0-.26l0-.36c0-.29,0-.59,0-.88a22.48,22.48,0,0,1,2.2-9.31,30.81,30.81,0,0,1,8.91-11.15,48.78,48.78,0,0,1,14.56-7.9A76.3,76.3,0,0,1,601.51,89c2.31-.2,4.69-.3,7.08-.3a96.18,96.18,0,0,1,14.53,1.15c8.35,1.29,15.29,3.38,20.63,6.19.54.29,1.07.58,1.58.88a30.22,30.22,0,0,1,10.13,8.88,20,20,0,0,1,3.62,11.75,25.59,25.59,0,0,1-3.46,12.09l-72.25-11.18-.28.76c-.18.47-.33.93-.47,1.38l-.09.31c-.13.46-.25.9-.34,1.33l0,.1c-.08.44-.15.83-.19,1.21l0,.28c0,.42-.06.82-.07,1.22a10,10,0,0,0,3.12,7.49,16.7,16.7,0,0,0,3.12,2.3c3.26,1.88,7.85,3.29,13.63,4.19a50.68,50.68,0,0,0,7.62.6,39.85,39.85,0,0,0,8.14-.81c4.65-1,7.85-2.24,9.79-3.87l21.56,3.34a48.77,48.77,0,0,1-22.47,10.49,80.08,80.08,0,0,1-14.56,1.29Zm-2.33-51a33.21,33.21,0,0,0-4.09.24,32.26,32.26,0,0,0-8.68,2.18,19.4,19.4,0,0,0-5.81,3.66,18.18,18.18,0,0,0-3.17,3.84l-.73,1.26,47.13,7.29.13-1a17.5,17.5,0,0,0,.15-2.89s0-.37,0-.5c0-.34,0-.68-.09-1l0-.36a12.63,12.63,0,0,0-.27-1.31,1.8,1.8,0,0,1,0-.19c-.12-.41-.23-.74-.35-1.07l-.17-.4c-.11-.27-.23-.53-.36-.79l-.22-.41c-.15-.26-.3-.51-.47-.76l-.22-.34a12.78,12.78,0,0,0-.82-1,12.21,12.21,0,0,0-3-2.36,32.75,32.75,0,0,0-11.15-3.42A51.83,51.83,0,0,0,609.49,99.07Z"/></g></g></svg>