<svg xmlns="http://www.w3.org/2000/svg" viewBox="0 0 285.23 285.17"><defs><style>.cls-1{fill:#fff;}.cls-2{fill:#1b1b1b;}</style></defs><g id="レイヤー_2" data-name="レイヤー 2"><g id="creator-hover"><circle class="cls-1" cx="142.71" cy="142.52" r="138.87"/><path class="cls-2" d="M226.14,27l-4,5.56a21.9,21.9,0,0,1,2.09,2c.35.34.74.64,1.11.94.75.46,1.17,0,2,.22l1.15-.39c.25-.46,1.68-1.21,1.25-1.79s.82-1.66.06-1.93c-.68-.47-1.05-2.35-1.75-2.85A18.21,18.21,0,0,1,226.14,27Z"/><path class="cls-2" d="M176.67,11.24,178.4,4.6a3.68,3.68,0,0,1,1.24.61,2.42,2.42,0,0,0,.75.28c.26.07.55.06.81.11a7.57,7.57,0,0,1,1.31.39,6.54,6.54,0,0,0,2.9.64,4,4,0,0,1,2.32.58,16,16,0,0,0,2.47,1.12,3.75,3.75,0,0,1,.66.4s0,0,0,0a3.75,3.75,0,0,0,.73.3c1.4.43,2.67,1.16,4.06,1.57a9.65,9.65,0,0,1,2.58,1.07c1.82.73,3.56,1.65,5.42,2.2a9.13,9.13,0,0,1,2.8,1.22A21.9,21.9,0,0,0,209,16.46,13.9,13.9,0,0,1,212,18.27a3.1,3.1,0,0,0,.89.5,19.2,19.2,0,0,1,3.64,1.79,15.55,15.55,0,0,1,3.24,2.08,2.63,2.63,0,0,0,.61.44c2,1.19,3.8,2.67,5.72,4l-4,5.56a12.17,12.17,0,0,1-2.54-1.86,3.54,3.54,0,0,0-.81-.47,2.08,2.08,0,0,1-1.09-1,.62.62,0,0,0-.37-.32,4.87,4.87,0,0,1-1.92-1,6.79,6.79,0,0,0-1.09-.52,4,4,0,0,1-.9-.37A60.73,60.73,0,0,1,208,23.77a5.87,5.87,0,0,0-1.06-.6c-1.38-.67-2.72-1.43-4.16-2a13.32,13.32,0,0,0-2.4-1.17c-.82-.34-1.66-.66-2.46-1a2.46,2.46,0,0,0-.92-.24,2.35,2.35,0,0,1-1.92-.92,1.24,1.24,0,0,0-.81-.48c-.16,0-.33,0-.48-.09-.4-.12-.79-.22-1.16-.35a6,6,0,0,0-1.14-.43,1.62,1.62,0,0,1-.62-.33,5.73,5.73,0,0,0-1.38-.84c-.16-.08-.34-.13-.52-.2s-.41-.11-.57-.18l-.36-.11L185,13.86c-.83-.23-1.61-.67-2.44-.85s-1.49-.46-2.25-.63S177.52,11.42,176.67,11.24Z"/><path class="cls-2" d="M126.59,7.84,125.76,1a3.5,3.5,0,0,1,1.39.15,2.68,2.68,0,0,0,.8,0c.27,0,.53-.13.8-.18a7.71,7.71,0,0,1,1.36-.08A6.51,6.51,0,0,0,133,.38a3.56,3.56,0,0,1,2.37-.3,15.81,15.81,0,0,0,2.72.21,3.9,3.9,0,0,1,.75.12l0,0a3.54,3.54,0,0,0,.8,0c1.46-.14,2.9,0,4.34,0a13.17,13.17,0,0,1,2.8.09c2,0,3.92.11,5.85.06a12,12,0,0,1,3.06.11,22,22,0,0,0,2.79.28,13.33,13.33,0,0,1,3.52.65,2.86,2.86,0,0,0,1,.13,17.18,17.18,0,0,1,4,.27,20.33,20.33,0,0,1,3.77.84,3.1,3.1,0,0,0,.73.17,34.26,34.26,0,0,1,3.4.71c1.11.33,2.23.67,3.36.91l-1.73,6.64a9.83,9.83,0,0,1-3-.88,3.06,3.06,0,0,0-.93-.15,2,2,0,0,1-1.37-.46.57.57,0,0,0-.45-.15,5,5,0,0,1-2.17-.17,8.13,8.13,0,0,0-1.19-.12,3.82,3.82,0,0,1-1-.05c-2.06-.47-4.19-.47-6.23-1.13a6.9,6.9,0,0,0-1.19-.21L158,7.77l-1.14-.08a22.39,22.39,0,0,0-2.32-.08,21.56,21.56,0,0,0-2.66-.25c-.89-.05-1.78-.08-2.66-.08a2.81,2.81,0,0,0-.94.13,2.35,2.35,0,0,1-2.13-.09,1.36,1.36,0,0,0-.93-.17,4,4,0,0,1-.48.07c-.41,0-.81.06-1.21.07a5.4,5.4,0,0,0-1.21,0,1.36,1.36,0,0,1-.69,0A5.12,5.12,0,0,0,140,7a5.32,5.32,0,0,0-.56,0c-.18,0-.41.06-.59.06l-.38,0c-1.09.09-2.17.12-3.26.18a20.28,20.28,0,0,0-2.58.14l-2.31.29C129.49,7.8,127.44,7.71,126.59,7.84Z"/><path class="cls-2" d="M78.68,22.92l-3.24-6.05a3.5,3.5,0,0,1,1.34-.36,2.54,2.54,0,0,0,.75-.29c.24-.12.45-.31.68-.45a8.22,8.22,0,0,1,1.24-.58A6.67,6.67,0,0,0,82,13.61a4,4,0,0,1,2.12-1.1,15.34,15.34,0,0,0,2.59-.82,3.06,3.06,0,0,1,.74-.17h0a3.39,3.39,0,0,0,.73-.3c1.32-.65,2.75-.93,4.05-1.57a13.13,13.13,0,0,1,2.63-1c1.82-.72,3.74-1.19,5.48-2a9.31,9.31,0,0,1,2.89-1,22,22,0,0,0,2.71-.7,13,13,0,0,1,3.5-.75,2.71,2.71,0,0,0,1-.24,19.58,19.58,0,0,1,3.89-1.14,16.31,16.31,0,0,1,3.79-.68,3.22,3.22,0,0,0,.75-.1c2.24-.46,4.61-.55,6.87-1l.83,6.81a9.86,9.86,0,0,1-3.13.39,3.67,3.67,0,0,0-.91.2,2.13,2.13,0,0,1-1.45,0,.54.54,0,0,0-.48,0,5.11,5.11,0,0,1-2.09.58,8.58,8.58,0,0,0-1.15.37,4.27,4.27,0,0,1-.9.34,56.94,56.94,0,0,1-6.23,1.16,5.94,5.94,0,0,0-1.18.27c-1.47.44-3,.78-4.43,1.34a48.36,48.36,0,0,0-5.06,1.68,2.49,2.49,0,0,0-.84.44,2.56,2.56,0,0,1-2,.66,1.32,1.32,0,0,0-.92.2,3.5,3.5,0,0,1-.42.24c-.37.19-.73.37-1.09.53a6.33,6.33,0,0,0-1.14.43,1.3,1.3,0,0,1-.68.17,5.11,5.11,0,0,0-1.59.32,5.23,5.23,0,0,0-.51.22c-.16.08-.36.21-.53.28l-.33.17c-1,.5-2,.93-3,1.39-.76.39-1.65.55-2.38,1l-2,1.12C81.36,21.82,79.42,22.49,78.68,22.92Z"/><path class="cls-2" d="M39.6,54.45,34.38,50a3.72,3.72,0,0,1,1.1-.85,2.7,2.7,0,0,0,.58-.54c.18-.21.3-.47.46-.69a7.87,7.87,0,0,1,.92-1,7,7,0,0,0,1.84-2.35,4.07,4.07,0,0,1,1.53-1.84A23.82,23.82,0,0,0,42.92,41a3.54,3.54,0,0,1,.64-.42h0a3.41,3.41,0,0,0,.59-.53c1-1.08,2.19-1.91,3.15-3a12.41,12.41,0,0,1,2.13-1.82c1.45-1.33,3-2.57,4.35-3.92a11.49,11.49,0,0,1,2.32-2c.8-.51,1.51-1.12,2.25-1.67a14.23,14.23,0,0,1,3-1.93,3,3,0,0,0,.83-.61,14.45,14.45,0,0,1,3.19-2.5,20.37,20.37,0,0,1,3.3-2,2.81,2.81,0,0,0,.64-.39c1.93-1.23,4.12-2.17,6.07-3.39l3.24,6.05A9.64,9.64,0,0,1,75.9,24.4a3.86,3.86,0,0,0-.79.52,2.11,2.11,0,0,1-1.34.55.6.6,0,0,0-.45.18A5.39,5.39,0,0,1,71.63,27a8,8,0,0,0-.95.74,3.93,3.93,0,0,1-.73.63c-.91.55-1.79,1.13-2.66,1.72a19.43,19.43,0,0,1-2.69,1.66,5.94,5.94,0,0,0-1,.66c-.61.47-1.26.89-1.86,1.36s-1.19,1-1.76,1.52a39.16,39.16,0,0,0-4.12,3.38,2.71,2.71,0,0,0-.6.73,2.36,2.36,0,0,1-1.64,1.36,1.36,1.36,0,0,0-.8.5,3.79,3.79,0,0,1-.31.37c-.29.3-.56.59-.83.89s-.65.47-.88.83a1.38,1.38,0,0,1-.56.42,5.34,5.34,0,0,0-1.34.9,4.73,4.73,0,0,0-.41.38c-.13.12-.27.32-.4.44l-.26.28c-.77.78-1.49,1.58-2.24,2.38-.56.64-1.29,1.15-1.83,1.83s-1.06,1.13-1.52,1.76S40.13,53.77,39.6,54.45Z"/><path class="cls-2" d="M14.62,98,8.14,95.75a3.4,3.4,0,0,1,.71-1.19,2.55,2.55,0,0,0,.33-.73c.09-.25.1-.54.17-.8a9.82,9.82,0,0,1,.54-1.25,6.57,6.57,0,0,0,.85-2.86,4.09,4.09,0,0,1,.73-2.27,17.14,17.14,0,0,0,1.39-2.34,3.39,3.39,0,0,1,.44-.63s0,0,0,0a3.89,3.89,0,0,0,.35-.71c.51-1.38,1.3-2.6,1.87-3.92a13.05,13.05,0,0,1,1.3-2.48c.8-1.8,1.89-3.43,2.63-5.22A12.29,12.29,0,0,1,20.9,68.6a24.81,24.81,0,0,0,1.54-2.34,13.56,13.56,0,0,1,2.07-2.92,4,4,0,0,0,.55-.87A19.22,19.22,0,0,1,27.14,59a14.77,14.77,0,0,1,2.35-3,3.29,3.29,0,0,0,.48-.58c1.33-1.86,2.94-3.6,4.41-5.37l5.22,4.45a12.21,12.21,0,0,1-2.09,2.36,3.42,3.42,0,0,0-.53.77,2.09,2.09,0,0,1-1,1,.55.55,0,0,0-.34.34,4.92,4.92,0,0,1-1.13,1.85,5.37,5.37,0,0,0-.61,1,4.1,4.1,0,0,1-.44.86c-.64.84-1.22,1.72-1.83,2.58-.3.44-.61.86-.94,1.27a14.94,14.94,0,0,1-1,1.24,5.57,5.57,0,0,0-.69,1,38.51,38.51,0,0,0-2.35,4c-1,1.47-1.73,3.12-2.61,4.65a2.28,2.28,0,0,0-.3.9,2.34,2.34,0,0,1-1,1.87,1.35,1.35,0,0,0-.55.77c-.06.15-.08.32-.15.46-.16.39-.3.76-.47,1.12A5.77,5.77,0,0,0,21,83.6a1.48,1.48,0,0,1-.36.6,5.54,5.54,0,0,0-.92,1.33c-.09.15-.14.32-.23.51s-.13.39-.21.56l-.14.35c-.38,1-.87,2-1.25,3-.28.81-.77,1.56-1,2.38l-.79,2.19C15.73,95.34,14.87,97.19,14.62,98Z"/><path class="cls-2" d="M7.16,147.65l-6.86.27a3.32,3.32,0,0,1,.25-1.37,2.59,2.59,0,0,0,.07-.79c0-.28-.09-.55-.11-.82a7.73,7.73,0,0,1,0-1.36,6.72,6.72,0,0,0-.32-3,4,4,0,0,1-.07-2.39,15.64,15.64,0,0,0,.4-2.68,3.38,3.38,0,0,1,.17-.75s0,0,0,0A3.57,3.57,0,0,0,.79,134c0-1.47.36-2.88.36-4.33a12.48,12.48,0,0,1,.27-2.78c.15-2,.56-3.89.56-5.83a9.64,9.64,0,0,1,.36-3,20.32,20.32,0,0,0,.56-2.75,12,12,0,0,1,.87-3.47,2.75,2.75,0,0,0,.22-1,19.61,19.61,0,0,1,.64-4,16,16,0,0,1,1.12-3.69,4.32,4.32,0,0,0,.23-.72A31.49,31.49,0,0,1,7,99c.41-1.09.83-2.18,1.16-3.28L14.62,98A9.72,9.72,0,0,1,13.51,101a3.12,3.12,0,0,0-.23.91,2,2,0,0,1-.57,1.32.57.57,0,0,0-.19.45,4.93,4.93,0,0,1-.36,2.14A8.23,8.23,0,0,0,12,107a4.36,4.36,0,0,1-.14,1A45.22,45.22,0,0,1,10.16,114a5.32,5.32,0,0,0-.27,1.18c-.24,1.52-.59,3-.72,4.57a46.54,46.54,0,0,0-.72,5.28,2.93,2.93,0,0,0,0,.94,2.49,2.49,0,0,1-.29,2.11A1.38,1.38,0,0,0,8,129a4,4,0,0,1,0,.49c0,.42,0,.82,0,1.21a6.89,6.89,0,0,0-.11,1.21,1.3,1.3,0,0,1-.14.69,4.79,4.79,0,0,0-.4,1.56,3.41,3.41,0,0,0,0,.56c0,.18,0,.42,0,.6s0,.26,0,.38c0,1.1,0,2.17,0,3.26a24.93,24.93,0,0,0-.11,2.59l.11,2.33C7.34,144.76,7.07,146.8,7.16,147.65Z"/><path class="cls-2" d="M18.35,196.61l-6.29,2.73a3.59,3.59,0,0,1-.29-1.35,2.61,2.61,0,0,0-.25-.76c-.1-.25-.3-.46-.41-.71a7,7,0,0,1-.44-1.29,6.69,6.69,0,0,0-1.32-2.67,4,4,0,0,1-1-2.17,17.17,17.17,0,0,0-.57-2.66,3.86,3.86,0,0,1-.1-.76s0,0,0-.05a3.54,3.54,0,0,0-.23-.76c-.52-1.37-.82-2.78-1.28-4.15a12.93,12.93,0,0,1-.71-2.7c-.29-.94-.54-1.89-.81-2.83s-.47-1.89-.81-2.8a12.37,12.37,0,0,1-.78-3c-.12-.94-.33-1.85-.5-2.76a14.13,14.13,0,0,1-.42-3.55,3,3,0,0,0-.19-1,14.73,14.73,0,0,1-.85-4,21.51,21.51,0,0,1-.35-3.84,2.72,2.72,0,0,0-.06-.75c-.28-2.27-.15-4.65-.4-6.94l6.86-.27a9.76,9.76,0,0,1,.11,3.15,3.48,3.48,0,0,0,.12.93,2.13,2.13,0,0,1-.09,1.45.57.57,0,0,0,0,.48,5.51,5.51,0,0,1,.48,2.12A6.58,6.58,0,0,0,8,157a3.94,3.94,0,0,1,.24.94c.1,1.05.24,2.09.38,3.14a18.28,18.28,0,0,1,.32,3.15,6.07,6.07,0,0,0,.16,1.2l.39,2.27c.17.75.36,1.5.6,2.24a51.61,51.61,0,0,0,1.22,5.2,2.84,2.84,0,0,0,.4.86,2.37,2.37,0,0,1,.52,2.06,1.38,1.38,0,0,0,.1.94,4.28,4.28,0,0,1,.2.44c.15.39.29.77.42,1.15a4.15,4.15,0,0,0,.34,1.16,1.3,1.3,0,0,1,.14.68,5.72,5.72,0,0,0,.22,1.6,4.15,4.15,0,0,0,.18.53c.05.17.16.39.22.56l.13.35c.42,1,.69,2.06,1.12,3.07.35.78.49,1.66.87,2.43l.9,2.15C17.37,193.89,18,195.84,18.35,196.61Z"/><path class="cls-2" d="M46.52,238.17,41.66,243a3.82,3.82,0,0,1-.74-1.18,2.44,2.44,0,0,0-.49-.63,7.91,7.91,0,0,0-.63-.52,7.3,7.3,0,0,1-.9-1,7.08,7.08,0,0,0-2.24-2A4.07,4.07,0,0,1,35,236a16.07,16.07,0,0,0-1.53-2.24,2.7,2.7,0,0,1-.38-.66s0,0,0,0a4.31,4.31,0,0,0-.49-.62c-1-1.09-1.69-2.37-2.67-3.43a11.29,11.29,0,0,1-1.69-2.23C27,225.2,26,223.53,24.65,222.1a10,10,0,0,1-1.77-2.49,23.18,23.18,0,0,0-1.47-2.39c-.34-.49-.68-1-1-1.49a10.67,10.67,0,0,1-.72-1.66,2.84,2.84,0,0,0-.52-.88,20.41,20.41,0,0,1-2.27-3.36,20.2,20.2,0,0,1-1.66-3.48,3.26,3.26,0,0,0-.32-.68c-1.17-2-1.86-4.26-2.88-6.33l6.29-2.73a9.67,9.67,0,0,1,1.2,2.92,3.42,3.42,0,0,0,.43.83,2.1,2.1,0,0,1,.48,1.36.57.57,0,0,0,.16.46,5,5,0,0,1,1.2,1.8,8,8,0,0,0,.64,1,3.86,3.86,0,0,1,.55.79,54.25,54.25,0,0,1,2.93,5.61,5.54,5.54,0,0,0,.58,1.07c.85,1.27,1.62,2.6,2.59,3.82a36.41,36.41,0,0,0,3,4.38,3,3,0,0,0,.67.67A2.32,2.32,0,0,1,34,223.1a1.33,1.33,0,0,0,.47.82,2.73,2.73,0,0,1,.35.33c.29.3.57.59.83.89a6.65,6.65,0,0,0,.74,1,1.29,1.29,0,0,1,.37.59,5.6,5.6,0,0,0,.76,1.43,3.55,3.55,0,0,0,.35.44c.12.14.3.29.42.43l.26.27c.76.79,1.46,1.6,2.19,2.42.6.62,1,1.42,1.66,2l1.66,1.63C44.69,235.92,45.9,237.57,46.52,238.17Z"/><path class="cls-2" d="M87.94,266.58l-2.78,6.27A3.8,3.8,0,0,1,84,272a2.36,2.36,0,0,0-.69-.4,6.46,6.46,0,0,0-.78-.25,6.91,6.91,0,0,1-1.22-.6,7.37,7.37,0,0,0-2.78-1.08,4,4,0,0,1-2.19-.95,20.19,20.19,0,0,0-2.25-1.52,3,3,0,0,1-.58-.5s0,0,0,0a3.42,3.42,0,0,0-.68-.41c-1.31-.64-2.45-1.55-3.76-2.17a11.74,11.74,0,0,1-2.35-1.51c-.85-.5-1.67-1-2.49-1.56-.42-.26-.83-.51-1.26-.75s-.82-.5-1.25-.73a11.66,11.66,0,0,1-2.57-1.66c-.72-.62-1.5-1.14-2.25-1.67a14.7,14.7,0,0,1-2.71-2.34,3,3,0,0,0-.82-.62,9.24,9.24,0,0,1-1.73-1c-.54-.42-1-.86-1.58-1.29a20.65,20.65,0,0,1-2.86-2.59,3.33,3.33,0,0,0-.55-.51c-1.74-1.49-3.27-3.31-5-4.83l4.86-4.84a9.79,9.79,0,0,1,2.22,2.23,3.7,3.7,0,0,0,.72.61,2.05,2.05,0,0,1,.91,1.12.65.65,0,0,0,.31.38,5.49,5.49,0,0,1,1.78,1.24,9.15,9.15,0,0,0,1,.69,3.81,3.81,0,0,1,.82.52c.78.71,1.58,1.39,2.4,2A17.53,17.53,0,0,1,59,249.12a7,7,0,0,0,.93.78,30.44,30.44,0,0,0,3.79,2.63,36.88,36.88,0,0,0,4.43,3,2.43,2.43,0,0,0,.87.37,2.38,2.38,0,0,1,1.77,1.19,1.31,1.31,0,0,0,.71.62c.14.07.31.11.44.19.37.2.74.35,1.09.54a6.35,6.35,0,0,0,1,.6,1.46,1.46,0,0,1,.57.42,5.4,5.4,0,0,0,1.24,1,4.33,4.33,0,0,0,.48.28c.15.09.38.17.54.26l.33.17,2.93,1.45c.78.36,1.47.92,2.27,1.24s1.4.68,2.13.95S87.14,266.26,87.94,266.58Z"/><path class="cls-2" d="M136.82,278l-.3,6.85a3.43,3.43,0,0,1-1.34-.33,2.6,2.6,0,0,0-.79-.11c-.27,0-.55.06-.82.06a7.64,7.64,0,0,1-1.35-.15,6.52,6.52,0,0,0-3,0,4.09,4.09,0,0,1-2.4-.05,18.2,18.2,0,0,0-2.64-.66,2.77,2.77,0,0,1-.72-.24l0,0a3.18,3.18,0,0,0-.79-.13c-1.46-.11-2.86-.49-4.29-.67a13.16,13.16,0,0,1-2.74-.54c-1-.15-1.94-.32-2.9-.52a25.32,25.32,0,0,0-2.87-.5,12.45,12.45,0,0,1-3-.58c-.9-.28-1.79-.59-2.69-.79a14.61,14.61,0,0,1-3.39-1.16,3.15,3.15,0,0,0-1-.27,18.23,18.23,0,0,1-3.92-1,15.54,15.54,0,0,1-3.6-1.37,3.52,3.52,0,0,0-.69-.3c-1.08-.36-2.15-.83-3.22-1.3l-1.6-.69c-.52-.25-1-.49-1.59-.7l2.78-6.27a12.91,12.91,0,0,1,2.86,1.31,3.19,3.19,0,0,0,.89.29,2.12,2.12,0,0,1,1.27.7.59.59,0,0,0,.42.24,4.89,4.89,0,0,1,2.09.55,6.4,6.4,0,0,0,1.17.28,4.2,4.2,0,0,1,1,.18c2,.73,4,1.28,6,2.15a6,6,0,0,0,1.15.38,33.81,33.81,0,0,0,4.49,1.1c1.69.55,3.48.77,5.2,1.19a2.77,2.77,0,0,0,1,0,2.34,2.34,0,0,1,2.08.43,1.34,1.34,0,0,0,.89.31,3.81,3.81,0,0,1,.48,0c.42,0,.82.07,1.21.13a4.71,4.71,0,0,0,1.19.21,1.46,1.46,0,0,1,.68.17,5.18,5.18,0,0,0,1.53.5c.18,0,.36,0,.56.08s.42,0,.59,0l.38,0c1.1.07,2.15.27,3.25.33.85,0,1.71.29,2.57.29l2.32.13C133.94,277.72,136,278,136.82,278Z"/><path class="cls-2" d="M186.52,270.86l2.21,6.49a3.72,3.72,0,0,1-1.38.16,2.66,2.66,0,0,0-.78.17c-.26.08-.49.24-.75.34a7.22,7.22,0,0,1-1.3.39,7.7,7.7,0,0,0-2.77,1.1,4,4,0,0,1-2.26.77,15.6,15.6,0,0,0-2.68.42,2.73,2.73,0,0,1-.76.05l-.05,0a3.85,3.85,0,0,0-.78.15c-1.4.41-2.86.5-4.24.92a10.08,10.08,0,0,1-2.75.53c-1.92.39-3.87.59-5.73,1.16a10.51,10.51,0,0,1-3,.51,21.43,21.43,0,0,0-2.79.27c-.59.09-1.18.18-1.77.23a9.87,9.87,0,0,1-1.8-.08,2.74,2.74,0,0,0-1,.09,19.28,19.28,0,0,1-4,.56,18.45,18.45,0,0,1-3.86,0,3.76,3.76,0,0,0-.75,0,26.8,26.8,0,0,1-3.47,0c-1.16-.08-2.32-.16-3.48-.16l.3-6.85a9.84,9.84,0,0,1,3.14.2,2.93,2.93,0,0,0,.94,0,2.07,2.07,0,0,1,1.43.16.58.58,0,0,0,.48.06,4.93,4.93,0,0,1,2.15-.29,6.57,6.57,0,0,0,1.19-.13,4,4,0,0,1,.95-.15,53.42,53.42,0,0,1,6.33-.19,5,5,0,0,0,1.22,0c1.52-.21,3-.33,4.57-.66a36.33,36.33,0,0,0,5.27-.83,2.68,2.68,0,0,0,.89-.31,2.37,2.37,0,0,1,2.11-.3,1.23,1.23,0,0,0,.94,0,2.82,2.82,0,0,1,.45-.18c.4-.13.78-.25,1.17-.36a6.38,6.38,0,0,0,1.18-.25,1.38,1.38,0,0,1,.7-.07,5.86,5.86,0,0,0,1.62-.06c.18,0,.35-.08.54-.12s.4-.13.58-.17l.36-.12c1-.34,2.08-.62,3.13-.92.82-.26,1.71-.32,2.52-.62s1.47-.49,2.2-.76S185.72,271.16,186.52,270.86Z"/><path class="cls-2" d="M230.21,246.15l4.44,5.23a3.79,3.79,0,0,1-1.21.68,2.58,2.58,0,0,0-.66.45c-.21.17-.38.4-.58.58a7.9,7.9,0,0,1-1.09.81,6.41,6.41,0,0,0-2.17,2,3.72,3.72,0,0,1-1.81,1.57,16.54,16.54,0,0,0-2.38,1.32,3.73,3.73,0,0,1-.7.32h0a3.61,3.61,0,0,0-.66.44,19.8,19.8,0,0,1-1.79,1.25,16.61,16.61,0,0,0-1.83,1.16,12.76,12.76,0,0,1-2.37,1.48c-1.6,1.16-3.4,2-4.94,3.15a11.93,11.93,0,0,1-2.59,1.62,22.62,22.62,0,0,0-2.52,1.23,14.77,14.77,0,0,1-3.27,1.46,3.45,3.45,0,0,0-.92.46,19.64,19.64,0,0,1-3.56,1.92,15.54,15.54,0,0,1-3.58,1.42,4.37,4.37,0,0,0-.72.25c-1,.47-2.14.85-3.24,1.23l-3.29,1.13-2.21-6.49a6.68,6.68,0,0,1,1.46-.56c.44-.14.9-.24,1.54-.41a4.15,4.15,0,0,0,.85-.39,2.09,2.09,0,0,1,1.41-.35.57.57,0,0,0,.47-.11,4.89,4.89,0,0,1,1.91-1,5.63,5.63,0,0,0,1.05-.58,3.73,3.73,0,0,1,.82-.51c1-.4,1.93-.86,2.89-1.29s1.94-.83,3-1.17a6.08,6.08,0,0,0,1.1-.5,45.49,45.49,0,0,0,4.05-2.22c1.61-.75,3.07-1.81,4.61-2.68a2.42,2.42,0,0,0,.73-.6,2.32,2.32,0,0,1,1.82-1.1A1.42,1.42,0,0,0,215,257c.12-.1.23-.23.36-.32.33-.26.65-.5,1-.73a5.5,5.5,0,0,0,1-.65A1.62,1.62,0,0,1,218,255a5.28,5.28,0,0,0,1.46-.69,3.86,3.86,0,0,0,.46-.32c.14-.1.32-.27.46-.37l.3-.24c.86-.68,1.74-1.29,2.62-1.94.65-.55,1.45-.95,2.08-1.54l1.78-1.5c.34-.28,1-.67,1.56-1.08S229.9,246.44,230.21,246.15Z"/><path class="cls-2" d="M261.92,207.2l6,3.28c-.15.44-.58.7-.91,1.05a2.52,2.52,0,0,0-.47.64c-.13.24-.2.51-.32.76a7.67,7.67,0,0,1-.71,1.16,6.67,6.67,0,0,0-1.25,2.71,4,4,0,0,1-1.16,2.09,16.11,16.11,0,0,0-1.71,2.11,3.36,3.36,0,0,1-.52.55s0,0,0,0a3.44,3.44,0,0,0-.45.65c-.76,1.25-1.78,2.3-2.51,3.54a12,12,0,0,1-1.66,2.26c-1.15,1.59-2.45,3.06-3.44,4.73a10.16,10.16,0,0,1-1.87,2.42,22.91,22.91,0,0,0-1.87,2.09c-.37.47-.74.94-1.15,1.37a10.33,10.33,0,0,1-1.38,1.16,3,3,0,0,0-.69.76,19.64,19.64,0,0,1-2.56,3.14,21.85,21.85,0,0,1-2.85,2.59,3,3,0,0,0-.56.51c-1.55,1.7-3.56,3-5.22,4.58l-4.44-5.23a9.93,9.93,0,0,1,2.44-2,3.46,3.46,0,0,0,.67-.65,2.24,2.24,0,0,1,1.18-.84.6.6,0,0,0,.39-.29,4.85,4.85,0,0,1,1.38-1.67,8.18,8.18,0,0,0,.78-.91,4.1,4.1,0,0,1,.6-.76,59.1,59.1,0,0,1,4.53-4.42,5.38,5.38,0,0,0,.86-.86c1-1.19,2-2.31,2.92-3.58a37,37,0,0,0,3.31-4.18,2.6,2.6,0,0,0,.45-.83,2.39,2.39,0,0,1,1.34-1.65,1.41,1.41,0,0,0,.66-.68,3.55,3.55,0,0,1,.21-.44c.21-.36.41-.71.62-1a6.51,6.51,0,0,0,.7-1,1.46,1.46,0,0,1,.47-.52,5.45,5.45,0,0,0,1.16-1.14,4.1,4.1,0,0,0,.31-.46c.09-.15.19-.38.29-.53l.18-.33c.55-.95,1.13-1.86,1.7-2.79a23.63,23.63,0,0,0,1.42-2.16l1.1-2.06C260.29,209.6,261.55,208,261.92,207.2Z"/><path class="cls-2" d="M277.3,159.4l6.8.86a3.67,3.67,0,0,1-.46,1.31,2.8,2.8,0,0,0-.19.77c0,.27,0,.55,0,.82a6.71,6.71,0,0,1-.23,1.34,7.61,7.61,0,0,0-.23,3,4.1,4.1,0,0,1-.28,2.38,18.39,18.39,0,0,0-.81,2.59,3.33,3.33,0,0,1-.31.7l0,0a3.64,3.64,0,0,0-.2.77c-.25,1.44-.8,2.79-1,4.22a10.29,10.29,0,0,1-.76,2.69c-.5,1.9-1.09,3.77-1.48,5.67a12.21,12.21,0,0,1-.86,2.93,23.17,23.17,0,0,0-1,2.64,14.44,14.44,0,0,1-1.47,3.26,2.77,2.77,0,0,0-.36,1,11,11,0,0,1-.5,2c-.23.64-.53,1.25-.79,1.88a20.51,20.51,0,0,1-1.67,3.47,3.29,3.29,0,0,0-.33.68c-.9,2.1-2.24,4.07-3.2,6.17l-6-3.28a10.07,10.07,0,0,1,1.51-2.76,3.1,3.1,0,0,0,.38-.86,2.14,2.14,0,0,1,.82-1.2.55.55,0,0,0,.27-.39,5.2,5.2,0,0,1,.67-2.07,8.08,8.08,0,0,0,.39-1.14,3.69,3.69,0,0,1,.27-.93c1-1.88,1.52-3.92,2.62-5.76a5.73,5.73,0,0,0,.48-1.11,33.14,33.14,0,0,0,1.44-4.39,36.16,36.16,0,0,0,1.59-5.09,2.84,2.84,0,0,0,.11-.94,2.34,2.34,0,0,1,.63-2,1.41,1.41,0,0,0,.4-.86,2.52,2.52,0,0,1,.06-.48c.06-.42.11-.81.18-1.2a5.8,5.8,0,0,0,.28-1.18,1.55,1.55,0,0,1,.24-.66,5.56,5.56,0,0,0,.65-1.48c.06-.17.08-.35.13-.55s.06-.41.1-.59l.07-.37.54-3.22c.12-.85.46-1.67.54-2.53s.24-1.53.29-2.31S277.22,160.26,277.3,159.4Z"/><path class="cls-2" d="M274.2,109.28l6.65-1.68a3.41,3.41,0,0,1,.06,1.39,3,3,0,0,0,.09.79c.06.27.2.52.27.78a7.43,7.43,0,0,1,.25,1.33,6.7,6.7,0,0,0,.9,2.85,3.62,3.62,0,0,1,.61,2.31,17.26,17.26,0,0,0,.14,2.71,2.84,2.84,0,0,1,0,.77s0,0,0,0a4.07,4.07,0,0,0,.11.79,15.76,15.76,0,0,1,.34,2.15,17.26,17.26,0,0,0,.25,2.15,13.52,13.52,0,0,1,.29,2.78c.34,1.94.29,3.91.68,5.82a12.09,12.09,0,0,1,.32,3,26.15,26.15,0,0,0,0,2.8,13.86,13.86,0,0,1-.12,3.58,3.26,3.26,0,0,0,0,1,18.76,18.76,0,0,1,.16,4,16,16,0,0,1-.27,3.85,2.66,2.66,0,0,0-.09.75c0,1.14-.18,2.29-.32,3.45l-.42,3.46-6.8-.86a13,13,0,0,1,.43-3.12,3.73,3.73,0,0,0,0-.94,2,2,0,0,1,.3-1.41.56.56,0,0,0,.1-.47,4.92,4.92,0,0,1-.07-2.16,7,7,0,0,0-.06-1.21,3.93,3.93,0,0,1-.11-1c.07-1,.07-2.1.11-3.16,0-.52.05-1.05.09-1.57s.07-1.06.14-1.59a6.1,6.1,0,0,0,0-1.21,37.56,37.56,0,0,0-.23-4.61c0-1.78-.28-3.55-.39-5.32a2.27,2.27,0,0,0-.23-.92,2.33,2.33,0,0,1-.19-2.11,1.41,1.41,0,0,0,0-.95,3.47,3.47,0,0,1-.13-.46c-.09-.41-.17-.8-.24-1.2a5.51,5.51,0,0,0-.13-1.2,1.38,1.38,0,0,1,0-.7,5.79,5.79,0,0,0,0-1.61c0-.18-.06-.36-.09-.55s-.11-.41-.14-.59l-.08-.37c-.24-1.07-.41-2.13-.61-3.2-.17-.84-.21-1.73-.46-2.55l-.57-2.26C274.64,112.15,274.48,110.1,274.2,109.28Z"/><path class="cls-2" d="M275,104.54c-.44.4-.94.75-.88,1.44l-.14.78c-.25.88.18,1.65.21,2.53l6.65-1.68c-.17-.84.27.26-.15-1.17-.25-.78-.32-.57-.89-1.15-.43-.38-.47-.22-1-.54s-.13-.5-.83-.48c-.49-.25-.26-.25-.83-.11-.31.09-.45,0-1.05.11C275.22,104.62,275.46,104.34,275,104.54Z"/><path class="cls-2" d="M264.65,73.6a8.33,8.33,0,0,0-1.89,1.72,4.8,4.8,0,0,1-1.18,1.2,3.37,3.37,0,0,0-.85,1c-.24.43-.47.84-.76,1.27a5.17,5.17,0,0,0-.86,2.94,4.69,4.69,0,0,1-.11,1.45c0,.12-.07.27-.09.39A5.11,5.11,0,0,0,259,86a2.91,2.91,0,0,0,.84,1.58,5.09,5.09,0,0,1,.56.58,4,4,0,0,0,1.45,1.4,2.12,2.12,0,0,1,.61.54,5.09,5.09,0,0,0,2.11,1.28,4.41,4.41,0,0,0,1.83.45,1.49,1.49,0,0,1,1.15.39,3,3,0,0,0,.53.34.57.57,0,0,0,.4.09l1.46-.23a2,2,0,0,1,.63-.07,1.65,1.65,0,0,0,1.38-.39,1.92,1.92,0,0,1,.91-.51,3.16,3.16,0,0,0,1.29-.72,9,9,0,0,1,.78-.74,1.6,1.6,0,0,0,.51-.67,4.74,4.74,0,0,1,1-1.42A2.53,2.53,0,0,0,277,87c.21-.38.42-.77.6-1.17a3.41,3.41,0,0,0,.19-.62,9.75,9.75,0,0,1,.3-1.54,1.78,1.78,0,0,0,0-.69,12.79,12.79,0,0,0-.83-3.11,17.1,17.1,0,0,0-.81-2,5.4,5.4,0,0,0-1.47-1.9,1.65,1.65,0,0,0-.54-.36,17.58,17.58,0,0,1-2.85-1.34,24.37,24.37,0,0,0-2.84-1.08c-.72-.11-1.42-.23-2.13-.31a.8.8,0,0,0-.23,0A5.24,5.24,0,0,0,264.65,73.6Z"/><path d="M71.72,77.42c.29.07.41.16.41.33a1.9,1.9,0,0,1-.17.56,9.32,9.32,0,0,0-.24,2.07c-.17,2.62-.26,4.35-.26,6.58,0,1.72.21,2.11,1.57,2.11a9,9,0,0,0,6-3.13,5.5,5.5,0,0,0,.39,1.61,1.22,1.22,0,0,1,.13.41c0,.16-.07.29-.34.53A9.71,9.71,0,0,1,72.72,91c-2.18,0-3.19-.87-3.19-3.47,0-2.85.15-5.3.23-7.34a10.89,10.89,0,0,0-.17-3.11A18.17,18.17,0,0,1,71.72,77.42Z"/><path d="M87.51,82.29c-.85.06-1.72.13-2.85.13-.29,0-.38-.1-.41-.36s-.12-.88-.19-1.47a9.79,9.79,0,0,0,1.33.08c.71,0,1.44-.07,2.15-.14,0-.56,0-1.2,0-1.93a6.38,6.38,0,0,0-.12-1.38,9.36,9.36,0,0,1,2,.31c.2,0,.34.17.34.32a.6.6,0,0,1-.11.27,1.93,1.93,0,0,0-.23.66c-.06.45-.07.87-.09,1.41a16.86,16.86,0,0,0,2.18-.62c.15-.06.27,0,.29.15A9.53,9.53,0,0,1,92,81c0,.17,0,.23-.22.28A18,18,0,0,1,89.3,82c0,.82,0,1.65,0,2.47a10.72,10.72,0,0,1,4.18-.94,3.36,3.36,0,0,1,3.62,3.4c0,2.18-1.39,3.45-3.69,3.45A7,7,0,0,1,92,90.19a.46.46,0,0,1-.37-.51,3.17,3.17,0,0,0-.51-1.45,6.11,6.11,0,0,0,2.12.31,1.69,1.69,0,0,0,1.84-1.75c0-1.11-.68-1.72-1.87-1.72a8.42,8.42,0,0,0-3.89,1.16c0,.71,0,1.29.06,2s.14,1.82.14,2.21c0,.24,0,.49-.25.56a6.58,6.58,0,0,1-1.26.2c-.19,0-.26-.12-.41-.34a10.29,10.29,0,0,0-2.42-2.17,3.43,3.43,0,0,0-.54.37.39.39,0,0,1-.29.12A.47.47,0,0,1,84,89c-.19-.31-.53-1-.78-1.58a6.08,6.08,0,0,0,1.56-.6c.73-.41,1.53-.86,2.77-1.58Zm-1.58,5.84a15.83,15.83,0,0,0,1.6.77c.13,0,.18,0,.17-.14,0-.44-.07-1.22-.1-1.78C87.12,87.3,86.54,87.69,85.93,88.13Zm8.13-8.92c.11-.19.17-.24.28-.2A8,8,0,0,1,98,81.08c.07.07.1.12.1.17a.38.38,0,0,1-.07.17c-.22.34-.66.87-.92,1.21a.3.3,0,0,1-.34,0,7.8,7.8,0,0,0-3.45-2.1A10.47,10.47,0,0,1,94.06,79.21Z"/><path d="M111.4,81.89a16.08,16.08,0,0,1,.23,2.61,7.78,7.78,0,0,1-1.53,4.91A4.87,4.87,0,0,1,106,91.17c-2.65,0-4.42-1.88-4.42-4.77a9.48,9.48,0,0,1,1.57-5.08,6.35,6.35,0,0,1,1-1.24c-.56.08-1.16.13-1.91.27-.29.05-.54.17-.68.17s-.23-.12-.29-.26a11.52,11.52,0,0,1-.45-1.73,8.52,8.52,0,0,0,1.75,0,20.84,20.84,0,0,0,2.22-.29,3.09,3.09,0,0,0,1.19-.35.55.55,0,0,1,.28-.14.32.32,0,0,1,.23.14,4.31,4.31,0,0,1,.72.9.84.84,0,0,1,.15.39c0,.13-.09.24-.27.34A6.34,6.34,0,0,0,105.46,81a8,8,0,0,0-2.09,5.1c0,2.17,1.09,3.16,2.55,3.16a3.31,3.31,0,0,0,3-1.55A8.53,8.53,0,0,0,110,83.12a25.37,25.37,0,0,0-.1-2.55c0-.36-.09-.68-.12-.89s-.1-.42-.19-.69-.08-.38.17-.46a8.56,8.56,0,0,1,1.28-.32c.13,0,.22.06.25.18a20.64,20.64,0,0,0,1.14,2.55,17.13,17.13,0,0,0,2.79,3.86.36.36,0,0,1,.1.22.49.49,0,0,1-.12.27,7.57,7.57,0,0,1-.93,1.07.27.27,0,0,1-.19.09.31.31,0,0,1-.27-.2,18.74,18.74,0,0,1-2.35-4.39Z"/><path d="M72.43,105.51a7.42,7.42,0,0,1-.77,3.31,6.5,6.5,0,0,1-2.29,2.46.77.77,0,0,1-.39.15.35.35,0,0,1-.27-.13,3.55,3.55,0,0,0-1.16-.68,5.83,5.83,0,0,0,2.59-2.32,5.51,5.51,0,0,0,.66-2.79H68.33c-.65,0-1.29,0-2,.08-.12,0-.16-.08-.17-.25a8.55,8.55,0,0,1-.1-1.25c.73.06,1.45.06,2.21.06h5.83c1,0,1.77,0,2.54-.07.13,0,.14.07.14.26a8.34,8.34,0,0,1,0,1c0,.17-.08.22-.19.22-.68,0-1.58,0-2.47,0Zm-2.58-3c-.6,0-1.12,0-1.84.05-.17,0-.21-.06-.23-.22s0-.78-.09-1.25c.91.06,1.58.07,2.16.07h2.39c.73,0,1.55,0,2.2,0,.13,0,.16.07.16.24a7.53,7.53,0,0,1,0,1c0,.18,0,.25-.17.25-.7,0-1.47,0-2.19,0Zm5.59-2.26c.07,0,.12,0,.18,0a5.91,5.91,0,0,1,1.11,1.51c0,.07,0,.14-.07.2l-.58.36a.14.14,0,0,1-.21-.07,6.41,6.41,0,0,0-1.17-1.63Zm1.24-.73c.07,0,.11,0,.18,0A5.55,5.55,0,0,1,78,101a.15.15,0,0,1-.06.23l-.55.35a.14.14,0,0,1-.22-.06A6.19,6.19,0,0,0,76,99.9Z"/><path d="M87.86,103.58c.63,0,1.36,0,2,0,.16,0,.17.07.18.21a5.91,5.91,0,0,1,0,1c0,.17,0,.22-.22.21l-1.87,0h-.53a7.76,7.76,0,0,1-1,4,6.13,6.13,0,0,1-3.06,2.42,1.31,1.31,0,0,1-.37.11c-.08,0-.14,0-.24-.14a3.12,3.12,0,0,0-1.08-.78,5.7,5.7,0,0,0,3.51-2.3,6.35,6.35,0,0,0,.76-3.32H83.12v.47c0,.77,0,1.47,0,2.16,0,.14-.07.17-.22.18a7,7,0,0,1-1.12,0c-.16,0-.24,0-.23-.18,0-.68.07-1.31.07-2.13V105h-.39c-.71,0-1.75,0-2.15.07-.1,0-.14-.08-.16-.25s-.06-.73-.09-1.26c.55,0,1.39.07,2.4.07h.39v-.95a9,9,0,0,0-.16-1.91,13.83,13.83,0,0,1,1.59.2c.14,0,.19.09.19.19a1,1,0,0,1-.08.27,3.27,3.27,0,0,0-.09,1.25v.95h2.8v-1.28a8.91,8.91,0,0,0-.12-1.78,11.69,11.69,0,0,1,1.52.22c.19,0,.24.11.24.21a1,1,0,0,1,0,.23,3.34,3.34,0,0,0-.11,1.15v1.23Zm.65-3.14c.06,0,.11,0,.18,0a6.06,6.06,0,0,1,1,1.57c0,.09,0,.14-.08.2l-.53.27c-.11,0-.17,0-.22-.08a6.2,6.2,0,0,0-1.06-1.69Zm1.22-.56c.08,0,.12,0,.18.05a5.47,5.47,0,0,1,1,1.52.14.14,0,0,1-.08.22l-.52.26c-.11,0-.17,0-.2-.06a6.15,6.15,0,0,0-1.06-1.69Z"/><path d="M99,108.33c0,.89,0,1.66,0,2.7,0,.17-.06.22-.2.22a9.4,9.4,0,0,1-1.3,0c-.14,0-.19,0-.18-.2,0-.94,0-1.79,0-2.67v-3a22.72,22.72,0,0,1-3.57,2.5.37.37,0,0,1-.2.05.36.36,0,0,1-.27-.13,4.94,4.94,0,0,0-1.12-.77,22,22,0,0,0,6.86-5.38,3.68,3.68,0,0,0,.82-1.34,12.84,12.84,0,0,1,1.45.91.25.25,0,0,1,.1.2.37.37,0,0,1-.18.28,4.14,4.14,0,0,0-.78.72A20,20,0,0,1,99,104Z"/><path d="M113.34,103.7c.72,0,1.58,0,2.26,0,.18,0,.23,0,.25.24a8.51,8.51,0,0,1,0,1c0,.21-.06.25-.25.25-.47,0-1.46,0-2.19,0h-1.84a6.82,6.82,0,0,1-.89,3.55,7.33,7.33,0,0,1-2.76,2.56.61.61,0,0,1-.3.09.39.39,0,0,1-.29-.13,3.69,3.69,0,0,0-1.09-.72,6.54,6.54,0,0,0,3-2.35,5.5,5.5,0,0,0,.79-3h-2.51c-.63,0-1.37,0-1.87.06-.17,0-.21-.05-.23-.25s-.07-.8-.09-1.28c.84.06,1.57.06,2.21.06h2.56c0-.65,0-1.35,0-1.92a5.37,5.37,0,0,0-.15-1.31,8.84,8.84,0,0,1,1.73.18c.14,0,.19.09.19.18a.85.85,0,0,1-.09.29,2.44,2.44,0,0,0-.1.79c0,.61,0,1,0,1.78Z"/><path d="M120.82,106.74a10.22,10.22,0,0,0-1.91.16.29.29,0,0,1-.3-.27,15.52,15.52,0,0,1-.19-1.58,16.58,16.58,0,0,0,2.81.16h4.18c1,0,2,0,3,0,.2,0,.24,0,.24.18,0,.39,0,.83,0,1.22,0,.16,0,.21-.24.2-1,0-1.93,0-2.9,0Z"/><path d="M76.14,125.6a.67.67,0,0,0,.23,0,.31.31,0,0,1,.16-.06c.06,0,.16.07.45.33s.31.32.31.44a.33.33,0,0,1-.09.22c-.08.09-.11.24-.17.59a11.25,11.25,0,0,1-.89,2.7,6,6,0,0,0,1.52,1.44,5.08,5.08,0,0,0-.45.78c-.09.21-.14.3-.22.3s-.13-.06-.26-.17a8.22,8.22,0,0,1-1.17-1.28,8.55,8.55,0,0,1-1,1.24c-.12.12-.18.17-.25.17s-.13-.09-.23-.26a3,3,0,0,0-.46-.58c0,.65,0,1,0,1s0,.15-.14.15h-.87c-.13,0-.15,0-.15-.15s0-.49,0-1.32c-.68.23-1.33.44-2,.62a1.76,1.76,0,0,0-.43.17.36.36,0,0,1-.2.09c-.06,0-.11-.08-.15-.18a5.26,5.26,0,0,1-.26-1c.35,0,.65-.11,1-.17v-6.22c-.39,0-.57,0-.61,0h-.09v.84c0,.12,0,.13-.15.13s-.31,0-1,0v1.34h0c.93,0,1.23,0,1.31,0s.16,0,.16.14v.94c0,.12,0,.13-.16.13l-1.13,0v1.29h1c.13,0,.14,0,.14.13v.87c0,.14,0,.15-.14.15s-.25,0-.64,0h-.35v2.1a8.31,8.31,0,0,0,3.76.61,48.78,48.78,0,0,0,5.11-.29,3.7,3.7,0,0,0-.38,1c-.08.41-.08.41-.48.44-1.39.09-2.73.14-4.21.14a8.3,8.3,0,0,1-4-.71,4.71,4.71,0,0,1-1.58-1.41,10.12,10.12,0,0,1-.52,2c-.07.17-.12.24-.17.24s-.13-.06-.25-.17a3.24,3.24,0,0,0-.74-.54,11.34,11.34,0,0,0,.82-4.39,7.24,7.24,0,0,0,0-.76,8.06,8.06,0,0,1,1.06.18c.14,0,.19.08.19.16a.66.66,0,0,1-.06.22,1,1,0,0,0-.07.47c0,.43,0,.84-.08,1.27a4,4,0,0,0,.56.76v-3.66h-.66c-.94,0-1.25,0-1.33,0s-.13,0-.13-.13v-.94c0-.13,0-.14.13-.14s.39,0,1.33,0h.36V125.4h-.21c-.83,0-1.09,0-1.17,0s-.15,0-.15-.13v-.92c0-.13,0-.14.15-.14s.34,0,1.17,0h.21v-.15a7.91,7.91,0,0,0-.09-1.47,10.52,10.52,0,0,1,1.21.09c.13,0,.21,0,.21.13a.73.73,0,0,1-.07.25,3,3,0,0,0-.07,1v.18c.71,0,1,0,1,0h.09v-.79c0-.13,0-.15.15-.15s.5,0,1.76,0h3.87c1.24,0,1.67,0,1.75,0s.14,0,.14.15v.85c0,.13,0,.15-.14.15s-.51,0-1.75,0H73.63v1.18Zm-4.51-1.18v1.24h.9v-1.24Zm.9,3.47v-1.23h-.9v1.23Zm0,1h-.9v1.47c.29-.08.59-.17.9-.28Zm1.1,2.38a6.18,6.18,0,0,0,1.3-1.45,10.45,10.45,0,0,1-1-3.17h-.29Zm1.28-4.62a8.46,8.46,0,0,0,.6,2,9.8,9.8,0,0,0,.53-2Z"/><path d="M82.59,128.14c0,2.37,0,2.82,0,2.9s0,.14-.16.14h-.93c-.13,0-.15,0-.15-.14v-.68H80.29v1.25c0,.13,0,.14-.13.14h-1c-.12,0-.13,0-.13-.14s0-.57,0-3.17v-2c0-1.85,0-2.36,0-2.43s0-.15.13-.15.33,0,1.13,0h1c.81,0,1,0,1.13,0s.16,0,.16.15,0,.55,0,2Zm-2.3-3v4h1.09v-4Zm4.59,3.77c-1.24,0-1.66,0-1.74,0s-.13,0-.13-.15v-1c0-.13,0-.14.13-.14s.5,0,1.74,0h.87v-1.63H85.1c-1.16,0-1.56,0-1.64,0s-.14,0-.14-.15v-1c0-.13,0-.15.14-.15s.48,0,1.64,0h.65v-.3a12.73,12.73,0,0,0-.09-1.9c.48,0,.9,0,1.34.09.13,0,.22.07.22.13a.66.66,0,0,1-.09.29,4.59,4.59,0,0,0-.08,1.37v.32h1c1.16,0,1.55,0,1.63,0s.14,0,.14.15v1c0,.14,0,.15-.14.15s-.47,0-1.63,0h-1v1.63h1.42c1.23,0,1.66,0,1.74,0s.14,0,.14.14v1c0,.14,0,.15-.14.15s-.51,0-1.74,0h-1a9.88,9.88,0,0,0,3.33,3.22,4.43,4.43,0,0,0-.54,1c-.09.21-.14.3-.22.3s-.14-.06-.27-.17A11.49,11.49,0,0,1,87,130c0,2.1.09,4.16.09,4.43s0,.13-.16.13H85.85c-.13,0-.14,0-.14-.13s.05-2.24.08-4.25a11.18,11.18,0,0,1-3.21,3.33c-.16.1-.24.15-.31.15s-.16-.07-.29-.28a2.75,2.75,0,0,0-.65-.74,10,10,0,0,0,4-3.68Z"/><path d="M98.66,125.84A1.1,1.1,0,0,1,97.54,127a1.08,1.08,0,0,1-1.1-1.12,1.09,1.09,0,0,1,1.1-1.11A1.12,1.12,0,0,1,98.66,125.84Zm0,5.5a1.11,1.11,0,0,1-1.12,1.12,1.12,1.12,0,0,1,0-2.23A1.12,1.12,0,0,1,98.66,131.34Z"/><path d="M106.17,133.73c0,.14,0,.16-.14.16h-.88c-.13,0-.15,0-.15-.16s0-.85,0-4.63v-2.51c0-2.52,0-3.31,0-3.39s0-.14.15-.14.31,0,1.08,0h1c.74,0,1,0,1,0s.14,0,.14.14,0,.79,0,2.89v2.78c0,3.51,0,4.21,0,4.29s0,.14-.14.14h-.83c-.13,0-.15,0-.15-.14v-.43h-1.13Zm0-9.53V126h1.13V124.2Zm1.13,4.52V127h-1.13v1.71Zm0,2.89v-1.85h-1.13v1.85Zm3.25,2.52c-1.26,0-1.7,0-1.76,0s-.15,0-.15-.14v-.93c0-.13,0-.14.15-.14s.5,0,1.76,0h1.3v-1.32h-1.07c-1.23,0-1.66,0-1.73,0s-.15,0-.15-.13v-.86c0-.14,0-.15.15-.15l.59,0v-1.51c-.55,0-.8,0-.84,0s-.14,0-.14-.13v-.88c0-.13,0-.14.14-.14l.84,0v-1.35h-.53c-.13,0-.14,0-.14-.14v-.86c0-.13,0-.15.14-.15s.51,0,1.73,0h1v-1.09c-.61.06-1.26.12-2,.15-.42,0-.4,0-.55-.39a2.49,2.49,0,0,0-.35-.67,30.16,30.16,0,0,0,5.16-.59,3,3,0,0,0,.73-.24,6.24,6.24,0,0,1,.82.78.33.33,0,0,1,.13.26c0,.09-.07.13-.27.13a5.2,5.2,0,0,0-.58.09c-.64.14-1.27.24-1.92.34v1.23h1.22c1.23,0,1.65,0,1.73,0s.14,0,.14.15v.86c0,.13,0,.14-.14.14h-.69V128c.74,0,1,0,1.1,0s.15,0,.15.14V129c0,.11,0,.13-.15.13s-.36,0-1.1,0v1.52l.61,0c.13,0,.15,0,.15.15v.86c0,.12,0,.13-.15.13s-.49,0-1.73,0h-1.14V133h1.47c1.26,0,1.7,0,1.78,0s.14,0,.14.14V134c0,.13,0,.14-.14.14s-.52,0-1.78,0Zm.21-7.54V128h1.09v-1.37Zm1.09,4v-1.52h-1.09v1.52Zm2.34-2.61v-1.37h-1.14V128Zm0,1.09h-1.14v1.52h1.14Z"/><path d="M124.13,132.6c.61-.16,1.23-.37,1.93-.61a5.92,5.92,0,0,0-.06.83c0,.43,0,.43-.38.55-1,.36-1.68.57-2.74.87a1.44,1.44,0,0,0-.43.17c-.07,0-.13.09-.21.09s-.13,0-.17-.16a8.44,8.44,0,0,1-.24-1h-.93c-.13,0-.14,0-.14-.14v-.33h-1.38v1c0,.13,0,.15-.14.15h-.95c-.13,0-.14,0-.14-.15s0-.84,0-4.6v-2.51c0-2.51,0-3.31,0-3.39s0-.16.14-.16.35,0,1.17,0h1.22c.82,0,1.08,0,1.16,0s.15,0,.15.16,0,.81,0,2.89V129c0,3,0,3.83,0,4.08.26,0,.54-.09.88-.17v-7.29c0-1.45,0-2.19,0-2.28s0-.14.14-.14.64,0,1.73,0h2.48c1,0,1.51,0,1.59,0s.14,0,.14.14,0,.43,0,1.16v1.27c0,.74,0,1.08,0,1.15s0,.14-.14.14-.55,0-1.59,0h-.32c0,.55,0,1.06.1,1.55l.78,0c1.07,0,1.46-.07,1.59-.08s.13,0,.13.14l0,.94c0,.13,0,.15-.16.15s-.5,0-1.58,0h-.67a12.59,12.59,0,0,0,.34,1.61c.31,1.06.61,1.6.9,1.6s.3-.52.32-1.58a3.37,3.37,0,0,0,.78.5c.24.12.28.17.24.56-.16,1.47-.56,2-1.3,2s-1.58-.71-2.11-2.76c-.15-.58-.27-1.21-.38-1.89l-1.76,0Zm-4.75-8.27v1.73h1.38v-1.73Zm1.38,4.49v-1.71h-1.38v1.71Zm0,2.89v-1.84h-1.38v1.84Zm6.84-7.34h-3.47v1.56h3.47ZM124.13,127v1.63l1.62,0c0-.5-.09-1-.12-1.58Z"/><path d="M133,134.76h-.82l5.29-12.37h.82Z"/><path d="M140.13,130.8a6.71,6.71,0,0,0,0-.79c.37.05.77.12,1,.17s.19.09.19.16a.35.35,0,0,1-.06.19,2.35,2.35,0,0,0-.07.46,10.84,10.84,0,0,1-.45,2.44c-.08.21-.11.3-.18.3a.6.6,0,0,1-.29-.16,2.78,2.78,0,0,0-.64-.33A8.6,8.6,0,0,0,140.13,130.8Zm3.51-3.91c.13,0,.18-.06.23.07a14.91,14.91,0,0,1,.71,2.23c0,.12,0,.16-.15.21l-.6.2c-.16.06-.2,0-.23-.11s-.06-.28-.09-.43l-.66.08v3.56c0,1.2,0,1.64,0,1.71s0,.14-.15.14h-1c-.13,0-.14,0-.14-.14s0-.51,0-1.71v-3.45c-.33,0-.65.05-1,.06a1.07,1.07,0,0,0-.49.12.36.36,0,0,1-.21,0q-.1,0-.15-.21a8.87,8.87,0,0,1-.16-1.12c.31,0,.68,0,1,0,.23-.31.45-.63.67-1a15.52,15.52,0,0,0-1.58-1.89c-.11-.07-.08-.11,0-.25l.48-.66c.09-.11.12-.11.21,0l.27.27a9.47,9.47,0,0,0,.73-1.4,4.11,4.11,0,0,0,.26-.74c.35.14.72.29,1,.44.13.07.17.13.17.21a.19.19,0,0,1-.12.17.67.67,0,0,0-.23.31c-.37.69-.69,1.26-1.08,1.85.18.2.35.41.52.63.31-.49.58-1,.86-1.48a5.53,5.53,0,0,0,.36-.79,7.6,7.6,0,0,1,1,.51c.13.07.15.11.15.19s0,.14-.14.2-.18.19-.38.5a34.56,34.56,0,0,1-2,2.85c.42,0,.86,0,1.31-.08a7.31,7.31,0,0,0-.26-.75c-.05-.14-.05-.17.12-.22Zm.21,3c.17-.05.19,0,.22.1a24.12,24.12,0,0,1,.48,2.66c0,.13,0,.16-.18.23l-.56.19c-.18.06-.21,0-.22-.13a17.09,17.09,0,0,0-.42-2.65c0-.14,0-.17.16-.22Zm2.66-4.93c-1.15,0-1.53,0-1.61,0s-.15,0-.15-.15V124c0-.14,0-.15.15-.15s.46,0,1.61,0H147a4.79,4.79,0,0,0,0-1.35c.48,0,.83,0,1.22.1.15,0,.24.08.24.15a.34.34,0,0,1-.07.17,2,2,0,0,0-.14.72l0,.21h1c1.14,0,1.54,0,1.62,0s.15,0,.15.15v.79c0,.13,0,.15-.15.15s-.48,0-1.62,0h-.7a4.79,4.79,0,0,0,2.66,1.51,3.33,3.33,0,0,0-.48.68c-.12.24-.16.35-.29.35a1.21,1.21,0,0,1-.3-.08,4.89,4.89,0,0,1-2.45-1.83,4.43,4.43,0,0,1-2.23,1.82,1,1,0,0,1-.32.07c-.1,0-.16-.07-.27-.29a2.28,2.28,0,0,0-.54-.66,3.52,3.52,0,0,0,2.33-1.57Zm3.36,2.61c1.15,0,1.57,0,1.65,0s.15,0,.15.14v.91c0,.13,0,.14-.15.14l-.94,0v2.61c0,.6,0,1.16,0,1.56,0,.68-.07,1-.41,1.24s-.65.3-1.63.3c-.41,0-.41,0-.49-.41a3.92,3.92,0,0,0-.36-.92,9.06,9.06,0,0,0,1.1.06c.36,0,.51-.09.51-.48v-4h-2.94c-1.24,0-1.65,0-1.73,0s-.16,0-.16-.14v-.91c0-.13,0-.14.16-.14s.49,0,1.73,0Zm-1.46,3.54c0,1.17,0,1.42,0,1.5s0,.15-.15.15h-.83c-.13,0-.14,0-.14-.15v-.2h-1.07V133c0,.11,0,.13-.15.13h-.85c-.13,0-.14,0-.14-.13s0-.35,0-1.76v-.69c0-.69,0-1,0-1.06s0-.15.14-.15.33,0,1.05,0h.94c.73,0,1,0,1,0s.15,0,.15.15,0,.36,0,.87Zm-2.16-.77v1.11h1.07v-1.11Z"/><path d="M163.76,125.29c0,.83,0,1,0,1s0,.15-.14.15h-.81c-.13,0-.14,0-.14-.15v-1.19h-2.43v1.18c0,.14,0,.16-.15.16h-.85v.32h3.1c1.22,0,1.64,0,1.72,0s.14,0,.14.13v.69c0,.13,0,.15-.14.15s-.5,0-1.72,0h-1.73v.6h.87c1.38,0,2.06,0,2.14,0s.14,0,.14.15,0,.28,0,.78v.53c0,.56,0,.78,0,.86s0,.13-.14.13-.76,0-2.14,0h-.67v0a.81.81,0,0,0-.06.4v.43a10.54,10.54,0,0,0,2-.51,3.3,3.3,0,0,0,.5-.27,9.3,9.3,0,0,1,.63.75.43.43,0,0,1,.08.2c0,.08-.1.13-.21.13a2.54,2.54,0,0,0-.47.09,17.87,17.87,0,0,1-2.5.57v.35c0,.27,0,.33.19.37a6.5,6.5,0,0,0,.91.06,3.19,3.19,0,0,0,1.23-.14c.17-.15.25-.37.27-.91a2.68,2.68,0,0,0,.85.32c.32.07.32.07.28.42a1.34,1.34,0,0,1-.65,1.13,5.49,5.49,0,0,1-2.06.25,6.06,6.06,0,0,1-1.81-.17c-.26-.12-.43-.39-.43-1v-2c0-.15,0-.3,0-.44h-2.67l0,.05c0,.09,0,.18,0,.46v.09h1.11c.65,0,.82,0,.9,0s.14,0,.14.15v.68c0,.15,0,.16-.14.16s-.25,0-.9,0H156.8v.84c.72-.08,1.54-.2,2.34-.37a4,4,0,0,0-.1.65c0,.42,0,.42-.42.5-1.07.22-2.1.39-3.07.5a1.54,1.54,0,0,0-.52.12.44.44,0,0,1-.24.07s-.1,0-.14-.2a9.23,9.23,0,0,1-.23-1.12,6.62,6.62,0,0,0,1.08,0h.09v-2c0-.18,0-.33,0-.49h-.83a7.3,7.3,0,0,1-.12,1,8.3,8.3,0,0,1-.85,2.47c-.09.17-.16.24-.22.24s-.13-.07-.24-.22a3.68,3.68,0,0,0-.74-.74,6.48,6.48,0,0,0,.86-2.27,16.73,16.73,0,0,0,.18-2.72c0-1,0-1.51,0-1.59s0-.13.15-.13.5,0,1.73,0H158v-.32h-.85c-.13,0-.15,0-.15-.15v-1.19h-2.39v1.18c0,.14,0,.16-.16.16h-.78c-.13,0-.14,0-.14-.16s0-.2,0-1v-.37c0-.26,0-.4,0-.49s0-.15.15-.15.36,0,1.32,0h1.6c1,0,1.25,0,1.32,0s.15,0,.15.15,0,.23,0,.44v1c.4,0,.69,0,1.09.09v-1.53c0-.13,0-.15.13-.15s.39,0,1.34,0h1.64c.93,0,1.23,0,1.31,0s.16,0,.16.15,0,.23,0,.44Zm-9-1.36c-1.06,0-1.4,0-1.47,0s-.16,0-.16-.14v-.74c0-.13,0-.13.16-.13h4.95c.13,0,.14,0,.14.13v.74c0,.13,0,.14-.14.14s-.42,0-1.47,0Zm1.95,5.94v-.72h-1.82l0,.72Zm-1.82-1.56h1.82v-.6h-1.82Zm.94-3c.13-.05.16,0,.24,0a3.67,3.67,0,0,1,.49.72c0,.1,0,.13-.08.18l-.57.26c-.14.07-.17,0-.22,0a6,6,0,0,0-.47-.77c-.07-.09-.05-.11.09-.17Zm3.72,3v-.6H157.8v.6Zm0,1.56v-.72H157.8v.72Zm1-5.94c-1.07,0-1.41,0-1.49,0s-.14,0-.14-.14v-.74c0-.13,0-.13.14-.13h5.05c.14,0,.16,0,.16.13v.74c0,.13,0,.14-.16.14s-.43,0-1.48,0Zm2,5.22h-1.91v.72h1.91Zm-1.09-3.86c.13-.05.15,0,.22,0a4.45,4.45,0,0,1,.5.69c0,.09,0,.12-.08.19l-.59.29c-.14.08-.16.06-.22-.05a4.64,4.64,0,0,0-.46-.76c-.08-.1-.06-.12.09-.19Z"/><path d="M172.29,124.89c.12,0,.17,0,.2.1a7.47,7.47,0,0,1,.11,1.06c0,.11,0,.14-.15.15-.7.15-1.34.24-2.15.35a36,36,0,0,1-2.53,5.58c-.05.09-.09.13-.15.13a.51.51,0,0,1-.15-.06,6.58,6.58,0,0,1-.9-.67c-.06-.05-.09-.09-.09-.14a.23.23,0,0,1,.07-.16,26,26,0,0,0,2.24-4.53c-.49,0-.89,0-1.3,0h-.71c-.13,0-.16,0-.18-.21a5.61,5.61,0,0,1-.13-1.1c.53,0,.83,0,1.21,0a13.4,13.4,0,0,0,1.49-.07,14.16,14.16,0,0,0,.34-1.45,5,5,0,0,0,.08-1.06,11.61,11.61,0,0,1,1.52.28c.13,0,.21.1.21.19a.32.32,0,0,1-.12.25,1.38,1.38,0,0,0-.21.48c-.09.31-.19.72-.31,1.11A14.68,14.68,0,0,0,172.29,124.89Zm.37,3.48a4.91,4.91,0,0,0-.11-.92,7.34,7.34,0,0,1,1.42.25.19.19,0,0,1,.18.21,2.73,2.73,0,0,1-.08.27,1.45,1.45,0,0,0,0,.53,17.6,17.6,0,0,0,.14,2.21,10.33,10.33,0,0,1,2.34,1.21c.13.09.15.14.08.27a7.55,7.55,0,0,1-.6,1.06c0,.06-.07.09-.11.09s-.08,0-.13-.08a10.3,10.3,0,0,0-1.59-1.09c0,1.3-.94,1.9-2.42,1.9s-2.39-.73-2.39-1.85.94-1.9,2.41-1.9a7.39,7.39,0,0,1,1,.08C172.69,129.78,172.67,129,172.66,128.37Zm-.93,3.28c-.65,0-1.15.26-1.15.75s.36.63,1.1.63,1.13-.38,1.13-.93a2,2,0,0,0,0-.26A3.41,3.41,0,0,0,171.73,131.65Zm2.42-6.25c.08-.13.14-.15.27-.09a9.58,9.58,0,0,1,2.55,1.22c.08,0,.12.09.12.14a.32.32,0,0,1-.05.16,8.45,8.45,0,0,1-.55,1q-.06.09-.12.09s-.06,0-.11,0a11.64,11.64,0,0,0-2.69-1.42C173.79,126,174,125.63,174.15,125.4Z"/><path d="M183.43,131.18c0,1.2.52,1.67,1.73,1.67,1.52,0,2.37-.59,2.37-1.76a3.13,3.13,0,0,0-1.17-2.37,4.19,4.19,0,0,0,1.32-.07.29.29,0,0,1,.28,0,3.41,3.41,0,0,1,1.1,2.44c0,1.85-1.51,3-3.74,3s-3.28-1-3.28-2.93c0-.28,0-.64.09-1.23a9.36,9.36,0,0,1-1.77-.39c-.09,0-.13-.09-.14-.24a7,7,0,0,1,0-1.21,8.45,8.45,0,0,0,2.1.51c.07-.49.17-1.33.22-1.86a9.07,9.07,0,0,1-1.87-.37c-.16,0-.21-.1-.21-.22,0-.31,0-.74,0-1.21a10.38,10.38,0,0,0,2.36.5c.1-.76.14-1.11.17-1.5a6.59,6.59,0,0,0,0-1.09,8.29,8.29,0,0,1,1.56.36c.18.07.29.19.29.3a.38.38,0,0,1-.11.25,1.31,1.31,0,0,0-.23.56c-.06.3-.14.74-.21,1.22a7.22,7.22,0,0,0,1.6-.08c.09,0,.13.07.13.16a7.81,7.81,0,0,1,0,1c0,.15-.06.19-.21.2a12.51,12.51,0,0,1-1.73.06c-.08.46-.21,1.34-.29,1.86.69,0,1.22,0,1.85,0,.17,0,.21,0,.21.15a8.51,8.51,0,0,1-.07,1c0,.16-.05.21-.18.21-.65,0-1.33,0-2,0A9.2,9.2,0,0,0,183.43,131.18Z"/><path d="M198.49,125.54a16.24,16.24,0,0,1-1.63,5.6,2.46,2.46,0,0,1-2.21,1.5c-1.14,0-2.3-1.22-2.3-3.34a4.76,4.76,0,0,1,1.47-3.38,5.66,5.66,0,0,1,4.22-1.67c3.12,0,5,1.93,5,4.51,0,2.42-1.37,3.94-4,4.74-.27.07-.39,0-.56-.24a2.69,2.69,0,0,0-.91-.82c2.2-.52,3.93-1.43,3.93-3.88a3,3,0,0,0-2.91-3Zm-3.73,1.26a3.71,3.71,0,0,0-1,2.41c0,1.19.48,1.85.89,1.85s.62-.16,1-.79a14.82,14.82,0,0,0,1.38-4.65A3.86,3.86,0,0,0,194.76,126.8Z"/><path d="M212.06,131.64c0,.14-.08.2-.25.23a6.26,6.26,0,0,1-.92.07c-.12,0-.17-.08-.17-.21,0-.47,0-1.12,0-1.59-1.15.6-1.57,1.11-1.57,1.73s.44.9,1.81.9a22.6,22.6,0,0,0,3.23-.26c.12,0,.17,0,.19.14a6.36,6.36,0,0,1,.11,1.07c0,.15,0,.24-.14.24a22.06,22.06,0,0,1-3.22.17c-2.14,0-3.27-.63-3.27-2.14,0-1.25.78-2.16,2.75-3.17,0-.67-.2-.93-.78-.9a3.14,3.14,0,0,0-1.8.93c-.56.55-.88.93-1.3,1.42-.06.08-.1.12-.15.12a.27.27,0,0,1-.15-.09,6.48,6.48,0,0,1-.74-.86.19.19,0,0,1,0-.12s0-.09.09-.14a13.49,13.49,0,0,0,2.72-3.22c-.61,0-1.32,0-2.08,0-.12,0-.16-.06-.18-.2s-.1-.69-.13-1.08a27.13,27.13,0,0,0,3,0,10.81,10.81,0,0,0,.39-1.11,3.33,3.33,0,0,0,.09-.8,8.13,8.13,0,0,1,1.48.37.23.23,0,0,1,.15.22.23.23,0,0,1-.09.19,1.47,1.47,0,0,0-.22.32c-.07.18-.14.35-.3.7a18.93,18.93,0,0,0,2.37-.41c.14,0,.18,0,.21.13a5.32,5.32,0,0,1,.13.94c0,.13,0,.18-.22.21-1,.14-2.1.28-3.05.39a12.12,12.12,0,0,1-1,1.44v0a2.55,2.55,0,0,1,1.3-.41,1.44,1.44,0,0,1,1.59,1.41c.51-.24,1.25-.57,1.91-.91a4.15,4.15,0,0,0,1-.7,8.43,8.43,0,0,1,.91,1.14.5.5,0,0,1,.1.29c0,.1-.06.15-.19.18a4.24,4.24,0,0,0-.8.19c-.84.3-1.69.59-2.79,1Z"/><path d="M225.54,132.52c0,.3.06.39.23.43a4.69,4.69,0,0,0,1,.06,2.72,2.72,0,0,0,1.12-.16c.2-.16.31-.51.32-1.38a4.18,4.18,0,0,0,1,.45c.32.12.32.12.29.44-.08.91-.25,1.25-.62,1.51a4,4,0,0,1-2.17.39,6.4,6.4,0,0,1-2-.18.85.85,0,0,1-.53-.92v-2.69H223a4.67,4.67,0,0,1-4,4,1.23,1.23,0,0,1-.28,0c-.13,0-.17-.07-.3-.33a3,3,0,0,0-.63-.84c2.3-.29,3.51-1.25,3.77-2.87h0c-1.26,0-1.68,0-1.75,0s-.16,0-.16-.14,0-.57,0-1.59v-3.88c0-1,0-1.52,0-1.62s0-.14.16-.14.52,0,1.78,0h4.18c1.25,0,1.69,0,1.78,0s.15,0,.15.14,0,.58,0,1.62v3.88c0,1,0,1.51,0,1.59s0,.14-.15.14-.53,0-1.78,0h-.23ZM221,124.33v1h5.3v-1Zm5.3,3v-.93H221v.93Zm0,1.09H221v1h5.3Z"/><path d="M235.85,128.06a4,4,0,0,1,2.07-.58,3,3,0,0,1,3.22,3.12c0,2.17-1.76,3.56-4.54,3.56-1.64,0-2.62-.7-2.62-1.91a1.73,1.73,0,0,1,1.83-1.59,2.36,2.36,0,0,1,2.44,1.9,2,2,0,0,0,1.33-2,1.9,1.9,0,0,0-2-2,5.28,5.28,0,0,0-3.33,1.38c-.38.34-.74.71-1.13,1.1-.09.09-.16.15-.22.15a.34.34,0,0,1-.2-.12,5.08,5.08,0,0,1-.76-.85c-.08-.1,0-.19.06-.29a30,30,0,0,0,3.08-2.88c.81-.83,1.42-1.48,2-2.22-.78.14-1.71.32-2.51.49a4,4,0,0,0-.55.16.76.76,0,0,1-.26.06.28.28,0,0,1-.28-.22A5.69,5.69,0,0,1,233,124a7,7,0,0,0,1.21,0c.79-.08,1.94-.25,2.95-.45a3.49,3.49,0,0,0,.72-.19.64.64,0,0,1,.24-.11.44.44,0,0,1,.3.11,5,5,0,0,1,.87.83.45.45,0,0,1,.15.31.34.34,0,0,1-.22.31,2.38,2.38,0,0,0-.58.42c-.95.92-1.82,1.83-2.8,2.78Zm0,3.71c-.38,0-.62.22-.62.49s.35.68,1.13.68a2.84,2.84,0,0,0,.6-.06C236.8,132.17,236.41,131.77,235.86,131.77Z"/><path d="M72.58,158.22a2.08,2.08,0,0,0,1-.12.27.27,0,0,1,.16-.06.57.57,0,0,1,.24.11,5.71,5.71,0,0,1,.91,1,.45.45,0,0,1,.07.19.4.4,0,0,1-.19.28,2.43,2.43,0,0,0-.51.61,21.61,21.61,0,0,1-1.8,2.62,33.38,33.38,0,0,1,3.88,3.39.26.26,0,0,1,0,.41,7.65,7.65,0,0,1-.94,1,.24.24,0,0,1-.17.09.31.31,0,0,1-.2-.12,25,25,0,0,0-3.64-3.47,20.45,20.45,0,0,1-4.7,3.7,1.06,1.06,0,0,1-.33.11.29.29,0,0,1-.23-.13,4.17,4.17,0,0,0-1.18-.91,17.47,17.47,0,0,0,7.56-7.08H68.88c-.73,0-1.46,0-2.21.08-.12,0-.16-.08-.19-.23a8.33,8.33,0,0,1-.12-1.46c.75.05,1.45.05,2.37.05Z"/><path d="M81.94,163.63a11.05,11.05,0,0,0-2.06.17c-.17,0-.28-.08-.32-.29a16.47,16.47,0,0,1-.21-1.7,17.93,17.93,0,0,0,3,.17h4.52c1.06,0,2.14,0,3.22,0,.21,0,.25,0,.25.19a9.69,9.69,0,0,1,0,1.32c0,.17-.06.22-.25.21l-3.13,0Z"/><path d="M95.55,161.55a6.92,6.92,0,0,0,.63-2.08,14.3,14.3,0,0,1,1.74.72.23.23,0,0,1,.16.22.38.38,0,0,1-.14.28,2.81,2.81,0,0,0-.49.86,15.33,15.33,0,0,1-3,4.7.55.55,0,0,1-.4.21.46.46,0,0,1-.32-.14,3.91,3.91,0,0,0-1.23-.6A12.42,12.42,0,0,0,95.55,161.55Zm5.24-1.91a.3.3,0,0,1,.19-.08.26.26,0,0,1,.21.11,17.46,17.46,0,0,1,3.52,5.14.35.35,0,0,1,.06.19.29.29,0,0,1-.14.23,9,9,0,0,1-1.17.74c-.18.08-.28.06-.33-.13a18.58,18.58,0,0,0-3.46-5.44C100.17,160.06,100.55,159.79,100.79,159.64Zm4.72-.95a1.52,1.52,0,0,1-3,0,1.48,1.48,0,0,1,1.52-1.5A1.49,1.49,0,0,1,105.51,158.69Zm-2.34,0a.83.83,0,1,0,.83-.83A.8.8,0,0,0,103.17,158.69Z"/><path d="M109.94,163.63a11.05,11.05,0,0,0-2.06.17c-.17,0-.28-.08-.32-.29a16.47,16.47,0,0,1-.21-1.7,17.93,17.93,0,0,0,3,.17h4.52c1.06,0,2.14,0,3.22,0,.21,0,.25,0,.25.19a9.69,9.69,0,0,1,0,1.32c0,.17-.06.22-.25.21l-3.13,0Z"/><path d="M124.24,163c.12.09.21.17.21.27s0,.14-.16.22a1.42,1.42,0,0,0-.35.48,10.93,10.93,0,0,1-1.55,2.34.41.41,0,0,1-.28.17.37.37,0,0,1-.21-.09,4.3,4.3,0,0,0-1.2-.59,9.1,9.1,0,0,0,1.7-2.31,3,3,0,0,0,.38-1.13A7,7,0,0,1,124.24,163Zm1.86-3.85a10.51,10.51,0,0,0-.16-2.16c.66.06,1.39.14,1.74.21.17,0,.25.1.25.21a.51.51,0,0,1-.08.26,3.17,3.17,0,0,0-.14,1.4v.74h1.72c1.22,0,2.17-.06,2.86-.08.12,0,.18.07.18.22a7.93,7.93,0,0,1,0,1.09c0,.18-.06.28-.2.27-.87,0-1.93-.07-2.88-.07h-1.66l0,2.83c0,.74,0,1.34,0,2.44a1.47,1.47,0,0,1-.82,1.44,4.35,4.35,0,0,1-1.79.46c-.17,0-.26-.08-.34-.29a3.29,3.29,0,0,0-.94-1.26,7.11,7.11,0,0,0,1.91-.17c.22-.1.32-.25.32-.62v-4.83h-2.2c-.8,0-1.77,0-2.42.1-.13,0-.19-.12-.19-.28s-.05-.89-.05-1.35c1.06.09,1.92.1,2.63.1h2.23Zm4.12,3.35a.24.24,0,0,1,.18-.07.27.27,0,0,1,.21.12,10.82,10.82,0,0,1,2,2.57.33.33,0,0,1,.07.21.27.27,0,0,1-.14.22,7.66,7.66,0,0,1-.94.7c-.07.05-.12.09-.17.09s-.09,0-.15-.14a13,13,0,0,0-2.13-2.94C129.53,163,129.89,162.78,130.22,162.54Zm.16-5.52c.07-.06.13,0,.21,0a6,6,0,0,1,1.33,1.5.13.13,0,0,1,0,.22l-.59.44c-.09.07-.16,0-.23-.05a7,7,0,0,0-1.42-1.62Zm1.25-.91c.08-.06.13,0,.21,0a5.8,5.8,0,0,1,1.33,1.44.16.16,0,0,1,0,.25l-.56.44c-.11.08-.18,0-.24-.05a6.87,6.87,0,0,0-1.4-1.61Z"/><path d="M137.94,163.63a11.05,11.05,0,0,0-2.06.17c-.17,0-.28-.08-.32-.29a16.47,16.47,0,0,1-.21-1.7,17.93,17.93,0,0,0,3,.17h4.52c1.06,0,2.14,0,3.22,0,.21,0,.25,0,.25.19a9.69,9.69,0,0,1,0,1.32c0,.17-.06.22-.25.21l-3.13,0Z"/><path d="M153.2,159.08c.24.07.27.24.18.43a2.09,2.09,0,0,0-.16,1,10.49,10.49,0,0,1-.76,4.11,7.25,7.25,0,0,1-2,2.64.64.64,0,0,1-.36.18.47.47,0,0,1-.27-.11,4.89,4.89,0,0,0-1.19-.59,7,7,0,0,0,2.32-2.79,8.92,8.92,0,0,0,.59-4,3.86,3.86,0,0,0-.14-1.18A11.6,11.6,0,0,1,153.2,159.08Zm3.11,5.92a15.09,15.09,0,0,0,4.44-3.68,4.17,4.17,0,0,0,.44,1.42.63.63,0,0,1,.08.23c0,.1-.06.2-.21.35a18.23,18.23,0,0,1-2.07,1.84,24.57,24.57,0,0,1-2.5,1.68c-.25.17-.28.2-.4.29a.46.46,0,0,1-.28.12.61.61,0,0,1-.3-.12,4,4,0,0,1-.84-.85.59.59,0,0,1-.12-.29.49.49,0,0,1,0-.22c.1-.18.09-.35.09-1.06v-4.38a11.19,11.19,0,0,0-.14-2.44,14.49,14.49,0,0,1,1.75.29c.18,0,.25.13.25.24a.86.86,0,0,1-.11.35,3.8,3.8,0,0,0-.13,1.56Z"/><path d="M168,157c.17,0,.25.11.25.22s-.1.4-.1.59,0,.62.07.94a21,21,0,0,0,.45,2.41l2-1.06a3.56,3.56,0,0,0,1-.76,7.26,7.26,0,0,1,1,1.32.59.59,0,0,1,.1.29c0,.14-.09.25-.28.28a6.94,6.94,0,0,0-1.35.42,19.79,19.79,0,0,0-3.29,1.64c-1.22.8-1.65,1.46-1.65,2.11,0,.83.61,1.18,2.22,1.18a24.18,24.18,0,0,0,4.28-.32c.15,0,.22,0,.25.17a12.94,12.94,0,0,1,.14,1.3c0,.15-.09.22-.25.24a29.77,29.77,0,0,1-4.18.21c-2.64,0-4-.87-4-2.69,0-1.56,1-2.58,2.67-3.62a20.54,20.54,0,0,1-.73-3.41,6.18,6.18,0,0,0-.37-1.63A7.89,7.89,0,0,1,168,157Z"/><path d="M181,158.37a9.7,9.7,0,0,0,.14-1.56,9.82,9.82,0,0,1,1.68.46.28.28,0,0,1,.12.49,1.74,1.74,0,0,0-.28.54c-.18.57-.32,1.09-.5,1.68a8.8,8.8,0,0,1,1.09-.06c1.32,0,2,.9,2,2.59a12.2,12.2,0,0,1-.75,4.5,2,2,0,0,1-1.89,1.31,4.54,4.54,0,0,1-1.39-.15.36.36,0,0,1-.25-.39,3.83,3.83,0,0,0-.27-1.3,4.35,4.35,0,0,0,1.54.3c.46,0,.67-.16.9-.74a10.84,10.84,0,0,0,.55-3.47c0-1-.19-1.31-.8-1.31a10.63,10.63,0,0,0-1.18.1A38.55,38.55,0,0,1,178.9,168c-.08.18-.19.21-.36.12a6.44,6.44,0,0,1-1-.61.25.25,0,0,1,0-.37,29.33,29.33,0,0,0,2.56-5.49c-.55.08-1,.17-1.37.24a4,4,0,0,0-.77.22c-.2.07-.37,0-.45-.18a11.57,11.57,0,0,1-.43-1.44c.61,0,1.23,0,1.84-.1s1.11-.13,1.66-.21C180.78,159.33,180.88,158.84,181,158.37Zm5.7.93c.1-.05.17,0,.26.07a9.32,9.32,0,0,1,2.33,3.41.2.2,0,0,1-.06.28,5.65,5.65,0,0,1-1.05.7c-.14.07-.28.05-.32-.11a9.39,9.39,0,0,0-2.3-3.63A12.17,12.17,0,0,1,186.68,159.3Z"/><path d="M192.74,162.75c-1.28,0-1.7,0-1.8,0s-.15,0-.15-.17v-1.09c0-.14,0-.16.15-.16s.52,0,1.8,0H196V158a11.93,11.93,0,0,0-.09-1.7,12.66,12.66,0,0,1,1.53.11c.14,0,.21.08.21.18a.56.56,0,0,1-.1.29,3.37,3.37,0,0,0-.08,1.12v3.38h3.57c1.28,0,1.71,0,1.79,0s.14,0,.14.16v1.09c0,.15,0,.17-.14.17s-.51,0-1.79,0h-2.2v3.78c0,.42,0,.62.14.76s.34.18,1,.18,1-.08,1.22-.28.31-.69.32-1.68a2.77,2.77,0,0,0,1.07.43c.36.09.37.09.33.44a2.77,2.77,0,0,1-.61,1.87c-.43.4-1,.59-2.44.59-1.26,0-1.84-.11-2.15-.45s-.36-.75-.36-1.56v-4.08h-1.53c-.11,3.07-1.09,5.1-4.13,6.16a1.51,1.51,0,0,1-.31.07c-.12,0-.18-.08-.32-.35a3.25,3.25,0,0,0-.7-.89c2.8-.77,3.88-2.08,4-5Zm.25-5.55c.15-.08.19-.08.26,0a13,13,0,0,1,1.57,2.72c.06.14.05.15-.14.26l-.93.49c-.19.1-.23.09-.29,0a11.89,11.89,0,0,0-1.49-2.73c-.09-.12-.07-.16.09-.24Zm7.2.46a2.46,2.46,0,0,0,.19-.58,7.72,7.72,0,0,1,1.33.63c.13.07.16.11.16.18s0,.11-.14.21a1.2,1.2,0,0,0-.25.36,21,21,0,0,1-1.36,2.16c-.14.2-.23.28-.31.28a.74.74,0,0,1-.34-.17,8,8,0,0,0-.91-.47A13.19,13.19,0,0,0,200.19,157.66Z"/><path d="M210,162.09a4.23,4.23,0,0,1,2.23-.63,3.24,3.24,0,0,1,3.47,3.36c0,2.34-1.89,3.84-4.88,3.84-1.77,0-2.83-.76-2.83-2.06a1.86,1.86,0,0,1,2-1.71,2.56,2.56,0,0,1,2.64,2.05,2.11,2.11,0,0,0,1.42-2.13,2,2,0,0,0-2.2-2.12,5.67,5.67,0,0,0-3.58,1.49c-.41.36-.8.77-1.22,1.19-.1.1-.17.15-.24.15a.38.38,0,0,1-.21-.12,7,7,0,0,1-.82-.91c-.09-.12,0-.21.07-.33a35.55,35.55,0,0,0,3.32-3.09c.86-.9,1.52-1.6,2.17-2.4-.84.16-1.84.35-2.71.54a4.31,4.31,0,0,0-.58.16,1.14,1.14,0,0,1-.28.07.31.31,0,0,1-.31-.23,6.51,6.51,0,0,1-.49-1.52,6.28,6.28,0,0,0,1.3,0c.85-.08,2.09-.27,3.18-.48a3.71,3.71,0,0,0,.77-.21.81.81,0,0,1,.26-.11.5.5,0,0,1,.33.11,5.88,5.88,0,0,1,.94.9.49.49,0,0,1,.15.34.36.36,0,0,1-.24.33,2.07,2.07,0,0,0-.61.45c-1,1-2,2-3,3Zm0,4c-.41,0-.67.24-.67.54s.37.72,1.21.72a3.24,3.24,0,0,0,.65-.05C211,166.52,210.62,166.08,210,166.08Z"/><path d="M69.57,190c0,1.29.56,1.8,1.86,1.8,1.64,0,2.55-.63,2.55-1.9a3.41,3.41,0,0,0-1.26-2.55,4.31,4.31,0,0,0,1.43-.08.31.31,0,0,1,.29.06,3.65,3.65,0,0,1,1.19,2.63c0,2-1.62,3.28-4,3.28s-3.53-1.12-3.53-3.17c0-.29,0-.68.09-1.31a12.12,12.12,0,0,1-1.9-.42c-.1,0-.14-.1-.15-.27a7.06,7.06,0,0,1,0-1.3,8.49,8.49,0,0,0,2.27.54c.07-.51.18-1.43.23-2a10.13,10.13,0,0,1-2-.39c-.17,0-.23-.11-.23-.24,0-.34,0-.8,0-1.3a12,12,0,0,0,2.54.53c.11-.81.15-1.19.18-1.61a6.64,6.64,0,0,0,0-1.18,9.39,9.39,0,0,1,1.68.39c.19.07.3.2.3.33a.4.4,0,0,1-.11.26,1.32,1.32,0,0,0-.25.6c-.07.33-.15.8-.22,1.32a8.36,8.36,0,0,0,1.72-.08c.1,0,.14.07.14.17a7.37,7.37,0,0,1,0,1.05c0,.15,0,.19-.22.21a14.62,14.62,0,0,1-1.87.07c-.08.49-.22,1.44-.3,2,.74,0,1.31,0,2,0,.19,0,.23,0,.23.15a9.91,9.91,0,0,1-.07,1.05c0,.17-.06.23-.2.23-.7.05-1.43.05-2.14,0A8.35,8.35,0,0,0,69.57,190Z"/><path d="M85.78,183.87a17.46,17.46,0,0,1-1.75,6,2.66,2.66,0,0,1-2.38,1.61c-1.24,0-2.48-1.31-2.48-3.6a5.16,5.16,0,0,1,1.58-3.64,6.12,6.12,0,0,1,4.55-1.79c3.36,0,5.34,2.07,5.34,4.86,0,2.6-1.47,4.24-4.31,5.1-.3.08-.42,0-.61-.26a3,3,0,0,0-1-.88c2.37-.56,4.23-1.54,4.23-4.19a3.19,3.19,0,0,0-3.14-3.25Zm-4,1.36a4.06,4.06,0,0,0-1.09,2.59c0,1.29.51,2,1,2s.67-.19,1-.86a15.66,15.66,0,0,0,1.48-5A4.2,4.2,0,0,0,81.76,185.23Z"/><path d="M98,181.52c.17,0,.25.11.25.22s-.1.4-.1.59,0,.62.07.94a21,21,0,0,0,.45,2.41l2-1.06a3.56,3.56,0,0,0,1-.76,7.26,7.26,0,0,1,1,1.32.59.59,0,0,1,.1.29c0,.14-.09.25-.28.28a6.94,6.94,0,0,0-1.35.42,19.79,19.79,0,0,0-3.29,1.64c-1.22.8-1.65,1.46-1.65,2.11,0,.83.61,1.18,2.22,1.18a24.18,24.18,0,0,0,4.28-.32c.15,0,.22,0,.25.17a12.94,12.94,0,0,1,.14,1.3c0,.15-.09.22-.25.24a29.77,29.77,0,0,1-4.18.21c-2.64,0-4-.87-4-2.69,0-1.56,1-2.58,2.67-3.62a20.54,20.54,0,0,1-.73-3.41,6.18,6.18,0,0,0-.37-1.63A7.89,7.89,0,0,1,98,181.52Z"/><path d="M111,182.87a9.7,9.7,0,0,0,.14-1.56,9.82,9.82,0,0,1,1.68.46.28.28,0,0,1,.12.49,1.74,1.74,0,0,0-.28.54c-.18.57-.32,1.09-.5,1.68a8.8,8.8,0,0,1,1.09-.06c1.32,0,2,.9,2,2.59a12.2,12.2,0,0,1-.75,4.5,2,2,0,0,1-1.89,1.31,4.54,4.54,0,0,1-1.39-.15.36.36,0,0,1-.25-.39,3.83,3.83,0,0,0-.27-1.3,4.35,4.35,0,0,0,1.54.3c.46,0,.67-.16.9-.74a10.84,10.84,0,0,0,.55-3.47c0-1-.19-1.31-.8-1.31a10.63,10.63,0,0,0-1.18.1,38.55,38.55,0,0,1-2.82,6.59c-.08.18-.19.21-.36.12a6.44,6.44,0,0,1-1-.61.25.25,0,0,1,0-.37,29.33,29.33,0,0,0,2.56-5.49c-.55.08-1,.17-1.37.24a4,4,0,0,0-.77.22c-.2.07-.37,0-.45-.18a11.57,11.57,0,0,1-.43-1.44c.61,0,1.23,0,1.84-.1s1.11-.13,1.66-.21C110.78,183.83,110.88,183.34,111,182.87Zm5.7.93c.1-.05.17,0,.26.07a9.32,9.32,0,0,1,2.33,3.41.2.2,0,0,1-.06.28,5.65,5.65,0,0,1-1,.7c-.14.07-.28.05-.32-.11a9.39,9.39,0,0,0-2.3-3.63A12.17,12.17,0,0,1,116.68,183.8Z"/><path d="M124.79,182.87a8.6,8.6,0,0,0,.15-1.56,10.08,10.08,0,0,1,1.68.46.28.28,0,0,1,.12.49,1.74,1.74,0,0,0-.28.54c-.18.57-.32,1.09-.5,1.68a9,9,0,0,1,1.12-.06c1.3,0,2,.91,2,2.7a12.08,12.08,0,0,1-.75,4.39,2,2,0,0,1-1.9,1.31,3.69,3.69,0,0,1-1.45-.21.37.37,0,0,1-.25-.39,4.08,4.08,0,0,0-.27-1.3,3.78,3.78,0,0,0,1.61.36c.46,0,.67-.16.9-.74a10.91,10.91,0,0,0,.54-3.49c0-1-.18-1.29-.8-1.29a10.47,10.47,0,0,0-1.17.1,39.36,39.36,0,0,1-2.82,6.59c-.08.18-.19.21-.36.12a6.44,6.44,0,0,1-1-.61.29.29,0,0,1-.11-.21.23.23,0,0,1,.06-.16,30,30,0,0,0,2.56-5.49c-.55.08-1,.17-1.37.24a4,4,0,0,0-.77.22c-.2.07-.37,0-.45-.18a13.22,13.22,0,0,1-.44-1.44c.62,0,1.24,0,1.85-.1s1.11-.13,1.65-.21A17.94,17.94,0,0,0,124.79,182.87Zm5.55.93c.1-.05.17,0,.27.07a9.43,9.43,0,0,1,2.32,3.41.2.2,0,0,1-.05.28,6,6,0,0,1-1,.7c-.14.07-.28.05-.33-.11a9.37,9.37,0,0,0-2.29-3.63A12,12,0,0,1,130.34,183.8Zm.38-2c.07-.05.13,0,.21,0a6.4,6.4,0,0,1,1.33,1.5.13.13,0,0,1,0,.22l-.59.44a.15.15,0,0,1-.24,0,7,7,0,0,0-1.41-1.63Zm1.25-.91c.08-.05.12,0,.21,0a5.8,5.8,0,0,1,1.33,1.44c.05.09.07.17,0,.25l-.56.44c-.12.08-.19,0-.24,0a6.49,6.49,0,0,0-1.4-1.61Z"/><path d="M134.59,183.85c0-.14,0-.16.14-.16s.44,0,1.45,0c.11-.52.21-1,.29-1.58a8.36,8.36,0,0,0,.1-1.32,7.37,7.37,0,0,1,1.41.2c.14,0,.23.08.23.16a.62.62,0,0,1-.13.3,1.53,1.53,0,0,0-.21.66c-.1.54-.18,1.07-.28,1.58h.7c1.11,0,1.49,0,1.57,0s.18,0,.17.18c0,.41-.07.77-.09,1a13.22,13.22,0,0,1-1.09,4.51,14.61,14.61,0,0,1,1.4,1.12c.1.07.09.13,0,.28l-.56.91c-.06.09-.1.11-.14.11s-.06,0-.11-.07a16.55,16.55,0,0,0-1.25-1.13,9.11,9.11,0,0,1-2.47,2.44.71.71,0,0,1-.33.16c-.1,0-.16-.09-.3-.3a3.09,3.09,0,0,0-.66-.76,7.73,7.73,0,0,0,2.62-2.37c-.35-.24-.71-.46-1-.66l-.18.42c-.08.19-.11.2-.33.1l-.72-.32c-.15-.07-.22-.08-.22-.15a.63.63,0,0,1,.08-.21,27.57,27.57,0,0,0,1.29-4l-1.18,0c-.12,0-.14,0-.14-.15Zm2.72,1.12a27,27,0,0,1-.84,2.94c.41.22.81.46,1.23.73a10.94,10.94,0,0,0,.87-3.67Zm4.72,2.88c-1.29,0-1.74,0-1.81,0s-.16,0-.16-.14v-1.11c0-.14,0-.15.16-.15s.52,0,1.81,0H143a10.79,10.79,0,0,0-.11-1.82l.52,0a12.6,12.6,0,0,0,1.55-1.8h-2.55c-1.22,0-1.62,0-1.71,0s-.15,0-.15-.16V181.7c0-.15,0-.17.15-.17s.49,0,1.71,0h3.17a.49.49,0,0,0,.25,0,.39.39,0,0,1,.18-.06c.11,0,.25,0,.59.37s.45.49.45.61a.25.25,0,0,1-.14.24,2.19,2.19,0,0,0-.52.59,19.14,19.14,0,0,1-1.91,2.17,8,8,0,0,0,0,.82v.25h1c1.31,0,1.74,0,1.83,0s.15,0,.15.15v1.11c0,.13,0,.14-.15.14s-.52,0-1.83,0h-1v1.53c0,1,0,1.6,0,2.1,0,.83-.15,1.19-.49,1.47s-.78.36-2.11.36c-.44,0-.44,0-.52-.42a3.18,3.18,0,0,0-.46-1.06,12.79,12.79,0,0,0,1.54.08c.38,0,.56-.21.56-.64v-3.42Z"/><path d="M153.44,182.25a3.64,3.64,0,0,0-.49-.9,9.65,9.65,0,0,1,1.69-.15c.2,0,.31.11.31.25s0,.18,0,.27a2.49,2.49,0,0,0,.06.42c.1.36.14.49.22.73a23.39,23.39,0,0,0,2.86-.75c.13-.05.2,0,.24.07.08.27.18.66.24.94a.21.21,0,0,1-.17.25c-.94.3-1.79.51-2.75.72.13.35.31.78.5,1.17a15.84,15.84,0,0,0,2.54-.72c.14-.07.21-.05.26.08a6,6,0,0,1,.25.92c0,.13,0,.2-.11.26a18.68,18.68,0,0,1-2.37.68,10.56,10.56,0,0,0,1.83,2.43c.14.12.14.18.07.33a4.21,4.21,0,0,1-.57.87c-.08.1-.14.14-.22.14a.4.4,0,0,1-.2-.08,3.09,3.09,0,0,0-.83-.45,6.77,6.77,0,0,0-2.63-.45c-1.32,0-2.09.41-2.09,1.06,0,.92,1.19,1.21,3.34,1.21.52,0,1-.06,1.54-.08.14,0,.18.07.17.18a10.82,10.82,0,0,1-.28,1.27c0,.14-.1.2-.3.21s-.66,0-1,0c-3.22,0-4.93-.91-4.93-2.63,0-1.5,1.29-2.44,3.48-2.44a6.58,6.58,0,0,1,2.4.35,16.2,16.2,0,0,1-1.16-1.65,32.05,32.05,0,0,1-3.84.42.22.22,0,0,1-.25-.19,7.37,7.37,0,0,1-.25-1.15,24.77,24.77,0,0,0,3.77-.35l-.53-1.17a23.24,23.24,0,0,1-3.41.34c-.17,0-.25-.06-.28-.2s-.14-.67-.22-1.12a23.46,23.46,0,0,0,3.49-.22C153.66,182.84,153.58,182.6,153.44,182.25Z"/><path d="M169.74,184.06c-1.71.32-3.21.61-4.71.92-.53.13-.67.15-.88.22a.74.74,0,0,1-.31.12.35.35,0,0,1-.27-.21,9.85,9.85,0,0,1-.51-1.52,18.12,18.12,0,0,0,2.22-.23c1.73-.26,4.81-.72,8.42-1.2.21,0,.28.06.3.16a7.52,7.52,0,0,1,.15,1.23c0,.17-.08.21-.27.21a6.08,6.08,0,0,0-1.71.31c-2.38.81-3.57,2.45-3.57,4.13s1.29,2.79,3.73,2.94c.22,0,.31.06.31.21a4.9,4.9,0,0,1-.16,1.21c0,.21-.1.29-.26.29-2.47,0-5.17-1.41-5.17-4.33a5.07,5.07,0,0,1,2.69-4.44Zm2.77,1.51c.07-.06.13,0,.21,0a6.35,6.35,0,0,1,1.33,1.49.14.14,0,0,1,0,.23l-.59.43a.15.15,0,0,1-.24,0,7.18,7.18,0,0,0-1.41-1.62Zm1.25-.91c.08-.06.12,0,.21,0a5.8,5.8,0,0,1,1.33,1.44.16.16,0,0,1,0,.25l-.56.43c-.12.09-.19.05-.24,0a6.87,6.87,0,0,0-1.4-1.61Z"/><path d="M182.81,182.12a4.18,4.18,0,0,0-.17-1,13.53,13.53,0,0,1,1.64.2c.24,0,.4.14.4.26a.64.64,0,0,1-.13.32,1.39,1.39,0,0,0-.11.41c0,.18,0,.36,0,.9,1.51-.06,3-.07,4.3-.07.17,0,.2,0,.21.21,0,.35,0,.71,0,1.06,0,.16-.07.2-.24.18-1.46,0-2.81,0-4.27,0,0,.85,0,1.75,0,2.6a4.4,4.4,0,0,1,.21,1.39,5.23,5.23,0,0,1-2.49,4.52,1.28,1.28,0,0,1-.55.27.83.83,0,0,1-.42-.21,3,3,0,0,0-1.06-.56,4.68,4.68,0,0,0,2.87-3.08,1.63,1.63,0,0,1-1.32.56,1.94,1.94,0,0,1-1.94-2.15,2,2,0,0,1,2.11-2.1,1.79,1.79,0,0,1,1.07.28c0-.49,0-1,0-1.43-1.76.1-3.74.27-4.84.42-.31.05-.54.17-.66.17s-.2,0-.24-.19a9.72,9.72,0,0,1-.35-1.42,9.35,9.35,0,0,0,1.71-.05c.85-.07,2.66-.19,4.34-.28C182.83,182.85,182.83,182.5,182.81,182.12ZM181,187.8a.87.87,0,0,0,.9.95.9.9,0,0,0,1-1,.85.85,0,0,0-.93-.9A.9.9,0,0,0,181,187.8Z"/><path d="M194.5,191.83a2,2,0,1,1-2-2A2,2,0,0,1,194.5,191.83Zm-3.19,0a1.16,1.16,0,1,0,1.16-1.16A1.14,1.14,0,0,0,191.31,191.83Z"/><path d="M206.34,188.05c0-.52,0-1.15,0-1.77a11.13,11.13,0,0,1-1.05,1.29c-.1.11-.18.17-.24.17s-.14-.07-.18-.24a3.39,3.39,0,0,0-.52-1.22,12.92,12.92,0,0,0,2.85-4.61,5.85,5.85,0,0,0,.25-1c.5.14,1,.25,1.36.4.17.07.22.13.22.21a.29.29,0,0,1-.14.25,1.3,1.3,0,0,0-.31.59c-.24.62-.52,1.25-.82,1.85v7.3c0,1.37,0,2.06,0,2.13s0,.15-.15.15h-1.19c-.14,0-.15,0-.15-.15s0-.76,0-2.13Zm4.71-3.53a16.11,16.11,0,0,1-1.68,2.53c-.13.16-.2.23-.27.23s-.15-.09-.26-.28a3.22,3.22,0,0,0-.68-.86,12.86,12.86,0,0,0,2.57-4.37,5.42,5.42,0,0,0,.22-1.06,13.82,13.82,0,0,1,1.39.31c.17,0,.27.11.27.21a.32.32,0,0,1-.13.26,1.72,1.72,0,0,0-.36.69c-.13.33-.27.69-.44,1h3.66c1.24,0,1.66,0,1.73,0s.17,0,.17.17v1c0,.15,0,.17-.17.17s-.49,0-1.73,0h-2.29v1.66h1.8c1.1,0,1.47,0,1.55,0s.16,0,.16.15v1c0,.14,0,.16-.16.16s-.45,0-1.55,0h-1.8v1.71h1.8c1.12,0,1.5,0,1.58,0s.15,0,.15.14v1c0,.15,0,.17-.15.17s-.46,0-1.58,0h-1.8v.77c0,1.4,0,2.11,0,2.18s0,.16-.15.16h-1.19c-.14,0-.16,0-.16-.16s0-.78,0-2.18v-6.71Z"/><path d="M70,211.09a4.23,4.23,0,0,1,2.23-.63,3.24,3.24,0,0,1,3.47,3.36c0,2.34-1.89,3.84-4.88,3.84-1.77,0-2.83-.76-2.83-2.06a1.86,1.86,0,0,1,2-1.71,2.56,2.56,0,0,1,2.64,2.05A2.11,2.11,0,0,0,74,213.81a2,2,0,0,0-2.2-2.12,5.67,5.67,0,0,0-3.58,1.49c-.41.36-.8.77-1.22,1.19-.1.1-.17.15-.24.15a.38.38,0,0,1-.21-.12,7,7,0,0,1-.82-.91c-.09-.12-.05-.21.07-.33a35.55,35.55,0,0,0,3.32-3.09c.86-.9,1.52-1.6,2.17-2.4-.84.16-1.84.35-2.71.54a4.31,4.31,0,0,0-.58.16,1.14,1.14,0,0,1-.28.07.31.31,0,0,1-.31-.23,6.51,6.51,0,0,1-.49-1.52,6.28,6.28,0,0,0,1.3,0c.85-.08,2.09-.27,3.18-.48a3.71,3.71,0,0,0,.77-.21.81.81,0,0,1,.26-.11.5.5,0,0,1,.33.11,5.88,5.88,0,0,1,.94.9.49.49,0,0,1,.15.34.36.36,0,0,1-.24.33,2.07,2.07,0,0,0-.61.45c-1,1-2,2-3,3Zm0,4c-.41,0-.67.24-.67.54s.37.72,1.21.72a3.24,3.24,0,0,0,.65-.05C71,215.52,70.62,215.08,70,215.08Z"/><path d="M83.57,214.45c0,1.29.56,1.8,1.86,1.8,1.64,0,2.55-.63,2.55-1.9a3.41,3.41,0,0,0-1.26-2.55,4.31,4.31,0,0,0,1.43-.08.31.31,0,0,1,.29.06,3.65,3.65,0,0,1,1.19,2.63c0,2-1.62,3.28-4,3.28s-3.53-1.12-3.53-3.17c0-.29,0-.68.09-1.31a12.12,12.12,0,0,1-1.9-.42c-.1,0-.14-.1-.15-.27a7.06,7.06,0,0,1,0-1.3,8.49,8.49,0,0,0,2.27.54c.07-.51.18-1.43.23-2a10.13,10.13,0,0,1-2-.39c-.17,0-.23-.11-.23-.24,0-.34,0-.8,0-1.3a12,12,0,0,0,2.54.53c.11-.81.15-1.19.18-1.61a6.64,6.64,0,0,0,0-1.18,9.39,9.39,0,0,1,1.68.39c.19.07.3.2.3.33a.4.4,0,0,1-.11.26,1.32,1.32,0,0,0-.25.6c-.07.33-.15.8-.22,1.32a8.36,8.36,0,0,0,1.72-.08c.1,0,.14.07.14.17a7.37,7.37,0,0,1,0,1.05c0,.15,0,.19-.22.21a14.62,14.62,0,0,1-1.87.07c-.08.49-.22,1.44-.3,2,.74,0,1.31,0,2,0,.19,0,.23,0,.23.15a9.91,9.91,0,0,1-.07,1.05c0,.17-.06.23-.2.23-.7.05-1.43.05-2.14,0A8.35,8.35,0,0,0,83.57,214.45Z"/><path d="M99.78,208.37a17.46,17.46,0,0,1-1.75,6A2.66,2.66,0,0,1,95.65,216c-1.24,0-2.48-1.31-2.48-3.6a5.16,5.16,0,0,1,1.58-3.64A6.12,6.12,0,0,1,99.3,207c3.36,0,5.34,2.07,5.34,4.86,0,2.6-1.47,4.24-4.31,5.1-.3.08-.42,0-.61-.26a3,3,0,0,0-1-.88c2.37-.56,4.23-1.54,4.23-4.19a3.19,3.19,0,0,0-3.14-3.25Zm-4,1.36a4.06,4.06,0,0,0-1.09,2.59c0,1.29.51,2,1,2s.67-.19,1-.86a15.66,15.66,0,0,0,1.48-5A4.2,4.2,0,0,0,95.76,209.73Z"/><path d="M111.57,214.45c0,1.29.56,1.8,1.86,1.8,1.64,0,2.55-.63,2.55-1.9a3.41,3.41,0,0,0-1.26-2.55,4.31,4.31,0,0,0,1.43-.08.31.31,0,0,1,.29.06,3.65,3.65,0,0,1,1.19,2.63c0,2-1.62,3.28-4,3.28s-3.53-1.12-3.53-3.17c0-.29,0-.68.09-1.31a12.12,12.12,0,0,1-1.9-.42c-.1,0-.14-.1-.15-.27a7.06,7.06,0,0,1,0-1.3,8.49,8.49,0,0,0,2.27.54c.07-.51.18-1.43.23-2a10.13,10.13,0,0,1-2-.39c-.17,0-.23-.11-.23-.24,0-.34,0-.8,0-1.3a12,12,0,0,0,2.54.53c.11-.81.15-1.19.18-1.61a6.64,6.64,0,0,0,0-1.18,9.39,9.39,0,0,1,1.68.39c.19.07.3.2.3.33a.4.4,0,0,1-.11.26,1.32,1.32,0,0,0-.25.6c-.07.33-.15.8-.22,1.32a8.36,8.36,0,0,0,1.72-.08c.1,0,.14.07.14.17a7.37,7.37,0,0,1,0,1.05c0,.15,0,.19-.22.21a14.62,14.62,0,0,1-1.87.07c-.08.49-.22,1.44-.3,2,.74,0,1.31,0,2,0,.19,0,.23,0,.23.15a9.91,9.91,0,0,1-.07,1.05c0,.17-.06.23-.2.23-.7.05-1.43.05-2.14,0A8.35,8.35,0,0,0,111.57,214.45Z"/><path d="M127,211.74c-2.08.54-3.41,1-4.6,1.47a1.7,1.7,0,0,1-.41.15c-.07,0-.21-.1-.28-.28a10.87,10.87,0,0,1-.46-1.15c.31-.08.43-.13.73-.22a7.9,7.9,0,0,0,1.34-.83,45.54,45.54,0,0,0,4-3.67c-.85.24-1.61.38-2.49.55a5,5,0,0,0-.53.11,1.59,1.59,0,0,1-.4.14c-.12,0-.23-.13-.33-.31a8.26,8.26,0,0,1-.51-1.39,8.09,8.09,0,0,0,1.39,0c.94-.07,2-.24,3.19-.42a1.69,1.69,0,0,0,.75-.24.41.41,0,0,1,.26-.09c.13,0,.21.07.38.21a4.17,4.17,0,0,1,.69.7.64.64,0,0,1,.17.39c0,.14-.09.24-.26.32a3.35,3.35,0,0,0-.57.42c-1.46,1.29-2.65,2.33-4.25,3.53l0,0a54.8,54.8,0,0,1,6.76-1.54c.18,0,.23.07.26.23A5.71,5.71,0,0,1,132,211c0,.14-.08.18-.23.2a9.34,9.34,0,0,0-2.6.45c-1.63.56-2.4,1.55-2.4,2.56,0,1.34,1.47,1.75,3.5,1.75.14,0,.23.07.21.25,0,.35-.14.93-.18,1.18s-.11.31-.31.31a8.61,8.61,0,0,1-.92-.09c-2.64-.26-3.78-1.47-3.78-3.16a3.29,3.29,0,0,1,1.7-2.71Z"/><path d="M138.28,209.58a10.05,10.05,0,0,1,3.2-.7c1.88,0,3,1.27,3,3.33a5.52,5.52,0,0,1-1.13,3.35,7.91,7.91,0,0,1-2.71,2.23.69.69,0,0,1-.24.07.44.44,0,0,1-.33-.19,3.56,3.56,0,0,0-1.16-.74,7.61,7.61,0,0,0,3.08-2.34,4.12,4.12,0,0,0,.77-2.48c0-1.16-.49-1.76-1.31-1.76a4.67,4.67,0,0,0-2.19.6,6.9,6.9,0,0,0-1.19.67.5.5,0,0,1-.31.14c-.19,0-.31-.18-.4-.3a9.89,9.89,0,0,1-.71-1.48A7,7,0,0,0,138.28,209.58Zm5.11-3.22a.2.2,0,0,1,.18.25,9.62,9.62,0,0,1-.31,1.23c0,.14-.08.21-.19.2A18.29,18.29,0,0,1,139,207c-.07,0-.14-.1-.1-.28a6.6,6.6,0,0,1,.42-1.32A17.48,17.48,0,0,0,143.39,206.36Z"/><path d="M154.48,205.89c.16.06.25.14.25.26a.34.34,0,0,1-.07.22,1.05,1.05,0,0,0-.2.51c0,.25-.07.46-.11.7A27.25,27.25,0,0,0,158,207c.17-.05.21,0,.24.14a4.27,4.27,0,0,1,.14,1c0,.18-.14.25-.29.28a29.29,29.29,0,0,1-4,.59c-.06.59-.09.92-.1,1.41a8.83,8.83,0,0,1,2.14-.31,3.12,3.12,0,0,0,.24-1,5.93,5.93,0,0,1,1.25.52c.17.11.25.22.25.31a.29.29,0,0,1-.08.17,1.13,1.13,0,0,0-.19.28,3.42,3.42,0,0,1,2.88,3.41c0,2-1.67,3.35-3.9,3.95-.31.09-.46.05-.62-.26a3.28,3.28,0,0,0-.82-.87,8,8,0,0,0,2.6-1,2.4,2.4,0,0,0,1.12-2.1,2.1,2.1,0,0,0-1.73-2,14.51,14.51,0,0,1-2.65,3.67,4.06,4.06,0,0,0,.25.64c.09.18,0,.25-.11.35a5.13,5.13,0,0,1-.84.49c-.14.07-.2.07-.28-.07a2.77,2.77,0,0,1-.24-.55,4.36,4.36,0,0,1-2.44,1,1.53,1.53,0,0,1-1.55-1.74c0-1.79,1.55-3.5,3.28-4.36,0-.6,0-1.21.07-1.75-.83,0-1.21,0-1.45,0a5.06,5.06,0,0,1-.79,0c-.16,0-.24-.08-.26-.32s0-.67-.07-1.07a21.77,21.77,0,0,0,2.72.06,15.26,15.26,0,0,0,.11-1.53,3.48,3.48,0,0,0,0-.63A8.31,8.31,0,0,1,154.48,205.89Zm-3.73,9a.48.48,0,0,0,.46.53,3,3,0,0,0,1.63-.81,17,17,0,0,1-.28-2.41A3.74,3.74,0,0,0,150.75,214.89Zm5-3.64a6.4,6.4,0,0,0-1.79.32,14.74,14.74,0,0,0,.17,2.1A13.11,13.11,0,0,0,155.72,211.25Z"/><path d="M167.27,206.19c.18.07.27.15.27.28a.32.32,0,0,1-.1.22,1.54,1.54,0,0,0-.25.66c-.2,1-.31,2-.4,2.68,0,.5-.06,1,0,1.54.31-.55.61-1.08,1-1.8a2.85,2.85,0,0,0,.44.91.34.34,0,0,1,.08.23.63.63,0,0,1-.14.35,11,11,0,0,0-.82,1.79,1.32,1.32,0,0,0-.07.42.21.21,0,0,1-.19.23c-.16,0-.77.12-1.12.16-.1,0-.16-.08-.19-.18a8.77,8.77,0,0,1-.42-2.84,29.86,29.86,0,0,1,.33-3.49,12.17,12.17,0,0,0,.12-1.6A7.46,7.46,0,0,1,167.27,206.19Zm4.55-.24c.28.07.31.14.28.38s0,.45,0,.64c.09,1.33.19,2.61.19,3.62a9.22,9.22,0,0,1-1.06,4.86,7.75,7.75,0,0,1-2.31,2.25.5.5,0,0,1-.28.1.41.41,0,0,1-.3-.15,3.26,3.26,0,0,0-1.19-.65,6.89,6.89,0,0,0,2.38-1.87,6.72,6.72,0,0,0,1.18-4.47c0-1-.07-2.45-.17-3.35a7,7,0,0,0-.29-1.53A8.31,8.31,0,0,1,171.82,206Z"/><path d="M184,207.73c.15,0,.21,0,.22.14,0,.31.09.71.1,1s0,.22-.21.26a21.82,21.82,0,0,1-2.44.54c-.95,3.11-1.66,5.25-2.56,7.57-.07.2-.16.19-.31.14s-.83-.35-1.12-.51a.23.23,0,0,1-.11-.28A54.33,54.33,0,0,0,180,210c-.81.08-1.79.15-2.45.15-.21,0-.27,0-.29-.22s-.13-.77-.2-1.28a6.77,6.77,0,0,0,1,0,18.37,18.37,0,0,0,2.26-.14c.15-.56.26-1.17.36-1.75a10.76,10.76,0,0,0,.08-1.29,8,8,0,0,1,1.76.4.23.23,0,0,1,.16.22.31.31,0,0,1-.07.22,2.81,2.81,0,0,0-.3.57c-.14.5-.23,1-.33,1.33C182.57,208.11,183.33,207.92,184,207.73Zm-.55,6.69c.14,0,.2.06.21.2.11,1,.8,1.32,2.14,1.32a20.88,20.88,0,0,0,2.36-.2c.11,0,.15,0,.17.13a9.7,9.7,0,0,1,.11,1.22c0,.16,0,.21-.23.22a16.43,16.43,0,0,1-1.9.15c-1.84,0-2.79-.25-3.42-.91a2.71,2.71,0,0,1-.63-1.92A7.31,7.31,0,0,1,183.47,214.42Zm-.15-3.71c0-.19,0-.24.25-.28a14.78,14.78,0,0,1,2.73-.32,10.66,10.66,0,0,1,1.64.14c.2,0,.24,0,.24.21,0,.35,0,.74,0,1.12s-.07.3-.27.25a10.09,10.09,0,0,0-1.73-.16,14.87,14.87,0,0,0-2.82.32C183.34,211.5,183.32,211,183.32,210.71Z"/><path d="M193.3,207.69a.32.32,0,0,1,.22.25,1.23,1.23,0,0,1-.11.39,6,6,0,0,0-.13,1.37,18,18,0,0,0,.25,3.2c.2,1.1.56,2.06,1.15,2.06s.8-.49,1.35-2a5.56,5.56,0,0,0,.89,1.08.43.43,0,0,1,.1.52c-.53,1.43-1.4,2.18-2.38,2.18s-2.24-1.29-2.62-3.65a26,26,0,0,1-.33-4.08,7.58,7.58,0,0,0-.17-1.84A6.27,6.27,0,0,1,193.3,207.69Zm6.5.88a.36.36,0,0,1,.15-.06.19.19,0,0,1,.15.09,9.21,9.21,0,0,1,2.75,4.79c0,.18,0,.24-.15.31a5.44,5.44,0,0,1-1.1.56c-.17.05-.26,0-.29-.16a9.48,9.48,0,0,0-2.62-4.89A12.81,12.81,0,0,1,199.8,208.57Z"/><path d="M208.5,216.33a2,2,0,1,1-2-2A2,2,0,0,1,208.5,216.33Zm-3.19,0a1.16,1.16,0,1,0,1.16-1.16A1.14,1.14,0,0,0,205.31,216.33Z"/></g></g></svg>