<svg xmlns="http://www.w3.org/2000/svg" viewBox="0 0 440.48 115.39"><defs><style>.cls-1{fill:#211815;}</style></defs><g id="レイヤー_2" data-name="レイヤー 2"><g id="レイヤー_1-2" data-name="レイヤー 1"><path class="cls-1" d="M381,22.67c.06,1,.13.64-.46,1.41-.17,1.25-.41.66-1.08,1.33-.73.84-.45,1-1.23,1.61-1.17.84-.82,1-2.23,1.23-2.56.37-.57-.12-2.06,0v0a6,6,0,0,1-2.42-.24,4.69,4.69,0,0,0-1.4,0c-.47,0-.92.25-1.39.34a13.56,13.56,0,0,1-2.38.18,10.85,10.85,0,0,0-5.11,1.06,6.9,6.9,0,0,1-4.11.76,26.91,26.91,0,0,0-4.75,0,5.11,5.11,0,0,1-1.34-.1s0,0-.08,0a5.22,5.22,0,0,0-1.38.12c-2.52.48-5.07.41-7.55.92a21.93,21.93,0,0,1-4.88.56,98.27,98.27,0,0,0-10.11,1.72,21.23,21.23,0,0,1-5.26.94,34.1,34.1,0,0,0-4.87.59,24.09,24.09,0,0,1-6.23.59,5,5,0,0,0-1.77.28A35.15,35.15,0,0,1,302,37.52a34,34,0,0,1-6.68.87,5.19,5.19,0,0,0-1.3.15c-3.92.79-8.06,1-12,1.8a6.23,6.23,0,0,1-2.42-.12,4.16,4.16,0,0,0-1.4.08c-.47.08-.91.29-1.38.4a12.4,12.4,0,0,1-2.36.31,10.88,10.88,0,0,0-5,1.34,6.78,6.78,0,0,1-4.06,1,26.44,26.44,0,0,0-4.74.28,5.58,5.58,0,0,1-1.35,0,.08.08,0,0,0-.07,0,6.65,6.65,0,0,0-1.38.2c-2.49.6-5,.67-7.49,1.33a22.21,22.21,0,0,1-4.83.85c-3.36.77-6.78,1.14-10,2.26a21.35,21.35,0,0,1-5.2,1.27,36.23,36.23,0,0,0-4.82.86,25.17,25.17,0,0,1-6.19.92,5,5,0,0,0-1.75.4,33.57,33.57,0,0,1-6.79,2,35.32,35.32,0,0,1-6.61,1.23,5.14,5.14,0,0,0-1.3.23c-3.84,1-8,1.51-11.86,2.55a6.39,6.39,0,0,1-2.43,0,4.76,4.76,0,0,0-1.39.16c-.46.11-.9.35-1.35.49a14,14,0,0,1-2.34.44,11,11,0,0,0-4.93,1.69,6.93,6.93,0,0,1-4,1.25,25.92,25.92,0,0,0-4.71.56,5.94,5.94,0,0,1-1.34.06s0,0-.07,0a5.94,5.94,0,0,0-1.37.28c-2.44.75-5,1-7.36,1.85A22.67,22.67,0,0,1,155,65.59c-3.29,1-6.68,1.59-9.81,2.92a19.7,19.7,0,0,1-5.08,1.64,38.28,38.28,0,0,0-4.74,1.23,24.73,24.73,0,0,1-6.1,1.35,4.64,4.64,0,0,0-1.71.52,33.21,33.21,0,0,1-6.62,2.51,34.24,34.24,0,0,1-6.48,1.74,6.08,6.08,0,0,0-1.27.33c-3.77,1.28-7.82,2.14-11.6,3.48a6.24,6.24,0,0,1-2.41.22,4.41,4.41,0,0,0-1.38.28c-.44.14-.86.42-1.29.6a15.56,15.56,0,0,1-2.29.63A10.43,10.43,0,0,0,89.4,85.1a6.85,6.85,0,0,1-3.85,1.6,25.7,25.7,0,0,0-4.63,1,5.84,5.84,0,0,1-1.33.18s0,0-.07,0a6.47,6.47,0,0,0-1.33.4c-2.36,1-4.89,1.38-7.18,2.46a21.91,21.91,0,0,1-4.61,1.62c-3.18,1.3-6.47,2.26-9.46,3.83a23.35,23.35,0,0,1-4.89,2.12,39.12,39.12,0,0,0-4.58,1.7,24.11,24.11,0,0,1-5.9,2,5.07,5.07,0,0,0-1.66.68,40.16,40.16,0,0,1-6.27,3.19,35.79,35.79,0,0,1-6.23,2.44,5.63,5.63,0,0,0-1.22.48c-1.79.86-3.68,1.58-5.57,2.3s-3.74,1.55-5.53,2.46a32.28,32.28,0,0,0-4.23,1.41c-1.34.65-4.59-.41-5.89.26-1,.95-1.62-1.64-3.08-1.72C.61,113.64.56,110.79,0,110l.35-2.13c1.08-1.09.66-2.16,2.08-3,.83-.34,1.68-.72,2.53-1a42.85,42.85,0,0,0,5.1-1.68h0A18.88,18.88,0,0,1,15.45,100,6.32,6.32,0,0,0,17,99.18a4.08,4.08,0,0,1,2.59-.73,1.07,1.07,0,0,0,.86-.24,9.4,9.4,0,0,1,3.51-2,15.24,15.24,0,0,0,2-1,7.45,7.45,0,0,1,1.55-.92c1.83-.71,3.62-1.54,5.43-2.3a37.08,37.08,0,0,1,5.61-1.81,11.56,11.56,0,0,0,2.14-.75c2.62-1.1,5.32-2,7.9-3.34,3.15-1,6.18-2.38,9.27-3.52a5,5,0,0,0,1.55-.86,4.51,4.51,0,0,1,3.75-1.27,2.62,2.62,0,0,0,1.72-.35c.27-.13.51-.33.78-.44.71-.33,1.39-.65,2.08-.94a12.74,12.74,0,0,0,2.12-.74,2.55,2.55,0,0,1,1.28-.27,12.06,12.06,0,0,0,4-.8c.31-.1.71-.31,1-.41l.66-.27c1.89-.74,3.78-1.38,5.7-2.06,1.48-.57,3.13-.78,4.6-1.42s2.72-.93,4.07-1.44c1.55-.52,5.28-1.19,6.78-1.73a18.51,18.51,0,0,1,5.61-1.6,7,7,0,0,0,1.63-.62,3.82,3.82,0,0,1,2.63-.46,1.11,1.11,0,0,0,.89-.14,9.22,9.22,0,0,1,3.69-1.56,15.15,15.15,0,0,0,2.07-.83,8.19,8.19,0,0,1,1.63-.74c3.8-1,7.44-2.5,11.38-2.92a11.46,11.46,0,0,0,2.19-.52c2.73-.81,5.5-1.46,8.21-2.49,3.23-.62,6.35-1.84,9.53-2.63a5.15,5.15,0,0,0,1.61-.71,4.48,4.48,0,0,1,3.84-.9,2.65,2.65,0,0,0,1.75-.18,6.71,6.71,0,0,1,.83-.36c.73-.26,1.42-.51,2.13-.73a12.44,12.44,0,0,0,2.18-.55,2.69,2.69,0,0,1,1.3-.18,11,11,0,0,0,3-.22,5.78,5.78,0,0,0,1-.24c.33-.07.75-.24,1.07-.32l.67-.19c1.95-.58,3.88-1,5.86-1.53,1.52-.45,3.17-.51,4.68-1l4.17-1.13c1.58-.39,5.36-.75,6.89-1.16A18.75,18.75,0,0,1,194,44.5,7.06,7.06,0,0,0,195.7,44a3.91,3.91,0,0,1,2.66-.27,1.07,1.07,0,0,0,.89-.08A9.26,9.26,0,0,1,203,42.4a15.41,15.41,0,0,0,2.12-.66,7.61,7.61,0,0,1,1.69-.61c3.85-.68,7.6-1.88,11.55-2.06a11.82,11.82,0,0,0,2.22-.36c2.78-.61,5.58-1.05,8.35-1.88,3.27-.38,6.45-1.38,9.69-1.95a5.47,5.47,0,0,0,1.65-.6,4.44,4.44,0,0,1,3.89-.64,2.63,2.63,0,0,0,1.75-.06,7,7,0,0,1,.84-.3c.75-.21,1.46-.42,2.18-.58a11.54,11.54,0,0,0,2.22-.41,2.56,2.56,0,0,1,1.29-.08,10.32,10.32,0,0,0,3,0,7.68,7.68,0,0,0,1-.16c.33-.06.76-.21,1.08-.27l.68-.14c2-.46,3.95-.79,5.95-1.16,1.54-.35,3.19-.3,4.73-.71s2.82-.53,4.24-.84c1.59-.29,5.38-.42,6.93-.74a18.42,18.42,0,0,1,5.77-.78,7.54,7.54,0,0,0,1.7-.37,4,4,0,0,1,2.67-.07,1.08,1.08,0,0,0,.88,0A9.24,9.24,0,0,1,295,25.87a15.16,15.16,0,0,0,2.16-.54,7.64,7.64,0,0,1,1.71-.52c3.87-.49,7.69-1.4,11.65-1.34a11.22,11.22,0,0,0,2.24-.25c2.79-.45,5.61-.75,8.43-1.41,3.28-.17,6.53-1,9.77-1.39a5,5,0,0,0,1.68-.52,4.48,4.48,0,0,1,3.93-.4,2.63,2.63,0,0,0,1.75,0,8.47,8.47,0,0,1,.86-.25c.76-.17,1.49-.32,2.21-.46a11,11,0,0,0,2.24-.27,2.56,2.56,0,0,1,1.29,0,10.3,10.3,0,0,0,3,.14,7.76,7.76,0,0,0,1-.12c.33,0,.76-.15,1.09-.19l.69-.12c2-.34,4-.56,6-.83,1.57-.25,3.22-.12,4.78-.44l4.27-.6c1.62-.2,5.4-.14,7-.38V16c1.6.16,3.15-.38,4.66.32l1.39.48c1.26.1,1.74,1.09,2.3,2,.2.87-.22.38.13,2C381.16,21.86,381,22.1,381,22.67Z"/><path class="cls-1" d="M439.89,18.45a14.08,14.08,0,0,0-1.25-4.4,9,9,0,0,1-1-2.86,5.67,5.67,0,0,0-.89-2.11c-.53-.73-1-1.42-1.54-2.22a9.36,9.36,0,0,0-4.43-3.59,9.45,9.45,0,0,1-2.47-1.21l-.63-.43A10,10,0,0,0,423.21.1a5.76,5.76,0,0,0-3.49.39,11.77,11.77,0,0,1-1.45.57,7.65,7.65,0,0,0-3.53,1.6,4.33,4.33,0,0,1-1.4.72,9.7,9.7,0,0,0-3.64,2.88,7.65,7.65,0,0,0-1.88,2.9,2.76,2.76,0,0,1-1.34,1.76,4.31,4.31,0,0,0-.9.72,1,1,0,0,0-.39.65c-.13.91-.25,1.72-.38,2.63a3.39,3.39,0,0,1-.2,1.13,3,3,0,0,0,0,2.57,3.22,3.22,0,0,1,.41,1.84,5.84,5.84,0,0,0,.59,2.58,15.34,15.34,0,0,1,.84,1.73,3,3,0,0,0,.87,1.23,8.3,8.3,0,0,1,1.85,2.45A4.48,4.48,0,0,0,410.21,30c.52.57,1,1.14,1.59,1.68a5.19,5.19,0,0,0,.9.68,16.47,16.47,0,0,1,2.29,1.4,3.12,3.12,0,0,0,1.09.42,21.7,21.7,0,0,0,5.35.54c1.12,0,2.26.16,3.63,0,1.31.16,2.52-.65,3.83-1.13a2.72,2.72,0,0,0,.9-.64,25.8,25.8,0,0,1,4-3.7c1.39-1.06,2.42-2.59,3.7-3.78.69-1.08,1.4-2.13,2.07-3.21a1.08,1.08,0,0,0,.16-.36A10.16,10.16,0,0,0,439.89,18.45Z"/><path class="cls-1" d="M242.74,84.81h3.6v22.57h-3.6Z"/><path class="cls-1" d="M250.09,84.81h3.6v3.41h-3.6Zm0,6.23h3.6v16.34h-3.6Z"/><path class="cls-1" d="M257.39,91h3.41v2.4l.06.06A6,6,0,0,1,263,91.37a5.72,5.72,0,0,1,2.94-.78A6.17,6.17,0,0,1,270.19,92a5.35,5.35,0,0,1,1.55,4.18v11.22h-3.61V97.1a4.39,4.39,0,0,0-.82-2.79,3,3,0,0,0-2.37-.87,3.91,3.91,0,0,0-1.64.33,3.56,3.56,0,0,0-1.24.92,4.39,4.39,0,0,0-.79,1.37,4.92,4.92,0,0,0-.28,1.67v9.65h-3.6Z"/><path class="cls-1" d="M278.18,100.14a6.24,6.24,0,0,0,.27,1.83,4.49,4.49,0,0,0,.81,1.55,3.79,3.79,0,0,0,1.36,1.06,4.51,4.51,0,0,0,2,.39,4.27,4.27,0,0,0,2.54-.68,4,4,0,0,0,1.44-2H290a6.73,6.73,0,0,1-1,2.38,7,7,0,0,1-1.67,1.75,7.37,7.37,0,0,1-2.2,1.07,8.58,8.58,0,0,1-2.54.37,8.69,8.69,0,0,1-3.42-.63,7.22,7.22,0,0,1-2.51-1.77,7.67,7.67,0,0,1-1.55-2.72,11,11,0,0,1-.52-3.48,9.77,9.77,0,0,1,.55-3.3,8.49,8.49,0,0,1,1.58-2.75,7.55,7.55,0,0,1,2.48-1.88,7.46,7.46,0,0,1,3.29-.7,7.27,7.27,0,0,1,3.46.81,7.77,7.77,0,0,1,2.55,2.13,8.82,8.82,0,0,1,1.47,3,9.44,9.44,0,0,1,.23,3.56Zm8.41-2.37a5.8,5.8,0,0,0-.36-1.65,4.41,4.41,0,0,0-.83-1.37,4,4,0,0,0-1.26-1,3.78,3.78,0,0,0-1.66-.36,4.32,4.32,0,0,0-1.72.33,3.91,3.91,0,0,0-1.33.92,4.41,4.41,0,0,0-.88,1.37,4.63,4.63,0,0,0-.37,1.71Z"/><path class="cls-1" d="M307.89,107.38h-3.41v-2.22h-.06a4.29,4.29,0,0,1-2.12,2,7.21,7.21,0,0,1-2.94.62,7.86,7.86,0,0,1-3.37-.68,6.63,6.63,0,0,1-2.38-1.85,7.83,7.83,0,0,1-1.43-2.77,12.15,12.15,0,0,1-.47-3.43,11,11,0,0,1,.6-3.82,7.54,7.54,0,0,1,1.6-2.65,6.15,6.15,0,0,1,2.27-1.54,7.45,7.45,0,0,1,2.61-.49,9.21,9.21,0,0,1,1.55.14,7.4,7.4,0,0,1,1.52.46,5.91,5.91,0,0,1,1.34.81,4.7,4.7,0,0,1,1,1.15h.06V84.81h3.6Zm-12.58-8a7.9,7.9,0,0,0,.27,2.05,5.49,5.49,0,0,0,.82,1.8,4,4,0,0,0,3.43,1.74,4.12,4.12,0,0,0,2.07-.5,4.21,4.21,0,0,0,1.42-1.33,6,6,0,0,0,.83-1.85,8.17,8.17,0,0,0,.27-2.1A6.63,6.63,0,0,0,303.2,95a4,4,0,0,0-3.3-1.51,4.06,4.06,0,0,0-2.14.52,4.4,4.4,0,0,0-1.42,1.36,5.69,5.69,0,0,0-.79,1.89A9.82,9.82,0,0,0,295.31,99.38Z"/><path class="cls-1" d="M318,107.82a8.94,8.94,0,0,1-3.49-.65,7.46,7.46,0,0,1-2.59-1.79,7.66,7.66,0,0,1-1.61-2.71,11.19,11.19,0,0,1,0-6.93A7.66,7.66,0,0,1,311.92,93a7.46,7.46,0,0,1,2.59-1.79,9.72,9.72,0,0,1,7,0A7.46,7.46,0,0,1,324.09,93a7.66,7.66,0,0,1,1.61,2.71,11.19,11.19,0,0,1,0,6.93,7.66,7.66,0,0,1-1.61,2.71,7.46,7.46,0,0,1-2.59,1.79A9,9,0,0,1,318,107.82Zm0-2.85a4.2,4.2,0,0,0,2.09-.5,4.31,4.31,0,0,0,1.45-1.33,5.78,5.78,0,0,0,.84-1.85,8.17,8.17,0,0,0,.27-2.1,8.33,8.33,0,0,0-.27-2.09,5.68,5.68,0,0,0-.84-1.85,4.47,4.47,0,0,0-1.45-1.31,4.6,4.6,0,0,0-4.17,0,4.61,4.61,0,0,0-1.46,1.31,5.88,5.88,0,0,0-.83,1.85,8.33,8.33,0,0,0-.27,2.09,8.17,8.17,0,0,0,.27,2.1,6,6,0,0,0,.83,1.85,4.44,4.44,0,0,0,1.46,1.33A4.18,4.18,0,0,0,318,105Z"/><path class="cls-1" d="M327.39,91h2.72v-4.9h3.6V91H337v2.68h-3.26v8.72a9,9,0,0,0,.05,1,1.75,1.75,0,0,0,.22.7,1.11,1.11,0,0,0,.52.43,2.68,2.68,0,0,0,.95.14l.76,0a3.4,3.4,0,0,0,.76-.11v2.78l-1.17.13a11.17,11.17,0,0,1-1.17.06,7.92,7.92,0,0,1-2.29-.27,3,3,0,0,1-1.36-.79,2.69,2.69,0,0,1-.67-1.31,10.19,10.19,0,0,1-.2-1.8V93.72h-2.72Z"/><path class="cls-1" d="M363.74,107.38h-3.41v-2.22h-.07a4.25,4.25,0,0,1-2.12,2,7.13,7.13,0,0,1-2.93.62,7.86,7.86,0,0,1-3.37-.68,6.66,6.66,0,0,1-2.39-1.85,8,8,0,0,1-1.42-2.77,11.8,11.8,0,0,1-.47-3.43,11,11,0,0,1,.6-3.82,7.67,7.67,0,0,1,1.59-2.65A6.27,6.27,0,0,1,352,91.08a7.36,7.36,0,0,1,2.61-.49,9.09,9.09,0,0,1,1.54.14,7,7,0,0,1,1.52.46A5.7,5.7,0,0,1,359,92a4.33,4.33,0,0,1,1,1.15h.07V84.81h3.6Zm-12.58-8a7.9,7.9,0,0,0,.27,2.05,5.49,5.49,0,0,0,.82,1.8,4.19,4.19,0,0,0,1.41,1.27,4.55,4.55,0,0,0,4.09,0,4.31,4.31,0,0,0,1.42-1.33,6,6,0,0,0,.82-1.85,8.17,8.17,0,0,0,.27-2.1A6.57,6.57,0,0,0,359,95a4,4,0,0,0-3.3-1.51,4.05,4.05,0,0,0-2.13.52,4.4,4.4,0,0,0-1.42,1.36,5.49,5.49,0,0,0-.79,1.89A9.82,9.82,0,0,0,351.16,99.38Z"/><path class="cls-1" d="M369.84,100.14a6.24,6.24,0,0,0,.27,1.83,4.47,4.47,0,0,0,.8,1.55,3.88,3.88,0,0,0,1.36,1.06,4.54,4.54,0,0,0,2,.39,4.32,4.32,0,0,0,2.55-.68,4,4,0,0,0,1.43-2h3.42a6.92,6.92,0,0,1-1,2.38,7,7,0,0,1-1.68,1.75,7.2,7.2,0,0,1-2.19,1.07,9.29,9.29,0,0,1-6-.26,7.36,7.36,0,0,1-2.52-1.77,7.5,7.5,0,0,1-1.54-2.72,11,11,0,0,1-.52-3.48,9.77,9.77,0,0,1,.55-3.3,8.31,8.31,0,0,1,1.58-2.75,7.44,7.44,0,0,1,5.77-2.58,7.3,7.3,0,0,1,3.46.81,7.64,7.64,0,0,1,2.54,2.13,8.82,8.82,0,0,1,1.47,3,9.24,9.24,0,0,1,.24,3.56Zm8.4-2.37a5.8,5.8,0,0,0-.36-1.65,4.38,4.38,0,0,0-.82-1.37,4.11,4.11,0,0,0-1.26-1,3.78,3.78,0,0,0-1.66-.36,4.37,4.37,0,0,0-1.73.33,4,4,0,0,0-1.32.92,4.44,4.44,0,0,0-.89,1.37,4.84,4.84,0,0,0-.36,1.71Z"/><path class="cls-1" d="M387.3,102.13a2.71,2.71,0,0,0,1.2,2.21,4.76,4.76,0,0,0,2.5.63,8.34,8.34,0,0,0,1.15-.08,4.84,4.84,0,0,0,1.22-.3,2.22,2.22,0,0,0,.93-.64,1.76,1.76,0,0,0-.17-2.26,3.39,3.39,0,0,0-1.22-.71,11.1,11.1,0,0,0-1.69-.46l-1.93-.41a19,19,0,0,1-1.94-.54,6.63,6.63,0,0,1-1.68-.85,4,4,0,0,1-1.18-1.38,4.34,4.34,0,0,1-.45-2.07,3.75,3.75,0,0,1,.65-2.23,4.92,4.92,0,0,1,1.65-1.45,7.16,7.16,0,0,1,2.21-.78,13.65,13.65,0,0,1,2.32-.22,10.62,10.62,0,0,1,2.42.27,6.54,6.54,0,0,1,2.08.87,5,5,0,0,1,1.55,1.57,5.45,5.45,0,0,1,.78,2.32h-3.76a2.26,2.26,0,0,0-1.19-1.74,4.83,4.83,0,0,0-2.13-.44,8.1,8.1,0,0,0-.9.06,3.8,3.8,0,0,0-1,.24,2,2,0,0,0-.78.5,1.2,1.2,0,0,0-.31.87,1.39,1.39,0,0,0,.46,1.08,3.6,3.6,0,0,0,1.2.68,10.83,10.83,0,0,0,1.69.45l2,.41c.65.15,1.29.33,1.93.54a6.26,6.26,0,0,1,1.69.86,3.93,3.93,0,0,1,1.66,3.38,4.39,4.39,0,0,1-.67,2.46,5.32,5.32,0,0,1-1.72,1.65,7.88,7.88,0,0,1-2.36.91,11.82,11.82,0,0,1-2.56.29,11.26,11.26,0,0,1-2.86-.35,6.52,6.52,0,0,1-2.27-1.06,5.09,5.09,0,0,1-1.52-1.77,5.6,5.6,0,0,1-.58-2.51Z"/><path class="cls-1" d="M401,84.81h3.6v3.41H401ZM401,91h3.6v16.34H401Z"/><path class="cls-1" d="M423,106.52q0,3.7-2.07,5.52a8.78,8.78,0,0,1-6,1.81,12.35,12.35,0,0,1-2.48-.25,7.41,7.41,0,0,1-2.28-.85,5.52,5.52,0,0,1-1.72-1.58,4.84,4.84,0,0,1-.82-2.4h3.6a3,3,0,0,0,.54,1.23,2.79,2.79,0,0,0,.9.74,3.35,3.35,0,0,0,1.15.35,11.32,11.32,0,0,0,1.33.08,4.18,4.18,0,0,0,3.19-1.08,4.31,4.31,0,0,0,1-3.09v-2.5h-.06a5.55,5.55,0,0,1-2.07,2.12,5.61,5.61,0,0,1-2.83.76,7.46,7.46,0,0,1-3.33-.68,6.41,6.41,0,0,1-2.28-1.87,7.69,7.69,0,0,1-1.31-2.73,13.07,13.07,0,0,1-.41-3.32,9.82,9.82,0,0,1,.5-3.13A8.12,8.12,0,0,1,409.1,93a6.83,6.83,0,0,1,2.32-1.78,7,7,0,0,1,3.11-.67,6.32,6.32,0,0,1,2.85.65,4.38,4.38,0,0,1,2,2h.06V91H423Zm-8-2a4,4,0,0,0,2-.49,4.1,4.1,0,0,0,1.36-1.29,5.71,5.71,0,0,0,.76-1.84,9.59,9.59,0,0,0,.23-2.07,8,8,0,0,0-.25-2,5.73,5.73,0,0,0-.77-1.74,3.85,3.85,0,0,0-1.36-1.2,4.2,4.2,0,0,0-2-.44,3.85,3.85,0,0,0-2,.5,4.16,4.16,0,0,0-1.33,1.31,5.67,5.67,0,0,0-.73,1.84,9.44,9.44,0,0,0-.22,2,8.12,8.12,0,0,0,.25,2,5.4,5.4,0,0,0,.78,1.72,4.15,4.15,0,0,0,1.33,1.24A3.79,3.79,0,0,0,415,104.53Z"/><path class="cls-1" d="M426.13,91h3.42v2.4l.06.06a5.93,5.93,0,0,1,2.15-2.13,5.67,5.67,0,0,1,2.94-.78A6.13,6.13,0,0,1,438.93,92a5.35,5.35,0,0,1,1.55,4.18v11.22h-3.6V97.1a4.45,4.45,0,0,0-.82-2.79,3,3,0,0,0-2.37-.87,4,4,0,0,0-1.65.33,3.62,3.62,0,0,0-1.23.92,4.21,4.21,0,0,0-.79,1.37,4.92,4.92,0,0,0-.28,1.67v9.65h-3.61Z"/></g></g></svg>