<svg xmlns="http://www.w3.org/2000/svg" viewBox="0 0 990.59 992.68"><defs><style>.cls-1{fill:#211815;}</style></defs><g id="レイヤー_2" data-name="レイヤー 2"><g id="レイヤー_1-2" data-name="レイヤー 1"><path class="cls-1" d="M619.34,15.75l-8.06,31.19c4.32,1.16,8.24,3.1,12.26,4.89,2,.89,4.19,1.55,6.26,2.26,3.94.78,5-2,8.84-2.23L643,48.33c.31-2.47,5.35-8,2.58-9.93-2.61-2.71.92-8.68-2.81-8.69-3.69-1-8.37-8.67-12.26-9.67C627.83,19.48,621.91,16.75,619.34,15.75Z"/><path class="cls-1" d="M382.35,46.56l-7.8-31.25c2-.81,4.24-.31,6.45-.3a12,12,0,0,0,3.66-.55c1.23-.31,2.37-1,3.58-1.4a35.27,35.27,0,0,1,6.17-1.38c4.68-.42,9.19-1.09,13.42-3.48a18.74,18.74,0,0,1,10.88-2.43,72.35,72.35,0,0,0,12.64-.5,15.14,15.14,0,0,1,3.55.13c.11.08.11.08.2.06A16,16,0,0,0,438.77,5c6.66-1.8,13.51-.52,20.15-1.6a60,60,0,0,1,13-.56c9.13-.73,18.25-1,27.21-2.13A50.1,50.1,0,0,1,513.39.36a120.18,120.18,0,0,0,13.05.83c5.56.09,11.13.42,16.55,2.08a15,15,0,0,0,4.76.39c6.27-.85,12.56.14,18.88.84,5.9.77,12,1.2,17.68,3.27a16.26,16.26,0,0,0,3.44.75c10.58,1.39,21.09,5,31.59,7.26L611.28,47c-5.88-.57-8.21-1.74-13.93-3.77a16.28,16.28,0,0,0-4.26-.63,9.64,9.64,0,0,1-6.26-2.18,2.61,2.61,0,0,0-2.1-.69c-3.32.78-6.7,0-9.93-.59a32.92,32.92,0,0,0-5.48-.37,17.74,17.74,0,0,1-4.43,0c-9.51-1.72-19.19-1.88-28.66-4.29a24,24,0,0,0-5.53-.64c-7-.34-14-1-21.16-.47-8.1-1-16.33,0-24.41.53a12.67,12.67,0,0,0-4.25,1,10.45,10.45,0,0,1-9.73.31,6.11,6.11,0,0,0-4.31-.44,16.37,16.37,0,0,1-2.16.48l-5.51.75c-1.81.18-3.67-.29-5.54.27a6.25,6.25,0,0,1-3.22-.22,16.45,16.45,0,0,0-7.36-.49,22.28,22.28,0,0,0-2.53.39l-2.68.6-1.7.36c-4.92,1-9.78,1.78-14.72,2.63-3.84.78-7.95.55-11.76,1.5-3.46.83-7.05,1-10.42,2.21C395.39,44.27,386.11,45.4,382.35,46.56Z"/><path class="cls-1" d="M181.06,155.27l-21.83-23.68c1.4-1.65,3.61-2.27,5.57-3.29a12,12,0,0,0,3-2.21c.94-.84,1.62-2,2.5-2.9a35.62,35.62,0,0,1,4.81-4.11,40,40,0,0,0,5.24-4.54,25.62,25.62,0,0,0,4.57-5.28,18.77,18.77,0,0,1,8.45-7.26,73.65,73.65,0,0,0,10.92-6.41,15.34,15.34,0,0,1,3.2-1.57c.13,0,.13,0,.21,0a16.81,16.81,0,0,0,3-2.13,78.76,78.76,0,0,1,8.18-6,82.71,82.71,0,0,0,8.59-5.28,60,60,0,0,1,11.19-6.69c7.69-5,15.57-9.58,22.94-14.78a55.26,55.26,0,0,1,12.52-6.77A103.64,103.64,0,0,0,286,46.81a65.68,65.68,0,0,1,15.33-6.54,18.36,18.36,0,0,0,4.41-1.82c5.2-3.51,11.25-5.53,17.14-7.88,5.57-2.14,11.09-4.76,17-5.82a14.51,14.51,0,0,0,3.33-1.12c9.9-4,21.1-5,31.32-8.32l7.8,31.25c-5.42,2.37-8.05,2.36-14.07,3.23a16.28,16.28,0,0,0-4.08,1.33,9.47,9.47,0,0,1-6.61.82,2.27,2.27,0,0,0-2.17.4c-2.5,2.42-5.77,3.52-8.89,4.57a35.43,35.43,0,0,0-4.95,2.41,17.58,17.58,0,0,1-3.89,2.12c-9.08,3.26-18,6.88-27.34,9.58a27.76,27.76,0,0,0-5.08,2.25c-6.24,3.23-12.7,6-18.77,9.78a102.89,102.89,0,0,0-11.05,5.19c-3.54,2-6.81,4.51-10.3,6.57a12.62,12.62,0,0,0-3.28,2.87,10.46,10.46,0,0,1-8.41,4.89,6.18,6.18,0,0,0-4,1.66,16.37,16.37,0,0,1-1.67,1.45L243.3,109c-1.5,1-3.37,1.5-4.74,2.88a8.24,8.24,0,0,1-2.88,1.41,27.15,27.15,0,0,0-8.62,4.83L225,119.86,223.64,121c-3.84,3.24-7.78,6.18-11.74,9.26-3,2.49-6.76,4.22-9.67,6.86a103.19,103.19,0,0,0-7.8,7.29C191.54,147.14,183.85,152.49,181.06,155.27Z"/><path class="cls-1" d="M56.08,347l-30.5-10.35c.47-2.11,2.15-3.7,3.42-5.52a12.23,12.23,0,0,0,1.62-3.35c.44-1.19.52-2.5.87-3.73a35.77,35.77,0,0,1,2.35-5.87,30.55,30.55,0,0,0,3.55-13.49,16.8,16.8,0,0,1,4-10.4,74.59,74.59,0,0,0,6.74-10.76,15.24,15.24,0,0,1,2.11-2.87c.13-.05.13-.05.17-.14a16,16,0,0,0,1.69-3.29c2.6-6.32,6.26-12,8.93-18.16a60.4,60.4,0,0,1,6.83-11.1c4.43-8,9.65-15.52,13.29-23.84A36.17,36.17,0,0,1,88.63,212a101.52,101.52,0,0,0,8-10.37,66,66,0,0,1,10.58-12.89,13.46,13.46,0,0,0,2.79-3.87c2.3-6.05,7.17-10.27,11.15-15.2,3.94-4.48,7.61-9.35,12.37-13.06a14.26,14.26,0,0,0,2.44-2.53c6.47-8.57,15.68-14.93,23.29-22.48l21.83,23.68c-3.68,4.62-6,5.85-10.94,9.43a16,16,0,0,0-3,3.08,9.45,9.45,0,0,1-5,4.26,2.55,2.55,0,0,0-1.67,1.44c-1.08,3.28-3.47,5.77-5.75,8.14a35.82,35.82,0,0,0-3.27,4.43,17.6,17.6,0,0,1-2.45,3.68c-3.35,3.47-6.46,7.17-9.69,10.75s-5.93,7.59-9.51,10.92a27.37,27.37,0,0,0-3.48,4.34c-4.06,5.74-8.5,11.21-12.15,17.33-5.58,6-8.44,14-12.83,20.74a12.21,12.21,0,0,0-1.58,4.05,10.46,10.46,0,0,1-5.22,8.21,6.27,6.27,0,0,0-2.79,3.33,17.47,17.47,0,0,1-.81,2.05c-.83,1.72-1.63,3.36-2.41,5s-2,3.05-2.4,5a6.26,6.26,0,0,1-1.71,2.7,24.21,24.21,0,0,0-4.34,6,22.37,22.37,0,0,0-1.1,2.3l-1,2.55-.67,1.6c-1.92,4.64-4.06,9.07-6.15,13.62-1.63,3.55-4,6.89-4.89,10.77L62.89,331.1C61.61,334.89,57.26,343.21,56.08,347Z"/><path class="cls-1" d="M38.43,575.16,6.69,580.63c-.6-2.08.1-4.28.34-6.48a12.24,12.24,0,0,0-.19-3.71c-.19-1.25-.75-2.45-1-3.69A35.8,35.8,0,0,1,5,560.47a30.77,30.77,0,0,0-3.38-13.53,18.37,18.37,0,0,1-1.36-11,74.89,74.89,0,0,0,.77-12.67,14.84,14.84,0,0,1,.48-3.53c.08-.1.08-.1.08-.2a16.81,16.81,0,0,0-.09-3.7c-.8-6.79-.14-13.51-1-20.2a60.23,60.23,0,0,1,.74-13c.08-9.15,1.1-18.23.34-27.27-.41-4.82-.88-9.68.5-14.24A102.55,102.55,0,0,0,4.3,428.16a65.31,65.31,0,0,1,3.26-16.37,13.89,13.89,0,0,0,.63-4.73c-.61-6.36.51-12.62,2.14-18.76,1.38-5.8,2.34-11.82,4.83-17.33a14.92,14.92,0,0,0,1-3.39c2.07-10.48,5.81-20.87,9.45-31L56.08,347c-1,5.82-2.87,7.88-5.07,13.51a16.32,16.32,0,0,0-.8,4.23,9.19,9.19,0,0,1-2.44,6.14,2.58,2.58,0,0,0-.82,2.05c.59,3.39-.36,6.71-1.27,9.87a34.46,34.46,0,0,0-.82,5.43,17.61,17.61,0,0,1-.45,4.38c-3.11,9.21-3.16,19-6.22,28.27a27.63,27.63,0,0,0-1,5.47c-.87,7-2.22,13.88-2.56,21-1.32,8-.59,16.32-1.06,24.4a12.39,12.39,0,0,0,.53,4.3,10.48,10.48,0,0,1-.68,9.72,6.25,6.25,0,0,0-.88,4.26,16.34,16.34,0,0,1,.26,2.19c.12,1.91.09,3.72.37,5.54s-.28,3.64.29,5.54a6.21,6.21,0,0,1-.21,3.19,23.57,23.57,0,0,0-.94,7.32,22.71,22.71,0,0,0,.12,2.55c.1.82.23,1.91.33,2.72.06.55.13,1.19.18,1.73.54,5,.78,9.91,1.12,14.91.4,3.89-.41,8,.74,11.82l2,10.49C37.46,561.92,37.66,571.3,38.43,575.16Z"/><path class="cls-1" d="M131.9,784l-25.21,20c-1.51-1.55-1.93-3.83-2.77-5.88A11.89,11.89,0,0,0,102,795c-.75-1-1.81-1.8-2.64-2.76A35.22,35.22,0,0,1,95.72,787a30.63,30.63,0,0,0-9.35-10.33,15.53,15.53,0,0,1-6.76-8.85,73.65,73.65,0,0,0-5.36-11.52A15.89,15.89,0,0,1,73,753c0-.13,0-.13,0-.21a15.9,15.9,0,0,0-1.84-3.21c-3.94-5.59-6.52-11.84-10.49-17.31A53.94,53.94,0,0,1,55,720.52c-4.31-8.08-7.76-16.55-12.76-24.13-2.79-4-5.25-8.15-6.27-12.8a99.92,99.92,0,0,0-4.33-12.34c-2.17-5.13-4.18-10.34-5-15.92a13.91,13.91,0,0,0-1.72-4.46,39.38,39.38,0,0,1-4.29-8.43L18,633.31c-1.58-5.74-3.64-11.48-4.12-17.51a15,15,0,0,0-.79-3.43c-1.6-5.09-2.78-10.38-4-15.68-.81-5.37-1.34-10.8-2.42-16.06l31.74-5.47c1.8,5.61,1.54,8.23,1.79,14.33a16.32,16.32,0,0,0,1.35,4.1,9.16,9.16,0,0,1,.82,6.55,2.55,2.55,0,0,0,.28,2.19c2.14,2.68,2.91,6,3.64,9.26a34.85,34.85,0,0,0,1.91,5.16,17.56,17.56,0,0,1,1.72,4.06c1.12,4.69,2.3,9.37,3.79,14a85.89,85.89,0,0,1,4.12,13.88,27.09,27.09,0,0,0,1.74,5.29c2.59,6.53,4.74,13.23,7.86,19.63,2.42,7.77,7.22,14.63,10.62,22a12.31,12.31,0,0,0,2.53,3.53,10.46,10.46,0,0,1,4.05,8.85,6.17,6.17,0,0,0,1.27,4.16,15.71,15.71,0,0,1,1.27,1.79,49.63,49.63,0,0,0,3.06,4.64c1,1.51,1.49,3.34,2.89,4.74a6.24,6.24,0,0,1,1.33,2.9A24.12,24.12,0,0,0,97.12,733a25.15,25.15,0,0,0,1.33,2.19l1.58,2.24,1,1.43c2.84,4.14,5.39,8.34,8.07,12.58,2,3.34,3.94,6.89,6.56,9.85l6.69,8.31C124.81,772.77,129.4,781,131.9,784Z"/><path class="cls-1" d="M313.9,923l-12.59,29.65c-2.05-.67-3.49-2.51-5.19-3.95a12.51,12.51,0,0,0-3.18-2c-1.14-.54-2.43-.75-3.62-1.21a35.28,35.28,0,0,1-5.62-2.92,30.46,30.46,0,0,0-13.05-4.83,18.91,18.91,0,0,1-10.37-4.18c-3.49-2.58-6.61-5.39-10.19-7.56a15,15,0,0,1-2.67-2.39c0-.13,0-.13-.12-.18a16.6,16.6,0,0,0-3.12-2c-6.07-3.13-11.26-7.5-17.29-10.51-3.79-2-7.83-3.87-10.91-7.11-7.55-5.16-14.54-11.08-22.45-15.48a55.88,55.88,0,0,1-11.8-8c-3.36-2.83-6.36-6.07-9.74-8.72a66,66,0,0,1-11.84-11.77,13.72,13.72,0,0,0-3.6-3.14,68.68,68.68,0,0,1-14.77-11.8c-4.08-4.33-8.58-8.44-11.83-13.55a14.61,14.61,0,0,0-2.3-2.66,260.44,260.44,0,0,1-21-24.67l25.21-20c4.24,4.08,5.1,6.65,8.78,11.44a16.14,16.14,0,0,0,3.1,3,9.33,9.33,0,0,1,3.8,5.42,2.56,2.56,0,0,0,1.26,1.82c3.14,1.36,5.4,4,7.54,6.48a34.14,34.14,0,0,0,4.09,3.66,17.45,17.45,0,0,1,3.41,2.79c3,3.8,6.75,6.89,10.37,10.08a85,85,0,0,1,10.1,10.41,28.14,28.14,0,0,0,4,3.88c5.47,4.41,10,9.94,16.4,13.34,6.09,5.37,13.24,9.54,19.72,14.39a12.22,12.22,0,0,0,3.86,1.95,10.5,10.5,0,0,1,7.68,6,5.51,5.51,0,0,0,3.25,2.82,17.3,17.3,0,0,1,2.08.82l5,2.48c1.6.87,2.86,2.29,4.74,2.88a6.23,6.23,0,0,1,2.52,2,28.29,28.29,0,0,0,7.73,6.24l2.44,1.26,1.52.82c4.47,2.28,8.5,5.15,13.17,7,3.61,1.53,6.84,4,10.55,5.38l9.76,4.29C302.4,916.29,310.28,921.45,313.9,923Z"/><path class="cls-1" d="M540.36,957.37l3.12,32.06c-2.12.39-4.26-.53-6.44-1a12.21,12.21,0,0,0-3.73-.18c-1.26.06-2.49.5-3.75.66a35.2,35.2,0,0,1-6.33.14,30.37,30.37,0,0,0-13.76,2,18.92,18.92,0,0,1-11.1,1.3c-4.3-.43-8.38-1.49-12.56-1.68a15.66,15.66,0,0,1-3.49-.83c-.1-.1-.1-.1-.19-.11a16.19,16.19,0,0,0-3.69-.27c-6.83.13-13.47-1.25-20.21-1a59.82,59.82,0,0,1-13-.76c-9.11-.83-18.05-2.88-27.1-3a55.68,55.68,0,0,1-14.19-1.51c-4.26-1.11-8.65-1.48-12.81-2.55a66.47,66.47,0,0,1-16-4.87,13.66,13.66,0,0,0-4.64-1.1c-6.33-.08-12.45-1.85-18.65-3.26a59.32,59.32,0,0,1-16.92-6.08,14.55,14.55,0,0,0-3.27-1.29c-10.19-3.15-20.15-8-30.35-11.39L313.9,923c5.8,1.23,8,2.63,13.38,5.34a15.93,15.93,0,0,0,4.13,1.21,9.33,9.33,0,0,1,5.89,3.05,2.57,2.57,0,0,0,2,1c3.39-.26,6.61,1,9.66,2.24a33.68,33.68,0,0,0,5.31,1.36,34.19,34.19,0,0,1,4.34.75c9.28,2.67,18.87,4.06,27.84,8a27.92,27.92,0,0,0,5.34,1.57L402,950c3.49.48,7,.9,10.59,1.06,7.9,1.86,16.17,2.17,24.16,3.4a12.17,12.17,0,0,0,4.32-.09,12,12,0,0,1,9.63,1.35,6,6,0,0,0,4.21.86,17,17,0,0,1,2.22-.26l5.58-.2c1.82,0,3.6.65,5.54.28a6.24,6.24,0,0,1,3.16.53,24.19,24.19,0,0,0,7.22,1.69c.82.13,1.64.08,2.55.13l2.74,0h1.74c5,0,9.93.37,14.93-.2,3.91-.39,7.94.25,11.85-.32l10.63-.92C527.06,957,536.45,957.74,540.36,957.37Z"/><path class="cls-1" d="M755.63,879.37,773.76,906c-1.51,1.59-3.92,1.69-6,2.36a12.07,12.07,0,0,0-3.36,1.61c-1.08.66-2,1.63-3,2.37a36.41,36.41,0,0,1-5.51,3.13,30.38,30.38,0,0,0-11.15,8.31,18.87,18.87,0,0,1-9.14,6.42c-4,1.64-8,2.87-11.8,4.62a15.63,15.63,0,0,1-3.46,1c-.13,0-.13,0-.22,0a16.45,16.45,0,0,0-3.37,1.52c-5.93,3.38-12.43,5.36-18.24,8.78a54.8,54.8,0,0,1-11.81,5.5c-8.45,3.51-17.23,6.13-25.23,10.36a56,56,0,0,1-13.17,5.51c-4.2,1.28-8.4,2.52-12.54,3.67a65.94,65.94,0,0,1-16.35,3.44,13.39,13.39,0,0,0-4.6,1.28c-5.59,3-11.81,4.38-17.92,6.14a76,76,0,0,1-17.8,2.55,14.57,14.57,0,0,0-3.49.44c-10.45,2.08-21.5,2.82-32.09,4.48l-3.12-32.06c5.72-1.42,8.27-1.45,14.32-1.62a16.3,16.3,0,0,0,4.21-.93,9.28,9.28,0,0,1,6.62-.16,2.59,2.59,0,0,0,2.21,0c2.86-1.86,6.29-2.29,9.56-2.69a35,35,0,0,0,5.31-1.37,17.22,17.22,0,0,1,4.19-1.3c9.47-1.87,18.5-5.48,28.27-6.28a27.09,27.09,0,0,0,5.44-1.2c6.76-1.87,13.69-3.25,20-6.69,7.82-2.18,15.21-5.88,22.81-8.66a12,12,0,0,0,3.74-2.16,11.29,11.29,0,0,1,9.15-3.31,6,6,0,0,0,4.11-1.26,17.2,17.2,0,0,1,1.82-1.29l4.8-2.84c1.59-.88,3.47-1.16,5-2.41a6.18,6.18,0,0,1,3-1,28.72,28.72,0,0,0,9.45-3.08l2.38-1.36,1.52-.83a125.91,125.91,0,0,0,13-7.39c3.25-2.2,7.1-3.55,10.26-5.92l8.92-5.85C743.8,885.45,752.57,881.87,755.63,879.37Z"/><path class="cls-1" d="M907.12,707.67l28.64,14.74c-.68,2.06-2.49,3.43-3.92,5.1a11.81,11.81,0,0,0-1.94,3.15c-.5,1.16-.93,2.37-1.47,3.51a36,36,0,0,1-3.44,5.32,30.12,30.12,0,0,0-6,12.5,18.85,18.85,0,0,1-5.15,9.91,72.89,72.89,0,0,0-7.72,10,10.33,10.33,0,0,1-2.56,2.5c-.14,0-.14,0-.19.1a16.07,16.07,0,0,0-2.29,2.91c-3.69,5.74-8.55,10.51-12.11,16.21A60.11,60.11,0,0,1,881,804c-4.89,7.82-12,13.77-16.95,21.33a55.4,55.4,0,0,1-9.1,11,101.53,101.53,0,0,0-8.94,9.54,60.44,60.44,0,0,1-12.79,10.74,13.59,13.59,0,0,0-3.46,3.28c-3.53,5.24-8.37,9.38-12.95,13.78-2.2,2-4.25,4.24-6.56,6.16a49.84,49.84,0,0,1-7.57,4.92,14.63,14.63,0,0,0-2.87,2c-8.19,6.83-17.75,12.45-26.08,19.24l-18.13-26.62c4.14-4.28,6.54-5.26,11.76-8.34a15.8,15.8,0,0,0,3.27-2.8,9.35,9.35,0,0,1,5.78-3.26,2.63,2.63,0,0,0,1.93-1.09c1.63-3,4.46-5,7.15-6.87a33.26,33.26,0,0,0,4-3.71,17.94,17.94,0,0,1,2.81-3.45c7.33-6.3,13.76-13.54,22-18.87a28.2,28.2,0,0,0,4.25-3.6c5.31-4.61,9.73-10.13,14.12-15.76,5.94-5.56,10.76-12.26,16.21-18.24a12.16,12.16,0,0,0,2.31-3.64,10.45,10.45,0,0,1,6-7.68,6.1,6.1,0,0,0,3.08-3,17.54,17.54,0,0,1,1-2c1-1.63,2-3.18,3-4.72s2.55-2.64,3.32-4.44a6.24,6.24,0,0,1,2.21-2.33,24.59,24.59,0,0,0,5.44-5.08,23.1,23.1,0,0,0,1.54-2l1.48-2.3c.3-.45.65-1,.94-1.45,2.36-4.45,4.91-8.65,7.43-13,1.87-3.44,4.68-6.43,6.39-10l5.22-9.29C900.49,719.11,905.68,711.35,907.12,707.67Z"/><path class="cls-1" d="M958.29,484.55l32.2-.77c.34,2.14-.63,4.2-1.14,6.35a12,12,0,0,0-.27,3.7c0,1.26.45,2.52.44,3.79a36.19,36.19,0,0,1-.49,6.31c-.7,4.66-.84,9.21.62,13.86a18.81,18.81,0,0,1,.19,11.16,72.8,72.8,0,0,0-2.05,12.45,15,15,0,0,1-.84,3.44c-.1.09-.1.09-.1.19-.2,1.25-.42,2.49-.51,3.66-.55,6.79-2.58,13.3-3,20a60.69,60.69,0,0,1-2.07,12.87c-.5,4.55-1.25,9.07-1.88,13.57a125.05,125.05,0,0,0-2.51,13.33,55.64,55.64,0,0,1-2.9,14A100.83,100.83,0,0,0,970.5,635c-.56,2.74-1.17,5.46-2,8.13a45.12,45.12,0,0,1-3.69,7.56,13.91,13.91,0,0,0-1.55,4.52c-.68,6.26-3,12.17-5.06,18.2-2,5.61-3.43,11.59-6.65,16.7a14.68,14.68,0,0,0-1.6,3.13c-4.1,9.84-10,19.26-14.24,29.13l-28.64-14.74c1.69-5.69,3.38-7.68,6.59-12.83a15.68,15.68,0,0,0,1.61-4,9.48,9.48,0,0,1,3.63-5.57,2.61,2.61,0,0,0,1.21-1.86c0-3.41,1.87-6.36,2.93-9.47a35.65,35.65,0,0,0,1.35-5.36,17.78,17.78,0,0,1,.89-4.35c3.58-9,5.91-18.34,10.76-26.91a16.88,16.88,0,0,0,1.93-5.22c1.56-6.85,3.57-13.59,4.62-20.66,2.59-7.71,3.94-15.83,5.67-23.72a12.47,12.47,0,0,0-.1-4.37,10.46,10.46,0,0,1,1.65-9.59,6.17,6.17,0,0,0,1.29-4.12,16.53,16.53,0,0,1,0-2.22c.13-1.91.26-3.73.38-5.55s1-3.53.84-5.48a6.24,6.24,0,0,1,.85-3.1,24.76,24.76,0,0,0,2.42-7,23.17,23.17,0,0,0,.39-2.53c.11-.81-.08-1.93,0-2.75,0-.54,0-1.19,0-1.74,0-5,.21-10,.37-15,0-3.92,1.06-7.89.88-11.82l.17-10.66C957.75,497.8,958.59,488.48,958.29,484.55Z"/><path class="cls-1" d="M896.45,264.19l27.89-16.13c1.33,1.72,1.47,4,2.06,6.12a11.77,11.77,0,0,0,1.54,3.37c.6,1.12,1.5,2.07,2.17,3.14a36.05,36.05,0,0,1,2.73,5.71,30.32,30.32,0,0,0,7.52,11.71,17.17,17.17,0,0,1,5.4,9.76,73.65,73.65,0,0,0,3.86,12.07,15.2,15.2,0,0,1,.83,3.46c-.05.12-.05.12,0,.21a21.18,21.18,0,0,0,1.39,3.43c2.88,6.19,4.32,12.83,7.25,18.9a42.94,42.94,0,0,1,4.22,12.33c3,8.64,5.76,17.36,9,25.77a55.2,55.2,0,0,1,4.23,13.62c.82,4.32,1.8,8.6,2.76,12.78,1.37,5.39,2.57,10.85,2.55,16.5a14,14,0,0,0,1,4.66c2.36,5.83,3.08,12.16,4.16,18.42,1,5.88,2.29,11.85,1.67,17.9a14.73,14.73,0,0,0,.2,3.51c.73,5.28,1,10.69,1.3,16.11,0,5.44,0,10.88.34,16.24l-32.2.77c-1.11-5.81-.52-8.37,0-14.44a13.07,13.07,0,0,0-.59-4.26,9.25,9.25,0,0,1,.28-6.62A2.63,2.63,0,0,0,958,457c-1.67-3-1.87-6.43-2.06-9.72a27.23,27.23,0,0,0-1.07-5.39,17.53,17.53,0,0,1-1.27-4.25c-1.25-9.57-3.11-19-3.72-28.73a27.49,27.49,0,0,0-.91-5.49c-1.53-6.85-2.61-13.82-5.29-20.48-1.5-8-4.13-15.78-6.82-23.42a12.42,12.42,0,0,0-2-3.84,10.46,10.46,0,0,1-2.79-9.32,6.18,6.18,0,0,0-.69-4.29,17.82,17.82,0,0,1-1.14-1.91c-.83-1.73-1.63-3.38-2.43-5s-.86-3.56-2-5.17a6.1,6.1,0,0,1-.79-3.11,24.53,24.53,0,0,0-1.39-7.29,13.39,13.39,0,0,0-1-2.37l-1.3-2.42c-.25-.49-.54-1.06-.8-1.54-2.31-4.47-4.32-8.95-6.45-13.49-1.69-3.53-2.78-7.46-4.94-10.76l-5.22-9.3C902.21,276.12,898.69,267.44,896.45,264.19Z"/><path class="cls-1" d="M894.09,242.12c-1.49,2.38-3.22,4.57-2.06,7.52l.32,3.69c-.12,4.25,2.75,7.1,4,10.92l27.88-16.13c-1.86-3.55,1.55.79-2.2-5.05-2.09-3.19-2.13-2.15-5.41-4-2.42-1.14-2.39-.36-5.15-1.16-2.31-.82-1.3-2-4.4-1-2.54-.44-1.51-.75-3.86.63-1.27.8-2.06.63-4.59,1.91C895.24,242.16,895.91,240.62,894.09,242.12Z"/><path class="cls-1" d="M803.1,122.27c-2.15,3.35-4.3,6.71-5.45,10.69a23.1,23.1,0,0,1-3.22,7.29,16.5,16.5,0,0,0-2.2,5.55c-.39,2.28-.73,4.47-1.33,6.81a23.62,23.62,0,0,0,.87,14.09,18.41,18.41,0,0,1,1.75,6.34l.16,1.86a22.21,22.21,0,0,0,3.84,10.41,11.83,11.83,0,0,0,6,5.33,19.33,19.33,0,0,1,3.31,1.55,16.41,16.41,0,0,0,8.23,3.8,9.37,9.37,0,0,1,3.46,1.39c3.44,1.78,7.22,2.12,11.2,2.13,2.9,0,5.87.25,8.69-.89a6.8,6.8,0,0,1,5.57-.05,11.25,11.25,0,0,0,2.79.72,2.84,2.84,0,0,0,1.92-.19l6.12-3.21a9.1,9.1,0,0,1,2.71-1.3,8,8,0,0,0,5.55-3.76,8.84,8.84,0,0,1,3.33-3.63,15,15,0,0,0,4.66-5.12,41.59,41.59,0,0,1,2.42-4.44,7.54,7.54,0,0,0,1.27-3.76,23,23,0,0,1,2.3-7.81,11.9,11.9,0,0,0,1.53-4.76c.39-2.07.66-4.05.84-6.1a14.42,14.42,0,0,0-.11-3,47.1,47.1,0,0,1-1.08-7.27,9.16,9.16,0,0,0-1-3.07c-2.47-4.42-4.89-8.81-8.49-12.64-2.22-2.3-4-5.06-6.92-7.66-2.21-3.06-6.11-4.22-9.54-6.11a7.81,7.81,0,0,0-2.95-.76,97.15,97.15,0,0,1-14.83-1.18c-4.72-.75-9.58.12-14.22-.06-3.33.71-6.58,1.37-9.79,2.19a2.63,2.63,0,0,0-1,.4C807.22,117.89,804.66,119.64,803.1,122.27Z"/></g></g></svg>