<svg xmlns="http://www.w3.org/2000/svg" viewBox="0 0 285.23 285.17"><defs><style>.cls-1{fill:#fff;}.cls-2{fill:#1b1b1b;}</style></defs><g id="レイヤー_2" data-name="レイヤー 2"><g id="creator-hover"><circle class="cls-1" cx="142.71" cy="142.52" r="138.87"/><path class="cls-2" d="M226.14,27l-4,5.56a21.9,21.9,0,0,1,2.09,2c.35.34.74.64,1.11.94.75.46,1.17,0,2,.22l1.15-.39c.25-.46,1.68-1.21,1.25-1.79s.82-1.66.06-1.93c-.68-.47-1.05-2.35-1.75-2.85A18.21,18.21,0,0,1,226.14,27Z"/><path class="cls-2" d="M176.67,11.24,178.4,4.6a3.68,3.68,0,0,1,1.24.61,2.42,2.42,0,0,0,.75.28c.26.07.55.06.81.11a7.57,7.57,0,0,1,1.31.39,6.54,6.54,0,0,0,2.9.64,4,4,0,0,1,2.32.58,16,16,0,0,0,2.47,1.12,3.75,3.75,0,0,1,.66.4s0,0,0,0a3.75,3.75,0,0,0,.73.3c1.4.43,2.67,1.16,4.06,1.57a9.65,9.65,0,0,1,2.58,1.07c1.82.73,3.56,1.65,5.42,2.2a9.13,9.13,0,0,1,2.8,1.22A21.9,21.9,0,0,0,209,16.46,13.9,13.9,0,0,1,212,18.27a3.1,3.1,0,0,0,.89.5,19.2,19.2,0,0,1,3.64,1.79,15.55,15.55,0,0,1,3.24,2.08,2.63,2.63,0,0,0,.61.44c2,1.19,3.8,2.67,5.72,4l-4,5.56a12,12,0,0,1-2.55-1.86,3.54,3.54,0,0,0-.81-.47,2.08,2.08,0,0,1-1.09-1,.62.62,0,0,0-.37-.32,4.87,4.87,0,0,1-1.92-1,6.79,6.79,0,0,0-1.09-.52,3.71,3.71,0,0,1-.89-.37A59.46,59.46,0,0,1,208,23.77a5.87,5.87,0,0,0-1.06-.6c-1.38-.67-2.72-1.43-4.16-2a13.32,13.32,0,0,0-2.4-1.17c-.82-.34-1.66-.66-2.46-1a2.46,2.46,0,0,0-.92-.24,2.35,2.35,0,0,1-1.92-.92,1.24,1.24,0,0,0-.81-.48c-.16,0-.33,0-.48-.09-.4-.12-.79-.22-1.16-.35a6,6,0,0,0-1.14-.43,1.62,1.62,0,0,1-.62-.33,5.73,5.73,0,0,0-1.38-.84c-.16-.08-.34-.13-.52-.2s-.41-.11-.57-.18l-.36-.11L185,13.86c-.83-.23-1.61-.67-2.44-.85s-1.49-.46-2.25-.63S177.51,11.42,176.67,11.24Z"/><path class="cls-2" d="M126.59,7.84,125.76,1a3.5,3.5,0,0,1,1.39.15,2.68,2.68,0,0,0,.8,0c.27,0,.53-.13.8-.18a7.71,7.71,0,0,1,1.36-.08A6.51,6.51,0,0,0,133,.38a3.56,3.56,0,0,1,2.37-.3,15.81,15.81,0,0,0,2.72.21,3.9,3.9,0,0,1,.75.12l0,0a3.54,3.54,0,0,0,.8,0c1.46-.14,2.9,0,4.34,0a13.17,13.17,0,0,1,2.8.09c2,0,3.92.11,5.85.06a12,12,0,0,1,3.06.11,22,22,0,0,0,2.79.28,13.33,13.33,0,0,1,3.52.65,2.86,2.86,0,0,0,1,.13,17.18,17.18,0,0,1,4,.27,20.33,20.33,0,0,1,3.77.84,3.1,3.1,0,0,0,.73.17,34.26,34.26,0,0,1,3.4.71c1.11.33,2.23.67,3.36.91l-1.73,6.64a9.83,9.83,0,0,1-3-.88,3.06,3.06,0,0,0-.93-.15,2,2,0,0,1-1.37-.46.57.57,0,0,0-.45-.15,5,5,0,0,1-2.17-.17,8.13,8.13,0,0,0-1.19-.12,3.82,3.82,0,0,1-1-.05c-2.06-.47-4.19-.47-6.23-1.13a6.9,6.9,0,0,0-1.19-.21L158,7.77l-1.14-.08a22.39,22.39,0,0,0-2.32-.08,21.56,21.56,0,0,0-2.66-.25c-.89-.05-1.78-.08-2.66-.08a2.81,2.81,0,0,0-.94.13,2.35,2.35,0,0,1-2.13-.09,1.36,1.36,0,0,0-.93-.17,4,4,0,0,1-.48.07c-.41,0-.81.06-1.21.07a5.4,5.4,0,0,0-1.21,0,1.36,1.36,0,0,1-.69,0A5.12,5.12,0,0,0,140,7a5.32,5.32,0,0,0-.56,0c-.18,0-.41.06-.59.06l-.38,0c-1.09.09-2.17.12-3.26.18a20.28,20.28,0,0,0-2.58.14l-2.31.29C129.49,7.8,127.44,7.71,126.59,7.84Z"/><path class="cls-2" d="M78.68,22.92l-3.24-6.05a3.5,3.5,0,0,1,1.34-.36,2.54,2.54,0,0,0,.75-.29c.24-.12.45-.31.68-.45a8.22,8.22,0,0,1,1.24-.58A6.67,6.67,0,0,0,82,13.61a4,4,0,0,1,2.12-1.1,15.34,15.34,0,0,0,2.59-.82,3.06,3.06,0,0,1,.74-.17h0a3.39,3.39,0,0,0,.73-.3c1.32-.65,2.75-.93,4.05-1.57a13.13,13.13,0,0,1,2.63-1c1.82-.72,3.74-1.19,5.48-2a9.31,9.31,0,0,1,2.89-1,22,22,0,0,0,2.71-.7,13,13,0,0,1,3.5-.75,2.71,2.71,0,0,0,1-.24,19.58,19.58,0,0,1,3.89-1.14,16.31,16.31,0,0,1,3.79-.68,3.22,3.22,0,0,0,.75-.1c2.24-.46,4.61-.55,6.87-1l.83,6.81a9.86,9.86,0,0,1-3.13.39,3.67,3.67,0,0,0-.91.2,2.13,2.13,0,0,1-1.45,0,.54.54,0,0,0-.48,0,5.11,5.11,0,0,1-2.09.58,8.58,8.58,0,0,0-1.15.37,4.27,4.27,0,0,1-.9.34,56.94,56.94,0,0,1-6.23,1.16,5.94,5.94,0,0,0-1.18.27c-1.47.44-3,.78-4.43,1.34a48.36,48.36,0,0,0-5.06,1.68,2.49,2.49,0,0,0-.84.44,2.56,2.56,0,0,1-2,.66,1.32,1.32,0,0,0-.92.2,3.5,3.5,0,0,1-.42.24c-.37.19-.73.37-1.09.53a6.33,6.33,0,0,0-1.14.43,1.3,1.3,0,0,1-.68.17,5.11,5.11,0,0,0-1.59.32,5.23,5.23,0,0,0-.51.22c-.16.08-.36.21-.53.28l-.33.17c-1,.5-2,.93-3,1.39-.76.39-1.65.55-2.38,1l-2,1.12C81.36,21.82,79.42,22.49,78.68,22.92Z"/><path class="cls-2" d="M39.6,54.45,34.38,50a3.72,3.72,0,0,1,1.1-.85,2.7,2.7,0,0,0,.58-.54c.18-.21.3-.47.46-.69a7.87,7.87,0,0,1,.92-1,7,7,0,0,0,1.84-2.35,4.07,4.07,0,0,1,1.53-1.84A23.82,23.82,0,0,0,42.92,41a3.54,3.54,0,0,1,.64-.42h0a3.73,3.73,0,0,0,.58-.53c1-1.08,2.19-1.91,3.15-3a12.41,12.41,0,0,1,2.13-1.82c1.45-1.33,3-2.57,4.35-3.92a11.49,11.49,0,0,1,2.32-2c.8-.51,1.51-1.12,2.25-1.67a14.23,14.23,0,0,1,3-1.93,3,3,0,0,0,.83-.61,14.45,14.45,0,0,1,3.19-2.5,20.37,20.37,0,0,1,3.3-2,2.81,2.81,0,0,0,.64-.39c1.93-1.23,4.12-2.17,6.07-3.39l3.24,6.05A9.64,9.64,0,0,1,75.9,24.4a4.16,4.16,0,0,0-.79.52,2.11,2.11,0,0,1-1.34.55.6.6,0,0,0-.45.18A5.39,5.39,0,0,1,71.63,27a8,8,0,0,0-.95.74,3.93,3.93,0,0,1-.73.63c-.91.55-1.79,1.13-2.66,1.72a19.43,19.43,0,0,1-2.69,1.66,5.94,5.94,0,0,0-1,.66c-.61.47-1.26.89-1.86,1.36s-1.19,1-1.76,1.52a39.16,39.16,0,0,0-4.12,3.38,2.71,2.71,0,0,0-.6.73,2.36,2.36,0,0,1-1.64,1.36,1.36,1.36,0,0,0-.8.5,3.79,3.79,0,0,1-.31.37c-.29.3-.56.59-.83.89s-.65.47-.88.83a1.32,1.32,0,0,1-.56.42,5.34,5.34,0,0,0-1.34.9,4.73,4.73,0,0,0-.41.38c-.13.12-.27.32-.4.44l-.27.28c-.76.78-1.48,1.58-2.23,2.38-.56.64-1.29,1.15-1.83,1.83s-1.06,1.13-1.52,1.76S40.13,53.77,39.6,54.45Z"/><path class="cls-2" d="M14.62,98,8.14,95.75a3.4,3.4,0,0,1,.71-1.19,2.55,2.55,0,0,0,.33-.73c.09-.25.1-.54.17-.8a9.82,9.82,0,0,1,.54-1.25,6.57,6.57,0,0,0,.85-2.86,4.09,4.09,0,0,1,.73-2.27,17.14,17.14,0,0,0,1.39-2.34,3.39,3.39,0,0,1,.44-.63s0,0,0,0a3.89,3.89,0,0,0,.35-.71c.51-1.38,1.3-2.6,1.87-3.92a13.05,13.05,0,0,1,1.3-2.48c.8-1.8,1.89-3.43,2.63-5.22A12.29,12.29,0,0,1,20.9,68.6a24.81,24.81,0,0,0,1.54-2.34,13.56,13.56,0,0,1,2.07-2.92,4,4,0,0,0,.55-.87A19.22,19.22,0,0,1,27.14,59a14.77,14.77,0,0,1,2.35-3,3.29,3.29,0,0,0,.48-.58c1.33-1.86,2.94-3.6,4.41-5.37l5.22,4.45a12.21,12.21,0,0,1-2.09,2.36,3.42,3.42,0,0,0-.53.77,2.09,2.09,0,0,1-1,1,.55.55,0,0,0-.34.34,4.92,4.92,0,0,1-1.13,1.85,5.37,5.37,0,0,0-.61,1,4.1,4.1,0,0,1-.44.86c-.64.84-1.22,1.72-1.83,2.58-.3.44-.61.86-.94,1.27a14.94,14.94,0,0,1-1,1.24,5.57,5.57,0,0,0-.69,1,38.51,38.51,0,0,0-2.35,4c-1,1.47-1.73,3.12-2.61,4.65a2.28,2.28,0,0,0-.3.9,2.34,2.34,0,0,1-1,1.87,1.35,1.35,0,0,0-.55.77c-.06.15-.08.32-.15.46-.16.39-.3.76-.47,1.12A5.77,5.77,0,0,0,21,83.6a1.48,1.48,0,0,1-.36.6,5.54,5.54,0,0,0-.92,1.33c-.09.15-.14.32-.23.51s-.13.39-.21.56-.09.24-.14.35c-.38,1-.87,2-1.25,3-.28.81-.77,1.56-1,2.38l-.79,2.19C15.73,95.34,14.87,97.19,14.62,98Z"/><path class="cls-2" d="M7.16,147.65l-6.86.27a3.32,3.32,0,0,1,.25-1.37,2.59,2.59,0,0,0,.07-.79c0-.28-.09-.55-.11-.82a7.73,7.73,0,0,1,0-1.36,6.72,6.72,0,0,0-.32-3,4,4,0,0,1-.07-2.39,15.64,15.64,0,0,0,.4-2.68,3.38,3.38,0,0,1,.17-.75s0,0,0,0A3.57,3.57,0,0,0,.79,134c0-1.47.36-2.88.36-4.33a12.48,12.48,0,0,1,.27-2.78c.15-2,.56-3.89.56-5.83a9.64,9.64,0,0,1,.36-3,20.32,20.32,0,0,0,.56-2.75,12,12,0,0,1,.87-3.47,2.75,2.75,0,0,0,.22-1,19.61,19.61,0,0,1,.64-4,16,16,0,0,1,1.12-3.69,4.32,4.32,0,0,0,.23-.72A31.49,31.49,0,0,1,7,99c.41-1.09.83-2.18,1.16-3.28L14.62,98A9.72,9.72,0,0,1,13.51,101a3.12,3.12,0,0,0-.23.91,2,2,0,0,1-.57,1.32.57.57,0,0,0-.19.45,4.79,4.79,0,0,1-.36,2.14A8.23,8.23,0,0,0,12,107a4.36,4.36,0,0,1-.14,1A45.22,45.22,0,0,1,10.16,114a5.32,5.32,0,0,0-.27,1.18c-.24,1.52-.59,3-.72,4.57a46.54,46.54,0,0,0-.72,5.28,2.93,2.93,0,0,0,0,.94,2.49,2.49,0,0,1-.29,2.11A1.38,1.38,0,0,0,8,129a4,4,0,0,1,0,.49c0,.42,0,.82,0,1.21a6.89,6.89,0,0,0-.11,1.21,1.3,1.3,0,0,1-.14.69,4.79,4.79,0,0,0-.4,1.56,3.41,3.41,0,0,0,0,.56c0,.18,0,.42,0,.6s0,.26,0,.38c0,1.1,0,2.17,0,3.26a24.93,24.93,0,0,0-.11,2.59l.11,2.33C7.34,144.76,7.07,146.8,7.16,147.65Z"/><path class="cls-2" d="M18.35,196.61l-6.29,2.73a3.59,3.59,0,0,1-.29-1.35,2.61,2.61,0,0,0-.25-.76c-.1-.25-.3-.46-.41-.71a7,7,0,0,1-.44-1.29,6.69,6.69,0,0,0-1.32-2.67,4,4,0,0,1-1-2.17,17.17,17.17,0,0,0-.57-2.66,3.86,3.86,0,0,1-.1-.76s0,0,0-.05a3.54,3.54,0,0,0-.23-.76c-.52-1.37-.82-2.78-1.28-4.15a12.93,12.93,0,0,1-.71-2.7c-.29-.94-.54-1.89-.81-2.83s-.47-1.89-.81-2.8a12.37,12.37,0,0,1-.78-3c-.11-.94-.33-1.85-.5-2.76a14.13,14.13,0,0,1-.42-3.55,3,3,0,0,0-.19-1,14.73,14.73,0,0,1-.85-4,21.51,21.51,0,0,1-.35-3.84,2.72,2.72,0,0,0-.06-.75c-.28-2.27-.15-4.65-.4-6.94l6.86-.27a9.76,9.76,0,0,1,.11,3.15,3.48,3.48,0,0,0,.12.93,2.13,2.13,0,0,1-.09,1.45.57.57,0,0,0,0,.48,5.51,5.51,0,0,1,.48,2.12A7.6,7.6,0,0,0,8,157a3.94,3.94,0,0,1,.24.94c.1,1.05.24,2.09.38,3.14a18.28,18.28,0,0,1,.32,3.15,6.07,6.07,0,0,0,.16,1.2l.39,2.27c.17.75.36,1.5.6,2.24a51.61,51.61,0,0,0,1.22,5.2,2.84,2.84,0,0,0,.4.86,2.37,2.37,0,0,1,.52,2.06,1.38,1.38,0,0,0,.1.94,4.28,4.28,0,0,1,.2.44c.15.39.29.77.42,1.15a4.15,4.15,0,0,0,.34,1.16,1.3,1.3,0,0,1,.14.68,5.72,5.72,0,0,0,.22,1.6,4.15,4.15,0,0,0,.18.53c.05.17.16.39.22.56l.13.35c.42,1,.69,2.06,1.12,3.07.35.78.49,1.66.87,2.43l.91,2.15C17.37,193.89,18,195.84,18.35,196.61Z"/><path class="cls-2" d="M46.52,238.17,41.66,243a3.82,3.82,0,0,1-.74-1.18,2.63,2.63,0,0,0-.48-.63c-.19-.2-.44-.34-.64-.52a7.3,7.3,0,0,1-.9-1,7.08,7.08,0,0,0-2.24-2A4.07,4.07,0,0,1,35,236a16.07,16.07,0,0,0-1.53-2.24,2.7,2.7,0,0,1-.38-.66s0,0,0,0a4.31,4.31,0,0,0-.49-.62c-1-1.09-1.69-2.37-2.67-3.43a11.29,11.29,0,0,1-1.69-2.23C27,225.2,26,223.53,24.65,222.1a10,10,0,0,1-1.77-2.49,23.18,23.18,0,0,0-1.47-2.39c-.34-.49-.68-1-1-1.49a10.67,10.67,0,0,1-.72-1.66,2.84,2.84,0,0,0-.52-.88,20.41,20.41,0,0,1-2.27-3.36,20.2,20.2,0,0,1-1.66-3.48,3.26,3.26,0,0,0-.32-.68c-1.17-2-1.86-4.26-2.88-6.33l6.29-2.73a9.67,9.67,0,0,1,1.2,2.92,3.42,3.42,0,0,0,.43.83,2.1,2.1,0,0,1,.48,1.36.57.57,0,0,0,.16.46,5,5,0,0,1,1.2,1.8,8,8,0,0,0,.64,1,3.86,3.86,0,0,1,.55.79,54.25,54.25,0,0,1,2.93,5.61,5.54,5.54,0,0,0,.58,1.07c.85,1.27,1.62,2.6,2.59,3.82a36.41,36.41,0,0,0,3,4.38,3,3,0,0,0,.67.67A2.32,2.32,0,0,1,34,223.1a1.33,1.33,0,0,0,.47.82,2.73,2.73,0,0,1,.35.33c.29.3.57.59.83.89a6.65,6.65,0,0,0,.74,1,1.29,1.29,0,0,1,.37.59,5.6,5.6,0,0,0,.76,1.43,3.55,3.55,0,0,0,.35.44c.11.14.3.29.42.43l.26.27c.76.79,1.46,1.6,2.19,2.42.6.62,1,1.42,1.66,2l1.66,1.63C44.69,235.92,45.9,237.57,46.52,238.17Z"/><path class="cls-2" d="M87.94,266.58l-2.78,6.27A3.8,3.8,0,0,1,84,272a2.36,2.36,0,0,0-.69-.4,6.46,6.46,0,0,0-.78-.25,6.91,6.91,0,0,1-1.22-.6,7.37,7.37,0,0,0-2.78-1.08,4,4,0,0,1-2.19-.95,20.19,20.19,0,0,0-2.25-1.52,3.35,3.35,0,0,1-.58-.5s0,0,0,0a3.42,3.42,0,0,0-.68-.41c-1.31-.64-2.45-1.55-3.76-2.17a11.74,11.74,0,0,1-2.35-1.51c-.85-.5-1.67-1-2.49-1.56-.42-.26-.83-.51-1.26-.75s-.82-.5-1.25-.73a11.66,11.66,0,0,1-2.57-1.66c-.72-.62-1.5-1.14-2.25-1.67a14.38,14.38,0,0,1-2.71-2.34,3,3,0,0,0-.82-.62,9.24,9.24,0,0,1-1.73-1c-.54-.42-1-.86-1.58-1.29a20.65,20.65,0,0,1-2.86-2.59,3.33,3.33,0,0,0-.55-.51c-1.74-1.49-3.27-3.31-5-4.83l4.86-4.84a9.79,9.79,0,0,1,2.22,2.23,3.7,3.7,0,0,0,.72.61,2.05,2.05,0,0,1,.91,1.12.65.65,0,0,0,.31.38,5.49,5.49,0,0,1,1.78,1.24,9.15,9.15,0,0,0,1,.69,3.81,3.81,0,0,1,.82.52c.78.71,1.58,1.39,2.4,2A17.53,17.53,0,0,1,59,249.12a7,7,0,0,0,.93.78,30.44,30.44,0,0,0,3.79,2.63,36.88,36.88,0,0,0,4.43,3,2.43,2.43,0,0,0,.87.37,2.38,2.38,0,0,1,1.77,1.19,1.31,1.31,0,0,0,.71.62c.14.07.31.11.44.19.37.2.74.35,1.09.54a6.35,6.35,0,0,0,1,.6,1.46,1.46,0,0,1,.57.42,5.4,5.4,0,0,0,1.24,1,4.33,4.33,0,0,0,.48.28c.15.09.38.17.54.26l.33.17,2.93,1.45c.78.36,1.47.92,2.27,1.24s1.4.68,2.13.95S87.14,266.26,87.94,266.58Z"/><path class="cls-2" d="M136.82,278l-.3,6.85a3.43,3.43,0,0,1-1.34-.33,2.6,2.6,0,0,0-.79-.11c-.27,0-.55.06-.82.06a7.64,7.64,0,0,1-1.35-.15,6.52,6.52,0,0,0-3,0,4.09,4.09,0,0,1-2.4-.05,18.2,18.2,0,0,0-2.64-.66,2.77,2.77,0,0,1-.72-.24l0,0a3.18,3.18,0,0,0-.79-.13c-1.46-.11-2.86-.49-4.29-.67a13.16,13.16,0,0,1-2.74-.54c-1-.15-1.94-.32-2.9-.52a25.32,25.32,0,0,0-2.87-.5,12.45,12.45,0,0,1-3-.58c-.9-.28-1.79-.59-2.69-.79a14.77,14.77,0,0,1-3.39-1.16,3.15,3.15,0,0,0-1-.27,18.23,18.23,0,0,1-3.92-1,15.54,15.54,0,0,1-3.6-1.37,3.52,3.52,0,0,0-.69-.3c-1.08-.36-2.15-.83-3.22-1.3l-1.6-.69c-.52-.25-1-.49-1.59-.7l2.78-6.27a12.91,12.91,0,0,1,2.86,1.31,3.19,3.19,0,0,0,.89.29,2.12,2.12,0,0,1,1.27.7.59.59,0,0,0,.42.24,4.92,4.92,0,0,1,2.09.55,6.4,6.4,0,0,0,1.17.28,4.2,4.2,0,0,1,1,.18c2,.73,4,1.28,6,2.15a6,6,0,0,0,1.15.38,33.81,33.81,0,0,0,4.49,1.1c1.69.55,3.48.77,5.2,1.19a2.77,2.77,0,0,0,1,0,2.34,2.34,0,0,1,2.08.43,1.34,1.34,0,0,0,.89.31,3.81,3.81,0,0,1,.48,0c.42,0,.82.07,1.21.13a4.71,4.71,0,0,0,1.19.21,1.46,1.46,0,0,1,.68.17,5.18,5.18,0,0,0,1.53.5c.18,0,.36,0,.56.08s.42,0,.59,0l.38,0c1.1.07,2.15.27,3.25.33.85,0,1.71.29,2.57.29l2.32.13C133.94,277.72,136,278,136.82,278Z"/><path class="cls-2" d="M186.52,270.86l2.21,6.49a3.72,3.72,0,0,1-1.38.16,2.66,2.66,0,0,0-.78.17c-.26.08-.49.24-.74.34a7.57,7.57,0,0,1-1.31.39,7.7,7.7,0,0,0-2.77,1.1,4,4,0,0,1-2.26.77,15.6,15.6,0,0,0-2.68.42,2.73,2.73,0,0,1-.76.05l-.05,0a3.85,3.85,0,0,0-.78.15c-1.4.41-2.86.5-4.24.92a10.08,10.08,0,0,1-2.75.53c-1.92.39-3.87.59-5.73,1.16a10.51,10.51,0,0,1-3,.51,21.43,21.43,0,0,0-2.79.27c-.59.09-1.18.18-1.77.23a9.87,9.87,0,0,1-1.8-.08,2.74,2.74,0,0,0-1,.09,19.28,19.28,0,0,1-4,.56,18.45,18.45,0,0,1-3.86,0,3.76,3.76,0,0,0-.75,0,26.8,26.8,0,0,1-3.47,0c-1.16-.08-2.32-.16-3.48-.16l.3-6.85a9.84,9.84,0,0,1,3.14.2,2.93,2.93,0,0,0,.94,0,2.07,2.07,0,0,1,1.43.16.58.58,0,0,0,.48.06,4.93,4.93,0,0,1,2.15-.29,6.57,6.57,0,0,0,1.19-.13,4,4,0,0,1,.95-.15,53.42,53.42,0,0,1,6.33-.19,5,5,0,0,0,1.22,0c1.52-.21,3-.33,4.57-.66a36.33,36.33,0,0,0,5.27-.83,2.68,2.68,0,0,0,.89-.31,2.37,2.37,0,0,1,2.11-.3,1.23,1.23,0,0,0,.94,0,2.82,2.82,0,0,1,.45-.18c.4-.13.78-.25,1.17-.36a6.21,6.21,0,0,0,1.18-.25,1.38,1.38,0,0,1,.7-.07,5.86,5.86,0,0,0,1.62-.06c.18,0,.35-.08.54-.12s.4-.13.58-.17l.36-.12c1-.34,2.08-.62,3.13-.92.82-.26,1.71-.32,2.52-.62s1.47-.49,2.2-.76S185.72,271.16,186.52,270.86Z"/><path class="cls-2" d="M230.21,246.15l4.44,5.23a3.79,3.79,0,0,1-1.21.68,2.58,2.58,0,0,0-.66.45c-.21.17-.38.4-.58.58a7.9,7.9,0,0,1-1.09.81,6.41,6.41,0,0,0-2.17,2,3.72,3.72,0,0,1-1.81,1.57,16.54,16.54,0,0,0-2.38,1.32,3.73,3.73,0,0,1-.7.32h0a3.61,3.61,0,0,0-.66.44,19.8,19.8,0,0,1-1.79,1.25,16.61,16.61,0,0,0-1.83,1.16,12.76,12.76,0,0,1-2.37,1.48c-1.6,1.16-3.4,2-4.94,3.15a11.93,11.93,0,0,1-2.59,1.62,23.67,23.67,0,0,0-2.53,1.23,14.5,14.5,0,0,1-3.26,1.46,3.45,3.45,0,0,0-.92.46,19.64,19.64,0,0,1-3.56,1.92,15.54,15.54,0,0,1-3.58,1.42,4.37,4.37,0,0,0-.72.25c-1,.47-2.14.85-3.24,1.23l-3.29,1.13-2.21-6.49a6.68,6.68,0,0,1,1.46-.56c.44-.14.9-.24,1.54-.41a4.15,4.15,0,0,0,.85-.39,2.09,2.09,0,0,1,1.41-.35.57.57,0,0,0,.47-.11,4.89,4.89,0,0,1,1.91-1,5.63,5.63,0,0,0,1.05-.58,3.73,3.73,0,0,1,.82-.51c1-.4,1.93-.86,2.89-1.29s1.94-.83,3-1.17a6.08,6.08,0,0,0,1.1-.5,45.49,45.49,0,0,0,4.05-2.22c1.61-.75,3.07-1.81,4.61-2.68a2.42,2.42,0,0,0,.73-.6,2.32,2.32,0,0,1,1.82-1.1A1.42,1.42,0,0,0,215,257c.12-.1.23-.23.36-.32.33-.26.65-.5,1-.73a5.5,5.5,0,0,0,1-.65A1.62,1.62,0,0,1,218,255a5.28,5.28,0,0,0,1.46-.69,3.86,3.86,0,0,0,.46-.32c.14-.1.31-.27.46-.37l.3-.24c.86-.68,1.74-1.29,2.62-1.94.65-.55,1.45-.95,2.08-1.54l1.78-1.5c.34-.28,1-.67,1.56-1.08S229.9,246.44,230.21,246.15Z"/><path class="cls-2" d="M261.92,207.2l6,3.28c-.15.44-.58.7-.91,1.05a2.52,2.52,0,0,0-.47.64c-.13.24-.2.51-.32.76a7.67,7.67,0,0,1-.71,1.16,6.67,6.67,0,0,0-1.25,2.71,4,4,0,0,1-1.16,2.09,16.11,16.11,0,0,0-1.71,2.11,3,3,0,0,1-.52.55s0,0,0,0a3.44,3.44,0,0,0-.45.65c-.76,1.25-1.78,2.3-2.51,3.54a12,12,0,0,1-1.66,2.26c-1.15,1.59-2.45,3.06-3.44,4.73a10.16,10.16,0,0,1-1.87,2.42,22.91,22.91,0,0,0-1.87,2.09c-.37.47-.74.94-1.15,1.37a10.33,10.33,0,0,1-1.38,1.16,3,3,0,0,0-.69.76,19.64,19.64,0,0,1-2.56,3.14,21.85,21.85,0,0,1-2.85,2.59,3,3,0,0,0-.56.51c-1.55,1.7-3.56,3-5.22,4.58l-4.44-5.23a9.93,9.93,0,0,1,2.44-2,3.46,3.46,0,0,0,.67-.65,2.24,2.24,0,0,1,1.18-.84.6.6,0,0,0,.39-.29,4.85,4.85,0,0,1,1.38-1.67,8.18,8.18,0,0,0,.78-.91,4.1,4.1,0,0,1,.6-.76,59.1,59.1,0,0,1,4.53-4.42,5.38,5.38,0,0,0,.86-.86c1-1.19,2-2.31,2.92-3.58a37,37,0,0,0,3.31-4.18,2.6,2.6,0,0,0,.45-.83,2.39,2.39,0,0,1,1.34-1.65,1.41,1.41,0,0,0,.66-.68,3.55,3.55,0,0,1,.21-.44c.21-.36.41-.71.62-1a6.51,6.51,0,0,0,.7-1,1.46,1.46,0,0,1,.47-.52,5.45,5.45,0,0,0,1.16-1.14,4.1,4.1,0,0,0,.31-.46c.09-.15.19-.38.29-.53l.18-.33c.55-.95,1.13-1.86,1.7-2.79a23.63,23.63,0,0,0,1.42-2.16l1.1-2.06C260.29,209.6,261.55,208,261.92,207.2Z"/><path class="cls-2" d="M277.3,159.4l6.8.86a3.67,3.67,0,0,1-.46,1.31,2.8,2.8,0,0,0-.19.77c0,.27,0,.55,0,.82a6.71,6.71,0,0,1-.23,1.34,7.61,7.61,0,0,0-.23,3,4.1,4.1,0,0,1-.28,2.38,18.39,18.39,0,0,0-.81,2.59,3.33,3.33,0,0,1-.31.7l0,0a3.64,3.64,0,0,0-.2.77c-.25,1.44-.8,2.79-1,4.22a10.29,10.29,0,0,1-.76,2.69c-.5,1.9-1.09,3.77-1.48,5.67a12.21,12.21,0,0,1-.86,2.93,23.17,23.17,0,0,0-1,2.64,14.44,14.44,0,0,1-1.47,3.26,2.77,2.77,0,0,0-.36,1,11,11,0,0,1-.5,2c-.23.64-.53,1.25-.79,1.88a20.51,20.51,0,0,1-1.67,3.47,3.29,3.29,0,0,0-.33.68c-.9,2.1-2.24,4.07-3.2,6.17l-6-3.28a10.07,10.07,0,0,1,1.51-2.76,3.1,3.1,0,0,0,.38-.86,2.14,2.14,0,0,1,.82-1.2.55.55,0,0,0,.27-.39,5.2,5.2,0,0,1,.67-2.07,8.08,8.08,0,0,0,.39-1.14,3.69,3.69,0,0,1,.27-.93c1-1.88,1.52-3.92,2.62-5.76a6.46,6.46,0,0,0,.49-1.11,34.63,34.63,0,0,0,1.43-4.39,36.16,36.16,0,0,0,1.59-5.09,2.84,2.84,0,0,0,.11-.94,2.34,2.34,0,0,1,.63-2,1.41,1.41,0,0,0,.4-.86,2.52,2.52,0,0,1,.06-.48c.06-.42.11-.81.18-1.2a5.8,5.8,0,0,0,.28-1.18,1.55,1.55,0,0,1,.24-.66,5.56,5.56,0,0,0,.65-1.48c.06-.17.08-.35.13-.55s.06-.41.1-.59l.07-.37.54-3.22c.12-.85.46-1.67.54-2.53s.24-1.53.29-2.31S277.22,160.26,277.3,159.4Z"/><path class="cls-2" d="M274.2,109.28l6.65-1.68a3.41,3.41,0,0,1,.06,1.39,3,3,0,0,0,.09.79c.06.27.2.52.27.78a7.43,7.43,0,0,1,.25,1.33,6.7,6.7,0,0,0,.9,2.85,3.62,3.62,0,0,1,.61,2.31,17.26,17.26,0,0,0,.14,2.71,2.84,2.84,0,0,1,0,.77s0,0,0,0a4.07,4.07,0,0,0,.11.79,15.76,15.76,0,0,1,.34,2.15,17.26,17.26,0,0,0,.25,2.15,13.52,13.52,0,0,1,.29,2.78c.34,1.94.29,3.91.68,5.82a12.09,12.09,0,0,1,.32,3,26.15,26.15,0,0,0,0,2.8,13.86,13.86,0,0,1-.12,3.58,3.26,3.26,0,0,0,0,1,18.76,18.76,0,0,1,.16,4,16,16,0,0,1-.27,3.85,2.66,2.66,0,0,0-.09.75c0,1.14-.18,2.29-.32,3.45l-.42,3.46-6.8-.86a13,13,0,0,1,.43-3.12,3.73,3.73,0,0,0,0-.94,2,2,0,0,1,.3-1.41.56.56,0,0,0,.1-.47,4.92,4.92,0,0,1-.07-2.16,7,7,0,0,0-.06-1.21,3.93,3.93,0,0,1-.11-1c.07-1,.07-2.1.11-3.16,0-.52.05-1.05.09-1.57s.07-1.06.14-1.59a6.1,6.1,0,0,0,0-1.21,37.56,37.56,0,0,0-.23-4.61c0-1.78-.28-3.55-.39-5.32a2.27,2.27,0,0,0-.23-.92,2.33,2.33,0,0,1-.19-2.11,1.41,1.41,0,0,0,0-.95,3.47,3.47,0,0,1-.13-.46c-.09-.41-.17-.8-.24-1.2a5.51,5.51,0,0,0-.13-1.2,1.38,1.38,0,0,1,0-.7,5.79,5.79,0,0,0,0-1.61c0-.18-.06-.36-.09-.55s-.11-.41-.14-.59-.06-.25-.08-.37c-.24-1.07-.41-2.13-.61-3.2-.17-.84-.21-1.73-.46-2.55l-.57-2.26C274.64,112.15,274.48,110.1,274.2,109.28Z"/><path class="cls-2" d="M275,104.54c-.45.4-.94.75-.88,1.44l-.14.78c-.25.88.18,1.65.21,2.53l6.65-1.68c-.17-.84.27.26-.15-1.17-.25-.78-.32-.57-.89-1.15-.43-.38-.47-.22-1-.54s-.13-.5-.83-.48c-.49-.25-.26-.25-.83-.11-.3.09-.45,0-1.05.11C275.23,104.62,275.46,104.34,275,104.54Z"/><path class="cls-2" d="M264.65,73.6a8.33,8.33,0,0,0-1.89,1.72,4.8,4.8,0,0,1-1.18,1.2,3.37,3.37,0,0,0-.85,1c-.24.43-.47.84-.76,1.27a5.17,5.17,0,0,0-.86,2.94,4.69,4.69,0,0,1-.11,1.45c0,.12-.07.27-.09.39A5.11,5.11,0,0,0,259,86a2.91,2.91,0,0,0,.84,1.58,5.09,5.09,0,0,1,.56.58,4,4,0,0,0,1.45,1.4,2.12,2.12,0,0,1,.61.54,5.09,5.09,0,0,0,2.11,1.28,4.41,4.41,0,0,0,1.83.45,1.49,1.49,0,0,1,1.15.39,3,3,0,0,0,.53.34.57.57,0,0,0,.4.09l1.46-.23a2,2,0,0,1,.63-.07,1.65,1.65,0,0,0,1.38-.39,1.92,1.92,0,0,1,.91-.51,3.16,3.16,0,0,0,1.29-.72,9,9,0,0,1,.78-.74,1.6,1.6,0,0,0,.51-.67,4.74,4.74,0,0,1,1-1.42A2.53,2.53,0,0,0,277,87c.21-.38.42-.77.6-1.17a3.41,3.41,0,0,0,.19-.62,9.75,9.75,0,0,1,.3-1.54,2,2,0,0,0,0-.69,13.28,13.28,0,0,0-.84-3.11,17.1,17.1,0,0,0-.81-2,5.4,5.4,0,0,0-1.47-1.9,1.65,1.65,0,0,0-.54-.36,17.58,17.58,0,0,1-2.85-1.34,24.37,24.37,0,0,0-2.84-1.08c-.72-.11-1.42-.23-2.13-.31a.8.8,0,0,0-.23,0A5.24,5.24,0,0,0,264.65,73.6Z"/><path d="M55.21,91c-1.51,0-2,0-2.13,0s-.17,0-.17-.19V89.46c0-.17,0-.19.17-.19s.62,0,2.13,0h4.2v-5.8H56.7c-1.66,0-2.22,0-2.32,0s-.19,0-.19-.18V82c0-.17,0-.19.19-.19s.66,0,2.32,0h2.71V79.16a16.75,16.75,0,0,0-.14-2.67c.63,0,1.39.05,2,.12.15,0,.27.08.27.2a1,1,0,0,1-.1.38,6.68,6.68,0,0,0-.1,1.93v2.67h3c1.65,0,2.21,0,2.31,0s.21,0,.21.19v1.41c0,.17,0,.18-.21.18s-.66,0-2.31,0h-3v5.8H65.8c1.51,0,2,0,2.12,0s.17,0,.17.19v1.41c0,.17,0,.19-.17.19s-.61,0-2.12,0Z"/><path d="M82.08,85.72c-2.38.19-4.91.34-7.34.44a1.3,1.3,0,0,0-.54.09.82.82,0,0,1-.26.06c-.1,0-.19-.06-.22-.22-.08-.39-.17-.9-.24-1.39l1.81,0a10.42,10.42,0,0,0,.84-1.49H73a29.07,29.07,0,0,1-.36,3.67,12.17,12.17,0,0,1-1.46,4.3c-.13.2-.19.31-.27.31s-.15-.09-.32-.28a5.67,5.67,0,0,0-1.13-1,9,9,0,0,0,1.48-4,33.64,33.64,0,0,0,.38-5.63c0-2.4,0-3.47,0-3.57s0-.2.17-.2.7,0,2.35,0h7.94c1.65,0,2.24,0,2.34,0s.19,0,.19.2,0,.39,0,1.17v1.31c0,.77,0,1.06,0,1.16s0,.18-.19.18-.69,0-2.34,0H73v1h9.13c1.67,0,2.25,0,2.35,0s.2,0,.2.19v1.08c0,.17,0,.19-.2.19s-.68,0-2.35,0h-.52a21.51,21.51,0,0,1,2.44,2.43c.12.15.11.18-.1.32l-.87.6c-.11.08-.17.12-.22.12s-.08,0-.13-.12ZM74.77,91.4c-1.64,0-2.2,0-2.31,0s-.18,0-.18-.2V90.14c0-.17,0-.19.18-.19s.67,0,2.31,0H77.6V88.83H76.2c-1.61,0-2.19,0-2.29,0s-.19,0-.19-.18v-1c0-.19,0-.21.19-.21s.68,0,2.29,0h1.4v0a6.17,6.17,0,0,0-.09-1.24c.53,0,1.06.05,1.6.1.2,0,.34.11.34.19a.72.72,0,0,1-.1.34,1.72,1.72,0,0,0-.09.6v0h2c1.64,0,2.18,0,2.28,0s.21,0,.21.21v1c0,.17,0,.18-.21.18s-.64,0-2.28,0h-2V90h3.23c1.65,0,2.23,0,2.31,0s.19,0,.19.19v1.09c0,.18,0,.2-.19.2s-.66,0-2.31,0Zm7.71-13.08H73v1.21h9.46Zm-2.1,5.6c-.13-.12-.15-.16.06-.28l.78-.4H77.9a11.21,11.21,0,0,1-.85,1.46c1.24,0,2.59-.1,3.93-.2Z"/><path d="M94.55,87.27a3.49,3.49,0,0,0,.49-1,14.26,14.26,0,0,1,1.46.74c.14.08.2.16.2.28a.32.32,0,0,1-.2.29,1.48,1.48,0,0,0-.46.46,11.45,11.45,0,0,1-2.77,2.67c-.2.14-.32.22-.41.22s-.2-.1-.35-.36a3.06,3.06,0,0,0-.89-.9A10.23,10.23,0,0,0,94.55,87.27Zm-.24-7.48H92.15c-.19,0-.2,0-.2-.17V78.31c0-.17,0-.19.2-.19s.61,0,2.16,0h4.06v-.28a6.59,6.59,0,0,0-.12-1.57c.63,0,1.21,0,1.84.09.15,0,.25.07.25.17a.91.91,0,0,1-.12.35,4.82,4.82,0,0,0-.06,1v.27h4.28c1.53,0,2.06,0,2.16,0s.18,0,.18.19v1.32c0,.16,0,.17-.18.17H94.31ZM102,81c1.64,0,2.22,0,2.34,0s.19,0,.19.19,0,.46,0,1.38v1.85c0,.9,0,1.27,0,1.38s0,.18-.19.18-.7,0-2.34,0h-1.72v1.72c0,.78,0,1.51,0,2.14a1.65,1.65,0,0,1-.54,1.49c-.38.31-.85.41-2.45.41-.51,0-.55,0-.67-.51a3.23,3.23,0,0,0-.52-1.24,12.82,12.82,0,0,0,1.56.1c.6,0,.77-.18.77-.61v-3.5H96.6c-1.63,0-2.22,0-2.33,0s-.2,0-.2-.18,0-.48,0-1.38V82.51c0-.92,0-1.26,0-1.38s0-.19.2-.19.7,0,2.33,0Zm.73,1.54h-6.9v1.84h6.9Zm.37,4c.2-.12.24-.11.34,0a10,10,0,0,0,3.67,3,3.55,3.55,0,0,0-.88,1.08c-.17.28-.24.4-.36.4a.86.86,0,0,1-.39-.21A12.84,12.84,0,0,1,102,87.35c-.11-.15-.06-.19.11-.3Z"/><path d="M117.22,77.05a14.72,14.72,0,0,0,7.18,5.35,4.92,4.92,0,0,0-.73,1.35c-.12.3-.17.44-.31.44A1.44,1.44,0,0,1,123,84a15.4,15.4,0,0,1-6.66-5.56A16.05,16.05,0,0,1,110,84.07a1.1,1.1,0,0,1-.41.19c-.1,0-.17-.14-.31-.43a3.72,3.72,0,0,0-.78-1.2,13.2,13.2,0,0,0,6.41-5.31,4.73,4.73,0,0,0,.6-1.24,10.89,10.89,0,0,1,1.76.36c.16,0,.29.13.29.25s-.05.16-.17.26Zm-5,11.17a7.08,7.08,0,0,0,.65-3.69,12.52,12.52,0,0,0-.12-2c.59,0,1.32,0,1.88.09.19,0,.29.08.29.2a1.07,1.07,0,0,1-.08.37,5.22,5.22,0,0,0-.1,1.38c0,2.38-.29,3.67-1,4.76a6.59,6.59,0,0,1-3,2.41,1.11,1.11,0,0,1-.41.17c-.1,0-.19-.1-.34-.37a5,5,0,0,0-1-1.16A5.58,5.58,0,0,0,112.26,88.22Zm5.64-3.11a17.53,17.53,0,0,0-.12-2.6,17.34,17.34,0,0,1,1.87.13c.17,0,.26.09.26.19a1.58,1.58,0,0,1-.09.42,12.45,12.45,0,0,0-.08,1.84v4.3c0,1.39,0,2.09,0,2.19s0,.17-.2.17h-1.51c-.17,0-.19,0-.19-.17s0-.8,0-2.19Z"/><path d="M61.37,104.53a2.36,2.36,0,0,0,1.08-.12.35.35,0,0,1,.18-.06.32.32,0,0,1,.22.1,6.27,6.27,0,0,1,.94,1,.63.63,0,0,1,.1.29.32.32,0,0,1-.17.27,3.83,3.83,0,0,0-.62.5A47.79,47.79,0,0,1,59.6,110a13.17,13.17,0,0,1,1.15,1.3.32.32,0,0,1,.09.19.31.31,0,0,1-.12.21,10.53,10.53,0,0,1-.85.77.29.29,0,0,1-.16.06.21.21,0,0,1-.16-.11,19.72,19.72,0,0,0-4.17-4l.93-.87a.27.27,0,0,1,.14-.06c.06,0,.11,0,.19.09A20.71,20.71,0,0,1,58.48,109a30,30,0,0,0,3-3.06L56,106c-.75,0-1.71,0-2.42.09-.16,0-.2-.07-.23-.23a12.57,12.57,0,0,1-.16-1.39c.89.09,1.94.09,2.84.09Z"/><path d="M68.77,108.74a10.27,10.27,0,0,0-1.92.16.28.28,0,0,1-.29-.27,12.65,12.65,0,0,1-.2-1.58,16.72,16.72,0,0,0,2.81.16h4.19c1,0,2,0,3,0,.19,0,.23,0,.23.18a8.28,8.28,0,0,1,0,1.22c0,.16,0,.21-.23.2l-2.9,0Z"/><path d="M86.86,104.4a1.09,1.09,0,0,0,.65-.16.26.26,0,0,1,.17,0,.4.4,0,0,1,.21.08,6.15,6.15,0,0,1,.88.7.43.43,0,0,1,.17.3.36.36,0,0,1-.15.27,1.5,1.5,0,0,0-.43.56,17.94,17.94,0,0,1-2.58,4,16.45,16.45,0,0,1-4,3.24.36.36,0,0,1-.21.06.48.48,0,0,1-.3-.14,3.29,3.29,0,0,0-1.23-.6,15.2,15.2,0,0,0,4.33-3.31,13.44,13.44,0,0,0,2.4-3.7l-3.14.09a18,18,0,0,1-2.46,2.67.4.4,0,0,1-.27.14.32.32,0,0,1-.2-.07,3.32,3.32,0,0,0-1.25-.56,15.47,15.47,0,0,0,3.5-3.87,5.42,5.42,0,0,0,.77-1.75,6.39,6.39,0,0,1,1.52.69.26.26,0,0,1,.13.22.25.25,0,0,1-.14.22,1.38,1.38,0,0,0-.33.35c-.14.22-.27.42-.43.65Z"/><path d="M95.18,104.79c-.74,0-1.53,0-2.3.1-.16,0-.21-.07-.23-.19a10.64,10.64,0,0,1-.24-1.41c.89.07,1.6.1,2.64.1h5.58a2.83,2.83,0,0,0,.9-.08.78.78,0,0,1,.24-.09.41.41,0,0,1,.3.18,6.05,6.05,0,0,1,.78.82.35.35,0,0,1,.11.23.32.32,0,0,1-.19.27,2.11,2.11,0,0,0-.35.38,10.92,10.92,0,0,1-2.29,2.51.34.34,0,0,1-.27.12.5.5,0,0,1-.31-.13,3,3,0,0,0-1.08-.54,9.18,9.18,0,0,0,2.33-2.27Zm.73,5.07a6.06,6.06,0,0,0,.64-3.07,4.86,4.86,0,0,0-.13-1.22,13.48,13.48,0,0,1,1.67.25c.17,0,.22.13.22.24a.53.53,0,0,1-.06.24,1.29,1.29,0,0,0-.12.53,8.09,8.09,0,0,1-.76,3.58A6.82,6.82,0,0,1,95,113a.63.63,0,0,1-.36.13.36.36,0,0,1-.26-.11,3.56,3.56,0,0,0-1.19-.67A5.75,5.75,0,0,0,95.91,109.86Z"/><path d="M107.4,106.12a.23.23,0,0,1,.34.09,7.11,7.11,0,0,1,1.12,1.92,1.15,1.15,0,0,1,0,.2c0,.07,0,.11-.16.18a5.7,5.7,0,0,1-.83.4c-.18.07-.26,0-.32-.18a7.57,7.57,0,0,0-1.23-2.09C106.82,106.39,107.13,106.25,107.4,106.12Zm7.14.16c.1.08.17.15.17.23s0,.14-.15.23a2,2,0,0,0-.39.66,15.36,15.36,0,0,1-2,3.46,10.44,10.44,0,0,1-2.68,2.51.51.51,0,0,1-.31.14.3.3,0,0,1-.21-.09,2.83,2.83,0,0,0-1.1-.54,11.26,11.26,0,0,0,3.12-2.71,13.16,13.16,0,0,0,1.75-3.13,4.6,4.6,0,0,0,.3-1.38A6.33,6.33,0,0,1,114.54,106.28Zm-4.51-.79c.14-.06.23,0,.34.11a7.53,7.53,0,0,1,1,1.89c.06.2,0,.26-.13.35a5.1,5.1,0,0,1-.9.41c-.14,0-.19,0-.26-.2A9.19,9.19,0,0,0,109,106C109.51,105.73,109.81,105.58,110,105.49Z"/><path d="M121,105.36c-.84,0-1.59,0-2.14.07-.17,0-.23-.08-.25-.26s-.09-.94-.12-1.32a21.75,21.75,0,0,0,2.5.09h4.64a1.17,1.17,0,0,0,.71-.13.43.43,0,0,1,.22-.07.31.31,0,0,1,.23.09,4.93,4.93,0,0,1,.88.89.5.5,0,0,1,.1.26.36.36,0,0,1-.13.25,1.63,1.63,0,0,0-.29.51,15.23,15.23,0,0,1-2.53,4.22,14.37,14.37,0,0,1-3.69,3.1.6.6,0,0,1-.35.11.45.45,0,0,1-.33-.14,3.74,3.74,0,0,0-1.2-.71,12.8,12.8,0,0,0,4.25-3.25,11.07,11.07,0,0,0,2.19-3.71Zm9-2.49a1.4,1.4,0,1,1-1.4-1.4A1.38,1.38,0,0,1,129.94,102.87Zm-2.17,0a.77.77,0,1,0,.77-.77A.74.74,0,0,0,127.77,102.87Z"/><path d="M137.19,110.13H139c.88,0,1.75,0,2.63,0,.14,0,.21,0,.21.21,0,.34,0,.7,0,1,0,.17,0,.23-.2.23-.62,0-1.78,0-2.62,0h-5.23c-.53,0-1.38,0-2.39,0-.21,0-.24,0-.27-.26a6.56,6.56,0,0,1-.1-1.22c.94,0,1.93.07,2.76.07h1.77V105.7h-1c-.94,0-1.49,0-2,0-.16,0-.18-.08-.22-.27a7.37,7.37,0,0,1-.11-1.21,20.81,20.81,0,0,0,2.25,0h3.68c.8,0,1.51,0,2.28,0,.13,0,.17.07.17.21,0,.33,0,.69,0,1,0,.16,0,.24-.18.24-.88,0-1.51,0-2.24,0h-1Z"/><path d="M145.65,103.65a.22.22,0,0,1,.18-.11.38.38,0,0,1,.17.07,13.6,13.6,0,0,1,2.48,1.84c.08.08.12.13.12.18a.27.27,0,0,1-.08.17c-.19.26-.62.78-.81,1s-.1.1-.15.1a.28.28,0,0,1-.17-.1,13.71,13.71,0,0,0-2.65-2.12C145,104.31,145.4,103.91,145.65,103.65Zm1.13,6.85a23,23,0,0,0,7.31-6,5.48,5.48,0,0,0,.36,1.52.61.61,0,0,1,.06.25c0,.12-.06.22-.2.39a21.24,21.24,0,0,1-3,2.76,28.69,28.69,0,0,1-3.93,2.55,4.88,4.88,0,0,0-.87.59.36.36,0,0,1-.24.13.35.35,0,0,1-.22-.14,10,10,0,0,1-1-1.44A8.22,8.22,0,0,0,146.78,110.5Z"/><path d="M158,106.13c.07-.09.13-.16.25-.13a9,9,0,0,1,2.49,1.27c.1.07.15.12.15.2a.48.48,0,0,1-.05.14,5.71,5.71,0,0,1-.58,1c-.06.08-.11.13-.17.13s-.09,0-.15-.08a11.53,11.53,0,0,0-2.63-1.42C157.61,106.71,157.82,106.34,158,106.13Zm2.11,4.82a21.81,21.81,0,0,0,3.56-2.25,23.57,23.57,0,0,0,3.74-3.62,6.89,6.89,0,0,0,.38,1.45.63.63,0,0,1,.07.25.41.41,0,0,1-.15.3,24.61,24.61,0,0,1-3.3,3,29.22,29.22,0,0,1-3.89,2.44,4.29,4.29,0,0,0-.75.45.27.27,0,0,1-.21.1.34.34,0,0,1-.26-.15,9.29,9.29,0,0,1-1-1.33A6.21,6.21,0,0,0,160.08,111Zm-.54-7.81c.1-.16.17-.18.33-.11a8.7,8.7,0,0,1,2.44,1.45.2.2,0,0,1,.11.17.45.45,0,0,1,0,.17,6.12,6.12,0,0,1-.67,1,.14.14,0,0,1-.13.08.33.33,0,0,1-.19-.09,12.83,12.83,0,0,0-2.52-1.6Zm6-.4c.06-.06.12,0,.19,0a5.91,5.91,0,0,1,1.24,1.39.13.13,0,0,1,0,.21l-.55.4c-.09.07-.15.06-.22,0a6.37,6.37,0,0,0-1.31-1.5Zm1.16-.85c.07,0,.11,0,.19,0a5.39,5.39,0,0,1,1.24,1.34.15.15,0,0,1,0,.23l-.52.4c-.11.08-.17,0-.22,0a6.12,6.12,0,0,0-1.3-1.49Z"/><path d="M172.84,111.46c-.84,0-1.7,0-2.34.06-.13,0-.17-.07-.19-.24s-.08-.74-.12-1.43c.94.06,1.87.07,2.69.07h4.73c1.45,0,2.33,0,2.93-.06.17,0,.21.06.21.23a10.65,10.65,0,0,1,0,1.13c0,.2,0,.28-.2.28-.62,0-2,0-2.84,0Zm1.2-5.53c-.82,0-1.39,0-2,.06-.13,0-.17-.08-.18-.28a8.08,8.08,0,0,1-.08-1.37c.82.06,1.43.07,2.21.07h2.57c1,0,1.79,0,2.35-.06.1,0,.14.06.14.22a11.22,11.22,0,0,1,0,1.16c0,.18,0,.24-.17.24-.61,0-1.44,0-2.28,0Z"/><path d="M186.18,104.79c-.74,0-1.53,0-2.3.1-.16,0-.21-.07-.23-.19a10.64,10.64,0,0,1-.24-1.41c.89.07,1.6.1,2.64.1h5.58a2.83,2.83,0,0,0,.9-.08.78.78,0,0,1,.24-.09.41.41,0,0,1,.3.18,6.05,6.05,0,0,1,.78.82.35.35,0,0,1,.11.23.32.32,0,0,1-.19.27,2.11,2.11,0,0,0-.35.38,10.92,10.92,0,0,1-2.29,2.51.34.34,0,0,1-.27.12.5.5,0,0,1-.31-.13,3,3,0,0,0-1.08-.54,9.18,9.18,0,0,0,2.33-2.27Zm.73,5.07a6.06,6.06,0,0,0,.64-3.07,4.86,4.86,0,0,0-.13-1.22,13.48,13.48,0,0,1,1.67.25c.17,0,.22.13.22.24a.53.53,0,0,1-.06.24,1.29,1.29,0,0,0-.12.53,8.09,8.09,0,0,1-.76,3.58A6.82,6.82,0,0,1,186,113a.63.63,0,0,1-.36.13.36.36,0,0,1-.26-.11,3.56,3.56,0,0,0-1.19-.67A5.75,5.75,0,0,0,186.91,109.86Z"/><path d="M63.09,127.6a.65.65,0,0,0,.22,0,.32.32,0,0,1,.17-.06c.05,0,.15.07.44.33s.31.32.31.44a.33.33,0,0,1-.09.22c-.08.09-.11.24-.17.59a11.68,11.68,0,0,1-.88,2.7,5.84,5.84,0,0,0,1.52,1.44,4.43,4.43,0,0,0-.46.78c-.09.21-.14.3-.22.3s-.13-.06-.26-.17a8.22,8.22,0,0,1-1.17-1.28,7.92,7.92,0,0,1-1,1.24c-.11.12-.18.17-.24.17s-.14-.09-.24-.26a3,3,0,0,0-.45-.58c0,.65,0,1,0,1s0,.15-.14.15h-.87c-.13,0-.15,0-.15-.15s0-.49,0-1.32c-.68.23-1.32.44-2,.62a1.76,1.76,0,0,0-.43.17.36.36,0,0,1-.2.09c-.06,0-.11-.08-.15-.18a6.06,6.06,0,0,1-.26-1c.35,0,.65-.11,1-.17v-6.22c-.39,0-.57,0-.61,0h-.09v.84c0,.12,0,.13-.15.13s-.31,0-1,0v1.34h0c.94,0,1.23,0,1.31,0s.16,0,.16.14v.94c0,.12,0,.13-.16.13l-1.13,0v1.29h1c.13,0,.14,0,.14.13v.87c0,.14,0,.15-.14.15s-.25,0-.64,0h-.35v2.1a8.31,8.31,0,0,0,3.76.61,48.62,48.62,0,0,0,5.11-.29,3.7,3.7,0,0,0-.38,1c-.08.41-.08.41-.48.44-1.39.09-2.73.14-4.21.14a8.3,8.3,0,0,1-4.05-.71A4.71,4.71,0,0,1,54,134.14a10.12,10.12,0,0,1-.52,2c-.07.17-.12.24-.17.24s-.13-.06-.25-.17a3.24,3.24,0,0,0-.74-.54,11.34,11.34,0,0,0,.82-4.39,7.24,7.24,0,0,0,0-.76,8.06,8.06,0,0,1,1.06.18c.14,0,.19.08.19.16a.49.49,0,0,1-.06.22,1,1,0,0,0-.07.47c0,.43,0,.84-.08,1.27a4,4,0,0,0,.56.76v-3.66h-.66c-.94,0-1.25,0-1.33,0s-.13,0-.13-.13v-.94c0-.13,0-.14.13-.14s.39,0,1.33,0h.36V127.4h-.2c-.84,0-1.1,0-1.17,0s-.16,0-.16-.13v-.92c0-.13,0-.14.16-.14s.33,0,1.17,0h.2v-.15a7.91,7.91,0,0,0-.09-1.47,10.52,10.52,0,0,1,1.21.09c.13,0,.21,0,.21.13a.73.73,0,0,1-.07.25,3,3,0,0,0-.07,1v.18c.71,0,1,0,1,0h.09v-.79c0-.13,0-.15.15-.15s.5,0,1.77,0h3.86c1.24,0,1.67,0,1.75,0s.15,0,.15.15v.85c0,.13,0,.15-.15.15s-.51,0-1.75,0H60.58v1.18Zm-4.52-1.18v1.24h.9v-1.24Zm.9,3.47v-1.23h-.9v1.23Zm0,1h-.9v1.47c.29-.08.59-.17.9-.28Zm1.11,2.38a6.65,6.65,0,0,0,1.3-1.45,10.18,10.18,0,0,1-1-3.17h-.28Zm1.27-4.62a8.46,8.46,0,0,0,.6,2,9.8,9.8,0,0,0,.53-2Z"/><path d="M69.53,130.14c0,2.37,0,2.82,0,2.9s0,.14-.16.14h-.93c-.13,0-.15,0-.15-.14v-.68H67.23v1.25c0,.13,0,.14-.13.14h-1c-.12,0-.13,0-.13-.14s0-.57,0-3.17v-2c0-1.85,0-2.36,0-2.43s0-.15.13-.15.33,0,1.13,0h1c.81,0,1,0,1.13,0s.16,0,.16.15,0,.55,0,2Zm-2.3-3v4h1.09v-4Zm4.59,3.77c-1.23,0-1.66,0-1.74,0s-.13,0-.13-.15v-1c0-.13,0-.14.13-.14s.51,0,1.74,0h.87v-1.63H72c-1.16,0-1.56,0-1.64,0s-.14,0-.14-.15v-1c0-.13,0-.15.14-.15s.48,0,1.64,0h.65v-.3a12.73,12.73,0,0,0-.09-1.9c.48,0,.9,0,1.34.09.13,0,.22.07.22.13a.66.66,0,0,1-.09.29,4.59,4.59,0,0,0-.08,1.37v.32h1c1.16,0,1.55,0,1.63,0s.14,0,.14.15v1c0,.14,0,.15-.14.15s-.47,0-1.63,0H74v1.63h1.42c1.23,0,1.66,0,1.74,0s.14,0,.14.14v1c0,.14,0,.15-.14.15s-.51,0-1.74,0h-1a9.88,9.88,0,0,0,3.33,3.22,4,4,0,0,0-.53,1c-.09.21-.15.3-.22.3s-.15-.06-.28-.17A11.49,11.49,0,0,1,73.94,132c0,2.1.09,4.16.09,4.43s0,.13-.15.13H72.8c-.13,0-.15,0-.15-.13s.06-2.24.08-4.25a11.18,11.18,0,0,1-3.21,3.33c-.16.1-.23.15-.31.15s-.16-.07-.29-.28a2.75,2.75,0,0,0-.65-.74,9.91,9.91,0,0,0,4-3.68Z"/><path d="M85.6,127.84A1.1,1.1,0,0,1,84.48,129a1.08,1.08,0,0,1-1.1-1.12,1.1,1.1,0,0,1,1.1-1.11A1.12,1.12,0,0,1,85.6,127.84Zm0,5.5a1.11,1.11,0,0,1-1.12,1.12,1.12,1.12,0,0,1,0-2.23A1.12,1.12,0,0,1,85.6,133.34Z"/><path d="M99.54,127a1.28,1.28,0,0,0,.71-.2.42.42,0,0,1,.22-.09.47.47,0,0,1,.24.1,4.12,4.12,0,0,1,.88.8.3.3,0,0,1,.1.23.31.31,0,0,1-.14.25,1.74,1.74,0,0,0-.39.49,20.48,20.48,0,0,1-1.91,3.15,11.21,11.21,0,0,1,1.4,1.31.23.23,0,0,1,.08.18.21.21,0,0,1-.08.17,7.74,7.74,0,0,1-.8.82.26.26,0,0,1-.16.07.23.23,0,0,1-.14-.08A13.6,13.6,0,0,0,98.29,133a16,16,0,0,1-4.15,3.25.76.76,0,0,1-.32.11.37.37,0,0,1-.25-.11,3.56,3.56,0,0,0-1.24-.66A15.81,15.81,0,0,0,97.12,132a11.23,11.23,0,0,0-1.87-1.22c.28-.31.56-.65.86-.92a.21.21,0,0,1,.16-.09.27.27,0,0,1,.13.05,13.22,13.22,0,0,1,1.68,1,12,12,0,0,0,1.52-2.58l-3.22.07a15.87,15.87,0,0,1-2.78,2.92.47.47,0,0,1-.26.12.27.27,0,0,1-.21-.09,5.93,5.93,0,0,0-1.09-.6,14.39,14.39,0,0,0,3.67-4.08,4.77,4.77,0,0,0,.71-1.6,8.75,8.75,0,0,1,1.52.64.23.23,0,0,1,.14.21.34.34,0,0,1-.16.26,1.15,1.15,0,0,0-.27.27c-.1.18-.18.31-.4.65Zm1.69-1.8c.06,0,.11,0,.19,0a5.91,5.91,0,0,1,1.24,1.39.14.14,0,0,1,0,.21l-.55.4c-.09.07-.15.05-.22,0a6.66,6.66,0,0,0-1.31-1.51Zm1.15-.84c.08-.05.12,0,.2,0a5.51,5.51,0,0,1,1.23,1.34.15.15,0,0,1,0,.24l-.52.4c-.1.08-.16,0-.22,0a5.91,5.91,0,0,0-1.3-1.49Z"/><path d="M107.77,131.49a10.27,10.27,0,0,0-1.92.16.28.28,0,0,1-.29-.27,12.65,12.65,0,0,1-.2-1.58,16.72,16.72,0,0,0,2.81.16h4.19c1,0,2,0,3,0,.19,0,.23,0,.23.18a8.28,8.28,0,0,1,0,1.22c0,.16,0,.21-.23.2l-2.9,0Z"/><path d="M119.47,126.69a.25.25,0,0,1,.35.1,10.52,10.52,0,0,1,1.45,2.45.45.45,0,0,1,0,.17c0,.08,0,.13-.15.2a9.31,9.31,0,0,1-1,.5c-.2.08-.28,0-.34-.19a10.56,10.56,0,0,0-1.52-2.63A12.22,12.22,0,0,1,119.47,126.69Zm9.1.2a.3.3,0,0,1,.14.26.32.32,0,0,1-.1.22,2.34,2.34,0,0,0-.51.86,20.38,20.38,0,0,1-2.52,4.42,13.93,13.93,0,0,1-3.44,3.22.5.5,0,0,1-.3.12.42.42,0,0,1-.22-.09,4.1,4.1,0,0,0-1.24-.61,15.16,15.16,0,0,0,3.86-3.43,15.83,15.83,0,0,0,2.25-4,6.07,6.07,0,0,0,.37-1.71A9.7,9.7,0,0,1,128.57,126.89Zm-5.71-1a.24.24,0,0,1,.34.1,10.79,10.79,0,0,1,1.27,2.41c.07.15,0,.26-.13.36a9.14,9.14,0,0,1-1,.47c-.2.08-.28.05-.35-.16a10.15,10.15,0,0,0-1.34-2.62C122.05,126.27,122.47,126.06,122.86,125.89Z"/><path d="M130.36,136.76h-.82l5.29-12.37h.82Z"/><path d="M139.86,126.92c1,0,1.3,0,1.37,0s.14,0,.14.14V128c0,.14,0,.15-.14.15s-.38,0-1.37,0h-1.3c-1,0-1.28,0-1.35,0s-.14,0-.14-.15V127c0-.13,0-.14.14-.14s.38,0,1.35,0Zm0-1.79c.83,0,1.09,0,1.17,0s.13,0,.13.14v.86c0,.13,0,.14-.13.14s-.34,0-1.17,0h-1c-.83,0-1.09,0-1.17,0s-.14,0-.14-.14v-.86c0-.13,0-.14.14-.14s.34,0,1.17,0Zm1.22,9.17c0,1.51,0,1.79,0,1.87s0,.14-.12.14h-.94c-.13,0-.14,0-.14-.14v-.35h-1.16v.59c0,.13,0,.14-.14.14h-.92c-.15,0-.16,0-.16-.14s0-.38,0-1.95v-.84c0-.82,0-1.13,0-1.22s0-.14.16-.14.35,0,1.17,0h.93c.84,0,1.11,0,1.2,0s.12,0,.12.14,0,.39,0,1Zm-1.34-5.54c.77,0,1,0,1.08,0s.16,0,.16.14v.84c0,.13,0,.15-.16.15s-.31,0-1.08,0h-.83c-.78,0-1,0-1.09,0s-.15,0-.15-.15v-.84c0-.13,0-.14.15-.14s.31,0,1.09,0Zm0,1.76c.77,0,1,0,1.08,0s.16,0,.16.14v.84c0,.13,0,.14-.16.14s-.31,0-1.08,0h-.83c-.78,0-1,0-1.09,0s-.15,0-.15-.14v-.84c0-.13,0-.14.15-.14s.31,0,1.09,0Zm-1,2.84v1.4h1.16v-1.4Zm4.53-.84a10,10,0,0,0,0-1.08,11.07,11.07,0,0,1,1.17.1c.17,0,.27.09.27.19a.74.74,0,0,1-.08.28,2,2,0,0,0-.09.68,4.25,4.25,0,0,1-2.15,3.72.63.63,0,0,1-.3.13c-.1,0-.17-.08-.3-.29a2.38,2.38,0,0,0-.66-.71A3.06,3.06,0,0,0,143.31,132.52Zm3.6-2.69c1.22,0,1.65,0,1.74,0s.14,0,.14.14,0,.25,0,.5v.38c0,.91,0,1.05,0,1.13s0,.15-.14.15h-1c-.13,0-.13,0-.13-.15v-1h-4.7V132c0,.13,0,.15-.15.15h-1c-.12,0-.14,0-.14-.15s0-.23,0-1.14v-.31c0-.33,0-.5,0-.58s0-.14.14-.14.52,0,1.75,0Zm-3.08-.85c-1.13,0-1.51,0-1.59,0s-.14,0-.14-.14V128c0-.14,0-.16.14-.16s.46,0,1.59,0h.57V127h-.91c-1.24,0-1.65,0-1.73,0s-.14,0-.14-.14V126c0-.14,0-.15.14-.15s.49,0,1.73,0h.91a8.32,8.32,0,0,0-.09-1.31c.48,0,.88,0,1.34.09.13,0,.21.08.21.14a.5.5,0,0,1-.08.26,1.85,1.85,0,0,0-.08.82H147c1.22,0,1.65,0,1.72,0s.14,0,.14.15v.89c0,.13,0,.14-.14.14s-.5,0-1.72,0H145.7v.86h.74c1.15,0,1.54,0,1.61,0s.15,0,.15.16v.85c0,.13,0,.14-.15.14s-.46,0-1.61,0Zm2.77,5.74c0,.22,0,.28.1.35a1,1,0,0,0,.47.07c.34,0,.42,0,.52-.18s.14-.41.16-1.28a4,4,0,0,0,.79.31c.31.08.35.11.34.45-.06,1-.21,1.34-.46,1.58s-.64.36-1.47.36a2.43,2.43,0,0,1-1.31-.22c-.26-.16-.38-.44-.38-.95v-2.46a9.66,9.66,0,0,0-.06-1.32c.36,0,.83,0,1.23.1.14,0,.22.07.22.14a.88.88,0,0,1-.09.29,3,3,0,0,0-.06,1Z"/><path d="M151.91,132c-1.14,0-1.53,0-1.61,0s-.13,0-.13-.14v-.71c0-.12,0-.13.13-.13s.47,0,1.61,0h3.37v-.52h-1.94c-1.27,0-1.7,0-1.79,0s-.13,0-.13-.14v-.56c0-.13,0-.15.13-.15s.52,0,1.79,0h1.94v-.52h-1.81c-1.24,0-1.67,0-1.75,0s-.16,0-.16-.15v-.61c0-.13,0-.14.16-.14s.51,0,1.75,0h1.81v-.55h-3.07c-1.23,0-1.67,0-1.75,0s-.15,0-.15-.14V127c0-.13,0-.14.15-.14s.52,0,1.75,0h3.07v-.54h-1.74c-1.28,0-1.72,0-1.81,0s-.14,0-.14-.14v-.66c0-.15,0-.16.14-.16s.53,0,1.81,0h1.74a4.64,4.64,0,0,0-.09-.9c.48,0,.91,0,1.36.09.11,0,.19.07.19.14a.69.69,0,0,1-.07.24,1.34,1.34,0,0,0-.06.43h1.5c1.38,0,2.07,0,2.15,0s.14,0,.14.16,0,.41,0,1.13v.13c.69,0,1.09,0,1.17,0s.15,0,.15.16v.79c0,.13,0,.14-.15.14s-.48,0-1.17,0V128c0,.68,0,1.07,0,1.15s0,.15-.14.15-.77,0-2.15,0h-1.5v.52h2.08c1.26,0,1.7,0,1.78,0s.13,0,.13.15v.56c0,.13,0,.14-.13.14s-.52,0-1.78,0h-2.08v.52h3.47c1.14,0,1.53,0,1.61,0s.14,0,.14.13v.71c0,.13,0,.14-.14.14s-.47,0-1.61,0Zm.09,4.51c-.13,0-.14,0-.14-.14s0-.34,0-1.82v-.84c0-.71,0-1,0-1.09s0-.15.14-.15.55,0,1.81,0h4.4c1.26,0,1.71,0,1.8,0s.15,0,.15.15,0,.38,0,.94v1c0,1.46,0,1.73,0,1.81s0,.13-.15.13h-1c-.13,0-.14,0-.14-.13V136h-5.64v.34c0,.13,0,.14-.15.14Zm1.19-2.63h5.64v-.54h-5.64Zm5.64,1.32v-.56h-5.64v.56Zm-2.22-8.84v.54h2.49v-.54Zm2.49,1.47h-2.49v.55h2.49Z"/><path d="M164.16,136.76h-.82l5.29-12.37h.82Z"/><path d="M176.24,128.62c-1.28,0-1.71,0-1.78,0s-.15,0-.15-.14v-1c0-.14,0-.14.15-.14h3.09v-.84a15.37,15.37,0,0,0-.09-1.85,11.91,11.91,0,0,1,1.36.1c.13,0,.21.07.21.13a.66.66,0,0,1-.09.28,4.58,4.58,0,0,0-.08,1.31v.87h3.64c.12,0,.13,0,.13.14v1c0,.13,0,.14-.13.14s-.53,0-1.79,0h-1.35a13.16,13.16,0,0,0,3.61,4.44,3.53,3.53,0,0,0-.64.88c-.09.18-.14.27-.2.27s-.15-.08-.28-.21a13,13,0,0,1-3-4.37c0,1.17,0,2.33,0,3.34h.3c1,0,1.34,0,1.42,0s.14,0,.14.14V134c0,.14,0,.16-.14.16s-.41,0-1.42,0h-.29c0,1.24,0,2.09,0,2.22s0,.15-.14.15h-1.12c-.14,0-.16,0-.16-.15s0-1,.06-2.22h-.24c-1,0-1.34,0-1.41,0s-.15,0-.15-.16v-.95c0-.13,0-.14.15-.14s.4,0,1.41,0h.25c0-1,0-2.17,0-3.32a12.2,12.2,0,0,1-3,4.34c-.13.11-.2.19-.27.19s-.12-.08-.21-.24a4.17,4.17,0,0,0-.58-.77v1.25c0,1.27,0,1.91,0,2s0,.15-.14.15h-1.1c-.12,0-.13,0-.13-.15s0-.7,0-2v-2.95c0-.43,0-.95,0-1.47-.25.32-.5.65-.76.95-.09.1-.17.16-.23.16s-.11-.07-.15-.23a3.64,3.64,0,0,0-.44-1.12,11.35,11.35,0,0,0,2.47-4.22,4.81,4.81,0,0,0,.2-.93,8.88,8.88,0,0,1,1.26.41c.14.06.21.1.21.19s0,.15-.15.24a1.33,1.33,0,0,0-.26.52,18.49,18.49,0,0,1-.84,1.89v5.27a12,12,0,0,0,3.4-4.51Z"/><path d="M187.86,134.46c.7-.08,1.44-.19,2.21-.32q-.07.31-.12.6l0,.24a7.19,7.19,0,0,0,1.48-2.92,16.71,16.71,0,0,0,.43-3.31l-1.11,0c-.15,0-.16,0-.16-.14v-.95c0-.13,0-.14.16-.14s.36,0,1.17,0c0-.34,0-.68,0-1a12.71,12.71,0,0,0-.09-1.84c.47,0,.84,0,1.3.09.13,0,.19.07.19.15a1,1,0,0,1-.08.31,5.93,5.93,0,0,0-.07,1.32c0,.36,0,.68,0,1h.74c1,0,1.34,0,1.42,0s.16,0,.16.16c0,.44,0,.81,0,1.23a38.81,38.81,0,0,1-.38,5.95,1.47,1.47,0,0,1-1.65,1.43l-.71,0c-.3,0-.3,0-.34-.46a2.94,2.94,0,0,0-.26-.87,6.47,6.47,0,0,0,1.08.11c.39,0,.61-.21.7-.82a37.53,37.53,0,0,0,.33-5.5h-1.09a24,24,0,0,1-.49,3.73,8.18,8.18,0,0,1-1.92,3.7c-.13.13-.21.2-.27.2s-.13-.07-.25-.18a2.47,2.47,0,0,0-.83-.63c.14-.13.28-.26.41-.4a.72.72,0,0,1-.24.05c-1.38.28-3.07.52-4.54.68a1.68,1.68,0,0,0-.48.09.49.49,0,0,1-.22.08c-.08,0-.15-.08-.18-.22-.08-.34-.16-.76-.23-1.15a10.38,10.38,0,0,0,1.37,0c.45,0,.95-.05,1.47-.1v-.76h-.77c-1.13,0-1.51,0-1.58,0s-.15,0-.15-.13V133c0-.13,0-.15.15-.15s.45,0,1.58,0h.77v-.56h-.52c-1.11,0-1.48,0-1.56,0s-.16,0-.16-.15,0-.39,0-1.07v-1.4c0-.7,0-1,0-1.06s0-.14.16-.14.45,0,1.56,0h.52v-.57h-1c-1.17,0-1.58,0-1.65,0s-.15,0-.15-.15v-.76c0-.13,0-.15.15-.15s.48,0,1.65,0h1v-.59c-.56.06-1.12.11-1.68.13-.36,0-.38,0-.48-.28a2.47,2.47,0,0,0-.4-.7,25.25,25.25,0,0,0,4.6-.5,3.76,3.76,0,0,0,.71-.22,5.82,5.82,0,0,1,.75.72.34.34,0,0,1,.1.23c0,.08-.1.13-.27.13a3.7,3.7,0,0,0-.59.09c-.52.1-1,.2-1.57.26v.73h.75c1.16,0,1.56,0,1.64,0s.13,0,.13.15v.76c0,.13,0,.15-.1.15s-.51,0-1.67,0h-.75v.57h.56c1.09,0,1.47,0,1.56,0s.14,0,.14.14,0,.36,0,1.06v1.4c0,.68,0,1,0,1.07s0,.15-.14.15-.47,0-1.56,0h-.56v.56h.48c1.12,0,1.51,0,1.59,0s.14,0,.14.15v.78c0,.11,0,.13-.14.13s-.47,0-1.59,0h-.48ZM186.69,130v-.68h-1.08V130Zm0,1.44v-.69h-1.08v.69Zm1.17-2.12V130H189v-.68Zm1.13,1.43h-1.13v.69H189Z"/><path d="M201,126.6a9.35,9.35,0,0,0,.13-1.44,8.92,8.92,0,0,1,1.56.43.27.27,0,0,1,.21.26.26.26,0,0,1-.1.19,1.84,1.84,0,0,0-.26.5c-.16.53-.29,1-.46,1.56a9.44,9.44,0,0,1,1,0c1.22,0,1.89.83,1.89,2.4a11,11,0,0,1-.71,4.18,1.85,1.85,0,0,1-1.75,1.22,3.94,3.94,0,0,1-1.29-.15.33.33,0,0,1-.23-.36,3.79,3.79,0,0,0-.25-1.21,4,4,0,0,0,1.43.29c.43,0,.62-.16.83-.69a9.87,9.87,0,0,0,.51-3.23c0-.92-.17-1.2-.74-1.2a7.26,7.26,0,0,0-1.09.09,35.77,35.77,0,0,1-2.62,6.11c-.07.17-.18.19-.33.11a5.15,5.15,0,0,1-.9-.57.26.26,0,0,1-.11-.19.29.29,0,0,1,.06-.15,27.64,27.64,0,0,0,2.38-5.09c-.51.07-.93.15-1.28.22a3.09,3.09,0,0,0-.71.21c-.19.06-.34,0-.42-.17a11,11,0,0,1-.4-1.34c.57,0,1.14,0,1.71-.09s1-.12,1.54-.2C200.85,127.5,200.94,127.05,201,126.6Zm5.29.87c.09,0,.15,0,.25.07a8.69,8.69,0,0,1,2.15,3.16.18.18,0,0,1-.05.26,5.14,5.14,0,0,1-1,.65c-.13.06-.26,0-.3-.1a8.81,8.81,0,0,0-2.13-3.37C205.59,127.92,206,127.66,206.32,127.47Z"/><path d="M215.73,125.91a4,4,0,0,0-.16-.94,12.69,12.69,0,0,1,1.53.18c.22,0,.36.13.36.24a.53.53,0,0,1-.12.3,1.2,1.2,0,0,0-.1.38c0,.17,0,.34,0,.83,1.41-.05,2.75-.06,4-.06.16,0,.19,0,.2.19,0,.33,0,.67,0,1,0,.14-.07.18-.22.17-1.35,0-2.62,0-4,0,0,.8,0,1.63,0,2.42a4.06,4.06,0,0,1,.19,1.29,4.86,4.86,0,0,1-2.31,4.2,1.23,1.23,0,0,1-.51.24.74.74,0,0,1-.39-.19,2.78,2.78,0,0,0-1-.52,4.38,4.38,0,0,0,2.67-2.86,1.51,1.51,0,0,1-1.23.52,1.8,1.8,0,0,1-1.8-2,1.89,1.89,0,0,1,2-2,1.62,1.62,0,0,1,1,.26c0-.45,0-.9,0-1.32-1.64.09-3.48.24-4.5.38-.29,0-.5.16-.61.16a.2.2,0,0,1-.22-.18,7.89,7.89,0,0,1-.33-1.31,8.21,8.21,0,0,0,1.59-.06l4-.26C215.74,126.59,215.74,126.27,215.73,125.91Zm-1.66,5.27a.8.8,0,0,0,.83.88.83.83,0,0,0,.88-.89.78.78,0,0,0-.86-.83A.82.82,0,0,0,214.07,131.18Z"/><path d="M226.29,131.52c.11.06.13.13.06.23a2.21,2.21,0,0,0-.34,1c0,.82.85,1.22,3.08,1.22a16.85,16.85,0,0,0,3.53-.37c.18,0,.24,0,.27.11a10.69,10.69,0,0,1,.21,1.28c0,.11-.07.16-.22.19a19.77,19.77,0,0,1-3.88.31c-2.91,0-4.4-.93-4.4-2.62a3.35,3.35,0,0,1,.69-1.86Zm2.93-5.1c.95,0,1.93-.06,2.76-.12.13,0,.18,0,.2.15a10.68,10.68,0,0,1,.06,1.1c0,.18-.06.26-.22.28a7.65,7.65,0,0,0-3.19,1.28.53.53,0,0,1-.32.12.56.56,0,0,1-.27-.08,3.06,3.06,0,0,0-.91-.41c.67-.45,1.24-.81,1.7-1.08a8.79,8.79,0,0,1-1.07,0,16.41,16.41,0,0,1-2.27-.23c-.12,0-.17-.07-.17-.23s0-.69,0-1.16A16.06,16.06,0,0,0,229.22,126.42Z"/><path d="M241,125.36c.16,0,.24.1.24.2s-.09.37-.09.55,0,.57.06.87a18.84,18.84,0,0,0,.42,2.24l1.84-1a3.2,3.2,0,0,0,.9-.7,6.69,6.69,0,0,1,.95,1.22.54.54,0,0,1,.09.27.26.26,0,0,1-.26.26,6.61,6.61,0,0,0-1.25.39,18.45,18.45,0,0,0-3.05,1.52c-1.13.74-1.54,1.36-1.54,2,0,.76.57,1.09,2.07,1.09a22.8,22.8,0,0,0,4-.3c.15,0,.21,0,.24.15.06.36.1.82.13,1.21,0,.15-.08.21-.24.23a28.75,28.75,0,0,1-3.87.19c-2.46,0-3.76-.81-3.76-2.5,0-1.44.95-2.39,2.47-3.35a19.9,19.9,0,0,1-.67-3.17,5.57,5.57,0,0,0-.34-1.51A7.33,7.33,0,0,1,241,125.36Z"/><path d="M56.78,159.35c0-.14,0-.16.14-.16s.43,0,1.44,0c.11-.52.21-1,.29-1.58a8.36,8.36,0,0,0,.1-1.32,7.36,7.36,0,0,1,1.42.2c.14,0,.22.08.22.16a.58.58,0,0,1-.12.3,1.4,1.4,0,0,0-.21.66c-.1.54-.19,1.07-.28,1.58h.7c1.1,0,1.48,0,1.56,0s.19,0,.17.18c0,.41-.07.77-.08,1A13.22,13.22,0,0,1,61,164.92a16,16,0,0,1,1.4,1.12c.1.07.08.13,0,.28l-.56.91c0,.09-.1.11-.14.11s0,0-.11-.07a13.42,13.42,0,0,0-1.25-1.13,8.93,8.93,0,0,1-2.46,2.44.78.78,0,0,1-.34.16c-.1,0-.15-.09-.29-.3a3.31,3.31,0,0,0-.66-.76,7.73,7.73,0,0,0,2.62-2.37c-.35-.24-.72-.46-1-.66l-.18.42c-.09.19-.12.2-.34.1l-.71-.32c-.16-.07-.23-.08-.23-.15a.52.52,0,0,1,.09-.21,27.6,27.6,0,0,0,1.28-4l-1.17,0c-.13,0-.14,0-.14-.15Zm2.72,1.12a24.91,24.91,0,0,1-.85,2.94c.41.22.82.46,1.24.73a11.18,11.18,0,0,0,.87-3.67Zm4.72,2.88c-1.29,0-1.74,0-1.81,0s-.17,0-.17-.14v-1.11c0-.14,0-.15.17-.15s.52,0,1.81,0h.93a10.79,10.79,0,0,0-.11-1.82l.52,0a12.7,12.7,0,0,0,1.56-1.8H64.57c-1.22,0-1.63,0-1.71,0s-.16,0-.16-.16V157.2c0-.15,0-.17.16-.17s.49,0,1.71,0h3.16a.47.47,0,0,0,.25,0,.42.42,0,0,1,.19-.06c.11,0,.25,0,.58.37s.45.49.45.61a.25.25,0,0,1-.14.24,2.39,2.39,0,0,0-.52.59,20,20,0,0,1-1.9,2.17,5.37,5.37,0,0,0,0,.82V162h1c1.3,0,1.74,0,1.82,0s.15,0,.15.15v1.11c0,.13,0,.14-.15.14s-.52,0-1.82,0h-1v1.53c0,1,0,1.6,0,2.1,0,.83-.16,1.19-.49,1.47s-.79.36-2.12.36c-.43,0-.43,0-.51-.42a3.18,3.18,0,0,0-.47-1.06,13,13,0,0,0,1.54.08c.38,0,.56-.21.56-.64v-3.42Z"/><path d="M75.62,157.75a3.34,3.34,0,0,0-.49-.9,9.76,9.76,0,0,1,1.7-.15c.2,0,.31.11.31.25s0,.18,0,.27a2.49,2.49,0,0,0,.06.42c.09.36.14.49.22.73a24.39,24.39,0,0,0,2.86-.75c.12-.05.19,0,.23.07a7.62,7.62,0,0,1,.24.94.21.21,0,0,1-.16.25c-.94.3-1.8.51-2.75.72.13.35.31.78.49,1.17a16,16,0,0,0,2.55-.72c.14-.07.21-.05.25.08a5,5,0,0,1,.25.92c0,.13,0,.2-.11.26a18.22,18.22,0,0,1-2.37.68,10.58,10.58,0,0,0,1.84,2.43c.14.12.14.18.07.33a4.21,4.21,0,0,1-.57.87c-.09.1-.15.14-.23.14a.43.43,0,0,1-.2-.08,3.18,3.18,0,0,0-.82-.45,6.82,6.82,0,0,0-2.64-.45c-1.31,0-2.08.41-2.08,1.06,0,.92,1.19,1.21,3.33,1.21.52,0,1-.06,1.54-.08.14,0,.18.07.17.18a9.11,9.11,0,0,1-.28,1.27c0,.14-.1.2-.29.21s-.66,0-1,0c-3.22,0-4.93-.91-4.93-2.63,0-1.5,1.29-2.44,3.47-2.44a6.67,6.67,0,0,1,2.41.35,16.2,16.2,0,0,1-1.16-1.65,32.49,32.49,0,0,1-3.84.42.22.22,0,0,1-.25-.19,6.38,6.38,0,0,1-.25-1.15,24.51,24.51,0,0,0,3.76-.35l-.53-1.17a23.12,23.12,0,0,1-3.4.34c-.17,0-.25-.06-.28-.2s-.14-.67-.23-1.12a23.27,23.27,0,0,0,3.49-.22C75.85,158.34,75.76,158.1,75.62,157.75Z"/><path d="M91.75,158.67c.13,0,.19,0,.21.12a7,7,0,0,1,.13,1.13c0,.13-.06.15-.17.17-.75.15-1.44.25-2.31.38a39.28,39.28,0,0,1-2.73,6c-.06.09-.1.14-.15.14a.38.38,0,0,1-.17-.07,7,7,0,0,1-1-.72c-.07-.06-.1-.1-.1-.15a.29.29,0,0,1,.07-.17A28.48,28.48,0,0,0,88,160.62c-.54,0-1,0-1.4,0s-.43,0-.78,0c-.14,0-.16,0-.19-.22a7.64,7.64,0,0,1-.14-1.19c.57,0,.89.06,1.3.06s1,0,1.61-.07c.17-.59.27-1.07.37-1.57a5.71,5.71,0,0,0,.08-1.14,13.55,13.55,0,0,1,1.64.3.23.23,0,0,1,.22.21.34.34,0,0,1-.12.26,1.52,1.52,0,0,0-.23.52c-.1.34-.21.77-.33,1.19A15,15,0,0,0,91.75,158.67Zm.4,3.76a5,5,0,0,0-.12-1,7.58,7.58,0,0,1,1.53.27c.13,0,.2.1.2.22a1.65,1.65,0,0,1-.09.3,1.42,1.42,0,0,0,0,.57,18.53,18.53,0,0,0,.15,2.38,10.91,10.91,0,0,1,2.52,1.31c.14.09.16.15.09.29a8.6,8.6,0,0,1-.65,1.13c0,.07-.08.1-.12.1a.21.21,0,0,1-.14-.08,11.23,11.23,0,0,0-1.71-1.18c0,1.4-1,2-2.61,2s-2.58-.79-2.58-2,1-2.05,2.6-2.05a7.36,7.36,0,0,1,1.1.09C92.19,163.94,92.16,163.09,92.15,162.43Zm-1,3.53c-.7,0-1.25.28-1.25.81s.4.67,1.2.67,1.21-.4,1.21-1a2.18,2.18,0,0,0,0-.28A3.37,3.37,0,0,0,91.15,166Zm2.61-6.74c.08-.14.15-.15.29-.1a11.33,11.33,0,0,1,2.75,1.32q.12.08.12.15a.35.35,0,0,1,0,.17,9.85,9.85,0,0,1-.59,1,.15.15,0,0,1-.13.09.17.17,0,0,1-.12,0,12.28,12.28,0,0,0-2.9-1.53A10.38,10.38,0,0,1,93.76,159.22Z"/><path d="M100.77,160.05c-1.24,0-1.67,0-1.75,0s-.16,0-.16-.15v-1.06c0-.15,0-.16.16-.16s.51,0,1.75,0h8.64c1.23,0,1.67,0,1.75,0s.15,0,.15.16v1.06c0,.14,0,.15-.15.15s-.52,0-1.75,0Zm0,9c-.15,0-.17,0-.17-.15s0-.39,0-2v-.79c0-.81,0-1.13,0-1.2s0-.17.17-.17.58,0,1.93,0h4.72c1.38,0,1.85,0,1.95,0s.16,0,.16.17,0,.39,0,1v.92c0,1.59,0,1.89,0,2s0,.15-.16.15h-1.16c-.16,0-.17,0-.17-.15v-.41h-6v.48c0,.14,0,.15-.17.15Zm2-11.09c-1.36,0-1.84,0-1.92,0s-.16,0-.16-.16v-1c0-.15,0-.17.16-.17s.56,0,1.92,0h4.66c1.36,0,1.84,0,1.92,0s.15,0,.15.17v1c0,.14,0,.16-.15.16s-.56,0-1.92,0ZM103,162c-1.34,0-1.8,0-1.89,0s-.15,0-.15-.16V161c0-.13,0-.14.15-.14h8.06c.15,0,.16,0,.16.14v.93c0,.15,0,.16-.16.16s-.55,0-1.9,0Zm0,2c-1.34,0-1.8,0-1.89,0s-.15,0-.15-.15v-.93c0-.14,0-.15.15-.15s.55,0,1.89,0h4.27c1.35,0,1.81,0,1.9,0s.16,0,.16.15v.93c0,.14,0,.15-.16.15s-.55,0-1.9,0Zm-.85,3.25h6V166h-6Z"/><path d="M114.84,158.32c-1.26,0-1.7,0-1.78,0s-.16,0-.16-.15v-.89c0-.14,0-.15.16-.15s.52,0,1.78,0h1.5a6.24,6.24,0,0,0-.09-.93c.44,0,1,.05,1.36.09.13,0,.2.05.2.12a.46.46,0,0,1-.09.23c0,.05,0,.19,0,.49h2.64a5.2,5.2,0,0,0-.08-.93c.43,0,1,.05,1.36.09.12,0,.19.05.19.12a.45.45,0,0,1-.08.23,1,1,0,0,0-.06.49h1.67c1.25,0,1.68,0,1.77,0s.15,0,.15.15v.89c0,.14,0,.15-.15.15s-.52,0-1.77,0h-1.67a5.15,5.15,0,0,0,0,.6l1.19.08c.14,0,.2.05.2.12a.43.43,0,0,1-.06.18,1.59,1.59,0,0,0-.07.56V160h.26c1.24,0,1.68,0,1.76,0s.15,0,.15.15v.82c0,.14,0,.15-.15.15s-.52,0-1.76,0h-.26v.16c0,.79,0,1.12,0,1.2s0,.16-.15.16-.41,0-1.43,0h-1.63c-1,0-1.34,0-1.43,0s-.15,0-.15-.16,0-.41,0-1.2V161h-1.75v2h6c1.35,0,1.82,0,1.9,0s.15,0,.15.15V164c0,.14,0,.16-.15.16s-.55,0-1.9,0h-2.68v.73h3.68c1.25,0,1.68,0,1.77,0s.15,0,.15.15v.87c0,.14,0,.16-.15.16s-.52,0-1.77,0H121a10.4,10.4,0,0,0,4.62,1.67,3.46,3.46,0,0,0-.56.86c-.18.41-.19.41-.61.3a10.61,10.61,0,0,1-4.71-2.4c0,1.39.07,2.31.07,2.54s0,.15-.15.15h-1.19c-.13,0-.14,0-.14-.15s0-1.11.07-2.54a10.21,10.21,0,0,1-4.54,2.41c-.42.1-.44.11-.63-.31a2.74,2.74,0,0,0-.53-.75,10,10,0,0,0,4.41-1.78h-2.26c-1.26,0-1.68,0-1.76,0s-.16,0-.16-.16V165c0-.14,0-.15.16-.15s.5,0,1.76,0h3.52v-.73h-1.51c-1.18,0-1.56,0-1.64,0s-.16,0-.16-.16,0-.46,0-1.27V161h-.17c-1.23,0-1.66,0-1.75,0s-.15,0-.15-.15v-.82c0-.14,0-.15.15-.15s.52,0,1.75,0h.17a8.72,8.72,0,0,0,0-1.09c.48,0,.88,0,1.29.06,0-.11,0-.28,0-.6Zm1.66.94a2.65,2.65,0,0,0,0,.55V160h1.75v-.13a4.43,4.43,0,0,0-.07-.9c.43,0,.87,0,1.32.08q.18,0,.18.12a.43.43,0,0,1-.06.18,1.94,1.94,0,0,0,0,.54V160h2.08v-.07a5.55,5.55,0,0,0,0-.73h-1.12c-.15,0-.16,0-.16-.15s0-.27,0-.68h-2.64c0,.41,0,.6,0,.68s0,.15-.16.15h-1Zm5.1,1.75h-2.08v.58h2.08Z"/><path d="M133,155.93v.77h-3.56v11.46h-.84V155.93Z"/><path d="M139.73,157c.17,0,.26.11.26.22s-.1.4-.1.59,0,.62.07.94a21,21,0,0,0,.45,2.41l2-1.06a3.5,3.5,0,0,0,1-.76,6.94,6.94,0,0,1,1,1.32.58.58,0,0,1,.09.29c0,.14-.08.25-.28.28a6.86,6.86,0,0,0-1.34.42,19,19,0,0,0-3.29,1.64c-1.22.8-1.66,1.46-1.66,2.11,0,.83.62,1.18,2.23,1.18a24.06,24.06,0,0,0,4.27-.32c.16,0,.23,0,.26.17a12.94,12.94,0,0,1,.14,1.3c0,.15-.09.22-.26.24a29.53,29.53,0,0,1-4.17.21c-2.65,0-4-.87-4-2.69,0-1.56,1-2.58,2.66-3.62a21.61,21.61,0,0,1-.73-3.41,5.86,5.86,0,0,0-.36-1.63A7.8,7.8,0,0,1,139.73,157Z"/><path d="M153,157.19c.18.07.26.15.26.28a.3.3,0,0,1-.09.22,1.65,1.65,0,0,0-.26.66c-.19,1-.3,2-.39,2.68a13.14,13.14,0,0,0,0,1.54c.31-.55.6-1.08,1-1.8a2.85,2.85,0,0,0,.44.91.4.4,0,0,1,.08.23.71.71,0,0,1-.14.35,12,12,0,0,0-.83,1.79,2.29,2.29,0,0,0-.07.42.2.2,0,0,1-.18.23c-.17,0-.77.12-1.12.16-.1,0-.17-.08-.2-.18a9.06,9.06,0,0,1-.42-2.84,30.17,30.17,0,0,1,.34-3.49,12.31,12.31,0,0,0,.11-1.6A7.58,7.58,0,0,1,153,157.19Zm4.55-.24c.28.07.31.14.28.38a4.57,4.57,0,0,0,0,.64c.1,1.33.2,2.61.2,3.62a9.13,9.13,0,0,1-1.07,4.86,7.52,7.52,0,0,1-2.31,2.25.46.46,0,0,1-.28.1.41.41,0,0,1-.29-.15,3.26,3.26,0,0,0-1.19-.65,7,7,0,0,0,2.38-1.87,6.77,6.77,0,0,0,1.18-4.47c0-1-.07-2.45-.17-3.35a6.37,6.37,0,0,0-.3-1.53A8.43,8.43,0,0,1,157.53,157Z"/><path d="M168.18,156.89c.17.06.26.14.26.26a.34.34,0,0,1-.07.22,1.05,1.05,0,0,0-.2.51c0,.25-.07.46-.11.7a27.25,27.25,0,0,0,3.64-.59c.17-.05.21,0,.24.14a4.27,4.27,0,0,1,.14,1c0,.18-.14.25-.3.28a29.07,29.07,0,0,1-4,.59c-.05.59-.08.92-.09,1.41a8.68,8.68,0,0,1,2.14-.31,3.73,3.73,0,0,0,.24-1,5.8,5.8,0,0,1,1.24.52c.17.11.26.22.26.31a.26.26,0,0,1-.09.17,1.13,1.13,0,0,0-.18.28,3.41,3.41,0,0,1,2.87,3.41c0,2-1.66,3.35-3.89,3.95-.31.09-.46.05-.62-.26a3.67,3.67,0,0,0-.82-.87,8.22,8.22,0,0,0,2.6-1,2.42,2.42,0,0,0,1.12-2.1,2.1,2.1,0,0,0-1.74-2,14.49,14.49,0,0,1-2.64,3.67,4.06,4.06,0,0,0,.25.64c.08.18,0,.25-.11.35a5.59,5.59,0,0,1-.84.49c-.14.07-.2.07-.28-.07a2.77,2.77,0,0,1-.24-.55,4.39,4.39,0,0,1-2.44,1,1.53,1.53,0,0,1-1.55-1.74c0-1.79,1.55-3.5,3.27-4.36,0-.6.05-1.21.07-1.75-.82,0-1.2,0-1.44,0a5.22,5.22,0,0,1-.8,0c-.15,0-.24-.08-.25-.32s0-.67-.07-1.07a21.77,21.77,0,0,0,2.72.06c0-.51.11-1.14.11-1.53a2.79,2.79,0,0,0-.06-.63A8.15,8.15,0,0,1,168.18,156.89Zm-3.72,9a.48.48,0,0,0,.46.53,3,3,0,0,0,1.62-.81,18.56,18.56,0,0,1-.28-2.41A3.75,3.75,0,0,0,164.46,165.89Zm5-3.64a6.4,6.4,0,0,0-1.79.32,14.73,14.73,0,0,0,.16,2.1A12.68,12.68,0,0,0,169.43,162.25Z"/><path d="M180.85,160.52c1.08-.17,1.87-.32,2.44-.45a2,2,0,0,0,.56-.22.54.54,0,0,1,.31-.1c.08,0,.12,0,.24.1a3.23,3.23,0,0,1,.82.74.54.54,0,0,1,.16.32c0,.13-.09.24-.26.33a1.78,1.78,0,0,0-.44.32c-1,1-1.61,1.57-2.55,2.58a1.58,1.58,0,0,1,.5-.07,1.6,1.6,0,0,1,1.53,1.41c.28,1.15.5,1.37,1.54,1.37a9.11,9.11,0,0,0,2.17-.25c.15,0,.22.06.25.21a6.93,6.93,0,0,1,.1,1.23c0,.14-.07.2-.25.23a12.53,12.53,0,0,1-2.06.18c-2.06,0-2.73-.55-3-1.93-.22-1-.39-1.35-.88-1.35a2,2,0,0,0-1.32.7c-.63.65-1.65,1.88-2.12,2.47a.3.3,0,0,1-.2.1.26.26,0,0,1-.15-.06,7.92,7.92,0,0,1-1-.85.26.26,0,0,1-.07-.14.37.37,0,0,1,.12-.23l2.64-2.69c.55-.56,1.28-1.37,2.78-3-1.05.28-2,.5-2.92.74a7.44,7.44,0,0,0-.75.25.61.61,0,0,1-.3.09c-.09,0-.16-.07-.24-.24a10.14,10.14,0,0,1-.56-1.57A15.73,15.73,0,0,0,180.85,160.52Zm3.91-3c.14,0,.2.12.15.31a8.62,8.62,0,0,1-.37,1.15c0,.11-.13.18-.24.15a21,21,0,0,1-3.91-1.17.19.19,0,0,1-.13-.25,13.53,13.53,0,0,1,.48-1.31A24.8,24.8,0,0,0,184.76,157.52Z"/><path d="M196.45,157.82a4.63,4.63,0,0,0-.17-1,14.15,14.15,0,0,1,1.64.19c.24,0,.39.14.39.27a.61.61,0,0,1-.12.32,1.19,1.19,0,0,0-.12.41c0,.18,0,.36,0,.89,1.51,0,2.95-.07,4.3-.07.16,0,.19,0,.21.21,0,.35,0,.72,0,1.07,0,.15-.07.19-.24.18-1.46,0-2.82,0-4.27,0,0,.86,0,1.75,0,2.61a4.34,4.34,0,0,1,.21,1.38,5.25,5.25,0,0,1-2.49,4.53,1.35,1.35,0,0,1-.55.26.73.73,0,0,1-.42-.21,3.39,3.39,0,0,0-1.06-.56,4.67,4.67,0,0,0,2.87-3.08,1.61,1.61,0,0,1-1.32.56,1.94,1.94,0,0,1-2-2.14,2,2,0,0,1,2.12-2.1,1.67,1.67,0,0,1,1.06.28c0-.49,0-1,0-1.43-1.77.1-3.74.27-4.85.42-.31,0-.53.17-.66.17s-.19-.06-.23-.2a8.67,8.67,0,0,1-.35-1.41,9.39,9.39,0,0,0,1.7-.06c.86-.07,2.67-.18,4.35-.28C196.46,158.55,196.46,158.2,196.45,157.82Zm-1.79,5.67a.86.86,0,0,0,.89.95.9.9,0,0,0,1-1,.84.84,0,0,0-.93-.9A.89.89,0,0,0,194.66,163.49Zm5.52-7.18c.07-.06.12-.05.21,0a6.88,6.88,0,0,1,1.33,1.5.15.15,0,0,1-.05.23l-.58.43a.15.15,0,0,1-.24,0,6.83,6.83,0,0,0-1.42-1.63Zm1.56-.52c.09-.06.13,0,.21,0a5.62,5.62,0,0,1,1.33,1.44.15.15,0,0,1,0,.25l-.56.43c-.11.09-.18.05-.24,0a6.44,6.44,0,0,0-1.4-1.61Z"/><path d="M205,165.52a.26.26,0,0,1,.21-.11.28.28,0,0,1,.18.08,10.54,10.54,0,0,1,2.79,2.57c.08.11.09.15.09.21s0,.12-.14.22l-.85.73c-.1.08-.15.13-.2.13s-.12,0-.19-.14a10.72,10.72,0,0,0-2.65-2.68c-.08-.05-.13-.1-.13-.14s0-.08.1-.17Z"/><path d="M218.25,159.47a7.67,7.67,0,0,1,2.46-.39c1.81,0,3,1,3,2.59,0,1.81-1.33,2.91-3.62,2.91h-.61c-.25,0-.32-.08-.38-.25a3.61,3.61,0,0,0-.69-1.35,8.93,8.93,0,0,0,1.56.14c1.29,0,2.1-.57,2.1-1.55,0-.74-.56-1.15-1.46-1.15a6.31,6.31,0,0,0-2.07.39,21.45,21.45,0,0,0-2.31.93c.74,2.1,1.44,4.06,2.17,6.23.06.18.07.24-.13.34a6,6,0,0,1-1.2.44c-.1,0-.14,0-.18-.15-.66-2.23-1.26-4.12-2-6.22l-1.33.63a3.59,3.59,0,0,0-.73.44.54.54,0,0,1-.27.14.5.5,0,0,1-.33-.21,9.36,9.36,0,0,1-.86-1.38,6.92,6.92,0,0,0,1.38-.36c.3-.11.78-.28,1.62-.65-.17-.5-.36-1.06-.64-1.8A4.84,4.84,0,0,0,213,158a10.61,10.61,0,0,1,1.88-.21c.13,0,.21.1.21.3a2.42,2.42,0,0,0,.06.46c.08.31.12.52.28,1.08a5.59,5.59,0,0,0,.25.74C216.59,160,217.46,159.71,218.25,159.47Zm-.35-2.84a.33.33,0,0,1,.15-.06.35.35,0,0,1,.16.06,7.49,7.49,0,0,1,1.51,1.27.28.28,0,0,1,.07.16.29.29,0,0,1-.07.15,4.44,4.44,0,0,1-.93.77.23.23,0,0,1-.12.06.2.2,0,0,1-.11-.07,7.49,7.49,0,0,0-1.74-1.54A11.76,11.76,0,0,1,217.9,156.63Z"/><path d="M228.93,162a13.85,13.85,0,0,1,4.09-.85,3,3,0,0,1,3.19,3,3.35,3.35,0,0,1-2,3.14,7.8,7.8,0,0,1-2.9.92c-.25,0-.37,0-.46-.2a3.06,3.06,0,0,0-.86-.92,10.08,10.08,0,0,0,3.38-1,2.19,2.19,0,0,0,1.26-2.08c0-1-.62-1.54-1.74-1.54a12.4,12.4,0,0,0-4,1.09,4.74,4.74,0,0,0-.79.43.41.41,0,0,1-.28.14c-.12,0-.22-.08-.36-.25a7.88,7.88,0,0,1-.76-1.36A14,14,0,0,0,228.93,162Z"/><path d="M64.06,184c-1.71.32-3.21.61-4.7.92-.54.13-.68.15-.89.22a.69.69,0,0,1-.31.12.33.33,0,0,1-.26-.21,9.72,9.72,0,0,1-.52-1.52,18.44,18.44,0,0,0,2.23-.23c1.72-.26,4.8-.72,8.42-1.2.21,0,.28.06.29.16a7.52,7.52,0,0,1,.15,1.23c0,.17-.08.21-.26.21a6,6,0,0,0-1.71.31c-2.38.81-3.57,2.45-3.57,4.13s1.29,2.79,3.72,2.94c.23,0,.31.06.31.21a4.89,4.89,0,0,1-.15,1.21c0,.21-.1.29-.27.29-2.46,0-5.17-1.41-5.17-4.33A5.08,5.08,0,0,1,64.06,184Z"/><path d="M79.86,185.43a5.12,5.12,0,0,0,0-1,6.06,6.06,0,0,1,1.63.6.27.27,0,0,1,.09.38,2.35,2.35,0,0,0-.22.54c-.11.59-.25,1.21-.39,1.81a16.78,16.78,0,0,1,2.18,1.34c.14.09.13.16.09.3a12.23,12.23,0,0,1-.61,1.2c0,.07-.08.1-.12.1a.26.26,0,0,1-.17-.1,11.1,11.1,0,0,0-1.84-1.31A8.6,8.6,0,0,1,77.66,193c-.13.1-.2.15-.28.15a.33.33,0,0,1-.21-.09A2.94,2.94,0,0,0,76,192.5a7.72,7.72,0,0,0,3.13-3.79,9.38,9.38,0,0,0-2.77-.86,9.67,9.67,0,0,1-1.71,2.8,2.29,2.29,0,0,1-1.79.77,1.7,1.7,0,0,1-1.67-1.92c0-1.73,1.8-3.09,4.13-3.09a34.49,34.49,0,0,0,1.17-3.32l-1.94.22a2.91,2.91,0,0,0-.63.16.66.66,0,0,1-.25.05.22.22,0,0,1-.22-.15,8.15,8.15,0,0,1-.41-1.53,5.1,5.1,0,0,0,1.23.09,14.62,14.62,0,0,0,2.18-.19,1.53,1.53,0,0,0,.68-.23.28.28,0,0,1,.18-.06.3.3,0,0,1,.2.06,4.51,4.51,0,0,1,1,.77.31.31,0,0,1,.13.23.36.36,0,0,1-.14.24,1.89,1.89,0,0,0-.38.73c-.36,1-.76,2.05-1.18,3.06a11.37,11.37,0,0,1,2.72.7A14.84,14.84,0,0,0,79.86,185.43Zm-7.4,3.91c0,.44.15.64.49.64a1.12,1.12,0,0,0,.81-.53,9.71,9.71,0,0,0,1-1.71C73.36,187.8,72.46,188.54,72.46,189.34Z"/><path d="M90.2,186.59a4.18,4.18,0,0,1,2.23-.63,3.25,3.25,0,0,1,3.47,3.36c0,2.34-1.89,3.84-4.89,3.84-1.76,0-2.83-.76-2.83-2.06a1.86,1.86,0,0,1,2-1.71,2.55,2.55,0,0,1,2.63,2.05,2.12,2.12,0,0,0,1.43-2.13,2,2,0,0,0-2.2-2.12,5.72,5.72,0,0,0-3.59,1.49c-.4.36-.79.77-1.21,1.19-.1.1-.17.15-.24.15a.33.33,0,0,1-.21-.12,6.39,6.39,0,0,1-.83-.91c-.08-.12,0-.21.07-.33a34.34,34.34,0,0,0,3.32-3.09c.87-.9,1.53-1.6,2.17-2.4-.84.16-1.83.35-2.7.54a4.42,4.42,0,0,0-.59.16,1,1,0,0,1-.28.07.32.32,0,0,1-.31-.23,7,7,0,0,1-.49-1.52,6.28,6.28,0,0,0,1.3,0c.86-.08,2.09-.27,3.18-.48a3.71,3.71,0,0,0,.77-.21.77.77,0,0,1,.27-.11.5.5,0,0,1,.32.11,5.88,5.88,0,0,1,.94.9.49.49,0,0,1,.15.34.36.36,0,0,1-.23.33,2.23,2.23,0,0,0-.62.45c-1,1-2,2-3,3Zm0,4a.6.6,0,0,0-.67.54c0,.43.38.72,1.22.72a3.2,3.2,0,0,0,.64-.05C91.22,191,90.8,190.58,90.21,190.58Z"/><path d="M98.62,193.85v-.77h3.56V181.62H103v12.23Z"/><path d="M116.17,187.68c-1.35,0-1.82,0-1.91,0s-.15,0-.15-.15v0a3.77,3.77,0,0,0-.38.72c-.07.17-.11.26-.17.26s-.09-.07-.18-.23a7.91,7.91,0,0,1-.68-1.72c0,3.66.09,6.62.09,6.85s0,.15-.15.15h-1.11c-.14,0-.15,0-.15-.15s.07-2.9.08-6.11a10.72,10.72,0,0,1-1.17,2.83c-.09.14-.16.22-.21.22s-.1-.07-.14-.22a4.14,4.14,0,0,0-.49-1.05,11.91,11.91,0,0,0,1.93-4.38h-.16c-.92,0-1.2,0-1.28,0s-.16,0-.16-.16v-1c0-.16,0-.17.16-.17s.36,0,1.28,0h.21v-.83a10,10,0,0,0-.11-1.87,12.9,12.9,0,0,1,1.36.09c.14,0,.23.07.23.16a.55.55,0,0,1-.09.29,4.14,4.14,0,0,0-.08,1.32v.84c.81,0,1.08,0,1.16,0s.14,0,.14.17v1c0,.15,0,.16-.14.16s-.35,0-1.13,0a9.49,9.49,0,0,0,1.34,2.59v-.65c0-.14,0-.15.15-.15s.56,0,1.91,0h1v-.86h-.65c-1.25,0-1.67,0-1.75,0s-.15,0-.15-.15v-.87c0-.16,0-.17.15-.17s.5,0,1.75,0h.65v-.84h-.84c-1.32,0-1.77,0-1.85,0s-.16,0-.16-.14v-.9c0-.14,0-.16.16-.16s.46,0,1.45,0a10.73,10.73,0,0,0-.63-1.17c-.08-.13,0-.17.1-.24l.85-.32c.16-.06.17-.06.27.07a6.58,6.58,0,0,1,.67,1.14c.07.14,0,.17-.12.24l-.76.28h2.09c.19-.38.42-.82.57-1.19a2.64,2.64,0,0,0,.17-.61,9,9,0,0,1,1.21.28c.14,0,.22.09.22.19a.26.26,0,0,1-.14.21.67.67,0,0,0-.2.25,8.45,8.45,0,0,1-.47.87h.08c1.3,0,1.75,0,1.84,0s.16,0,.16.16v.9c0,.12,0,.14-.16.14s-.54,0-1.84,0h-1.34v.84h1c1.26,0,1.67,0,1.75,0s.16,0,.16.17v.87c0,.14,0,.15-.16.15s-.49,0-1.75,0h-1v.86h1.71c1.34,0,1.8,0,1.89,0s.15,0,.15.15v.93c0,.14,0,.15-.15.15s-.55,0-1.89,0h-1.46a9.28,9.28,0,0,0,.9,1.54,9.64,9.64,0,0,0,.89-.84,2,2,0,0,0,.35-.49,8.19,8.19,0,0,1,.9.69.31.31,0,0,1,.15.24c0,.08,0,.14-.18.18a1,1,0,0,0-.42.27c-.27.25-.56.53-.95.85a9.37,9.37,0,0,0,2.22,1.65,3.09,3.09,0,0,0-.67.83c-.11.2-.17.28-.24.28s-.15-.07-.3-.18a8.28,8.28,0,0,1-2.92-3.49c0,1.21.06,2.16.06,2.79a1.33,1.33,0,0,1-.45,1.19,2.68,2.68,0,0,1-1.53.28c-.44,0-.44,0-.54-.44a3.4,3.4,0,0,0-.37-.89,9.77,9.77,0,0,0,1,.05c.42,0,.52-.09.52-.46v-1a24.64,24.64,0,0,1-2.54,1.4,1.26,1.26,0,0,0-.43.28.33.33,0,0,1-.2.13c-.06,0-.1,0-.15-.16-.16-.33-.31-.7-.49-1.19a4.27,4.27,0,0,0,.81-.28,26,26,0,0,0,3-1.54v-1.71Zm-.45,2.17c-.14.14-.2.16-.28.05a5.37,5.37,0,0,0-1.16-1.17c-.13-.08-.11-.12,0-.25l.53-.53c.14-.13.19-.13.3-.06a5.56,5.56,0,0,1,1.19,1.07c.08.11.07.15,0,.26Z"/><path d="M129,186a17.09,17.09,0,0,1-3.31,3.53c-.13.08-.2.14-.28.14a.29.29,0,0,1-.17-.06,3.56,3.56,0,0,0-1.19-.54,17.78,17.78,0,0,0,4.57-5.31,6.74,6.74,0,0,0,.84-2.06,9.72,9.72,0,0,1,1.54.63.26.26,0,0,1,.13.21.36.36,0,0,1-.13.24,2.32,2.32,0,0,0-.42.47c-.22.44-.59,1-.83,1.42l2.57-.07a1.56,1.56,0,0,0,.71-.14.35.35,0,0,1,.18-.06.48.48,0,0,1,.28.1,4.68,4.68,0,0,1,.87.7.44.44,0,0,1,.13.29.28.28,0,0,1-.09.2,2.32,2.32,0,0,0-.47.67,16.15,16.15,0,0,1-2.52,3.5,11.65,11.65,0,0,1,1.31,1.39c.07.09.11.14.11.2s0,.11-.12.19a7.85,7.85,0,0,1-.88.76.26.26,0,0,1-.16.08q-.08,0-.15-.12a14.89,14.89,0,0,0-3.91-3.52c.31-.31.59-.6.88-.85.07-.07.11-.1.17-.1a.53.53,0,0,1,.2.08,17.21,17.21,0,0,1,1.5,1.08,11.07,11.07,0,0,0,2.12-3.14Z"/><path d="M144.74,183.17c.13,0,.19,0,.21.12a7,7,0,0,1,.13,1.13c0,.13-.06.15-.17.17-.75.15-1.44.25-2.31.38a39.28,39.28,0,0,1-2.73,6c-.06.09-.1.14-.16.14a.4.4,0,0,1-.16-.07,7,7,0,0,1-1-.72c-.07-.06-.1-.1-.1-.15a.29.29,0,0,1,.07-.17,28.48,28.48,0,0,0,2.43-4.89c-.54,0-1,0-1.41,0s-.42,0-.77,0c-.14,0-.16,0-.19-.22a7.64,7.64,0,0,1-.14-1.19c.57,0,.89.06,1.3.06s1,0,1.61-.07c.17-.59.27-1.07.37-1.57a5.71,5.71,0,0,0,.08-1.14,13.55,13.55,0,0,1,1.64.3.23.23,0,0,1,.22.21.34.34,0,0,1-.12.26,1.52,1.52,0,0,0-.23.52c-.1.34-.21.77-.33,1.19A15,15,0,0,0,144.74,183.17Zm.4,3.76a5,5,0,0,0-.12-1,7.58,7.58,0,0,1,1.53.27c.13,0,.2.1.2.22a1.65,1.65,0,0,1-.09.3,1.42,1.42,0,0,0,0,.57,18.53,18.53,0,0,0,.15,2.38,10.91,10.91,0,0,1,2.52,1.31c.14.09.16.15.09.29a8.6,8.6,0,0,1-.65,1.13c0,.07-.08.1-.12.1a.21.21,0,0,1-.14-.08,11.23,11.23,0,0,0-1.71-1.18c0,1.4-1,2-2.61,2s-2.58-.79-2.58-2,1-2.05,2.6-2.05a7.36,7.36,0,0,1,1.1.09C145.18,188.44,145.15,187.59,145.14,186.93Zm-1,3.53c-.7,0-1.25.28-1.25.81s.4.67,1.2.67,1.21-.4,1.21-1a2.18,2.18,0,0,0,0-.28A3.37,3.37,0,0,0,144.14,190.46Zm2.61-6.74c.08-.14.15-.15.29-.1a11.33,11.33,0,0,1,2.75,1.32q.12.08.12.15a.35.35,0,0,1,0,.17,9.85,9.85,0,0,1-.59,1,.15.15,0,0,1-.13.09.17.17,0,0,1-.12,0,12.28,12.28,0,0,0-2.9-1.53A10.38,10.38,0,0,1,146.75,183.72Z"/><path d="M153.6,189.57c-1.22,0-1.64,0-1.72,0s-.14,0-.14-.15v-.84c0-.14,0-.16.14-.16s.5,0,1.72,0h3.76v-.66h-2.31c-1.36,0-1.83,0-1.91,0s-.15,0-.15-.14v-.77c0-.14,0-.15.15-.15s.55,0,1.91,0h2.31v-.61h-1.81c-1.37,0-1.86,0-2,0s-.17,0-.17-.17,0-.27,0-.73v-.76c0-.46,0-.64,0-.72s0-.17.17-.17.58,0,2,0h1.81v-.62h-3.53c-1.26,0-1.7,0-1.78,0s-.16,0-.16-.16v-.88c0-.14,0-.15.16-.15s.52,0,1.78,0h3.53a6.57,6.57,0,0,0-.1-1.28,13.83,13.83,0,0,1,1.46.08c.12,0,.22.07.22.15a.54.54,0,0,1-.08.27,2,2,0,0,0-.09.78h3.56c1.26,0,1.69,0,1.78,0s.15,0,.15.15V183c0,.14,0,.16-.15.16s-.52,0-1.78,0h-3.56v.62h1.86c1.38,0,1.87,0,2,0s.15,0,.15.17,0,.26,0,.72v.76c0,.46,0,.64,0,.73s0,.17-.15.17-.59,0-2,0h-1.86v.61H161c1.37,0,1.86,0,1.93,0s.16,0,.16.15,0,.42,0,1.22v.32c.83,0,1.15,0,1.22,0s.14,0,.14.16v.84c0,.14,0,.15-.14.15l-1.22,0v.72c0,.84,0,1.2,0,1.29s0,.15-.16.15H161.9c-.15,0-.16,0-.16-.15v-.31h-3c0,.25,0,.49,0,.7,0,.64-.13,1-.51,1.25a4.57,4.57,0,0,1-2,.3c-.42,0-.42,0-.56-.4a4.73,4.73,0,0,0-.55-1.07,9.64,9.64,0,0,0,1.42.06c.6,0,.73-.11.73-.52v-.32h-2.3c-1.37,0-1.84,0-1.92,0s-.15,0-.15-.17v-.76c0-.15,0-.16.15-.16s.55,0,1.92,0h2.3v-.66Zm3.76-4.27v-.7h-2.54v.7Zm4-.7h-2.59v.7h2.59Zm-2.59,3.22v.66h3v-.66Zm3,2.41v-.66h-3v.66Z"/><path d="M169.13,182.3c.24.13.32.21.32.34s0,.14-.21.42a3.17,3.17,0,0,0-.33,1,22.1,22.1,0,0,0-.59,4.52,15,15,0,0,0,.08,1.64c.3-.65.55-1.11.95-2.09a4,4,0,0,0,.49.88.49.49,0,0,1,.1.21.42.42,0,0,1-.07.23,14.1,14.1,0,0,0-.8,2.11,2.11,2.11,0,0,0,0,.44c0,.17,0,.28,0,.39s-.06.15-.18.18a7.8,7.8,0,0,1-1.15.23c-.1,0-.16-.06-.18-.16a12.9,12.9,0,0,1-.65-4.17,27.11,27.11,0,0,1,.48-4.6,11.3,11.3,0,0,0,.25-2.08A6.23,6.23,0,0,1,169.13,182.3Zm3,6.6c.11,0,.14.06.14.21.08,1,.75,1.32,2.28,1.32a20.54,20.54,0,0,0,2.68-.18c.14,0,.16,0,.19.18a10.69,10.69,0,0,1,.09,1.2c0,.17,0,.19-.24.21A17.51,17.51,0,0,1,175,192c-2.07,0-3-.34-3.64-1.16a3.12,3.12,0,0,1-.49-1.83Zm-.79-5.24c0-.16.06-.21.2-.24a23,23,0,0,1,3-.25,20.06,20.06,0,0,1,2.07.09c.3,0,.32,0,.32.18,0,.42,0,.8,0,1.19,0,.13-.06.18-.19.17-.84-.06-1.57-.09-2.28-.09a17,17,0,0,0-3.18.33C171.31,184.25,171.31,183.9,171.34,183.66Z"/><path d="M182.72,189c0,1.34.05,2.1.05,2.8s-.13,1.15-.44,1.39-.6.28-1.46.31c-.56,0-.58,0-.65-.42a3.5,3.5,0,0,0-.35-1,7,7,0,0,0,1.19.06c.18,0,.29-.08.29-.39v-2.93l-.59.2a1.72,1.72,0,0,0-.5.25.38.38,0,0,1-.23.08c-.08,0-.15,0-.18-.18-.08-.38-.17-.84-.24-1.33a9.57,9.57,0,0,0,1.31-.27,4.26,4.26,0,0,0,.43-.12V184.8h-.29c-.87,0-1.14,0-1.22,0s-.14,0-.14-.16v-1c0-.14,0-.15.14-.15s.35,0,1.22,0h.29v-.72a13.94,13.94,0,0,0-.11-2c.52,0,1,0,1.43.09.14,0,.24.09.24.16a.77.77,0,0,1-.1.29,4,4,0,0,0-.09,1.42v.75c.56,0,.79,0,.87,0s.16,0,.16.15v1c0,.14,0,.16-.16.16l-.87,0v2.13c.47-.17.93-.37,1.35-.55a6.79,6.79,0,0,0-.07,1c0,.37,0,.4-.28.51s-.65.27-1,.4Zm1.91-6c.14-.11.15-.11.22,0a12.66,12.66,0,0,1,1,2.1v-2a16.88,16.88,0,0,0-.12-2.25c.52,0,1,0,1.42.1.14,0,.22.06.22.13s-.07.25-.09.39a9.94,9.94,0,0,0-.06,1.48v3.51a12.6,12.6,0,0,1-.52,4.06,5.38,5.38,0,0,1-2.25,2.88.78.78,0,0,1-.34.14c-.1,0-.15-.08-.28-.25a4.24,4.24,0,0,0-.83-.82,4.12,4.12,0,0,0,2.34-2.32,7.06,7.06,0,0,0,.41-1.66,13.69,13.69,0,0,1-1.15.81,1.27,1.27,0,0,0-.35.29c-.06.06-.11.13-.18.13s-.13-.06-.2-.17a7.89,7.89,0,0,1-.56-1.13,3.84,3.84,0,0,0,.79-.35,10.76,10.76,0,0,0,1.75-1.18v-1.4l-.06,0-.66.59c-.07.07-.12.1-.17.1s-.05,0-.08-.11a14.19,14.19,0,0,0-1-2.24c-.09-.13-.09-.16.07-.28Zm4.9,8.43c0,.38,0,.51.08.58s.23.12.64.12.58,0,.72-.23a3.94,3.94,0,0,0,.23-1.64,4,4,0,0,0,.88.38c.36.11.36.12.34.49-.07,1.13-.3,1.72-.66,2a2.71,2.71,0,0,1-1.65.35,2.76,2.76,0,0,1-1.46-.24c-.32-.21-.49-.47-.49-1.33v-8.79a20.44,20.44,0,0,0-.07-2.25c.46,0,.92,0,1.39.1.16,0,.25.06.25.17a1.13,1.13,0,0,1-.09.34,4.93,4.93,0,0,0-.11,1.44v2.42a10.78,10.78,0,0,0,1.14-1.94,5.36,5.36,0,0,0,.22-.62,6.59,6.59,0,0,1,1.05.74c.14.11.18.2.18.27s-.05.14-.15.22a1.1,1.1,0,0,0-.28.37,18.12,18.12,0,0,1-1,1.55c-.12.17-.19.25-.26.25s-.14-.08-.28-.24a3.7,3.7,0,0,0-.65-.54v1.08a18.66,18.66,0,0,1,2.61,2c.05.06.07.09.07.13s0,.1-.1.2l-.59.74c-.07.1-.11.14-.14.14s-.07,0-.13-.09a19,19,0,0,0-1.72-1.58Z"/><path d="M195.52,191.34c-1.29,0-1.72,0-1.81,0s-.15,0-.15-.16v-1c0-.14,0-.16.15-.16s.52,0,1.81,0h1.13V189h-.57c-1.19,0-1.61,0-1.7,0s-.16,0-.16-.15,0-.49,0-1.38v-2.36c0-.89,0-1.28,0-1.36s0-.16.16-.16.51,0,1.7,0h2.49c1.19,0,1.61,0,1.7,0s.15,0,.15.16,0,.47,0,1.36v2.36c0,.89,0,1.29,0,1.38s0,.15-.15.15-.51,0-1.7,0H198v1.08h.84c1.29,0,1.74,0,1.83,0s.14,0,.14.16v1c0,.14,0,.16-.14.16s-.54,0-1.83,0H198v.34c0,1.14,0,1.68,0,1.76s0,.15-.14.15h-1.08c-.14,0-.15,0-.15-.15s0-.62,0-1.76v-.34Zm-.76-10.42c.16-.06.18-.06.27.08a19.7,19.7,0,0,1,.91,1.77c.05.15.05.16-.16.25l-.84.36c-.19.09-.22.07-.28-.08a8.92,8.92,0,0,0-.82-1.78c-.06-.13,0-.17.11-.24Zm1.91,4.9v-1h-1.19v1Zm0,2.14v-1.1h-1.19V188Zm.43-7.28c.17-.06.21,0,.28.1a9.15,9.15,0,0,1,.73,1.85c0,.14,0,.15-.14.22l-.84.29c-.21.07-.25.07-.29-.09a9.35,9.35,0,0,0-.68-1.89c0-.14,0-.16.14-.21Zm.86,4.09v1h1.19v-1Zm1.19,2.09H198V188h1.19Zm0-5.26a2.63,2.63,0,0,0,.21-.75,8,8,0,0,1,1.28.39c.11,0,.17.1.17.18a.28.28,0,0,1-.13.24,1.09,1.09,0,0,0-.25.38,14.91,14.91,0,0,1-.76,1.44c-.08.11-.13.17-.21.17a.89.89,0,0,1-.29-.1,2.66,2.66,0,0,0-.86-.24A8.79,8.79,0,0,0,199.13,181.6Zm4.16,4.5a21.59,21.59,0,0,0,.3,2.37c.16-.25.31-.52.45-.79a5.1,5.1,0,0,0,.46-1.16,8.6,8.6,0,0,1,1.09.52c.15.08.21.15.21.25s-.1.2-.2.28a2,2,0,0,0-.37.6,12.76,12.76,0,0,1-1.22,2c.35,1.09.71,1.69,1,1.69s.35-.36.48-1.66a3.42,3.42,0,0,0,.73.45c.39.21.39.22.3.68-.23,1.43-.64,2.1-1.34,2.1-.91,0-1.64-.87-2.16-2.1a12.25,12.25,0,0,1-2.49,2,1,1,0,0,1-.35.15c-.08,0-.15-.1-.28-.32a2.61,2.61,0,0,0-.62-.8,10.44,10.44,0,0,0,3.27-2.45,22.13,22.13,0,0,1-.59-3.57l-1,.14c-.14,0-.17,0-.18-.13l-.11-1.11c0-.14,0-.15.12-.16s.38,0,1.05-.1c0-.72-.07-1.42-.07-2.13a9.82,9.82,0,0,0-.14-2,13.91,13.91,0,0,1,1.46.12c.15,0,.23.08.23.16a.58.58,0,0,1-.08.3,4,4,0,0,0-.09,1.37c0,.66,0,1.32,0,2l1.27-.17c1.12-.16,1.5-.24,1.64-.27s.16,0,.17.14l.11,1.09c0,.13,0,.16-.12.17s-.55,0-1.66.2Zm1.28-4.8c.12-.07.15-.09.25,0A7.73,7.73,0,0,1,206,183c.08.14.06.17-.08.25l-.8.5c-.18.11-.2.08-.28-.08a8.48,8.48,0,0,0-1.14-1.65c-.1-.11-.08-.18.09-.26Z"/><path d="M212.54,181.66c.24.06.34.13.34.27a1.29,1.29,0,0,1-.14.46,8.29,8.29,0,0,0-.2,1.71c-.14,2.16-.21,3.58-.21,5.42,0,1.41.17,1.74,1.29,1.74a7.41,7.41,0,0,0,4.91-2.58,4.71,4.71,0,0,0,.32,1.33.89.89,0,0,1,.11.33c0,.13-.06.24-.28.44a8,8,0,0,1-5.31,2.1c-1.79,0-2.63-.71-2.63-2.86,0-2.35.12-4.37.19-6.05a9.21,9.21,0,0,0-.14-2.56A14.63,14.63,0,0,1,212.54,181.66Z"/><path d="M64.06,208.49c-1.71.32-3.21.61-4.7.92-.54.13-.68.15-.89.22a.69.69,0,0,1-.31.12.33.33,0,0,1-.26-.21,9.72,9.72,0,0,1-.52-1.52,18.44,18.44,0,0,0,2.23-.23c1.72-.26,4.8-.72,8.42-1.2.21,0,.28.06.29.16a7.52,7.52,0,0,1,.15,1.23c0,.17-.08.21-.26.21a6,6,0,0,0-1.71.31c-2.38.81-3.57,2.45-3.57,4.13s1.29,2.79,3.72,2.94c.23,0,.31.06.31.21a4.89,4.89,0,0,1-.15,1.21c0,.21-.1.29-.27.29-2.46,0-5.17-1.41-5.17-4.33a5.08,5.08,0,0,1,2.69-4.44Z"/><path d="M71.46,214.52a.29.29,0,0,1,.21-.11.28.28,0,0,1,.19.08,10.5,10.5,0,0,1,2.78,2.57c.09.11.1.15.1.21s0,.12-.14.22l-.85.73c-.1.08-.16.13-.2.13s-.12,0-.19-.14a10.72,10.72,0,0,0-2.65-2.68c-.09-.05-.13-.1-.13-.14s0-.08.1-.17Z"/><path d="M86.74,217.84c-.14,0-.15,0-.15-.15s0-.93,0-5V210c0-2.72,0-3.57,0-3.66s0-.17.15-.17.57,0,1.93,0h4.81c1.36,0,1.85,0,1.93,0s.15,0,.15.17,0,.94,0,3.24v3.11c0,4,0,4.84,0,4.93s0,.15-.15.15H94.16c-.14,0-.15,0-.15-.15v-.69H88.14v.76c0,.14,0,.15-.15.15Zm1.4-7.06H94v-3.19H88.14ZM94,215.55v-3.39H88.14v3.39Z"/><path d="M104,210.49a17.09,17.09,0,0,1-3.31,3.53.6.6,0,0,1-.28.14.29.29,0,0,1-.17-.06,3.56,3.56,0,0,0-1.19-.54,17.64,17.64,0,0,0,4.57-5.31,6.74,6.74,0,0,0,.84-2.06,9.72,9.72,0,0,1,1.54.63.26.26,0,0,1,.13.21.36.36,0,0,1-.13.24,2.32,2.32,0,0,0-.42.47c-.22.44-.59,1-.83,1.42l2.57-.07a1.56,1.56,0,0,0,.71-.14.35.35,0,0,1,.18-.06.46.46,0,0,1,.28.1,4.68,4.68,0,0,1,.87.7.44.44,0,0,1,.13.29.28.28,0,0,1-.09.2,2.32,2.32,0,0,0-.47.67,16.15,16.15,0,0,1-2.52,3.5,11.65,11.65,0,0,1,1.31,1.39c.07.09.12.14.12.2s0,.11-.13.19a7.85,7.85,0,0,1-.88.76.26.26,0,0,1-.16.08s-.1,0-.15-.12a14.89,14.89,0,0,0-3.91-3.52c.31-.31.59-.6.88-.85.07-.07.11-.1.17-.1a.53.53,0,0,1,.2.08,15.82,15.82,0,0,1,1.5,1.08,11.07,11.07,0,0,0,2.12-3.14Z"/><path d="M121.14,208.88a18.23,18.23,0,0,0,.57,4,11.14,11.14,0,0,0,.85-1.64,6.73,6.73,0,0,0,.37-1.29,7.81,7.81,0,0,1,1.31.51c.14.07.21.14.21.22s-.1.18-.2.3a2.11,2.11,0,0,0-.35.68,15.64,15.64,0,0,1-1.6,2.85c.51,1.08,1.15,1.75,1.5,1.75s.49-.42.58-1.73a2.54,2.54,0,0,0,.78.55c.41.21.41.21.34.65-.23,1.49-.73,2.18-1.59,2.18s-1.89-.9-2.59-2.2a11.06,11.06,0,0,1-2.53,2.09.85.85,0,0,1-.34.15c-.08,0-.15-.08-.29-.29a3.39,3.39,0,0,0-.72-.74,11.09,11.09,0,0,0,3.25-2.64,17,17,0,0,1-1-5.36h-4.31v1.8h2c.86,0,1.11,0,1.19,0s.17,0,.17.18c0,.53,0,1.12-.07,1.54a11.13,11.13,0,0,1-.32,2.61,1.61,1.61,0,0,1-1.63,1.16,5.62,5.62,0,0,1-.71,0c-.32,0-.34,0-.41-.46a3,3,0,0,0-.33-1,6.75,6.75,0,0,0,1.15.11.59.59,0,0,0,.67-.5,11.64,11.64,0,0,0,.21-2.26h-2a18.8,18.8,0,0,1-.25,2.45,10.57,10.57,0,0,1-1.1,3.28c-.1.18-.17.27-.24.27s-.15-.07-.28-.23a4.34,4.34,0,0,0-.86-.78,7.59,7.59,0,0,0,1.09-3.1,23.94,23.94,0,0,0,.19-3.39c0-1.9,0-2.73,0-2.81s0-.17.16-.17.55,0,1.88,0h3.73v-.3a15.47,15.47,0,0,0-.11-2c.53,0,1,0,1.51.1.14,0,.21.08.21.16a.62.62,0,0,1-.07.27,4.64,4.64,0,0,0-.07,1.4v.34h2.1c1.32,0,1.78,0,1.86,0s.16,0,.16.17v1.06c0,.14,0,.16-.16.16s-.54,0-1.86,0Zm1.64-3.46c.14-.1.18-.1.29,0a6.38,6.38,0,0,1,1.21,1.18c.08.11.08.17-.07.27l-.67.5c-.09.06-.14.1-.19.1s-.07,0-.11-.1a5.2,5.2,0,0,0-1.13-1.23c-.06-.06-.09-.09-.09-.13s0-.07.11-.12Z"/><path d="M128.75,212.88c-1.24,0-1.68,0-1.76,0s-.14,0-.14-.15v-1c0-.14,0-.15.14-.15s.52,0,1.76,0h.42v-4.06c0-1,0-1.5,0-1.58s0-.15.15-.15.57,0,1.93,0h4.68c1.36,0,1.82,0,1.91,0s.16,0,.16.15v1c0,.13,0,.14-.16.14s-.55,0-1.91,0h-5.25v.78h4.66c1.31,0,1.74,0,1.82,0s.16,0,.16.17v.81c0,.14,0,.16-.16.16s-.51,0-1.82,0h-4.66v.77h4.66c1.31,0,1.73,0,1.81,0s.17,0,.17.17v.81c0,.14,0,.15-.17.15s-.5,0-1.81,0h-4.66v.79h6.72c1.25,0,1.67,0,1.75,0s.17,0,.17.15v1c0,.14,0,.15-.17.15s-.5,0-1.75,0h-3.95a6,6,0,0,0,1.47,1.77,11.18,11.18,0,0,0,1.43-1.15,2.31,2.31,0,0,0,.45-.57,12.82,12.82,0,0,1,1.12.74c.1.07.14.12.14.21s-.07.12-.17.14a1.52,1.52,0,0,0-.49.29,14.92,14.92,0,0,1-1.43,1,11.82,11.82,0,0,0,3.67,1.2,3.58,3.58,0,0,0-.6,1c-.21.43-.21.43-.63.33a8.89,8.89,0,0,1-6.36-5h-1.37v3c.84-.19,1.69-.4,2.62-.67a6.09,6.09,0,0,0-.06.88c0,.45,0,.45-.43.58-1.54.46-3.08.85-4.47,1.14a1.23,1.23,0,0,0-.49.19.34.34,0,0,1-.21.08c-.06,0-.11-.06-.17-.18-.14-.39-.29-1-.39-1.36a14.28,14.28,0,0,0,1.5-.21l.61-.13v-3.32Z"/><path d="M145.55,206.16c.24.06.34.13.34.27a1.29,1.29,0,0,1-.14.46,8.29,8.29,0,0,0-.2,1.71c-.14,2.16-.21,3.58-.21,5.42,0,1.41.17,1.74,1.29,1.74a7.41,7.41,0,0,0,4.91-2.58,4.71,4.71,0,0,0,.32,1.33.89.89,0,0,1,.11.33c0,.13-.06.24-.28.44a8,8,0,0,1-5.31,2.1c-1.79,0-2.63-.71-2.63-2.86,0-2.35.12-4.37.19-6.05a9.21,9.21,0,0,0-.14-2.56A14.63,14.63,0,0,1,145.55,206.16Z"/><path d="M162.06,208.49c-1.71.32-3.21.61-4.7.92-.54.13-.68.15-.89.22a.69.69,0,0,1-.31.12.33.33,0,0,1-.26-.21,9.72,9.72,0,0,1-.52-1.52,18.44,18.44,0,0,0,2.23-.23c1.72-.26,4.8-.72,8.42-1.2.21,0,.28.06.29.16a7.52,7.52,0,0,1,.15,1.23c0,.17-.08.21-.26.21a6,6,0,0,0-1.71.31c-2.38.81-3.57,2.45-3.57,4.13s1.29,2.79,3.72,2.94c.23,0,.31.06.31.21a4.89,4.89,0,0,1-.15,1.21c0,.21-.1.29-.27.29-2.46,0-5.17-1.41-5.17-4.33a5.08,5.08,0,0,1,2.69-4.44Z"/><path d="M171.48,207.69c.13.05.23.15.23.25a1.33,1.33,0,0,1-.12.39,6.85,6.85,0,0,0-.12,1.37,18,18,0,0,0,.25,3.2c.2,1.1.56,2.06,1.15,2.06s.8-.49,1.34-2a5.56,5.56,0,0,0,.9,1.08.43.43,0,0,1,.1.52c-.53,1.43-1.4,2.18-2.38,2.18s-2.24-1.29-2.62-3.65a24.86,24.86,0,0,1-.34-4.08,7.58,7.58,0,0,0-.17-1.84A6.27,6.27,0,0,1,171.48,207.69Zm6.5.88a.42.42,0,0,1,.15-.06c.06,0,.1,0,.16.09a9.26,9.26,0,0,1,2.74,4.79c.05.18,0,.24-.15.31a5.12,5.12,0,0,1-1.09.56c-.17.05-.27,0-.3-.16a9.41,9.41,0,0,0-2.62-4.89C177.41,208.88,177.76,208.68,178,208.57Z"/><path d="M187.62,206.75a3.34,3.34,0,0,0-.49-.9,9.76,9.76,0,0,1,1.7-.15c.2,0,.31.11.31.25s0,.18,0,.27a2.49,2.49,0,0,0,.06.42c.09.36.14.49.22.73a24.39,24.39,0,0,0,2.86-.75c.12-.05.19,0,.23.07a7.62,7.62,0,0,1,.24.94.21.21,0,0,1-.16.25c-.94.3-1.8.51-2.75.72.13.35.31.78.49,1.17a16,16,0,0,0,2.55-.72c.14-.07.21-.05.25.08a5,5,0,0,1,.25.92c0,.13,0,.2-.11.26a18.22,18.22,0,0,1-2.37.68,10.58,10.58,0,0,0,1.84,2.43c.14.12.14.18.07.33a4.21,4.21,0,0,1-.57.87c-.09.1-.15.14-.23.14a.43.43,0,0,1-.2-.08,3.18,3.18,0,0,0-.82-.45,6.82,6.82,0,0,0-2.64-.45c-1.31,0-2.08.41-2.08,1.06,0,.92,1.19,1.21,3.33,1.21.52,0,1-.06,1.54-.08.14,0,.18.07.17.18a9.11,9.11,0,0,1-.28,1.27c0,.14-.1.2-.29.21s-.66,0-1,0c-3.22,0-4.93-.91-4.93-2.63,0-1.5,1.29-2.44,3.47-2.44a6.67,6.67,0,0,1,2.41.35,16.2,16.2,0,0,1-1.16-1.65,32.49,32.49,0,0,1-3.84.42.22.22,0,0,1-.25-.19,6.38,6.38,0,0,1-.25-1.15,24.51,24.51,0,0,0,3.76-.35l-.53-1.17a23.12,23.12,0,0,1-3.4.34c-.17,0-.25-.06-.28-.2s-.14-.67-.23-1.12a23.27,23.27,0,0,0,3.49-.22C187.85,207.34,187.76,207.1,187.62,206.75Z"/><path d="M204.2,207.73c.16,0,.21,0,.23.14,0,.31.08.71.09,1s0,.22-.21.26a21.66,21.66,0,0,1-2.43.54c-1,3.11-1.67,5.25-2.57,7.57-.07.2-.15.19-.31.14s-.82-.35-1.12-.51a.23.23,0,0,1-.11-.28A52.83,52.83,0,0,0,200.2,210c-.82.08-1.8.15-2.46.15-.21,0-.26,0-.29-.22s-.13-.77-.2-1.28a6.91,6.91,0,0,0,1,0,18.52,18.52,0,0,0,2.27-.14c.14-.56.25-1.17.35-1.75a9,9,0,0,0,.08-1.29,8.09,8.09,0,0,1,1.77.4.23.23,0,0,1,.15.22.31.31,0,0,1-.07.22,2.78,2.78,0,0,0-.29.57c-.14.5-.24,1-.34,1.33C202.76,208.11,203.52,207.92,204.2,207.73Zm-.54,6.69c.14,0,.19.06.21.2.11,1,.79,1.32,2.14,1.32a20.89,20.89,0,0,0,2.35-.2c.11,0,.16,0,.17.13a8.14,8.14,0,0,1,.11,1.22c0,.16,0,.21-.22.22a16.79,16.79,0,0,1-1.91.15c-1.83,0-2.78-.25-3.41-.91a2.71,2.71,0,0,1-.64-1.92A7.39,7.39,0,0,1,203.66,214.42Zm-.16-3.71c0-.19,0-.24.25-.28a14.88,14.88,0,0,1,2.73-.32,10.66,10.66,0,0,1,1.64.14c.2,0,.24,0,.24.21a10.32,10.32,0,0,1,0,1.12c0,.24-.07.3-.27.25a10.11,10.11,0,0,0-1.74-.16,14.77,14.77,0,0,0-2.81.32C203.53,211.5,203.5,211,203.5,210.71Z"/><path d="M213.48,207.69c.13.05.23.15.23.25a1.33,1.33,0,0,1-.12.39,6.85,6.85,0,0,0-.12,1.37,18,18,0,0,0,.25,3.2c.2,1.1.56,2.06,1.15,2.06s.8-.49,1.34-2a5.56,5.56,0,0,0,.9,1.08.43.43,0,0,1,.1.52c-.53,1.43-1.4,2.18-2.38,2.18s-2.24-1.29-2.62-3.65a24.86,24.86,0,0,1-.34-4.08,7.58,7.58,0,0,0-.17-1.84A6.27,6.27,0,0,1,213.48,207.69Zm6.5.88a.42.42,0,0,1,.15-.06c.06,0,.1,0,.16.09a9.26,9.26,0,0,1,2.74,4.79c.05.18,0,.24-.15.31a5.12,5.12,0,0,1-1.09.56c-.17.05-.27,0-.3-.16a9.41,9.41,0,0,0-2.62-4.89C219.41,208.88,219.76,208.68,220,208.57Z"/><path d="M228.69,216.33a2,2,0,1,1-2-2A2,2,0,0,1,228.69,216.33Zm-3.2,0a1.17,1.17,0,1,0,1.16-1.16A1.14,1.14,0,0,0,225.49,216.33Z"/></g></g></svg>