<svg xmlns="http://www.w3.org/2000/svg" viewBox="0 0 698.1 536.51"><defs><style>.cls-1{fill:#fff;stroke-width:3px;}.cls-1,.cls-3{stroke:#000;}.cls-1,.cls-3,.cls-7{stroke-miterlimit:10;}.cls-2{font-size:16px;font-family:YuGo-Bold, YuGo Bold-90ms-RKSJ-H;font-weight:700;}.cls-3,.cls-7{fill:none;}.cls-4{letter-spacing:0.25em;}.cls-5{font-size:13px;fill:#666;font-family:YuGo-Medium, YuGo Medium-90ms-RKSJ-H;font-weight:500;}.cls-6{letter-spacing:-0.5em;}.cls-7{stroke:#e5e5e5;}</style></defs><g id="レイヤー_2" data-name="レイヤー 2"><g id="plan-web"><circle class="cls-1" cx="104.84" cy="104.84" r="103.34"/><text class="cls-2" transform="translate(56.84 70.44)">ライトプラン</text><line class="cls-3" x1="52.13" y1="81.96" x2="157.54" y2="81.96"/><text class="cls-2" transform="translate(58.6 120.54)"><tspan class="cls-4">5</tspan><tspan x="12.82" y="0">ページ前後</tspan></text><text class="cls-2" transform="translate(60.16 150.31)">100,00<tspan class="cls-4" x="47.6" y="0">0</tspan><tspan x="60.42" y="0">円～</tspan></text><circle class="cls-1" cx="349.05" cy="104.84" r="103.34"/><text class="cls-2" transform="translate(285.05 70.44)">ベーシックプラン</text><line class="cls-3" x1="284.39" y1="81.96" x2="413.71" y2="81.96"/><text class="cls-2" transform="translate(298.59 120.54)">1<tspan class="cls-4" x="8.82" y="0">0</tspan><tspan x="21.63" y="0">ページ前後</tspan></text><text class="cls-2" transform="translate(304.37 150.31)">200,00<tspan class="cls-4" x="47.6" y="0">0</tspan><tspan x="60.42" y="0">円～</tspan></text><circle class="cls-1" cx="593.26" cy="104.84" r="103.34"/><text class="cls-2" transform="translate(529.26 70.44)">プレミアムプラン</text><line class="cls-3" x1="531.07" y1="81.96" x2="655.46" y2="81.96"/><text class="cls-2" transform="translate(550.8 120.54)">1<tspan class="cls-4" x="8.82" y="0">1</tspan><tspan x="21.63" y="0">ページ～</tspan></text><text class="cls-2" transform="translate(548.59 150.31)">300,00<tspan class="cls-4" x="47.6" y="0">0</tspan><tspan x="60.42" y="0">円～</tspan></text><text class="cls-5" transform="translate(66.45 254.59)">※Wordpres<tspan class="cls-4" x="69.91" y="0">s</tspan><tspan x="78.67" y="0">での構築か、HTML/CS</tspan><tspan class="cls-4" x="210.39" y="0">S</tspan><tspan x="220.49" y="0">での構築かによって工数は異なるため、金額も異なります</tspan><tspan class="cls-6" x="558.49" y="0">。</tspan><tspan x="0" y="21">※ボリュームや素材の有無によって金額は変わります</tspan><tspan class="cls-6" x="312" y="21">。</tspan><tspan x="318.5" y="21">※コーポレートサイト・採用サイトなど</tspan></text><text class="cls-2" transform="translate(39.79 364.09)">E<tspan class="cls-4" x="8.4" y="0">C</tspan><tspan x="22.34" y="0">サイト構築</tspan></text><text class="cls-2" transform="translate(41.67 437.16)">その他（バナー、SN<tspan class="cls-4" x="147.74" y="0">S</tspan><tspan x="160.17" y="0">のサムネなど</tspan><tspan class="cls-6" x="256.17" y="0">）</tspan></text><text class="cls-2" transform="translate(36.26 511.1)">運用</text><text class="cls-5" transform="translate(491.7 511.1)">※年間費用<tspan x="0" y="21">※運用項目により異なります</tspan></text><text class="cls-5" transform="translate(491.7 437.16)">※素材の有無により変動します</text><text class="cls-5" transform="translate(491.7 364.09)">※shoppif<tspan class="cls-4" x="57.07" y="0">y</tspan><tspan x="66.86" y="0">などで制作　</tspan></text><line class="cls-7" x1="24.39" y1="394.09" x2="673.71" y2="394.09"/><line class="cls-7" x1="24.39" y1="469.69" x2="673.71" y2="469.69"/><text class="cls-2" transform="translate(369.31 364.09)">200,00<tspan class="cls-4" x="47.6" y="0">0</tspan><tspan x="60.42" y="0">円～</tspan></text><text class="cls-2" transform="translate(386.94 437.16)">5,00<tspan class="cls-4" x="29.97" y="0">0</tspan><tspan x="42.79" y="0">円～</tspan></text><text class="cls-2" transform="translate(378.12 511.1)">70,00<tspan class="cls-4" x="38.78" y="0">0</tspan><tspan x="51.6" y="0">円～</tspan></text></g></g></svg>