<svg xmlns="http://www.w3.org/2000/svg" viewBox="0 0 583.37 157.93"><defs><style>.cls-1{fill:#fff;}</style></defs><g id="レイヤー_2" data-name="レイヤー 2"><g id="レイヤー_1-2" data-name="レイヤー 1"><path d="M359.63,37.09l.09-33.67L389.24,0l15,42.84,26.79-24.39,34.37-4-.1,34.19-7.06,6L485.08,70.2A12.67,12.67,0,0,1,481,64.45a15.35,15.35,0,0,1-.93-5l.1-32.61h0a10.33,10.33,0,0,1,1.57-5.58A20.92,20.92,0,0,1,490.21,14a58,58,0,0,1,13.3-4.67A140.51,140.51,0,0,1,519.4,6.55a142.4,142.4,0,0,1,16.22-1h.19a74,74,0,0,1,15.1,1.49A41.75,41.75,0,0,1,563,11.61l.28.17a21.35,21.35,0,0,1,8.36,8.88l.11.22,0,12.62a26.87,26.87,0,0,1,3.84,1.82c.45.26.88.53,1.3.81a13.75,13.75,0,0,1,5.55,7,15.59,15.59,0,0,1,.93,5.14h0l-.09,32.6a11.39,11.39,0,0,1-1.64,5.89A22.8,22.8,0,0,1,573,94.69a55.39,55.39,0,0,1-13.88,5.17,140.84,140.84,0,0,1-16.73,3,148.32,148.32,0,0,1-17,1h-.75a79.13,79.13,0,0,1-16.4-1.69,43.81,43.81,0,0,1-12.45-4.68c-.28-.17-.57-.33-.84-.51a20.88,20.88,0,0,1-4.7-3.87l0,14.27-34.94,4.06L418.57,88.54,418,89l-.07,26.65-29.51,3.42Z"/><path d="M288.7,68.6l.09-33.67,28.13-3.26,3.41,9.7a18.45,18.45,0,0,1,2.92-4.1,27.31,27.31,0,0,1,6.48-5.05,44.8,44.8,0,0,1,8.51-3.71,52.35,52.35,0,0,1,10.06-2.13,33.86,33.86,0,0,1,3.92-.21c.81,0,1.65,0,2.53.07l.67,0L361,42.06l-.09,33.77h-1c-1.32,0-2.93,0-4.79.15s-3.57.24-5.29.44a43.25,43.25,0,0,0-12.13,2.9c-.77.34-1.51.7-2.2,1.09l3.77,10.75-.1,33.66-29.51,3.42Z"/><path d="M227.16,138.6c-3.19,0-6.33-.16-9.32-.46a71.61,71.61,0,0,1-18.9-4.34,52.39,52.39,0,0,1-6.94-3.32,41.19,41.19,0,0,1-7.36-5.37,30.94,30.94,0,0,1-8.45-12.69,25,25,0,0,1-1.52-8.4l.09-32.61h0A20,20,0,0,1,175.5,66,23.76,23.76,0,0,1,183,54.52a46.83,46.83,0,0,1,14.58-8.34,89,89,0,0,1,21-4.77,113.65,113.65,0,0,1,13-.78,91.08,91.08,0,0,1,9.62.49,73.14,73.14,0,0,1,19,4.39,50,50,0,0,1,6.86,3.28,41.53,41.53,0,0,1,7.46,5.46A31.48,31.48,0,0,1,283,67a25.09,25.09,0,0,1,1.5,8.35h0l-.09,32.6a20.23,20.23,0,0,1-.75,5.4,24,24,0,0,1-7.48,11.42,46,46,0,0,1-14.71,8.3,92.6,92.6,0,0,1-21.13,4.72A115,115,0,0,1,227.16,138.6ZM217.82,89A28.52,28.52,0,0,0,224,91a32.21,32.21,0,0,0,6.28.57,50.81,50.81,0,0,0,5.73-.35,46.8,46.8,0,0,0,5.2-.88,30.87,30.87,0,0,0-6.13-1.87,33.06,33.06,0,0,0-6.51-.6,48.42,48.42,0,0,0-5.61.34A45.73,45.73,0,0,0,217.82,89Z"/><polygon points="0 102.28 0.1 68.38 30.91 64.81 62.29 101.11 65.42 60.81 93.83 57.52 123.89 93.9 128.77 53.47 159.28 49.93 159.18 83.75 147.69 147 117.81 150.47 87.15 114.54 83.47 154.45 53.37 157.93 0 102.28"/><path class="cls-1" d="M554.6,49.6a4.93,4.93,0,0,0-.18-.71A4.93,4.93,0,0,1,554.6,49.6Z"/><path class="cls-1" d="M554.69,50.44a3.88,3.88,0,0,0-.06-.67A3.88,3.88,0,0,1,554.69,50.44Z"/><path class="cls-1" d="M554.69,50.44Z"/><path class="cls-1" d="M569.74,32.78c-.69-.23-1.37-.43-2-.61a64.43,64.43,0,0,0-11.52-1.84c-3.45-.26-7.11-.44-10.88-.52V25.07l24.46-2.84Z"/><path class="cls-1" d="M543.3,29.76c-4.21-.07-8.08-.12-11.81-.13-3.94,0-7.49-.14-10.56-.36a34.07,34.07,0,0,1-7.7-1.34,8.47,8.47,0,0,1-1.62-.7,3.56,3.56,0,0,1-1.72-1.89,2.43,2.43,0,0,1-.16-.89,2.64,2.64,0,0,1,0-.29c0-.12.06-.2.08-.27a2.89,2.89,0,0,1,.14-.27,1.94,1.94,0,0,1,.26-.34,7.91,7.91,0,0,1,2.89-1.84,22.43,22.43,0,0,1,4.54-1.26c1.75-.33,3.42-.58,5-.76a56,56,0,0,1,6.44-.39,41.8,41.8,0,0,1,6.78.53A12.64,12.64,0,0,1,540,21a8.26,8.26,0,0,1,3.29,3.44Z"/><polygon class="cls-1" points="435.49 41.44 463.41 17.75 463.32 47.73 456.42 53.58 435.49 41.44"/><path class="cls-1" d="M486.49,68.77a10.84,10.84,0,0,1-3.61-5,13.51,13.51,0,0,1-.82-4.38l.08-25.31a13.34,13.34,0,0,0,4.38,4.47l.9.55a31,31,0,0,0,8.22,3.17A67.13,67.13,0,0,0,507.09,44c4.08.28,8.31.45,12.57.51,10.3.06,18.51.37,24.42.93a19.85,19.85,0,0,1,7.58,1.89,3.81,3.81,0,0,1,1.81,1.93,3.45,3.45,0,0,1,.15.57l0,.13a4.73,4.73,0,0,1,0,.52,2.56,2.56,0,0,1-.58,1.62,9.1,9.1,0,0,1-3.26,2.51,26.48,26.48,0,0,1-5.24,1.85,48.77,48.77,0,0,1-5.91,1.1,57.39,57.39,0,0,1-6.35.36c-.55,0-1.1,0-1.64,0a33.34,33.34,0,0,1-7.17-1A19.25,19.25,0,0,1,518.72,55c-.25-.15-.51-.3-.75-.46a7.38,7.38,0,0,1-3-3.78l-.27-.75-28.13,3.26Z"/><path class="cls-1" d="M329.87,64.53a18.82,18.82,0,0,1-1.15-7.16A9.92,9.92,0,0,1,331,51.44a17.34,17.34,0,0,1,6.74-4.73,43.08,43.08,0,0,1,12.12-2.9c1.72-.19,3.5-.34,5.29-.43,1.42-.08,2.68-.13,3.79-.14l-.08,30.6q-1.72,0-3.9.15c-1.83.09-3.66.24-5.42.44a45,45,0,0,0-12.7,3.06c-.72.31-1.41.65-2.07,1Z"/><polygon class="cls-1" points="411.09 62.3 417.57 56.85 417.51 80.61 411.09 62.3"/><path class="cls-1" d="M524.67,101.79a76.45,76.45,0,0,1-16-1.65,41.53,41.53,0,0,1-11.88-4.45l-.8-.48a19.27,19.27,0,0,1-5.74-5.36l.05-16.61-1.84-1.07,0-14.07a20.92,20.92,0,0,0,6.54,6.21c.28.17.56.34.85.5a43.44,43.44,0,0,0,12.44,4.68,79.13,79.13,0,0,0,16.4,1.69h.76a148.15,148.15,0,0,0,17-1,141.37,141.37,0,0,0,16.74-3,55.46,55.46,0,0,0,13.87-5.17,23.24,23.24,0,0,0,8.26-7.26l-.07,26.11a9.42,9.42,0,0,1-1.35,4.86A20.81,20.81,0,0,1,572,92.94a53.18,53.18,0,0,1-13.37,5,138.83,138.83,0,0,1-16.49,2.91,144.34,144.34,0,0,1-16.75,1Z"/><path class="cls-1" d="M524.76,69.18a77.15,77.15,0,0,1-16-1.64,41.47,41.47,0,0,1-11.87-4.46c-.27-.15-.54-.31-.8-.48A18.69,18.69,0,0,1,489,55l24.32-2.82a9.65,9.65,0,0,0,3.53,4c.28.18.56.35.86.52a20.75,20.75,0,0,0,5.32,2.12,36,36,0,0,0,7.6,1c.56,0,1.13,0,1.7,0a56.84,56.84,0,0,0,6.58-.38,47,47,0,0,0,6.16-1.14,27.55,27.55,0,0,0,5.64-2,11.22,11.22,0,0,0,4-3.07,4.56,4.56,0,0,0,1-2.85,5.16,5.16,0,0,0-.07-.83l0-.19a6.28,6.28,0,0,0-.23-.85,5.76,5.76,0,0,0-2.7-3c-1.89-1.09-4.63-1.79-8.39-2.15-6-.56-14.24-.88-24.59-.94-4.22-.06-8.41-.23-12.46-.5a65.24,65.24,0,0,1-11.11-1.63,28.32,28.32,0,0,1-7.68-3c-.28-.16-.56-.32-.83-.5a11,11,0,0,1-4.63-5.7c-.14-.42-.27-.83-.38-1.24l-.09-.4c-.06-.26-.12-.53-.17-.79a2.54,2.54,0,0,0,0-.29l0-.16c0-.23-.06-.46-.08-.69s0-.3,0-.45a8.46,8.46,0,0,1,1.27-4.88,18.85,18.85,0,0,1,7.68-6.54A56.66,56.66,0,0,1,504,11.23,143.29,143.29,0,0,1,535.62,7.6h.19A71.51,71.51,0,0,1,550.5,9.05,39.46,39.46,0,0,1,562,13.34l.26.16a19.41,19.41,0,0,1,6.89,6.79l-24.3,2.82A10.29,10.29,0,0,0,541,19.24a14.32,14.32,0,0,0-4.84-1.65,43.6,43.6,0,0,0-7.11-.56,57.62,57.62,0,0,0-6.67.41c-1.6.18-3.32.44-5.11.77a24.81,24.81,0,0,0-4.93,1.37,10.15,10.15,0,0,0-3.6,2.33,3.2,3.2,0,0,0-.4.51l-.09.13a4.8,4.8,0,0,0-.23.43,1.67,1.67,0,0,0-.08.2,2.77,2.77,0,0,0-.15.49l0,.14a3,3,0,0,0-.06.62A4.48,4.48,0,0,0,508,26a5.55,5.55,0,0,0,2.61,3,10.74,10.74,0,0,0,2,.87,35.73,35.73,0,0,0,8.16,1.44c3.12.22,6.72.34,10.7.36,3.81,0,7.76.06,12.07.14l.73,0c4.08.07,8,.25,11.75.53a63.36,63.36,0,0,1,11.17,1.79c1,.27,2.07.6,3.19,1a27.32,27.32,0,0,1,4.19,1.93c.41.24.81.48,1.2.74a11.65,11.65,0,0,1,4.76,6.05,13.27,13.27,0,0,1,.81,4.73c0,.25,0,.49-.05.73s0,.34-.06.51-.09.47-.14.71l0,.13c0,.11,0,.22-.07.33s-.18.5-.27.75l-.07.18a1.07,1.07,0,0,1-.07.19,9.94,9.94,0,0,1-.56,1.08,20.8,20.8,0,0,1-7.9,7.16,53.72,53.72,0,0,1-13.37,5,139.36,139.36,0,0,1-16.5,2.91,146.4,146.4,0,0,1-16.74,1Z"/><polygon class="cls-1" points="419.49 86.76 419.57 56.5 454.61 78.28 454.53 108.54 419.49 86.76"/><polygon class="cls-1" points="456.61 78.62 488.32 74.94 488.23 105.53 456.52 109.21 456.61 78.62"/><path class="cls-1" d="M244.11,89.48a30.62,30.62,0,0,0-8.63-3,34.84,34.84,0,0,0-6.91-.64,52.43,52.43,0,0,0-5.84.35,43,43,0,0,0-7.5,1.49,20.55,20.55,0,0,1-5.78-5.26A24.89,24.89,0,0,1,206,75.93a20.66,20.66,0,0,1-1.2-6.75c0-.1,0-.2,0-.3v-.53l.05-.43,0-.35.06-.3.08-.46a2.29,2.29,0,0,1,.07-.28l.12-.47.14-.41.1-.32c0-.11.09-.22.14-.34l.16-.37c.07-.15.16-.31.24-.47l.07-.13c.17-.32.31-.54.46-.77a15.14,15.14,0,0,1,5.69-4.8,31.16,31.16,0,0,1,10.82-2.9,50.89,50.89,0,0,1,5.61-.34,33.06,33.06,0,0,1,6.51.6,28.09,28.09,0,0,1,8.44,3l.38.22a19.78,19.78,0,0,1,5.84,5.29,25.58,25.58,0,0,1,3.48,6.54,20.12,20.12,0,0,1,1.17,6.67,10.91,10.91,0,0,1-1.75,6A14.08,14.08,0,0,1,247,88.3,20.21,20.21,0,0,1,244.11,89.48Z"/><polygon class="cls-1" points="390.17 86.31 416 83.32 415.91 113.91 390.08 116.9 390.17 86.31"/><polygon class="cls-1" points="361.63 36.75 361.7 10.14 388.17 85.59 388.1 112.2 361.63 36.75"/><polygon class="cls-1" points="362.08 5.16 387.88 2.17 403.37 46.35 431.92 20.36 461.25 16.96 432.04 41.75 486.21 73.17 455.85 76.69 418.49 53.47 408.74 61.65 415.65 81.35 389.85 84.33 362.08 5.16"/><path class="cls-1" d="M276.64,91.87a25,25,0,0,0,5.86-7.73L282.44,108a18.35,18.35,0,0,1-.68,4.87,21.22,21.22,0,0,1-5.2,8.85Z"/><polygon class="cls-1" points="311.38 95.44 337.21 92.45 337.13 123.04 311.29 126.03 311.38 95.44"/><path class="cls-1" d="M291.15,36.67l24.42-2.83,3.82,10.9,1.82-.2.21-.61a14.89,14.89,0,0,1,3.29-5.3,25.25,25.25,0,0,1,6-4.68,43.25,43.25,0,0,1,8.12-3.54,50.08,50.08,0,0,1,9.68-2,30.09,30.09,0,0,1,3.69-.2l1.76,0,4.57,13c-1,0-2.21.07-3.49.14-1.83.09-3.66.24-5.42.45a45.12,45.12,0,0,0-12.7,3.05,19.24,19.24,0,0,0-7.49,5.31,12,12,0,0,0-2.73,7.08A20.77,20.77,0,0,0,328,65.19l8.87,25.29-25.8,3Z"/><polygon class="cls-1" points="290.7 68.26 290.77 41.65 309.38 94.72 309.31 121.33 290.7 68.26"/><path class="cls-1" d="M227.16,136.6a89.84,89.84,0,0,1-9.12-.45,69.67,69.67,0,0,1-18.37-4.21,50.82,50.82,0,0,1-6.67-3.19,39.09,39.09,0,0,1-7-5.11,29.16,29.16,0,0,1-7.92-11.89,23.06,23.06,0,0,1-1.4-7.73l.06-23a31.29,31.29,0,0,0,8,11.48,42.19,42.19,0,0,0,7.36,5.37,52.36,52.36,0,0,0,6.94,3.31,72.19,72.19,0,0,0,18.9,4.35c3,.3,6.13.45,9.32.45a117.53,117.53,0,0,0,13.22-.79,93.17,93.17,0,0,0,21.12-4.72,48.78,48.78,0,0,0,13.05-6.93l-.09,30a44.79,44.79,0,0,1-13.74,7.64,91.37,91.37,0,0,1-20.67,4.61A113.2,113.2,0,0,1,227.16,136.6Z"/><path class="cls-1" d="M227.25,104a89.84,89.84,0,0,1-9.12-.45,69.76,69.76,0,0,1-18.37-4.21,49,49,0,0,1-6.67-3.19,39.09,39.09,0,0,1-7-5.11,29.2,29.2,0,0,1-7.92-11.88c-.2-.59-.39-1.2-.57-1.86l-.09-.36-.06-.23c-.1-.41-.2-.83-.28-1.24,0-.22-.07-.44-.11-.66-.06-.39-.11-.77-.15-1.15,0-.22-.05-.44-.07-.66,0-.38,0-.77-.05-1.15a18.43,18.43,0,0,1,.65-5.3A21.82,21.82,0,0,1,184.28,56a45.06,45.06,0,0,1,14-8,86.94,86.94,0,0,1,20.54-4.65,112.07,112.07,0,0,1,12.8-.77,89.78,89.78,0,0,1,9.41.48,71.19,71.19,0,0,1,18.5,4.26,49.55,49.55,0,0,1,6.59,3.15,39.23,39.23,0,0,1,7.1,5.2,29.4,29.4,0,0,1,7.94,11.94,22.86,22.86,0,0,1,1.39,7.91c0,.15,0,.28,0,.42,0,.38,0,.7-.06,1s0,.34-.05.51-.09.63-.14.94l-.08.43c-.09.45-.19.9-.32,1.35A22.09,22.09,0,0,1,275,90.68,44,44,0,0,1,260.9,98.6a90.84,90.84,0,0,1-20.67,4.61,113.2,113.2,0,0,1-13,.78Zm1.41-50.78a52.57,52.57,0,0,0-5.84.35,33.26,33.26,0,0,0-11.53,3.12,17.11,17.11,0,0,0-6.43,5.48c-.17.26-.33.53-.48.8l-.09.17c-.14.27-.24.46-.33.65s-.14.33-.14.33l-.22.52-.09.25-.08.24-.12.37c0,.1-.1.41-.1.41l0,.11c0,.13-.07.25-.1.37s-.07.41-.07.41l0,.12c0,.12-.05.25-.07.38l0,.29s0,.51-.06.63,0,.58,0,.58,0,.27,0,.4a22.94,22.94,0,0,0,1.31,7.4,26.86,26.86,0,0,0,3.72,7,22.81,22.81,0,0,0,6.41,5.82l.61.36a28.68,28.68,0,0,0,8.76,3.15,33.87,33.87,0,0,0,6.67.61,50.39,50.39,0,0,0,6-.37,43.19,43.19,0,0,0,8.06-1.63,24,24,0,0,0,3.58-1.43,16.11,16.11,0,0,0,6.54-5.51,12.87,12.87,0,0,0,2.06-7,22,22,0,0,0-1.29-7.33,27.45,27.45,0,0,0-3.74-7.05A21.76,21.76,0,0,0,245,57.35l-.42-.24a30,30,0,0,0-9-3.26A35.53,35.53,0,0,0,228.66,53.21Z"/><polygon class="cls-1" points="147.94 113.58 157.24 62.34 157.18 83.57 147.88 134.82 147.94 113.58"/><polygon class="cls-1" points="87.37 111.72 87.45 82.18 117.32 117.17 117.23 146.71 87.37 111.72"/><polygon class="cls-1" points="119.31 117.7 145.93 114.61 145.85 145.21 119.23 148.29 119.31 117.7"/><polygon class="cls-1" points="83.64 120.94 85.4 101.94 85.37 112.08 83.62 131.09 83.64 120.94"/><polygon class="cls-1" points="54.84 125.17 81.64 122.06 81.56 152.66 54.75 155.76 54.84 125.17"/><polygon class="cls-1" points="2 101.48 2.09 71.75 52.84 124.68 52.76 154.4 2 101.48"/><polygon class="cls-1" points="3.21 70.03 30.08 66.92 63.91 106.05 67.29 62.6 92.98 59.63 125.32 98.77 130.57 55.28 157.05 52.21 146.08 112.58 118.73 115.75 85.68 77.03 81.72 120.04 54.22 123.23 3.21 70.03"/></g></g></svg>